<svg xmlns="http://www.w3.org/2000/svg" viewBox="0 0 500 500"><path d="M413.69 260.85c-90.45-52-237.11-52-327.56 0s-90.45 136.34 0 188.35 237.11 52 327.56 0 90.45-136.34 0-188.35" style="fill:#f5f5f5"/><path d="M389.18 324c-14.61 8.43-14.61 22.11 0 30.54s38.3 8.44 52.91 0 14.61-22.11 0-30.54-38.3-8.4-52.91 0M137 424.42l-8.68-5.11a5.4 5.4 0 0 0-4.89 0L110 427.09a5.4 5.4 0 0 1-4.89 0l-45.6-26.33c-1.35-.78-1.35-2 0-2.82l151.17-87.28a5.4 5.4 0 0 1 4.89 0L261.15 337c1.35.78 1.35 2.05 0 2.84l-13.49 7.93c-1.35.79-1.34 2.06 0 2.83l8.66 4.94c1.36.77 1.36 2 0 2.81l-114.41 66.07a5.4 5.4 0 0 1-4.91 0" style="fill:#e0e0e0"/><ellipse cx="324.53" cy="419.35" rx="56.85" ry="32.82" style="fill:#e0e0e0"/><path d="m434.03 145.6-1.42.85-29.26-16.89 1.42-.85z" style="fill:#fafafa"/><path d="m404.77 128.71 27.84 16.07v-29.15l-27.84-16.06z" style="fill:#fff"/><path d="m400.65 131.11 34.65 20v-37l-34.65-20Zm2.69-32.38 29.27 16.9v30.82l-29.27-16.89Z" style="fill:#f0f0f0"/><path d="m403.35 129.56 1.42-.85V99.57l-1.43-.84z" style="fill:#e0e0e0"/><path d="m400.65 94.07 1.45-.83 34.65 20-1.45.83z" style="fill:#fafafa"/><path d="m436.75 113.24-1.45.83v37.04l1.45-.83z" style="fill:#e0e0e0"/><path d="m405.86 127.84 25.66 14.81v-7.41l-6.42-14.81-3.99 3.7 1.43 6.21-8.86-18.95-7.82 9.04z" style="fill:#f0f0f0"/><path d="M421.35 113.27a4.21 4.21 0 0 1 1.9 3.29c0 1.21-.85 1.7-1.9 1.1a4.21 4.21 0 0 1-1.9-3.29c0-1.21.85-1.7 1.9-1.1" style="fill:#f0f0f0"/><path d="m434.65 193.66-1.43.85-29.26-16.89 1.43-.86z" style="fill:#fafafa"/><path d="m405.39 176.76 27.83 16.07v-29.15l-27.83-16.06z" style="fill:#fff"/><path d="m401.27 179.17 34.64 20v-37l-34.64-20Zm2.73-32.38 29.26 16.89v30.83L404 177.61Z" style="fill:#f0f0f0"/><path d="m403.96 177.62 1.43-.86v-29.14l-1.43-.83z" style="fill:#e0e0e0"/><path d="m401.27 142.13 1.45-.83 34.64 20-1.45.83z" style="fill:#fafafa"/><path d="m437.36 161.3-1.45.83v37.04l1.45-.83z" style="fill:#e0e0e0"/><path d="m406.47 175.89 25.67 14.82v-7.41l-6.42-14.81-4 3.7 1.44 6.21-8.86-18.95-7.83 9.04z" style="fill:#f0f0f0"/><path d="M422 161.33a4.21 4.21 0 0 1 1.9 3.29c0 1.21-.85 1.7-1.9 1.09a4.19 4.19 0 0 1-1.89-3.28c-.04-1.21.81-1.7 1.89-1.1" style="fill:#f0f0f0"/><path d="M398 276.62a1 1 0 0 1 .59-.83 3.16 3.16 0 0 1 2.84 0 1 1 0 0 1 .59.83l-15.15 62.78a.7.7 0 0 1-.42.57 2.22 2.22 0 0 1-2 0 .69.69 0 0 1-.41-.57Zm34.81 0a1 1 0 0 0-.58-.83 3.18 3.18 0 0 0-2.85 0 1 1 0 0 0-.59.83l15.12 62.78a.72.72 0 0 0 .42.57 2.22 2.22 0 0 0 2 0 .69.69 0 0 0 .41-.57Zm-15.16 2.07a1 1 0 0 0-.59-.82 3.12 3.12 0 0 0-2.85 0 1 1 0 0 0-.59.82l.59 70.81a.74.74 0 0 0 .42.57 2.22 2.22 0 0 0 2 0 .74.74 0 0 0 .42-.57Z" style="fill:#455a64"/><path d="M451.71 261.54c0-5.33-3.49-10.66-10.53-14.72-14.09-8.14-36.94-8.14-51 0-7 4.06-10.53 9.39-10.53 14.72v2.87c.08 5.26 3.61 10.5 10.56 14.52 14.09 8.13 36.94 8.13 51 0 7-4 10.48-9.26 10.56-14.52Z" style="fill:#10b981"/><path d="M390.12 246.82c-14.08 8.13-14.08 21.32 0 29.45s36.93 8.14 51 0 14.09-21.32 0-29.45-36.91-8.14-51 0" style="fill:#10b981"/><path d="M390.12 246.82c-14.08 8.13-14.08 21.32 0 29.45s36.93 8.14 51 0 14.09-21.32 0-29.45-36.91-8.14-51 0" style="fill:#fff;opacity:.45"/><path d="M423.54 254.66c4.49 2.6 4.49 6.8 0 9.4s-11.78 2.59-16.28 0-4.49-6.8 0-9.4 11.74-2.59 16.28 0" style="opacity:.05"/><path d="M408.24 259.94c-3.91-4-6.21-14-2.39-17.13h19.42c3.82 3.16 1.52 13.13-2.39 17.13l-.11.11-.13.13c-.11.1-.23.21-.36.31l-.09.07-.29.23a5 5 0 0 1-.51.32 12.88 12.88 0 0 1-11.66 0c-.17-.09-.34-.21-.51-.32l-.27-.21-.12-.09-.34-.31-.16-.15Z" style="fill:#ebebeb"/><path d="M423.58 241.53c4.44 2.56 4.44 6.71 0 9.27a17.77 17.77 0 0 1-16 0c-4.44-2.56-4.44-6.71 0-9.27a17.71 17.71 0 0 1 16 0" style="fill:#fafafa"/><path d="M420.44 243.34c2.7 1.56 2.7 4.08 0 5.64a10.76 10.76 0 0 1-9.76 0c-2.7-1.56-2.7-4.08 0-5.64a10.82 10.82 0 0 1 9.76 0" style="fill:#ebebeb"/><path d="M410.68 246a10.76 10.76 0 0 1 9.76 0 4.5 4.5 0 0 1 1.62 1.48 4.5 4.5 0 0 1-1.62 1.48 10.76 10.76 0 0 1-9.76 0 4.5 4.5 0 0 1-1.62-1.48 4.5 4.5 0 0 1 1.62-1.48" style="fill:#e0e0e0"/><path d="M419.85 247.5a22.2 22.2 0 0 0 3.53-4.69c1.63-2.89 1.93-6.75 1.09-7.23s-4.28 3.38-4.28 3.38a20.6 20.6 0 0 0 .36-4.92c-.14-2.57-.77-4.91-1.5-5.38s-2.38 2.77-3.09 5.12-1.13 4.28-1.13 4.28a36.5 36.5 0 0 0-1.26-5.41c-.86-2.43-1.63-3-2.24-2.74s-1 1.37-1.17 4.62a31.5 31.5 0 0 0 .14 4.65s-1.21-1.33-2.55-2.62-2.11-1.62-2.53-1.34-.54 2.47 1.75 6.6a22.9 22.9 0 0 0 4.31 5.68s3.16 2.04 8.57 0" style="fill:#10b981"/><path d="M419.85 247.5a22.2 22.2 0 0 0 3.53-4.69c1.63-2.89 1.93-6.75 1.09-7.23s-4.28 3.38-4.28 3.38a20.6 20.6 0 0 0 .36-4.92c-.14-2.57-.77-4.91-1.5-5.38s-2.38 2.77-3.09 5.12-1.13 4.28-1.13 4.28a36.5 36.5 0 0 0-1.26-5.41c-.86-2.43-1.63-3-2.24-2.74s-1 1.37-1.17 4.62a31.5 31.5 0 0 0 .14 4.65s-1.21-1.33-2.55-2.62-2.11-1.62-2.53-1.34-.54 2.47 1.75 6.6a22.9 22.9 0 0 0 4.31 5.68s3.16 2.04 8.57 0" style="opacity:.30000000000000004"/><path d="M139.52 78.36 131.85 74a.88.88 0 0 0-.79 0L122 78.06a1.08 1.08 0 0 1-1.51-.7c-.53-1.66 1.44-1.66.63-3a2.49 2.49 0 0 1-.14-2.19L127 60a1.38 1.38 0 0 0-.54-1.78l-9.21-5.29a1.36 1.36 0 0 0-1.81.42l-7.53 11.33a2.49 2.49 0 0 1-2 1 20 20 0 0 0-2.64.12L106 59l-7.69-4.41a.82.82 0 0 0-.82.07l-10.21 5.88a2.75 2.75 0 0 0-1.22 1.91L85 73.78a3.74 3.74 0 0 1-1 2.12 62 62 0 0 0-5.66 6 2 2 0 0 1-2 .57l-6.54-2.28a1.6 1.6 0 0 0-1.84.68l-7.49 13a1.6 1.6 0 0 0 .32 1.93l5.21 4.49a1.93 1.93 0 0 1 .51 2 62 62 0 0 0-2.36 7.9 3.77 3.77 0 0 1-1.3 2l-9.31 6.56a2.75 2.75 0 0 0-1 2v11.77a.82.82 0 0 0 .36.75l7.67 4.4 4.81-5a17 17 0 0 0 .92 1.73 2.51 2.51 0 0 1 .14 2.2l-6 12.19a1.37 1.37 0 0 0 .53 1.78l9.22 5.29a1.37 1.37 0 0 0 1.8-.42l4.88-12.84a2.52 2.52 0 0 1 2-1 20 20 0 0 0 4.9-.5 1.08 1.08 0 0 1 1.36 1l1 9.9a.85.85 0 0 0 .39.7l7.58 4.3 6-8.84a2.72 2.72 0 0 0 1.21-1.9l-1.61-12.81a2.29 2.29 0 0 1 1.31-1.72 23.9 23.9 0 0 0 7.91-5.55 2 2 0 0 1 2-.54l4 1.41a1.59 1.59 0 0 0 1.83-.68l7.5-13a1.61 1.61 0 0 0-.33-1.94l-3.45-3a2.09 2.09 0 0 1-.56-2 34.2 34.2 0 0 0 .93-9.41 2.62 2.62 0 0 1 1-2l12-5a2.72 2.72 0 0 0 1-2l4.45-5.33ZM95 125c-9.51 5.49-15.42 1.6-15.42-9.38S87.46 91.19 97 85.7s15.27-1.5 15.27 9.48S104.53 119.51 95 125" style="fill:#10b981"/><path d="M139.52 78.36 131.85 74a.88.88 0 0 0-.79 0L122 78.06a1.08 1.08 0 0 1-1.51-.7c-.53-1.66 1.44-1.66.63-3a2.49 2.49 0 0 1-.14-2.19L127 60a1.38 1.38 0 0 0-.54-1.78l-9.21-5.29a1.36 1.36 0 0 0-1.81.42l-7.53 11.33a2.49 2.49 0 0 1-2 1 20 20 0 0 0-2.64.12L106 59l-7.69-4.41a.82.82 0 0 0-.82.07l-10.21 5.88a2.75 2.75 0 0 0-1.22 1.91L85 73.78a3.74 3.74 0 0 1-1 2.12 62 62 0 0 0-5.66 6 2 2 0 0 1-2 .57l-6.54-2.28a1.6 1.6 0 0 0-1.84.68l-7.49 13a1.6 1.6 0 0 0 .32 1.93l5.21 4.49a1.93 1.93 0 0 1 .51 2 62 62 0 0 0-2.36 7.9 3.77 3.77 0 0 1-1.3 2l-9.31 6.56a2.75 2.75 0 0 0-1 2v11.77a.82.82 0 0 0 .36.75l7.67 4.4 4.81-5a17 17 0 0 0 .92 1.73 2.51 2.51 0 0 1 .14 2.2l-6 12.19a1.37 1.37 0 0 0 .53 1.78l9.22 5.29a1.37 1.37 0 0 0 1.8-.42l4.88-12.84a2.52 2.52 0 0 1 2-1 20 20 0 0 0 4.9-.5 1.08 1.08 0 0 1 1.36 1l1 9.9a.85.85 0 0 0 .39.7l7.58 4.3 6-8.84a2.72 2.72 0 0 0 1.21-1.9l-1.61-12.81a2.29 2.29 0 0 1 1.31-1.72 23.9 23.9 0 0 0 7.91-5.55 2 2 0 0 1 2-.54l4 1.41a1.59 1.59 0 0 0 1.83-.68l7.5-13a1.61 1.61 0 0 0-.33-1.94l-3.45-3a2.09 2.09 0 0 1-.56-2 34.2 34.2 0 0 0 .93-9.41 2.62 2.62 0 0 1 1-2l12-5a2.72 2.72 0 0 0 1-2l4.45-5.33ZM95 125c-9.51 5.49-15.42 1.6-15.42-9.38S87.46 91.19 97 85.7s15.27-1.5 15.27 9.48S104.53 119.51 95 125" style="fill:#fff;opacity:.30000000000000004"/><path d="m95.67 139.81-14.86-6.22-12.66-6.53-5.35 9.54 2.56-4a18 18 0 0 0 .92 1.73 2.51 2.51 0 0 1 .14 2.2l-6 12.19a1.37 1.37 0 0 0 .53 1.78l9.22 5.29a1.37 1.37 0 0 0 1.8-.42l4.88-12.84a2.52 2.52 0 0 1 2-1 20 20 0 0 0 4.9-.5 1.08 1.08 0 0 1 1.36 1l1 9.9a.85.85 0 0 0 .39.7l7.6 4.37 2.84-4.17Zm23.69-36.01V84.11l-8.32-7-3.92 6.65c3.29 1.3 5.12 5.27 5.12 11.45 0 11-7.71 24.33-17.22 29.82-5.57 3.22-9.9 3.19-12.53.42l-2.85 4.82s14 4.32 20.39 1.63 19.33-28.1 19.33-28.1" style="opacity:.1"/><path d="m125 64 2-4a1.38 1.38 0 0 0-.54-1.78l-9.21-5.29a1.36 1.36 0 0 0-1.81.42l-7.53 11.33a1.9 1.9 0 0 1-.5.48l11.08 6.38Zm-61.41 47.42a3.5 3.5 0 0 1-.72.76l-9.31 6.56a2.3 2.3 0 0 0-.61.7l8.33 4.79 12.36-7Zm5.66-31.32a1.62 1.62 0 0 0-1.31.76l-7.49 13a1.46 1.46 0 0 0-.17.94l9.11 5.2 10.25-13.86Zm17.01-18.33 10.64 6.12 9.1-5.24V59l-7.69-4.41a.82.82 0 0 0-.82.07l-10.21 5.88a2.7 2.7 0 0 0-1.02 1.23m53.27 16.59a.85.85 0 0 0-.81 0l-9.07 4.09a1.08 1.08 0 0 1-1.51-.7c-.36-1.14-2.52-4.2-2.33-5.42l5.25-2.33a.87.87 0 0 1 .79 0Z" style="fill:#10b981"/><g style="opacity:.7000000000000001"><path d="m125 64 2-4a1.38 1.38 0 0 0-.54-1.78l-9.21-5.29a1.36 1.36 0 0 0-1.81.42l-7.53 11.33a1.9 1.9 0 0 1-.5.48l11.08 6.38Z" style="fill:#fff"/><path d="m118.62 72.17-12.11-7 .63-.45a1.4 1.4 0 0 0 .37-.36l7.54-11.33a1.88 1.88 0 0 1 2.47-.58l9.21 5.3a1.89 1.89 0 0 1 .74 2.43l-2.07 4.13Zm-10.35-7.11 10.13 5.83 6.2-7.15 2-4a.88.88 0 0 0-.34-1.12L117 53.35a.87.87 0 0 0-1.14.27L108.35 65a.4.4 0 0 0-.08.06m-44.68 46.36a3.5 3.5 0 0 1-.72.76l-9.31 6.56a2.3 2.3 0 0 0-.61.7l8.33 4.79 12.36-7Z" style="fill:#fff"/><path d="m61.28 124.8-9-5.18.27-.44a2.8 2.8 0 0 1 .75-.85l9.31-6.56a2.5 2.5 0 0 0 .6-.64l.27-.37 11.2 6.44Zm-7.59-5.51 7.59 4.36 11.35-6.46-8.91-5.12a3 3 0 0 1-.56.52l-9.31 6.55a1 1 0 0 0-.16.15M69.25 80.1a1.62 1.62 0 0 0-1.31.76l-7.49 13a1.46 1.46 0 0 0-.17.94l9.11 5.2 10.25-13.86Z" style="fill:#fff"/><path d="m69.53 100.67-9.72-5.58v-.25a2.13 2.13 0 0 1 .19-1.26l7.5-13a2.09 2.09 0 0 1 1.72-1h.15l11 6.39Zm-8.76-6.18 8.48 4.87 9.66-13.06-9.77-5.69a1.1 1.1 0 0 0-.77.5l-7.49 13a.85.85 0 0 0-.11.38m25.49-32.72 10.64 6.12 9.1-5.24V59l-7.69-4.41a.82.82 0 0 0-.82.07l-10.21 5.88a2.7 2.7 0 0 0-1.02 1.23" style="fill:#fff"/><path d="M96.9 68.47 85.62 62l.18-.41a3.2 3.2 0 0 1 1.2-1.48l10.19-5.88a1.33 1.33 0 0 1 1.3-.09l8 4.56v4.24Zm-10-6.89 10 5.73 8.58-5v-3.03L98 55a.4.4 0 0 0-.32.07L87.53 61a2 2 0 0 0-.6.58Zm52.63 16.78a.85.85 0 0 0-.81 0l-9.07 4.09a1.08 1.08 0 0 1-1.51-.7c-.36-1.14-2.54-4.29-2.33-5.42l5.25-2.33a.87.87 0 0 1 .79 0Z" style="fill:#fff"/><path d="M129.17 83.06a1.5 1.5 0 0 1-.62-.13 1.65 1.65 0 0 1-.89-1 13.4 13.4 0 0 0-.86-1.75c-1-1.77-1.64-3.08-1.48-3.91l.05-.26 5.48-2.47a1.6 1.6 0 0 1 .5-.14v-.3l.75.42 7.9 4.55v1.23l-.78-.51a.35.35 0 0 0-.32 0l-9.07 4.08a1.7 1.7 0 0 1-.66.19m-2.86-6.39a13.8 13.8 0 0 0 1.36 3 14 14 0 0 1 1 1.93.66.66 0 0 0 .33.4.56.56 0 0 0 .49 0l8.64-3.89-5.73-3.29-.75-.43a.38.38 0 0 0-.34 0Z" style="fill:#fff"/></g><path d="M139.88 90.89V79.12a.76.76 0 0 0-1.16-.75l-9.07 4.09a1.08 1.08 0 0 1-1.51-.7 19.7 19.7 0 0 0-2-4.5 2.49 2.49 0 0 1-.14-2.19l6-12.2a1.37 1.37 0 0 0-.54-1.77l-6.56-3.79a1.37 1.37 0 0 0-1.8.42l-7.54 11.34a2.55 2.55 0 0 1-2 1 20.2 20.2 0 0 0-4.91.49 1.08 1.08 0 0 1-1.36-1l-1-9.9a.76.76 0 0 0-1.23-.62l-10.12 5.9a2.76 2.76 0 0 0-1.22 1.9l-1 11.34a3.77 3.77 0 0 1-1.06 2.12 62 62 0 0 0-5.66 6 2 2 0 0 1-2 .57l-6.54-2.29a1.61 1.61 0 0 0-1.84.68l-7.49 13a1.59 1.59 0 0 0 .33 1.93l5.25 4.53a2 2 0 0 1 .51 2 61 61 0 0 0-2.36 7.9 3.82 3.82 0 0 1-1.31 2l-9.31 6.55a2.77 2.77 0 0 0-1 2v11.73a.76.76 0 0 0 1.16.75l9.07-4.09a1.08 1.08 0 0 1 1.51.7 20.2 20.2 0 0 0 2 4.5 2.51 2.51 0 0 1 .13 2.2l-6 12.19a1.37 1.37 0 0 0 .53 1.77l6.57 3.79a1.37 1.37 0 0 0 1.8-.42L84.48 147a2.47 2.47 0 0 1 2-1 20.2 20.2 0 0 0 4.91-.5 1.08 1.08 0 0 1 1.36 1l1 9.9a.76.76 0 0 0 1.23.63l10.19-5.89a2.72 2.72 0 0 0 1.21-1.9l1-11.34a3.7 3.7 0 0 1 1.06-2.11 62 62 0 0 0 5.66-6 1.92 1.92 0 0 1 2-.56l6.54 2.28a1.61 1.61 0 0 0 1.84-.68l7.49-13a1.6 1.6 0 0 0-.33-1.93l-5.25-4.52a2 2 0 0 1-.51-2 62 62 0 0 0 2.36-7.9 3.77 3.77 0 0 1 1.3-2l9.31-6.56a2.72 2.72 0 0 0 1.03-2.03m-39.85 37c-9.5 5.49-17.21 1-17.21-9.94S90.53 93.62 100 88.13s17.22-1 17.22 9.94-7.68 24.33-17.22 29.82Z" style="fill:#10b981"/><g style="opacity:.55"><path d="M139.88 90.89V79.12a.76.76 0 0 0-1.16-.75l-9.07 4.09a1.08 1.08 0 0 1-1.51-.7 19.7 19.7 0 0 0-2-4.5 2.49 2.49 0 0 1-.14-2.19l6-12.2a1.37 1.37 0 0 0-.54-1.77l-6.56-3.79a1.37 1.37 0 0 0-1.8.42l-7.54 11.34a2.55 2.55 0 0 1-2 1 20.2 20.2 0 0 0-4.91.49 1.08 1.08 0 0 1-1.36-1l-1-9.9a.76.76 0 0 0-1.23-.62l-10.12 5.9a2.76 2.76 0 0 0-1.22 1.9l-1 11.34a3.77 3.77 0 0 1-1.06 2.12 62 62 0 0 0-5.66 6 2 2 0 0 1-2 .57l-6.54-2.29a1.61 1.61 0 0 0-1.84.68l-7.49 13a1.59 1.59 0 0 0 .33 1.93l5.25 4.53a2 2 0 0 1 .51 2 61 61 0 0 0-2.36 7.9 3.82 3.82 0 0 1-1.31 2l-9.31 6.55a2.77 2.77 0 0 0-1 2v11.73a.76.76 0 0 0 1.16.75l9.07-4.09a1.08 1.08 0 0 1 1.51.7 20.2 20.2 0 0 0 2 4.5 2.51 2.51 0 0 1 .13 2.2l-6 12.19a1.37 1.37 0 0 0 .53 1.77l6.57 3.79a1.37 1.37 0 0 0 1.8-.42L84.48 147a2.47 2.47 0 0 1 2-1 20.2 20.2 0 0 0 4.91-.5 1.08 1.08 0 0 1 1.36 1l1 9.9a.76.76 0 0 0 1.23.63l10.19-5.89a2.72 2.72 0 0 0 1.21-1.9l1-11.34a3.7 3.7 0 0 1 1.06-2.11 62 62 0 0 0 5.66-6 1.92 1.92 0 0 1 2-.56l6.54 2.28a1.61 1.61 0 0 0 1.84-.68l7.49-13a1.6 1.6 0 0 0-.33-1.93l-5.25-4.52a2 2 0 0 1-.51-2 62 62 0 0 0 2.36-7.9 3.77 3.77 0 0 1 1.3-2l9.31-6.56a2.72 2.72 0 0 0 1.03-2.03m-39.85 37c-9.5 5.49-17.21 1-17.21-9.94S90.53 93.62 100 88.13s17.22-1 17.22 9.94-7.68 24.33-17.22 29.82Z" style="fill:#fff"/><path d="M75.8 159.39a1.73 1.73 0 0 1-.91-.25l-6.57-3.78a1.88 1.88 0 0 1-.73-2.43l6-12.19a2 2 0 0 0-.12-1.72 21 21 0 0 1-2.07-4.61.64.64 0 0 0-.34-.41.6.6 0 0 0-.49 0l-9.07 4.09a1.26 1.26 0 0 1-1.87-1.21v-11.74a3.27 3.27 0 0 1 1.26-2.42l9.31-6.55a3.33 3.33 0 0 0 1.1-1.68 61 61 0 0 1 2.38-8 1.48 1.48 0 0 0-.37-1.47l-5.25-4.52a2.07 2.07 0 0 1-.38-2.5l7.49-13a2.1 2.1 0 0 1 2.43-.9l6.54 2.29A1.48 1.48 0 0 0 85.6 86a62 62 0 0 1 5.7-6 3.33 3.33 0 0 0 .9-1.79l1-11.34a3.21 3.21 0 0 1 1.46-2.29l10.19-5.89a1.26 1.26 0 0 1 2 1l1 9.9a.57.57 0 0 0 .75.52 20.5 20.5 0 0 1 5-.5 2 2 0 0 0 1.54-.76l7.54-11.33a1.88 1.88 0 0 1 2.47-.58l6.56 3.79a1.89 1.89 0 0 1 .74 2.43l-6 12.19a2 2 0 0 0 .12 1.71 21 21 0 0 1 2.07 4.61.64.64 0 0 0 .36.33.56.56 0 0 0 .49 0l9.07-4.09a1.38 1.38 0 0 1 1.3 0 1.35 1.35 0 0 1 .56 1.17v11.81a3.25 3.25 0 0 1-1.25 2.41l-9.31 6.55a3.27 3.27 0 0 0-1.1 1.68 63 63 0 0 1-2.38 8 1.47 1.47 0 0 0 .37 1.47l5.25 4.52a2.1 2.1 0 0 1 .43 2.56l-7.49 13a2.09 2.09 0 0 1-2.44.9l-6.54-2.28a1.46 1.46 0 0 0-1.45.41 61 61 0 0 1-5.71 6 3.36 3.36 0 0 0-.9 1.8l-1 11.34a3.26 3.26 0 0 1-1.46 2.29l-10.25 5.86a1.35 1.35 0 0 1-1.3.09 1.34 1.34 0 0 1-.68-1.1l-1-9.9a.58.58 0 0 0-.23-.43.64.64 0 0 0-.53-.09 21 21 0 0 1-5 .51 2 2 0 0 0-1.55.75l-7.53 11.33a1.89 1.89 0 0 1-1.57.83M70.89 133a1.5 1.5 0 0 1 .63.13 1.63 1.63 0 0 1 .88 1 20.2 20.2 0 0 0 2 4.39 3 3 0 0 1 .16 2.68l-6 12.19a.88.88 0 0 0 .33 1.12l6.57 3.79a.87.87 0 0 0 1.13-.27l7.54-11.33a3 3 0 0 1 2.4-1.2 20 20 0 0 0 4.79-.49 1.64 1.64 0 0 1 1.32.26 1.53 1.53 0 0 1 .64 1.14l1 9.9a.38.38 0 0 0 .14.31.42.42 0 0 0 .34-.06l10.19-5.89a2.27 2.27 0 0 0 1-1.51l1-11.34a4.28 4.28 0 0 1 1.22-2.44 61 61 0 0 0 5.61-5.94 2.46 2.46 0 0 1 2.55-.73l6.54 2.29a1.1 1.1 0 0 0 1.24-.46l7.49-13a1.07 1.07 0 0 0-.22-1.3l-5.24-4.52a2.47 2.47 0 0 1-.66-2.57 60 60 0 0 0 2.34-7.84 4.23 4.23 0 0 1 1.43-2.31l9.31-6.56a2.24 2.24 0 0 0 .82-1.59V79.12a.41.41 0 0 0-.11-.33.4.4 0 0 0-.34 0l-9.07 4.09a1.58 1.58 0 0 1-1.31 0 1.6 1.6 0 0 1-.88-1 19.8 19.8 0 0 0-2-4.39 3 3 0 0 1-.15-2.68l6-12.19a.88.88 0 0 0-.34-1.12l-6.56-3.79a.89.89 0 0 0-1.14.27L116 69.34a3 3 0 0 1-2.41 1.21 20 20 0 0 0-4.78.48 1.57 1.57 0 0 1-2-1.4l-1-9.9a.43.43 0 0 0-.14-.31.39.39 0 0 0-.34.07l-10.14 5.88a2.26 2.26 0 0 0-1 1.52l-1 11.34A4.28 4.28 0 0 1 92 80.67a59 59 0 0 0-5.61 5.94 2.49 2.49 0 0 1-2.56.72L77.27 85a1.11 1.11 0 0 0-1.27.5l-7.49 13a1.09 1.09 0 0 0 .22 1.3l5.27 4.51a2.46 2.46 0 0 1 .65 2.57 62.5 62.5 0 0 0-2.34 7.83 4.24 4.24 0 0 1-1.5 2.28l-9.31 6.55a2.27 2.27 0 0 0-.83 1.6v11.76a.28.28 0 0 0 .46.3l9.07-4.09a1.6 1.6 0 0 1 .69-.11m21.45-2.21a9.4 9.4 0 0 1-4.73-1.22c-3.41-2-5.29-6.08-5.29-11.58 0-11.12 7.83-24.69 17.46-30.25 4.76-2.75 9.26-3.18 12.68-1.21s5.29 6.09 5.29 11.58c0 11.12-7.84 24.69-17.47 30.25a16 16 0 0 1-7.94 2.39Zm15.38-44.48a15.2 15.2 0 0 0-7.44 2.29c-9.35 5.41-17 18.59-17 29.39 0 5.13 1.7 8.93 4.79 10.71s7.24 1.36 11.67-1.2c9.36-5.4 17-18.59 17-29.39 0-5.12-1.7-8.93-4.79-10.71a8.34 8.34 0 0 0-4.23-1.13Z" style="fill:#fff"/></g><path d="M89.35 170.6a.82.82 0 0 0-.89.09l-4.29 2.82a1.25 1.25 0 0 1-1.72-.39 8.4 8.4 0 0 0-.84-1 2.16 2.16 0 0 1-.5-2l6.82-4.32-5.09-2.93a1.2 1.2 0 0 0-.33-.13l-3.23-.73a1.77 1.77 0 0 0-1.84.85l-3 5.79a3.22 3.22 0 0 1-1.88 1.35l-.19.05a7.3 7.3 0 0 0 .27-1.35l-5.1-2.94a.82.82 0 0 0-1 .14l-4.84 3.8a2.68 2.68 0 0 0-.92 2.06l.29 4.61a3.7 3.7 0 0 1-.76 2.23q-1.18 1.43-2.25 3a2.48 2.48 0 0 1-2 1l-3.06-.21a2 2 0 0 0-1.79 1.1l-2.93 6.56a1.25 1.25 0 0 0 .5 1.58l3.45 2a1.5 1.5 0 0 1 .08.89 29 29 0 0 0-.54 3.13 3.9 3.9 0 0 1-1 2.13l-4.29 3.94a2.63 2.63 0 0 0-.72 2.12l.81 4.68a.86.86 0 0 0 .39.63l5.12 3 .07-5.86a1.24 1.24 0 0 1 1.72.39 8.4 8.4 0 0 0 .83 1 2.12 2.12 0 0 1 .51 2L53 217.62a1.06 1.06 0 0 0 .43 1.31l5.11 2.95 1.4-3.81 2-4.91a3.2 3.2 0 0 1 1.84-1.38 14 14 0 0 0 2-.66 1.11 1.11 0 0 1 1.53.7l1.09 3.63a.9.9 0 0 0 .42.56l5.05 2.99-.9-5.66 1.57-1.24a2.72 2.72 0 0 0 .92-2.05l-.29-4.61a3.68 3.68 0 0 1 .75-2.23c.8-.95 2-1.46 2.7-2.49.4-.58.82-1.52 1.52-1.49l3.12.16a2 2 0 0 0 1.79-1.1L88 191.7a1.24 1.24 0 0 0-.65-1.66L84.81 189a1.56 1.56 0 0 1-.87-1.73 30 30 0 0 0 .54-3.13 3.9 3.9 0 0 1 1-2.13l4.34-4.01a2.53 2.53 0 0 0 .71-1.46l3.9-3Zm-19.49 30.26c-5.25 4.13-10.28 3-11.23-2.51s3.35-12.52 8.6-16.65 9.46-3.81 10.41 1.7-2.53 13.33-7.78 17.46" style="fill:#10b981"/><path d="M89.35 170.6a.82.82 0 0 0-.89.09l-4.29 2.82a1.25 1.25 0 0 1-1.72-.39 8.4 8.4 0 0 0-.84-1 2.16 2.16 0 0 1-.5-2l6.82-4.32-5.09-2.93a1.2 1.2 0 0 0-.33-.13l-3.23-.73a1.77 1.77 0 0 0-1.84.85l-3 5.79a3.22 3.22 0 0 1-1.88 1.35l-.19.05a7.3 7.3 0 0 0 .27-1.35l-5.1-2.94a.82.82 0 0 0-1 .14l-4.84 3.8a2.68 2.68 0 0 0-.92 2.06l.29 4.61a3.7 3.7 0 0 1-.76 2.23q-1.18 1.43-2.25 3a2.48 2.48 0 0 1-2 1l-3.06-.21a2 2 0 0 0-1.79 1.1l-2.93 6.56a1.25 1.25 0 0 0 .5 1.58l3.45 2a1.5 1.5 0 0 1 .08.89 29 29 0 0 0-.54 3.13 3.9 3.9 0 0 1-1 2.13l-4.29 3.94a2.63 2.63 0 0 0-.72 2.12l.81 4.68a.86.86 0 0 0 .39.63l5.12 3 .07-5.86a1.24 1.24 0 0 1 1.72.39 8.4 8.4 0 0 0 .83 1 2.12 2.12 0 0 1 .51 2L53 217.62a1.06 1.06 0 0 0 .43 1.31l5.11 2.95 1.4-3.81 2-4.91a3.2 3.2 0 0 1 1.84-1.38 14 14 0 0 0 2-.66 1.11 1.11 0 0 1 1.53.7l1.09 3.63a.9.9 0 0 0 .42.56l5.05 2.99-.9-5.66 1.57-1.24a2.72 2.72 0 0 0 .92-2.05l-.29-4.61a3.68 3.68 0 0 1 .75-2.23c.8-.95 2-1.46 2.7-2.49.4-.58.82-1.52 1.52-1.49l3.12.16a2 2 0 0 0 1.79-1.1L88 191.7a1.24 1.24 0 0 0-.65-1.66L84.81 189a1.56 1.56 0 0 1-.87-1.73 30 30 0 0 0 .54-3.13 3.9 3.9 0 0 1 1-2.13l4.34-4.01a2.53 2.53 0 0 0 .71-1.46l3.9-3Zm-19.49 30.26c-5.25 4.13-10.28 3-11.23-2.51s3.35-12.52 8.6-16.65 9.46-3.81 10.41 1.7-2.53 13.33-7.78 17.46" style="fill:#fff;opacity:.30000000000000004"/><path d="m73.7 211.64-8.7-.88-8.12-4.69-1.88 4a2 2 0 0 1 .22 1.64L53 217.62a1.06 1.06 0 0 0 .43 1.31l5.11 2.95 1.4-3.81 2-4.91a3.2 3.2 0 0 1 1.84-1.38 14 14 0 0 0 2-.66 1.11 1.11 0 0 1 1.53.7l1.09 3.63a.9.9 0 0 0 .42.56l5.05 2.99-.9-5.66 1-.77Zm9.77-31.37-6.33-3.08-1.47 2.41a5.65 5.65 0 0 1 2 3.8c1 5.52-2.53 13.33-7.78 17.46-3.15 2.47-6.2 3-8.36 1.94l-.56.92s3.61 5.48 8.08 4.46A17.4 17.4 0 0 0 75.2 205a3.7 3.7 0 0 1 .72-1.83c.8-.95 2-1.46 2.7-2.49.4-.58.82-1.52 1.52-1.49h.48a16 16 0 0 0 1.31-2.56c2.07-5.36 1.54-16.36 1.54-16.36" style="opacity:.1"/><path d="m50.7 199.82-4.25 3.9a2.5 2.5 0 0 0-.65 1.22l6.3 3.64v-.33a1.24 1.24 0 0 1 1.72.39l6.08-3.5ZM61.51 188a25 25 0 0 1 1.56-2.16l-6-3.5a1.9 1.9 0 0 1-.89.19l-3.18-.14a2 2 0 0 0-1.29.47l9.29 5.37Zm32.92-14.47a.81.81 0 0 0-.87.1l-4.29 2.82a1.25 1.25 0 0 1-1.72-.39 8.4 8.4 0 0 0-.84-1 2.13 2.13 0 0 1-.5-2l.41-1.09 1.84-1.21a.82.82 0 0 1 .89-.09Zm-12.67-1.26-.15-.17a2.16 2.16 0 0 1-.5-2l6.82-4.32-5.09-2.93a1.2 1.2 0 0 0-.33-.13l-3.23-.73a1.77 1.77 0 0 0-1.84.85l-3 5.79a2.7 2.7 0 0 1-.7.78l6.87 4Zm-20.82-1.33 6.31 3.64 5.18-4.75a9 9 0 0 0 .21-1.16l-5.1-2.94a.82.82 0 0 0-1 .14l-4.84 3.8a2.64 2.64 0 0 0-.76 1.27" style="fill:#10b981"/><g style="opacity:.7000000000000001"><path d="m50.7 199.82-4.25 3.9a2.5 2.5 0 0 0-.65 1.22l6.3 3.64v-.33a1.24 1.24 0 0 1 1.72.39l6.08-3.5Z" style="fill:#fff"/><path d="m52.59 209.44-7.37-4.25.09-.36a3.06 3.06 0 0 1 .8-1.48l4.52-4.15 10.28 5.94-7.2 4.15-.27-.33a.81.81 0 0 0-.84-.39Zm.17-1.89a1.75 1.75 0 0 1 1.17.46l5-2.87-8.15-4.7-4 3.65a1.7 1.7 0 0 0-.39.62l5.42 3.13a1.7 1.7 0 0 1 .95-.29M61.51 188a25 25 0 0 1 1.56-2.16l-6-3.5a1.9 1.9 0 0 1-.89.19l-3.18-.14a2 2 0 0 0-1.29.47l9.29 5.37Z" style="fill:#fff"/><path d="m61 188.8-10.17-5.87.56-.46a2.47 2.47 0 0 1 1.63-.58l3.12.15a1.5 1.5 0 0 0 .67-.15l.23-.09 6.77 3.91-.37.45a25 25 0 0 0-1.53 2.12l-.08.12Zm-8.22-5.9 8.26 4.77h.11c.35-.55.74-1.1 1.15-1.63L57 182.9a2.2 2.2 0 0 1-.87.14l-3.13-.15Zm41.65-9.37a.81.81 0 0 0-.87.1l-4.29 2.82a1.25 1.25 0 0 1-1.72-.39 8.4 8.4 0 0 0-.84-1 2.13 2.13 0 0 1-.5-2l.41-1.09 1.84-1.21a.82.82 0 0 1 .89-.09Z" style="fill:#fff"/><path d="M88.62 177.15a1.82 1.82 0 0 1-1.48-.8 7.4 7.4 0 0 0-.79-1 2.61 2.61 0 0 1-.61-2.56l.46-1.25 2-1.3a1.6 1.6 0 0 1 .67-.25v-.28l.75.42 5.08 2.93-.5.87c-.07 0-.2 0-.34.09l-4.3 2.82a1.63 1.63 0 0 1-.94.31M87 172.23l-.35.94a1.61 1.61 0 0 0 .39 1.52 9 9 0 0 1 .89 1.08.76.76 0 0 0 1 .26l4.1-2.7-3.25-1.87-.76-.45a.35.35 0 0 0-.36.08Zm-5.24.04-.15-.17a2.16 2.16 0 0 1-.5-2l6.82-4.32-5.09-2.93a1.2 1.2 0 0 0-.33-.13l-3.23-.73a1.77 1.77 0 0 0-1.84.85l-3 5.79a2.7 2.7 0 0 1-.7.78l6.87 4Z" style="fill:#fff"/><path d="m80.63 173.94-7.82-4.51.58-.46a2 2 0 0 0 .56-.62l3-5.79a2.24 2.24 0 0 1 2.39-1.1l3.23.72h.07l.38.21 5.8 3.34-7.35 4.66a1.69 1.69 0 0 0 .44 1.38l.11.13.34.38-.34.38Zm-6.1-4.68 6 3.45.55-.49a2.62 2.62 0 0 1-.42-2.34l.06-.16 6.26-4-4.37-2.51a.8.8 0 0 0-.2-.09l-3.23-.72a1.27 1.27 0 0 0-1.28.6l-3 5.79a2 2 0 0 1-.37.47m-13.59 1.68 6.31 3.64 5.18-4.75a9 9 0 0 0 .21-1.16l-5.1-2.94a.82.82 0 0 0-1 .14l-4.84 3.8a2.64 2.64 0 0 0-.76 1.27" style="fill:#fff"/><path d="m67.31 175.2-7-4 .11-.38a3.13 3.13 0 0 1 1-1.52l4.84-3.81a1.6 1.6 0 0 1 .61-.3l-.11-.46 6.4 3.69v.32a9 9 0 0 1-.23 1.25v.14Zm-5.75-4.48 5.62 3.28 4.8-4.4c0-.22.09-.45.12-.63l-3.79-2.19-1-.59c-.13-.08-.3 0-.39.09l-4.84 3.81a1.8 1.8 0 0 0-.52.63" style="fill:#fff"/></g><path d="m95.64 178.86-.8-4.68a.77.77 0 0 0-1.28-.55l-4.29 2.82a1.23 1.23 0 0 1-1.72-.39 8.4 8.4 0 0 0-.84-1 2.14 2.14 0 0 1-.5-2l2.19-5.92a1.08 1.08 0 0 0-.8-1.47l-3.23-.72a1.74 1.74 0 0 0-1.84.85l-3 5.79a3.2 3.2 0 0 1-1.83 1.38 13.6 13.6 0 0 0-2 .66 1.11 1.11 0 0 1-1.53-.7l-1.09-3.63a.81.81 0 0 0-1.37-.43l-4.84 3.81a2.65 2.65 0 0 0-.92 2l.28 4.61a3.6 3.6 0 0 1-.75 2.23c-.79 1-1.54 1.94-2.25 3a2.51 2.51 0 0 1-2 1l-3.11-.16a2 2 0 0 0-1.79 1.1L53.4 193a1.25 1.25 0 0 0 .65 1.66l2.52 1.08a1.55 1.55 0 0 1 .86 1.73 30 30 0 0 0-.54 3.13 3.9 3.9 0 0 1-1 2.13l-4.29 3.94a2.61 2.61 0 0 0-.72 2.12l.81 4.68a.77.77 0 0 0 1.28.55l4.28-2.82a1.26 1.26 0 0 1 1.73.39 7.5 7.5 0 0 0 .83 1 2.11 2.11 0 0 1 .5 2.05l-2.18 5.91a1.07 1.07 0 0 0 .8 1.47l3.23.72a1.74 1.74 0 0 0 1.83-.84l3-5.8a3.24 3.24 0 0 1 1.84-1.38 15 15 0 0 0 2-.65 1.1 1.1 0 0 1 1.53.69l1.09 3.63a.81.81 0 0 0 1.37.43l4.82-3.82a2.72 2.72 0 0 0 .92-2.05l-.29-4.61a3.68 3.68 0 0 1 .75-2.23 35 35 0 0 0 2.25-3 2.52 2.52 0 0 1 2-1l3.12.16a2 2 0 0 0 1.79-1.1l2.92-6.56a1.24 1.24 0 0 0-.65-1.66l-2.51-1.08a1.56 1.56 0 0 1-.87-1.73 30 30 0 0 0 .54-3.13 3.9 3.9 0 0 1 1-2.13l4.31-3.88a2.61 2.61 0 0 0 .72-2.14M75 203.8c-5.25 4.13-10.28 3-11.23-2.51s2.54-13.33 7.79-17.45 10.27-3 11.22 2.51-2.57 13.33-7.78 17.45" style="fill:#10b981"/><g style="opacity:.55"><path d="m95.64 178.86-.8-4.68a.77.77 0 0 0-1.28-.55l-4.29 2.82a1.23 1.23 0 0 1-1.72-.39 8.4 8.4 0 0 0-.84-1 2.14 2.14 0 0 1-.5-2l2.19-5.92a1.08 1.08 0 0 0-.8-1.47l-3.23-.72a1.74 1.74 0 0 0-1.84.85l-3 5.79a3.2 3.2 0 0 1-1.83 1.38 13.6 13.6 0 0 0-2 .66 1.11 1.11 0 0 1-1.53-.7l-1.09-3.63a.81.81 0 0 0-1.37-.43l-4.84 3.81a2.65 2.65 0 0 0-.92 2l.28 4.61a3.6 3.6 0 0 1-.75 2.23c-.79 1-1.54 1.94-2.25 3a2.51 2.51 0 0 1-2 1l-3.11-.16a2 2 0 0 0-1.79 1.1L53.4 193a1.25 1.25 0 0 0 .65 1.66l2.52 1.08a1.55 1.55 0 0 1 .86 1.73 30 30 0 0 0-.54 3.13 3.9 3.9 0 0 1-1 2.13l-4.29 3.94a2.61 2.61 0 0 0-.72 2.12l.81 4.68a.77.77 0 0 0 1.28.55l4.28-2.82a1.26 1.26 0 0 1 1.73.39 7.5 7.5 0 0 0 .83 1 2.11 2.11 0 0 1 .5 2.05l-2.18 5.91a1.07 1.07 0 0 0 .8 1.47l3.23.72a1.74 1.74 0 0 0 1.83-.84l3-5.8a3.24 3.24 0 0 1 1.84-1.38 15 15 0 0 0 2-.65 1.1 1.1 0 0 1 1.53.69l1.09 3.63a.81.81 0 0 0 1.37.43l4.82-3.82a2.72 2.72 0 0 0 .92-2.05l-.29-4.61a3.68 3.68 0 0 1 .75-2.23 35 35 0 0 0 2.25-3 2.52 2.52 0 0 1 2-1l3.12.16a2 2 0 0 0 1.79-1.1l2.92-6.56a1.24 1.24 0 0 0-.65-1.66l-2.51-1.08a1.56 1.56 0 0 1-.87-1.73 30 30 0 0 0 .54-3.13 3.9 3.9 0 0 1 1-2.13l4.31-3.88a2.61 2.61 0 0 0 .72-2.14M75 203.8c-5.25 4.13-10.28 3-11.23-2.51s2.54-13.33 7.79-17.45 10.27-3 11.22 2.51-2.57 13.33-7.78 17.45" style="fill:#fff"/><path d="M62.42 223.29a2 2 0 0 1-.42 0l-3.23-.72a1.57 1.57 0 0 1-1.16-2.13l2.19-5.92a1.64 1.64 0 0 0-.4-1.52 9 9 0 0 1-.88-1.08.75.75 0 0 0-1-.26l-4.29 2.82a1.26 1.26 0 0 1-2-.89l-.81-4.68a3.11 3.11 0 0 1 .87-2.56l4.3-4a3.44 3.44 0 0 0 .89-1.82 32 32 0 0 1 .54-3.18 1 1 0 0 0-.57-1.16l-2.51-1.08a1.74 1.74 0 0 1-.92-2.32l2.93-6.56a2.53 2.53 0 0 1 2.27-1.4l3.12.16a2 2 0 0 0 1.53-.79c.72-1 1.48-2.06 2.28-3a3.2 3.2 0 0 0 .64-1.88l-.29-4.61a3.19 3.19 0 0 1 1.11-2.48l4.84-3.81a1.4 1.4 0 0 1 1.28-.28 1.36 1.36 0 0 1 .87 1l1.1 3.62a.57.57 0 0 0 .31.38.66.66 0 0 0 .55 0 15.5 15.5 0 0 1 2.06-.68 2.65 2.65 0 0 0 1.51-1.13l3-5.79a2.25 2.25 0 0 1 2.38-1.1l3.24.72a1.64 1.64 0 0 1 1.08.8 1.58 1.58 0 0 1 .08 1.33l-2.19 5.92a1.64 1.64 0 0 0 .39 1.52 10 10 0 0 1 .89 1.08.75.75 0 0 0 1 .26l4.28-2.82a1.27 1.27 0 0 1 2 .89l.81 4.68a3.11 3.11 0 0 1-.88 2.56L91 185.29a3.44 3.44 0 0 0-.89 1.82 29 29 0 0 1-.55 3.18 1.06 1.06 0 0 0 .57 1.16l2.52 1.08a1.72 1.72 0 0 1 .94 1 1.76 1.76 0 0 1 0 1.35l-2.93 6.56a2.49 2.49 0 0 1-2.27 1.4l-3.11-.16a2 2 0 0 0-1.53.79c-.72 1.05-1.49 2.06-2.28 3a3.14 3.14 0 0 0-.64 1.88l.29 4.61a3.26 3.26 0 0 1-1.12 2.46l-4.85 3.81a1.38 1.38 0 0 1-1.27.28 1.39 1.39 0 0 1-.88-1l-1.09-3.62a.6.6 0 0 0-.31-.38.68.68 0 0 0-.56 0 16 16 0 0 1-2 .68 2.67 2.67 0 0 0-1.52 1.13l-3 5.79a2.27 2.27 0 0 1-2.1 1.18m-4.56-12.8a1.82 1.82 0 0 1 1.48.8 8 8 0 0 0 .78 1 2.6 2.6 0 0 1 .61 2.56l-2.18 5.91a.62.62 0 0 0 0 .52.6.6 0 0 0 .42.29l3.23.73a1.27 1.27 0 0 0 1.28-.6l3-5.79a3.7 3.7 0 0 1 2.15-1.63 14.5 14.5 0 0 0 1.93-.64 1.7 1.7 0 0 1 1.36 0 1.6 1.6 0 0 1 .83 1l1.1 3.63a.41.41 0 0 0 .22.29.42.42 0 0 0 .36-.11l4.84-3.81a2.23 2.23 0 0 0 .73-1.63l-.29-4.61a4.08 4.08 0 0 1 .87-2.58c.77-.92 1.52-1.91 2.22-2.94a3 3 0 0 1 2.41-1.21l3.11.15a1.49 1.49 0 0 0 1.31-.8l2.93-6.57a.75.75 0 0 0-.39-1l-2.52-1.08a2 2 0 0 1-1.15-2.3c.23-1 .41-2.08.53-3.08a4.38 4.38 0 0 1 1.2-2.44l4.29-3.94a2.09 2.09 0 0 0 .57-1.66l-.81-4.68a.37.37 0 0 0-.17-.31c-.07 0-.2 0-.34.08l-4.29 2.83a1.74 1.74 0 0 1-2.4-.52 8.4 8.4 0 0 0-.79-1 2.6 2.6 0 0 1-.61-2.56l2.19-5.91a.58.58 0 0 0-.44-.81l-3.23-.73a1.26 1.26 0 0 0-1.2.66l-3 5.79a3.7 3.7 0 0 1-2.16 1.63 16 16 0 0 0-1.93.64 1.7 1.7 0 0 1-1.36 0 1.63 1.63 0 0 1-.83-1l-1.09-3.63a.4.4 0 0 0-.23-.29.41.41 0 0 0-.35.11l-4.9 3.75a2.2 2.2 0 0 0-.74 1.63l.29 4.61a4.08 4.08 0 0 1-.87 2.58c-.77.92-1.51 1.91-2.22 2.94a3 3 0 0 1-2.4 1.21l-3.12-.15a1.45 1.45 0 0 0-1.3.8l-2.93 6.57a.73.73 0 0 0 0 .58.75.75 0 0 0 .41.41l2.51 1.08a2.06 2.06 0 0 1 1.16 2.3 27 27 0 0 0-.53 3.08 4.43 4.43 0 0 1-1.21 2.44L51.89 207a2.12 2.12 0 0 0-.57 1.66l.81 4.68c0 .16.09.28.17.31a.4.4 0 0 0 .34-.08l4.29-2.83a1.7 1.7 0 0 1 .93-.25m11.06-3.7a5.8 5.8 0 0 1-2-.36c-1.91-.74-3.2-2.53-3.63-5.05-1-5.67 2.6-13.71 8-17.94 3-2.33 6-3.14 8.39-2.23 1.91.74 3.2 2.53 3.64 5 1 5.67-2.6 13.71-8 17.94a10.68 10.68 0 0 1-6.4 2.64m8.63-24.94a9.65 9.65 0 0 0-5.72 2.38c-5.12 4-8.53 11.64-7.61 17 .38 2.19 1.42 3.67 3 4.28 2 .78 4.74 0 7.42-2.08 5.11-4 8.52-11.64 7.6-17-.38-2.19-1.42-3.67-3-4.28a4.7 4.7 0 0 0-1.69-.3" style="fill:#fff"/></g><path d="M107.75 371.39s1.25-25.89-7.46-45.33c-6.94-15.51-19.62-28.14-30.92-31.41s-22.75 5.41-11.94 15.21 31.13 21.72 35.62 51Z" style="fill:#10b981"/><path d="M107.75 371.39s1.25-25.89-7.46-45.33c-6.94-15.51-19.62-28.14-30.92-31.41s-22.75 5.41-11.94 15.21 31.13 21.72 35.62 51Z" style="opacity:.15"/><path d="M99.34 354h.13a.64.64 0 0 0 .5-.73C96 320.39 74.33 303.4 63.42 299a.63.63 0 1 0-.52 1.14C73.46 304.4 94.6 321 98.74 353.5a.61.61 0 0 0 .6.5" style="fill:#fff"/><path d="M118.57 390.33c1.57-4.76 2.29-9.74.32-14.5a17 17 0 0 0-8.21-8.71c-1.3-.63-2.69-1.09-3.94-1.81a6 6 0 0 1-2.85-3.14 9.4 9.4 0 0 1 .12-4.44c.59-3.67.49-7.61-1.34-10.85-2.26-4-6-5-10.31-4.55a29.2 29.2 0 0 1-9.53-.62c-4.6-1.07-8.57-3.87-12.74-6.09s-9-3.92-13.57-2.58a10.94 10.94 0 0 0-7 14.68c1 2.45 2.88 4.45 4.24 6.72s2.09 4.88 1.06 7.37c-.76 1.84-2.13 3.24-2.76 5.15-1.62 4.91-.72 9.31 4.17 11.83 5.11 2.62 13.17.64 15.7 7.07 1 2.44 1 5.14 1.52 7.71a20.78 20.78 0 0 0 8.41 12.78 20.3 20.3 0 0 0 13.14 3.7c7-.69 13.48-6.05 18.09-11a24 24 0 0 0 5.48-8.72" style="fill:#10b981"/><path d="M65.34 367.89a.6.6 0 0 0 .35-.05c.12-.06 12.4-5.73 26.61 1.92a.59.59 0 1 0 .55-1c-14.76-7.94-27.54-2-27.67-2a.59.59 0 0 0-.27.79.58.58 0 0 0 .43.34" style="fill:#fff"/><path d="M103.56 399.15a.55.55 0 0 1-.57-.52c-1-24.73-25.84-50.89-42.49-58a.55.55 0 0 1 .43-1c16.91 7.26 42.13 33.85 43.17 59a.56.56 0 0 1-.53.57Z" style="fill:#fff"/><path d="m240.61 45.72-123.86 71.52a9.27 9.27 0 0 0-4.19 7.25v291.73c0 2.67 1.88 3.76 4.19 2.42l123.86-71.51a9.28 9.28 0 0 0 4.18-7.26V48.14c0-2.67-1.87-3.76-4.18-2.42m-1.84 272.55c0 2.29-1.61 3.74-3.6 4.88l-113.41 65.49c-2 1.14-3.59.22-3.59-2.08V144a7.16 7.16 0 0 1 3.58-6.19l113.42-65.52a2.4 2.4 0 0 1 3.6 2.08Z" style="fill:#10b981"/><path d="m240.61 45.72-123.86 71.52a9.27 9.27 0 0 0-4.19 7.25v291.73c0 2.67 1.88 3.76 4.19 2.42l123.86-71.51a9.28 9.28 0 0 0 4.18-7.26V48.14c0-2.67-1.87-3.76-4.18-2.42m-1.84 272.55c0 2.29-1.61 3.74-3.6 4.88l-113.41 65.49c-2 1.14-3.59.22-3.59-2.08V144a7.16 7.16 0 0 1 3.58-6.19l113.42-65.52a2.4 2.4 0 0 1 3.6 2.08Z" style="opacity:.30000000000000004"/><path d="M238.77 318.27c0 2.29-1.61 3.74-3.6 4.88l-113.41 65.49c-2 1.14-3.59.22-3.59-2.08V144a7.16 7.16 0 0 1 3.58-6.19l113.42-65.52a2.4 2.4 0 0 1 3.6 2.08Z" style="fill:#10b981"/><path d="M238.77 318.27c0 2.29-1.61 3.74-3.6 4.88l-113.41 65.49c-2 1.14-3.59.22-3.59-2.08V144a7.16 7.16 0 0 1 3.58-6.19l113.42-65.52a2.4 2.4 0 0 1 3.6 2.08Z" style="opacity:.5"/><path d="m121.76 388.64 113.41-65.49a9.8 9.8 0 0 0 2.15-1.59l-119.15-67.12v132.12c0 2.3 1.62 3.22 3.59 2.08" style="fill:#10b981"/><path d="m121.76 388.64 113.41-65.49a9.8 9.8 0 0 0 2.15-1.59l-119.15-67.12v132.12c0 2.3 1.62 3.22 3.59 2.08" style="opacity:.4"/><path d="M229.59 314V75.52l-107.84 62.29a7.16 7.16 0 0 0-3.58 6.19v237.13L226 318.88c2-1.15 3.59-2.6 3.59-4.88" style="fill:#37474f"/><path d="M116.22 418.9a9.34 9.34 0 0 1-7.86-.26l-4.79-2.77a9.22 9.22 0 0 1-4.2-7.25V116.9a7.9 7.9 0 0 1 .73-3.13 8.5 8.5 0 0 1 .5-1l13.18 7.61a11 11 0 0 0-.73 1.53 7.6 7.6 0 0 0-.51 2.59v291.73c.02 2.45 1.62 3.57 3.68 2.67" style="fill:#10b981"/><path d="M116.22 418.9a9.34 9.34 0 0 1-7.86-.26l-4.79-2.77a9.22 9.22 0 0 1-4.2-7.25V116.9a7.9 7.9 0 0 1 .73-3.13 8.5 8.5 0 0 1 .5-1l13.18 7.61a11 11 0 0 0-.73 1.53 7.6 7.6 0 0 0-.51 2.59v291.73c.02 2.45 1.62 3.57 3.68 2.67" style="opacity:.5"/><path d="M182.37 360.16c2.69 0 3 3 3 4.3 0 4.68-3.43 10.61-7.48 12.94a6 6 0 0 1-2.89.92c-2.68 0-3-3-3-4.3 0-4.68 3.42-10.61 7.47-12.94a6 6 0 0 1 2.89-.92" style="fill:#10b981"/><path d="M178.59 86.14c1.13-.65 2-.12 2 1.19a4.51 4.51 0 0 1-2 3.54c-1.13.65-2.05.13-2.05-1.18a4.54 4.54 0 0 1 2.05-3.55m-13.22 17.29c1-.58 1.82-.11 1.82 1a4 4 0 0 1-1.82 3.14c-1 .58-1.82.11-1.82-1a4 4 0 0 1 1.82-3.14m6.08-3.59 20.33-11.75c1.12-.64 2-.18 2 1a4.35 4.35 0 0 1-2 3.35l-20.34 11.74c-1.12.64-2 .18-2-1a4.3 4.3 0 0 1 2.01-3.34" style="fill:#263238"/><path d="M244.75 47.47c-.3-2.17-2-3-4.13-1.75l-123.88 71.52a8.4 8.4 0 0 0-2.95 3.13l-13.18-7.61a8.5 8.5 0 0 1 3-3.12l123.81-71.52a9.24 9.24 0 0 1 8.38 0l4.82 2.76a9.38 9.38 0 0 1 4.13 6.59" style="fill:#10b981"/><path d="M244.75 47.47c-.3-2.17-2-3-4.13-1.75l-123.88 71.52a8.4 8.4 0 0 0-2.95 3.13l-13.18-7.61a8.5 8.5 0 0 1 3-3.12l123.81-71.52a9.24 9.24 0 0 1 8.38 0l4.82 2.76a9.38 9.38 0 0 1 4.13 6.59" style="opacity:.4"/><path d="M212.27 56.33a4.64 4.64 0 0 1-4.2.08 1.37 1.37 0 0 1-.8-1.15v-1.75a1.59 1.59 0 0 1 .93-1.27l13.28-7.66a4.64 4.64 0 0 1 4.2-.08 1.37 1.37 0 0 1 .79 1.09v1.81a1.61 1.61 0 0 1-.94 1.27Z" style="fill:#10b981"/><path d="M212.27 56.33a4.64 4.64 0 0 1-4.2.08 1.37 1.37 0 0 1-.8-1.15v-1.75a1.59 1.59 0 0 1 .93-1.27l13.28-7.66a4.64 4.64 0 0 1 4.2-.08 1.37 1.37 0 0 1 .79 1.09v1.81a1.61 1.61 0 0 1-.94 1.27Z" style="opacity:.25"/><path d="m212.26 54.59 13.28-7.67c1.2-.69 1.26-1.77.14-2.42a4.64 4.64 0 0 0-4.2.08l-13.28 7.66c-1.19.69-1.25 1.78-.13 2.43a4.65 4.65 0 0 0 4.19-.08" style="fill:#10b981"/><path d="m212.26 54.59 13.28-7.67c1.2-.69 1.26-1.77.14-2.42a4.64 4.64 0 0 0-4.2.08l-13.28 7.66c-1.19.69-1.25 1.78-.13 2.43a4.65 4.65 0 0 0 4.19-.08" style="opacity:.30000000000000004"/><path d="M107.67 160.85a4.65 4.65 0 0 0-2-3.67 1.39 1.39 0 0 0-1.4-.12c-.25.16-1.25.72-1.52.88a1.6 1.6 0 0 0-.63 1.44v32.52a4.61 4.61 0 0 0 2 3.67 1.39 1.39 0 0 0 1.34.15c.28-.15 1.3-.74 1.57-.9a1.58 1.58 0 0 0 .63-1.44Z" style="fill:#10b981"/><path d="M107.67 160.85a4.65 4.65 0 0 0-2-3.67 1.39 1.39 0 0 0-1.4-.12c-.25.16-1.25.72-1.52.88a1.6 1.6 0 0 0-.63 1.44v32.52a4.61 4.61 0 0 0 2 3.67 1.39 1.39 0 0 0 1.34.15c.28-.15 1.3-.74 1.57-.9a1.58 1.58 0 0 0 .63-1.44Z" style="opacity:.30000000000000004"/><path d="M106.16 161.72v32.53c0 1.38-.91 2-2 1.32a4.61 4.61 0 0 1-2-3.67v-32.52c0-1.38.91-2 2-1.33a4.65 4.65 0 0 1 2 3.67" style="fill:#10b981"/><path d="M106.16 161.72v32.53c0 1.38-.91 2-2 1.32a4.61 4.61 0 0 1-2-3.67v-32.52c0-1.38.91-2 2-1.33a4.65 4.65 0 0 1 2 3.67" style="opacity:.4"/><path d="M107.67 204.39a4.66 4.66 0 0 0-2-3.68 1.36 1.36 0 0 0-1.4-.11l-1.52.87a1.6 1.6 0 0 0-.63 1.44v15.34a4.63 4.63 0 0 0 2 3.67 1.36 1.36 0 0 0 1.34.14c.28-.15 1.3-.74 1.57-.9a1.58 1.58 0 0 0 .63-1.44Z" style="fill:#10b981"/><path d="M107.67 204.39a4.66 4.66 0 0 0-2-3.68 1.36 1.36 0 0 0-1.4-.11l-1.52.87a1.6 1.6 0 0 0-.63 1.44v15.34a4.63 4.63 0 0 0 2 3.67 1.36 1.36 0 0 0 1.34.14c.28-.15 1.3-.74 1.57-.9a1.58 1.58 0 0 0 .63-1.44Z" style="opacity:.30000000000000004"/><path d="M106.16 205.26v15.33c0 1.38-.91 2-2 1.33a4.63 4.63 0 0 1-2-3.67v-15.34c0-1.38.91-2 2-1.32a4.63 4.63 0 0 1 2 3.67" style="fill:#10b981"/><path d="M106.16 205.26v15.33c0 1.38-.91 2-2 1.33a4.63 4.63 0 0 1-2-3.67v-15.34c0-1.38.91-2 2-1.32a4.63 4.63 0 0 1 2 3.67" style="opacity:.4"/><path d="m249.07 80.59-114.45 66a5.68 5.68 0 0 0-2.58 4.46v242.13a5.69 5.69 0 0 0 2.58 4.45l1.61.92a5.75 5.75 0 0 0 5.16 0l114.46-66.1a5.7 5.7 0 0 0 2.58-4.46V86a5.67 5.67 0 0 0-2.59-4.46l-1.6-.92a5.77 5.77 0 0 0-5.17-.03" style="fill:#e0e0e0"/><path d="M258.43 328.16c0 2.27-1.59 3.71-3.57 4.84l-112.48 65c-2 1.14-3.57.22-3.57-2.05v-239.9a7.11 7.11 0 0 1 3.55-6.15l112.5-65a2.38 2.38 0 0 1 3.57 2.1Z" style="fill:#fafafa"/><path d="M138.79 190.08V395.9c0 2.27 1.6 3.19 3.57 2.05L254.86 333c2-1.13 3.57-2.57 3.57-4.84V121.03Z" style="fill:#f5f5f5"/><path d="M256.05 85.59a1.39 1.39 0 0 1 1.38 1.41v241.16c0 1.54-.94 2.76-3.06 4l-112.49 65a2.3 2.3 0 0 1-1.09.35c-.86 0-1-1-1-1.55V156.05a6.11 6.11 0 0 1 3.05-5.29l112.5-65a1.3 1.3 0 0 1 .69-.19m0-1a2.37 2.37 0 0 0-1.19.32l-112.5 65a7.11 7.11 0 0 0-3.55 6.15V395.9c0 1.61.81 2.54 2 2.54a3.23 3.23 0 0 0 1.59-.49L254.86 333c2-1.13 3.57-2.57 3.57-4.84V87a2.38 2.38 0 0 0-2.38-2.38Z" style="fill:#e0e0e0"/><path d="M258.43 86v1a2.38 2.38 0 0 0-3.57-2l-112.5 65a6.8 6.8 0 0 0-2.59 2.59.2.2 0 0 0 0 .07l-7-4a5.26 5.26 0 0 1 1.85-2l114.45-66a5.75 5.75 0 0 1 5.16 0l1.61.93a5.64 5.64 0 0 1 2.59 4.41" style="fill:#f0f0f0"/><path d="m153.73 245.4 23.53-13.56c1.19-.69 2.15-.2 2.15 1.08a4.59 4.59 0 0 1-2.15 3.57l-23.53 13.57c-1.18.68-2.14.19-2.14-1.09a4.64 4.64 0 0 1 2.14-3.57" style="opacity:.15"/><path d="M147.56 242.46a.48.48 0 0 1-.42-.25.49.49 0 0 1 .18-.68l104.75-60.48a.5.5 0 1 1 .5.86l-104.76 60.48a.45.45 0 0 1-.25.07m0 18.6a.48.48 0 0 1-.42-.25.49.49 0 0 1 .18-.68l104.75-60.48a.49.49 0 0 1 .68.18.5.5 0 0 1-.18.68L147.81 261a.55.55 0 0 1-.25.06" style="fill:#e0e0e0"/><path d="M236.56 197.72c1-.58 1.82-.11 1.82 1.06a4 4 0 0 1-1.83 3.14c-1 .57-1.83.1-1.82-1.06a4 4 0 0 1 1.83-3.14" style="fill:#455a64"/><path d="M235.38 203.66a1.8 1.8 0 0 1-.95-.25 2.22 2.22 0 0 1-1-2 6.7 6.7 0 0 1 3.13-5.23l6.15-3.56a2.45 2.45 0 0 1 2.51-.23 2.2 2.2 0 0 1 1 2 6.64 6.64 0 0 1-3.14 5.22l-6.13 3.57a3.15 3.15 0 0 1-1.57.48m-1.25-2.29a1.58 1.58 0 0 0 .64 1.45 1.88 1.88 0 0 0 1.83-.23l6.12-3.57a6 6 0 0 0 2.8-4.63 1.58 1.58 0 0 0-.63-1.44 1.88 1.88 0 0 0-1.83.23l-6.15 3.56a6 6 0 0 0-2.78 4.63" style="fill:#455a64"/><path d="m153.73 264 36-20.8c1.18-.68 2.14-.2 2.14 1.09a4.6 4.6 0 0 1-2.14 3.56l-36 20.8c-1.18.68-2.14.2-2.14-1.09a4.6 4.6 0 0 1 2.14-3.56" style="opacity:.15"/><path d="M147.56 279.65a.48.48 0 0 1-.42-.25.49.49 0 0 1 .18-.68l104.75-60.48a.49.49 0 0 1 .68.18.5.5 0 0 1-.18.68l-104.76 60.48a.45.45 0 0 1-.25.07" style="fill:#e0e0e0"/><path d="M235.38 222.25a1.9 1.9 0 0 1-.95-.24 2.25 2.25 0 0 1-1-2 6.7 6.7 0 0 1 3.13-5.23l6.15-3.56a2.47 2.47 0 0 1 2.51-.23 2.2 2.2 0 0 1 1 2 6.64 6.64 0 0 1-3.14 5.22l-6.13 3.57a3.15 3.15 0 0 1-1.57.47" style="fill:#10b981"/><path d="M243.14 212.46c1-.58 1.83-.11 1.83 1.06a4 4 0 0 1-1.83 3.14c-1 .57-1.83.1-1.83-1.06a4.07 4.07 0 0 1 1.83-3.14" style="fill:#fafafa"/><path d="M235.38 259.43a1.9 1.9 0 0 1-.95-.24 2.25 2.25 0 0 1-1-2 6.71 6.71 0 0 1 3.13-5.23l6.15-3.56a2.49 2.49 0 0 1 2.51-.23 2.21 2.21 0 0 1 1 2 6.66 6.66 0 0 1-3.14 5.23l-6.14 3.6a3.15 3.15 0 0 1-1.56.43" style="fill:#10b981"/><path d="M243.14 249.65c1-.58 1.83-.11 1.83 1a4 4 0 0 1-1.83 3.14c-1 .57-1.83.1-1.83-1.05a4.05 4.05 0 0 1 1.83-3.09" style="fill:#fafafa"/><path d="M235.38 278a1.9 1.9 0 0 1-.95-.24 2.24 2.24 0 0 1-1-2 6.71 6.71 0 0 1 3.13-5.23l6.15-3.56a2.49 2.49 0 0 1 2.51-.23 2.21 2.21 0 0 1 1 2 6.66 6.66 0 0 1-3.14 5.23l-6.13 3.57a3.23 3.23 0 0 1-1.57.46" style="fill:#10b981"/><path d="M243.14 268.24c1-.58 1.83-.11 1.83 1.05a4 4 0 0 1-1.83 3.14c-1 .57-1.83.1-1.83-1.05a4.05 4.05 0 0 1 1.83-3.14" style="fill:#fafafa"/><path d="M153.73 282.59 177.26 269c1.19-.68 2.15-.2 2.15 1.09a4.59 4.59 0 0 1-2.15 3.56l-23.53 13.57c-1.18.68-2.14.2-2.14-1.09a4.6 4.6 0 0 1 2.14-3.54" style="opacity:.15"/><path d="M147.56 298.24a.48.48 0 0 1-.42-.25.49.49 0 0 1 .18-.68l104.75-60.48a.5.5 0 0 1 .5.86l-104.76 60.48a.45.45 0 0 1-.25.07" style="fill:#e0e0e0"/><path d="M236.56 234.91c1-.59 1.82-.11 1.82 1.05a4 4 0 0 1-1.83 3.14c-1 .57-1.83.1-1.82-1a4 4 0 0 1 1.83-3.19" style="fill:#455a64"/><path d="M235.38 240.84a1.9 1.9 0 0 1-.95-.24 2.25 2.25 0 0 1-1-2 6.71 6.71 0 0 1 3.13-5.23l6.15-3.56a2.49 2.49 0 0 1 2.51-.23 2.2 2.2 0 0 1 1 2 6.67 6.67 0 0 1-3.14 5.23l-6.13 3.56a3.15 3.15 0 0 1-1.57.47m-1.25-2.28a1.56 1.56 0 0 0 .64 1.44 1.88 1.88 0 0 0 1.83-.23l6.12-3.57a6 6 0 0 0 2.8-4.63 1.59 1.59 0 0 0-.63-1.44 1.88 1.88 0 0 0-1.83.23l-6.15 3.56a6 6 0 0 0-2.78 4.64" style="fill:#455a64"/><path d="m153.73 301.18 32-18.43c1.18-.69 2.15-.2 2.15 1.08a4.63 4.63 0 0 1-2.15 3.57l-32 18.43c-1.18.68-2.14.2-2.14-1.09a4.6 4.6 0 0 1 2.14-3.56" style="opacity:.15"/><path d="M147.56 316.83a.48.48 0 0 1-.42-.25.49.49 0 0 1 .18-.68l104.75-60.48a.51.51 0 0 1 .68.18.5.5 0 0 1-.18.68l-104.76 60.48a.45.45 0 0 1-.25.07" style="fill:#e0e0e0"/><path d="M147.56 317a.49.49 0 0 1-.24-.92l104.75-60.48a.49.49 0 0 1 .68.18.5.5 0 0 1-.18.68L147.81 317a.54.54 0 0 1-.25 0m0 18.64a.48.48 0 0 1-.42-.25.49.49 0 0 1 .18-.68l104.75-60.48a.49.49 0 0 1 .68.18.5.5 0 0 1-.18.68l-104.76 60.48a.55.55 0 0 1-.25.07" style="fill:#e0e0e0"/><path d="M147.56 335.85a.49.49 0 0 1-.24-.92l104.75-60.48a.49.49 0 1 1 .5.85l-104.76 60.48a.45.45 0 0 1-.25.07" style="fill:#e0e0e0"/><path d="m153.73 338.79 32-18.43c1.18-.69 2.15-.2 2.15 1.09a4.61 4.61 0 0 1-2.15 3.56l-32 18.43c-1.18.69-2.14.2-2.14-1.08a4.62 4.62 0 0 1 2.14-3.57" style="opacity:.15"/><path d="M147.56 354.44a.49.49 0 0 1-.24-.92L252.07 293a.49.49 0 0 1 .68.18.5.5 0 0 1-.18.68l-104.76 60.52a.54.54 0 0 1-.25.06" style="fill:#e0e0e0"/><path d="m153.73 319.77 23.53-13.57c1.19-.68 2.15-.2 2.15 1.09a4.62 4.62 0 0 1-2.15 3.57l-23.53 13.56c-1.18.69-2.14.2-2.14-1.09a4.6 4.6 0 0 1 2.14-3.56" style="opacity:.15"/><path d="M222.61 299.23 244 286.89c1.18-.69 2.14-.2 2.14 1.09a4.6 4.6 0 0 1-2.14 3.56l-21.42 12.34c-1.18.69-2.14.2-2.14-1.08a4.62 4.62 0 0 1 2.17-3.57" style="fill:#e0e0e0"/><path d="M248.31 285.54a.4.4 0 0 1-.11-.08.22.22 0 0 1-.06-.17v-.67a.4.4 0 0 1 0-.14.24.24 0 0 1 .08-.09h.06l1.78.83a.4.4 0 0 1 .12.07.34.34 0 0 1 0 .17v.33a.7.7 0 0 1 0 .22l-.12.2-1.78 2.89a.06.06 0 0 1-.08 0 .13.13 0 0 1 0-.1v-.67a.5.5 0 0 1 .06-.24c0-.07.07-.14.11-.2l1.15-1.86Z" style="fill:#10b981"/><path d="M152.78 377.64a1.57 1.57 0 0 1-.8-.21 2 2 0 0 1-.88-1.82v-9a5.24 5.24 0 0 1 2.39-4.15l27.94-16.13a2 2 0 0 1 2-.15 2 2 0 0 1 .87 1.82v9a5.24 5.24 0 0 1-2.39 4.15L154 377.28a2.46 2.46 0 0 1-1.22.36M182.64 347a1.45 1.45 0 0 0-.71.22L154 363.32a4.28 4.28 0 0 0-1.9 3.29v9a.83.83 0 0 0 1.4.81l27.94-16.13a4.26 4.26 0 0 0 1.9-3.29v-9a1.07 1.07 0 0 0-.38-1 .6.6 0 0 0-.32 0" style="fill:#e0e0e0"/><path d="M160.06 365.38v1.23a2 2 0 0 0 0 .29.5.5 0 0 0 .11.21.24.24 0 0 0 .18.09.6.6 0 0 0 .27-.09.9.9 0 0 0 .26-.21 1.2 1.2 0 0 0 .17-.24 1.4 1.4 0 0 0 .11-.25 2 2 0 0 0 .05-.22 1 1 0 0 1 .05-.19.3.3 0 0 1 .11-.11l.62-.36a.06.06 0 0 1 .08 0 .15.15 0 0 1 0 .1 3.5 3.5 0 0 1-.12.77 4 4 0 0 1-.31.75 4.3 4.3 0 0 1-.47.65 2.4 2.4 0 0 1-.58.48 1.25 1.25 0 0 1-.61.19.68.68 0 0 1-.46-.16 1.1 1.1 0 0 1-.29-.46 2.5 2.5 0 0 1-.12-.7v-1.3a4 4 0 0 1 .12-.83 3.6 3.6 0 0 1 .29-.79 3 3 0 0 1 .46-.7 2.3 2.3 0 0 1 .61-.51 1.3 1.3 0 0 1 .58-.19.8.8 0 0 1 .47.11 1 1 0 0 1 .31.39 2 2 0 0 1 .12.63.4.4 0 0 1 0 .14.24.24 0 0 1-.08.09l-.62.35h-.11a.4.4 0 0 1-.05-.14 1 1 0 0 0-.05-.15.28.28 0 0 0-.28-.17.6.6 0 0 0-.26.09.9.9 0 0 0-.27.23 1.1 1.1 0 0 0-.18.29 1.6 1.6 0 0 0-.11.33c.02.13.01.25 0 .36m2.58.62a2 2 0 0 1 .24-.94 3.3 3.3 0 0 1 .78-.91l.56-.46a.4.4 0 0 0-.06-.25c0-.06-.12-.05-.22 0a.6.6 0 0 0-.17.14l-.08.13a.5.5 0 0 1-.08.12l-.09.07-.61.35h-.07a.13.13 0 0 1 0-.1 2 2 0 0 1 .09-.41 3 3 0 0 1 .24-.47 4 4 0 0 1 .35-.46 1.9 1.9 0 0 1 .45-.36 1.25 1.25 0 0 1 .51-.18.46.46 0 0 1 .35.1.7.7 0 0 1 .21.34 2.2 2.2 0 0 1 .06.55v2.21a.3.3 0 0 1 0 .16.2.2 0 0 1-.09.11l-.59.35a.07.07 0 0 1-.09 0s0-.06 0-.12v-.2a2.5 2.5 0 0 1-.28.51 1.4 1.4 0 0 1-.45.38.7.7 0 0 1-.36.12.38.38 0 0 1-.27-.08.7.7 0 0 1-.16-.27 1.4 1.4 0 0 1-.17-.43m1.09-.46a.6.6 0 0 0 .19-.17 1.4 1.4 0 0 0 .16-.24 2 2 0 0 0 .1-.28 1.6 1.6 0 0 0 0-.29l-.44.35a1.1 1.1 0 0 0-.2.24.47.47 0 0 0-.08.27c0 .1 0 .15.06.16s.13-.02.21-.06Zm4.63-1.98a.3.3 0 0 1 0 .16.2.2 0 0 1-.09.11l-.59.35a.07.07 0 0 1-.09 0s0-.06 0-.12v-1.84a.75.75 0 0 0-.1-.45c-.07-.09-.17-.09-.31 0a.67.67 0 0 0-.31.37 1.4 1.4 0 0 0-.1.56v1.85a.34.34 0 0 1 0 .16.4.4 0 0 1-.09.11l-.6.34a.07.07 0 0 1-.09 0 .2.2 0 0 1 0-.12v-3.4a.5.5 0 0 1 0-.16.26.26 0 0 1 .09-.11l.58-.33a.08.08 0 0 1 .09 0 .2.2 0 0 1 0 .12v.17a2 2 0 0 1 .1-.21 1 1 0 0 1 .14-.22 2 2 0 0 1 .18-.21 1.6 1.6 0 0 1 .25-.19 1.1 1.1 0 0 1 .42-.14.38.38 0 0 1 .32.12.8.8 0 0 1 .21.39 2.3 2.3 0 0 1 .08.7Zm1.52-2.83a2 2 0 0 0 0 .26 2 2 0 0 0 0 .25.46.46 0 0 0 .13.35q.105.09.3 0a.8.8 0 0 0 .24-.2 1.1 1.1 0 0 0 .13-.27l.06-.14a.24.24 0 0 1 .08-.09l.62-.36h.09c.02 0 0 .06 0 .12a2 2 0 0 1-.06.37 3.3 3.3 0 0 1-.2.57 4 4 0 0 1-.38.61 2.5 2.5 0 0 1-.62.52 1.16 1.16 0 0 1-.5.16.56.56 0 0 1-.4-.1.76.76 0 0 1-.27-.37 1.9 1.9 0 0 1-.12-.63v-.58a3.3 3.3 0 0 1 .12-.77 3 3 0 0 1 .27-.68 2.8 2.8 0 0 1 .4-.57 2 2 0 0 1 .5-.4 1.1 1.1 0 0 1 .62-.2.67.67 0 0 1 .38.17.8.8 0 0 1 .2.33 1.1 1.1 0 0 1 .06.31.34.34 0 0 1 0 .16.2.2 0 0 1-.09.11l-.62.36a.06.06 0 0 1-.08 0 .2.2 0 0 1-.06-.07.2.2 0 0 0-.13-.11.32.32 0 0 0-.24.07.7.7 0 0 0-.3.33 1.2 1.2 0 0 0-.13.49m3.12-1.1a.8.8 0 0 0 0 .25.3.3 0 0 0 .11.12.2.2 0 0 0 .13 0l.15-.06a.9.9 0 0 0 .23-.18 1 1 0 0 0 .13-.2l.08-.13.08-.06.62-.36c.07 0 .1 0 .1.1a1.1 1.1 0 0 1-.07.31 3 3 0 0 1-.22.49 3.5 3.5 0 0 1-.39.55 1.9 1.9 0 0 1-.56.46 1.14 1.14 0 0 1-.55.18.53.53 0 0 1-.4-.15 1.1 1.1 0 0 1-.25-.48 3.4 3.4 0 0 1-.08-.78 4.6 4.6 0 0 1 .08-.83 4 4 0 0 1 .25-.77 2.8 2.8 0 0 1 .4-.64 2 2 0 0 1 .55-.47 1 1 0 0 1 .59-.16.63.63 0 0 1 .4.23 1.2 1.2 0 0 1 .22.51 3 3 0 0 1 .07.67v.2a.3.3 0 0 1 0 .16.17.17 0 0 1-.09.11Zm.43-1.65a.7.7 0 0 0-.3.35 2 2 0 0 0-.13.48l.86-.49a.7.7 0 0 0-.13-.34q-.15-.12-.35.02Zm2.75 1.02a.35.35 0 0 1 0 .17.2.2 0 0 1-.09.11l-.59.34h-.09a.16.16 0 0 1 0-.12v-4.79a.3.3 0 0 1 0-.16.2.2 0 0 1 .09-.11l.59-.35a.07.07 0 0 1 .09 0s0 .06 0 .12Z" style="fill:#e0e0e0"/><path d="M218 337.28v-9a4.75 4.75 0 0 1 2.15-3.72l27.94-16.13c1.18-.68 2.14-.13 2.14 1.24v9a4.76 4.76 0 0 1-2.14 3.72l-27.94 16.13c-1.15.68-2.15.13-2.15-1.24" style="fill:#10b981"/><path d="M230.06 323a1.25 1.25 0 0 1 .55-.19.83.83 0 0 1 .43.09.7.7 0 0 1 .29.3 1 1 0 0 1 .11.42.4.4 0 0 1 0 .13.2.2 0 0 1-.07.08l-.61.36h-.19v-.05a.2.2 0 0 0-.09-.05.3.3 0 0 0-.14 0 1 1 0 0 0-.21.08l-.17.12a1 1 0 0 0-.14.14.6.6 0 0 0-.1.17.45.45 0 0 0 0 .2.22.22 0 0 0 0 .16.2.2 0 0 0 .15 0 .8.8 0 0 0 .28 0l.43-.11a2 2 0 0 1 .45-.06.54.54 0 0 1 .32.13.76.76 0 0 1 .19.32 2 2 0 0 1 .06.54 2.5 2.5 0 0 1-.11.72 3 3 0 0 1-.3.67 2.8 2.8 0 0 1-.46.57 2.4 2.4 0 0 1-.57.44 1.4 1.4 0 0 1-.58.21.8.8 0 0 1-.45-.08.7.7 0 0 1-.3-.31 1 1 0 0 1-.11-.47.3.3 0 0 1 0-.13c0-.05 0-.08.07-.09l.61-.35a.2.2 0 0 1 .1 0h.08l.05.06.1.07a.4.4 0 0 0 .16 0 .5.5 0 0 0 .24-.09 1.7 1.7 0 0 0 .41-.32.57.57 0 0 0 .17-.39.18.18 0 0 0-.06-.15.36.36 0 0 0-.19 0 1.1 1.1 0 0 0-.31.06l-.44.11a.67.67 0 0 1-.7-.12 1.27 1.27 0 0 1-.23-.86 2.1 2.1 0 0 1 .1-.64 2.8 2.8 0 0 1 .26-.65 2.6 2.6 0 0 1 .42-.58 2 2 0 0 1 .5-.46m1.72 3a1.9 1.9 0 0 1 .24-.92 3 3 0 0 1 .76-.89l.55-.46a.4.4 0 0 0-.06-.25c0-.05-.11-.05-.21 0a.6.6 0 0 0-.17.14l-.08.13a.5.5 0 0 1-.08.12l-.09.07-.59.34a.06.06 0 0 1-.08 0 .13.13 0 0 1 0-.1 1.5 1.5 0 0 1 .1-.4 2 2 0 0 1 .23-.46 3 3 0 0 1 .35-.46 1.8 1.8 0 0 1 .44-.35 1.2 1.2 0 0 1 .49-.18.46.46 0 0 1 .35.1.6.6 0 0 1 .2.33 1.7 1.7 0 0 1 .07.54v2.18a.3.3 0 0 1 0 .16.2.2 0 0 1-.09.11l-.58.34a.07.07 0 0 1-.09 0s0-.06 0-.12v-.2a2 2 0 0 1-.28.51 1.4 1.4 0 0 1-.43.37.76.76 0 0 1-.36.12.38.38 0 0 1-.26-.08.5.5 0 0 1-.16-.27 1.3 1.3 0 0 1-.17-.42m1.07-.45a1 1 0 0 0 .19-.16 1 1 0 0 0 .15-.24 1.3 1.3 0 0 0 .1-.28 1 1 0 0 0 0-.29l-.43.35a.9.9 0 0 0-.2.24.56.56 0 0 0-.08.27q0 .14.06.15s.13.02.21-.02Zm2.56-.62a.4.4 0 0 1 0-.09l-.94-2.79a.07.07 0 0 1 0-.05.4.4 0 0 1 0-.14s.05-.08.08-.09l.6-.35h.1l.06.08.51 1.58.51-2.17a1 1 0 0 1 0-.14.25.25 0 0 1 .11-.12l.59-.34a.06.06 0 0 1 .08 0 .13.13 0 0 1 0 .1v.06l-.94 3.87-.06.16a.2.2 0 0 1-.1.11l-.55.32s-.03.07-.05 0m2.72-2.93a.6.6 0 0 0 0 .25.21.21 0 0 0 .24.13l.14-.06a1 1 0 0 0 .22-.17 1 1 0 0 0 .14-.2 1 1 0 0 1 .07-.13l.08-.06.61-.35c.07 0 .1 0 .1.09a1.1 1.1 0 0 1-.07.31 3 3 0 0 1-.21.48 3.6 3.6 0 0 1-.38.54 2.3 2.3 0 0 1-.56.46 1.3 1.3 0 0 1-.54.18.54.54 0 0 1-.4-.16 1.15 1.15 0 0 1-.24-.47 3.3 3.3 0 0 1-.08-.77 4.4 4.4 0 0 1 .08-.81 4.5 4.5 0 0 1 .24-.76 3 3 0 0 1 .4-.63 2.1 2.1 0 0 1 .54-.46 1 1 0 0 1 .58-.16.57.57 0 0 1 .39.23 1.15 1.15 0 0 1 .22.5 2.8 2.8 0 0 1 .07.66v.2a.3.3 0 0 1 0 .15.17.17 0 0 1-.09.11Zm.42-1.62a.7.7 0 0 0-.3.35 1.4 1.4 0 0 0-.12.47l.84-.48a.55.55 0 0 0-.12-.33c-.07-.12-.17-.13-.3-.05Z" style="fill:#fafafa"/><ellipse cx="199.22" cy="181.2" rx="19.86" ry="11.24" style="fill:#10b981" transform="rotate(-66.95 199.21 181.2)"/><ellipse cx="198.87" cy="174.06" rx="6.24" ry="3.53" style="fill:#fafafa" transform="rotate(-66.95 198.867 174.06)"/><path d="M205.82 182.3c-.53-2.66-2.51-3.61-4.8-2.29l-4.72 2.72c-2.28 1.32-4.27 4.56-4.79 7.83l-.7 4.32c1.78 2.06 4.57 2.45 7.72.63s6.15-5.7 7.92-10Z" style="fill:#fafafa"/><path d="M204.75 197.06a.6.6 0 0 1-.29-.08l-1.22-.71a.59.59 0 0 1-.24-.76l1.13-2.28v-.08a4.4 4.4 0 0 1-.37-.79l-1.56.71a.49.49 0 0 1-.47 0 .47.47 0 0 1-.22-.41v-2.2a.86.86 0 0 1 .34-.64l1.74-1.23a.45.45 0 0 0 .11-.17 12 12 0 0 1 .45-1.51l-1-.85a.63.63 0 0 1-.13-.78l1.39-2.42a.65.65 0 0 1 .74-.28l1.22.43a12 12 0 0 1 1.1-1.15.4.4 0 0 0 .09-.18l.19-2.12a.85.85 0 0 1 .39-.61l1.9-1.1a.47.47 0 0 1 .47 0 .48.48 0 0 1 .26.39l.17 1.71a3.7 3.7 0 0 1 .86-.07.12.12 0 0 0 .08 0l1.41-2.11a.58.58 0 0 1 .78-.18l1.22.7a.58.58 0 0 1 .23.77l-1.12 2.27a.14.14 0 0 0 0 .09 4.6 4.6 0 0 1 .36.78l1.57-.7a.49.49 0 0 1 .47 0 .5.5 0 0 1 .21.42v2.2a.86.86 0 0 1-.33.64l-1.68 1.15a.5.5 0 0 0-.11.17 11 11 0 0 1-.45 1.52l1 .85a.63.63 0 0 1 .13.78l-1.4 2.42a.62.62 0 0 1-.74.27l-1.22-.42a12 12 0 0 1-1.09 1.15.4.4 0 0 0-.09.18l-.19 2.12a.88.88 0 0 1-.4.61l-1.9 1.1a.52.52 0 0 1-.47 0 .51.51 0 0 1-.25-.4l-.17-1.7a4.3 4.3 0 0 1-.86.07.15.15 0 0 0-.09 0l-1.4 2.11a.58.58 0 0 1-.55.32m-1.12-1.32 1.1.63 1.36-2.05a.88.88 0 0 1 .65-.33 3 3 0 0 0 .84-.09.56.56 0 0 1 .44.09.57.57 0 0 1 .22.38l.15 1.57 1.66-1a.17.17 0 0 0 .06-.1l.19-2.11a1.06 1.06 0 0 1 .31-.61 12 12 0 0 0 1-1.08.7.7 0 0 1 .74-.21l1.22.42 1.34-2.39-1-.79a.71.71 0 0 1-.19-.74 10.5 10.5 0 0 0 .43-1.43 1 1 0 0 1 .38-.57l1.73-1.22a.4.4 0 0 0 .06-.11v-1.91l-1.44.65a.56.56 0 0 1-.44 0 .54.54 0 0 1-.3-.34 3.3 3.3 0 0 0-.34-.76.79.79 0 0 1 0-.73l1.09-2.21-1.09-.63-1.36 2a.9.9 0 0 1-.66.33 3 3 0 0 0-.83.09.56.56 0 0 1-.44-.09.57.57 0 0 1-.22-.39l-.16-1.56-1.66 1a.5.5 0 0 0-.06.1l-.19 2.12a1 1 0 0 1-.3.6 12 12 0 0 0-1 1.09.71.71 0 0 1-.74.21l-1.21-.43-1.35 2.4 1 .79a.67.67 0 0 1 .19.74 12 12 0 0 0-.43 1.43 1 1 0 0 1-.37.57l-1.74 1.22a.24.24 0 0 0-.05.1v1.92l1.44-.65a.52.52 0 0 1 .44 0 .53.53 0 0 1 .29.33 3.4 3.4 0 0 0 .35.77.82.82 0 0 1 0 .73Zm4.24-4.06a2 2 0 0 1-1-.26 2.58 2.58 0 0 1-1.11-2.37 7.49 7.49 0 0 1 3.38-5.85 2.58 2.58 0 0 1 2.6-.22 2.55 2.55 0 0 1 1.11 2.37 7.46 7.46 0 0 1-3.37 5.84 3.2 3.2 0 0 1-1.65.53Zm2.87-8.3a2.6 2.6 0 0 0-1.26.4 6.73 6.73 0 0 0-3.05 5.27 1.64 1.64 0 0 0 2.71 1.57 6.75 6.75 0 0 0 3.05-5.27 2 2 0 0 0-.78-1.8 1.36 1.36 0 0 0-.71-.13Zm-63.36-7.59 1.16.53a.4.4 0 0 1 .1.08.22.22 0 0 1 .06.17v.67a.3.3 0 0 1 0 .14.24.24 0 0 1-.08.09h-.05l-1.8-.83a.3.3 0 0 1-.11-.07.25.25 0 0 1 0-.17v-.33a.5.5 0 0 1 0-.22 1.4 1.4 0 0 1 .11-.2l1.8-2.9a.08.08 0 0 1 .08 0 .13.13 0 0 1 0 .1v.67a.5.5 0 0 1-.06.24 2 2 0 0 1-.1.2Zm2.16 1.51a.09.09 0 0 1-.1 0 .17.17 0 0 1 0-.13v-5.1a.33.33 0 0 1 0-.17.25.25 0 0 1 .1-.12l1.51-.88a1 1 0 0 1 .55-.16.52.52 0 0 1 .35.18 1 1 0 0 1 .2.4 2 2 0 0 1 .06.47 2 2 0 0 1-.05.45 2.3 2.3 0 0 1-.21.66.8.8 0 0 1-.1.17.7.7 0 0 1 .3.3 1.5 1.5 0 0 1 .13.69 3.7 3.7 0 0 1-.07.64 4 4 0 0 1-.21.66 3 3 0 0 1-.35.58 1.6 1.6 0 0 1-.48.42Zm2-5.07c0-.2 0-.33-.12-.38s-.21 0-.39.07l-.91.52v1.22l.91-.52a1 1 0 0 0 .39-.38 1.1 1.1 0 0 0 .09-.53Zm-1.45 3.77.95-.55a1 1 0 0 0 .42-.43 1.3 1.3 0 0 0 .13-.56.52.52 0 0 0-.14-.41c-.09-.07-.23-.06-.41 0l-.95.55Zm2.78-3.72a3 3 0 0 1 .1-.41 2.7 2.7 0 0 1 .21-.47 2.5 2.5 0 0 1 .33-.47 2 2 0 0 1 .46-.37 1.1 1.1 0 0 1 .47-.16.5.5 0 0 1 .36.1.8.8 0 0 1 .24.38 2.5 2.5 0 0 1 .08.67v2.32a.5.5 0 0 1 0 .17.25.25 0 0 1-.1.12l-.39.23a.08.08 0 0 1-.1 0 .22.22 0 0 1 0-.13V174a2 2 0 0 1-.31.57 1.5 1.5 0 0 1-.51.46.9.9 0 0 1-.4.14.38.38 0 0 1-.29-.09.57.57 0 0 1-.18-.28 1.5 1.5 0 0 1-.07-.46 2.1 2.1 0 0 1 .25-1 2.9 2.9 0 0 1 .68-.8l.83-.71c0-.21 0-.34-.14-.38a.42.42 0 0 0-.34.07 1 1 0 0 0-.2.17 1.5 1.5 0 0 0-.14.23 1 1 0 0 1-.08.13.3.3 0 0 1-.09.08l-.47.27a.1.1 0 0 1-.09 0s-.11-.06-.11-.12m.86 1.74a1.3 1.3 0 0 0 .31-.26 1.5 1.5 0 0 0 .23-.33 1.7 1.7 0 0 0 .14-.37 1.5 1.5 0 0 0 0-.35v-.07l-.7.59a1.4 1.4 0 0 0-.3.33.7.7 0 0 0-.09.34c0 .12 0 .18.11.19a.48.48 0 0 0 .3-.09Zm2.61-2.97a2 2 0 0 0 0 .28 2 2 0 0 0 0 .27 1.2 1.2 0 0 0 .07.38.54.54 0 0 0 .14.2.32.32 0 0 0 .19 0 .6.6 0 0 0 .21-.07.7.7 0 0 0 .21-.16.7.7 0 0 0 .15-.18 1 1 0 0 0 .11-.19c0-.07.05-.14.08-.22l.07-.18a.24.24 0 0 1 .1-.13l.39-.23a.08.08 0 0 1 .1 0 .17.17 0 0 1 0 .13 2 2 0 0 1-.08.45 3.6 3.6 0 0 1-.22.58 3 3 0 0 1-.39.59 1.8 1.8 0 0 1-.56.47.9.9 0 0 1-.51.15.63.63 0 0 1-.39-.17 1 1 0 0 1-.26-.42 2.3 2.3 0 0 1-.12-.63v-.64a4 4 0 0 1 .11-.76 4.6 4.6 0 0 1 .27-.73 3.3 3.3 0 0 1 .39-.62 1.9 1.9 0 0 1 .51-.44 1.1 1.1 0 0 1 .56-.17.62.62 0 0 1 .39.14.8.8 0 0 1 .22.32 1 1 0 0 1 .08.36.4.4 0 0 1 0 .18.4.4 0 0 1-.1.12l-.39.22a.08.08 0 0 1-.1 0 1 1 0 0 0-.07-.1l-.08-.13a.4.4 0 0 0-.11-.07.2.2 0 0 0-.15 0 .8.8 0 0 0-.21.09 1 1 0 0 0-.21.17 1.2 1.2 0 0 0-.19.27 2 2 0 0 0-.14.36 2 2 0 0 0-.07.51m3.08-1.05v1.36a.4.4 0 0 1 0 .18.4.4 0 0 1-.09.12l-.39.22a.08.08 0 0 1-.1 0s0-.06 0-.12v-5.18a.4.4 0 0 1 0-.18.27.27 0 0 1 .1-.11l.39-.23a.06.06 0 0 1 .09 0 .15.15 0 0 1 0 .12v2.49l.86-1.56.08-.13a.34.34 0 0 1 .12-.12l.52-.3h.09a.2.2 0 0 1 0 .12v.08a1 1 0 0 1-.05.11l-1.19 2.17 1.3 1.18v.06a.08.08 0 0 1 0 .06.5.5 0 0 1 0 .16.22.22 0 0 1-.09.1l-.5.29a.17.17 0 0 1-.13 0h-.08Zm82.96-51.66a.26.26 0 0 1-.23-.13.26.26 0 0 1 .1-.35l6.53-3.78a.26.26 0 0 1 .36.1.27.27 0 0 1-.09.36l-6.54 3.77a.3.3 0 0 1-.13.03m0 2.89a.26.26 0 0 1-.23-.13.28.28 0 0 1 .1-.36l6.53-3.77a.26.26 0 0 1 .36.1.26.26 0 0 1-.09.35l-6.54 3.78a.3.3 0 0 1-.13.03m0 2.89a.28.28 0 0 1-.23-.13.27.27 0 0 1 .1-.36l6.53-3.77a.26.26 0 0 1 .27.45l-6.54 3.77a.2.2 0 0 1-.13.04" style="fill:#455a64"/><path d="M242.36 117.11c.45-.26.82 0 .82.48a1.81 1.81 0 0 1-.83 1.42c-.46.26-.83 0-.83-.48a1.84 1.84 0 0 1 .84-1.42m5.04 0c.45-.26.83 0 .83.48a1.82 1.82 0 0 1-.84 1.42c-.46.26-.83 0-.82-.48a1.81 1.81 0 0 1 .83-1.42m-2.2 4.17c.45-.26.82 0 .82.48a1.79 1.79 0 0 1-.83 1.42c-.46.26-.83 0-.82-.47a1.82 1.82 0 0 1 .83-1.43m-54.6 26.2a1.3 1.3 0 0 1 .6-.2.8.8 0 0 1 .47.1.9.9 0 0 1 .31.32 1 1 0 0 1 .11.46.4.4 0 0 1 0 .14.23.23 0 0 1-.07.09l-.67.38a.2.2 0 0 1-.11 0 .2.2 0 0 1-.09 0l-.05-.05a.15.15 0 0 0-.09-.06.4.4 0 0 0-.16 0 .7.7 0 0 0-.22.09l-.19.13a.7.7 0 0 0-.15.15.6.6 0 0 0-.11.18.6.6 0 0 0-.05.23.23.23 0 0 0 .05.16.2.2 0 0 0 .16 0 1.2 1.2 0 0 0 .3 0l.47-.12a1.5 1.5 0 0 1 .49-.06.54.54 0 0 1 .35.13.66.66 0 0 1 .2.35 2 2 0 0 1 .07.59 3 3 0 0 1-.11.78 3.4 3.4 0 0 1-.33.73 3.3 3.3 0 0 1-.5.62 3 3 0 0 1-.63.48 1.6 1.6 0 0 1-.63.23.9.9 0 0 1-.48-.09.83.83 0 0 1-.33-.34 1.4 1.4 0 0 1-.12-.51.3.3 0 0 1 0-.14.3.3 0 0 1 .08-.1l.66-.38a.24.24 0 0 1 .11 0h.09l.06.06a.24.24 0 0 0 .11.08.3.3 0 0 0 .17 0 .7.7 0 0 0 .25-.1 1.8 1.8 0 0 0 .45-.35.6.6 0 0 0 .18-.43.16.16 0 0 0-.06-.15.3.3 0 0 0-.2 0 1.3 1.3 0 0 0-.34.06l-.48.13a.75.75 0 0 1-.77-.14 1.4 1.4 0 0 1-.24-.93 3 3 0 0 1 .1-.7 3.3 3.3 0 0 1 .29-.71 3 3 0 0 1 .45-.59 2.8 2.8 0 0 1 .6-.52m2.83 2.33a.6.6 0 0 0 0 .27.19.19 0 0 0 .11.12.22.22 0 0 0 .14 0l.16-.07a1.3 1.3 0 0 0 .24-.18 1 1 0 0 0 .15-.22 1 1 0 0 1 .08-.14.4.4 0 0 1 .09-.07l.66-.38c.07 0 .11 0 .11.11a1.5 1.5 0 0 1-.08.33 3.6 3.6 0 0 1-.23.52 3.6 3.6 0 0 1-.42.59 2.4 2.4 0 0 1-.6.5 1.3 1.3 0 0 1-.59.19.57.57 0 0 1-.43-.17 1 1 0 0 1-.26-.51 3.3 3.3 0 0 1-.09-.83 4.4 4.4 0 0 1 .09-.89 3.6 3.6 0 0 1 .26-.82 3 3 0 0 1 .43-.69 2 2 0 0 1 .59-.5 1 1 0 0 1 .63-.18.66.66 0 0 1 .43.25 1.4 1.4 0 0 1 .24.55 3.2 3.2 0 0 1 .07.71v.22a.33.33 0 0 1 0 .17.25.25 0 0 1-.1.12Zm.46-1.77a.76.76 0 0 0-.32.38 1.8 1.8 0 0 0-.14.52l.92-.53a.65.65 0 0 0-.14-.36c-.07-.05-.21-.05-.32-.05Zm3.02-.24a.35.35 0 0 0 .06.24c0 .05.09.05.16 0l.41-.24a.08.08 0 0 1 .1 0 .2.2 0 0 1 0 .12v.79a.5.5 0 0 1 0 .17.25.25 0 0 1-.1.12l-.48.28a1.1 1.1 0 0 1-.44.15.48.48 0 0 1-.33-.12.8.8 0 0 1-.21-.36 2 2 0 0 1-.08-.6v-1.31l-.38.21h-.09a.17.17 0 0 1 0-.13v-.79a.4.4 0 0 1 0-.17.3.3 0 0 1 .09-.12l.38-.21v-1.28a.35.35 0 0 1 0-.17.25.25 0 0 1 .1-.12l.64-.37h.09a.16.16 0 0 1 0 .12v1.28l.58-.33h.09a.17.17 0 0 1 0 .13v.79a.4.4 0 0 1 0 .17.2.2 0 0 1-.09.12l-.58.33Zm2.41-1.39a.43.43 0 0 0 .05.24s.09 0 .17 0l.41-.24a.06.06 0 0 1 .09 0 .15.15 0 0 1 0 .12v.79a.33.33 0 0 1 0 .17.3.3 0 0 1-.09.12l-.49.28a1.1 1.1 0 0 1-.43.15.48.48 0 0 1-.33-.12.7.7 0 0 1-.22-.36 2 2 0 0 1-.07-.6v-1.31l-.38.22a.07.07 0 0 1-.09 0 .17.17 0 0 1-.05-.13V145a.4.4 0 0 1 .05-.17.2.2 0 0 1 .09-.12l.38-.21v-1.28a.4.4 0 0 1 0-.17.24.24 0 0 1 .09-.12l.64-.37a.08.08 0 0 1 .1 0 .17.17 0 0 1 0 .13v1.27l.57-.33a.09.09 0 0 1 .1 0 .17.17 0 0 1 0 .13v.79a.35.35 0 0 1 0 .17.25.25 0 0 1-.1.12l-.57.33Zm2.11-4.34a.5.5 0 0 1 0 .17.25.25 0 0 1-.1.12l-.64.37a.08.08 0 0 1-.1 0 .17.17 0 0 1 0-.12v-.79a.5.5 0 0 1 0-.17.25.25 0 0 1 .1-.12l.64-.37a.08.08 0 0 1 .1 0 .2.2 0 0 1 0 .12Zm0 4.5a.6.6 0 0 1 0 .17.25.25 0 0 1-.1.12l-.64.37a.08.08 0 0 1-.1 0 .22.22 0 0 1 0-.13v-3.64a.5.5 0 0 1 0-.17.25.25 0 0 1 .1-.12l.64-.37a.08.08 0 0 1 .1 0 .2.2 0 0 1 0 .12Zm3.29-1.91a.4.4 0 0 1 0 .18.27.27 0 0 1-.1.11l-.63.37a.09.09 0 0 1-.1 0 .17.17 0 0 1 0-.13v-2a.8.8 0 0 0-.11-.47q-.105-.15-.33 0a.73.73 0 0 0-.34.39 1.9 1.9 0 0 0-.1.6v2a.35.35 0 0 1 0 .17.25.25 0 0 1-.1.12l-.64.37a.06.06 0 0 1-.09 0 .16.16 0 0 1 0-.12v-3.65a.4.4 0 0 1 0-.17.3.3 0 0 1 .09-.12l.62-.35a.06.06 0 0 1 .09 0s0 .06 0 .12v.18l.02-.26c0-.08.09-.16.14-.24a2 2 0 0 1 .2-.22 1.4 1.4 0 0 1 .27-.2.86.86 0 0 1 .45-.15.42.42 0 0 1 .34.12.84.84 0 0 1 .23.42 2.7 2.7 0 0 1 .08.75Zm1.82-.29a1 1 0 0 0 .34-.33.87.87 0 0 0 .15-.5V143l-.1.22-.13.23a2 2 0 0 1-.2.22 1.3 1.3 0 0 1-.28.2 1 1 0 0 1-.43.15.48.48 0 0 1-.36-.12.9.9 0 0 1-.24-.41 2.6 2.6 0 0 1-.11-.71v-.56a4.3 4.3 0 0 1 .11-.83 3 3 0 0 1 .24-.69 2.6 2.6 0 0 1 .36-.53 1.8 1.8 0 0 1 .43-.36.7.7 0 0 1 .29-.12.37.37 0 0 1 .21 0 .23.23 0 0 1 .14.07.3.3 0 0 1 .09.1v-.18a.6.6 0 0 1 0-.18.27.27 0 0 1 .1-.11l.59-.34a.06.06 0 0 1 .09 0 .17.17 0 0 1 0 .13V143a3.2 3.2 0 0 1-.1.83 2.8 2.8 0 0 1-.29.73 2.7 2.7 0 0 1-.43.58 3 3 0 0 1-.56.43 1.27 1.27 0 0 1-.65.22.53.53 0 0 1-.39-.14.7.7 0 0 1-.2-.33 1.4 1.4 0 0 1-.06-.37.33.33 0 0 1 0-.17.25.25 0 0 1 .1-.12l.66-.39c.07 0 .12 0 .15.07a.3.3 0 0 0 .11.12c.17 0 .25-.02.37-.09m-.45-2.59a2 2 0 0 0 0 .2 1 1 0 0 0 0 .18.54.54 0 0 0 .13.38q.105.12.33 0a.8.8 0 0 0 .32-.36 1.7 1.7 0 0 0 .13-.48 2 2 0 0 0 0-.49.5.5 0 0 0-.13-.32c-.08-.07-.18-.07-.32 0a.75.75 0 0 0-.33.37 1.3 1.3 0 0 0-.13.52m3.91-1.17a.14.14 0 0 0 0-.11.14.14 0 0 0-.13 0l-.24.07-.38.12a.55.55 0 0 1-.59-.09 1 1 0 0 1-.21-.74 1.7 1.7 0 0 1 .09-.54 2.6 2.6 0 0 1 .24-.54 3 3 0 0 1 .37-.49 2.5 2.5 0 0 1 .49-.37 1.3 1.3 0 0 1 .49-.19.8.8 0 0 1 .38 0 .52.52 0 0 1 .26.2.65.65 0 0 1 .1.34.36.36 0 0 1 0 .17.3.3 0 0 1-.1.12l-.61.35a.1.1 0 0 1-.09 0h-.19a.5.5 0 0 0-.21.08 1 1 0 0 0-.2.16.36.36 0 0 0-.07.22v.12c0 .02.05 0 .1 0l.22-.06.36-.12a.59.59 0 0 1 .67.09 1.06 1.06 0 0 1 .21.71 1.8 1.8 0 0 1-.09.55 2.2 2.2 0 0 1-.25.55 2.8 2.8 0 0 1-.41.51 2.4 2.4 0 0 1-.54.41 1.4 1.4 0 0 1-.54.21.66.66 0 0 1-.38-.05.47.47 0 0 1-.24-.22.7.7 0 0 1-.1-.33.4.4 0 0 1 0-.17.3.3 0 0 1 .1-.12l.63-.36h.15a.16.16 0 0 0 .11 0 .5.5 0 0 0 .23-.09.9.9 0 0 0 .26-.22.35.35 0 0 0 .11-.17m-49.21 12.89v-1l-1.3.75c-.07 0-.11 0-.11-.11v-.3a1 1 0 0 1 0-.17v-.16l1.38-3.77.07-.14a.24.24 0 0 1 .09-.08l.18-.11h.12a.34.34 0 0 1 0 .18v2.9l.28-.17h.12a.36.36 0 0 1 0 .18v.2a.6.6 0 0 1 0 .21.3.3 0 0 1-.12.12l-.28.17v.8a.6.6 0 0 1 0 .21.3.3 0 0 1-.12.13l-.22.12c-.03.06-.07.07-.09.04m.05-1.76v-2.06l-1 2.61Zm1.49.37a2.7 2.7 0 0 1-.38-1.7 5.3 5.3 0 0 1 .38-2.13 2.62 2.62 0 0 1 1.08-1.3 1.5 1.5 0 0 1 .52-.2.64.64 0 0 1 .4.06.1.1 0 0 1 0 .08.3.3 0 0 1 0 .09l-.12.44v.09h-.05a.78.78 0 0 0-.67.11 1.83 1.83 0 0 0-.73.89 4 4 0 0 0-.27 1.58 2.2 2.2 0 0 0 .26 1.28c.17.21.41.23.71.06a1.7 1.7 0 0 0 .32-.23 1.6 1.6 0 0 0 .25-.29v-1.34l-.54.31h-.11a.36.36 0 0 1 0-.18v-.19a.6.6 0 0 1 0-.21.25.25 0 0 1 .11-.12l.87-.5h.13a.5.5 0 0 1 0 .22v1.92a.7.7 0 0 1 0 .17.24.24 0 0 1 0 .13 2.67 2.67 0 0 1-1 1c-.55.27-.91.26-1.16-.04m10.94-6.63a2 2 0 0 1-.75 1.6c-.42.24-.75-.09-.75-.73a2 2 0 0 1 .75-1.59c.42-.24.75.08.75.72" style="fill:#455a64"/><path d="M172.52 142.86a4.5 4.5 0 0 0-1.75 2.63c-.07.23 0 .46.08.53.14.09.35-.1.44-.39a3.2 3.2 0 0 1 1.23-1.86.79.79 0 0 1 1.23.43c.09.2.3.14.44-.11a.74.74 0 0 0 .08-.62 1.13 1.13 0 0 0-1.75-.61" style="fill:#455a64"/><path d="M172.52 141a7 7 0 0 0-2.69 3.83c-.09.25-.06.5.06.58.14.09.34-.09.44-.37a5.72 5.72 0 0 1 2.19-3.13 1.46 1.46 0 0 1 2.2.6c.09.17.29.11.43-.14a.71.71 0 0 0 .06-.64 1.78 1.78 0 0 0-2.69-.73m25.53-12.2a.06.06 0 0 1 .09 0s0 .06 0 .12v.75a.35.35 0 0 1 0 .17.4.4 0 0 1-.09.12l-.47.26a.06.06 0 0 1-.09 0 .16.16 0 0 1 0-.12v-.76a.4.4 0 0 1 0-.17.25.25 0 0 1 .09-.11Zm0 2.69a.08.08 0 0 1 .09 0 .17.17 0 0 1 0 .13v.75a.4.4 0 0 1 0 .17.4.4 0 0 1-.09.11l-.47.27a.06.06 0 0 1-.09 0s0-.06 0-.12v-.8a.35.35 0 0 1 0-.17.3.3 0 0 1 .09-.12Zm2.66-.37a.08.08 0 0 1-.1 0 .2.2 0 0 1 0-.12v-.93L199 131a.08.08 0 0 1-.1 0 .17.17 0 0 1 0-.12v-.54a.5.5 0 0 1 0-.21c0-.07 0-.14.07-.22l1.53-3.81a.63.63 0 0 1 .2-.31l.38-.22a.08.08 0 0 1 .1 0 .17.17 0 0 1 0 .12v3.07l.43-.25a.06.06 0 0 1 .09 0 .15.15 0 0 1 0 .12v.55a.4.4 0 0 1 0 .17.4.4 0 0 1-.09.11l-.43.25v.93a.6.6 0 0 1 0 .17.27.27 0 0 1-.1.11Zm-.14-2v-1.65l-.85 2.14Zm-4.98 4.93h-.09a.17.17 0 0 1 0-.13V133l-1.55.9h-.09a.17.17 0 0 1 0-.12v-.55a.8.8 0 0 1 0-.21l.07-.21 1.53-3.82a.8.8 0 0 1 .2-.31l.38-.22a.09.09 0 0 1 .1 0 .16.16 0 0 1 0 .12v3.08l.43-.25a.07.07 0 0 1 .09 0 .17.17 0 0 1 0 .13v.54a.33.33 0 0 1 0 .17.24.24 0 0 1-.09.12l-.43.24v.93a.33.33 0 0 1 0 .17.25.25 0 0 1-.1.12Zm-.13-2v-1.64l-.86 2.14Zm7.25-7.26a.6.6 0 0 1 0-.17.27.27 0 0 1 .1-.11l1.87-1.08a.08.08 0 0 1 .1 0 .2.2 0 0 1 0 .12v.55a.5.5 0 0 1 0 .17.4.4 0 0 1-.1.12l-1.4.8v1a1.6 1.6 0 0 1 .26-.26l.22-.14a1.35 1.35 0 0 1 .52-.18.56.56 0 0 1 .41.1.87.87 0 0 1 .28.4 2.3 2.3 0 0 1 .1.7 3.6 3.6 0 0 1-.11.9 2.8 2.8 0 0 1-.28.74 2.2 2.2 0 0 1-.41.57 2.7 2.7 0 0 1-.51.4 1.7 1.7 0 0 1-.59.22.6.6 0 0 1-.41-.1.7.7 0 0 1-.24-.35 1.6 1.6 0 0 1-.1-.51.4.4 0 0 1 0-.18.27.27 0 0 1 .1-.11l.4-.23h.09c.02 0 .05 0 .06.1a.5.5 0 0 0 .09.23.24.24 0 0 0 .15.09.32.32 0 0 0 .19 0 1.4 1.4 0 0 0 .22-.1 1.2 1.2 0 0 0 .46-.51 1.66 1.66 0 0 0 .17-.75.56.56 0 0 0-.17-.47.41.41 0 0 0-.46 0 2 2 0 0 0-.24.17 2 2 0 0 0-.14.17.7.7 0 0 1-.1.13.4.4 0 0 1-.11.11l-.46.26a.08.08 0 0 1-.1 0 .17.17 0 0 1 0-.12Zm-56.27 37.61v-1.6l1.38-.8v1.6zm2.08-1.2V158l1.38-.8v3.2zm2.08-1.2v-4.8l1.38-.8v4.8zm2.08-1.2v-6.4l1.38-.8v6.4zM250 97.41c-.15-.22-.33-.27-.51-.17l-5.18 3a2 2 0 0 0-.6 1.57v2.91a1.7 1.7 0 0 0 .23.93.54.54 0 0 0 .21.19.33.33 0 0 0 .3 0l5.18-3a2 2 0 0 0 .6-1.58v-2.9a1.64 1.64 0 0 0-.23-.95m-5.92 7.84a.83.83 0 0 1-.08-.42v-2.91a1.54 1.54 0 0 1 .45-1.2l5.18-3a.16.16 0 0 1 .16 0l.07.06a.9.9 0 0 1 .08.43v2.91a1.6 1.6 0 0 1-.45 1.2l-5.18 3a.15.15 0 0 1-.22-.07Z" style="fill:#455a64"/><path d="M245.44 100.66v3.44l-.81.47a.11.11 0 0 1-.16-.09v-2.56a1.2 1.2 0 0 1 .34-.89Zm.38-.21.97-.56v3.44l-.97.55zm1.35-.77.97-.57v3.45l-.97.56zm2.32-1.11v2.48a1.31 1.31 0 0 1-.64 1.11l-.33.19V98.9l.77-.44a.13.13 0 0 1 .2.11m.94-.33c.14-.08.26.33.26.93v.54a2.2 2.2 0 0 1-.26 1.26l-.27.18V98.4Zm-14.57 8.8 5.03-4.47-1.55 6.55-.73-2.73z" style="fill:#455a64"/><path d="M389.52 21.19 283.31 82.43a5.27 5.27 0 0 0-2.39 4.14v36.77a5.28 5.28 0 0 0 2.4 4.13l1.49.85a5.32 5.32 0 0 0 4.79 0L395.81 67a5.29 5.29 0 0 0 2.39-4.14V26.17a5.26 5.26 0 0 0-2.4-4.17l-1.49-.85a5.32 5.32 0 0 0-4.79.04" style="fill:#e0e0e0"/><path d="M280.92 97.63 270.51 109a.93.93 0 0 0 .22 1.43l6.42 3.68a.85.85 0 0 0 .53.12l10.47-.7v-11.75Z" style="fill:#f0f0f0"/><path d="M394.89 25.2 290.5 85.5a6.58 6.58 0 0 0-3.29 5.7v10.27l-10.28 11.19a.93.93 0 0 0 .75 1.55l9.53-.64v12.29c0 2.12 1.48 3 3.3 1.91L394.89 67.5c1.83-1 3.31-2.39 3.31-4.49v-35.9a2.21 2.21 0 0 0-3.31-1.91" style="fill:#fafafa"/><path d="M396 25.82a1.29 1.29 0 0 1 1.29 1.29V63c0 1.42-.88 2.56-2.85 3.7L290.05 127a2.14 2.14 0 0 1-1 .32c-.82 0-.91-1-.91-1.44v-13.29l-1 .06-9.54.63 10.28-11.18.24-.27V91.2a5.67 5.67 0 0 1 2.88-4.9L395.35 26a1.24 1.24 0 0 1 .64-.18m0-.92a2.15 2.15 0 0 0-1.1.3L290.5 85.5a6.58 6.58 0 0 0-3.29 5.7v10.27l-10.28 11.19a.93.93 0 0 0 .68 1.55h.07l9.53-.64v12.29c0 1.5.74 2.36 1.83 2.36a3 3 0 0 0 1.47-.45L394.89 67.5c1.83-1 3.31-2.39 3.31-4.49v-35.9a2.21 2.21 0 0 0-2.2-2.21Z" style="fill:#e0e0e0"/><path d="M398.2 26.17v.94a2.21 2.21 0 0 0-3.31-1.91L290.5 85.5a6.4 6.4 0 0 0-2.41 2.41v.07l-6.46-3.73a5 5 0 0 1 1.72-1.82l106.2-61.24a5.29 5.29 0 0 1 4.79 0l1.49.85a5.28 5.28 0 0 1 2.37 4.13" style="fill:#f0f0f0"/><path d="M299 107.42a1.1 1.1 0 0 1-.58-.16 1.72 1.72 0 0 1-.71-1.56V95a4 4 0 0 1 1.72-3.26L313 83.91a1.35 1.35 0 0 1 1.38-.08 1.72 1.72 0 0 1 .71 1.56v10.72a4 4 0 0 1-1.72 3.26l-.84.49v2.83a1.57 1.57 0 0 1-.66 1.25.68.68 0 0 1-.67.06l-3.2-1.54-8.17 4.72a1.6 1.6 0 0 1-.83.24m14.75-23a.9.9 0 0 0-.43.14l-13.52 7.81a3.33 3.33 0 0 0-1.34 2.63v10.7a1.05 1.05 0 0 0 .35.93.67.67 0 0 0 .64-.08l8.35-4.82a.37.37 0 0 1 .34 0l3.34 1.62a1 1 0 0 0 .29-.65v-3a.38.38 0 0 1 .18-.32l1-.59a3.33 3.33 0 0 0 1.36-2.63V85.39a1.05 1.05 0 0 0-.35-.93.4.4 0 0 0-.19-.06Zm-.61-.18" style="fill:#455a64"/><path d="M297.48 114.2h-.15a.6.6 0 0 1-.41-.62v-1.24l-.08.05a1 1 0 0 1-1 0 1.2 1.2 0 0 1-.52-1.09v-6.6a2.65 2.65 0 0 1 1.14-2.14l1.44-.83a.37.37 0 0 1 .5.13.36.36 0 0 1-.14.5l-1.43.83a1.92 1.92 0 0 0-.77 1.51v6.63c0 .26.07.41.14.45s.21 0 .26 0l.63-.36a.37.37 0 0 1 .55.31v1.43l1.89-3.1a.5.5 0 0 1 .13-.12l4.53-2.62a2 2 0 0 0 .77-1.5v-2.18a.37.37 0 0 1 .37-.36.36.36 0 0 1 .36.36v2.18a2.63 2.63 0 0 1-1.13 2.13l-4.45 2.57-2 3.31a.76.76 0 0 1-.63.37M312 90.78l-11.17 6.42c-.32.19-.58 0-.58-.43a1.4 1.4 0 0 1 .58-1.11L312 89.24c.32-.18.58 0 .58.44a1.38 1.38 0 0 1-.58 1.1m0 4.8L300.83 102c-.32.18-.58 0-.58-.44a1.4 1.4 0 0 1 .58-1.11L312 94c.32-.18.58 0 .58.44a1.38 1.38 0 0 1-.58 1.14" style="fill:#455a64"/><path d="M317.32 81.63a6.28 6.28 0 0 1-2.62 5c-1.45.83-2.63-.05-2.63-2a6.29 6.29 0 0 1 2.63-5c1.45-.82 2.62.07 2.62 2" style="fill:#10b981"/><path d="M333.14 81.83a2.1 2.1 0 0 1-1.07-.28 3.44 3.44 0 0 1-1.37-3.11 8.68 8.68 0 0 1 3.63-6.9 2.58 2.58 0 0 1 2.62-.18 3.42 3.42 0 0 1 1.37 3.1c0 2.65-1.63 5.75-3.63 6.91a3.2 3.2 0 0 1-1.55.46m2.74-10a2.4 2.4 0 0 0-1.19.36 7.88 7.88 0 0 0-3.26 6.27 2.76 2.76 0 0 0 1 2.48 1.89 1.89 0 0 0 1.89-.19 7.86 7.86 0 0 0 3.26-6.27 2.74 2.74 0 0 0-1-2.47 1.4 1.4 0 0 0-.7-.2Zm-8.2 25.58a.5.5 0 0 1-.2 0 .4.4 0 0 1-.17-.34l.59-6.6c.47-2.92 2.22-5.75 4.25-6.92l4-2.32a3.15 3.15 0 0 1 2.89-.32 3.27 3.27 0 0 1 1.72 2.51l.53 5.65a.36.36 0 0 1-.17.35l-13.26 8a.34.34 0 0 1-.18-.01m10.31-16a3 3 0 0 0-1.47.45l-4 2.32c-1.83 1.05-3.47 3.73-3.89 6.38l-.53 5.86 12.45-7.47-.55-5.46a2.6 2.6 0 0 0-1.3-2 1.7 1.7 0 0 0-.7-.13Z" style="fill:#455a64"/><path d="M355.91 78.89a.64.64 0 0 1-.37-.13l-1.3-1a.73.73 0 0 1-.23-.86l1.2-2.68a.3.3 0 0 0 0-.2 7 7 0 0 1-.39-1l-1.63.71a.52.52 0 0 1-.5 0 .55.55 0 0 1-.24-.49v-2.72a1 1 0 0 1 .35-.74l1.85-1.34a.4.4 0 0 0 .11-.2 16 16 0 0 1 .48-1.81.14.14 0 0 0 0-.11l-1-1.13a.78.78 0 0 1-.12-.86l1.49-2.84a.63.63 0 0 1 .84-.28l1.3.63a9 9 0 0 1 1.11-1.3.55.55 0 0 0 .1-.23l.2-2.58a.94.94 0 0 1 .42-.7l2-1.17a.52.52 0 0 1 .5 0 .57.57 0 0 1 .29.47l.19 2.18a4 4 0 0 1 .93 0L365 56a.65.65 0 0 1 .4-.29.62.62 0 0 1 .49.12l1.3 1a.73.73 0 0 1 .22.86l-1.2 2.68a.5.5 0 0 0 0 .2 5.5 5.5 0 0 1 .4 1l1.63-.71a.52.52 0 0 1 .5 0 .58.58 0 0 1 .24.49v2.69a1 1 0 0 1-.36.74l-1.84 1.34a.5.5 0 0 0-.12.2 14 14 0 0 1-.47 1.81.14.14 0 0 0 0 .11l1 1.13a.78.78 0 0 1 .12.86l-1.49 2.84a.63.63 0 0 1-.85.28l-1.29-.63a9 9 0 0 1-1.11 1.3.55.55 0 0 0-.1.23l-.2 2.58a.94.94 0 0 1-.42.7l-2 1.17a.52.52 0 0 1-.5 0 .57.57 0 0 1-.29-.47l-.19-2.18a4 4 0 0 1-.93 0l-1.53 2.47a.64.64 0 0 1-.41.29Zm-1.01-6.65a.5.5 0 0 1 .24.06.64.64 0 0 1 .33.42 5 5 0 0 0 .38 1 1 1 0 0 1 0 .82l-1.2 2.69 1.19.88 1.43-2.35a.82.82 0 0 1 .74-.36 3.2 3.2 0 0 0 .87 0 .57.57 0 0 1 .46.11.7.7 0 0 1 .24.46l.17 2 1.74-1a.26.26 0 0 0 .06-.13l.2-2.58a1.26 1.26 0 0 1 .32-.7 11 11 0 0 0 1.09-1.23.71.71 0 0 1 .85-.2l1.21.6 1.45-2.76-1.05-1.16a.91.91 0 0 1-.18-.84 15 15 0 0 0 .46-1.72 1.1 1.1 0 0 1 .4-.65l1.85-1.34a.3.3 0 0 0 .05-.15v-2.46l-1.52.66a.57.57 0 0 1-.46 0 .64.64 0 0 1-.33-.42 5.2 5.2 0 0 0-.38-1 1 1 0 0 1 0-.82l1.2-2.69-1.19-.88-1.43 2.35a.82.82 0 0 1-.75.36 2.8 2.8 0 0 0-.87 0 .56.56 0 0 1-.45-.11.7.7 0 0 1-.24-.46l-.17-2-1.74 1a.26.26 0 0 0-.06.13l-.21 2.58a1.22 1.22 0 0 1-.31.69 11 11 0 0 0-1.09 1.24.71.71 0 0 1-.85.2l-1.22-.6-1.44 2.76 1.05 1.16a.91.91 0 0 1 .18.84 13 13 0 0 0-.46 1.72 1.1 1.1 0 0 1-.4.65l-1.85 1.34a.3.3 0 0 0 0 .15V73l1.51-.66a.6.6 0 0 1 .18-.1m4.44.39a2.15 2.15 0 0 1-1.06-.28 3.38 3.38 0 0 1-1.37-3.08 8.62 8.62 0 0 1 3.6-6.84 2.56 2.56 0 0 1 2.6-.18 3.38 3.38 0 0 1 1.36 3.08 8.6 8.6 0 0 1-3.59 6.84 3.16 3.16 0 0 1-1.54.46m2.71-9.93a2.36 2.36 0 0 0-1.17.36 7.78 7.78 0 0 0-3.24 6.21 2.73 2.73 0 0 0 1 2.45 1.89 1.89 0 0 0 1.87-.18 7.8 7.8 0 0 0 3.23-6.21 2.73 2.73 0 0 0-1-2.45 1.4 1.4 0 0 0-.69-.18m-1.36 9.15" style="fill:#10b981"/><path d="M382.15 59a3.2 3.2 0 0 1-1.6-.42c-1.33-.77-2.09-2.51-2.09-4.79 0-4.2 2.57-9.1 5.74-10.93a3.89 3.89 0 0 1 4-.29c1.33.76 2.1 2.51 2.1 4.79 0 4.2-2.58 9.1-5.74 10.93a4.84 4.84 0 0 1-2.41.71m4.43-16.18a4.2 4.2 0 0 0-2.05.62c-3 1.72-5.4 6.36-5.4 10.35 0 2 .64 3.57 1.76 4.21a3.27 3.27 0 0 0 3.31-.29c3-1.72 5.4-6.36 5.4-10.35 0-2-.64-3.57-1.76-4.21a2.5 2.5 0 0 0-1.26-.36Z" style="fill:#455a64"/><path d="M392.41 57a.34.34 0 0 1-.22-.07l-4-3a.36.36 0 0 1-.07-.51.37.37 0 0 1 .51-.07l4 3a.37.37 0 0 1 .07.51.35.35 0 0 1-.29.14" style="fill:#455a64"/><path d="M357.33 410.8c-3.4 1.82-9.34 1.73-13.47-.47l-4.41-38 18.2-1Z" style="fill:#b16668"/><path d="M359.47 407.79a10.56 10.56 0 0 1 .91 5.48c-.15 1.64-1.22 3.73-.91 7.46s1.11 4.92 1.4 7.56.14 6.15-1.49 8.59-4.47 4.81-11.14 4.35c-7.52-.5-8.79-4.54-8.79-7.73Z" style="fill:#263238"/><path d="M357.88 402.65a1.5 1.5 0 0 1 .77.54c.53.72.35 1.82.52 2.66.07.33.13.66.19 1 .42 2.5-.2 5-.25 7.58a42 42 0 0 0 1.23 8.89c1 5.29 1 8.6-3.73 12.06a13.36 13.36 0 0 1-8.33 2.56c-2.33 0-5.8-1.11-7-2.37a8.1 8.1 0 0 1-2.15-3.9c0-5.59 2.41-11.81 3-17.36.31-2.78.41-5.79.56-8.59a1 1 0 0 1 .17-.6.9.9 0 0 1 .46-.26c3.68-1.26 8.33-.58 12.11.18.33.06.7.17.82.48a1.1 1.1 0 0 1 .05.41 11 11 0 0 0 .2 2.22c0 .18.13.4.31.39s.47-1.55.49-1.74v-4.2a2 2 0 0 1 .58.05" style="fill:#37474f"/><path d="M339.17 431.66a6.23 6.23 0 0 1 .57-3.18c2.59-5.1 17.26-4.17 21.14 1.19-.13 3.22-.51 5-3.27 7.27-2.26 1.84-6.91 2.34-9.8 2.05a10.94 10.94 0 0 1-6.39-2.65 5.93 5.93 0 0 1-2.25-4.68" style="fill:#455a64"/><path d="M320.06 404.59c-2.87 6.21-10 4.73-15.88.75l-2-41.31 20 4.5Z" style="fill:#b16668"/><path d="M279.06 420.43a4.42 4.42 0 0 0 .18 3.24c.45.94 5.4 3.73 12.07 3.28a27.7 27.7 0 0 0 13.78-4.82c2.55-1.68 7.16-2.35 10.46-2.54s7.64-1.83 8.36-3.38-.11-4.2-.11-4.2Z" style="fill:#263238"/><path d="M302.25 402.68c-1.47 2.84-4.8 4.29-7.45 5.75-1.18.65-2.52 1.21-3.74 1.81-1.6.79-3.32 1.07-4.95 1.72a28.4 28.4 0 0 0-5.31 2.59c-2.61 1.76-2.95 6.19 0 7.94 2.57 1.51 9.34 3.15 16.44 1.14 3.86-1.1 10.12-5.58 15.19-6 3.23-.25 9.33-1.16 11.41-3.61.66-3.56-.26-4.53-1.1-7.51-.4-1.41-.41-2.88-.75-4.29a1.55 1.55 0 0 0-.6-1.12 3.4 3.4 0 0 0-1.12-.5l-.1 1.61s-.23.75-2 1.78a7.7 7.7 0 0 0-2.9 2.87 3.3 3.3 0 0 1-.68 1 .86.86 0 0 1-1.08.07 1.29 1.29 0 0 1-.2-1.13 25 25 0 0 0 .18-2.72 1.06 1.06 0 0 0-.07-.47.9.9 0 0 0-.31-.31c-2.06-1.5-6.64-1.62-9.17-1.92a1.57 1.57 0 0 0-1 .1 1.87 1.87 0 0 0-.58.88c0 .09-.05.21-.11.32" style="fill:#37474f"/><path d="M322.3 404.37a20 20 0 0 0 .47 2.16c.84 3 1.76 4 1.1 7.51-1.6 1.88-5.56 2.85-8.78 3.32-1.09-6.1 2.72-10.66 7.21-12.99m-41.62 9.95a24.4 24.4 0 0 1 4.7-2.06c8.22.87 11 8.2 10.54 11.71-6.49 1.78-12.75.12-15.16-1.29-2.98-1.75-2.7-6.6-.08-8.36m72.98-168.25c.8 24.06 2.25 40.9 2.15 85.19a197 197 0 0 1 2.32 24.22c.31 11.08-.23 40.06-.23 40.06s-8.68 3.09-16.5 0c0 0-7.49-42.56-9.88-58-2.1-13.58-4.86-36.69-4.86-36.69l-2.48 31.63a95.3 95.3 0 0 1 1.31 22.71c-.51 7.27-4.09 38.89-4.09 38.89s-9.38 3.08-18.14-1.58c0 0-3.46-54.35-3.59-60.94-.14-7.5 2.21-92 2.21-92Z" style="fill:#455a64"/><path d="m326.66 300.88-2.86-25.71s-9.48-1.18-14.94-6.69c0 0 0 5.59 11.47 9.85l4 20.71-.16 33.47Z" style="fill:#37474f"/><path d="M316.41 184.1c-5.47-.06-11.66 1.13-14.6 5.49-3.9 5.78-11.09 28.69-13.12 40-.56 3.1 14 9.09 14 9.09l7.53-20.61Z" style="fill:#e0e0e0"/><path d="M304.92 202.5c1.08-7.72 2.08-18.11 14.08-18.58l15.56-.75c3.81 1 23.89 7.89 23.89 7.89l-5.13 29.85s.09 26.37-.2 39.3c-11.06 7-38.35 5.17-50-1.87-.51-10.67.75-48.19 1.8-55.84" style="fill:#fafafa"/><path d="M309.93 263.37v3.74s-4.09 0-8.61-3.74l-.11-4.6Z" style="fill:#37474f"/><path d="M302.22 211.92c.41-9.78 2-18.23 5.64-22.83s5.88-5.9 14.52-5.76v1a6.26 6.26 0 0 0-3.55 2.71c-1.51 2.43-3 6.45-4.83 13.44-2.5 9.51-3.94 30.8-4.07 42.24s0 20.65 0 20.65-6.92-1.7-8.72-4.6c-1.6-4.29.12-5.23.1-8-.12-12.92.6-31.68.91-38.85" style="fill:#10b981"/><path d="M302.22 211.92c.41-9.78 2-18.23 5.64-22.83s5.88-5.9 14.52-5.76v1a6.26 6.26 0 0 0-3.55 2.71c-1.51 2.43-3 6.45-4.83 13.44-2.5 9.51-3.94 30.8-4.07 42.24s0 20.65 0 20.65-6.92-1.7-8.72-4.6c-1.6-4.29.12-5.23.1-8-.12-12.92.6-31.68.91-38.85" style="opacity:.30000000000000004"/><path d="M354.45 260.91a25.3 25.3 0 0 1 .27 4.45c-.2 1.06-1.25 1.75-5.6 3.12-4.73 1.49-14.15 2.27-18.11.88l-.48-4.5Z" style="fill:#37474f"/><path d="M333.21 200.07c1.23-5.22 4.72-10.9 4.83-16l20.36 6.81c4 1.83 5.17 4 4.78 8.32l-7.47 30.41s-1.6 19-1.66 22.06 2.52 4.85.75 8.69c-6.55 7.11-24.27 4.47-24.27 4.47s-.28-10.94.31-37.33c.33-14.76.8-20.79 2.37-27.43" style="fill:#10b981"/><path d="M333.21 200.07c1.23-5.22 4.72-10.9 4.83-16l20.36 6.81c4 1.83 5.17 4 4.78 8.32l-7.47 30.41s-1.6 19-1.66 22.06 2.52 4.85.75 8.69c-6.55 7.11-24.27 4.47-24.27 4.47s-.28-10.94.31-37.33c.33-14.76.8-20.79 2.37-27.43" style="opacity:.30000000000000004"/><path d="m280.09 219.93 1.16-1.05a1.34 1.34 0 0 1 1.21-.17l12.88 3.2a4.72 4.72 0 0 1 2.94 2.62l9.81 26.37a1.23 1.23 0 0 1-.14 1.36l-1.2 1.08a1.36 1.36 0 0 1-1.22.17l-12.88-3.19a4.73 4.73 0 0 1-2.94-2.63c-1.92-5.18-7.88-21.19-9.81-26.37a1.17 1.17 0 0 1 .19-1.39" style="fill:#455a64"/><path d="M295.57 223.69a4.57 4.57 0 0 1 1.53 1.92l9.81 26.39a1.29 1.29 0 0 1-.1 1.34l1.13-1a1.21 1.21 0 0 0 .15-1.36l-9.82-26.38a4.35 4.35 0 0 0-1.41-1.81Z" style="fill:#263238"/><path d="m306.91 252-9.82-26.37a4.69 4.69 0 0 0-2.93-2.63l-12.88-3.19c-1.2-.3-1.82.4-1.39 1.55 1.93 5.18 7.89 21.19 9.81 26.37a4.73 4.73 0 0 0 2.94 2.63l12.88 3.19c1.19.27 1.81-.42 1.39-1.55" style="fill:#37474f"/><path d="M283.07 229.88c-2.26-.48-3.44 2-3 6.12s3.48 11.63 9.73 9.23c2.43-.93 3.91-5.2 1.17-6.86a42.5 42.5 0 0 1-6.42-4.42Z" style="fill:#9a4a4d"/><path d="M358.24 249.22c2-7.06 6.78-19.62 8.88-33.35 2.66-17.43-2.92-21.33-11.71-25.84-8.54 8.7-8.55 27.45-8.55 27.45s-4.21 21.2-5 25.25c-7.31-.42-27.82-4.07-30.31-5.18-1.28-.58-2.78-2.44-3.66-3.43a9.3 9.3 0 0 0-3.42-2.7c-1.7-.75-3.1-1.17-4.31-1.72l2 5.5c-.11.34-.84.47-1.18.6a20.3 20.3 0 0 1-7.69 1.52c-5.5 0-10.9-3.62-9.49 1.16.56 1.9 1.61 5.47 4.69 7.71s13.8 2.57 16.89 3.75c0 0 26.81 9.34 37.27 10.29 12.14 1.09 12.49.16 15.59-11.01" style="fill:#b16668"/><path d="M354.14 189.48c5.46 1.63 9.72 3.11 12.56 8.24s2.42 10.35.85 19.8-7.57 29-9.87 35.79c-1.68 5-2.78 8.76-12.91 7.6s-27.46-6.55-27.46-6.55l2.14-14.92 21.82 2.7s3.78-21.08 4.69-26.33.04-14.81 8.18-26.33" style="fill:#ebebeb"/><path d="M341.27 242.14a10.79 10.79 0 0 1 6.26 7.66s1.67-6.37-5.81-10.18Z" style="fill:#e0e0e0"/><path d="M340.69 144.5a8.63 8.63 0 0 1 6.72-.73 3.71 3.71 0 0 1 2.45 2.61 25 25 0 0 1 0 2.84 9.9 9.9 0 0 0 1.32 3.37 4.32 4.32 0 0 1 .47 3.5c-.37.86-1.16 1.16-1.23 2.14a18.6 18.6 0 0 0 .51 3.39 6.21 6.21 0 0 1-2.64 5.75c-.8.54-1.71.88-2.53 1.38a4.7 4.7 0 0 0-1.93 2.71 8.42 8.42 0 0 1-5.81 4.73l.23-7.44.3-5.18s-3.3-4.56-3.64-8.29c-.44-4.79.58-6.75.58-6.75 1.65-1.26 3.32-2.99 5.2-4.03" style="fill:#37474f"/><path d="M335.78 153a13.89 13.89 0 1 1-13.76-14 13.89 13.89 0 0 1 13.76 14" style="fill:#37474f"/><path d="M344.61 170.85a4.09 4.09 0 0 1-4.7-.82l-.59 15.89a12.23 12.23 0 0 1-5.59 5.34c-3.82 1.65-8.66 2.41-11.84 1.2s-4.87-3.71-.25-7.62l.16-4.71a28 28 0 0 1-5.39-.06c-3.41-.56-5.54-3.28-6.54-7-1.6-6-1.14-14.87 1.22-26.38 3.84-2.94 16.39-3.32 24.39 1.82-.44 6.79.6 9.14.84 10.16s1.53 3.72 2.4 3.86c1.63.26 1.9-1.51 2.95-2.6a4.46 4.46 0 0 1 6.73 1.91c1.69 3.7-1.4 8.16-3.79 9.01" style="fill:#b16668"/><path d="M321.8 180.13c5.45-.5 12.22-3 14-5.46a18.5 18.5 0 0 0 2.4-4.51s-.23 4.29-1.57 6.46-6.38 5.83-14.91 6.35Z" style="fill:#9a4a4d"/><path d="M331.54 211.08c1.4-5.53 3.24-15 5.22-14.18 2.9 1.27 4 2.5 5.11.73a39 39 0 0 0 2.74-6.72 44 44 0 0 0 1.41-4.52 39 39 0 0 0-3.42-4c-1.49-1.39-1.8-1.75-3.06-1.85l-.12 2.3s-.81 1.79-4.38 4.19-2.86 9.87-3.5 24.05m-18.78-4.46c-.06-8.22 1.35-14-.58-13.41s-2.6.69-2.65-.34 2.59-5.83 4.35-7.78a10.88 10.88 0 0 1 7.87-4l-.11 3.78a13 13 0 0 0-2.51 3.93 135 135 0 0 0-6.37 17.82M309 137.43v-.05c.68-1 .25-2.41.54-3.61a3.65 3.65 0 0 1 2.6-2.53 5.63 5.63 0 0 1 3.72.38c1.31.57 2.68 1.53 4 1.06 1-.37 1.62-1.47 2.49-2.16a4.87 4.87 0 0 1 3.68-.84 14.7 14.7 0 0 1 3.68 1.19 8.4 8.4 0 0 0 2.83 1.07c.94 0 1.93-.48 2.91-.48a5.22 5.22 0 0 1 4.71 3.23 9.7 9.7 0 0 0 .9 2.26 11.4 11.4 0 0 0 2.1 1.66 4.43 4.43 0 0 1 1.35 4.61c-.68 2.14-3.75 4-5.94 3.2a3.44 3.44 0 0 1-6.14 1.69 4.33 4.33 0 0 1-3.45 2.25 4.76 4.76 0 0 1-4.5-2.1c.14 1.4-1.26 2.46-2.59 2.92a6.6 6.6 0 0 1-2.68.43 19 19 0 0 1-2.45-.75 9 9 0 0 0-2.41 0 4.21 4.21 0 0 1-3.71-1.35c-.61-.84-.74-2-1.59-2.62-.42-.28-.93-.37-1.37-.61a2.87 2.87 0 0 1-1.32-1.81 6.8 6.8 0 0 1-.12-2.29 5.57 5.57 0 0 1 1.54-3.7 7.5 7.5 0 0 0 1.22-1.05" style="fill:#37474f"/><path d="M323.85 160.6a1.54 1.54 0 0 0 1.51 1.6 1.59 1.59 0 1 0-1.51-1.6m1.49-6.98 3.42 1.49a2 2 0 0 0-1-2.52 1.82 1.82 0 0 0-2.42 1.03m-13.55 1.18 3.65-.91a1.8 1.8 0 0 0-2.21-1.4 2 2 0 0 0-1.44 2.31m-.17 5.45a1.53 1.53 0 1 0 1.54-1.58 1.56 1.56 0 0 0-1.54 1.58" style="fill:#263238"/><path d="m332.7 154.91 11.76 4.19a3.85 3.85 0 0 0-3.39 1.56l-8.33-3.16Z" style="fill:#455a64"/><path d="M304.8 155.76a3.2 3.2 0 0 0 .75 1.66 1.5 1.5 0 0 1 .29.59 30 30 0 0 0 1.05 4.48 5 5 0 0 0 4.82 3.18 6.4 6.4 0 0 0 1.64-.14h.12a4.8 4.8 0 0 0 1.34-.53h.07l.12-.07.14-.1.13-.1a2 2 0 0 0 .15-.12.8.8 0 0 0 .14-.12l.26-.26a6.5 6.5 0 0 0 1.07-1.7c.69-1.57.51-3.76 1.66-4h.28c1.56 0 1.38 2.41 2.25 4.11a5.82 5.82 0 0 0 5.68 3.42h.79a6 6 0 0 0 .81-.11l.25-.06.25-.07.15-.05a4.4 4.4 0 0 0 .92-.43l.3-.2a6 6 0 0 0 .53-.47 5.3 5.3 0 0 0 1-1.58 27.4 27.4 0 0 0 .92-4.44 1.9 1.9 0 0 1 .26-.65 3 3 0 0 0 .76-1.6 1.37 1.37 0 0 0-.94-1.4l-.83-.11c-2.66-.32-6.13-.47-8.2.1-2.61.71-3.51 1.54-5 1.52s-2.24-.9-4.71-1.7a22.2 22.2 0 0 0-7.69-.39l-.77.08c-.36-.09-.81.55-.76 1.26m17.13 1.63a2.3 2.3 0 0 1 .74-.6l.13-.08h.08l.36-.17.34-.14a10 10 0 0 1 1.11-.35l.45-.1a11 11 0 0 1 1.14-.18h.27c2.5-.21 4.07.38 4.64.9s.32 2.85.08 4v.18l-.11.48c0 .09-.05.19-.08.29a5 5 0 0 1-.16.49 1 1 0 0 0-.07.16l-.05.11-.05.11-.07.14-.08.15-.1.17-.11.17a4 4 0 0 1-3.51 1.65 4.87 4.87 0 0 1-3.7-1.41 5.26 5.26 0 0 1-1.21-2.38c-.35-1.34-.53-2.87-.04-3.59m-14.74-1.22a1.9 1.9 0 0 1 .61-.39h.05a2 2 0 0 1 .27-.11l.16-.05h.36a5 5 0 0 1 .58-.09h1.31c.36 0 .74.05 1.16.11 1.78.26 3.65 1.09 4.14 1.82s.38 2.26.14 3.57a5 5 0 0 1-.22.88v.21a1 1 0 0 1-.05.11l-.09.22-.09.18a.3.3 0 0 0 0 .07l-.07.12-.07.11a3.93 3.93 0 0 1-3.72 1.7 4.6 4.6 0 0 1-1.88-.45c-1.78-.91-2.23-2.9-2.44-3.83-.34-1.35-.68-3.67-.15-4.18" style="fill:#455a64"/><path d="m313.15 165.89 5.51 1.41.89-8.62a1.07 1.07 0 0 0-.72-.25h-.28a.67.67 0 0 0-.32.14 1 1 0 0 0-.21.18 15.7 15.7 0 0 0-2 2 16.2 16.2 0 0 0-2.11 3.23 13 13 0 0 0-.66 1.53 4 4 0 0 0-.1.38m11.49 3.59-6.39 1.36a3.21 3.21 0 0 0 3.81 2.62 3.42 3.42 0 0 0 2.58-3.98" style="fill:#9a4a4d"/><path d="M323.87 170.52a3.5 3.5 0 0 1 .79 0 3.37 3.37 0 0 1-2.6 2.93 3.1 3.1 0 0 1-1.05 0 3 3 0 0 1 2.86-2.93" style="fill:#f28f8f"/></svg>