<svg xmlns="http://www.w3.org/2000/svg" viewBox="0 0 500 500"><ellipse cx="250" cy="343.69" rx="238.85" ry="147.47" style="fill:#f5f5f5"/><ellipse cx="412.88" cy="315.95" rx="51.59" ry="29.79" style="fill:#e6e6e6"/><ellipse cx="329.71" cy="417.03" rx="60.03" ry="34.66" style="fill:#e6e6e6"/><path d="M75 100.62a1.6 1.6 0 0 1-.31 0l-3.09-.48a1.7 1.7 0 0 1-1.4-2.21l1.69-5.71a1.3 1.3 0 0 0-.44-1.22 11 11 0 0 1-.92-1 .5.5 0 0 0-.7-.14L66 92.8a1.41 1.41 0 0 1-2.35-.8l-1-4.37a3.12 3.12 0 0 1 .71-2.67l3.8-4a3 3 0 0 0 .67-1.63 30 30 0 0 1 .32-3 .8.8 0 0 0-.47-.83l-2.44-.86a1.84 1.84 0 0 1-1.07-1 1.8 1.8 0 0 1-.06-1.44l2.35-6.37a2.55 2.55 0 0 1 2.25-1.6h2.94a1.68 1.68 0 0 0 1.22-.73c.62-1.05 1.28-2.06 2-3a2.7 2.7 0 0 0 .44-1.66l-.55-4.32a3.2 3.2 0 0 1 1-2.6L80 48a1.44 1.44 0 0 1 2.41.59l1.26 3.35a.33.33 0 0 0 .19.22.44.44 0 0 0 .35 0 16 16 0 0 1 1.92-.78 2.32 2.32 0 0 0 1.23-1l2.51-5.65a2.33 2.33 0 0 1 2.4-1.31l3.1.47A1.71 1.71 0 0 1 96.73 46L95 51.7a1.32 1.32 0 0 0 .41 1.19 8 8 0 0 1 .92 1 .5.5 0 0 0 .7.14l3.87-2.93a1.41 1.41 0 0 1 2.32.83l1 4.36a3.14 3.14 0 0 1-.72 2.68l-3.8 4a3.1 3.1 0 0 0-.67 1.63 25 25 0 0 1-.32 3.06.8.8 0 0 0 .48.83l2.43.85a1.86 1.86 0 0 1 1.14 2.41l-2.35 6.37a2.56 2.56 0 0 1-2.25 1.6h-3a1.68 1.68 0 0 0-1.21.73c-.62 1-1.28 2-2 3a2.83 2.83 0 0 0-.44 1.66l.56 4.32a3.27 3.27 0 0 1-1 2.6l-4.33 3.89a1.45 1.45 0 0 1-2.42-.59L83.27 92a.34.34 0 0 0-.2-.22.44.44 0 0 0-.35 0 15.5 15.5 0 0 1-1.92.78 2.32 2.32 0 0 0-1.23 1l-2.5 5.65a2.38 2.38 0 0 1-2.07 1.41M70.1 88.4a1.93 1.93 0 0 1 1.5.75 7 7 0 0 0 .79.84 2.68 2.68 0 0 1 .79 2.59l-1.69 5.72a.34.34 0 0 0 0 .3.38.38 0 0 0 .27.16l3.09.48a1 1 0 0 0 .94-.52l2.51-5.65a3.65 3.65 0 0 1 2.06-1.79 12.6 12.6 0 0 0 1.75-.71 1.83 1.83 0 0 1 1.45-.07 1.69 1.69 0 0 1 1 1l1.26 3.35c0 .09.07.13.08.13a.34.34 0 0 0 .13-.08l4.32-3.9a1.9 1.9 0 0 0 .52-1.4l-.56-4.33a4.06 4.06 0 0 1 .7-2.64c.66-.91 1.3-1.88 1.89-2.89a3.06 3.06 0 0 1 2.38-1.4l2.94-.05a1.21 1.21 0 0 0 1-.7l2.35-6.37a.49.49 0 0 0-.3-.64l-2.44-.85a2.17 2.17 0 0 1-1.37-2.34 27 27 0 0 0 .3-2.91 4.33 4.33 0 0 1 1-2.51l3.8-4a1.73 1.73 0 0 0 .37-1.4l-1-4.37v-.12a1 1 0 0 0-.11.07l-3.92 2.96a1.85 1.85 0 0 1-2.6-.37 7 7 0 0 0-.78-.84 2.67 2.67 0 0 1-.79-2.59l1.69-5.72a.38.38 0 0 0 0-.3.34.34 0 0 0-.27-.16L92 44.65a1 1 0 0 0-.94.52l-2.5 5.64a3.7 3.7 0 0 1-2.06 1.8 13 13 0 0 0-1.75.7 1.78 1.78 0 0 1-1.46.08 1.72 1.72 0 0 1-1-1L81.1 49c0-.09-.08-.13-.09-.13a.3.3 0 0 0-.13.08l-4.33 3.89a1.9 1.9 0 0 0-.51 1.4l.56 4.33a4.2 4.2 0 0 1-.7 2.64c-.67.91-1.3 1.88-1.9 2.89a3 3 0 0 1-2.38 1.4h-2.94a1.2 1.2 0 0 0-1 .7l-2.36 6.37a.5.5 0 0 0 0 .38.53.53 0 0 0 .29.26l2.43.85a2.18 2.18 0 0 1 1.38 2.34 27 27 0 0 0-.31 2.91 4.4 4.4 0 0 1-1 2.51l-3.8 4a1.77 1.77 0 0 0-.38 1.4L65 91.65a.5.5 0 0 0 0 .12 1 1 0 0 0 .11-.07L69 88.77a1.8 1.8 0 0 1 1.1-.37m9.7-3.73a5.5 5.5 0 0 1-1.63-.24c-1.92-.6-3.29-2.26-3.88-4.69-1.29-5.35 1.61-13.25 6.46-17.61 2.7-2.43 5.61-3.41 8-2.67a6 6 0 0 1 3.88 4.69C93.9 69.5 91 77.4 86.15 81.76a9.9 9.9 0 0 1-6.35 2.91m7.3-24.08a8.58 8.58 0 0 0-5.43 2.56c-4.52 4.06-7.23 11.36-6 16.27.48 2 1.5 3.25 3 3.7 1.9.58 4.32-.28 6.66-2.38 4.51-4.06 7.22-11.36 6-16.27-.47-2-1.5-3.25-3-3.7a4.1 4.1 0 0 0-1.23-.18M118 74.65h-.22l-2.05-.32a1.28 1.28 0 0 1-.88-.57 1.3 1.3 0 0 1-.14-1l1.13-3.79a.81.81 0 0 0-.24-.68 8 8 0 0 1-.63-.67c0-.07-.19-.17-.31-.08l-2.57 2a1.09 1.09 0 0 1-1 .19 1.07 1.07 0 0 1-.68-.8l-.7-2.9a2.19 2.19 0 0 1 .51-1.88l2.52-2.64a1.93 1.93 0 0 0 .41-1 18 18 0 0 1 .22-2 .42.42 0 0 0-.25-.43l-1.62-.57a1.35 1.35 0 0 1-.82-1.74l1.57-4.23a1.8 1.8 0 0 1 1.59-1.13h2a1 1 0 0 0 .72-.43 23 23 0 0 1 1.32-2 1.74 1.74 0 0 0 .27-1l-.37-2.87a2.29 2.29 0 0 1 .67-1.82l2.88-2.58a1.09 1.09 0 0 1 1-.29 1.13 1.13 0 0 1 .77.72l.83 2.23c.11.1.16.09.21.06a11 11 0 0 1 1.29-.52 1.43 1.43 0 0 0 .75-.63l1.67-3.75a1.64 1.64 0 0 1 1.71-.94l2.06.32a1.24 1.24 0 0 1 1 1.6l-1.12 3.8a.76.76 0 0 0 .24.68 5 5 0 0 1 .62.67.23.23 0 0 0 .32.07l2.56-1.94a1.12 1.12 0 0 1 1-.2 1.13 1.13 0 0 1 .68.81l.69 2.9a2.17 2.17 0 0 1-.5 1.87l-2.52 2.65a2 2 0 0 0-.42 1 19 19 0 0 1-.21 2 .42.42 0 0 0 .24.43l1.62.56a1.38 1.38 0 0 1 .78.7 1.34 1.34 0 0 1 0 1l-1.56 4.23a1.79 1.79 0 0 1-1.59 1.13h-2a1 1 0 0 0-.72.43c-.4.69-.85 1.36-1.31 2a1.74 1.74 0 0 0-.28 1l.37 2.88a2.26 2.26 0 0 1-.67 1.81L126 71.52a1.06 1.06 0 0 1-1.78-.44l-.84-2.22c-.11-.1-.16-.09-.21-.07a10 10 0 0 1-1.29.53 1.4 1.4 0 0 0-.75.63l-1.63 3.75a1.67 1.67 0 0 1-1.5.95m-3.23-8.33a1.39 1.39 0 0 1 1.08.54 5 5 0 0 0 .51.55 1.89 1.89 0 0 1 .56 1.83L115.8 73l.11.17 2 .32a.52.52 0 0 0 .51-.28l1.67-3.75a2.55 2.55 0 0 1 1.43-1.25 8.4 8.4 0 0 0 1.15-.46 1.26 1.26 0 0 1 1.76.68l.83 2.23 2.85-2.59a1.23 1.23 0 0 0 .31-.84l-.38-2.87a2.85 2.85 0 0 1 .49-1.83c.44-.61.86-1.25 1.25-1.91a2.14 2.14 0 0 1 1.67-1h2a.72.72 0 0 0 .55-.39l1.57-4.23a.24.24 0 0 0 0-.17.25.25 0 0 0-.13-.11l-1.62-.57a1.53 1.53 0 0 1-1-1.67 19 19 0 0 0 .2-1.92 3.1 3.1 0 0 1 .72-1.74l2.52-2.65a1 1 0 0 0 .23-.83l-.7-2.9-2.5 2a1.34 1.34 0 0 1-1.88-.27 7 7 0 0 0-.5-.54 1.87 1.87 0 0 1-.56-1.83l1.12-3.8v-.14h-.14l-2-.32a.52.52 0 0 0-.51.28l-1.66 3.75a2.57 2.57 0 0 1-1.44 1.25 11 11 0 0 0-1.15.47 1.33 1.33 0 0 1-1 .05 1.2 1.2 0 0 1-.7-.74l-.87-2.28-2.84 2.59a1.16 1.16 0 0 0-.31.83l.37 2.88a2.86 2.86 0 0 1-.48 1.83 23 23 0 0 0-1.26 1.91 2.16 2.16 0 0 1-1.67 1h-2a.72.72 0 0 0-.56.39L111.72 56a.19.19 0 0 0 0 .17.22.22 0 0 0 .13.12l1.62.57a1.55 1.55 0 0 1 1 1.67 16 16 0 0 0-.2 1.92 3 3 0 0 1-.73 1.73L111 64.83a1.08 1.08 0 0 0-.22.83l.69 2.9 2.51-2a1.3 1.3 0 0 1 .8-.24Zm6.44-2.26a3.7 3.7 0 0 1-1.11-.16 4.11 4.11 0 0 1-2.65-3.19c-.87-3.59 1.07-8.89 4.32-11.81 1.82-1.64 3.79-2.29 5.4-1.79a4.1 4.1 0 0 1 2.66 3.19c.86 3.59-1.08 8.88-4.33 11.8a6.67 6.67 0 0 1-4.28 1.96Zm4.85-16a5.58 5.58 0 0 0-3.53 1.67c-3 2.67-4.77 7.48-4 10.7a3 3 0 0 0 1.89 2.38c1.22.38 2.8-.19 4.32-1.56 3-2.67 4.76-7.47 4-10.7a3 3 0 0 0-1.89-2.37 2.5 2.5 0 0 0-.78-.11Zm130.51 315.08h-.3l-3.09-.48a1.7 1.7 0 0 1-1.4-2.21l1.69-5.71a1.37 1.37 0 0 0-.41-1.2 8.5 8.5 0 0 1-.92-1 .51.51 0 0 0-.7-.15l-3.87 2.93a1.41 1.41 0 0 1-2.32-.83l-1.05-4.36a3.13 3.13 0 0 1 .72-2.67l3.8-4a3.1 3.1 0 0 0 .67-1.63 25 25 0 0 1 .32-3.06.81.81 0 0 0-.48-.83l-2.43-.85a1.86 1.86 0 0 1-1.14-2.41l2.35-6.37a2.58 2.58 0 0 1 2.25-1.6l3-.05a1.67 1.67 0 0 0 1.21-.72c.62-1.05 1.29-2.06 2-3a2.8 2.8 0 0 0 .44-1.65l-.56-4.33a3.25 3.25 0 0 1 1-2.59l4.33-3.89a1.53 1.53 0 0 1 1.38-.4 1.51 1.51 0 0 1 1 1l1.25 3.35a.4.4 0 0 0 .2.22.41.41 0 0 0 .35 0 14 14 0 0 1 1.92-.77 2.38 2.38 0 0 0 1.23-1.05l2.5-5.64a2.35 2.35 0 0 1 2.41-1.32l3.09.48a1.7 1.7 0 0 1 1.4 2.21l-1.69 5.71a1.34 1.34 0 0 0 .4 1.2 10 10 0 0 1 .93 1 .49.49 0 0 0 .7.15l3.86-2.93a1.41 1.41 0 0 1 2.32.83l1.05 4.36a3.09 3.09 0 0 1-.71 2.67l-3.8 4a3 3 0 0 0-.67 1.63 30 30 0 0 1-.32 3.06.81.81 0 0 0 .47.83l2.44.85a1.83 1.83 0 0 1 1.07 1 1.8 1.8 0 0 1 .06 1.44l-2.35 6.37a2.57 2.57 0 0 1-2.25 1.6h-2.94a1.67 1.67 0 0 0-1.22.72 36 36 0 0 1-2 3 2.66 2.66 0 0 0-.44 1.65l.56 4.33a3.22 3.22 0 0 1-1 2.59l-4.32 3.89a1.5 1.5 0 0 1-1.38.4 1.53 1.53 0 0 1-1-1l-1.26-3.35a.35.35 0 0 0-.19-.22.4.4 0 0 0-.35 0 14.5 14.5 0 0 1-1.92.77 2.34 2.34 0 0 0-1.23 1.05l-2.51 5.64a2.35 2.35 0 0 1-2.15 1.34m-4.86-12.21a1.92 1.92 0 0 1 1.5.75 8 8 0 0 0 .78.83 2.71 2.71 0 0 1 .79 2.6l-1.69 5.71a.4.4 0 0 0 0 .31.33.33 0 0 0 .26.15l3.1.48a1 1 0 0 0 .94-.51l2.5-5.65a3.68 3.68 0 0 1 2.06-1.79 14 14 0 0 0 1.75-.71 1.78 1.78 0 0 1 1.46-.07 1.73 1.73 0 0 1 1 1l1.25 3.35a.4.4 0 0 0 .09.14.5.5 0 0 0 .13-.09l4.33-3.89a1.9 1.9 0 0 0 .51-1.4l-.56-4.32a4.17 4.17 0 0 1 .7-2.64c.67-.92 1.31-1.89 1.9-2.89a3.06 3.06 0 0 1 2.38-1.41l2.94-.05a1.21 1.21 0 0 0 1-.7l2.35-6.37a.5.5 0 0 0 0-.38.55.55 0 0 0-.28-.26l-2.44-.85a2.17 2.17 0 0 1-1.38-2.34 27 27 0 0 0 .31-2.91 4.33 4.33 0 0 1 1.05-2.51l3.79-4a1.8 1.8 0 0 0 .38-1.41l-1.05-4.36a1 1 0 0 0 0-.13l-.11.07-3.87 2.93a1.84 1.84 0 0 1-2.59-.38 8 8 0 0 0-.78-.83 2.69 2.69 0 0 1-.8-2.6l1.69-5.71a.32.32 0 0 0-.29-.46l-3.09-.48a1 1 0 0 0-.94.51l-2.51 5.65a3.65 3.65 0 0 1-2.06 1.79 16 16 0 0 0-1.75.71 1.75 1.75 0 0 1-1.45.07 1.73 1.73 0 0 1-1-1l-1.26-3.35a.34.34 0 0 0-.08-.14.3.3 0 0 0-.13.09l-4.33 3.89a1.9 1.9 0 0 0-.52 1.39l.56 4.33a4 4 0 0 1-.7 2.64 34 34 0 0 0-1.89 2.9 3.09 3.09 0 0 1-2.38 1.4l-2.94.05a1.2 1.2 0 0 0-1 .69l-2.34 6.4a.5.5 0 0 0 0 .38.53.53 0 0 0 .29.26l2.44.85a2.15 2.15 0 0 1 1.37 2.33 25 25 0 0 0-.3 2.92 4.33 4.33 0 0 1-1 2.51l-3.8 4a1.76 1.76 0 0 0-.37 1.41l1.05 4.36a.3.3 0 0 0 0 .13l.11-.07 3.86-2.93a1.82 1.82 0 0 1 1.06-.39m9.69-3.74a5.5 5.5 0 0 1-1.62-.23 6 6 0 0 1-3.88-4.69c-1.29-5.35 1.6-13.25 6.46-17.61 2.7-2.44 5.61-3.41 8-2.68 1.92.6 3.29 2.26 3.88 4.69 1.29 5.35-1.61 13.25-6.46 17.62a9.9 9.9 0 0 1-6.38 2.9m7.3-24.07a8.6 8.6 0 0 0-5.43 2.56c-4.51 4.06-7.22 11.36-6 16.27a4.64 4.64 0 0 0 3 3.69c1.89.59 4.32-.28 6.65-2.37 4.52-4.07 7.23-11.37 6.05-16.28-.48-2-1.5-3.24-3-3.69a3.9 3.9 0 0 0-1.27-.18M217.66 369h-.22l-2.05-.32a1.25 1.25 0 0 1-.88-.57 1.22 1.22 0 0 1-.14-1l1.13-3.79a.81.81 0 0 0-.24-.68 8 8 0 0 1-.63-.67c-.06-.07-.19-.17-.31-.08l-2.57 1.95a1.09 1.09 0 0 1-1 .19 1.07 1.07 0 0 1-.68-.8l-.7-2.9a2.22 2.22 0 0 1 .5-1.88l2.53-2.64a2 2 0 0 0 .41-1 16 16 0 0 1 .22-2 .42.42 0 0 0-.25-.43l-1.62-.57a1.34 1.34 0 0 1-.77-.69 1.37 1.37 0 0 1-.05-1.05l1.57-4.23a1.8 1.8 0 0 1 1.59-1.13h1.95a1 1 0 0 0 .72-.43 23 23 0 0 1 1.32-2 1.74 1.74 0 0 0 .27-1l-.37-2.87a2.29 2.29 0 0 1 .67-1.82l2.88-2.58a1.12 1.12 0 0 1 1-.29 1.13 1.13 0 0 1 .77.72l.83 2.23c.11.1.16.09.21.06a11 11 0 0 1 1.29-.52 1.43 1.43 0 0 0 .75-.63l1.67-3.75a1.65 1.65 0 0 1 1.71-.94l2.06.32a1.27 1.27 0 0 1 .88.57 1.24 1.24 0 0 1 .13 1l-1.12 3.8a.76.76 0 0 0 .24.68 7 7 0 0 1 .62.67.23.23 0 0 0 .32.07l2.56-1.94a1.12 1.12 0 0 1 1-.2 1.1 1.1 0 0 1 .67.81l.7 2.9a2.19 2.19 0 0 1-.5 1.87l-2.5 2.56a1.87 1.87 0 0 0-.42 1 19 19 0 0 1-.21 2.05.42.42 0 0 0 .24.43l1.62.56a1.38 1.38 0 0 1 .78.7 1.34 1.34 0 0 1 0 1l-1.52 4.26a1.83 1.83 0 0 1-1.6 1.13h-2a1 1 0 0 0-.72.43c-.41.69-.85 1.36-1.31 2a1.74 1.74 0 0 0-.28 1l.37 2.88a2.25 2.25 0 0 1-.67 1.81l-2.87 2.59a1.13 1.13 0 0 1-1 .29 1.11 1.11 0 0 1-.76-.73l-.84-2.22c-.11-.1-.16-.09-.21-.07a10 10 0 0 1-1.29.53 1.4 1.4 0 0 0-.75.63l-1.67 3.75a1.65 1.65 0 0 1-1.46.98m-3.23-8.32a1.38 1.38 0 0 1 1.08.53 5 5 0 0 0 .51.55 1.92 1.92 0 0 1 .56 1.83l-1.13 3.79.11.17 2.05.32a.53.53 0 0 0 .51-.27l1.67-3.76a2.55 2.55 0 0 1 1.43-1.25 8.4 8.4 0 0 0 1.15-.46 1.26 1.26 0 0 1 1.76.68l.83 2.23 2.85-2.59a1.18 1.18 0 0 0 .3-.84l-.37-2.87a2.85 2.85 0 0 1 .49-1.83c.44-.61.86-1.25 1.25-1.91a2.12 2.12 0 0 1 1.67-1h2a.72.72 0 0 0 .55-.39l1.56-4.24a.24.24 0 0 0 0-.17.3.3 0 0 0-.13-.11l-1.62-.57a1.53 1.53 0 0 1-1-1.67 19 19 0 0 0 .2-1.92 3 3 0 0 1 .72-1.74l2.52-2.65a1.08 1.08 0 0 0 .23-.83l-.7-2.9-2.5 2a1.34 1.34 0 0 1-1.88-.26 4.5 4.5 0 0 0-.51-.55 1.89 1.89 0 0 1-.55-1.83l1.12-3.8v-.14h-.14l-2.05-.32a.52.52 0 0 0-.51.28l-1.67 3.75a2.52 2.52 0 0 1-1.43 1.25 11 11 0 0 0-1.15.47 1.33 1.33 0 0 1-1.05.05 1.2 1.2 0 0 1-.7-.74l-.84-2.22-2.84 2.59a1.16 1.16 0 0 0-.31.83l.37 2.88a2.92 2.92 0 0 1-.48 1.83 23 23 0 0 0-1.26 1.91 2.13 2.13 0 0 1-1.67 1h-1.95a.72.72 0 0 0-.56.39l-1.56 4.23a.19.19 0 0 0 0 .17.22.22 0 0 0 .13.12l1.62.57a1.55 1.55 0 0 1 1 1.67 16 16 0 0 0-.2 1.92 3 3 0 0 1-.73 1.73l-2.52 2.65a1.13 1.13 0 0 0-.23.83l.7 2.9 2.51-2a1.3 1.3 0 0 1 .79-.25Zm6.44-2.27a3.7 3.7 0 0 1-1.11-.16 4.09 4.09 0 0 1-2.65-3.19c-.87-3.59 1.07-8.89 4.32-11.8 1.82-1.64 3.79-2.3 5.4-1.8a4.1 4.1 0 0 1 2.66 3.19c.86 3.59-1.08 8.88-4.33 11.8a6.67 6.67 0 0 1-4.29 2Zm4.84-16a5.62 5.62 0 0 0-3.53 1.67c-3 2.68-4.76 7.48-4 10.7a3 3 0 0 0 1.89 2.38c1.22.38 2.8-.19 4.32-1.56 3-2.67 4.76-7.47 4-10.7a3 3 0 0 0-1.89-2.37 2.6 2.6 0 0 0-.79-.07Z" style="fill:#e0e0e0"/><path d="M204.3 51.19a2.35 2.35 0 0 0-1-2.21l-2.66-1.51a2.35 2.35 0 0 0-2.43.21L50.85 132.74a7.48 7.48 0 0 0-3.39 5.87v131.48a2.37 2.37 0 0 0 1 2.2l2.72 1.55a2.38 2.38 0 0 0 2.4-.24l147.33-85.06a7.5 7.5 0 0 0 3.39-5.87Z" style="fill:#10b981;opacity:.4"/><path d="M204.3 51.2v131.48a7.49 7.49 0 0 1-3.38 5.87L53.58 273.62c-1.66 1-3 .37-3.32-1.29a3 3 0 0 0 .59-.28L198.18 187a7.48 7.48 0 0 0 3.39-5.87V49.63a3 3 0 0 0-.06-.68c1.59-.59 2.79.32 2.79 2.25" style="fill:#10b981;opacity:.4"/><path d="m200.91 49.24-11.34 7-30 17.55-36.93 21.4-42.45 24.5-18.5 10.64-4.62 2.67-2.31 1.33c-.37.22-.82.45-1.12.66a6 6 0 0 0-.91.77 7 7 0 0 0-1.94 4.38v59.18l-.12 27.28c-.07 28.45-.27 16.61-.44 45.07-.18-28.46-.37-16.62-.44-45.07l-.12-27.28v-59.19a8.13 8.13 0 0 1 2.25-5.19A6.8 6.8 0 0 1 53 134c.44-.29.79-.47 1.18-.7l2.31-1.34 4.62-2.68 18.46-10.69L122 94.07l37-21.27 30.21-17.21Z" style="fill:#fff"/><g style="opacity:.5"><path d="m73.6 239.5-7.92 4.57v-92.88l7.92-4.58zm13.97-8.07L79.66 236v-92.88l7.91-4.58zm13.98-8.07-7.92 4.58v-92.89l7.92-4.57zm13.97-8.07-7.92 4.58v-92.89l7.92-4.57zm13.98-8.06-7.92 4.57v-92.89l7.92-4.57zm13.97-8.07-7.92 4.57v-92.89l7.92-4.57zm13.97-8.07-7.91 4.57v-92.88l7.91-4.58zm13.98-8.07-7.92 4.57V94.71l7.92-4.57zm13.97-8.07-7.91 4.58V86.64l7.91-4.57z" style="fill:#fff"/></g><path d="m73.09 250.07-6.44 3.72a1.76 1.76 0 0 0-.73 1.4v.15c0 .54.33.79.73.56l6.44-3.72a1.76 1.76 0 0 0 .74-1.41v-.14c0-.54-.33-.79-.74-.56M87.07 242l-6.44 3.72a1.76 1.76 0 0 0-.73 1.4v.15c0 .54.33.79.73.55l6.44-3.71a1.77 1.77 0 0 0 .74-1.41v-.14c0-.56-.33-.79-.74-.56m13.98-8.07-6.44 3.72a1.76 1.76 0 0 0-.73 1.4v.15c0 .54.33.79.73.55l6.44-3.72a1.74 1.74 0 0 0 .74-1.4v-.15c0-.54-.33-.79-.74-.55m13.95-8.07-6.44 3.71a1.79 1.79 0 0 0-.73 1.41v.14c0 .54.33.79.73.56L115 228a1.73 1.73 0 0 0 .73-1.4v-.15c.03-.58-.29-.83-.73-.59m14-8.08-6.44 3.72a1.78 1.78 0 0 0-.73 1.41v.14c0 .54.33.79.73.56l6.44-3.72a1.76 1.76 0 0 0 .73-1.4v-.15c.01-.54-.32-.79-.73-.56m14-8.07-6.44 3.72a1.73 1.73 0 0 0-.73 1.4v.17c0 .54.32.79.73.56l6.44-3.72a1.78 1.78 0 0 0 .73-1.41v-.14c-.01-.56-.34-.81-.73-.58m14-8.07-6.44 3.72a1.74 1.74 0 0 0-.74 1.4v.15c0 .54.33.79.74.55l6.44-3.71a1.79 1.79 0 0 0 .73-1.41v-.14c-.03-.55-.36-.79-.73-.56m14-8.07-6.44 3.72a1.74 1.74 0 0 0-.74 1.4v.15c0 .54.33.79.74.55l6.44-3.72a1.76 1.76 0 0 0 .73-1.4v-.15c-.05-.54-.38-.79-.73-.55m13.93-8.07-6.44 3.71a1.77 1.77 0 0 0-.74 1.41v.14c0 .54.33.79.74.56l6.44-3.72a1.76 1.76 0 0 0 .73-1.4v-.15c0-.54-.33-.79-.73-.55" style="fill:#455a64"/><path d="m65.68 223.33 7.92-4.58v20.75l-7.92 4.57zm13.98-29.47 7.91-4.57v42.14L79.66 236zm13.97-34.74 7.92-4.58v68.82l-7.92 4.58zm13.97 29.19 7.92-4.57v31.55l-7.92 4.58zm13.98-15.08 7.92-4.58v38.58l-7.92 4.57zm13.97-19.99 7.92-4.57v50.49l-7.92 4.57zm13.98 19.08 7.91-4.57v23.34l-7.91 4.57zm13.97-15.51 7.92-4.57v30.78l-7.92 4.57zm13.98-13.01 7.91-4.57v35.72l-7.91 4.58z" style="fill:#10b981"/><path d="m65.68 171.47 7.92-4.58v51.86l-7.92 4.58zm13.98 3.72 7.91-4.58v18.68l-7.91 4.57zm13.97-32.37 7.92-4.57v16.29l-7.92 4.58zm13.97 4.44 7.92-4.57v41.05l-7.92 4.57zm13.98 8.61 7.92-4.57v17.35l-7.92 4.58zm13.97-45.03 7.92-4.57v42.4l-7.92 4.57zm13.98 41.06 7.91-4.57v20.42l-7.91 4.57zm13.97-41.27 7.92-4.57v46.18l-7.92 4.57zm13.98 17.09 7.91-4.57v16.08l-7.91 4.57z" style="fill:#10b981"/><g style="opacity:.4"><path d="m65.68 171.47 7.92-4.58v51.86l-7.92 4.58zm13.98 3.72 7.91-4.58v18.68l-7.91 4.57zm13.97-32.37 7.92-4.57v16.29l-7.92 4.58zm13.97 4.44 7.92-4.57v41.05l-7.92 4.57zm13.98 8.61 7.92-4.57v17.35l-7.92 4.58zm13.97-45.03 7.92-4.57v42.4l-7.92 4.57zm13.98 41.06 7.91-4.57v20.42l-7.91 4.57zm13.97-41.27 7.92-4.57v46.18l-7.92 4.57zm13.98 17.09 7.91-4.57v16.08l-7.91 4.57z" style="fill:#fff"/></g><path d="m136.5 246.24.2-.05Zm1.16-.13h.2ZM50.53 387a.8.8 0 0 1-.08-.16 1 1 0 0 0 .08.16m.75.78-.16-.09Zm1.66.02-.23.06Zm85.21-141.54.18.1ZM50.86 387.47l-.13-.13Zm.91.47-.19-.05Zm-1.47-1.52v-.15c0-.06-.01.1 0 .15M138.89 247a1.3 1.3 0 0 1 .11.2 2 2 0 0 0-.11-.2m.35 87.18a7.27 7.27 0 0 1-1.48 4.1 7.3 7.3 0 0 0 1.49-4.1v-85.69a.3.3 0 0 0 0-.09.3.3 0 0 1 0 .09Zm-.12-86.62.06.23Zm-.56-1 .15.15Z" style="fill:#455a64"/><path d="M51.12 387.69a1.4 1.4 0 0 1-.26-.22 1.4 1.4 0 0 0 .26.22m88.06-139.9a4 4 0 0 1 0 .61 4 4 0 0 0 0-.61m-3.32 92.26-82.28 47.46a4 4 0 0 1-.64.29 4.5 4.5 0 0 0 .65-.29l82.27-47.45a6.5 6.5 0 0 0 1.9-1.78 6.3 6.3 0 0 1-1.9 1.77m-83.15 47.81a3 3 0 0 1-.38.09 3 3 0 0 0 .38-.09m-1.98-.52a2.4 2.4 0 0 1-.2-.31 2.4 2.4 0 0 0 .2.31m.85.55a1.3 1.3 0 0 1-.3-.11 1.3 1.3 0 0 0 .3.11m.52.11h-.33a2 2 0 0 0 .33 0M139 247.19a3 3 0 0 1 .12.37 3 3 0 0 0-.12-.37m-2.3-1a2 2 0 0 1 .41-.09 2 2 0 0 0-.41.09m2.01.52a2 2 0 0 1 .18.28 3 3 0 0 0-.18-.28M50.45 386.87a3 3 0 0 1-.15-.45 3 3 0 0 0 .15.45m87.41-140.72.29.11Zm-.54-.06a2 2 0 0 1 .34 0 2 2 0 0 0-.34 0m1.01.27.23.2Zm-1.88-.11h.05Z" style="fill:#37474f;opacity:.9"/><path d="M139.23 248.4a4 4 0 0 0 0-.61l-.06-.23a3 3 0 0 0-.12-.37 1.3 1.3 0 0 0-.11-.2 2 2 0 0 0-.18-.28l-.15-.15-.23-.2-.18-.1-.29-.11h-.2a2 2 0 0 0-.34 0h-.21a2 2 0 0 0-.41.09l-.2.05h-.05a4 4 0 0 0-.6.28L53.58 294a7.5 7.5 0 0 0-3.39 5.87v85.69a3.6 3.6 0 0 0 .07.68v.15a3 3 0 0 0 .15.45.8.8 0 0 0 .08.16 2.4 2.4 0 0 0 .2.31l.13.13a1.4 1.4 0 0 0 .26.22l.16.09a1.3 1.3 0 0 0 .3.11l.19.05h.56a3 3 0 0 0 .38-.09l.23-.06a4 4 0 0 0 .64-.29l82.28-47.46a6.3 6.3 0 0 0 1.9-1.77 7.27 7.27 0 0 0 1.48-4.1v-85.65a.3.3 0 0 0 .03-.09" style="fill:#455a64;opacity:.8"/><path d="m138.21 246.29-2.66-1.52a1.8 1.8 0 0 0-.93-.24 3 3 0 0 0-1.5.45l-82.28 47.45a7 7 0 0 0-2.41 2.57l2.74 1.58a6.8 6.8 0 0 1 2.42-2.58l82.26-47.46a4 4 0 0 1 .6-.28 3.4 3.4 0 0 1 .06.68v85.68a7.53 7.53 0 0 1-3.38 5.88l-79.54 45.87v3.14l82.26-47.46a7.46 7.46 0 0 0 3.39-5.87V248.5a2.32 2.32 0 0 0-1.03-2.21" style="fill:#37474f;opacity:.5"/><path d="M53.59 384.37v3.14a3.14 3.14 0 0 1-1.52.46 1.76 1.76 0 0 1-.89-.23l-2.71-1.55a2.35 2.35 0 0 1-1-2.2V298.3a7 7 0 0 1 1-3.32l2.74 1.58a6.9 6.9 0 0 0-1 3.31v85.68a5 5 0 0 0 0 .67 3 3 0 0 0 .59-.27Z" style="fill:#37474f;opacity:.9"/><path d="m135.85 246.54-68.2 40.08-8.9 5.12-4.45 2.56a6.7 6.7 0 0 0-3 3.48 5.75 5.75 0 0 0-.45 2.27v7.7l-.61 77.8-.6-77.8v-7.7a6.9 6.9 0 0 1 .53-2.73 8.7 8.7 0 0 1 1.35-2.32 6.9 6.9 0 0 1 2.15-1.74l4.45-2.58 8.88-5.19Z" style="fill:#fff;opacity:.4"/><ellipse cx="94.39" cy="318.27" rx="39.83" ry="22.53" style="fill:#10b981" transform="rotate(-66.95 94.388 318.272)"/><ellipse cx="94.39" cy="318.27" rx="39.83" ry="22.53" style="fill:#fafafa" transform="rotate(-66.95 94.388 318.272)"/><path d="M109.64 337.45c6.49-10 10.7-22.65 10.7-34.16 0-19.11-11.62-27.89-25.95-19.62v34.6Z" style="fill:#10b981"/><path d="M109.64 337.45c6.49-10 10.7-22.65 10.7-34.16 0-19.11-11.62-27.89-25.95-19.62v34.6Z" style="fill:#fff;opacity:.4"/><path d="M65.73 310.59c-.16-1.47-.65-5.79-.93-8.33-.13-1.12-.89-1.56-1.79-1l-.48.28-4.75 2.74-.48.28a4.28 4.28 0 0 0-1.79 3.1l-.93 9.4c-.06.58.19 1 .58.87a1.71 1.71 0 0 0 1-1.42l.8-8.59a.58.58 0 0 1 .24-.43c.15-.08.26 0 .24.23l-1.15 12.78 1.49-.86v8c0 .71.44 1 1 .73a2.33 2.33 0 0 0 1-1.86v-8l.85-.5v8c0 .72.44 1.05 1 .73a2.34 2.34 0 0 0 1-1.86v-8L64 316l-1.1-11.48a.56.56 0 0 1 .24-.51c.12-.08.23 0 .25.14l.79 7.66c.07.57.51.73 1 .32a2 2 0 0 0 .55-1.54m-7.51-10.27a4.63 4.63 0 0 1 1.94-3.71c1.07-.62 1.93 0 1.93 1.47a4.64 4.64 0 0 1-1.93 3.7c-1.08.62-1.94-.04-1.94-1.46m68.52 10.04a4.66 4.66 0 0 1 1.94-3.71c1.07-.62 1.94 0 1.94 1.47a4.65 4.65 0 0 1-1.94 3.7c-1.07.62-1.94-.04-1.94-1.46m4.8.9-.48.28-4.75 2.74-.49.28-.16.09a3.35 3.35 0 0 0-1.4 2.68v9.22c0 .58.35.84.78.59a1.88 1.88 0 0 0 .78-1.49v-7.91a.57.57 0 0 1 .25-.46c.13-.08.24 0 .24.18v20.26c0 .71.43 1 1 .73a2.32 2.32 0 0 0 1-1.86v-10.26a1 1 0 0 1 .43-.82c.24-.14.43 0 .43.32v10.27c0 .72.44 1 1 .74a2.36 2.36 0 0 0 1-1.87v-20.25a.56.56 0 0 1 .24-.46c.13-.08.24 0 .24.18v7.91c0 .58.35.84.78.59a1.89 1.89 0 0 0 .79-1.5v-9.22c0-1-.63-1.5-1.4-1.06Z" style="fill:#37474f"/><path d="M87.56 341.65a1.07 1.07 0 0 0-.94.58L60.37 335v-4.1a.21.21 0 0 0-.21-.21.21.21 0 0 0-.21.21v4.26a.21.21 0 0 0 .15.2l26.41 7.33a.2.2 0 0 0 0 .08 1.07 1.07 0 1 0 1.07-1.07Z" style="fill:#10b981"/><path d="M87.56 341.65a1.07 1.07 0 0 0-.94.58L60.37 335v-4.1a.21.21 0 0 0-.21-.21.21.21 0 0 0-.21.21v4.26a.21.21 0 0 0 .15.2l26.41 7.33a.2.2 0 0 0 0 .08 1.07 1.07 0 1 0 1.07-1.07Z" style="fill:#fff;opacity:.25"/><path d="m128.74 299.83-23-6.38a.14.14 0 0 0 0-.07 1.07 1.07 0 1 0-1.07 1.07 1.06 1.06 0 0 0 .94-.59l22.83 6.34v4a.22.22 0 0 0 .21.21.21.21 0 0 0 .21-.21V300a.22.22 0 0 0-.12-.17" style="fill:#37474f"/><path d="M340.14 96.53a2.35 2.35 0 0 0-1-2.21l-2.66-1.52a2.35 2.35 0 0 0-2.48.2L155.85 195.88a7.5 7.5 0 0 0-3.39 5.87v145a2.37 2.37 0 0 0 1 2.2l2.72 1.55a2.37 2.37 0 0 0 2.4-.23L336.76 247.4a7.5 7.5 0 0 0 3.39-5.87Z" style="fill:#10b981;opacity:.1"/><path d="M336.75 94.58 158.58 197.45a7.47 7.47 0 0 0-3.38 5.87v145c0 2.16 1.51 3 3.39 2L336.76 247.4a7.5 7.5 0 0 0 3.39-5.87v-145c-.01-2.16-1.52-3.04-3.4-1.95" style="fill:#10b981;opacity:.1"/><path d="M340.14 96.53v145a7.49 7.49 0 0 1-3.38 5.87L158.59 350.27c-1.67 1-3.05.38-3.34-1.28a5 5 0 0 0 .6-.28L334 245.84a7.5 7.5 0 0 0 3.39-5.87V95a3.6 3.6 0 0 0-.06-.68c1.61-.62 2.81.29 2.81 2.21" style="fill:#10b981;opacity:.15"/><path d="m336.75 94.58-75.32 43.88L226 159.18l-35.54 20.6-17.77 10.29-8.9 5.13-4.45 2.56a6.62 6.62 0 0 0-3 3.48 5.75 5.75 0 0 0-.45 2.27v38.53l-.12 41.08-.18 4.36-.27 60.86-.28-60.86-.18-4.36-.23-41.12v-38.53a6.9 6.9 0 0 1 .53-2.74 8.7 8.7 0 0 1 1.42-2.36 8.4 8.4 0 0 1 1-1 8.6 8.6 0 0 1 1.15-.75l4.45-2.58L172 189l17.81-10.24 35.6-20.48 35.68-20.37Z" style="fill:#fff"/><path d="m323.84 117.34-8.9 5.14-.66.38-8.9 5.14-.66.38-8.91 5.14-.65.38-8.91 5.1-.66.38-8.9 5.14-.66.38-8.9 5.14-.66.38-8.91 5.14-.66.38-8.43 4.88-.47.27-.66.38-8.9 5.13-.66.39-8.91 5.14-.65.38-9.57 5.52-8.9 5.14-.66.38-8 4.6-.93.54-.66.38-8.91 5.14-.66.38-8.9 5.15-.66.37-8.9 5.14-.66.38v98.74L324 216l.49-.29V117ZM180.4 298l-8.9 5.14v-13.1l8.9-5.14Zm0-14-8.9 5.14v-13.1l8.9-5.14Zm0-14-8.9 5.13v-13.1l8.9-5.13Zm0-14-8.9 5.15v-13.1l8.9-5.15Zm0-14-8.9 5.14v-13.1l8.9-5.14Zm0-14-8.9 5.13v-13.1l8.9-5.13Zm0-14-8.9 5.15v-13.1l8.9-5.15Zm9.6 78.49-8.9 5.14v-13.1l8.9-5.14Zm0-14-8.9 5.14v-13.1l8.9-5.14Zm0-14-8.9 5.14v-13.1l8.9-5.14Zm0-14-8.9 5.14v-13.1l8.9-5.14Zm0-14-8.9 5.14v-13.1l8.9-5.14Zm0-14-8.9 5.14v-13.1l8.9-5.14Zm0-14-8.9 5.13v-13.1l8.9-5.13Zm9.53 78.51-8.91 5.13V279l8.91-5.14Zm0-14-8.91 5.14V265l8.91-5.14Zm0-14-8.91 5.14v-13.1l8.91-5.14Zm0-14-8.91 5.14v-13.1l8.91-5.14Zm0-14-8.91 5.14v-13.1l8.91-5.14Zm0-14-8.91 5.14v-13.1l8.91-5.14Zm0-14-8.91 5.14v-13.1l8.91-5.14Zm9.56 78.35-8.9 5.15v-13.1l8.9-5.15Zm0-14-8.9 5.14v-13.1l8.9-5.14Zm0-14-8.9 5.14v-13.1l8.9-5.14Zm0-14-8.9 5.14v-13.1l8.9-5.14Zm0-14-8.9 5.14v-13.1l8.9-5.14Zm0-14-8.9 5.14v-13.1l8.9-5.14Zm0-14-8.9 5.14v-13.1l8.9-5.14Zm9.56 78.36-8.9 5.13V268l8.9-5.13Zm0-14-8.9 5.14V254l8.9-5.14Zm0-14-8.9 5.15V240l8.9-5.15Zm0-14-8.9 5.13V226l8.9-5.13Zm0-14-8.9 5.14v-13.1l8.9-5.14Zm0-14-8.9 5.14v-13.1l8.9-5.14Zm0-14-8.9 5.14v-13.1l8.9-5.14Zm9.57 78.35-8.91 5.15v-13.1l8.91-5.15Zm0-14-8.91 5.14v-12.73l8.91-5.14Zm0-14-8.91 5.13v-12.7l8.91-5.14Zm0-14-8.91 5.14v-13.1l8.91-5.15Zm0-14-8.91 5.14v-12.68l8.91-5.13Zm0-14-8.91 5.14v-13.1l8.91-5.14Zm0-14-8.91 5.14v-13.1l8.91-5.15Zm9.56 78.35-8.91 5.59v-13.1l8.91-5.13Zm0-14-8.91 5.14V243l8.91-5.14Zm0-14-8.91 5.15V229l8.91-5.15Zm0-14-8.91 5.13V215l8.91-5.13Zm0-14-8.91 5.14V201l8.91-5.14Zm0-14-8.91 5.15V187l8.91-5.15Zm0-14-8.91 5.13V173l8.91-5.13Zm9.56 78.35-8.9 5.15v-13.1l8.9-5.15Zm0-14-8.9 5.14v-13.1l8.9-5.14Zm0-14-8.9 5.13v-13.1l8.9-5.13Zm0-14-8.9 5.15v-13.1l8.9-5.15Zm0-14-8.9 5.14v-13.1l8.9-5.14Zm0-14-8.9 5.13v-12.38l8.9-5.14Zm0-14-8.9 5.15v-13.1l8.9-5.15Zm9.56 78.36L248 259v-13.1l8.9-5.14Zm0-14L248 245v-13.1l8.9-5.14Zm0-14L248 231v-13.1l8.9-5.15Zm0-14L248 217v-13.1l8.9-5.13Zm0-14-8.9 5.14V190l8.9-5.15Zm0-14-8.9 5.15V176l8.9-5.15Zm0-14-8.9 5.98V162l8.9-5.13Zm9.57 78.35-8.91 5.14v-13.1l8.91-5.14Zm0-14-8.91 5.14v-13.1l8.91-5.14Zm0-14-8.91 5.14V212.4l8.91-5.13Zm0-14-8.91 5.15v-13.1l8.91-5.15Zm0-14-8.91 5.14v-13.1l8.91-5.14Zm0-14-8.91 5.13v-13.1l8.91-5.13Zm0-14-8.91 5.15v-13.1l8.91-5.15ZM276 242.8l-8.9 5.14v-13.1l8.9-5.14Zm0-14-8.9 5.14v-13.1l8.9-5.14Zm0-14-8.9 5.14v-13.1l8.9-5.14Zm0-14-8.9 5.14V192.9l8.9-5.14Zm0-14-8.9 5.14v-13.1l8.9-5.14Zm0-14-8.9 5.14v-13.1l8.9-5.14Zm0-14-8.9 5.14V151l8.9-5.14Zm9.56 78.36-8.9 5.13v-13.1l8.9-5.13Zm0-14-8.9 5.14v-13.1l8.9-5.14Zm0-14-8.9 5.14v-13.1l8.9-5.14Zm0-14-8.9 5.14v-13.1l8.9-5.14Zm0-14-8.9 5.14v-12.9l8.9-5.14Zm0-14-8.9 5.14v-13.1l8.9-5.14Zm0-14-8.9 5.15v-12.87l8.9-5.14Zm9.57 78.35-8.91 5.15V223.8l8.91-5.14Zm0-14-8.91 5.14v-13.1l8.91-5.14Zm0-14-8.91 5.14v-13.1l8.91-5.14Zm0-14-8.88 5.49v-13.1l8.91-5.14Zm0-14-8.88 5.49v-13.1l8.91-5.14Zm0-14-8.88 5.49v-13.1l8.91-5.14Zm0-14-8.88 5.49v-13.1l8.91-5.14Zm9.56 78.36-8.91 5.13v-13.1l8.91-5.13Zm0-14-8.91 5.14V204.3l8.91-5.14Zm0-14-8.91 5.15v-13.1l8.91-5.15Zm0-14-8.91 5.13v-13.1l8.91-5.13Zm0-14-8.91 5.14v-13.1l8.91-5.14Zm0-14-8.91 5.14v-13.1l8.91-5.14Zm0-14-8.91 5.14V134.4l8.91-5.14Zm9.56 78.35-8.9 5.15v-13.1l8.9-5.15Zm0-14-8.9 5.15v-13.1l8.9-5.15Zm0-14-8.9 5.13v-13.1l8.9-5.13Zm0-14-8.9 5.14v-13.1l8.9-5.15Zm0-14-8.9 5.14v-13.1l8.9-5.14Zm0-14-8.9 5.14v-13.1l8.9-5.14Zm0-14-8.9 5.15v-13.1l8.9-5.15Zm9.56 78.36-8.9 5.14v-13.1l8.9-5.14Zm0-14-8.9 5.13v-12.45l8.9-5.14Zm0-14-8.9 5.15v-13.1l8.9-5.15Zm0-14-8.9 5.13v-13.1l8.9-5.13Zm0-14-8.9 5.14v-13.1l8.9-5.14Zm0-14-8.9 5.15v-13.1l8.9-5.15Zm0-14-8.9 5.13v-13.1l8.9-5.13Z" style="fill:#fff;opacity:.30000000000000004"/><path d="M324.5 215.69v-93.08l-15.36 36.01-15.37 10.63-15.37 18.33-15.36 6.07-15.37 18.44-15.37-3.15-15.36 15.18-15.37 22.51-15.37 8.87-15.36 28.34v20.57z" style="fill:#10b981"/><path d="M324.5 215.69v-93.08l-15.36 36.01-15.37 10.63-15.37 18.33-15.36 6.07-15.37 18.44-15.37-3.15-15.36 15.18-15.37 22.51-15.37 8.87-15.36 28.34v20.57z" style="fill:#fff;opacity:.7000000000000001"/><path d="M170.84 316.17a.42.42 0 0 1-.37-.21.42.42 0 0 1 .16-.57l153.66-88.72a.42.42 0 1 1 .42.73l-153.66 88.72a.5.5 0 0 1-.21.05" style="fill:#455a64"/><path d="M170.84 319.57a.42.42 0 0 1-.42-.43v-6.78a.42.42 0 0 1 .42-.42.42.42 0 0 1 .42.42v6.78a.42.42 0 0 1-.42.43m15.36-8.88a.42.42 0 0 1-.42-.42v-6.78a.43.43 0 1 1 .85 0v6.78a.42.42 0 0 1-.43.42m15.37-8.87a.42.42 0 0 1-.42-.42v-6.79a.42.42 0 1 1 .84 0v6.79a.42.42 0 0 1-.42.42m15.37-8.82a.42.42 0 0 1-.42-.42v-6.79a.42.42 0 0 1 .42-.42.42.42 0 0 1 .42.42v6.79a.42.42 0 0 1-.42.42m15.36-8.92a.42.42 0 0 1-.42-.42v-6.79a.43.43 0 0 1 .85 0v6.79a.42.42 0 0 1-.43.42m15.37-8.87a.42.42 0 0 1-.42-.43V268a.42.42 0 0 1 .84 0v6.78a.42.42 0 0 1-.42.43m15.33-8.88a.42.42 0 0 1-.42-.42v-6.78a.41.41 0 0 1 .42-.42.42.42 0 0 1 .42.42v6.78a.42.42 0 0 1-.42.42m15.4-8.87a.42.42 0 0 1-.4-.46v-6.78a.43.43 0 1 1 .85 0V257a.42.42 0 0 1-.45.46m15.37-8.87a.42.42 0 0 1-.42-.42v-6.79a.42.42 0 1 1 .84 0v6.79a.42.42 0 0 1-.42.42m15.37-8.87a.42.42 0 0 1-.43-.42v-6.79a.43.43 0 0 1 .85 0v6.79a.42.42 0 0 1-.42.42m15.36-8.87a.42.42 0 0 1-.42-.43v-6.78a.43.43 0 0 1 .85 0v6.78a.43.43 0 0 1-.43.43" style="fill:#455a64"/><path d="M324.5 215.69v-68.14l-15.36 30.65-15.37 3.86-15.37 15.88-15.36 5.09-15.37 14.58-15.37-2.32-15.36 14.88-15.37 24.44-15.37 11.29-15.36 23.74v14.77z" style="fill:#10b981"/><path d="M324.5 215.69v-68.14l-15.36 30.65-15.37 3.86-15.37 15.88-15.36 5.09-15.37 14.58-15.37-2.32-15.36 14.88-15.37 24.44-15.37 11.29-15.36 23.74v14.77z" style="fill:#fff;opacity:.4"/><path d="m170.84 304.41 153.66-88.72v-47.96l-15.79 26.95-14.94 3.44-14.94 24.2-15.79 1.34-14.86 12.73-15.88-7.5-15.36 12-15.37 25.62-15.37 8.27-15.36 19.78z" style="fill:#10b981"/><path d="m186.19 295.55 15.38-8.88v-40l-15.37 8.83Zm30.75-17.75 15.36-8.88v-60l-15.36 15.18Zm30.73-17.75 15.33-8.87v-57.53l-15.37 18.44Zm30.73-17.74 15.37-8.87v-64.19l-15.37 18.33Zm30.74-83.69v65.94l15.36-8.87v-93.08Z" style="fill:#10b981;opacity:.2"/><path d="M247.67 236.15v23.9l6.07-3.5 9.3-5.37v-27.52l-14.86 12.73Zm-61.47 38.64v20.76l15.38-8.88v-20.15l-15.37 8.26Zm30.74 3 5.12-3 10.24-5.92v-40l-15.36 12Zm92.2-83.79v30.61l15.36-8.87v-48Zm-30.74 28.4v20l15.37-8.87v-35.41l-14.94 24.2Z" style="opacity:.15"/><path d="M189.42 316.32 183 320a1.74 1.74 0 0 0-.74 1.4v.15c0 .54.33.79.74.55l6.43-3.71a1.77 1.77 0 0 0 .74-1.41v-.14c-.01-.5-.34-.75-.75-.52m15.37-8.87-6.44 3.72a1.76 1.76 0 0 0-.73 1.4v.15c0 .54.33.79.73.55l6.44-3.71a1.77 1.77 0 0 0 .73-1.41V308c0-.54-.32-.78-.73-.55m15.37-8.87-6.44 3.72a1.74 1.74 0 0 0-.74 1.4v.15c0 .54.33.79.74.55l6.44-3.72a1.76 1.76 0 0 0 .73-1.4v-.15c0-.54-.33-.79-.73-.55m15.36-8.87-6.43 3.71a1.77 1.77 0 0 0-.74 1.41v.17c0 .54.33.79.74.56l6.43-3.72a1.74 1.74 0 0 0 .74-1.4v-.15c0-.57-.33-.82-.74-.58m15.37-8.88-6.44 3.72a1.78 1.78 0 0 0-.73 1.41v.14c0 .54.33.79.73.56l6.44-3.72a1.73 1.73 0 0 0 .73-1.4v-.15c0-.54-.32-.79-.73-.56m15.37-8.83-6.44 3.72a1.74 1.74 0 0 0-.74 1.4v.15c0 .54.33.79.74.56l6.44-3.72a1.78 1.78 0 0 0 .73-1.41v-.14c.01-.56-.33-.83-.73-.56m15.36-8.91-6.44 3.72a1.76 1.76 0 0 0-.73 1.4v.15c0 .54.33.79.73.55l6.44-3.71a1.77 1.77 0 0 0 .74-1.41v-.14c0-.55-.36-.79-.74-.56m15.38-8.87-6.44 3.72a1.76 1.76 0 0 0-.73 1.4v.15c0 .54.33.79.73.55l6.44-3.72a1.73 1.73 0 0 0 .73-1.4v-.15c-.01-.54-.33-.77-.73-.55m15.36-8.87-6.44 3.71a1.77 1.77 0 0 0-.74 1.41v.14c0 .55.33.79.74.56l6.44-3.72a1.76 1.76 0 0 0 .73-1.4v-.15c0-.54-.33-.79-.73-.55" style="fill:#37474f"/><path d="M186.2 246.43a.42.42 0 0 1-.42-.42v-24.67a.43.43 0 0 1 .85 0V246a.42.42 0 0 1-.43.43" style="fill:#10b981"/><path d="M184.67 222.23a2.1 2.1 0 0 1-1.1-.29 2.8 2.8 0 0 1-1.21-2.58 7.93 7.93 0 0 1 3.63-6.3 2.5 2.5 0 0 1 4.06 2.34 7.93 7.93 0 0 1-3.63 6.3 3.55 3.55 0 0 1-1.75.53m3.06-8.85a2.7 2.7 0 0 0-1.31.41 7.11 7.11 0 0 0-3.22 5.57A1.68 1.68 0 0 0 186 221a7.09 7.09 0 0 0 3.22-5.57 2 2 0 0 0-.79-1.85 1.4 1.4 0 0 0-.7-.2m44.57-13.51a.42.42 0 0 1-.42-.42v-10.22a.43.43 0 0 1 .85 0v10.22a.42.42 0 0 1-.43.42" style="fill:#10b981"/><path d="M230.77 190.12a2.2 2.2 0 0 1-1.1-.29 2.8 2.8 0 0 1-1.21-2.58 7.92 7.92 0 0 1 3.63-6.3 2.5 2.5 0 0 1 4.06 2.34 8 8 0 0 1-3.63 6.3 3.55 3.55 0 0 1-1.75.53m3.06-8.85a2.7 2.7 0 0 0-1.31.41 7.09 7.09 0 0 0-3.22 5.57 1.68 1.68 0 0 0 2.79 1.61 7.09 7.09 0 0 0 3.22-5.57 2 2 0 0 0-.79-1.85 1.3 1.3 0 0 0-.69-.17m44.57-2.76a.42.42 0 0 1-.42-.42v-16.26a.43.43 0 0 1 .85 0v16.26a.42.42 0 0 1-.43.42" style="fill:#10b981"/><path d="M276.87 162.73a2.2 2.2 0 0 1-1.1-.29 2.8 2.8 0 0 1-1.21-2.58 7.9 7.9 0 0 1 3.63-6.3 2.5 2.5 0 0 1 4.06 2.34 7.93 7.93 0 0 1-3.64 6.3 3.5 3.5 0 0 1-1.74.53m3.06-8.85a2.67 2.67 0 0 0-1.32.41 7.11 7.11 0 0 0-3.21 5.57 1.68 1.68 0 0 0 2.79 1.61 7.09 7.09 0 0 0 3.22-5.57 2 2 0 0 0-.79-1.85 1.3 1.3 0 0 0-.69-.17" style="fill:#10b981"/><path d="M170.86 271.35a.8.8 0 0 1-.4-.11.83.83 0 0 1-.34-1.14l12.33-22.76a1 1 0 0 1 .32-.33L201 236.5l15.26-22.35.1-.12 15.37-15.18a.83.83 0 0 1 .76-.23l14.88 3 15-18a.84.84 0 0 1 .34-.25l15.16-6 15.23-18.17a.8.8 0 0 1 .17-.15l11.94-8.25L320.5 115a.85.85 0 0 1 1.11-.45.84.84 0 0 1 .44 1.11l-15.36 36a.84.84 0 0 1-.3.37l-12.05 8.32-15.29 18.25a.8.8 0 0 1-.34.24l-15.16 6-15.23 18.27a.85.85 0 0 1-.82.29l-14.92-3.06-15 14.81-15.32 22.44a.8.8 0 0 1-.28.26l-18.17 10.49-12.21 22.56a.83.83 0 0 1-.74.45" style="fill:#fff"/><path d="M322.45 122.33a.85.85 0 0 1-.85-.85v-6l-5.09 3a.85.85 0 0 1-1.15-.31.84.84 0 0 1 .3-1.15l6.36-3.7a.86.86 0 0 1 .85 0 .84.84 0 0 1 .42.73v7.51a.85.85 0 0 1-.84.77" style="fill:#fff"/><path d="m245.59 84.29-4.81-2.79 9.32-7.95 4.82 2.78zm2.97 1.83c-2.47-1.74-6.75-.42-10.37.72-.87.29-1.66.55-2.38.77a4.4 4.4 0 0 0-.35 1.68c0 2.81 2.38 2 7.55.34a38 38 0 0 1 5.35-1.41c.16 1.43 1.15 2.73 5 .69Zm-11.94 36.55-4.82-2.78v-5.69l4.82 2.79zm8.16-21.6c0 2.26-1.7 4.28-4.22 5.74-4 2.34-5.58.44-5.92-1.42l-.85-.49a9 9 0 0 0 2-.87 8.57 8.57 0 0 0 3.93-4.15c2.92-.98 5.06-1.36 5.06 1.19M226.86 115a3.2 3.2 0 0 0-1.76-.43c-.1-.29-.18-.58-.26-.9L220 110.9a6 6 0 0 0 2.7 4.12l4.81 2.78a2.26 2.26 0 0 0-.65-2.8" style="fill:#10b981"/><path d="M243 89.63c-5.17 1.7-7.55 2.47-7.55-.34a4.4 4.4 0 0 1 .35-1.68c-3.53 1.09-5.17 1.23-5.17-1.1 0-1.72 1.16-3.83 4.35-5.69 3.41-2 5.31-1.51 5.79.68l9.32-8c0-.12-.09-.23-.13-.35a6.1 6.1 0 0 0 1.65-.63l-3.84-2.29-.37-.22h-.06a6.54 6.54 0 0 0-3.66-.6 16 16 0 0 0-4.82 1.33v-.1l4.82-2.81-4.82-2.78L235.6 67l-4.42 2.57v5.69c-6.53 4.75-10.61 11-10.61 17.68 0 3.06.83 4.8 2.16 5.68h.07l.35.2 4 2.27a3 3 0 0 0-.24-1.82 23 23 0 0 0 3.78-.82c4.9-1.48 9.25-3.81 9.25-.18a4.6 4.6 0 0 1-.29 1.6c3-1 5.11-1.36 5.11 1.19 0 2.26-1.7 4.28-4.22 5.74-4 2.34-5.58.44-5.92-1.42l-.85-.49-4-2.3-9.8 8.3 4.82 2.79a8.8 8.8 0 0 0 .74 2 15.6 15.6 0 0 0 6.22-1.53v2.3l7.62-1v-5.68c6.6-4.87 11.15-11.42 11.15-18.27a9.4 9.4 0 0 0-.54-3.44 27 27 0 0 0-6.98 1.57" style="fill:#10b981"/><path d="M243 89.63c-5.17 1.7-7.55 2.47-7.55-.34a4.4 4.4 0 0 1 .35-1.68c-3.53 1.09-5.17 1.23-5.17-1.1 0-1.72 1.16-3.83 4.35-5.69 3.41-2 5.31-1.51 5.79.68l9.32-8c0-.12-.09-.23-.13-.35a6.1 6.1 0 0 0 1.65-.63l-3.84-2.29-.37-.22h-.06a6.54 6.54 0 0 0-3.66-.6 16 16 0 0 0-4.82 1.33v-.1l4.82-2.81-4.82-2.78L235.6 67l-4.42 2.57v5.69c-6.53 4.75-10.61 11-10.61 17.68 0 3.06.83 4.8 2.16 5.68h.07l.35.2 4 2.27a3 3 0 0 0-.24-1.82 23 23 0 0 0 3.78-.82c4.9-1.48 9.25-3.81 9.25-.18a4.6 4.6 0 0 1-.29 1.6c3-1 5.11-1.36 5.11 1.19 0 2.26-1.7 4.28-4.22 5.74-4 2.34-5.58.44-5.92-1.42l-.85-.49-4-2.3-9.8 8.3 4.82 2.79a8.8 8.8 0 0 0 .74 2 15.6 15.6 0 0 0 6.22-1.53v2.3l7.62-1v-5.68c6.6-4.87 11.15-11.42 11.15-18.27a9.4 9.4 0 0 0-.54-3.44 27 27 0 0 0-6.98 1.57" style="fill:#fff;opacity:.4"/><path d="M250 88.06a27 27 0 0 0-7 1.57c-5.17 1.7-7.55 2.47-7.55-.34a4.4 4.4 0 0 1 .35-1.68 9.07 9.07 0 0 1 4-4c3.41-2 5.31-1.5 5.79.69l9.32-8a5.46 5.46 0 0 0-5.41-4.15 14.5 14.5 0 0 0-5.82 1.36v-5.66l-4.82 2.81-2.86 1.66V78c-6.53 4.76-10.61 11-10.61 17.68a9.9 9.9 0 0 0 .58 3.66c1.44 3.61 5.39 3.11 9.55 1.89 1.46-.44 2.88-.95 4.15-1.36 3-1 5.11-1.36 5.11 1.19 0 2.26-1.7 4.28-4.22 5.74-4 2.34-5.58.44-5.92-1.42l-9.8 8.3a8.8 8.8 0 0 0 .74 2c1.28 2.4 3.56 3 6.22 2.7a18.5 18.5 0 0 0 4.82-1.44v5.68l7.62-4.4v-5.72c6.6-4.86 11.15-11.41 11.15-18.27 0-4.88-2.34-6.23-5.39-6.17" style="fill:#10b981"/><g style="opacity:.2"><path d="M250 88.06a27 27 0 0 0-7 1.57c-5.17 1.7-7.55 2.47-7.55-.34a4.4 4.4 0 0 1 .35-1.68 9.07 9.07 0 0 1 4-4c3.41-2 5.31-1.5 5.79.69l9.32-8a5.46 5.46 0 0 0-5.41-4.15 14.5 14.5 0 0 0-5.82 1.36v-5.66l-4.82 2.81-2.86 1.66V78c-6.53 4.76-10.61 11-10.61 17.68a9.9 9.9 0 0 0 .58 3.66c1.44 3.61 5.39 3.11 9.55 1.89 1.46-.44 2.88-.95 4.15-1.36 3-1 5.11-1.36 5.11 1.19 0 2.26-1.7 4.28-4.22 5.74-4 2.34-5.58.44-5.92-1.42l-9.8 8.3a8.8 8.8 0 0 0 .74 2c1.28 2.4 3.56 3 6.22 2.7a18.5 18.5 0 0 0 4.82-1.44v5.68l7.62-4.4v-5.72c6.6-4.86 11.15-11.41 11.15-18.27 0-4.88-2.34-6.23-5.39-6.17" style="fill:#fff"/></g><path d="m236 78.01-4.82-2.79v-5.68l4.82 2.78z" style="fill:#10b981"/><path d="m244.24 112.55.76-.55c.24-.19.53-.42.84-.7s.69-.58 1.07-.94.8-.72 1.21-1.15l.64-.66.64-.7c.23-.24.44-.49.65-.75s.43-.51.64-.78c.41-.55.83-1.09 1.2-1.68s.73-1.17 1.08-1.75.63-1.19.88-1.79.46-1.19.68-1.74l.24-.83c0-.13.08-.27.11-.4l.09-.38a13 13 0 0 0 .26-1.39 11 11 0 0 0 .13-1.09v-1 1a8 8 0 0 1-.09 1.1 12 12 0 0 1-.22 1.4l-.07.39c0 .14-.08.27-.11.4-.08.28-.15.56-.23.85-.21.56-.38 1.17-.66 1.76s-.56 1.2-.87 1.81-.68 1.21-1.08 1.78-.81 1.13-1.22 1.68c-.21.27-.44.52-.65.78s-.43.51-.65.75l-.66.7-.66.64c-.42.43-.85.79-1.24 1.14s-.76.64-1.09.91-.62.49-.87.67Z" style="fill:#fff"/><path d="M318.69 36.32c-.07-.47-.46-.64-.92-.37l-44.06 25.38a1.9 1.9 0 0 0-.66.69L269 59.67a1.85 1.85 0 0 1 .64-.66l44.06-25.38a2.09 2.09 0 0 1 1.87 0l2.21 1.26a2.1 2.1 0 0 1 .91 1.43" style="fill:#f0f0f0"/><path d="M273.71 102.91a2.06 2.06 0 0 1-1.87 0l-2.22-1.27a2 2 0 0 1-.93-1.6V60.62a1.9 1.9 0 0 1 .29-.95l4.07 2.33a1.9 1.9 0 0 0-.28.92v39.43c0 .57.39.88.94.56" style="fill:#e0e0e0"/><path d="m268.69 73.44-7.5 7.62a.83.83 0 0 0 .14 1.28c.15.1 4.06 2.38 4.06 2.38l7.38-8.89Z" style="fill:#f0f0f0"/><path d="M273.29 102.79c-.24 0-.27-.29-.27-.41V83.59l-7.09 1a.59.59 0 0 1-.6-.35.57.57 0 0 1 .12-.63l7.57-7.7v-13a1.82 1.82 0 0 1 .81-1.4l44.06-25.37a.56.56 0 0 1 .29-.1c.25 0 .27.29.27.42v39.46a1.82 1.82 0 0 1-.8 1.4l-44.07 25.38a.6.6 0 0 1-.29.09" style="fill:#fafafa"/><path d="M318.18 36.32a.4.4 0 0 1 0 .17v39.43a1.55 1.55 0 0 1-.69 1.19l-44.06 25.38c-.1.05-.16.06-.16.07a.36.36 0 0 1 0-.18V83.3l-.57.08-6.79 1h-.06a.32.32 0 0 1-.29-.21.31.31 0 0 1 .07-.36l7.5-7.62.14-.15v-13.1a1.56 1.56 0 0 1 .68-1.18L318 36.38a.34.34 0 0 1 .16-.06m0-.5a.9.9 0 0 0-.42.13l-44.03 25.38a2 2 0 0 0-.94 1.61v12.89l-7.49 7.63a.82.82 0 0 0 .57 1.4h.15l6.79-1v18.51c0 .42.21.66.52.66a.84.84 0 0 0 .42-.13l44.06-25.37a2.08 2.08 0 0 0 .93-1.62V36.49c0-.42-.21-.67-.51-.67Z" style="fill:#e0e0e0"/><path d="M279.93 69.25a1.23 1.23 0 0 1-.62-2.3l32.1-18.54a1.23 1.23 0 1 1 1.23 2.14l-32.09 18.54a1.3 1.3 0 0 1-.62.16m0 6.95a1.23 1.23 0 0 1-.62-2.3l32.1-18.54a1.23 1.23 0 1 1 1.23 2.14L280.55 76a1.27 1.27 0 0 1-.62.2m0 6.95a1.23 1.23 0 0 1-.62-2.3l32.1-18.54a1.23 1.23 0 1 1 1.23 2.14L280.55 83a1.2 1.2 0 0 1-.62.15m0 6.95a1.23 1.23 0 0 1-.62-2.3l32.1-18.54a1.23 1.23 0 1 1 1.23 2.14l-32.09 18.53a1.2 1.2 0 0 1-.62.17M166.5 410.62c-3.07-6.21-4.64-17.65-3-28.51 1.39-9.13 7.47-17.57 14.2-20 2.79-1 5-.91 6.8.78 3.1 3 1 7.67-1.7 10.81-1.21 1.38-11.59 11.05-11 25.9l.77 7.51Z" style="fill:#e0e0e0"/><path d="M167.47 407.94a.33.33 0 0 0 .16-.35c-2.49-18.15.24-30.51 10.12-38.75a.31.31 0 0 0 0-.45.33.33 0 0 0-.46 0c-10.06 8.08-13 21.05-10.29 39.35a.31.31 0 0 0 .39.23.1.1 0 0 0 .08-.03" style="fill:#fff"/><path d="M174.19 406.18c.13-2.57 2-7.94 5.68-11.69 4.61-4.68 10-6.16 11.73-9.63s-1.76-7.32-7.14-5.77c-6.47 1.87-16.11 9.65-14.23 29.38Z" style="fill:#ebebeb"/><path d="M171.74 404.77a.31.31 0 0 0 .22-.27c1.57-13.59 9-19.85 13.32-21.46a.32.32 0 0 0 .19-.41.31.31 0 0 0-.41-.19c-4.76 1.78-12.14 8.11-13.74 22a.33.33 0 0 0 .29.36.3.3 0 0 0 .13-.03" style="fill:#fff"/><path d="m101.68 439.85-6.16 3.56c-.35-18.06-12.07-31.29-17.72-38.28s2.2-11.39 8.89-8.26 12.13 11.13 14.37 21.55c1.94 8.9.94 18.76.62 21.43" style="fill:#e0e0e0"/><path d="M99.06 439.3h.08a.39.39 0 0 0 .38-.41c-.62-22.73-8.19-34.12-16.94-39.91a.4.4 0 0 0-.44.66c8.63 5.71 16 16.86 16.6 39.28a.38.38 0 0 0 .32.38" style="fill:#fff"/><path d="M68.61 419.26a5 5 0 0 0 2.12 3 5.85 5.85 0 0 1 2.27 2.96c.53 2.49-2.43 4.79-1.79 7.26a4 4 0 0 0 2.09 2.33 26 26 0 0 0 2.44 1 9 9 0 0 0 1.23.3 5.73 5.73 0 0 1 3.36 1.5c1.36 1.48 1.19 3.76 1.67 5.71.58 2.34 2 3.71 5.16 4.83L98.09 442c2.72-2.77 3.67-7.5 1.17-10.72-1.5-1.94-4.32-2.18-5.73-4.11-1.28-1.74-.54-4.24-1.32-6.24s-2.86-2.7-4.81-3-4 .47-6-.23-3.68-1.82-5.66-2.32a6.61 6.61 0 0 0-5.71 1 3.51 3.51 0 0 0-1.42 2.88" style="fill:#ebebeb"/><path d="M88.94 429.1a.2.2 0 0 0-.08-.12c-5.13-7.26-13.16-10.72-15.86-11.32a.28.28 0 0 0-.34.21.28.28 0 0 0 .22.34 30.2 30.2 0 0 1 15 10.43 15.64 15.64 0 0 0-12.5 1.09.29.29 0 0 0-.09.39.29.29 0 0 0 .23.13.33.33 0 0 0 .17 0 15.09 15.09 0 0 1 12.77-.77 23.77 23.77 0 0 1 4.27 14.66.28.28 0 0 0 .25.29.27.27 0 0 0 .29-.27 24.26 24.26 0 0 0-4.33-15.06" style="fill:#fff"/><path d="m178.93 355.37-19.44-26.9-7.09-4.08-19.44 49.35 7.08 4.08 4.03-2.32v39.9l.01-.01 7.07 4.08v.01h.01l16.66-9.62v-48.07z" style="fill:#10b981"/><path d="m140.04 377.82 19.45-49.35 19.44 26.9-11.11 6.42v48.07l-16.66 9.62h-.01v-48.07z" style="fill:#10b981"/><path d="m140.04 377.82 19.45-49.35 19.44 26.9-11.11 6.42v48.07l-16.66 9.62h-.01v-48.07z" style="opacity:.30000000000000004"/><path d="m159.49 328.47-7.09-4.08-19.44 49.35 7.08 4.08z" style="opacity:.15"/><path d="m140.04 377.82 11.11-6.41v48.07l-7.08-4.08v-39.9z" style="opacity:.45"/><path d="m135.55 399.69-19.44-26.9-7.08-4.09-19.45 49.36 7.09 4.08 4.02-2.33v20.63h.01l7.08 4.07v.02l.01-.01 16.65-9.62v-28.8z" style="fill:#10b981"/><path d="m96.67 422.14 19.44-49.35 19.44 26.9-11.11 6.41v28.8l-16.65 9.62-.01.01v-28.8z" style="fill:#10b981"/><path d="m96.67 422.14 19.44-49.35 19.44 26.9-11.11 6.41v28.8l-16.65 9.62-.01.01v-28.8z" style="fill:#fff;opacity:.30000000000000004"/><path d="m116.11 372.79-7.08-4.09-19.45 49.36 7.09 4.08z" style="fill:#fff;opacity:.55"/><path d="m96.67 422.14 11.11-6.41v28.8l-7.09-4.09v-20.63z" style="fill:#fff;opacity:.1"/><path d="M442.76 294.82c.32 1.91.93 4.13 1.4 8s-.37 4.05 2 13.86c1.41 5.89.91 7.56-2.1 12.81-3.25 5.66-8.85 4.32-11.35-1.6-2.13-5.06-1.51-7.39-1.42-12.58s.08-6.71-.07-10.83c-.14-3.64.22-6.11.05-8.9Z" style="fill:#37474f"/><path d="M443.66 309.07c-.62-5.05-.68-10.26-.87-13.67-.43-7.63 1.43-22.66.57-34.15l-19.28-2.35c.56 4.48 5.49 24.8 7.18 37 0 0 .42 16.57 1.33 23.88a1.41 1.41 0 0 0 1.94 1.13 12.7 12.7 0 0 1 8.76-.39 1.39 1.39 0 0 0 1.89-1.29c.01-2.66-1.06-6.37-1.52-10.16M389 260.11c-.79 16.27-.81 28.92-1.61 33.1a47.5 47.5 0 0 1-3.26 10.25c-1.24 2.89-3.25 6.72-5 8.54 0 0-4.91 4.71-3.9 5.28s10.68 2.11 15.11 1 5.09-4.75 6.93-11.43 4.26-15.85 4.26-15.85a7.2 7.2 0 0 1-.63-2.15c-.14-2.31 2-9.52 2.71-14.4Z" style="fill:#c8856a"/><path d="M404.29 300.56c-.22 2.2-1.66 3.35-2.28 5.81a43.6 43.6 0 0 0-1.32 8.54l-.24 4-1.1-.07s.31-5.09.45-7.32 0-3.88-1-4.18c-.04.02.2-7.1 5.49-6.78" style="fill:#263238"/><path d="M401.35 289.86a45 45 0 0 0 2.25 6.06 8.5 8.5 0 0 1 .85 3.49 3.54 3.54 0 0 1-1.26 2.84 20 20 0 0 0-2.64 2.73c-1.43 1.71-4.15 5.75-5 8.66s-1.38 5.49-4 6.82c-2 1-10.22 2.2-14.33 2.24-5.61.06-6.92-2.71-4.71-4.74s6-5.53 6.62-6a10.25 10.25 0 0 1 5.16 1c3.06 1.52 4 3.39 7.34 1.92 3.06-1.33 4.14-6.79 4.7-14.71.88-12.17 5.02-10.31 5.02-10.31" style="fill:#37474f"/><path d="M432 147.39c1.13 2.44 3.31 5.14 5.55 9.86s5 9.84 5 21.87c.09 27.39-.85 53.75-.85 53.75.19 2.42 2 8.27 2.27 22 .21 11-.9 37.09-.9 37.09a15.52 15.52 0 0 1-12.79 1.06c-1.82-11.35-8.7-44.61-11.34-56.6-2.79-12.65-5.63-27.72-5.63-27.72l-4.73 22.06a64 64 0 0 1-.18 14.26c-.88 7.33-6.47 42.39-6.47 42.39s-7.62 2.73-15-1.18c0 0 0-46.09-.51-54.14-.47-7.84.44-63 6.12-83.23 9.07 5.04 31.71 3.67 39.46-1.47" style="fill:#263238"/><path d="m413.33 208.75-2.53-23.08s-9.51-.63-15.59-6.63c0 0 2.75 7.12 12.78 9.61l3.24 21.27-2.63 20.89Z"/><path d="M400.68 96.23c-5.72 0-10.95 4.75-17.57 13.89-4.48 6.17-8 10.66-8 10.66s-11.49-15-12.24-17.56c-.9-3 0-5.2-.35-8.58s-1.1-5.53-.68-7.1-2.36-1.17-3 .81-.14 4.4-1 4.17-2.76-6.7-3.1-10.56-2.66-4.27-3.1-2.89a8.2 8.2 0 0 0-.27 1.9 1.84 1.84 0 0 0-2.4 1.19c-.16.45-.35 1.33-.35 1.33a2.63 2.63 0 0 0-1.91 2.11 4.7 4.7 0 0 1-.48 1.43c-.7 1.22-.55 3.2-.48 4.22a48 48 0 0 0 1 5.89 19 19 0 0 0 1.51 4.19c1.07 1.72 3.5 4.91 5.64 7.84.56.77 1.44 2.56 4 8.29 3 6.55 5.73 13.34 10.68 19.39 4.15 5.07 10.25 0 13.9-3.36 5.21-4.75 14.61-13.7 14.61-13.7 4.54-10.05 3.59-23.56 3.59-23.56" style="fill:#c8856a"/><path d="M401 95.87c-6-.64-9.45 3-12.94 7.08s-13 17.14-13 17.14l-2.64-2.91a9.26 9.26 0 0 1-3.56 6.77c-3.67 3.15-6.89 2.27-6.89 2.27a56 56 0 0 0 4.17 8c2.56 4 4.81 5.48 8 5.2s5.43-2.24 11.95-8.48 11.69-11.81 11.69-11.81Z" style="fill:#37474f"/><path d="M357.06 93.94a8.22 8.22 0 0 0-1.09 9.5s-2.35-2.91-1.66-5.91a4.62 4.62 0 0 1 2.75-3.59" style="fill:#af6152"/><path d="M375 120.09s2.94 3 4.1 9.54a13.83 13.83 0 0 0-3-10.94Z" style="fill:#263238"/><path d="M437.14 126.56c-8.21-4.94-6.06-19.66-4.56-27.17 0 0-3.36-1.55-15-2.57-10.52-.92-15-.41-15-.41-1.73 1.49-5.65 5-12.63 15.27-3.44 5.07-4.82 11.29.88 19l1.05 7.89c.5 6.25-2.28 10.91-.12 13.41 1.26 1.48 8.41 5.33 22.09 5.2 13.45-.13 18.93-4.32 20.48-5.69 2.39-2.32.35-8.14.62-11.41a57.7 57.7 0 0 1 2.19-13.52" style="fill:#455a64"/><path d="M430.67 99c7.33 1.08 11.75 3 14.06 9.06s9.12 26.67 10.51 31 1 6.21-.85 10.46q-1.74 4-3.44 8c-1.51 3.55-4.1 9.46-4.61 10.87a12.2 12.2 0 0 0-1 4.5 28.3 28.3 0 0 1-.17 4.78 20 20 0 0 1-1.52 5.46c-.53 1.21-.88 2.53-1.48 3.69a14 14 0 0 1-1.82 2.19c-.67.81-.93 1.85-1.74 2.56-1.41 1.24-2.86 1.37-4.19 1.93-.59.8-1.6 2.49-2.26 3.24-1.68 1.9-1.95-1.32-1.85-2.4a15.5 15.5 0 0 1 .77-3.42 78 78 0 0 0 2.27-8.49c.11-.51.8-2.61-.06-2.63a1 1 0 0 0-.71.38 24 24 0 0 0-1.58 2.13 14 14 0 0 1-1.43 1.49 4.6 4.6 0 0 1-1.43 1c-.56.21-2.6.3-2.66-.64a1 1 0 0 1 .12-.44c.45-1 1-1.86 1.44-2.82a26 26 0 0 0 1.28-2.9 23.9 23.9 0 0 1 3.91-8.23c3.6-4.56 8.41-27.22 8.41-27.22l-6.22-16.79a31.37 31.37 0 0 1-5.59-15.56c-.42-8.7 1.84-11.2 1.84-11.2" style="fill:#c8856a"/><path d="M430.67 98.78c3.63.42 8.64 1 11.45 4.27s3.62 4.15 7.47 15.48 6.55 19.67 6.88 21.26.9 2.54-2.31 10.25c0 0-1.53-1.95-6.15-3.28a18.4 18.4 0 0 0-8.2-.56l.44-2.68-6.86-18a31.15 31.15 0 0 1-4.93-16.74c0-7.78 2.21-10 2.21-10" style="fill:#37474f"/><path d="m439.81 146.2-1.64 6.8c4.43-.06 9.38 1.18 12.92 4.15l3.07-7.15s-.6-1.63-5.84-3.26-8.51-.54-8.51-.54m-31.06-61.85a16 16 0 0 0-2.53-4.28 23 23 0 0 0-4.05-2.68c-1.44-1-2.9-1.88-4.32-2.86-4.18-2.86-3.69-9.33-2.29-12.9 2.35-6 9.74-9.87 16.16-10 10.25-.18 14.65 3 15.53 8.31 2.45.22 3.68 1.41 5 3 2.65 3.33 2.2 9 1.11 13.1-1.53 5.82-4 7.1-6.07 9.33a19.1 19.1 0 0 0-3.81 6.25s-13.24-4.29-14.73-7.27" style="fill:#455a64"/><path d="M426.24 84.59a4.72 4.72 0 0 0 4.42-1.82c2.46-2.75 2.68-5.53 1.51-7.38-1-1.51-3.31-2.47-4.95-1.43s-1.8 2-2.45 3.26-3.23 1.15-3.87-3.86c-.6-4.68-.34-9-2.65-11.07-3.44-3.13-7.12-1.58-9.59.29-1.41-2.18-3.37-3.37-5.7-2.1s-5.11 4.57-5.37 13c-.29 9.09.32 14.36 3.6 17 1.53 1.21 3.59 1.38 7 1.51l-.28 4.34s-3.7 7.17 2.13 8.09c7.93 1.26 13-6.88 13-6.88l1-14.3a2.89 2.89 0 0 0 2.2 1.35" style="fill:#c8856a"/><path d="M428.45 82.23a1.2 1.2 0 1 1-1.2-1.2 1.19 1.19 0 0 1 1.2 1.2" style="fill:#fafafa"/><path d="M408.66 62.58s1.4-3.22 6.26-3.81a7.24 7.24 0 0 1 8.14 5c.79 2.45 0 9.2.66 10.9a2.8 2.8 0 0 0 3.53 1.73c-2.38 2.37-4.89 2.35-6.71.65s-1.83-5.12-2.23-9.37c-.42-4.48-4.6-7.58-9.65-5.1" style="fill:#e0e0e0"/><path d="M417.41 72.29a.34.34 0 0 0-.26 0h-.23l-.46.12-.45.14-.23.07h-.1a.26.26 0 0 0-.09.09s-.06.11 0 .14.05 0 .09 0h.33l.45-.05h.82a.23.23 0 0 0 .14-.09c.09-.08.12-.35-.01-.42m.11 1.47c-.08-.15-.27-.11-.42-.12h-1.43l.91.19.42.17.24.05a.19.19 0 0 0 .22-.05.22.22 0 0 0 .06-.24m-18.7-2.31a.38.38 0 0 1 .25 0 2 2 0 0 1 .21.09l.43.22.41.23.2.12.1.06a.4.4 0 0 1 .06.11s0 .13 0 .15-.06 0-.1 0h-.1l-.21-.08-.43-.15-.46-.15-.23-.08h-.1a.3.3 0 0 1-.11-.11c-.09-.1-.07-.37.08-.41m-.44 1.41c.11-.12.29 0 .44 0l.48.09.91.23h-1.64a.2.2 0 0 1-.2-.1.21.21 0 0 1 .01-.22" style="fill:#af6152"/><path d="M411.79 73.73a1.6 1.6 0 0 0 1.88.78 1.18 1.18 0 0 0 1-1.52 1.6 1.6 0 0 0-1.88-.78 1.18 1.18 0 0 0-1 1.52m-11.47-4.38 3.4-1.09a1.72 1.72 0 0 0-2.19-1.19 1.88 1.88 0 0 0-1.21 2.28m3.58 3.96a1.56 1.56 0 0 1-1.9.69 1.19 1.19 0 0 1-.92-1.56 1.6 1.6 0 0 1 1.91-.72 1.19 1.19 0 0 1 .91 1.59m8.98-4.62 3.55 1.43a1.84 1.84 0 0 0-1-2.48 2 2 0 0 0-2.55 1.05" style="fill:#263238"/><path d="m413 81.64-5 1.43a2.59 2.59 0 0 0 3.44 1.69 2.42 2.42 0 0 0 1.56-3.12" style="fill:#af6152"/><path d="M410 84.86a2.72 2.72 0 0 1 2.8-2.33h.25a2.28 2.28 0 0 1-1.63 2.19 2.9 2.9 0 0 1-1.42.14" style="fill:#f28f8f"/><path d="m408.77 71-1.38 8.48L403 78a14.8 14.8 0 0 1 5.77-7m-.6 20.93a32 32 0 0 0 9.66-1.85c1.13-.45 2.68-2.45 4-4.68 0 0-1 4.44-3.42 5.92-3.72 2.24-10.32 2.56-10.32 2.56Z" style="fill:#af6152"/><path d="M437.14 99.76c-1.23 4.28 0 45.94 0 45.94a28.4 28.4 0 0 1-12.64 3.79c-7.27.36-11.43-1.29-11.43-1.29s.1-20.29 1.64-28.25c3.24-16.74 12.54-22.41 12.54-22.41a66 66 0 0 0 9.89 2.22" style="fill:#10b981"/><path d="M437.14 99.76c-1.23 4.28 0 45.94 0 45.94a28.4 28.4 0 0 1-12.64 3.79c-7.27.36-11.43-1.29-11.43-1.29s.1-20.29 1.64-28.25c3.24-16.74 12.54-22.41 12.54-22.41a66 66 0 0 0 9.89 2.22" style="fill:#fff;opacity:.45"/><path d="M414.71 120a78 78 0 0 0-.95 8.44c6-.88 11.28-5.17 14.46-9.81 3.57-5.19 6.22-13.89 6.63-19.18-2.49-.45-5-1.13-7.6-1.86 0-.05-9.25 5.62-12.54 22.41" style="fill:#10b981;opacity:.4"/><path d="m408 94.6-.11 1.67S407 100 410 101.06s9.37-.22 13.08-4.3l.14-2.16a2.9 2.9 0 0 1 2.25 1.1c.71 1.1 9.36 3.69 9.36 3.69s-6.63 27.8-29 26.56-11.46-22.78-4.83-30.08a11.5 11.5 0 0 0 3.43-.09c1.71-.25 2.24-1.16 3.57-1.18" style="fill:#10b981"/><path d="m408 94.6-.11 1.67S407 100 410 101.06s9.37-.22 13.08-4.3l.14-2.16a2.9 2.9 0 0 1 2.25 1.1c.71 1.1 9.36 3.69 9.36 3.69s-6.63 27.8-29 26.56-11.46-22.78-4.83-30.08a11.5 11.5 0 0 0 3.43-.09c1.71-.25 2.24-1.16 3.57-1.18" style="fill:#fff;opacity:.55"/><path d="M403.78 122.25a13.1 13.1 0 0 1-4.07-1.91 6.82 6.82 0 0 1-2.63-3.42 11.1 11.1 0 0 1-.36-4.43 27 27 0 0 1 .83-4.51 37 37 0 0 1 1.47-4.39 31 31 0 0 1 2-4.21 30 30 0 0 0-4.12 8.4 23.5 23.5 0 0 0-1 4.63 11.9 11.9 0 0 0 .35 4.8 7.72 7.72 0 0 0 3 3.84 13 13 0 0 0 4.4 1.88 15 15 0 0 0 9.28-.64 14 14 0 0 1-4.57.61 17.2 17.2 0 0 1-4.58-.65m-.21-15.51.31.56a5 5 0 0 0 .76 1 7 7 0 0 0 1 .76 5 5 0 0 0 1.15.48 8.6 8.6 0 0 0 4.73-.16 11.2 11.2 0 0 1-4.5-.52 4.48 4.48 0 0 1-2.8-3 9.3 9.3 0 0 1-.12-4.4 27 27 0 0 1 1.29-4.46 15.1 15.1 0 0 0-2 4.3 8.7 8.7 0 0 0-.05 4.83Zm23.76 2.9a52 52 0 0 1-6.55 8.22 26.85 26.85 0 0 0 7.32-7.73 29.6 29.6 0 0 0 3.85-9.94 63 63 0 0 1-4.62 9.45m-1.84-13.13a17.5 17.5 0 0 1-1.33 3.88 36 36 0 0 1-1.84 3.65 29.4 29.4 0 0 1-4.89 6.47 14.86 14.86 0 0 1-6.82 4 12.3 12.3 0 0 1-4 .29 18 18 0 0 1-4-.88 15.6 15.6 0 0 0 3.94 1.33 12.6 12.6 0 0 0 4.2-.05 14.35 14.35 0 0 0 7.32-4.07 25.7 25.7 0 0 0 4.86-6.79 22.4 22.4 0 0 0 2.56-7.83M409 104.34a11.36 11.36 0 0 0 5.86.42 13.55 13.55 0 0 0 5.41-2.25 18 18 0 0 0 2.22-1.88 16 16 0 0 0 1.81-2.25 22 22 0 0 1-2.11 1.92 18.4 18.4 0 0 1-2.31 1.62 15.2 15.2 0 0 1-5.17 1.93 14 14 0 0 1-2.76.22 9.3 9.3 0 0 1-2.7-.39 3.4 3.4 0 0 1-2-1.58 4.46 4.46 0 0 1-.36-2.72 4.24 4.24 0 0 0 0 2.9 3.9 3.9 0 0 0 2.11 2.06" style="fill:#10b981;opacity:.4"/><path d="M365.76 410.36c0 1.38.26 1.91-1.43 3.16s-5.36 1.82-8.15 1.06a7.48 7.48 0 0 1-4.5-2.71 38 38 0 0 1-2.61-3.94c-.49-.63-2.76-1.82-4.95-2.79s-6.71-3.06-8.29-6.8a8.82 8.82 0 0 1-.49-6.41Z" style="fill:#263238"/><path d="M351 391.39c4.46 2.91 8.21 10.23 14.31 8 .31 3.59 1.26 7.45.41 11-2.6 3.21-8.29 3.83-11.57 1.51-1.65-1.4-2.58-3.05-4.17-4.54a16.2 16.2 0 0 0-4.39-2.67 47 47 0 0 1-5.31-2.94c-9.81-7.3-4.92-20.61 10.72-10.36" style="fill:#37474f"/><path d="M335.32 431.22c0 1.5-.1 2.62-1 3.25s-7.75 1.76-9.57 2-2.08-1-3.35-.56-4.25 2.6-8.71 3.59-8.11 2-14.3 0-6.79-4.44-6.71-6.53 43.64-1.75 43.64-1.75" style="fill:#263238"/><path d="M334.42 417.26c1 4.28 2.06 10.7.9 14-1.25 1.24-5.43 2-9.07 2.46a28.1 28.1 0 0 0-9.65 3c-7.07 2.95-19.51 4-24.47-2.63-4.94-8.89 20.81-6.71 24-17 1.12-3.78 13.62 1.18 18.29.17" style="fill:#37474f"/><path d="M367.74 362.59C364.29 326 365 296 363.85 266.8c0 0-50.38-5.35-51.65 12.08s-.92 66.84-.52 74.52c.18 7.78 3 60.4 3 65.89 12.75 6.32 20.66 1.54 20.66 1.54-.08-7.08 5.45-38.69 2.45-55.95l2-33.66s8.75 56.84 10.23 71c3.76 5.58 14.45 4.28 16.23.91.02-.01 2.69-29.78 1.49-40.54" style="fill:#455a64"/><path d="m339.81 331.22 2.87-24.5A27.13 27.13 0 0 0 356.8 298c-1.53 5.59-6.84 9.57-10.68 10.93L342.05 330l1.59 26.5Z" style="fill:#37474f"/><path d="M346.64 325.68c.6 9.68 1.23 19.69 2.07 24.41 1.32 7.37 5.05 46.16 5.92 55.34a9 9 0 0 1-.86-.31c-.94-9.83-4.57-47.64-5.87-54.88-.86-4.77-1.48-14.81-2.09-24.51-.46-7.3-.89-14.2-1.37-17.78l.82-.11c.49 3.61.92 10.52 1.38 17.84m-25.5 96.05c-1.1-16.55-3.75-58.23-3.53-75 .25-20 .92-55.45 2.54-68.37l.82.1c-1.61 12.88-2.28 48.31-2.54 68.28-.21 16.81 2.46 58.81 3.55 75.17Z" style="fill:#37474f"/><path d="m318.58 308.87.42-.71c-6.33-3.73-5.58-14.76-5.14-21.35 0-.49.07-1 .09-1.41h-.82q0 .66-.09 1.41c-.46 6.73-1.23 18.07 5.54 22.06" style="fill:#37474f"/><path d="M363.91 212.82c5.1 2.4 7 5.79 8.73 14.88s4 27.64 3.87 32.06-3.09 7-7.86 6.26-13.4-1.34-13.4-1.34Z" style="fill:#263238"/><path d="M364.15 212.94a160 160 0 0 0-16.79-6.79c-.56 2.63-9.49 6.21-16.38 4.81-2.05.61-11.91 4.9-12.48 5.28-5.76 3.91-6.31 10.47-6.78 28.31s-.09 46.7-.09 46.7c8.79 4.28 24.78 5 34.26 3.85 8.23-1 15-4.1 18.52-7.83 0 0-.81-15.08-.47-25.23.23-6.6.71-9.74 1.54-21.59 1.03-14.7 1.92-23.45-1.33-27.51" style="fill:#37474f"/><path d="m332.65 203.35.45 7.97 16.4-1.34-.53-15.11z" style="fill:#ffa8a7"/><path d="M333 207.63s5.81 2.25 10.89 1.83c5.78-.48 5.54-3 5.54-3v-1.16s.91 0 1.48 1.27c.84 1.83 1.39 3.43 1.39 3.43s1 3.32-4.94 4.86c-8.52 2.22-18.7-2.92-18.7-2.92l-1.82.66s3.29-4.51 4.74-5.59a2.5 2.5 0 0 1 1.36-.64Z" style="fill:#263238"/><path d="M322 183.06s-4.06 5.65-3.64 6.24 3.2 1.21 3.2 1.21Z" style="fill:#f28f8f"/><path d="M323.69 186.86a4.56 4.56 0 1 1 4.74-4.37 4.57 4.57 0 0 1-4.74 4.37m.32-8.1a3.55 3.55 0 1 0 3.4 3.69 3.55 3.55 0 0 0-3.41-3.69Z" style="fill:#263238"/><path d="M333.93 167.44c-7.8 1.32-11 4.76-12.25 17-1.28 12.81.72 16.77 2.34 18.56 1.09 1.22 7.41 1.68 10.64.93 4-.94 13.2-3.78 17.69-10.07 5.29-7.4 7-17.65 1.85-22.09-7.26-6.22-17.09-4.87-20.27-4.33" style="fill:#ffa8a7"/><path d="m332.72 204.25-.26-2.39a15.27 15.27 0 0 1-8 1.48c1.44.79 5.28 1.15 8.26.91" style="fill:#f28f8f"/><path d="m319.87 181.19 13.69 2.33-.6.95-13.13-2.25z" style="fill:#263238"/><path d="M320.16 170.91a4.05 4.05 0 0 0-.7 2.17 3.63 3.63 0 0 0 1.84 3.25 3.15 3.15 0 0 0 3.63-.52 4.05 4.05 0 0 0 1.16 3.65 2.87 2.87 0 0 0 3.66.14c-.29.7-.51 1.66.11 2.09a1.3 1.3 0 0 0 .53.2 2.7 2.7 0 0 0 1.61-.2 2.6 2.6 0 0 0-.56 2.31c.09.26 1.49 1.83 1.55 1.63 0 0 1.41-4.7 5.39-3.94s4.34 5.92 1.68 8.94-4.95 1.74-5 1.72c.07.83.21 5.29 4 7.66 2.34 1.44 6.53 2.82 10.09 1.53 2.38-1 4-3.72 6.34-7.42a46.7 46.7 0 0 0 4.35-10c1.13-4 1.26-5.92.43-8.83a7.3 7.3 0 0 0-5.4-5.26c-.28-2.82-.81-5-4-7.4-5-3.82-10.5-3.86-14.75-3.43a24 24 0 0 1-4.39.37c-1.27-.11-2.49-.56-3.75-.71a4 4 0 0 0-3.51 1 4.09 4.09 0 0 0-.36 3.84 6.3 6.3 0 0 0-2.89 1 3.52 3.52 0 0 0-1.53 2.56 2.42 2.42 0 0 0 1.53 2.43 4.4 4.4 0 0 0-1.06 1.22" style="fill:#263238"/><path d="m332.8 188.34.36-5.37a2.69 2.69 0 1 0-.36 5.37" style="fill:#263238"/><path d="m281.67 191.48-25.07 13.08a3.16 3.16 0 0 0-1.47 3.78l13 35.49a2.21 2.21 0 0 0 3.27 1.22l23.16-13a3.45 3.45 0 0 0 1.54-3.89l-11.23-35.36a2.18 2.18 0 0 0-3.2-1.32" style="fill:#455a64"/><path d="m281.1 195-21.86 11.41a2.08 2.08 0 0 0-1 2.51l11.86 31.5a1.5 1.5 0 0 0 2.2.81l20.24-11.34a2.27 2.27 0 0 0 1-2.58l-10.33-31.43a1.47 1.47 0 0 0-2.11-.88" style="fill:#fff"/><path d="M261.32 209.49a.37.37 0 0 1-.17-.7l20.32-10.6a.36.36 0 0 1 .5.16.37.37 0 0 1-.15.5l-20.33 10.6a.33.33 0 0 1-.17.04m.94 2.65a.35.35 0 0 1-.33-.2.37.37 0 0 1 .15-.5l20.33-10.6a.37.37 0 0 1 .5.15.38.38 0 0 1-.16.5l-20.32 10.61a.4.4 0 0 1-.17.04m.93 2.65a.4.4 0 0 1-.33-.2.38.38 0 0 1 .16-.5l20.32-10.61a.38.38 0 0 1 .5.16.37.37 0 0 1-.15.5l-20.33 10.6a.34.34 0 0 1-.17.05m.94 2.64a.35.35 0 0 1-.33-.2.37.37 0 0 1 .15-.5l20.33-10.6a.37.37 0 0 1 .5.15.37.37 0 0 1-.16.5l-20.32 10.61a.4.4 0 0 1-.17.04m.93 2.65a.37.37 0 0 1-.17-.7l20.32-10.61a.38.38 0 0 1 .5.16.36.36 0 0 1-.16.5L265.23 220a.5.5 0 0 1-.17.08m.94 2.64a.35.35 0 0 1-.33-.2.37.37 0 0 1 .15-.5l20.33-10.6a.36.36 0 0 1 .5.16.38.38 0 0 1-.16.5l-20.32 10.6a.4.4 0 0 1-.17.04m.93 2.65a.37.37 0 0 1-.17-.7l20.32-10.6a.36.36 0 0 1 .5.15.36.36 0 0 1-.16.5l-20.32 10.61a.33.33 0 0 1-.17.04m.93 2.63a.37.37 0 0 1-.32-.2.36.36 0 0 1 .15-.5L288 216.71a.37.37 0 0 1 .5.16.37.37 0 0 1-.15.5L268 228a.4.4 0 0 1-.14 0m.94 2.66a.38.38 0 0 1-.33-.2.36.36 0 0 1 .16-.5l20.37-10.6a.37.37 0 1 1 .34.65L269 230.62a.33.33 0 0 1-.2.04m.93 2.65a.37.37 0 0 1-.17-.7L289.88 222a.37.37 0 0 1 .5.16.36.36 0 0 1-.15.5l-20.32 10.61a.6.6 0 0 1-.18.04m.94 2.69a.37.37 0 0 1-.17-.7l20.32-10.6a.36.36 0 0 1 .5.16.38.38 0 0 1-.16.5l-20.32 10.6a.33.33 0 0 1-.17.04m.93 2.6a.37.37 0 0 1-.17-.7l20.32-10.61a.37.37 0 0 1 .5.16.36.36 0 0 1-.15.5l-20.33 10.61a.33.33 0 0 1-.17.04" style="fill:#e0e0e0"/><path d="M318.07 217.43c-6.9.6-12.45 5.62-16 12.47-5.29 10.3-13.87 23.69-15.24 26-1.91 3.22-2.27 8.12-.62 11.07 1.53 2.77 6.4 4 11.93-2.21 6.56-7.42 18.78-25.53 18.78-25.53s8.84-10.23 1.15-21.8" style="fill:#ffa8a7"/><path d="M263.11 225.13V225a16.4 16.4 0 0 1 .08-3.64 3.21 3.21 0 0 1 1.37-2.31 1.2 1.2 0 0 1 1.56.14 2.5 2.5 0 0 1 .28 1.24 9.4 9.4 0 0 0 .4 2.23 14 14 0 0 0 .88 1.85 8.9 8.9 0 0 1 .66 2.52c.1.81.17 1.61.3 2.4.24 1.52.33 3.17 1.24 4.48 1.37 2 18.23 16.71 18.23 16.71l1 18.49c-5.28-.64-17.48-15.51-21.6-20.54-4.51-5.51-6.91-8.2-9.57-11.27s-3.53-7.63-3.72-10.5c-.23-3.41.38-5.15 1.11-8.49 0-2.38 0-3.9 1.66-4.91l2.69 7.34 1.74 4.78c.33.3.53.58 1 .61a.9.9 0 0 0 .37-.06c.3-.17.34-.57.32-.94" style="fill:#ffa8a7"/><path d="M318.5 216.24c-10.79 2.87-10.77 4.24-14.66 9.29S288.13 249 288.13 249l-13.47-10.4s-7.08 1.45-8.1 8.83c0 0 9 12.39 13.94 17.16 3.94 3.8 8.22 6.37 11.6 5.13s5.58-3.28 13.84-12.6c5.66-6.39 9.33-10.55 12.87-15.06s8.99-21.22-.31-25.82" style="fill:#263238"/></svg>