<svg xmlns="http://www.w3.org/2000/svg" viewBox="0 0 500 500"><ellipse cx="250" cy="354.31" rx="226.1" ry="130.54" style="fill:#f5f5f5"/><path d="M316.73 296.6 127 406.36c-5.53 3.2-15.19 2.8-21.58-.89L80.26 391c-6.38-3.68-7.08-9.26-1.55-12.46l189.78-109.8c5.53-3.19 15.19-2.79 21.58.9l25.11 14.5c6.39 3.68 7.08 9.26 1.55 12.46" style="fill:#e0e0e0"/><ellipse cx="384.32" cy="399.96" rx="56.68" ry="32.73" style="fill:#e0e0e0"/><path d="M65 355.38c7.06 4.07 7.06 10.67 0 14.74s-18.48 4.07-25.53 0-7.05-10.67 0-14.74 18.53-4.07 25.53 0m187.67 37.7-101 57.77c-4.53 2.61-12.44 2.28-17.67-.73l-11.88-6.87c-5.23-3-5.8-7.58-1.27-10.2l101.05-57.76c4.53-2.62 12.44-2.29 17.67.73l11.88 6.86c5.18 3.02 5.75 7.59 1.22 10.2" style="fill:#e0e0e0"/><path d="m246.91 417-40.53 23.5c-4.53 2.61-12.44 2.28-17.67-.74l-11.88-6.86c-5.23-3-5.8-7.58-1.27-10.2l40.53-23.5c4.53-2.61 12.44-2.28 17.67.74l11.89 6.86c5.23 3.05 5.79 7.61 1.26 10.2" style="fill:#e0e0e0"/><path d="M51.1 330.16s13.61-13.3 5.86-35.57C52.62 282.11 38.23 273 30 272.08a38.5 38.5 0 0 1 6.4 10.8l10.32 6.86-9.49-3 2 8.12s8.83 5.34 10.13 6.5l-9.51-2.49s.79 23.02 11.25 31.29" style="fill:#10b981"/><path d="M51.1 330.16s13.61-13.3 5.86-35.57C52.62 282.11 38.23 273 30 272.08a38.5 38.5 0 0 1 6.4 10.8l10.32 6.86-9.49-3 2 8.12s8.83 5.34 10.13 6.5l-9.51-2.49s.79 23.02 11.25 31.29" style="opacity:.4"/><path d="M51.1 330.16s7-27.82-3.38-44.05c0 0 12.22 14.32 3.38 44.05" style="fill:#fff"/><path d="m35.52 333.92 16.65-.2h.17l16.66.2s.19 20.53-6.13 28.88c-1.75 2.22-5.84 3.77-10.61 3.77s-8.88-1.56-10.62-3.79c-6.31-8.35-6.12-28.86-6.12-28.86" style="fill:#37474f"/><path d="M35.51 333.92c0 5 7.5 9 16.75 9s16.74-4 16.74-9-7.5-9-16.74-9-16.75 4.08-16.75 9" style="fill:#455a64"/><path d="M52.26 331.54c-5.76 0-10.64 1.85-12.36 4.41a3.6 3.6 0 0 1-.67-2c0-3.55 5.83-6.42 13-6.42s13 2.87 13 6.42a3.7 3.7 0 0 1-.66 2c-1.67-2.56-6.57-4.41-12.31-4.41" style="fill:#263238"/><ellipse cx="52.26" cy="335.95" rx="12.36" ry="4.41" style="fill:#e0e0e0"/><path d="M52.05 337.06s6.46-.25 12-8.82c2.28-3.54 3.38-5.39 3.38-5.39l-9-.67 10.08-2.52 4.75-7.28-8.36-.62s6.23-2.19 10.68-2.21c0 0 7.71-13.63 10-15.57a43.74 43.74 0 0 0-30.47 15.14c-12.71 14.99-4.94 28.32-3.06 27.94" style="fill:#10b981"/><path d="M52.05 337.06s-4-24.31 21.72-38.93c0 0-26.77 12.87-21.72 38.93" style="fill:#fff"/><path d="M52.05 337.06s-5.84.38-11.64-6.83c-2.39-3-3.56-4.55-3.56-4.55l8-1.45-9.33-1.32-5-6.12 7.49-1.35s-5.83-1.38-9.84-1c0 0-8.24-11.57-10.46-13.11a39.67 39.67 0 0 1 28.91 10.79c12.93 12.35 7.17 25.11 5.43 24.94" style="fill:#10b981"/><path d="M52.05 337.06s-5.84.38-11.64-6.83c-2.39-3-3.56-4.55-3.56-4.55l8-1.45-9.33-1.32-5-6.12 7.49-1.35s-5.83-1.38-9.84-1c0 0-8.24-11.57-10.46-13.11a39.67 39.67 0 0 1 28.91 10.79c12.93 12.35 7.17 25.11 5.43 24.94" style="opacity:.2"/><path d="M52.05 337.06s1.36-22.31-23.26-33.06c0 0 25.33 9.05 23.26 33.06" style="fill:#fff"/><path d="M242 354.19a1.73 1.73 0 0 1-.86-3.23l71.68-41.08a7.3 7.3 0 0 0 .18-12.58l-5.68-3.41a19.8 19.8 0 0 0-20.09-.16l-6.23 3.56a16.07 16.07 0 0 1-14.78 0c-2.26-1.3-3.56-3.22-3.56-5.26s1.3-4 3.56-5.27l10.43-6a11.78 11.78 0 0 0 5.87-10.15v-35.39a1.73 1.73 0 0 1 1.73-1.73 1.73 1.73 0 0 1 1.75 1.71v35.39a15.24 15.24 0 0 1-7.6 13.14l-10.43 6c-1.16.67-1.83 1.5-1.83 2.27s.67 1.6 1.83 2.27a12.73 12.73 0 0 0 11.32 0l6.18-3.57a23.27 23.27 0 0 1 23.6.2l5.68 3.4a10.77 10.77 0 0 1-.16 18.55L242.9 354a1.73 1.73 0 0 1-.9.19" style="fill:#10b981"/><path d="M242 354.19a1.73 1.73 0 0 1-.86-3.23l71.68-41.08a7.3 7.3 0 0 0 .18-12.58l-5.68-3.41a19.8 19.8 0 0 0-20.09-.16l-6.23 3.56a16.07 16.07 0 0 1-14.78 0c-2.26-1.3-3.56-3.22-3.56-5.26s1.3-4 3.56-5.27l10.43-6a11.78 11.78 0 0 0 5.87-10.15v-35.39a1.73 1.73 0 0 1 1.73-1.73 1.73 1.73 0 0 1 1.75 1.71v35.39a15.24 15.24 0 0 1-7.6 13.14l-10.43 6c-1.16.67-1.83 1.5-1.83 2.27s.67 1.6 1.83 2.27a12.73 12.73 0 0 0 11.32 0l6.18-3.57a23.27 23.27 0 0 1 23.6.2l5.68 3.4a10.77 10.77 0 0 1-.16 18.55L242.9 354a1.73 1.73 0 0 1-.9.19" style="opacity:.2"/><path d="M284.2 249.18a4.29 4.29 0 0 1-4.29-4.28v-12h8.58v12a4.29 4.29 0 0 1-4.29 4.28" style="fill:#10b981"/><path d="M284.2 249.18a4.29 4.29 0 0 1-4.29-4.28v-12h8.58v12a4.29 4.29 0 0 1-4.29 4.28" style="opacity:.4"/><path d="m260.05 308.93-29.81 17a15.34 15.34 0 0 1-15.22 0l-19.1-11-2.18-1.26a14.92 14.92 0 0 1-7.45-12.91v-55L231 220.17v56.18a12.88 12.88 0 0 0 6.44 11.15l22.62 13.06a4.83 4.83 0 0 1-.01 8.37" style="fill:#263238"/><path d="M223.87 327.85a15.3 15.3 0 0 0 6.37-2l29.81-17a4.83 4.83 0 0 0 0-8.37l-15.45-8.92h-20.73Z" style="fill:#37474f"/><path d="m259.52 296.87.83.66a5.68 5.68 0 0 1 2.13 4.44v2.78h-3Z" style="fill:#37474f"/><path d="M234.46 224.42V275a12.46 12.46 0 0 0 6.23 10.79l18.83 11.11a4.67 4.67 0 0 1 0 8.1l-2.14 1.22-26.75 15.18a14.82 14.82 0 0 1-14.72 0l-18.53-10.94a12.46 12.46 0 0 1-6.23-10.79v-50.6Z" style="fill:#455a64"/><path d="M234.46 275v-50.58l-43.31 24.65v50.55a12.46 12.46 0 0 0 6.23 10.79l42.67-25.05a12.45 12.45 0 0 1-5.59-10.36M97.41 337.26l-4.92 2.85v9a17.54 17.54 0 0 1-9-2.47l-.38-.23a9.7 9.7 0 0 1-4.5-6.17 5.9 5.9 0 0 1-.26-1.7v-12.27Z" style="fill:#263238"/><path d="m311.33 6.56-.39-.24a17.64 17.64 0 0 0-9-2.47 5.7 5.7 0 0 0-2.88.76L87 126.6a17.15 17.15 0 0 0-8.58 14.86v184.81l19 11 201.51-115.86a17.16 17.16 0 0 0 8.58-14.86V14.92h8.57a9.74 9.74 0 0 0-4.75-8.36" style="fill:#37474f"/><path d="M80.19 133.76a17.3 17.3 0 0 0-1.82 7.7v184.81l19 11 7.13-4.12V148.84Z" style="fill:#263238"/><path d="M86.94 331.21v12.27a5.62 5.62 0 0 0 8.43 4.86l212.13-122a17.16 17.16 0 0 0 8.58-14.86v-12.56Z" style="fill:#37474f"/><path d="M316.08 14.43a5.62 5.62 0 0 0-8.43-4.87l-212.13 122a17.15 17.15 0 0 0-8.58 14.86v184.8l229.14-132.3" style="fill:#455a64"/><path d="M303.79 22.94h-.05a6.1 6.1 0 0 0-2.79.65L101.58 138.2A15.16 15.16 0 0 0 94 151.33v157.46a4.9 4.9 0 0 0 .41 2 5 5 0 0 0 7 2.33l199.41-114.65a15.16 15.16 0 0 0 7.58-13.12V27.89a5 5 0 0 0-4.61-4.95" style="fill:#10b981"/><path d="M303.79 22.94h-.05a6.1 6.1 0 0 0-2.79.65L101.58 138.2A15.16 15.16 0 0 0 94 151.33v157.46a4.9 4.9 0 0 0 .41 2 5 5 0 0 0 7 2.33l199.41-114.65a15.16 15.16 0 0 0 7.58-13.12V27.89a5 5 0 0 0-4.61-4.95" style="fill:#fff;opacity:.5"/><path d="M115.28 142.32 306 32.2c2.19-1.27 4.15-1.17 5.55 0l6.6 4.56-4.5 5.57v153.8c0 5.64-3.43 12.18-7.65 14.62l-188.84 109-.35 6-7-4.77c-1.39-1.05-2.24-3.1-2.24-5.92V156.94c.06-5.64 3.48-12.18 7.71-14.62" style="fill:#10b981"/><path d="M115.28 142.32 306 32.2c2.19-1.27 4.15-1.17 5.55 0l6.6 4.56-4.5 5.57v153.8c0 5.64-3.43 12.18-7.65 14.62l-188.84 109-.35 6-7-4.77c-1.39-1.05-2.24-3.1-2.24-5.92V156.94c.06-5.64 3.48-12.18 7.71-14.62" style="fill:#fff;opacity:.2"/><path d="M114.13 319.56V161.41a19.1 19.1 0 0 1 2.56-9.09l-6.81-3.91a18.9 18.9 0 0 0-2.25 8.53v158.15c0 2.82.85 4.87 2.24 5.92l6.41 4.39c-1.28-1.06-2.15-3.08-2.15-5.84" style="fill:#10b981"/><path d="m116.72 325.71.11.07a.6.6 0 0 1-.11-.07" style="fill:#10b981;opacity:.30000000000000004"/><path d="m121.78 325.35 190.73-110.13c4.23-2.44 7.66-9 7.66-14.61V42.45c0-5.63-3.43-8.22-7.66-5.78L121.78 146.79c-4.23 2.44-7.65 9-7.65 14.62v158.15c0 5.64 3.42 8.23 7.65 5.79" style="fill:#10b981"/><path d="m121.78 325.35 190.73-110.13c4.23-2.44 7.66-9 7.66-14.61V42.45c0-5.63-3.43-8.22-7.66-5.78L121.78 146.79c-4.23 2.44-7.65 9-7.65 14.62v158.15c0 5.64 3.42 8.23 7.65 5.79" style="fill:#10b981"/><path d="m121.78 325.35 190.73-110.13c4.23-2.44 7.66-9 7.66-14.61V42.45c0-5.63-3.43-8.22-7.66-5.78L121.78 146.79c-4.23 2.44-7.65 9-7.65 14.62v158.15c0 5.64 3.42 8.23 7.65 5.79" style="fill:#fff;opacity:.7000000000000001"/><path d="M121.78 146.79 312.51 36.67c4.23-2.44 7.66.15 7.66 5.78v7.73l-206 119v-7.73c-.04-5.68 3.38-12.22 7.61-14.66" style="fill:#10b981"/><path d="M121.78 146.79 312.51 36.67c4.23-2.44 7.66.15 7.66 5.78v7.73l-206 119v-7.73c-.04-5.68 3.38-12.22 7.61-14.66" style="fill:#fff;opacity:.5"/><path d="M315.55 36.44c2.39 0 3.93 2.36 3.93 6v158.17c0 5.4-3.28 11.69-7.31 14L121.43 324.75a5.4 5.4 0 0 1-2.69.83c-2.39 0-3.93-2.36-3.93-6V161.41c0-5.41 3.28-11.7 7.31-14L312.86 37.26a5.4 5.4 0 0 1 2.69-.82m0-.69a6.1 6.1 0 0 0-3 .92L121.78 146.79c-4.23 2.44-7.66 9-7.66 14.62v158.15c0 4.2 1.9 6.71 4.62 6.71a6.2 6.2 0 0 0 3-.92l190.77-110.13c4.23-2.44 7.66-9 7.66-14.61V42.45c0-4.19-1.9-6.7-4.62-6.7" style="fill:#10b981"/><path d="M130.36 151.6a6.32 6.32 0 0 1-2.86 5c-1.58.91-2.87.17-2.87-1.65a6.33 6.33 0 0 1 2.87-5c1.58-.95 2.86-.17 2.86 1.65m10.1-5.83a6.32 6.32 0 0 1-2.86 5c-1.58.91-2.87.17-2.87-1.65a6.33 6.33 0 0 1 2.87-5c1.58-.91 2.86-.12 2.86 1.65m10.1-5.83a6.32 6.32 0 0 1-2.86 5c-1.59.91-2.87.17-2.87-1.65a6.3 6.3 0 0 1 2.87-5c1.58-.91 2.86-.17 2.86 1.65m3.26 131.67a1 1 0 0 0-.39.09l-27.76 16a2.1 2.1 0 0 0-1.06 1.83v21.93a.6.6 0 0 0 .06.27.69.69 0 0 0 1 .32l27.76-16a2.11 2.11 0 0 0 1.06-1.82V272.3a.69.69 0 0 0-.67-.69" style="fill:#fff"/><path d="m150.99 293.52-20.94 12.09 6.18-16.1 4.29 5.09 4.38-6.24z" style="fill:#10b981"/><path d="m150.99 293.52-20.94 12.09 6.18-16.1 4.29 5.09 4.38-6.24z" style="fill:#fff;opacity:.4"/><path d="M143.72 283.48a4.21 4.21 0 0 1-1.91 3.31c-1.05.61-1.91.11-1.91-1.11a4.22 4.22 0 0 1 1.91-3.3c1.06-.61 1.91-.12 1.91 1.1" style="fill:#10b981"/><path d="M191.07 250.05a.8.8 0 0 0-.39.09l-27.76 16a2.1 2.1 0 0 0-1.06 1.83v21.92a.64.64 0 0 0 .06.28.69.69 0 0 0 1 .32l27.76-16a2.11 2.11 0 0 0 1.06-1.82v-21.93a.69.69 0 0 0-.67-.69" style="fill:#fff"/><path d="m188.25 271.96-20.94 12.09 6.18-16.1 4.29 5.09 4.38-6.24z" style="fill:#10b981"/><path d="m188.25 271.96-20.94 12.09 6.18-16.1 4.29 5.09 4.38-6.24z" style="fill:#fff;opacity:.4"/><ellipse cx="179.07" cy="263.02" rx="2.7" ry="1.56" style="fill:#10b981" transform="rotate(-60 179.06 263.018)"/><path d="M302.4 185.62a.8.8 0 0 0-.39.09l-27.76 16a2.11 2.11 0 0 0-1.05 1.83v21.92a.8.8 0 0 0 .05.28.69.69 0 0 0 1 .32l27.77-16a2.11 2.11 0 0 0 1.05-1.83v-21.92a.68.68 0 0 0-.67-.69" style="fill:#fff"/><path d="m299.57 207.53-20.94 12.09 6.19-16.1 4.28 5.09 4.38-6.24z" style="fill:#10b981"/><path d="m299.57 207.53-20.94 12.09 6.19-16.1 4.28 5.09 4.38-6.24z" style="fill:#fff;opacity:.4"/><path d="M292.31 197.49a4.22 4.22 0 0 1-1.91 3.3c-1.06.61-1.91.12-1.91-1.1a4.21 4.21 0 0 1 1.91-3.31c1.05-.61 1.91-.11 1.91 1.11" style="fill:#10b981"/><path d="M228.33 228.49a.8.8 0 0 0-.39.09l-27.76 16a2.1 2.1 0 0 0-1.06 1.83v21.92a.64.64 0 0 0 .06.28.69.69 0 0 0 1 .32l27.76-16a2.11 2.11 0 0 0 1.06-1.83v-21.92a.68.68 0 0 0-.67-.69" style="fill:#fff"/><path d="m225.51 250.4-20.94 12.09 6.18-16.1 4.29 5.09 4.38-6.24z" style="fill:#10b981"/><path d="m225.51 250.4-20.94 12.09 6.18-16.1 4.29 5.09 4.38-6.24z" style="fill:#fff;opacity:.4"/><path d="M218.24 240.36a4.21 4.21 0 0 1-1.91 3.31c-1.05.6-1.91.11-1.91-1.11a4.24 4.24 0 0 1 1.91-3.31c1.06-.61 1.91-.11 1.91 1.11" style="fill:#10b981"/><path d="M265.59 207a.9.9 0 0 0-.39.09l-27.76 16a2.11 2.11 0 0 0-1.06 1.83v21.93a.6.6 0 0 0 .06.27.7.7 0 0 0 1 .33l27.76-16a2.13 2.13 0 0 0 1.06-1.83v-21.97a.7.7 0 0 0-.67-.65" style="fill:#fff"/><path d="m262.77 228.87-20.94 12.09 6.18-16.09 4.29 5.08 4.38-6.23z" style="fill:#10b981"/><path d="m262.77 228.87-20.94 12.09 6.18-16.09 4.29 5.08 4.38-6.23z" style="fill:#fff;opacity:.4"/><path d="M255.5 218.83a4.21 4.21 0 0 1-1.91 3.31c-1.05.61-1.91.11-1.91-1.1a4.24 4.24 0 0 1 1.91-3.31c1.06-.61 1.91-.12 1.91 1.1" style="fill:#10b981"/><path d="M272 94.89a3.3 3.3 0 0 0-1.5.35L163.9 156.5a8.1 8.1 0 0 0-4.05 7v84.16a2.6 2.6 0 0 0 .22 1.06 2.67 2.67 0 0 0 3.77 1.24l106.56-61.27a8.08 8.08 0 0 0 4.05-7V97.54a2.65 2.65 0 0 0-2.45-2.65" style="fill:#fff"/><path d="m261.13 178.99-80.38 46.41 23.75-61.79 16.44 19.53 16.81-23.94z" style="fill:#10b981"/><path d="m261.13 178.99-80.38 46.41 23.75-61.79 16.44 19.53 16.81-23.94z" style="fill:#fff;opacity:.4"/><path d="M233.25 140.45a16.23 16.23 0 0 1-7.34 12.7c-4 2.33-7.33.44-7.33-4.24a16.22 16.22 0 0 1 7.33-12.7c4.09-2.34 7.34-.44 7.34 4.24" style="fill:#10b981"/><ellipse cx="294.34" cy="131.56" rx="12.31" ry="7.11" style="fill:#fff" transform="rotate(-60 294.332 131.562)"/><path d="M290.81 134a.8.8 0 0 1-.4-1.5l7-4.08a.8.8 0 0 1 1.1.3.81.81 0 0 1-.29 1.1l-7.06 4.07a.9.9 0 0 1-.35.11" style="fill:#10b981"/><path d="M293.56 137.33a.85.85 0 0 1-.4-.1.81.81 0 0 1-.29-1.1l3.9-6.76-3.61-2.08a.8.8 0 0 1 .81-1.39l4.3 2.48a.83.83 0 0 1 .37.49.76.76 0 0 1-.08.61l-4.3 7.45a.8.8 0 0 1-.7.4" style="fill:#10b981"/><path d="M148.66 215.85c0 5.55-3.9 12.3-8.71 15.08s-8.7.52-8.7-5 3.9-12.3 8.7-15.07 8.71-.56 8.71 4.99" style="fill:#fff"/><path d="M136.43 224.17a.81.81 0 0 1-.7-.41.8.8 0 0 1 .29-1.09l7.06-4.08a.8.8 0 1 1 .81 1.39l-7.06 4.08a.86.86 0 0 1-.4.11" style="fill:#10b981"/><path d="M140.72 226.65a.86.86 0 0 1-.4-.11l-4.3-2.48a.83.83 0 0 1-.37-.49.76.76 0 0 1 .08-.61l4.3-7.45a.8.8 0 0 1 1.39.8l-3.9 6.76 3.61 2.08a.81.81 0 0 1 .29 1.1.82.82 0 0 1-.7.4m109 92.91v66.79c0 1.47-.88 2.86-2.7 3.91L152.17 445a12.5 12.5 0 0 1-5.27 1.48.13.13 0 0 1-.09 0v-69.33Z" style="fill:#10b981"/><path d="M165.94 392.47v29.3a6 6 0 0 1-3 5.15l-10.8 6.23a12.5 12.5 0 0 1-5.27 1.48h-.09V398a12.54 12.54 0 0 0 5.36-1.49l10.33-6a2.3 2.3 0 0 1 3.47 1.96" style="opacity:.2"/><path d="M146.9 369.79v76.74H144a17.6 17.6 0 0 1-7.39-2.15l-10.47-6c-2.33-1.34-3.61-3-3.8-4.67v-63.92Z" style="fill:#10b981"/><path d="M146.9 369.79v76.74H144a17.6 17.6 0 0 1-7.39-2.15l-10.47-6c-2.33-1.34-3.61-3-3.8-4.67v-63.92Z" style="opacity:.30000000000000004"/><path d="M233.49 311.86c-4.45-1.76-10.15-1.71-13.62.29l-73 42.12L125 366.91c-1.81 1-2.7 2.44-2.7 3.91 0 1.76 1.29 3.63 3.82 5.08l10.48 6.1a17.4 17.4 0 0 0 7.27 2.13 17 17 0 0 0 3 0 12.36 12.36 0 0 0 5.27-1.49L247 327.82c1.82-1 2.7-2.43 2.7-3.9v-19.39Z" style="fill:#10b981"/><path d="M233.49 311.86c-4.45-1.76-10.15-1.71-13.62.29l-73 42.12L125 366.91c-1.81 1-2.7 2.44-2.7 3.91 0 1.76 1.29 3.63 3.82 5.08l10.48 6.1a17.4 17.4 0 0 0 7.27 2.13 17 17 0 0 0 3 0 12.36 12.36 0 0 0 5.27-1.49L247 327.82c1.82-1 2.7-2.43 2.7-3.9v-19.39Z" style="fill:#fff;opacity:.7000000000000001"/><path d="M146.9 351v33.12h-3a17.4 17.4 0 0 1-7.3-2.12l-10.47-6.05c-2.53-1.45-3.82-3.32-3.82-5.08V351Z" style="fill:#10b981"/><path d="M146.9 351v33.12h-3a17.4 17.4 0 0 1-7.3-2.12l-10.47-6.05c-2.53-1.45-3.82-3.32-3.82-5.08V351Z" style="fill:#fff;opacity:.5"/><path d="m247 308.29-94.86 54.77c-4 2.31-11 2-15.57-.64l-10.48-6.05c-4.6-2.66-5.1-6.69-1.11-9l94.86-54.77c4-2.3 11-2 15.57.65l10.47 6c4.64 2.75 5.12 6.75 1.12 9.04" style="fill:#10b981"/><path d="m247 308.29-94.86 54.77c-4 2.31-11 2-15.57-.64l-10.48-6.05c-4.6-2.66-5.1-6.69-1.11-9l94.86-54.77c4-2.3 11-2 15.57.65l10.47 6c4.64 2.75 5.12 6.75 1.12 9.04" style="fill:#fff;opacity:.6000000000000001"/><path d="m241.6 349.18-9.71-5.64c-5.93-3.63-14.22-3.23-23.41 2.07-18 10.4-32.62 35.7-32.62 56.51 0 9.55 3.08 16.48 8.15 20.19a15 15 0 0 0 2.66 1.57l7.71 4.53 1.89-3.17a31.5 31.5 0 0 0 12.21-4.24c18-10.4 32.63-35.7 32.63-56.5a33 33 0 0 0-1.83-11.38Z" style="fill:#10b981"/><path d="m241.6 349.18-9.71-5.64c-5.93-3.63-14.22-3.23-23.41 2.07-18 10.4-32.62 35.7-32.62 56.51 0 9.55 3.08 16.48 8.15 20.19a15 15 0 0 0 2.66 1.57l7.71 4.53 1.89-3.17a31.5 31.5 0 0 0 12.21-4.24c18-10.4 32.63-35.7 32.63-56.5a33 33 0 0 0-1.83-11.38Z" style="opacity:.5"/><ellipse cx="217.52" cy="388.5" rx="46.14" ry="26.64" style="fill:#10b981" transform="rotate(-60 217.522 388.5)"/><ellipse cx="217.52" cy="388.5" rx="46.14" ry="26.64" style="opacity:.2" transform="rotate(-60 217.522 388.5)"/><path d="m245.22 361.6-7.88-4.6c-4.81-2.95-11.55-2.62-19 1.68-14.63 8.45-26.48 29-26.48 45.87 0 7.75 2.5 13.38 6.61 16.39a12.7 12.7 0 0 0 2.17 1.27l6.26 3.68 1.53-2.57a25.7 25.7 0 0 0 9.89-3.5c14.62-8.44 26.48-29 26.48-45.87a27 27 0 0 0-1.48-9.23Z" style="fill:#10b981"/><path d="m245.22 361.6-7.88-4.6c-4.81-2.95-11.55-2.62-19 1.68-14.63 8.45-26.48 29-26.48 45.87 0 7.75 2.5 13.38 6.61 16.39a12.7 12.7 0 0 0 2.17 1.27l6.26 3.68 1.53-2.57a25.7 25.7 0 0 0 9.89-3.5c14.62-8.44 26.48-29 26.48-45.87a27 27 0 0 0-1.48-9.23Z" style="opacity:.4"/><ellipse cx="225.67" cy="393.52" rx="37.45" ry="21.62" style="fill:#10b981" transform="rotate(-60 225.675 393.52)"/><ellipse cx="225.67" cy="393.52" rx="23.26" ry="13.43" style="opacity:.6000000000000001" transform="rotate(-60 225.675 393.52)"/><path d="M224.46 375.3c-8.11 5.37-14.58 16.56-15.17 26.27 1.92 2.7 5.49 3.21 9.58.84C225 398.87 230 390.26 230 383.18c0-4.73-2.24-7.56-5.54-7.88" style="fill:#10b981"/><path d="M224.46 375.3c-8.11 5.37-14.58 16.56-15.17 26.27 1.92 2.7 5.49 3.21 9.58.84C225 398.87 230 390.26 230 383.18c0-4.73-2.24-7.56-5.54-7.88" style="opacity:.8"/><path d="M224.38 384.29a6.62 6.62 0 0 1-3 5.19c-1.65 1-3 .18-3-1.73a6.67 6.67 0 0 1 3-5.2c1.62-.95 3-.18 3 1.74" style="fill:#fafafa"/><path d="M154.09 400.31a.79.79 0 1 1-.78-.79.78.78 0 0 1 .78.79m3.56-2.16a.79.79 0 1 1-.78-.79.78.78 0 0 1 .78.79m3.56-2.02a.79.79 0 1 1-.78-.78.78.78 0 0 1 .78.78" style="fill:#10b981"/><circle cx="153.31" cy="404.81" r=".78" style="fill:#10b981"/><path d="M157.65 402.65a.79.79 0 1 1-.78-.78.78.78 0 0 1 .78.78m3.56-2.01a.79.79 0 1 1-.78-.79.78.78 0 0 1 .78.79" style="fill:#10b981"/><circle cx="153.31" cy="409.31" r=".78" style="fill:#10b981"/><circle cx="156.87" cy="407.15" r=".78" style="fill:#10b981"/><path d="M161.21 405.14a.79.79 0 1 1-.78-.78.78.78 0 0 1 .78.78" style="fill:#10b981"/><circle cx="153.31" cy="413.82" r=".78" style="fill:#10b981"/><circle cx="156.87" cy="411.66" r=".78" style="fill:#10b981"/><path d="M161.21 409.64a.79.79 0 1 1-.78-.78.78.78 0 0 1 .78.78m-7.12 8.68a.79.79 0 0 1-1.57 0 .79.79 0 1 1 1.57 0" style="fill:#10b981"/><circle cx="156.87" cy="416.16" r=".78" style="fill:#10b981"/><path d="M161.21 414.15a.79.79 0 1 1-.78-.79.78.78 0 0 1 .78.79" style="fill:#10b981"/><circle cx="153.31" cy="422.82" r=".78" style="fill:#10b981"/><path d="M157.65 420.66a.79.79 0 1 1-.78-.78.78.78 0 0 1 .78.78m3.56-2.01a.79.79 0 1 1-.78-.78.78.78 0 0 1 .78.78" style="fill:#10b981"/><circle cx="153.31" cy="427.33" r=".78" style="fill:#10b981"/><path d="M157.65 425.17a.79.79 0 1 1-.78-.79.78.78 0 0 1 .78.79m3.56-2.02a.79.79 0 1 1-.78-.78.78.78 0 0 1 .78.78m50.03-106.09-3.19.49-9.43-5.45-16.19 9.35-10 1.52v4.23l10.14 5.85c3 1.73 7.53 1.92 10.13.42l16.74-9.67a3 3 0 0 0 1.75-2.41Z" style="fill:#10b981"/><path d="m211.24 317.06-3.19.49-9.43-5.45-16.19 9.35-10 1.52v4.23l10.14 5.85c3 1.73 7.53 1.92 10.13.42l16.74-9.67a3 3 0 0 0 1.75-2.41Z" style="opacity:.2"/><path d="m209.48 319.57-16.74 9.67c-2.6 1.5-7.13 1.31-10.13-.42L172.47 323l26.15-15.1 10.14 5.85c3 1.7 3.32 4.32.72 5.82" style="fill:#10b981"/><path d="m203.91 313.58-2.28.35-6.75-3.9-11.59 6.69-7.12 1.09v3l7.25 4.18a8 8 0 0 0 7.25.3l12-6.91a2.18 2.18 0 0 0 1.25-1.73Z" style="fill:#10b981"/><path d="m203.91 313.58-2.28.35-6.75-3.9-11.59 6.69-7.12 1.09v3l7.25 4.18a8 8 0 0 0 7.25.3l12-6.91a2.18 2.18 0 0 0 1.25-1.73Z" style="opacity:.2"/><path d="m202.65 315.38-12 6.91a8 8 0 0 1-7.25-.3l-7.25-4.18L194.88 307l7.25 4.19c2.15 1.24 2.38 3.11.52 4.19m-44.41 33.03a3 3 0 0 0 0-.45v-6.39h-20.88v6.9c.11 1.45 1.12 2.87 3 4a16.37 16.37 0 0 0 14.78 0c1.92-1.11 2.92-2.53 3-4Z" style="fill:#10b981"/><path d="M158.24 348.41a3 3 0 0 0 0-.45v-6.39h-20.88v6.9c.11 1.45 1.12 2.87 3 4a16.37 16.37 0 0 0 14.78 0c1.92-1.11 2.92-2.53 3-4Z" style="opacity:.2"/><path d="M155.2 337.3c4.08 2.36 4.08 6.18 0 8.53a16.31 16.31 0 0 1-14.78 0c-4.08-2.35-4.08-6.17 0-8.53a16.31 16.31 0 0 1 14.78 0m61.92-31.55V303h-8.39v2.78a2.17 2.17 0 0 0 1.22 1.6 6.61 6.61 0 0 0 5.94 0 2.19 2.19 0 0 0 1.22-1.6Z" style="fill:#10b981"/><path d="M217.12 305.75V303h-8.39v2.78a2.17 2.17 0 0 0 1.22 1.6 6.61 6.61 0 0 0 5.94 0 2.19 2.19 0 0 0 1.22-1.6Z" style="opacity:.2"/><path d="M215.9 301.29c1.64.95 1.64 2.48 0 3.43a6.61 6.61 0 0 1-5.94 0c-1.64-1-1.64-2.48 0-3.43a6.55 6.55 0 0 1 5.94 0m20.15 3.71a2.3 2.3 0 0 0 0-.37v-5.24h-17.11v5.66a4.38 4.38 0 0 0 2.49 3.26 13.39 13.39 0 0 0 12.11 0 4.39 4.39 0 0 0 2.48-3.26Z" style="fill:#10b981"/><path d="M236.05 305a2.3 2.3 0 0 0 0-.37v-5.24h-17.11v5.66a4.38 4.38 0 0 0 2.49 3.26 13.39 13.39 0 0 0 12.11 0 4.39 4.39 0 0 0 2.48-3.26Z" style="opacity:.2"/><path d="M220.61 300.64v7.09a3.5 3.5 0 0 1-.63-.57v-6.52Zm2.39 0V309a5 5 0 0 1-.63-.25v-8.12Zm2.41 0v8.95a5 5 0 0 1-.63-.1v-8.85Zm2.4 0v9.1h-.62v-9.1Zm2.41 0v8.85a5 5 0 0 1-.62.1v-8.95Zm2.4 0v8.12a5 5 0 0 1-.62.25v-8.37Zm2.38 0v6.53a4 4 0 0 1-.62.55v-7.08Z" style="fill:#10b981"/><path d="M233.56 295.89c3.34 1.93 3.34 5.06 0 7a13.39 13.39 0 0 1-12.11 0c-3.35-1.94-3.35-5.07 0-7a13.39 13.39 0 0 1 12.11 0" style="fill:#10b981"/><ellipse cx="227.5" cy="299.39" rx="3.73" ry="2.15" style="opacity:.2"/><path d="M423.74 401.72s5.91-3.3 6.66-7-5.75-12.17-5.75-12.17-4.85 2.78-.91 19.17" style="fill:#10b981"/><path d="M423.74 401.72s5.91-3.3 6.66-7-5.75-12.17-5.75-12.17-4.85 2.78-.91 19.17" style="opacity:.2"/><path d="m351.37 413.13 8.63-5.09 1.13-8.63-2.97-.7z" style="fill:#10b981"/><path d="m351.37 413.13 8.63-5.09 1.13-8.63-2.97-.7z" style="opacity:.30000000000000004"/><path d="m402.43 363.49 8.06 12.87 5.38 17.82s9.91-1.23 3.67-24.11l-4.66-13.8Zm-52.76 4.81 1.7 20.51-5.94 15.69s3 7.36 12.31-8.2c4.94-8.25 5.11-9.89 5.11-9.89l2-18.11Z" style="fill:#945959"/><path d="m357.36 168.56-3 6a.68.68 0 0 0 .39.95l3.6 1.2Z" style="fill:#703838"/><path d="M361.56 158.5S357 161 357 175.18c0 7.81.54 12.78 4.6 12.48s15.73-1.84 15.73-1.84V158.5Z" style="fill:#945959"/><path d="M361.56 187.66c1.42-.11 3.79-.37 6.26-.66v-1.45a32.3 32.3 0 0 1-6.94 2.1 4 4 0 0 0 .68.01" style="fill:#703838"/><path d="M367.13 184.94v8.92h12.19v-12.53z" style="fill:#ffa8a7"/><path d="m388 216.25 7.92 16.27-5.92 7.78 4.11 13.9 12.73-15a9.46 9.46 0 0 0 1.61-9.58c-3.5-9-10.48-26.75-12.37-29.89-2.54-4.24-5.58-6.5-10.14-6.36s2.06 22.88 2.06 22.88" style="fill:#945959"/><path d="M391.82 243c1.84 5.52 5.85 13.28 5.68 39.38-.11 18.24.06 28.5.17 33a6.54 6.54 0 0 0 1.78 4.34c1.93 2 5.24 6.32 8.35 14.48a201 201 0 0 1 7.08 22.06s-2.27 7.36-12.45 7.22L377 322.55a13.4 13.4 0 0 1-1.93-5.39l-6.69-50.84v-20.79Z" style="fill:#37474f"/><path d="m373.71 307.09 7.08-25.35s9.94-10.11 6.4-27.54l-15 18.91.76 28.87Z" style="fill:#263238"/><path d="M350.38 244.4c-.42 8.2-4.88 59.26-4.24 74.11s3.53 49.79 3.53 49.79 9.62 4 15.14 0c0 0 2.33-13.76 3.85-24.66a43.2 43.2 0 0 0-.57-16.93 12.2 12.2 0 0 1 0-6.2l10.83-41.6s9.36-6.57 9.36-24.71v-13.62Z" style="fill:#37474f"/><path d="M376.41 187.6 357 194.75s-9.13 7.92-9.13 23.06c0 4.24 4.11 8.06 4.11 8.06s-1.42 13.29-1.56 18.53c0 0 10 7 28.55 4.24 6.67-1 12.89-5.66 12.89-5.66s-2.83-11.74-3.25-12.87 4-14.85 4-25.74Z" style="fill:#10b981"/><path d="M359.19 161.66s.78 6.87 5.16 8.74c0 0-3.47 4.76 1.69 6.85v-3.68l2.16 4.21s-6.08 24.61 4.46 24.61a7.6 7.6 0 0 0 5-1.77s1.62 6.44 11.38 6.44 11.6-9.55 11.6-9.55-6.5 2-6.5-4.81-.5-28.57-.85-31.89a16.35 16.35 0 0 0-14.5-13.23c-7.6-.9-17.47-.84-23.13 7s2.45 10 2.45 10 .13-.22 1.08-2.92" style="fill:#263238"/><path d="M366 173.57s-.33-6 4.32-5.54c5.34.53 3.64 10.18-2.87 10.18Zm-9 21.18c-11.87 3.77-34.44 15.7-34.44 15.7l-20.65-18.24-7.75 8.34a152.2 152.2 0 0 0 21.7 23.45 9.24 9.24 0 0 0 9.53 1.65c4.14-1.65 10-3.94 14.38-5.58 7.64-2.83 23.76-6.79 23.76-15.56s-6.53-9.76-6.53-9.76" style="fill:#945959"/><path d="M362.85 386.41a9.62 9.62 0 0 0-7 5.08c-2.27 4.53-6.51 17.26-10.47 13l1.34-3.55s-15.82 3.47-12 7.61 15.66 6 16.65 4.57 6.37-11.6 6.37-11.6l3 13.58a2.37 2.37 0 0 0 3.11 0s3.84-26-1-28.69m53.02 7.77s3.67-1.56 3.11-6.36-4.24-14.39.56-17.75c2.13-1.49 6.86 5 10.86 12.8s5.13 10 5.13 10-.45 2.07-2.27 2l-8.77-9.05a17.76 17.76 0 0 0 .29 8.34c1.27 4.24 1.44 6.71-3.18 8.77s-17.27 4.87-10.51-3.68c3.36-4.25 4.78-5.07 4.78-5.07" style="fill:#10b981"/><path d="M302.07 193.41a69 69 0 0 1 2-8.52c.93-2.4 1.34-4.44-.94-3.53s-4.08 5-4.24 5.52c0 0-11.59-13.72-13.19-13.58s-1.39 2.09 1.69 6.28l3.07 4.2s-8.11 3.83-7.24 8.79 10.89 8 10.89 8Z" style="fill:#945959"/></svg>