<svg xmlns="http://www.w3.org/2000/svg" viewBox="0 0 500 500"><path d="M181.61 417c53.82 28.12 141.09 28.12 194.91 0s53.82-73.7 0-101.82-141.09-28.11-194.91 0-53.82 73.66 0 101.82" style="fill:#f5f5f5"/><path d="M217.71 302.65c-.25-.34-.11-23.11-7.83-29.88s-14.53-1.4-10.06 6.71c3 5.35 11.29 14.82 11.3 23.89Z" style="fill:#10b981"/><path d="M217.71 302.65c-.25-.34-.11-23.11-7.83-29.88s-14.53-1.4-10.06 6.71c3 5.35 11.29 14.82 11.3 23.89Z" style="fill:#fff;opacity:.6000000000000001"/><path d="M215 303.18a.41.41 0 0 1-.41-.37c-2.32-21.83-11.06-29.65-11.15-29.73a.41.41 0 1 1 .54-.62c.37.32 9.08 8.07 11.43 30.26a.42.42 0 0 1-.37.46Z" style="fill:#fff"/><path d="M216.22 326.75c-2.83-12.85-6.87-20.31-22.86-28.54-14.73-7.59-27.4-15.61-12.67-18.52 12.23-2.42 35.77 17 36.61 34Z" style="fill:#10b981"/><path d="M214.65 310.6a.41.41 0 0 1-.39-.26c-4.83-12.88-20.26-25.34-33.63-27.21a.42.42 0 0 1-.35-.47.41.41 0 0 1 .47-.35c13.66 1.91 29.36 14.61 34.29 27.74a.42.42 0 0 1-.25.53Z" style="fill:#fff"/><path d="M333.93 346.24c-.42.56-.49 1.85-.92 3.6a8 8 0 0 0-.29 4 7.88 7.88 0 0 0 4.47 3.49c2.3.72 5.13.12 7.87-1.52s4.81-3.63 8.72-4.74 5.85-2 7.7-3.5c2.17-1.74 5.06-6.54.92-7.65s-13.15 2.81-21.34 3.17Z" style="fill:#263238"/><path d="M333.93 341.12v6.14a3.93 3.93 0 0 0 3.26 2.58 3.86 3.86 0 0 0 2-.21 5.5 5.5 0 0 0 3.52-4.86l.24-3.65Z" style="fill:#ffa8a7"/><path d="M345.65 303.2c.05 7.63-2.14 40.61-2.14 40.61s-3.12 3.95-9.9 0L331.3 307Z" style="fill:#10b981"/><path d="M345.65 303.2c.05 7.63-2.14 40.61-2.14 40.61s-3.12 3.95-9.9 0L331.3 307Z" style="opacity:.5"/><path d="M325.85 372.42c.86-6.37 7.47-18.35 18.82-23.41s25.08-3.63 27.69-1.43 3.29 6.8-2.17 8.28-9.75 4-6.37 6.85 4.43 6.78-1.1 7.85-12.06-2.87-13.6.65 1.71 6.22-4.45 7.49-13.73-3.49-18 3.53Z" style="fill:#10b981"/><path d="M326.22 377.24a.5.5 0 0 1-.16 0 .41.41 0 0 1-.22-.54c8.42-20 32.76-29 41.25-28.46a.42.42 0 0 1 .39.44.41.41 0 0 1-.44.39c-6.74-.41-31.67 7.18-40.44 27.95a.41.41 0 0 1-.38.22" style="fill:#fff"/><path d="M359.55 365a.5.5 0 0 1-.17 0c-.11-.06-11.54-5.12-22.1-2.75a.4.4 0 0 1-.49-.31.41.41 0 0 1 .31-.49c10.83-2.43 22.51 2.74 22.62 2.79a.41.41 0 0 1-.17.79Z" style="fill:#fff"/><path d="m265.65 272.39-35.77 20.65 84.96 49.05 26.83-15.49 8.94-5.16z" style="fill:#10b981"/><path d="M350.61 321.44v5.17l-26.83 15.49-.01-5.17z" style="fill:#10b981"/><path d="M350.61 321.44v5.17l-26.83 15.49-.01-5.17z" style="opacity:.2"/><path d="M269.48 298.21s31.33-9.46 36.77-10.95 15.9-4 18.95-2.63 4.6 2.95 4.88 7.36c.06.83 0 4.86 0 4.86s-15.14 4.68-27.54 4.68-33.06-3.32-33.06-3.32" style="fill:#10b981"/><path d="M269.48 298.21s31.33-9.46 36.77-10.95 15.9-4 18.95-2.63 4.6 2.95 4.88 7.36c.06.83 0 4.86 0 4.86s-15.14 4.68-27.54 4.68-33.06-3.32-33.06-3.32" style="opacity:.6000000000000001"/><path d="m296.26 244.97-2.08 11.23-11.52 1.33 1.66-15.5z" style="fill:#ffa8a7"/><path d="M307 236s1.51 4.63 1.05 4.92a8.3 8.3 0 0 1-2.52.14Z" style="fill:#f28f8f"/><path d="M304 221.15c2 2.09 3.87 5.58 3 14.43-.91 9.7-3.81 12.29-5 12.85-1.83.85-8-.63-10.06-2.12-2.52-1.86-7.28-6.5-8.52-12.21-1.46-6.72.41-14.36 5.32-15.91 6.96-2.19 13.62 1.19 15.26 2.96" style="fill:#ffa8a7"/><path d="M308.57 225.92c-1.18 2.22-3.4 7.75-9.71 9.31 0 0-.35-3.76-3.47-3.8s-4.18 3.81-2.63 6.49 3.5 2.07 3.5 2.07-.32 5.29-4.13 7.18c0 0-4.59 2.09-8.77-.58-1.88-1.2-4.06-6.41-5.18-10.59-2.38-8.84-1.95-15.61 3.67-17 1.18-3.71 3.09-4.9 6.62-5.13 7.62-.51 12.54 5.13 18.87 5.13 3.3 0 2.57 4.39 1.23 6.92" style="fill:#263238"/><path d="m282 219.64-3.82-1.64a2.07 2.07 0 1 1 3.81 1.63Z" style="fill:#263238"/><path d="M269.56 294.44c0 6-.57 12.28 1.94 16.69s13.88 13.49 26.68 11.33c8.36-1.41 35.39-11.71 35.39-11.71s12-4.41 12.08-7.55c.08-4.64-.24-11.16-10.73-10.88-9.56.25-37.93 4.9-37.93 4.9Z" style="fill:#10b981"/><path d="M269.56 294.44c0 6-.57 12.28 1.94 16.69s13.88 13.49 26.68 11.33c8.36-1.41 35.39-11.71 35.39-11.71s12-4.41 12.08-7.55c.08-4.64-.24-11.16-10.73-10.88-9.56.25-37.93 4.9-37.93 4.9Z" style="opacity:.5"/><path d="M271.79 255.54c1-3.14 5-6.56 9-5.82 7.33 1.36 15.35 3.74 17.47 4.36s-1 16.16 7.33 21l1.09 20.57s-2.05 4.09-5.21 6.11c-3.43 2.17-8.19 5.44-16.8 4.72a21.17 21.17 0 0 1-15.21-8.32s.1-19.44.43-28.14c.3-7.34 1.19-12.32 1.9-14.48" style="fill:#10b981"/><path d="M271.79 255.54c1-3.14 5-6.56 9-5.82 7.33 1.36 15.35 3.74 17.47 4.36s-1 16.16 7.33 21l1.09 20.57s-2.05 4.09-5.21 6.11c-3.43 2.17-8.19 5.44-16.8 4.72a21.17 21.17 0 0 1-15.21-8.32s.1-19.44.43-28.14c.3-7.34 1.19-12.32 1.9-14.48" style="opacity:.2"/><path d="M305.82 279.11s-4.33-4.49-5.85-9.7c0 0 0 7.62 5.94 11.74Z" style="fill:#10b981"/><path d="M305.82 279.11s-4.33-4.49-5.85-9.7c0 0 0 7.62 5.94 11.74Z" style="opacity:.4"/><path d="m334.29 264.35 4.65-6.68s1.11-1.61 1.52-2.28.69-2.91-.68-3.48c-2.48-1-7.64-3.47-9.15-3.48-.62 0-3.21 4.34-7.65 10.19-2.66 3.5-6.33 8.36-6.33 8.79s-.95.87 2.91 2.84a62 62 0 0 0 8.57 3.44Z" style="fill:#10b981"/><path d="m334.29 264.35 4.65-6.68s1.11-1.61 1.52-2.28.69-2.91-.68-3.48c-2.48-1-7.64-3.47-9.15-3.48-.62 0-3.21 4.34-7.65 10.19-2.66 3.5-6.33 8.36-6.33 8.79s-.95.87 2.91 2.84a62 62 0 0 0 8.57 3.44Z" style="opacity:.6000000000000001"/><path d="M337.25 257.1c-2.85 4.1-8.93 14.24-9.11 14.52s-9-3.53-11.37-4.56a1.2 1.2 0 0 0-.12.35c0 .42-.95.87 2.91 2.84a62 62 0 0 0 8.57 3.44l6.16-9.34 4.65-6.68s1.11-1.61 1.52-2.28.69-2.91-.68-3.48c.27.14.31 1.09-2.53 5.19" style="fill:#263238"/><path d="m329.73 250.56 8.8 3.57-9.82 15.01-8.77-3.76z" style="fill:#10b981"/><path d="m329.73 250.56 8.8 3.57-9.82 15.01-8.77-3.76z" style="fill:#fff;opacity:.8"/><path d="M298.28 254.08c4.52 1.36 7.28 1.61 12.28 9.3s15.95 22.94 17 24.78c1.51 2.55 2.16 5.58.86 7.93-1.22 2.18-4.76 1.23-9.72-3.13-4.8-4.21-14.3-16.11-14.3-16.11a81.8 81.8 0 0 1-6.12-22.77" style="fill:#ffa8a7"/><path d="M327.35 297.22c2.29-.66 5.74-9.17 8.38-18.82s4-11.8 4-14.84-.14-6.92-.14-6.92l-4.52 6.51a12 12 0 0 0-1.14-3.67c-.58-1.19-1.67-2.12-2.56-1.41-.48.38.78 2 .51 5.67a19 19 0 0 0 .27 4.37l-8.42 20.38Z" style="fill:#ffa8a7"/><path d="M298.28 254.08a35 35 0 0 1 6.54 2.08 10.38 10.38 0 0 1 4.94 4.06c3.5 5.81 8.5 14.08 8.5 14.08s.86 7.2-7.89 9.72l-4.66-5a26 26 0 0 1-4.63-6.9c-1.97-4.36-4.22-11.24-2.8-18.04" style="fill:#10b981"/><path d="M298.28 254.08a35 35 0 0 1 6.54 2.08 10.38 10.38 0 0 1 4.94 4.06c3.5 5.81 8.5 14.08 8.5 14.08s.86 7.2-7.89 9.72l-4.66-5a26 26 0 0 1-4.63-6.9c-1.97-4.36-4.22-11.24-2.8-18.04" style="opacity:.2"/><path d="m310.07 158.63-93.31-53.87c-2.35-1.36-4.3-.52-4.69 1.85a10.65 10.65 0 0 1 4.69-7.36l3.88-2.25a10.53 10.53 0 0 1 9.53 0l93.32 53.87a9.9 9.9 0 0 1 3.37 3.56l-13.42 7.75a9.65 9.65 0 0 0-3.37-3.55" style="fill:#37474f"/><path d="M328.25 380.48a10.51 10.51 0 0 1-4.77 8.25L319.6 391a10.67 10.67 0 0 1-8.72.38c2.25.85 4-.42 4-3.14V166.88a9.74 9.74 0 0 0-1.4-4.69l13.42-7.75a9.8 9.8 0 0 1 1.39 4.7Z" style="fill:#263238"/><path d="m310.07 158.63-93.31-53.87c-2.63-1.52-4.76-.29-4.76 2.75v221.34a10.54 10.54 0 0 0 4.76 8.25l93.31 53.9c2.64 1.51 4.76.28 4.76-2.76V166.88a10.51 10.51 0 0 0-4.76-8.25m.29 198.23c0 1.83-1.27 2.57-2.86 1.65l-88.17-50.91a6.3 6.3 0 0 1-2.87-5V138.87c0-1.83 1.28-2.57 2.87-1.65l3.51 2 84.66 48.89a6.29 6.29 0 0 1 2.86 5Z" style="fill:#455a64"/><path d="M263.41 140.09a3.68 3.68 0 0 1 1.68 2.9c0 1.07-.75 1.51-1.68 1a3.7 3.7 0 0 1-1.67-2.9c0-1.09.75-1.54 1.67-1m0 200.83a14.65 14.65 0 0 1 6.59 11.47c0 4.22-3 5.94-6.62 3.82a14.64 14.64 0 0 1-6.62-11.46c.03-4.23 3-5.94 6.65-3.83m15.84-183.79a7.42 7.42 0 0 1 3.36 5.8c0 2.14-1.51 3-3.36 1.94a7.42 7.42 0 0 1-3.35-5.81c0-2.14 1.5-3 3.35-1.93m-8.2-.73c0 1.43-1.06 2-2.38 1.21l-22.06-12.74a5.11 5.11 0 0 1-2.39-4c0-1.43 1.07-2 2.39-1.21l22.06 12.74a5.09 5.09 0 0 1 2.38 4m-41.17-13.09-10.56-6.09c-1.58-.92-2.86-.18-2.86 1.65v163.78a6.32 6.32 0 0 0 2.86 5l10.56 6.1Z" style="fill:#263238"/><g style="opacity:.15"><path d="M310.36 193.08v146.43L222.84 289V139.24l84.66 48.89a6.29 6.29 0 0 1 2.86 4.95" style="fill:#fff"/></g><path d="m223.39 140.2 83.84 48.41a5.81 5.81 0 0 1 2.58 4.47v145.48l-86.42-49.89zm-.55-1V289l87.52 50.52V193.08a6.29 6.29 0 0 0-2.86-5l-84.66-48.89Z" style="fill:#fff"/><path d="M310.37 356.86v-12.18l-80.49-46.47-12.58 7.25a5.8 5.8 0 0 0 2 2.14l88.19 50.91c1.59.92 2.88.18 2.88-1.65" style="fill:#37474f"/><path d="m310.37 349.84-26.83 15.49v-5.16l26.83-15.49z" style="fill:#10b981"/><path d="m310.37 349.84-26.83 15.49v-5.16l26.83-15.49z" style="opacity:.2"/><path d="m198.58 311.12 84.96 49.05v5.16l-84.96-49.05z" style="fill:#10b981"/><path d="m198.58 311.12 84.96 49.05v5.16l-84.96-49.05z" style="opacity:.2"/><path d="m229.88 293.04-31.3 18.08 84.96 49.05 26.83-15.49v-5.17z" style="fill:#10b981"/><path d="m229.88 293.04-31.3 18.08 84.96 49.05 26.83-15.49v-5.17z" style="fill:#10b981"/><path d="M230.66 252.2c-2.66 0-4.69.16-9.6 7.28-4.16 6-17.77 24.82-18.58 25.71s6.14 4.06 6.14 4.06L227 270.78Z" style="fill:#ffa8a7"/><path d="M205.24 283.67s1.46-.78 5.15-.75c2.29 0 3.72.16 4-.58.37-1.11 1.27-3.15 1.74-3.14v5.43Z" style="fill:#f28f8f"/><path d="M198.78 365.07c-6.15 8.12-10.95 10-12.63 11.76s-.71 5.23 3.4 6 8.56-.17 11.21-2.82 4.48-6.1 7.18-8 4.09-2.44 4.5-4.72-1.65-9.06-1.65-9.06Z" style="fill:#263238"/><path d="M201.73 352.69c.57 2.95 1.21 5.53-.8 9.08a34 34 0 0 1-2.15 3.3c-3.59 4.83-6.51 8.6-7 9.26s2.53 2.76 6 1.32 6.46-6.58 8.72-9.68c1-1.38 2-2.63 2.78-3.6a6.83 6.83 0 0 0 1.54-4.59l-.19-4.71Z" style="fill:#ffa8a7"/><path d="M213.75 376.61c-6.15 8.13-10.95 10-12.63 11.77s-.7 5.22 3.4 6 8.56-.18 11.21-2.82 4.48-6.11 7.19-8 4.09-2.45 4.49-4.73-1.64-9.06-1.64-9.06Z" style="fill:#263238"/><path d="M216.7 364.23c.58 2.95 1.21 5.53-.8 9.08a32 32 0 0 1-2.15 3.3c-3.59 4.83-6.51 8.6-7 9.26s2.53 2.77 6 1.33 6.46-6.58 8.72-9.68c1-1.38 2-2.64 2.78-3.6a6.87 6.87 0 0 0 1.54-4.6l-.18-4.71Z" style="fill:#ffa8a7"/><path d="M256.8 292c4.71 9.68 2.85 19.27-9.88 25.55-7.11 3.51-20.87 9.71-20.87 9.71s2 5.5 2.07 14.77c.07 8.16-2.1 25.91-2.1 25.91s-5.32 2.47-9.13 0c0 0-1.69-11-3-22.09-1.59-13.93-2.93-22.12-2.22-25.12.63-2.65 6.17-6.53 10.4-9.5l-14.76 6.94s3.17 4.38 3.92 12.27c.91 9.54-.24 25.94-.24 25.94a11.37 11.37 0 0 1-9.12.38s-10.39-40.45-8.83-46.06c2.24-8.05 32.9-20.31 34.46-23.47Z" style="fill:#10b981"/><path d="M256.8 292c4.71 9.68 2.85 19.27-9.88 25.55-7.11 3.51-20.87 9.71-20.87 9.71s2 5.5 2.07 14.77c.07 8.16-2.1 25.91-2.1 25.91s-5.32 2.47-9.13 0c0 0-1.69-11-3-22.09-1.59-13.93-2.93-22.12-2.22-25.12.63-2.65 6.17-6.53 10.4-9.5l-14.76 6.94s3.17 4.38 3.92 12.27c.91 9.54-.24 25.94-.24 25.94a11.37 11.37 0 0 1-9.12.38s-10.39-40.45-8.83-46.06c2.24-8.05 32.9-20.31 34.46-23.47Z" style="opacity:.2"/><path d="M246.34 252.22c9.6.9 11.13-.64 14 7.14l-8.8 22.43L256.8 292c-1.24 1.85-15.9 9.73-28.78.33a231 231 0 0 1-5.4-25c-1-7.09 5.28-14.91 8.39-15.22a27 27 0 0 1 3.38-.19Z" style="fill:#10b981"/><path d="M246.34 252.22c9.6.9 11.13-.64 14 7.14l-8.8 22.43L256.8 292c-1.24 1.85-15.9 9.73-28.78.33a231 231 0 0 1-5.4-25c-1-7.09 5.28-14.91 8.39-15.22a27 27 0 0 1 3.38-.19Z" style="fill:#fff;opacity:.6000000000000001"/><path d="M212.87 283.65c2 .06 1.92-1.22 2.42-2.47.59-1.47 1.13-2.78 1.13-2.78l1.32 4.76 1.81 8.82s-5.31-.07-9.21 0-8.33-1.23-8.78-4c-.28-1.72 1-4.13 5-4.51a41 41 0 0 1 6.31.18" style="fill:#ffa8a7"/><path d="M216.63 272.39c-2 .7-1.48 4.05-.64 7.8s2.23 10.05 2.66 11.71 1 2.69 3.48 2.69 6.52.27 8.27 0 2-1.82 1.64-5.35a119 119 0 0 0-1.88-12c-.7-3.35-1.13-5.13-3.21-5.13-2.42-.03-8.22-.45-10.32.28" style="fill:#263238"/><path d="M216.5 282.52c.2.88 2 1.61 3.64 1.68a33.4 33.4 0 0 0 7.09-.48c1.67-.45 2.73 2.43 1.12 5.06s-5.25 3.43-9.69 3.19a8.84 8.84 0 0 1-2.52-4.86 14 14 0 0 1 .36-4.59" style="fill:#ffa8a7"/><path d="M251.58 281.79s-1 1.66-4.11 1.66c2.75-1.87 5.14-5.57 7.38-10Z" style="fill:#10b981"/><path d="M251.58 281.79s-1 1.66-4.11 1.66c2.75-1.87 5.14-5.57 7.38-10Z" style="fill:#fff;opacity:.1"/><path d="M255.93 253.23c5.3 1 7.51 6 7.67 15.8s-1.1 42.28-1.21 43.72a6.26 6.26 0 0 0 2.61 5.75c3.78 2.7 8.34 4.87 10.57 6.38 2.94 2 0 5.26-3.61 5.48-3.38.21-8.79-2.72-10.17-3.87a10.4 10.4 0 0 1 1.57 3c.59 2.3 0 3.65-1.06 3.17-.6-.27-1.33-1.18-3.4-3.71-3.59-4.41-4.36-6.39-4.4-11.87 0-3.71-.31-22.84-.61-30.12-.19-4.46-.15-14.15-.07-20.17s1-12.71 2.11-13.56" style="fill:#ffa8a7"/><path d="M223.08 234s-3.37-5.38-1-10.55 12.06-11.92 23.11-7.12c10.5 4.57 9.57 16.65 9.61 22.12.07 5.18-31.72-4.45-31.72-4.45" style="fill:#263238"/><path d="M226.16 223.13c1.53-3 11.25-7.79 20.49-3.1s8.17 17.32 8.17 26v16c0 2.28-5.35 5.42-10.49 3.6l.37-23.37s1.44-14.27-3-17.69-15.54-1.44-15.54-1.44" style="fill:#263238"/><path d="M244.7 235.68c.6.36 1.46-.8 2.2-1.58s3.17-1.83 4.37.71-1.56 6.05-3.2 7.19a2.87 2.87 0 0 1-3.37.29l-.16 9.86s-2.43 5.34-8.25 6.13-4.63-4-2.72-6.37v-3.61a13.9 13.9 0 0 1-4.43.22c-.76-.2-2.58-2.39-3.75-4.84-1.31-2.76-3.5-7.65-1.55-15.92 2.09-8.88 11.63-9.15 17.33-5.57s3.53 13.49 3.53 13.49" style="fill:#ffa8a7"/><path d="M233.58 248.3s5.4-1.09 7.28-2.09a6.17 6.17 0 0 0 2.61-2.58 8.4 8.4 0 0 1-1.48 3c-1.38 1.76-8.41 3.06-8.41 3.06Z" style="fill:#f28f8f"/><path d="M233.64 235.45a1.09 1.09 0 1 0 1.08-1.13 1.1 1.1 0 0 0-1.08 1.13m1.15-4.09 2.31 1.28a1.39 1.39 0 0 0-.54-1.84 1.29 1.29 0 0 0-1.77.56m11.83-17.11.63 3.82a2 2 0 0 0 1.63-2.29 1.9 1.9 0 0 0-2.26-1.53" style="fill:#263238"/><path d="m251.24 216.14-3.54 1.54a2 2 0 0 0 2.61 1 1.88 1.88 0 0 0 .93-2.54" style="fill:#263238"/><path d="m234.38 242.13-2.47.93a1.29 1.29 0 0 0 1.68.82 1.39 1.39 0 0 0 .79-1.75" style="fill:#f28f8f"/><path d="m224 232.27 2.11-1.63a1.29 1.29 0 0 0-1.84-.28 1.4 1.4 0 0 0-.27 1.91m.65 2.87a1.08 1.08 0 1 0 1.08-1.13 1.11 1.11 0 0 0-1.08 1.13" style="fill:#263238"/><path d="m229.15 234.65.88 6.45-3.56-.5z" style="fill:#f28f8f"/><path d="M226.11 222.17s4.89 10.47 19.46 9c0 0 1.68-7.3-4.07-10.12s-12.63-2.98-15.39 1.12" style="fill:#263238"/><path d="M241.16 229.86c1.71.22 2.21 2.83 1.79 5s1.64 2.35 3.25 0a12.9 12.9 0 0 0 1.71-5.9Z" style="fill:#263238"/><path d="M222.11 311.26s8.88-6 11.47-7.19c0 0-5-1-7.42-4.28a12 12 0 0 0 2.1 4.28l-20.91 14.13Z" style="fill:#10b981"/><path d="M222.11 311.26s8.88-6 11.47-7.19c0 0-5-1-7.42-4.28a12 12 0 0 0 2.1 4.28l-20.91 14.13Z" style="opacity:.4"/><path d="m428.24 221.69-61.36-35.42c-1.58-.91-2.86-.18-2.86 1.65v86.33a6.33 6.33 0 0 0 2.86 5l61.36 35.42c1.58.91 2.86.17 2.86-1.65v-86.38a6.32 6.32 0 0 0-2.86-4.95" style="fill:#e0e0e0"/><path d="m349 258.55 19.49 11.26v-15.49l-19.07 2.2c-1.81.21-2 1.12-.42 2.03" style="fill:#e0e0e0"/><path d="m375.35 204.06 44.42 25.65a5.09 5.09 0 0 1 2.38 4c0 1.42-1.06 2-2.38 1.2l-44.42-25.64a5.11 5.11 0 0 1-2.38-4c.03-1.43 1.03-1.97 2.38-1.21m-.02 15.48 44.42 25.65a5.11 5.11 0 0 1 2.39 4c0 1.42-1.07 2-2.39 1.2l-44.42-25.64a5.14 5.14 0 0 1-2.38-4c.05-1.43 1.05-1.97 2.38-1.21m.02 15.46 44.42 25.65a5.09 5.09 0 0 1 2.38 3.95c0 1.43-1.06 2-2.38 1.21l-44.42-25.61a5.09 5.09 0 0 1-2.38-3.95c.03-1.43 1.03-1.97 2.38-1.25m0 15.53 44.42 25.64a5.11 5.11 0 0 1 2.38 4c0 1.43-1.06 2-2.38 1.21l-44.42-25.65a5.09 5.09 0 0 1-2.38-4c.03-1.42 1.03-1.96 2.38-1.2m0 15.47 44.42 25.65a5.09 5.09 0 0 1 2.38 4c0 1.42-1.06 2-2.38 1.2l-44.42-25.64a5.11 5.11 0 0 1-2.38-4c.03-1.41 1.03-1.95 2.38-1.21m-6.86-147.79v39.86a6.36 6.36 0 0 0 2.86 5l47.94 27.67c1.58.92 2.86.18 2.86-1.65v-39.9a6.33 6.33 0 0 0-2.86-5l-47.94-27.67c-1.57-.87-2.86-.14-2.86 1.69" style="fill:#f0f0f0"/><path d="m354.37 136 18.63 2.15v15.49L353.56 138a1.1 1.1 0 0 1 .81-2" style="fill:#f0f0f0"/><path d="M422.15 138.14a14.82 14.82 0 0 1 6.71 11.62c0 4.28-3 6-6.71 3.87a14.84 14.84 0 0 1-6.71-11.63c0-4.26 3.01-6 6.71-3.86" style="fill:#10b981"/><path d="M422.15 138.14a14.82 14.82 0 0 1 6.71 11.62c0 4.28-3 6-6.71 3.87a14.84 14.84 0 0 1-6.71-11.63c0-4.26 3.01-6 6.71-3.86" style="fill:#fff;opacity:.7000000000000001"/><path d="m379.82 129.57 31 17.9a5.12 5.12 0 0 1 2.38 4c0 1.42-1.07 2-2.38 1.2l-31-17.9a5.12 5.12 0 0 1-2.38-4c0-1.42 1.07-1.96 2.38-1.2m0 12.53 31 17.9a5.12 5.12 0 0 1 2.38 4c0 1.42-1.07 2-2.38 1.2l-31-17.9a5.12 5.12 0 0 1-2.38-4c0-1.42 1.07-1.96 2.38-1.2m0 12.53 31 17.9a5.12 5.12 0 0 1 2.38 4c0 1.42-1.07 2-2.38 1.2l-31-17.9a5.12 5.12 0 0 1-2.38-4c0-1.42 1.07-1.96 2.38-1.2" style="fill:#e6e6e6"/><path d="m177.83 170-61.35-35.42c-1.58-.91-2.86-.17-2.86 1.65v86.37a6.32 6.32 0 0 0 2.86 5l61.35 35.4c1.58.91 2.86.17 2.86-1.65V175a6.32 6.32 0 0 0-2.86-5" style="fill:#e0e0e0"/><path d="m124.94 152.42 44.42 25.64a5.11 5.11 0 0 1 2.39 4c0 1.43-1.07 2-2.39 1.21l-44.42-25.65a5.12 5.12 0 0 1-2.38-4c0-1.42 1.07-1.96 2.38-1.2m-.01 15.48 44.42 25.64a5.12 5.12 0 0 1 2.38 4c0 1.43-1.07 2-2.38 1.2l-44.42-25.64a5.09 5.09 0 0 1-2.38-4c0-1.42 1.06-1.96 2.38-1.2m.01 15.49L169.36 209a5.11 5.11 0 0 1 2.39 4c0 1.42-1.07 2-2.39 1.2l-44.42-25.64a5.14 5.14 0 0 1-2.38-4c0-1.39 1.07-1.93 2.38-1.17m0 15.49 44.42 25.65a5.1 5.1 0 0 1 2.39 3.95c0 1.43-1.07 2-2.39 1.21L124.94 204a5.12 5.12 0 0 1-2.38-3.95c0-1.39 1.07-1.93 2.38-1.17m0 15.5L169.36 240a5.11 5.11 0 0 1 2.39 4c0 1.42-1.07 2-2.39 1.2l-44.42-25.64a5.12 5.12 0 0 1-2.38-4c0-1.4 1.07-1.94 2.38-1.18" style="fill:#f0f0f0"/><path d="m176.22 251.73 17.45 10.07a1.09 1.09 0 0 0 1.4-1.61l-18.85-23.95Z" style="fill:#e0e0e0"/><path d="M68.9 249.88v39.86a6.33 6.33 0 0 0 2.86 5l47.94 27.67c1.58.91 2.86.18 2.86-1.65v-39.9a6.33 6.33 0 0 0-2.86-5l-47.94-27.63c-1.58-.92-2.86-.18-2.86 1.65" style="fill:#f0f0f0"/><path d="m137.27 310.39-19.18-19.93V306l18 6.25a1.11 1.11 0 0 0 1.18-1.86" style="fill:#f0f0f0"/><path d="M122.56 269.81a14.82 14.82 0 0 1 6.71 11.62c0 4.27-3 6-6.71 3.87a14.84 14.84 0 0 1-6.71-11.62c0-4.28 3.01-6.01 6.71-3.87" style="fill:#10b981"/><path d="M122.56 269.81a14.82 14.82 0 0 1 6.71 11.62c0 4.27-3 6-6.71 3.87a14.84 14.84 0 0 1-6.71-11.62c0-4.28 3.01-6.01 6.71-3.87" style="fill:#fff;opacity:.7000000000000001"/><path d="m80.23 261.24 31 17.9a5.12 5.12 0 0 1 2.38 4c0 1.42-1.07 2-2.39 1.2l-31-17.9a5.09 5.09 0 0 1-2.38-4c.01-1.44 1.07-1.96 2.39-1.2m0 12.53 31 17.9a5.12 5.12 0 0 1 2.38 4c0 1.42-1.07 2-2.39 1.2l-31-17.9a5.09 5.09 0 0 1-2.38-4c.01-1.42 1.07-1.97 2.39-1.2m0 12.53 31 17.9a5.12 5.12 0 0 1 2.38 4c0 1.42-1.07 2-2.39 1.2l-31-17.9a5.09 5.09 0 0 1-2.38-4c.01-1.42 1.07-1.96 2.39-1.2" style="fill:#e6e6e6"/><path d="M104.67 64v39.86a6.32 6.32 0 0 0 2.86 5l47.94 27.68c1.58.91 2.86.17 2.86-1.66V95a6.32 6.32 0 0 0-2.86-5l-47.94-27.65c-1.53-.91-2.86-.17-2.86 1.65" style="fill:#f0f0f0"/><path d="m173 124.52-19.18-19.94v15.49l18 6.25a1.1 1.1 0 0 0 1.18-1.8" style="fill:#f0f0f0"/><path d="M158.33 83.93A14.82 14.82 0 0 1 165 95.55c0 4.28-3 6-6.71 3.87a14.84 14.84 0 0 1-6.71-11.62c.04-4.27 3.05-6.01 6.75-3.87" style="fill:#10b981"/><path d="M158.33 83.93A14.82 14.82 0 0 1 165 95.55c0 4.28-3 6-6.71 3.87a14.84 14.84 0 0 1-6.71-11.62c.04-4.27 3.05-6.01 6.75-3.87" style="fill:#fff;opacity:.7000000000000001"/><path d="m116 75.36 31 17.9a5.12 5.12 0 0 1 2.38 4c0 1.42-1.07 2-2.38 1.2l-31-17.9a5.09 5.09 0 0 1-2.38-4c0-1.42 1.06-1.96 2.38-1.2m0 12.53 31 17.9a5.12 5.12 0 0 1 2.38 4c0 1.42-1.07 2-2.38 1.2l-31-17.9a5.09 5.09 0 0 1-2.38-4c0-1.42 1.06-1.96 2.38-1.2m0 12.53 31 17.9a5.12 5.12 0 0 1 2.38 4c0 1.42-1.07 2-2.38 1.2l-31-17.9a5.09 5.09 0 0 1-2.38-4c0-1.42 1.06-1.96 2.38-1.2" style="fill:#e6e6e6"/></svg>