<svg xmlns="http://www.w3.org/2000/svg" viewBox="0 0 500 500"><path d="M411.21 245.05c-89.62-51.74-234.44-51.74-323.48 0s-88.57 135.63 1 187.37 234.45 51.75 323.49 0 88.62-135.63-1.01-187.37" style="fill:#f5f5f5"/><path d="m93.61 336.32 74.82-43.17 90.89 52.45a3.57 3.57 0 0 1 0 6.18l-24.55 14.16c15.12-1.81 31.44.68 43.13 7.47 18.47 10.73 18.37 28.13-.21 38.87s-48.63 10.73-67.1 0c-11.7-6.8-15.94-16.27-12.75-25l-4.47 2.57a17.82 17.82 0 0 1-17.81 0L93.61 342.5a3.57 3.57 0 0 1 0-6.18m-2.28 78.16 49.9-28.81a2.21 2.21 0 0 0 0-3.83l-44-25.56a2.19 2.19 0 0 0-2.21 0L44 385.73a2.21 2.21 0 0 0 0 3.83l42.87 24.91a4.43 4.43 0 0 0 4.46.01M444.29 372c2.38 1.38 2.39 3.61 0 5l-9.73 5.61a9.47 9.47 0 0 1-8.61 0l-106.76-61.69c-2.39-1.37-2.4-3.61 0-5l9.73-5.62a9.47 9.47 0 0 1 8.61 0Zm-29.96 8.82c2.39 1.38 2.4 3.61 0 5l-9.73 5.62a9.47 9.47 0 0 1-8.61 0l-91.2-52.68c-2.38-1.37-2.4-3.61 0-5l9.73-5.62a9.47 9.47 0 0 1 8.61 0Z" style="fill:#e6e6e6"/><path d="M104.85 97.81 70 117.93l.08 26.63 34.84-20.12z" style="fill:none"/><path d="m104.85 97.81.07 26.63 3.23 1.88-.09-30.37z" style="fill:#f0f0f0"/><path d="m70.08 144.56.01 3.73 38.06-21.97-3.23-1.88z" style="fill:#f5f5f5"/><path d="m112 89.23-45.91 26.48.11 39.29 45.86-26.48Zm-41.91 59.06v-3.73L70 117.93l34.85-20.12 3.21-1.81.09 30.37Z" style="fill:#e0e0e0"/><path d="m111.95 89.23-3.23-1.88-45.86 26.48 3.23 1.87z" style="fill:#f5f5f5"/><path d="m62.86 113.83.11 39.32 3.23 1.88-.11-39.33z" style="fill:#f0f0f0"/><path d="m104.82 157.58-34.84 20.11.08 26.63 34.84-20.11z" style="fill:none"/><path d="m104.82 157.58.08 26.63 3.23 1.87-.09-30.36z" style="fill:#f0f0f0"/><path d="m70.06 204.32.01 3.74 38.06-21.98-3.23-1.87z" style="fill:#f5f5f5"/><path d="m111.93 149-45.86 26.47.11 39.32L112 188.31Zm-41.86 59.06v-3.74L70 177.69l34.84-20.11 3.22-1.86.09 30.36Z" style="fill:#e0e0e0"/><path d="m111.93 148.99-3.23-1.87-45.86 26.47 3.23 1.88z" style="fill:#f5f5f5"/><path d="m62.84 173.59.11 39.32 3.23 1.88-.11-39.32z" style="fill:#f0f0f0"/><path d="m93.78 107.92 9.5 7.49.02 7.3-31.61 18.25-.02-7.31 6.03-11.96 5.41 4.2-1.92 5.94 2.78-5.28z" style="fill:#e0e0e0"/><path d="M83.39 111.61c1.49-.86 2.7-.17 2.71 1.54a5.93 5.93 0 0 1-2.69 4.65c-1.49.86-2.7.17-2.7-1.54a5.92 5.92 0 0 1 2.68-4.65m10.36 56.08 9.5 7.48.03 7.31-31.61 18.25-.02-7.31 6.02-11.97 5.41 4.2-1.91 5.94 2.77-5.27z" style="fill:#e0e0e0"/><path d="M83.37 171.37c1.49-.86 2.7-.17 2.7 1.54a5.89 5.89 0 0 1-2.68 4.65c-1.49.86-2.7.17-2.7-1.54a5.89 5.89 0 0 1 2.68-4.65" style="fill:#e0e0e0"/><path d="M445.92 130.88a9.8 9.8 0 0 0-3.94-4.22l-102.66-58.4a4.6 4.6 0 0 0-1.48-.3c-5.28-.1-10.59 4.87-11.34 7.49a2.35 2.35 0 0 0-.26 1.07v221.95a9.81 9.81 0 0 0 4.96 8.53l102.66 58.5a3 3 0 0 0 .39.16c6.13 2.6 12.65-2.8 12.65-8.46v-222a9.8 9.8 0 0 0-.98-4.32" style="fill:#263238"/><path d="M326.51 75.46c.75-2.62 6.06-7.59 11.34-7.49a4.6 4.6 0 0 1 1.48.3L442 126.66a10 10 0 0 1 5 8.53v222c0 5.66-6.52 11.06-12.65 8.46a3 3 0 0 1-.39-.16L331.2 307a9.81 9.81 0 0 1-4.95-8.53V76.53a2.35 2.35 0 0 1 .26-1.07" style="fill:#455a64"/><path d="M432.62 158.66a4.94 4.94 0 0 0-2.48-4.27l-95.32-54.22a2.45 2.45 0 0 0-3.66 2.13v179.05a4.91 4.91 0 0 0 2.48 4.26L429 339.93a2.46 2.46 0 0 0 3.67-2.14Z" style="fill:#10b981"/><path d="M432.62 158.66a4.94 4.94 0 0 0-2.48-4.27l-95.32-54.22a2.45 2.45 0 0 0-3.66 2.13v179.05a4.91 4.91 0 0 0 2.48 4.26L429 339.93a2.46 2.46 0 0 0 3.67-2.14Z" style="opacity:.2"/><path d="M446.94 135.19v222c0 5.66-6.52 11.06-12.65 8.46a2.45 2.45 0 0 0 3.28-2.29v-222a9.8 9.8 0 0 0-1.66-5.42l10.05-5a9.8 9.8 0 0 1 .98 4.25" style="opacity:.30000000000000004"/><path d="M337.84 68a4.6 4.6 0 0 1 1.48.3L442 126.66a9.8 9.8 0 0 1 3.94 4.22l-10.05 5a9.9 9.9 0 0 0-3.3-3.12L329.92 74.39a2.45 2.45 0 0 0-3.41 1.07c.74-2.63 6.05-7.6 11.33-7.46" style="fill:#fff;opacity:.1"/><path d="M369.24 111.06c-.72-.42-1.32-.1-1.32.73a2.91 2.91 0 0 0 1.31 2.28l20.14 11.62c.72.42 1.3.07 1.3-.76a2.83 2.83 0 0 0-1.29-2.24Zm25.31 14.61c-.72-.41-1.31-.08-1.31.75a2.91 2.91 0 0 0 1.3 2.26c.72.42 1.32.07 1.32-.75a2.9 2.9 0 0 0-1.31-2.26m-12.89-16.3c-1.44-.83-2.61-.17-2.61 1.48a5.76 5.76 0 0 0 2.59 4.53c1.44.83 2.63.15 2.64-1.51a5.77 5.77 0 0 0-2.62-4.5m-.01 209.03c-2.93-1.69-5.3-.35-5.31 3a11.73 11.73 0 0 0 5.27 9.21c2.94 1.69 5.37.31 5.38-3.07a11.72 11.72 0 0 0-5.34-9.14" style="fill:#263238"/><path d="M417 166.74a9 9 0 0 0-.86-2.88 9 9 0 0 0-.67-1.14 8.9 8.9 0 0 0-2.91-2.7l-93.18-53-.14-.06a3 3 0 0 0-.38-.1 5 5 0 0 0-.83-.1 9.76 9.76 0 0 0-4.37 1 15 15 0 0 0-3.63 2.52l-.57.57a7.3 7.3 0 0 0-1.72 2.65 2.3 2.3 0 0 0-.17.46 1.7 1.7 0 0 0-.07.51V316a8.95 8.95 0 0 0 4.5 7.74l93.18 53.1a3 3 0 0 0 .36.14c5.56 2.36 11.48-2.54 11.48-7.68V167.77a9 9 0 0 0-.02-1.03" style="fill:#10b981"/><path d="M307.72 113.55c.68-2.37 5.5-6.89 10.29-6.79a4.1 4.1 0 0 1 1.35.26l93.18 53a9 9 0 0 1 3.58 3.84 8.85 8.85 0 0 1 .92 3.91v201.54c0 5.14-5.92 10-11.48 7.68a3 3 0 0 1-.36-.14L312 323.72a8.92 8.92 0 0 1-4.5-7.74V114.52a2.2 2.2 0 0 1 .22-.97" style="fill:#10b981"/><path d="M417 167.77v201.54c0 5.14-5.92 10-11.48 7.68a2.21 2.21 0 0 0 3-2.08V173.34a8.9 8.9 0 0 0-1.5-4.92l9.12-4.56a8.85 8.85 0 0 1 .86 3.91" style="fill:#fff;opacity:.2"/><path d="M318 106.75a4.1 4.1 0 0 1 1.35.26l93.18 53a9 9 0 0 1 3.58 3.84l-9.11 4.57a8.85 8.85 0 0 0-3-2.83l-93.18-53a2.21 2.21 0 0 0-3.09 1c.66-2.42 5.48-6.94 10.27-6.84" style="fill:#fff;opacity:.4"/><path d="M307.72 113.55c.68-2.37 5.5-6.89 10.29-6.79a4.1 4.1 0 0 1 1.35.26l93.18 53a9 9 0 0 1 3.58 3.84 8.85 8.85 0 0 1 .92 3.91v201.54c0 5.14-5.92 10-11.48 7.68a3 3 0 0 1-.36-.14L312 323.72a8.92 8.92 0 0 1-4.5-7.74V114.52a2.2 2.2 0 0 1 .22-.97" style="fill:#fff;opacity:.30000000000000004"/><path d="m316.88 125.47 1.04.61.02-4.49-1.05-.6zm-1.79-1.03 1.04.6.01-3.63-1.04-.6zm-1.8-1.04 1.04.6.01-2.69-1.04-.6zm-1.79-1.03 1.04.6v-1.82l-1.04-.6zm9.26 5.35 6.39 3.69.01-3.77-6.39-3.69zm9.57 5.52 3.19 1.84.01-3.76-3.19-1.84zm65.93 37.59.01-3.03 3.43 1.98-3.43-1.98z" style="fill:#fff"/><path d="m396.26 170.83 3.43 1.98.01-3.03-3.43-1.98z" style="fill:#10b981"/><path d="M402.12 171.63v-1.18l-6.48-3.74v4.48l6.48 3.74v-1.18l.83.48v-2.12Zm-2.43 1.18-3.43-2v-3l3.43 2Zm-13.33-7.29 6.39 3.68.01-3.76-6.39-3.69zm-30.49-17.83 6.39 3.69.01-3.76-6.39-3.69z" style="fill:#fff"/><path d="m391.48 183.51-93.89-54.21a2 2 0 0 0-1.87-.22h-.05l-2 1.14 1.23 1.22-.07 26.81v7.86a6 6 0 0 0 2.71 4.7L387.77 223l3.47 3.42 1.94-1.11a1 1 0 0 0 .2-.12h.09a2 2 0 0 0 .63-1.61v-7.86l.08-27.43a6 6 0 0 0-2.7-4.78" style="fill:#10b981"/><path d="m391.48 183.51-93.89-54.21a2 2 0 0 0-1.87-.22h-.05l-2 1.14 1.23 1.22-.07 26.81v7.86a6 6 0 0 0 2.71 4.7L387.77 223l3.47 3.42 1.94-1.11a1 1 0 0 0 .2-.12h.09a2 2 0 0 0 .63-1.61v-7.86l.08-27.43a6 6 0 0 0-2.7-4.78" style="opacity:.2"/><path d="M389.47 184.64a6 6 0 0 1 2.71 4.7l-.08 27.42-99.33-57.34v1.25L392.1 218v6.61c0 1.73-1.23 2.43-2.73 1.56L295.46 172a6 6 0 0 1-2.71-4.69l.1-35.29c0-1.72 1.22-2.42 2.73-1.56Z" style="fill:#10b981"/><path d="M392.1 216.76v1.25l-99.33-57.34v-1.25z" style="fill:#10b981"/><g style="opacity:.2"><path d="M392.1 216.76v1.25l-99.33-57.34v-1.25z" style="fill:#fff"/></g><g style="opacity:.6000000000000001"><path d="m343.58 193.14-.01 3.06-47.67-27.53.01-3.05z" style="fill:#fff"/></g><path d="M313.59 144.67a3.59 3.59 0 0 1 1.62 2.82v18.34c0 1-.73 1.45-1.64.93l-15.95-9.22a3.57 3.57 0 0 1-1.63-2.81l.05-18.34c0-1 .74-1.46 1.64-.94Z" style="fill:#fff"/><g style="opacity:.6000000000000001"><path d="m371.88 180.27-.01 4.01-50.51-29.16.01-4.01z" style="fill:#fff"/></g><g style="opacity:.6000000000000001"><path d="m349.53 181.46-.01 4.01-28.2-16.28.01-4.01z" style="fill:#fff"/></g><g style="opacity:.6000000000000001"><path d="m371.86 187.31-.01 4-50.51-29.16.01-4z" style="fill:#fff"/></g><g style="opacity:.5"><path d="m388.34 187.99-1.52 1.36 1.79 3.71-1.5-.87-1.08-2.34-.99 1.15-1.51-.88 1.83-1.61-1.46-3.08 1.48.85.78 1.72.68-.87z" style="fill:#fff"/></g><path d="m391.48 233.46-93.89-54.21a2 2 0 0 0-1.87-.21h-.05l-2 1.14 1.23 1.22-.07 26.81v7.86a6 6 0 0 0 2.71 4.69l90.3 52.14 3.47 3.42 1.94-1.12a1 1 0 0 0 .2-.11l.09-.05a2 2 0 0 0 .63-1.61v-7.87l.08-27.42a6 6 0 0 0-2.77-4.68" style="fill:#10b981"/><path d="m391.48 233.46-93.89-54.21a2 2 0 0 0-1.87-.21h-.05l-2 1.14 1.23 1.22-.07 26.81v7.86a6 6 0 0 0 2.71 4.69l90.3 52.14 3.47 3.42 1.94-1.12a1 1 0 0 0 .2-.11l.09-.05a2 2 0 0 0 .63-1.61v-7.87l.08-27.42a6 6 0 0 0-2.77-4.68" style="opacity:.2"/><path d="M389.47 234.6a6 6 0 0 1 2.71 4.7l-.08 27.42-99.33-57.34v1.24L392.1 268v6.61c0 1.73-1.23 2.43-2.73 1.56l-93.89-54.21a6 6 0 0 1-2.71-4.69l.1-35.29c0-1.73 1.22-2.43 2.73-1.56Z" style="fill:#10b981"/><path d="M392.1 266.72v1.25l-99.33-57.35v-1.24z" style="fill:#10b981"/><g style="opacity:.2"><path d="M392.1 266.72v1.25l-99.33-57.35v-1.24z" style="fill:#fff"/></g><path d="M313.59 194.63a3.59 3.59 0 0 1 1.62 2.82v18.33c0 1-.73 1.45-1.64.94l-15.95-9.22a3.57 3.57 0 0 1-1.63-2.82l.05-18.33c0-1 .74-1.46 1.64-.94Z" style="fill:#fff"/><g style="opacity:.6000000000000001"><path d="m371.88 230.23-.01 4.01-50.51-29.17.01-4.01z" style="fill:#fff"/></g><g style="opacity:.5"><path d="m388.34 237.95-1.52 1.36 1.79 3.7-1.5-.86-1.08-2.34-.99 1.14-1.51-.87 1.83-1.61-1.46-3.08 1.48.85.78 1.72.68-.87z" style="fill:#fff"/></g><path d="m295.91 215.58-.01 3.05 27.71 16v-3.06zm25.44-7.48-.01 4.01 24.09 13.9V222z" style="fill:#fff;opacity:.6000000000000001"/><path d="m391.48 334.07-93.89-54.21a2 2 0 0 0-1.87-.22h-.05l-2 1.14 1.23 1.22-.07 26.81v7.86a6 6 0 0 0 2.71 4.7l90.3 52.13 3.47 3.42 1.94-1.11.2-.11.09-.06a2 2 0 0 0 .63-1.61v-7.86l.08-27.43a6 6 0 0 0-2.77-4.67" style="fill:#10b981"/><path d="m391.48 334.07-93.89-54.21a2 2 0 0 0-1.87-.22h-.05l-2 1.14 1.23 1.22-.07 26.81v7.86a6 6 0 0 0 2.71 4.7l90.3 52.13 3.47 3.42 1.94-1.11.2-.11.09-.06a2 2 0 0 0 .63-1.61v-7.86l.08-27.43a6 6 0 0 0-2.77-4.67" style="opacity:.2"/><path d="M389.47 335.21a6 6 0 0 1 2.71 4.69l-.08 27.43L292.77 310v1.25l99.33 57.34v6.62c0 1.72-1.23 2.42-2.73 1.56l-93.89-54.21a6 6 0 0 1-2.71-4.7l.1-35.28c0-1.73 1.22-2.43 2.73-1.56Z" style="fill:#10b981"/><path d="M392.1 367.33v1.24l-99.33-57.34v-1.25z" style="fill:#10b981"/><g style="opacity:.2"><path d="M392.1 367.33v1.24l-99.33-57.34v-1.25z" style="fill:#fff"/></g><path d="M313.59 295.23a3.6 3.6 0 0 1 1.62 2.82v18.34c0 1-.73 1.45-1.64.93l-15.95-9.21a3.59 3.59 0 0 1-1.63-2.82L296 287c0-1 .74-1.45 1.64-.93Z" style="fill:#fff"/><g style="opacity:.6000000000000001"><path d="m371.88 330.83-.01 4.01-50.51-29.16.01-4.01z" style="fill:#fff"/></g><g style="opacity:.5"><path d="m388.34 338.56-1.52 1.36 1.79 3.7-1.5-.86-1.08-2.34-.99 1.14-1.51-.87 1.83-1.62-1.46-3.08 1.48.86.78 1.72.68-.88z" style="fill:#fff"/></g><path d="m295.91 316.18-.01 3.06 27.71 15.99v-3.06zm25.44-7.47-.01 4 10.89 6.28v-4.01z" style="fill:#fff;opacity:.6000000000000001"/><path d="m391.48 283.42-93.89-54.21a1.94 1.94 0 0 0-1.87-.21h-.05l-2 1.15 1.23 1.21-.07 26.82v7.86a6 6 0 0 0 2.71 4.69l90.3 52.14 3.47 3.42 1.94-1.12.2-.11.09-.05a2 2 0 0 0 .63-1.62v-7.86l.08-27.42a6 6 0 0 0-2.77-4.69" style="fill:#10b981"/><path d="m391.48 283.42-93.89-54.21a1.94 1.94 0 0 0-1.87-.21h-.05l-2 1.15 1.23 1.21-.07 26.82v7.86a6 6 0 0 0 2.71 4.69l90.3 52.14 3.47 3.42 1.94-1.12.2-.11.09-.05a2 2 0 0 0 .63-1.62v-7.86l.08-27.42a6 6 0 0 0-2.77-4.69" style="opacity:.2"/><path d="M389.47 284.56a6 6 0 0 1 2.71 4.69l-.08 27.43-99.33-57.35v1.25l99.33 57.35v6.61c0 1.73-1.23 2.42-2.73 1.56l-93.89-54.21a6 6 0 0 1-2.71-4.69l.1-35.29c0-1.73 1.22-2.43 2.73-1.56Z" style="fill:#10b981"/><path d="M392.1 316.68v1.25l-99.33-57.35v-1.25z" style="fill:#10b981"/><g style="opacity:.2"><path d="M392.1 316.68v1.25l-99.33-57.35v-1.25z" style="fill:#fff"/></g><g style="opacity:.6000000000000001"><path d="m331.36 286.11-.01 3.05-35.45-20.57.01-3.05z" style="fill:#fff"/></g><path d="M313.59 244.58a3.6 3.6 0 0 1 1.62 2.82v18.34c0 1-.73 1.45-1.64.93l-15.95-9.21a3.57 3.57 0 0 1-1.63-2.82l.05-18.33c0-1 .74-1.46 1.64-.94Z" style="fill:#fff"/><g style="opacity:.6000000000000001"><path d="m371.88 280.18-.01 4.01-50.51-29.16.01-4.01z" style="fill:#fff"/></g><g style="opacity:.6000000000000001"><path d="m362.97 289.22-.01 4.01-41.64-24.12.01-4.01z" style="fill:#fff"/></g><g style="opacity:.6000000000000001"><path d="m371.86 287.22-.01 4.01-50.51-29.16.01-4.01z" style="fill:#fff"/></g><g style="opacity:.5"><path d="m388.34 287.91-1.52 1.36 1.79 3.7-1.5-.86-1.08-2.34-.99 1.14-1.51-.87 1.83-1.61-1.46-3.08 1.48.85.78 1.72.68-.87z" style="fill:#fff"/></g><path d="m284.44 129.93-16.74-9.6c-1.46-.84-4.93.3-4.93 2.66a1.09 1.09 0 0 1 1.63-.95l16.73 9.6a3.17 3.17 0 0 1 1.27 1.36l3.25-1.85a3.25 3.25 0 0 0-1.21-1.22" style="fill:#10b981"/><path d="M282.4 133a3.2 3.2 0 0 1 .37 1.46v19.21a1.09 1.09 0 0 1-1.63.94 3.23 3.23 0 0 0 4.94-2.65v-19.2a3.3 3.3 0 0 0-.43-1.6Z" style="fill:#10b981"/><path d="m284.44 129.93-16.74-9.6c-1.46-.84-4.93.3-4.93 2.66a1.09 1.09 0 0 1 1.63-.95l16.73 9.6a3.17 3.17 0 0 1 1.27 1.36l3.25-1.85a3.25 3.25 0 0 0-1.21-1.22" style="fill:#fff;opacity:.4"/><path d="M282.4 133a3.2 3.2 0 0 1 .37 1.46v19.21a1.09 1.09 0 0 1-1.63.94 3.23 3.23 0 0 0 4.94-2.65v-19.2a3.3 3.3 0 0 0-.43-1.6Z" style="fill:#fff;opacity:.2"/><path d="m264.4 122 16.73 9.6a3.25 3.25 0 0 1 1.64 2.83v19.21a1.09 1.09 0 0 1-1.63.94l-16.73-9.56a3.25 3.25 0 0 1-1.64-2.83V123a1.09 1.09 0 0 1 1.63-1m22.4 22.87-4 .75v-5.16l4.16 3.94a.28.28 0 0 1-.16.47" style="fill:#10b981"/><path d="m282.78 140.46 3.3-1.89 4.16 4a.28.28 0 0 1-.06.44l-3.29 1.84Z" style="fill:#10b981"/><path d="m282.78 140.46 3.3-1.89 4.16 4a.28.28 0 0 1-.06.44l-3.29 1.84Z" style="fill:#fff;opacity:.2"/><path d="M270.71 143.5a4.36 4.36 0 0 0 1.77 2.71h.08c.91.53 1.8.27 1.91-.58Zm-2.63-4.36a3.4 3.4 0 0 0 .48-1.63c.06-.84.08-1.71.11-2.57.06-1.77.77-2.7 2.15-2.78.33 0 .4-.13.35-.59-.09-.77.13-1.23.65-1.32a1.2 1.2 0 0 1 .8.17 2.6 2.6 0 0 1 .81.76 2.8 2.8 0 0 1 .64 2.06 1 1 0 0 0 .34 1 8.9 8.9 0 0 1 2 4.28 12 12 0 0 1 .09 1.58 18 18 0 0 0 .18 2.77 7 7 0 0 0 1 2.75 1.42 1.42 0 0 1 .27.86c0 .45-.18.56-.59.33l-4.78-2.81-3.89-2.25-.5-.29-.51-.29a1 1 0 0 1-.43-.51c-.16-.39-.09-.88.15-1a1.4 1.4 0 0 0 .68-.52m3.7-.1 1.63.94.42-4.25-2.44-1.41zm.81 3.35c.7.41 1.19.13 1.19-.56a2.39 2.39 0 0 0-1.19-1.91c-.7-.4-1.19-.16-1.19.54a2.43 2.43 0 0 0 1.19 1.93m0-10.83c-.27-.16-.5 0-.5.29a1.14 1.14 0 0 0 .5.85.3.3 0 0 0 .48-.28 1 1 0 0 0-.49-.86" style="fill:#fff"/><path d="m284.44 181.75-16.74-9.6c-1.46-.84-4.93.3-4.93 2.65a1.09 1.09 0 0 1 1.63-.94l16.73 9.6a3.17 3.17 0 0 1 1.27 1.37l3.25-1.85a3.25 3.25 0 0 0-1.21-1.23m-2.04 3.08a3.2 3.2 0 0 1 .37 1.46v19.21a1.09 1.09 0 0 1-1.63.94 3.23 3.23 0 0 0 4.94-2.66v-19.2a3.27 3.27 0 0 0-.43-1.6Z" style="fill:#10b981"/><path d="m284.44 181.75-16.74-9.6c-1.46-.84-4.93.3-4.93 2.65a1.09 1.09 0 0 1 1.63-.94l16.73 9.6a3.17 3.17 0 0 1 1.27 1.37l3.25-1.85a3.25 3.25 0 0 0-1.21-1.23" style="fill:#fff;opacity:.4"/><path d="M282.4 184.83a3.2 3.2 0 0 1 .37 1.46v19.21a1.09 1.09 0 0 1-1.63.94 3.23 3.23 0 0 0 4.94-2.66v-19.2a3.27 3.27 0 0 0-.43-1.6Z" style="fill:#fff;opacity:.2"/><path d="m264.4 173.86 16.73 9.6a3.25 3.25 0 0 1 1.64 2.83v19.21a1.09 1.09 0 0 1-1.63.94l-16.73-9.56a3.25 3.25 0 0 1-1.64-2.84V174.8a1.09 1.09 0 0 1 1.63-.94m22.4 22.83-4 .75v-5.16l4.16 3.94a.28.28 0 0 1-.16.47" style="fill:#10b981"/><path d="m282.78 192.28 3.3-1.89 4.16 4a.28.28 0 0 1-.06.44l-3.29 1.84Z" style="fill:#10b981"/><path d="m282.78 192.28 3.3-1.89 4.16 4a.28.28 0 0 1-.06.44l-3.29 1.84Z" style="fill:#fff;opacity:.2"/><path d="M270.71 195.31a4.36 4.36 0 0 0 1.77 2.72h.08c.91.53 1.8.26 1.91-.58Zm-2.63-4.31a3.33 3.33 0 0 0 .48-1.62c.06-.84.08-1.71.11-2.57.06-1.78.77-2.7 2.15-2.78.33 0 .4-.13.35-.59-.09-.77.13-1.23.65-1.32a1.13 1.13 0 0 1 .8.17 2.6 2.6 0 0 1 .81.76 2.8 2.8 0 0 1 .64 2.06 1 1 0 0 0 .34 1 8.9 8.9 0 0 1 2 4.28 12 12 0 0 1 .09 1.58 18 18 0 0 0 .18 2.77 7 7 0 0 0 1 2.75 1.42 1.42 0 0 1 .27.86c0 .45-.18.56-.59.33l-4.83-2.79-3.89-2.25-.5-.29-.51-.29a1 1 0 0 1-.43-.51c-.16-.39-.09-.88.15-1a1.36 1.36 0 0 0 .73-.55m3.7-.09 1.63.93.42-4.24-2.44-1.41zm.81 3.35c.7.4 1.19.13 1.19-.56a2.39 2.39 0 0 0-1.19-1.91c-.7-.41-1.19-.16-1.19.54a2.43 2.43 0 0 0 1.19 1.93m0-10.83c-.27-.16-.5 0-.5.28a1.14 1.14 0 0 0 .5.86.3.3 0 0 0 .48-.28 1 1 0 0 0-.49-.86" style="fill:#fff"/><path d="M284.44 233.57 267.7 224c-1.46-.84-4.93.3-4.93 2.65a1.09 1.09 0 0 1 1.63-.94l16.73 9.6a3.17 3.17 0 0 1 1.27 1.37l3.25-1.85a3.25 3.25 0 0 0-1.21-1.26" style="fill:#10b981"/><path d="M282.4 236.65a3.2 3.2 0 0 1 .37 1.46v19.2a1.09 1.09 0 0 1-1.63.95 3.23 3.23 0 0 0 4.94-2.66v-19.2a3.27 3.27 0 0 0-.43-1.6Z" style="fill:#10b981"/><path d="M284.44 233.57 267.7 224c-1.46-.84-4.93.3-4.93 2.65a1.09 1.09 0 0 1 1.63-.94l16.73 9.6a3.17 3.17 0 0 1 1.27 1.37l3.25-1.85a3.25 3.25 0 0 0-1.21-1.26" style="fill:#fff;opacity:.4"/><path d="M282.4 236.65a3.2 3.2 0 0 1 .37 1.46v19.2a1.09 1.09 0 0 1-1.63.95 3.23 3.23 0 0 0 4.94-2.66v-19.2a3.27 3.27 0 0 0-.43-1.6Z" style="fill:#fff;opacity:.2"/><path d="m264.4 225.68 16.73 9.6a3.25 3.25 0 0 1 1.64 2.83v19.2a1.09 1.09 0 0 1-1.63.95l-16.73-9.56a3.26 3.26 0 0 1-1.64-2.84v-19.24a1.09 1.09 0 0 1 1.63-.94m22.4 22.83-4 .75v-5.16l4.16 3.93a.28.28 0 0 1-.16.48" style="fill:#10b981"/><path d="m282.78 244.1 3.3-1.89 4.16 4a.28.28 0 0 1-.06.44l-3.29 1.84Z" style="fill:#10b981"/><path d="m282.78 244.1 3.3-1.89 4.16 4a.28.28 0 0 1-.06.44l-3.29 1.84Z" style="fill:#fff;opacity:.2"/><path d="M270.71 247.13a4.3 4.3 0 0 0 1.77 2.71h.08c.91.52 1.8.26 1.91-.58Zm-2.63-4.36a3.33 3.33 0 0 0 .48-1.62c.06-.84.08-1.71.11-2.57.06-1.78.77-2.7 2.15-2.78.33 0 .4-.13.35-.59-.09-.77.13-1.23.65-1.32a1.13 1.13 0 0 1 .8.17 2.6 2.6 0 0 1 .81.76 2.8 2.8 0 0 1 .64 2.06 1 1 0 0 0 .34 1 8.9 8.9 0 0 1 2 4.28 12 12 0 0 1 .09 1.58 17.5 17.5 0 0 0 .18 2.76 7.1 7.1 0 0 0 1 2.76 1.4 1.4 0 0 1 .27.86c0 .45-.18.56-.59.33l-4.83-2.79-3.89-2.25-.5-.29-.51-.29a1 1 0 0 1-.43-.52c-.16-.38-.09-.87.15-1a1.36 1.36 0 0 0 .73-.54m3.7-.09 1.63.93.42-4.24-2.44-1.37.39 4.72m.81 3.35c.7.4 1.19.12 1.19-.56a2.39 2.39 0 0 0-1.19-1.91c-.7-.41-1.19-.16-1.19.53a2.43 2.43 0 0 0 1.19 1.94m0-10.83c-.27-.16-.5 0-.5.28a1.1 1.1 0 0 0 .5.85c.26.15.48 0 .48-.29a1 1 0 0 0-.49-.85" style="fill:#fff"/><path d="m284.44 285.39-16.74-9.6c-1.46-.85-4.93.29-4.93 2.65a1.08 1.08 0 0 1 1.63-.94l16.73 9.6a3.17 3.17 0 0 1 1.27 1.37l3.25-1.85a3.2 3.2 0 0 0-1.21-1.23m-2.04 3.08a3.2 3.2 0 0 1 .37 1.46v19.2a1.09 1.09 0 0 1-1.63.95 3.23 3.23 0 0 0 4.94-2.66v-19.2a3.27 3.27 0 0 0-.43-1.6Z" style="fill:#10b981"/><path d="m284.44 285.39-16.74-9.6c-1.46-.85-4.93.29-4.93 2.65a1.08 1.08 0 0 1 1.63-.94l16.73 9.6a3.17 3.17 0 0 1 1.27 1.37l3.25-1.85a3.2 3.2 0 0 0-1.21-1.23" style="fill:#fff;opacity:.4"/><path d="M282.4 288.47a3.2 3.2 0 0 1 .37 1.46v19.2a1.09 1.09 0 0 1-1.63.95 3.23 3.23 0 0 0 4.94-2.66v-19.2a3.27 3.27 0 0 0-.43-1.6Z" style="fill:#fff;opacity:.2"/><path d="m264.4 277.5 16.73 9.6a3.25 3.25 0 0 1 1.64 2.83v19.2a1.09 1.09 0 0 1-1.63.95l-16.73-9.56a3.26 3.26 0 0 1-1.64-2.84v-19.24a1.08 1.08 0 0 1 1.63-.94m22.4 22.83-4 .75v-5.16l4.16 3.93a.28.28 0 0 1-.16.48" style="fill:#10b981"/><path d="m282.78 295.92 3.3-1.89 4.16 4a.28.28 0 0 1-.06.44l-3.29 1.84Z" style="fill:#10b981"/><path d="m282.78 295.92 3.3-1.89 4.16 4a.28.28 0 0 1-.06.44l-3.29 1.84Z" style="fill:#fff;opacity:.2"/><path d="M270.71 299a4.3 4.3 0 0 0 1.77 2.71h.08c.91.52 1.8.26 1.91-.59Zm-2.63-4.41a3.33 3.33 0 0 0 .48-1.62c.06-.85.08-1.71.11-2.58.06-1.77.77-2.69 2.15-2.77.33 0 .4-.13.35-.6-.09-.77.13-1.22.65-1.31a1.18 1.18 0 0 1 .8.16 2.8 2.8 0 0 1 .81.77 2.8 2.8 0 0 1 .64 2.06 1 1 0 0 0 .34 1 8.85 8.85 0 0 1 2 4.28 12 12 0 0 1 .09 1.58 17.6 17.6 0 0 0 .18 2.76 7 7 0 0 0 1 2.75 1.43 1.43 0 0 1 .27.87c0 .45-.18.56-.59.33l-4.83-2.79-3.89-2.25-.5-.29-.51-.3a1 1 0 0 1-.43-.51c-.16-.38-.09-.87.15-1a1.42 1.42 0 0 0 .73-.54m3.7-.1 1.63.94.42-4.24-2.44-1.41zm.81 3.36c.7.4 1.19.12 1.19-.56a2.36 2.36 0 0 0-1.19-1.91c-.7-.41-1.19-.16-1.19.53a2.43 2.43 0 0 0 1.19 1.94m0-10.84a.31.31 0 0 0-.5.29 1.1 1.1 0 0 0 .5.85c.26.15.48 0 .48-.29a1.06 1.06 0 0 0-.49-.86" style="fill:#fff"/><path d="m257.61 325.18-1.91-20.08-2.76-28.92a17.05 17.05 0 0 0-6.52-11.84l-58.84-45.57-3.22-12a3.4 3.4 0 0 0-.65-1.28 1 1 0 0 0-.13-.14c-3-3.66-7.12-6.77-12.34-6.82h-.28a3 3 0 0 0-.85.12 3.2 3.2 0 0 0-.82.34l-57.13 33a9.4 9.4 0 0 0-1.15.8 8 8 0 0 0-1 .95 8 8 0 0 0-.78 1.1 8 8 0 0 0-.59 1.22 8 8 0 0 0-.36 1.2 7.3 7.3 0 0 0-.17 1.24 9 9 0 0 0 0 1.24 8 8 0 0 0 .23 1.26l11.37 42.36-4.88-2.92-21 55.74c.78 1.92 2.76.85 2.76.85l6.07-12.74a5.1 5.1 0 0 1 7.16-2.23L174 359.07a13.59 13.59 0 0 1 6.63 9.54l.82 4.84h4l-.19-2a13.61 13.61 0 0 1 6.74-13.07l55.48-31.94a4.32 4.32 0 0 1 6.41 3l3 17.79a2.29 2.29 0 0 0 2.8-.25Zm-16.74-54.91a8.51 8.51 0 0 1 4 5.88l3.61 21.41a3.4 3.4 0 0 0-1.09-1l-46.4-27a7.6 7.6 0 0 0-.26-1.74l-6.91-25.74ZM119.8 283.69l2.82 10.52-4 2.33a3.26 3.26 0 0 0-1.45 1.7c-1.66 3.06-2.25 9.87-.14 14.48l-1.53-.87a7.75 7.75 0 0 1-3.34-9.71l1.52-3.65Zm130.42 24.57v-.34l.05.29Z" style="fill:#455a64"/><path d="m170.45 348.71-56.08-32.8a8.52 8.52 0 0 1-3.56-10.62l2.83-6.8-1.52 3.65a7.75 7.75 0 0 0 3.34 9.71l61 34.51a4.09 4.09 0 0 1-6.01 2.35" style="fill:#37474f"/><path d="m114.85 280.53 5 3-6.22 15-2.83 6.8a8.52 8.52 0 0 0 3.56 10.62l56.08 32.8a4.09 4.09 0 0 0 6-2.35l4 2.25 75.26-43.55 2.43 25.5-3.95.59-.29-1.73a4.32 4.32 0 0 0-6.41-3L192 358.38a13.61 13.61 0 0 0-6.76 13.09l.19 2h-4l-.82-4.84a13.59 13.59 0 0 0-6.63-9.54l-64.1-36.92a5.1 5.1 0 0 0-7.16 2.23l-6.07 12.74s-2 1.07-2.76-.85Z" style="fill:#455a64"/><path d="m186.16 217.66 60.26 46.68a17.05 17.05 0 0 1 6.52 11.84l6.75 70.82a2.29 2.29 0 0 1-2.8.25l-12-71.1a8.51 8.51 0 0 0-4-5.88l-53.26-31.92c-6.98-4.15-8.2-18.82-1.47-20.69" style="fill:#455a64"/><path d="m186.16 217.66 60.26 46.68a17.05 17.05 0 0 1 6.52 11.84l6.75 70.82a2.29 2.29 0 0 1-2.8.25l-12-71.1a8.51 8.51 0 0 0-4-5.88l-53.26-31.92c-6.98-4.15-8.2-18.82-1.47-20.69" style="fill:#fff;opacity:.30000000000000004"/><path d="M117.13 298.24a3.26 3.26 0 0 1 1.45-1.7L179 261.66a8.37 8.37 0 0 1 8.41 0l60 34.86a3.27 3.27 0 0 1 1.45 1.72c1.72 3.18 2.3 10.4-.1 15a3.76 3.76 0 0 1-1.37 1.46L187 349.58a8.4 8.4 0 0 1-8.41 0l-60-34.86a3.36 3.36 0 0 1-1.35-1.48c-2.41-4.6-1.83-11.82-.11-15" style="fill:#10b981"/><path d="M117.13 298.24a3.26 3.26 0 0 1 1.45-1.7L179 261.66a8.37 8.37 0 0 1 8.41 0l60 34.86a3.27 3.27 0 0 1 1.45 1.72c1.72 3.18 2.3 10.4-.1 15a3.76 3.76 0 0 1-1.37 1.46L187 349.58a8.4 8.4 0 0 1-8.41 0l-60-34.86a3.36 3.36 0 0 1-1.35-1.48c-2.41-4.6-1.83-11.82-.11-15" style="fill:#fff;opacity:.30000000000000004"/><path d="M117.13 298.24a3.36 3.36 0 0 0 1.44 4.11l60 34.86a8.4 8.4 0 0 0 8.41 0l60.42-34.89a3.34 3.34 0 0 0 1.46-4.08c1.72 3.18 2.3 10.4-.1 15a3.76 3.76 0 0 1-1.37 1.46L187 349.58a8.4 8.4 0 0 1-8.41 0l-60-34.86a3.36 3.36 0 0 1-1.35-1.48c-2.41-4.6-1.83-11.82-.11-15" style="opacity:.30000000000000004"/><path d="m112.14 232 57.13-33a3.4 3.4 0 0 1 1.67-.46h.28c5.22.05 9.31 3.16 12.34 6.82a1 1 0 0 1 .13.14 3.4 3.4 0 0 1 .65 1.28l16.39 61A8.13 8.13 0 0 1 197 277l-57.12 33a3.43 3.43 0 0 1-2 .45c-6.54-.68-10.39-4.72-12.32-6.85a3.5 3.5 0 0 1-.77-1.43l-16.39-61a8.13 8.13 0 0 1 3.74-9.17" style="fill:#10b981"/><path d="m112.14 232 57.13-33a3.4 3.4 0 0 1 1.67-.46h.28c5.22.05 9.31 3.16 12.34 6.82a1 1 0 0 1 .13.14 3.4 3.4 0 0 1 .65 1.28l16.39 61A8.13 8.13 0 0 1 197 277l-57.12 33a3.43 3.43 0 0 1-2 .45c-6.54-.68-10.39-4.72-12.32-6.85a3.5 3.5 0 0 1-.77-1.43l-16.39-61a8.13 8.13 0 0 1 3.74-9.17" style="fill:#fff;opacity:.2"/><path d="m112.14 232 57.13-33a3.4 3.4 0 0 1 1.67-.46h.28c5.22.05 9.31 3.16 12.34 6.82a3.46 3.46 0 0 0-4.29-.66l-57.13 33a8.13 8.13 0 0 0-3.53 4.18l-10-5.76a8.14 8.14 0 0 1 3.53-4.12" style="opacity:.1"/><path d="M118.61 241.83a8.06 8.06 0 0 0-.25 5l16.39 61a3.46 3.46 0 0 0 3.08 2.56c-6.54-.68-10.39-4.72-12.32-6.85a3.5 3.5 0 0 1-.77-1.43l-16.39-61a8.1 8.1 0 0 1 .27-5Z" style="opacity:.2"/><path d="M238.59 342.38a65.5 65.5 0 0 0-1.13 10.62l-2.46-1a6.47 6.47 0 0 0-7 1.58l-.12.13a2.52 2.52 0 0 1-3.49.16 2.5 2.5 0 0 1-.86-1.82l-.34-10.68Z" style="fill:#ffa8a7"/><path d="M228.91 382.05c5.2 5.57 14.79 10.44 21.75 5.69l-.78 1.77c-7 4.75-16.55-.12-21.75-5.68s-1.83-9.43-6.51-14.37a16.9 16.9 0 0 1-4.05-6c.21-.53.4-1.23.65-2a21.3 21.3 0 0 0 4.18 6.26c4.68 4.91 1.3 8.77 6.51 14.33" style="fill:#fff"/><path d="M220.78 355.61a10 10 0 0 0 1.64-3.8 2.22 2.22 0 0 1 1-1.54l.06 1.79a2.52 2.52 0 0 0 4.35 1.66l.12-.13a6.47 6.47 0 0 1 7-1.58l2.55 1a2 2 0 0 1 1.27 1.87c-.17 7.3 3.24 17 6.82 22.32 3.68 1.53 6.85 6.54 5.23 10.21l-.16.37c-7 4.75-16.55-.12-21.75-5.69s-1.83-9.42-6.51-14.36a21.3 21.3 0 0 1-4.18-6.26 23 23 0 0 1 2.56-5.86" style="fill:#10b981"/><path d="M220.78 355.61a10 10 0 0 0 1.64-3.8 2.22 2.22 0 0 1 1-1.54l.06 1.79a2.52 2.52 0 0 0 4.35 1.66l.12-.13a6.47 6.47 0 0 1 7-1.58l2.55 1a2 2 0 0 1 1.27 1.87c-.17 7.3 3.24 17 6.82 22.32 3.68 1.53 6.85 6.54 5.23 10.21l-.16.37c-7 4.75-16.55-.12-21.75-5.69s-1.83-9.42-6.51-14.36a21.3 21.3 0 0 1-4.18-6.26 23 23 0 0 1 2.56-5.86" style="fill:#fff;opacity:.2"/><path d="M231 366.15a.88.88 0 0 1-1.18-.4.87.87 0 0 1 .36-1.18 10.15 10.15 0 0 1 10 0c.15.57.32 1.14.49 1.71a9.78 9.78 0 0 0-9.67-.13m-1.31-3.95a.89.89 0 0 1-.82-1.58 10.68 10.68 0 0 1 10.4.09c.1.59.23 1.19.36 1.79-3.04-1.6-6.1-2.24-9.94-.3m2.68 7.88a.89.89 0 0 1-1.18-.4.88.88 0 0 1 .37-1.18 10.14 10.14 0 0 1 9.78-.1c.22.62.45 1.22.69 1.82a9.78 9.78 0 0 0-9.66-.14m13.22 7.08c3.68 1.53 6.85 6.54 5.23 10.21l-.16.37c-6.86 4.68-16.25 0-21.51-5.44 4.38-8.59 13.54-6.45 16.44-5.14m-11.68-3.25a.88.88 0 0 1-1.18-.4.89.89 0 0 1 .36-1.18 10.17 10.17 0 0 1 9.81-.08c.31.68.63 1.33 1 2-3.08-1.64-6.14-2.25-9.99-.34" style="fill:#fff"/><path d="M249.53 363.6a65 65 0 0 0 3.23 10.13l-2.67.15a6.46 6.46 0 0 0-5.74 4.27l-.06.16a2.52 2.52 0 0 1-3.13 1.55 2.47 2.47 0 0 1-1.52-1.31l-4.64-9.64Z" style="fill:#ffa8a7"/><path d="M256.69 403.81c7 3 17.74 3.58 22.19-3.58v1.94c-4.45 7.15-15.18 6.57-22.19 3.58s-5.48-7.89-11.76-10.52a17 17 0 0 1-6.13-3.87c0-.57-.12-1.28-.22-2.11a21.4 21.4 0 0 0 6.35 4.05c6.28 2.63 4.75 7.52 11.76 10.51" style="fill:#fff"/><path d="M238.58 382.9a10 10 0 0 0 0-4.14 2.24 2.24 0 0 1 .32-1.83l.78 1.62a2.47 2.47 0 0 0 1.52 1.31 2.52 2.52 0 0 0 3.13-1.55l.06-.16a6.46 6.46 0 0 1 5.74-4.27l2.72-.15a2 2 0 0 1 1.91 1.21c2.8 6.74 9.83 14.23 15.25 17.67 4-.1 8.91 3.21 8.91 7.22v.4c-4.45 7.16-15.18 6.57-22.19 3.58s-5.48-7.88-11.76-10.51a21.4 21.4 0 0 1-6.35-4.05 23 23 0 0 1-.04-6.35" style="fill:#10b981"/><path d="M238.58 382.9a10 10 0 0 0 0-4.14 2.24 2.24 0 0 1 .32-1.83l.78 1.62a2.47 2.47 0 0 0 1.52 1.31 2.52 2.52 0 0 0 3.13-1.55l.06-.16a6.46 6.46 0 0 1 5.74-4.27l2.72-.15a2 2 0 0 1 1.91 1.21c2.8 6.74 9.83 14.23 15.25 17.67 4-.1 8.91 3.21 8.91 7.22v.4c-4.45 7.16-15.18 6.57-22.19 3.58s-5.48-7.88-11.76-10.51a21.4 21.4 0 0 1-6.35-4.05 23 23 0 0 1-.04-6.35" style="fill:#fff;opacity:.2"/><path d="M252.15 388.43a.89.89 0 0 1-1.39-1.12 10.2 10.2 0 0 1 9.16-4c.37.47.75.92 1.14 1.37a9.79 9.79 0 0 0-8.91 3.75m-2.77-3.1a.89.89 0 0 1-1.38-1.11 10.66 10.66 0 0 1 9.55-4.12c.34.5.69 1 1.05 1.49-3.42-.24-6.48.41-9.22 3.74m5.62 6.12a.89.89 0 0 1-1.38-1.11 10.16 10.16 0 0 1 8.91-4c.45.48.91.94 1.37 1.39a9.78 9.78 0 0 0-8.9 3.72m15 1.16c4-.1 8.91 3.21 8.91 7.22v.4c-4.39 7-14.86 6.58-21.87 3.71.51-9.63 9.75-11.37 12.96-11.33m-12 1.73a.89.89 0 0 1-1.39-1.11 10.16 10.16 0 0 1 8.94-4c.56.5 1.11 1 1.67 1.41-3.45-.28-6.51.36-9.22 3.7" style="fill:#fff"/><path d="M208.35 272.43 243.44 292a17.38 17.38 0 0 1 8.63 18.36L245.26 347l5.59 17.74c-4.85 6.47-15.85 6.8-15.85 6.8-6.17-12.37-10.7-17.63-14.2-28S214.93 326 214.93 326l-29.14-8a34.53 34.53 0 0 1-25.25-29.38c-.49-4.4-.52-7.41-.52-7.41Z" style="fill:#455a64"/><path d="M208.35 272.43 243.44 292a17.38 17.38 0 0 1 8.63 18.36L245.26 347l5.59 17.74c-4.85 6.47-15.85 6.8-15.85 6.8-6.17-12.37-10.7-17.63-14.2-28S214.93 326 214.93 326l-29.14-8a34.53 34.53 0 0 1-25.25-29.38c-.49-4.4-.52-7.41-.52-7.41Z" style="fill:#37474f"/><path d="M208.09 282.29a16.6 16.6 0 0 1-3.92 10.71l24.75 15.5a17.78 17.78 0 0 1 7.58 9.88l8.76 28.62-7.9-31.91a14.47 14.47 0 0 0-6.44-8.83l-22.86-14.12c2.34-5.83.03-9.85.03-9.85" style="opacity:.2"/><path d="M204.56 212.16h.9c6.06.06 13.73 4.19 17.48 14.76l14.56 28.2-16.62 7.37-9.1-26.61Z" style="fill:#10b981"/><path d="M204.56 212.16h.9c6.06.06 13.73 4.19 17.48 14.76l14.56 28.2-16.62 7.37-9.1-26.61Z" style="opacity:.2"/><path d="M216.23 230.87c1.16 3.33 1.23 6.92 1.42 10.45s.59 7.77 2.2 10.91a10 10 0 0 1 12 .43 9.26 9.26 0 0 1 2.69 3.79l-13.64 6.05-9.1-26.61-4.47-14.68a17 17 0 0 1 8.9 9.66" style="opacity:.2"/><path d="M220.72 257.41a10 10 0 0 1 7.52-6.08 10.64 10.64 0 0 1 9.26 3.8c1.81 2.19 1.53 5.16.38 7.76a9.68 9.68 0 0 1-11.09 5.25c-4.29-1.2-7.69-6.57-6.07-10.73" style="fill:#10b981"/><path d="M220.72 257.41a10 10 0 0 1 7.52-6.08 10.64 10.64 0 0 1 9.26 3.8c1.81 2.19 1.53 5.16.38 7.76a9.68 9.68 0 0 1-11.09 5.25c-4.29-1.2-7.69-6.57-6.07-10.73" style="opacity:.2"/><path d="M159.46 284c6.23 6 36.12 7.07 51.37-7.45-1.46-10.25-1-21.23 0-32.09s7.32-29.85-4.8-32.06c-16.19-3.16-24.36-.25-37.58 3.19-11.55 19.24-9.96 48.04-8.99 68.41" style="fill:#10b981"/><path d="M159.46 284c6.23 6 36.12 7.07 51.37-7.45-1.46-10.25-1-21.23 0-32.09s7.32-29.85-4.8-32.06c-16.19-3.16-24.36-.25-37.58 3.19-11.55 19.24-9.96 48.04-8.99 68.41" style="opacity:.2"/><path d="M177.15 262.63c-.64-10.68 0-28.85-3.51-34.16L164 225c-5.92 16.39-5.58 36.65-4.84 53.08a62.8 62.8 0 0 0 21 7.52c3.08.57 6.19 1 9.31 1.25 7.83-1.62 15.62-4.87 21.34-10.32-.2-1.37-.35-2.77-.48-4.17a84 84 0 0 1-22.17-4.28 14.74 14.74 0 0 0-11.01-5.45" style="opacity:.2"/><path d="M203.57 283.28v-.33l10.88-20.25 1.5 1.71-10.88 20.25a1.1 1.1 0 0 0-.14.37.23.23 0 0 0 .05.22l-1.5-1.7v-.15Z" style="fill:#fff;opacity:.15"/><path d="M214.63 262.57v-.38l.05-.06v-.17l.16-.14h.32l12.51-7h.84a.26.26 0 0 1 .19.08l1.49 1.71c-.06-.08-.19-.1-.37-.06a2.8 2.8 0 0 0-.69.28l-12.51 7a7 7 0 0 0-.71.47c-.24.19-.47.38-.69.59a7 7 0 0 0-.59.63 4 4 0 0 0-.41.6l-1.5-1.71Z" style="fill:#fff;opacity:.2"/><path d="M220.92 270.27s-7.9 4-11.4 1.8l1.85-3.44a21.52 21.52 0 0 0-13.71 4.66 101 101 0 0 1-21.74-6.57l-2.48-1-12.57 10.45c8.57 5.55 49 9.35 53.2 6.76s7.42-7.73 6.85-12.66m8.54-10.19a24 24 0 0 1 .46 4 14.88 14.88 0 0 1-3.9 8.64 4.4 4.4 0 0 1-1.68 1.18 2 2 0 0 1-1.94-.31 2.9 2.9 0 0 1-.68-2 10.8 10.8 0 0 1 .18-3.27 4.56 4.56 0 0 1 1.72-2.72 10.2 10.2 0 0 1 2.19-1 5.3 5.3 0 0 0 1.95-1.41Z" style="fill:#ffa8a7"/><path d="m173.44 265.69.38-33.8a26.67 26.67 0 0 0-3.26-13.08l-2.11-3.21a10.12 10.12 0 0 0-8 5.45 29.13 29.13 0 0 0-3.89 16.6s-1.33 34.84 4.31 38.49zm8.44 1.38-8.44-1.38-12.57 10.45c3.69 2.85 12.53 5.91 18.36 7.34a10.4 10.4 0 0 0 5.42-.13l1-.29 1.93-13.06a10.5 10.5 0 0 0-5.7-2.93" style="fill:#10b981"/><path d="m173.44 265.69.38-33.8a26.67 26.67 0 0 0-3.26-13.08l-2.11-3.21a10.12 10.12 0 0 0-8 5.45 29.13 29.13 0 0 0-3.89 16.6s-1.33 34.84 4.31 38.49zm8.44 1.38-8.44-1.38-12.57 10.45c3.69 2.85 12.53 5.91 18.36 7.34a10.4 10.4 0 0 0 5.42-.13l1-.29 1.93-13.06a10.5 10.5 0 0 0-5.7-2.93" style="opacity:.2"/><path d="M195 272.8c-3.83 1.95-1.87 9.67-1.12 10.26l1.12.1a1.91 1.91 0 0 1-1.82.93c-2.05-.21-6.12-.66-7.58-1-3.93-5.91.46-12.24 1.94-13.09 2.4.71 4.75 1.23 6 1.48a1.87 1.87 0 0 1 1.27.94Z" style="fill:#10b981"/><path d="M195 272.8c-3.83 1.95-1.87 9.67-1.12 10.26l1.12.1a1.91 1.91 0 0 1-1.82.93c-2.05-.21-6.12-.66-7.58-1-3.93-5.91.46-12.24 1.94-13.09 2.4.71 4.75 1.23 6 1.48a1.87 1.87 0 0 1 1.27.94Z" style="opacity:.30000000000000004"/><path d="M180.54 213.64a4 4 0 0 0-.1 3.47 8.1 8.1 0 0 0 2.18 2.83 17 17 0 0 0 9.91 4.21 10.4 10.4 0 0 0 5.77-1 5.94 5.94 0 0 0 3.19-4.72 6.22 6.22 0 0 0-3.62-5.49 13.36 13.36 0 0 0-6.78-1 42 42 0 0 1-6.52.36c-1.5-.22-3.16-.15-4.03 1.34" style="fill:#10b981"/><path d="M180.54 213.64a4 4 0 0 0-.1 3.47 8.1 8.1 0 0 0 2.18 2.83 17 17 0 0 0 9.91 4.21 10.4 10.4 0 0 0 5.77-1 5.94 5.94 0 0 0 3.19-4.72 6.22 6.22 0 0 0-3.62-5.49 13.36 13.36 0 0 0-6.78-1 42 42 0 0 1-6.52.36c-1.5-.22-3.16-.15-4.03 1.34" style="opacity:.30000000000000004"/><path d="m179.16 188.51 8.81 13h.22l-9.4-13.84s-15.09 6.47-14 11.1a1 1 0 0 1 .06.18l.12.3a.4.4 0 0 0 0 .09l.3.76a2.5 2.5 0 0 1-.14-.41c-1.06-4.69 14.03-11.18 14.03-11.18" style="fill:#10b981"/><path d="m179.16 188.51 8.81 13h.22l-9.4-13.84s-15.09 6.47-14 11.1a1 1 0 0 1 .06.18l.12.3a.4.4 0 0 0 0 .09l.3.76a2.5 2.5 0 0 1-.14-.41c-1.06-4.69 14.03-11.18 14.03-11.18" style="opacity:.1"/><path d="m188 201.49-8.81-13s-15.09 6.48-14 11.1a2.5 2.5 0 0 0 .14.41c2.34 5.6 23.25 2.33 23.25 2.33Z" style="fill:#10b981"/><path d="m188 201.49-8.81-13s-15.09 6.48-14 11.1a2.5 2.5 0 0 0 .14.41c2.34 5.6 23.25 2.33 23.25 2.33Z" style="opacity:.30000000000000004"/><path d="M183.89 209.31a54.5 54.5 0 0 1-4.83-12c-1-4.22-3.87-13.59-1.83-17.41 1.54-2.87 5.78-5.77 8.63-7.34s6.58-1.09 9.76-1.78a26 26 0 0 1 8.55-.66c2.85.35 6.44 5.5 8.34 7.66 3 3.4 3.1 8.77.94 12.77s-6.17 6.74-10.45 8.29-8.85 2-13.37 2.49c-1.87 2.5-3.87 5.46-5.74 7.98" style="fill:#263238"/><path d="M207.84 167.87c-4.44-4-11.15-4.8-17-3.26-4.95 1.31-10.69 2.84-13.55 7s-1.41 10.08-1.08 16a39.6 39.6 0 0 1 17.79-8.04c.77-.14 1.56-.24 2.36-.32l-.39-1.94a3.94 3.94 0 0 1 3.61-4.73 17 17 0 0 1 2.69.06 6 6 0 0 1 5.23 4.61c.2.9.4 1.81.59 2.63a47 47 0 0 1 6.53 1.64c-1.46-4.87-2.99-10.23-6.78-13.65" style="fill:#455a64"/><path d="M207.36 176.84a30 30 0 0 0-11.48-.34 3.8 3.8 0 0 0 .08.81l.39 1.94a43.5 43.5 0 0 1 11.73.63c-.19-.82-.39-1.73-.59-2.63-.04-.14-.09-.25-.13-.41" style="fill:#37474f"/><path d="m198.24 208-.58 6.46a2.5 2.5 0 0 0 .37 1.43 3.65 3.65 0 0 1-.57 4.21 4.82 4.82 0 0 1-2.89 1 14 14 0 0 1-10.67-4.1 3.06 3.06 0 0 1-.84-2.21l.42-16.38Z" style="fill:#ffa8a7"/><path d="m198.24 208-.58 6.46a2.5 2.5 0 0 0 .37 1.43 3.65 3.65 0 0 1-.57 4.21 4.82 4.82 0 0 1-2.89 1 14 14 0 0 1-10.67-4.1 3.06 3.06 0 0 1-.84-2.21l.42-16.38Z" style="fill:#ffa8a7"/><path d="M188.29 211.21a11.84 11.84 0 0 0 5.73 2.7 8 8 0 0 0 3.73-.37l.49-5.53-14.76-9.62-.15 6a16.9 16.9 0 0 0 4.96 6.82" style="opacity:.2"/><path d="M203.73 188a8 8 0 0 0 3.38-3 28.7 28.7 0 0 1-9.2 2.46c1.22-1.06 2.38-2.26 3.6-3.32a39.4 39.4 0 0 1-6.7 1.63 11 11 0 0 0 3.33-2.63 34.6 34.6 0 0 1-11.32 3.09 1.8 1.8 0 0 0-.33.8l-.6 4.65a2.21 2.21 0 0 1-.79 1.74 1.51 1.51 0 0 1-1.68-.27 4.5 4.5 0 0 1-1-1.51 13.4 13.4 0 0 0-1.93-3.26 4.46 4.46 0 0 0-3.31-1.63c-2.07.05-3.65 2.12-3.87 4.18a6.44 6.44 0 0 0 2.39 5.64 6.33 6.33 0 0 0 6 .72c-.94 3.59.94 7.44 3.73 9.88s6.37 3.76 9.86 5c1.91.69 3.93 1.39 5.92 1a7.45 7.45 0 0 0 4.13-2.55 17.3 17.3 0 0 0 2.55-4.23 57.7 57.7 0 0 0 5.28-21.63 14.45 14.45 0 0 1-9.44 3.24" style="fill:#ffa8a7"/><path d="m201.13 195.32 2.92 7.72-5.11.06zm-7.85 9.27 5.36 2.21a3.42 3.42 0 0 1-3.88 1.37c-1.31-.5-1.76-2.17-1.48-3.58" style="fill:#f28f8f"/><path d="m193.28 204.59 5.36 2.21a3.42 3.42 0 0 1-3.88 1.37c-1.31-.5-1.76-2.17-1.48-3.58" style="opacity:.30000000000000004"/><path d="M196.58 208.23a3.1 3.1 0 0 1-1.82-.06 2.79 2.79 0 0 1-1.56-2.66 3.16 3.16 0 0 1 3.38 2.72" style="fill:#f28f8f"/><path d="M193.91 193.91a1.44 1.44 0 0 0 2.78.78 1.44 1.44 0 1 0-2.78-.78m11.52 2.41a1.44 1.44 0 0 0 2.78.78 1.44 1.44 0 1 0-2.78-.78m3.14-7.11 2.48 3a2 2 0 0 0 0-2.35 2.42 2.42 0 0 0-2.48-.65m-12.77-2.38-3.68 1.27a2 2 0 0 1 1.21-2 2.43 2.43 0 0 1 2.47.73" style="fill:#263238"/><path d="m113.4 259.84 60.25 46.68a17 17 0 0 1 6.52 11.84l6.76 70.82a2.29 2.29 0 0 1-2.8.25l-12-71.1a8.5 8.5 0 0 0-4-5.89l-53.26-31.91c-6.98-4.15-8.21-18.82-1.47-20.69" style="fill:#455a64"/><path d="m113.4 259.84 60.25 46.68a17 17 0 0 1 6.52 11.84l6.76 70.82a2.29 2.29 0 0 1-2.8.25l-12-71.1a8.5 8.5 0 0 0-4-5.89l-53.26-31.91c-6.98-4.15-8.21-18.82-1.47-20.69" style="fill:#fff;opacity:.30000000000000004"/><path d="M203.57 283.34v.15l1.5 1.7v-.11c.06.26.44.25 1.09-.11l12.51-7a7.14 7.14 0 0 0 2.4-2.28L232 255.41c.17-.34.17-.54 0-.63h.05l-1.49-1.71a.26.26 0 0 0-.19-.08h-.84l-12.51 7h-.32l-.16.14v.17l-.05.06v.44l-10.88 20.25v.41Zm28.07-28.59h.14a.3.3 0 0 0-.14 0m-14.55 8.36.35-.29Zm-.59.63.15-.16ZM205.07 285a1.1 1.1 0 0 1 .14-.37 1.1 1.1 0 0 0-.14.41s0-.04 0-.04" style="fill:#455a64"/><path d="m130.12 382.03 4.27 2.48-.02-4.93z" style="fill:#e6e6e6"/><path d="M134.27 355.72v-.05z" style="fill:#787878"/><rect height="47.89" x="113.53" y="343.69" style="fill:#cfcfcf"/><path d="m134.2 331.73-41.48 23.94z" style="fill:#cfcfcf"/><path d="M134.37 379.58v4.93l4.44-2.56-.15-57.95-50.43 29.12.16 57.94 4.44-2.56v-4.93L130.12 382Zm-41.65-23.91 41.48-23.94.05 18.79-41.47 24Zm.07 23.94 41.48-23.95v18.8L92.84 398.4Z" style="fill:#e0e0e0"/><path d="m134.32 374.46-.05-18.74v-.05l-41.48 23.94.05 18.79zm-.07-23.94-.05-18.79-41.48 23.94.06 18.8zm-46.02 2.6L44.2 327.53l.16 57.95 44.03 25.58z" style="fill:#e0e0e0"/><path d="M88.23 353.12 138.66 324l-44.03-25.59-50.43 29.12z" style="fill:#e0e0e0"/><path d="m130.12 382.03 4.27 2.48-.02-4.93z" style="fill:#fff;opacity:.2"/><path d="M134.27 355.72v-.05z" style="fill:#787878"/><rect height="47.89" x="113.53" y="343.69" style="fill:#cfcfcf"/><path d="m134.2 331.73-41.48 23.94z" style="fill:#cfcfcf"/><path d="m134.32 374.46-.05-18.74v-.05l-41.48 23.94.05 18.79zm-.07-23.94-.05-18.79-41.48 23.94.06 18.8z" style="fill:#fff;opacity:.8"/><path d="m120.68 346.52-.02-2.59-14.36 8.29.01 2.6zm0 23.61-.02-2.6-14.36 8.29.01 2.6z" style="fill:#e0e0e0"/><path d="M88.23 353.12 44.2 327.53l.16 57.95 44.03 25.58z" style="fill:#fff;opacity:.2"/><path d="M88.23 353.12 138.66 324l-44.03-25.59-50.43 29.12z" style="fill:#fff;opacity:.4"/><path d="M78.45 313.36c5.6-3.24 14.65-3.24 20.21 0s5.53 8.47-.07 11.71-14.65 3.23-20.21 0-5.53-8.48.07-11.71" style="opacity:.05"/><path d="m73.59 293 15.36.45 15.37-.45c.66 10.38-1.37 20.95-4.16 26.12a7 7 0 0 1-3 3.1c-4.53 2.62-11.86 2.62-16.36 0a6.74 6.74 0 0 1-3-3.18c-2.86-5.19-4.87-15.7-4.21-26.04" style="fill:#fff"/><path d="M78.13 286.72c-6 3.48-6.06 9.11-.08 12.59s15.71 3.47 21.73 0 6-9.11.07-12.59-15.7-3.47-21.72 0" style="fill:#ebebeb"/><path d="M80.51 288.1c-4.7 2.72-4.72 7.11-.06 9.82s12.26 2.71 17 0 4.72-7.1.06-9.82-12.31-2.71-17 0" style="fill:#e0e0e0"/><path d="M80.51 288.1c-4.7 2.72-4.72 7.11-.06 9.82s12.26 2.71 17 0 4.72-7.1.06-9.82-12.31-2.71-17 0" style="opacity:.15"/><path d="M90.24 293.45a10.17 10.17 0 0 1-9 2.05 9.45 9.45 0 0 1-6.31-6.39 18.5 18.5 0 0 0 4.93-3.42 12.6 12.6 0 0 0-7 .25 7.13 7.13 0 0 1-.53-6.66 12.2 12.2 0 0 1 8.33-.58 11 11 0 0 0-8.42-2.65 32.3 32.3 0 0 1 2-12.94c5.73.3 11.28 2.76 13.16 4.54a21.2 21.2 0 0 1-.64 6.09 4.93 4.93 0 0 0 2.66-3.94c3.59.9 5.12 2.69 5.68 4.05a15 15 0 0 1-3.39 6.88c3.36-1 4.73-4.77 4.73-4.77 3.33 7.84 2.7 16.72-6.2 17.49" style="fill:#10b981"/><path d="M90.24 293.45a10.17 10.17 0 0 1-9 2.05 9.45 9.45 0 0 1-6.31-6.39 18.5 18.5 0 0 0 4.93-3.42 12.6 12.6 0 0 0-7 .25 7.13 7.13 0 0 1-.53-6.66 12.2 12.2 0 0 1 8.33-.58 11 11 0 0 0-8.42-2.65 32.3 32.3 0 0 1 2-12.94c5.73.3 11.28 2.76 13.16 4.54a21.2 21.2 0 0 1-.64 6.09 4.93 4.93 0 0 0 2.66-3.94c3.59.9 5.12 2.69 5.68 4.05a15 15 0 0 1-3.39 6.88c3.36-1 4.73-4.77 4.73-4.77 3.33 7.84 2.7 16.72-6.2 17.49" style="opacity:.2"/><path d="M90.24 293.45a10.17 10.17 0 0 1-9 2.05 9.45 9.45 0 0 1-6.31-6.39 18.5 18.5 0 0 0 4.93-3.42 12.6 12.6 0 0 0-7 .25 7.13 7.13 0 0 1-.53-6.66 12.2 12.2 0 0 1 8.33-.58 11 11 0 0 0-8.42-2.65 32.3 32.3 0 0 1 2-12.94c5.73.3 11.28 2.76 13.16 4.54a21.2 21.2 0 0 1-.64 6.09 4.93 4.93 0 0 0 2.66-3.94c3.59.9 5.12 2.69 5.68 4.05a15 15 0 0 1-3.39 6.88c3.36-1 4.73-4.77 4.73-4.77 3.33 7.84 2.7 16.72-6.2 17.49" style="fill:#fff;opacity:.30000000000000004"/><path d="M90.44 294.3a.35.35 0 0 0 .31-.36c-.55-7.23-4.69-19.17-14.56-29a.32.32 0 0 0-.46 0 .33.33 0 0 0 0 .47c9.74 9.72 13.82 21.48 14.36 28.6a.32.32 0 0 0 .35.29" style="fill:#f5f5f5"/><path d="M87.73 297.32a9.4 9.4 0 0 0 14.71-3.87 15.8 15.8 0 0 1-4.45-3 12.64 12.64 0 0 1 6.6.2 6.16 6.16 0 0 0 .92-5.94 12.12 12.12 0 0 0-7.86-.47 11.62 11.62 0 0 1 8.15-2.42 26.2 26.2 0 0 0-1.1-11.55c-5.46.33-10.86 2.59-12.74 4.19a17.4 17.4 0 0 0 .22 5.41 4 4 0 0 1-2.26-3.48c-3.42.83-5 2.43-5.57 3.64a11.9 11.9 0 0 0 2.76 6.07 6.77 6.77 0 0 1-4.11-4.22c-3.59 6.95-3.53 14.77 4.73 15.44" style="fill:#10b981"/><path d="M87.73 297.32a9.4 9.4 0 0 0 14.71-3.87 15.8 15.8 0 0 1-4.45-3 12.64 12.64 0 0 1 6.6.2 6.16 6.16 0 0 0 .92-5.94 12.12 12.12 0 0 0-7.86-.47 11.62 11.62 0 0 1 8.15-2.42 26.2 26.2 0 0 0-1.1-11.55c-5.46.33-10.86 2.59-12.74 4.19a17.4 17.4 0 0 0 .22 5.41 4 4 0 0 1-2.26-3.48c-3.42.83-5 2.43-5.57 3.64a11.9 11.9 0 0 0 2.76 6.07 6.77 6.77 0 0 1-4.11-4.22c-3.59 6.95-3.53 14.77 4.73 15.44" style="fill:#fff;opacity:.30000000000000004"/><path d="M87.51 298.11a.34.34 0 0 0 .33-.28c.94-6.3 5.51-16.76 15.32-25.49a.33.33 0 0 0 0-.47.32.32 0 0 0-.46 0c-9.94 8.86-14.58 19.48-15.54 25.89a.33.33 0 0 0 .28.37Z" style="fill:#fff"/><path d="m199.29 78.14-40.33 23a6.08 6.08 0 0 0-3 5.21v37.84a5.93 5.93 0 0 0 9.07 4.88l11.5-6.48.48.78a.3.3 0 0 0 .08.07h.06c.88.58 2.43 1.42 2.78 1.59a.33.33 0 0 0 .41-.2l2-5.59 23-13.17a6 6 0 0 0 3-5.22V83c.03-4.31-6.34-6.41-9.05-4.86" style="fill:#10b981"/><path d="M177 143.41a.3.3 0 0 0 .08.07h.06c.88.58 2.43 1.42 2.78 1.59a.3.3 0 0 1-.2-.14l-1.9-3.09.37-.21-1.67 1Z" style="fill:#fff;opacity:.2"/><path d="M162.7 106.84a6.1 6.1 0 0 1 1.61-2 5.5 5.5 0 0 1 .73-.5l40.32-23a2 2 0 0 1 3 1.74c0-4.33-6.38-6.43-9.08-4.88l-40.33 23a5.93 5.93 0 0 0-2.23 2.27Z" style="fill:#fff;opacity:.4"/><path d="M162 147.38v-37.84a6 6 0 0 1 0-.71 6.5 6.5 0 0 1 .63-2l-6-3.39a6 6 0 0 0-.78 2.94v37.84a5.93 5.93 0 0 0 9.07 4.88 2 2 0 0 1-2.92-1.72" style="fill:#fff;opacity:.2"/><path d="M190.78 126.72c-.08 1.8-2 4.77-3.88 5.92l-.16.1c-2 1.15-3.93.58-4.18-1.27Zm7.22-8.31c.51.19.67 1.26.32 2.11a2.2 2.2 0 0 1-.93 1.11l-1.11.65-1.11.64-8.5 4.9-10.55 6.1c-.88.5-1.25.26-1.29-.72a3.14 3.14 0 0 1 .6-1.89 15.35 15.35 0 0 0 2.21-6 39.4 39.4 0 0 0 .4-6 23 23 0 0 1 .19-3.46 19.15 19.15 0 0 1 4.46-9.35 2.3 2.3 0 0 0 .74-2.14 7.09 7.09 0 0 1 3.15-6.17 2.6 2.6 0 0 1 1.76-.37c1.14.21 1.62 1.2 1.42 2.88-.12 1 0 1.25.77 1.29 3 .18 4.57 2.2 4.69 6.07.06 1.89.1 3.78.23 5.62a7.36 7.36 0 0 0 1.06 3.55 3 3 0 0 0 1.49 1.18m-9.57-1.41.86-10.3-5.29 3.06.91 9.27 3.55-2m-1.76 7.32a5.32 5.32 0 0 0 2.6-4.22c0-1.52-1.07-2.06-2.61-1.17a5.22 5.22 0 0 0-2.6 4.18c0 1.49 1.08 2.1 2.61 1.21m-.07-23.66a2.38 2.38 0 0 0-1.08 1.87c0 .68.48.95 1.07.62a2.38 2.38 0 0 0 1.08-1.86c0-.69-.48-1-1.08-.63" style="fill:#fff"/></svg>