<svg xmlns="http://www.w3.org/2000/svg" viewBox="0 0 500 500"><ellipse cx="249.05" cy="360.94" rx="218.59" ry="120.16" style="fill:#f5f5f5"/><ellipse cx="377.87" cy="384.26" rx="38.17" ry="22.04" style="fill:#e0e0e0"/><path d="m60.94 402.44-8.25-4.77c-2.6-1.5-2.6-3.93 0-5.43l246.76-142.47a10.42 10.42 0 0 1 9.42 0l8.24 4.76c2.6 1.51 2.6 3.94 0 5.44L70.35 402.44a10.4 10.4 0 0 1-9.41 0" style="fill:#e0e0e0"/><path d="M99.63 66.87 92.52 71a10 10 0 0 0 .06-1.08v-2.4c0-4.23-2.57-6.18-5.75-4.35a10.5 10.5 0 0 0-3.42 3.5c-.52-5.37-4.14-7.67-8.53-5.14-4.75 2.74-8.6 10.1-8.6 16.43v3.56A11.2 11.2 0 0 0 67 85.7l-5.9 3.41a7.65 7.65 0 0 0-3.19 6.09c0 2.35 1.43 3.43 3.19 2.41l38.53-22.24a7.62 7.62 0 0 0 3.19-6.09c0-2.35-1.43-3.42-3.19-2.41m45.67 12.42-5.36 3.1a8 8 0 0 0 0-.82v-1.79c0-3.2-1.94-4.67-4.33-3.28a7.9 7.9 0 0 0-2.59 2.64c-.39-4-3.12-5.79-6.43-3.88-3.59 2.07-6.49 7.62-6.49 12.4v2.68a8.4 8.4 0 0 0 .55 3.16l-4.46 2.57a5.77 5.77 0 0 0-2.4 4.6c0 1.77 1.07 2.59 2.4 1.82L145.3 85.7a5.74 5.74 0 0 0 2.41-4.59c0-1.77-1.08-2.59-2.41-1.82" style="fill:#ebebeb"/><path d="M63.17 204 319.35 56.07v-15a5.5 5.5 0 0 0-.09-.94.5.5 0 0 0 0-.12 4 4 0 0 0-.22-.72l-.06-.15a3 3 0 0 0-.34-.54l-.12-.13a1.9 1.9 0 0 0-.43-.37 2 2 0 0 0-.32-.18 1 1 0 0 1 .13.06c-.55-.34-2.15-1.26-3.83-2.23L309.25 33l-.12-.07-.33-.16a3.6 3.6 0 0 0-3 .49L78.71 164.4 59 175.76a7 7 0 0 0-.94.66 10.54 10.54 0 0 0-3.76 7.49v15l8.83 5.1Z" style="fill:#10b981"/><path d="m318.3 38.3-.16-.11Zm-.16-.11a2 2 0 0 0-.22-.15l.09.05Zm.43.38a1.7 1.7 0 0 0-.27-.27 2.3 2.3 0 0 1 .27.27" style="fill:#f5f5f5"/><path d="M67.88 180.86 314.64 38.39c2.6-1.5 4.71-.28 4.71 2.72v208.42a10.4 10.4 0 0 1-4.71 8.15L67.88 400.15c-2.6 1.5-4.71.28-4.71-2.72V189a10.4 10.4 0 0 1 4.71-8.14" style="fill:#f0f0f0"/><path d="M314.64 38.39 67.88 180.86a10.4 10.4 0 0 0-4.71 8.14v15L319.35 56.07v-15c0-2.96-2.11-4.18-4.71-2.68" style="fill:#10b981"/><path d="M55.71 179.28a9.6 9.6 0 0 0-1.38 4.64v15l8.84 5.1V189a9.6 9.6 0 0 1 1.38-4.64Z" style="opacity:.1"/><path d="M309.13 33a3.32 3.32 0 0 0-3.33.33L59 175.76a9.6 9.6 0 0 0-3.33 3.52l8.84 5.1a9.6 9.6 0 0 1 3.33-3.52l246.8-142.47a3.32 3.32 0 0 1 3.24-.37c-1.27-.76-7.88-4.59-8.75-5.02" style="fill:#fff;opacity:.4"/><path d="M64.46 400.42c-1.21-.68-8-4.56-8.81-5.09a3.33 3.33 0 0 1-1.31-3V198.88l8.84 5.1v193.45a3.36 3.36 0 0 0 1.28 2.99" style="fill:#e6e6e6"/><path d="M289 59.07c-1.54.89-2.78 3.52-2.78 5.88s1.24 3.56 2.78 2.68 2.78-3.52 2.78-5.89-1.23-3.55-2.78-2.67m10-5.78c-1.53.88-2.78 3.52-2.78 5.88s1.25 3.56 2.78 2.67 2.78-3.52 2.78-5.88-1.22-3.56-2.78-2.67m10-5.79c-1.53.89-2.77 3.52-2.77 5.88s1.24 3.56 2.77 2.68 2.78-3.52 2.78-5.89-1.22-3.56-2.78-2.67" style="fill:#455a64"/><path d="m76.42 216.73 119.26-68.85v158.1L76.42 374.83z" style="fill:#10b981;opacity:.15"/><path d="M76.42 219a.76.76 0 0 1-.75-.75v-1.5a.73.73 0 0 1 .38-.65l1.3-.75a.74.74 0 0 1 1 .27.76.76 0 0 1-.27 1l-.93.53v1.07a.75.75 0 0 1-.73.78m5.69-4.81a.75.75 0 0 1-.65-.37.74.74 0 0 1 .27-1l2.63-1.52a.75.75 0 0 1 1 .27.76.76 0 0 1-.28 1l-2.63 1.51a.74.74 0 0 1-.34.11m7-4.05a.75.75 0 0 1-.65-.37.76.76 0 0 1 .28-1l2.63-1.51a.75.75 0 0 1 .75 1.29L89.5 210a.75.75 0 0 1-.38.14Zm7-4a.75.75 0 0 1-.65-.37.76.76 0 0 1 .27-1l2.64-1.52a.75.75 0 0 1 1 .28.75.75 0 0 1-.27 1L96.51 206a.7.7 0 0 1-.37.09Zm7-4.05a.75.75 0 0 1-.38-1.4l2.63-1.52a.76.76 0 0 1 1 .28.75.75 0 0 1-.28 1l-2.63 1.52a.7.7 0 0 1-.29.03Zm7-4a.75.75 0 0 1-.37-1.4l2.63-1.52a.75.75 0 0 1 .75 1.3l-2.63 1.52a.75.75 0 0 1-.32.01Zm7-4.05a.76.76 0 0 1-.65-.38.75.75 0 0 1 .28-1l2.63-1.52a.75.75 0 0 1 .75 1.3l-2.63 1.52a.8.8 0 0 1-.3-.02Zm7-4.05a.76.76 0 0 1-.65-.38.74.74 0 0 1 .27-1l2.63-1.52a.75.75 0 1 1 .75 1.3l-2.63 1.52a.7.7 0 0 1-.27-.02Zm7-4a.75.75 0 0 1-.38-1.4l2.63-1.52a.75.75 0 0 1 1 .27.76.76 0 0 1-.28 1l-2.63 1.52a1 1 0 0 1-.22-.02Zm7-4.05a.75.75 0 0 1-.37-1.4l2.63-1.52a.74.74 0 0 1 1 .27.75.75 0 0 1-.27 1l-2.63 1.52a1 1 0 0 1-.23-.02Zm7-4.06a.75.75 0 0 1-.38-1.4l2.63-1.51a.75.75 0 0 1 1 .27.74.74 0 0 1-.28 1l-2.63 1.52a.7.7 0 0 1-.19-.03Zm7-4a.73.73 0 0 1-.65-.37.75.75 0 0 1 .27-1l2.63-1.52a.76.76 0 0 1 1 .28.75.75 0 0 1-.28 1l-2.63 1.52a.7.7 0 0 1-.17-.11Zm7-4.05a.75.75 0 0 1-.65-.37.76.76 0 0 1 .28-1l2.63-1.52a.75.75 0 0 1 1 .28.74.74 0 0 1-.27 1l-2.63 1.52a.8.8 0 0 1-.18-.11Zm7-4a.75.75 0 0 1-.65-.37.76.76 0 0 1 .27-1l2.64-1.52a.75.75 0 0 1 .75 1.3l-2.64 1.52a.7.7 0 0 1-.17-.18Zm7-4.05a.75.75 0 0 1-.38-1.4l2.63-1.52a.75.75 0 1 1 .75 1.3l-2.63 1.52a.7.7 0 0 1-.15-.15Zm7-4.05a.75.75 0 0 1-.37-1.4l2.63-1.52a.74.74 0 0 1 1 .27.75.75 0 0 1-.27 1l-2.63 1.52a1 1 0 0 1-.13-.12Zm7-4a.76.76 0 0 1-.65-.38.75.75 0 0 1 .27-1l2.64-1.52a.74.74 0 0 1 1 .27.75.75 0 0 1-.27 1l-2.64 1.52a.7.7 0 0 1-.1-.19Zm8.57-3.6a.75.75 0 0 1-.75-.75v-.21l-.18.11a.75.75 0 0 1-1-.28.74.74 0 0 1 .27-1l1.3-.75a.72.72 0 0 1 .75 0 .75.75 0 0 1 .38.65v1.5a.76.76 0 0 1-.77.73m0 150.16a.74.74 0 0 1-.75-.75v-3a.75.75 0 0 1 1.5 0v3a.75.75 0 0 1-.75.75m0-7.9a.75.75 0 0 1-.75-.75v-3a.75.75 0 0 1 1.5 0v3a.76.76 0 0 1-.75.75m0-7.91a.74.74 0 0 1-.75-.75v-3a.75.75 0 0 1 1.5 0v3a.75.75 0 0 1-.75.75m0-7.9a.74.74 0 0 1-.75-.75v-3a.75.75 0 0 1 1.5 0v3a.75.75 0 0 1-.75.75m0-7.9a.75.75 0 0 1-.75-.75v-3a.75.75 0 0 1 1.5 0v3a.76.76 0 0 1-.75.75m0-7.91a.74.74 0 0 1-.75-.75v-3a.75.75 0 0 1 1.5 0v3a.75.75 0 0 1-.75.75m0-7.9a.75.75 0 0 1-.75-.75v-3a.75.75 0 0 1 1.5 0v3a.76.76 0 0 1-.75.75m0-7.9a.75.75 0 0 1-.75-.75v-3a.75.75 0 0 1 1.5 0v3a.76.76 0 0 1-.75.78Zm0-7.91a.74.74 0 0 1-.75-.75v-3a.75.75 0 1 1 1.5 0v3a.75.75 0 0 1-.75.75m0-7.9a.75.75 0 0 1-.75-.75v-3a.75.75 0 0 1 1.5 0v3a.76.76 0 0 1-.75.75m0-7.9a.75.75 0 0 1-.75-.75v-3a.75.75 0 0 1 1.5 0v3a.76.76 0 0 1-.75.75m0-7.91a.74.74 0 0 1-.75-.75v-3a.75.75 0 0 1 1.5 0v3a.75.75 0 0 1-.75.75m0-7.9a.75.75 0 0 1-.75-.75v-3a.75.75 0 0 1 1.5 0v3a.76.76 0 0 1-.75.75m0-7.9a.75.75 0 0 1-.75-.75v-3a.75.75 0 1 1 1.5 0v3a.76.76 0 0 1-.75.75m0-7.91a.74.74 0 0 1-.75-.75v-3a.75.75 0 0 1 1.5 0v3a.75.75 0 0 1-.75.75m0-7.9a.75.75 0 0 1-.75-.75v-3a.75.75 0 0 1 1.5 0v3a.76.76 0 0 1-.75.75m0-7.9a.75.75 0 0 1-.75-.75v-3a.75.75 0 0 1 1.5 0v3a.76.76 0 0 1-.75.75m0-7.91a.74.74 0 0 1-.75-.75v-3a.75.75 0 1 1 1.5 0v3a.75.75 0 0 1-.75.75m0-7.9a.75.75 0 0 1-.75-.75v-3a.75.75 0 0 1 1.5 0v3a.76.76 0 0 1-.75.72Zm-1.3 149.45a.75.75 0 0 1-.38-1.4l.93-.53v-1.07a.75.75 0 0 1 1.5 0V306a.75.75 0 0 1-.38.65l-1.3.75a.74.74 0 0 1-.37.08M82.1 372.3a.73.73 0 0 1-.64-.37.75.75 0 0 1 .27-1l2.63-1.52a.76.76 0 0 1 1 .28.75.75 0 0 1-.28 1l-2.63 1.52a.75.75 0 0 1-.35.09m7-4.05a.74.74 0 0 1-.65-.38.75.75 0 0 1 .28-1l2.63-1.52a.75.75 0 0 1 .75 1.3l-2.63 1.52a.75.75 0 0 1-.36.08Zm7-4.05a.76.76 0 0 1-.65-.38.74.74 0 0 1 .27-1l2.64-1.52a.74.74 0 0 1 1 .27.76.76 0 0 1-.27 1l-2.64 1.52a.7.7 0 0 1-.31.11Zm7-4.05a.75.75 0 0 1-.38-1.4l2.63-1.52a.75.75 0 0 1 1 .27.76.76 0 0 1-.28 1l-2.63 1.52a.9.9 0 0 1-.28.13Zm7-4a.75.75 0 0 1-.37-1.4l2.63-1.52a.74.74 0 0 1 1 .27.75.75 0 0 1-.27 1l-2.54 1.5a.86.86 0 0 1-.38.1Zm7-4.06a.75.75 0 0 1-.38-1.39l2.64-1.52a.75.75 0 0 1 .75 1.29l-2.64 1.52a.7.7 0 0 1-.28.01Zm7-4.05a.75.75 0 0 1-.38-1.4l2.63-1.52a.76.76 0 0 1 1 .28.75.75 0 0 1-.28 1l-2.63 1.52a.7.7 0 0 1-.23.08Zm7-4.05a.75.75 0 0 1-.37-1.4l2.63-1.52a.75.75 0 0 1 1 .28.74.74 0 0 1-.27 1l-2.63 1.52a.8.8 0 0 1-.24.07Zm7-4.05a.75.75 0 0 1-.65-.37.75.75 0 0 1 .28-1l2.77-1.57a.75.75 0 0 1 .75 1.3l-2.63 1.52a.75.75 0 0 1-.38.07Zm7-4.05a.75.75 0 0 1-.38-1.4l2.63-1.52a.75.75 0 0 1 1 .28.75.75 0 0 1-.28 1l-2.63 1.52a.7.7 0 0 1-.18.07Zm7-4a.75.75 0 0 1-.38-1.4l2.63-1.52a.75.75 0 1 1 .75 1.3l-2.63 1.52a.7.7 0 0 1-.19 0Zm7-4.05a.75.75 0 0 1-.37-1.4l2.63-1.52a.74.74 0 0 1 1 .27.75.75 0 0 1-.27 1l-2.63 1.52a1 1 0 0 1-.17.03Zm7-4.05a.76.76 0 0 1-.65-.38.74.74 0 0 1 .27-1l2.63-1.52a.75.75 0 1 1 .75 1.3l-2.63 1.51a.7.7 0 0 1-.16-.01Zm7-4.06a.73.73 0 0 1-.65-.37.75.75 0 0 1 .27-1l2.63-1.51a.75.75 0 1 1 .75 1.29l-2.63 1.52a1 1 0 0 1-.14-.03Zm7-4.05a.75.75 0 0 1-.65-.37.76.76 0 0 1 .28-1l2.63-1.52a.75.75 0 0 1 1 .28.74.74 0 0 1-.27 1l-2.63 1.52a1 1 0 0 1-.12-.01Zm7-4.05a.75.75 0 0 1-.65-.37.76.76 0 0 1 .27-1l2.64-1.52a.75.75 0 0 1 1 .28.74.74 0 0 1-.27 1l-2.64 1.52a1 1 0 0 1-.09-.01ZM76.42 375.58a.74.74 0 0 1-.75-.75v-1.5a.75.75 0 0 1 1.5 0v.2l.17-.1a.76.76 0 0 1 1 .28.74.74 0 0 1-.28 1l-1.3.75a.7.7 0 0 1-.34.12m0-6.44a.75.75 0 0 1-.75-.75v-3a.75.75 0 0 1 1.5 0v3a.75.75 0 0 1-.75.75m0-7.9a.76.76 0 0 1-.75-.75v-3a.75.75 0 0 1 1.5 0v3a.76.76 0 0 1-.75.75m0-7.9a.76.76 0 0 1-.75-.75v-3a.75.75 0 0 1 1.5 0v3a.76.76 0 0 1-.75.75m0-7.91a.75.75 0 0 1-.75-.75v-3a.75.75 0 0 1 .75-.75.75.75 0 0 1 .75.75v3a.75.75 0 0 1-.75.75m0-7.9a.76.76 0 0 1-.75-.75v-3a.75.75 0 0 1 1.5 0v3a.76.76 0 0 1-.75.75m0-7.9a.76.76 0 0 1-.75-.75v-3a.75.75 0 0 1 1.5 0v3a.76.76 0 0 1-.75.75m0-7.91a.75.75 0 0 1-.75-.75v-3a.75.75 0 0 1 1.5 0v3a.75.75 0 0 1-.75.75m0-7.9a.76.76 0 0 1-.75-.75v-3a.75.75 0 0 1 1.5 0v3a.76.76 0 0 1-.75.75m0-7.9a.76.76 0 0 1-.75-.75v-3a.75.75 0 0 1 1.5 0v3a.76.76 0 0 1-.75.75m0-7.91a.75.75 0 0 1-.75-.75v-3a.75.75 0 0 1 .75-.75.74.74 0 0 1 .75.75v3a.75.75 0 0 1-.75.74Zm0-7.9a.76.76 0 0 1-.75-.75v-3a.75.75 0 0 1 1.5 0v3a.76.76 0 0 1-.75.75m0-7.91a.75.75 0 0 1-.75-.75v-3a.75.75 0 0 1 1.5 0v3a.75.75 0 0 1-.75.75m0-7.9a.75.75 0 0 1-.75-.75v-3a.75.75 0 0 1 1.5 0v3a.75.75 0 0 1-.75.75m0-7.9a.76.76 0 0 1-.75-.75v-3a.75.75 0 0 1 1.5 0v3a.76.76 0 0 1-.75.75m0-7.91a.75.75 0 0 1-.75-.75v-3a.75.75 0 0 1 1.5 0v3a.75.75 0 0 1-.75.75m0-7.9a.76.76 0 0 1-.75-.75v-3a.75.75 0 0 1 1.5 0v3a.76.76 0 0 1-.75.75m0-7.9a.76.76 0 0 1-.75-.75v-3a.75.75 0 0 1 1.5 0v3a.75.75 0 0 1-.75.75m0-7.91a.75.75 0 0 1-.75-.75v-3a.75.75 0 0 1 1.5 0v3a.74.74 0 0 1-.75.75m0-7.9a.76.76 0 0 1-.75-.75v-3a.75.75 0 0 1 1.5 0v3a.75.75 0 0 1-.75.75m51.3 36.51a1 1 0 0 1-.5-.13 1 1 0 0 1-.5-.87v-9.32a1 1 0 0 1 2 0v7.59l14.66-8.47v-8.74a1 1 0 0 1 2 0v9.32a1 1 0 0 1-.5.87l-16.66 9.62a1 1 0 0 1-.5.13m3.07-17.54a1.1 1.1 0 0 1-.36-.06 1 1 0 0 1-.57-1.3l5-13a1 1 0 0 1 .82-.63 1 1 0 0 1 .94.42l5 7.19a1 1 0 0 1-.25 1.39 1 1 0 0 1-1.39-.25L136 234l-4.31 11.19a1 1 0 0 1-.9.66" style="fill:#10b981"/><path d="M135.79 252.46a1 1 0 0 1-1-1V233.4a1 1 0 0 1 2 0v18.06a1 1 0 0 1-1 1M114.11 297 158 271.64c1.3-.75 2.35-.14 2.35 1.36v12.39a5.22 5.22 0 0 1-2.35 4.08l-43.89 25.33c-1.3.75-2.35.14-2.35-1.36v-12.39a5.21 5.21 0 0 1 2.35-4.05" style="fill:#10b981"/><path d="M121.22 298.62a.7.7 0 0 1 .08-.33.5.5 0 0 1 .18-.23l.74-.43a.15.15 0 0 1 .19 0 .33.33 0 0 1 .08.24v3.82a2.54 2.54 0 0 0 .25 1.31c.17.26.44.28.82.07a1.94 1.94 0 0 0 .79-1 4.5 4.5 0 0 0 .27-1.61v-3.83a.8.8 0 0 1 .08-.33.47.47 0 0 1 .19-.22l.74-.43a.14.14 0 0 1 .19 0 .33.33 0 0 1 .08.24v7a.8.8 0 0 1-.08.33.57.57 0 0 1-.19.23l-.74.43a.15.15 0 0 1-.19 0 .33.33 0 0 1-.08-.24v-.35a6 6 0 0 1-.56.95 2.45 2.45 0 0 1-.8.74 1.6 1.6 0 0 1-1 .28.9.9 0 0 1-.62-.4 2.35 2.35 0 0 1-.34-.93 8.6 8.6 0 0 1-.09-1.3Zm8.78 2.51a1.8 1.8 0 0 1-.55.22 1 1 0 0 1-.42 0 1 1 0 0 1-.31-.11 1.2 1.2 0 0 1-.2-.18v3.21a.8.8 0 0 1-.08.33.5.5 0 0 1-.19.23l-.74.43a.15.15 0 0 1-.19 0 .36.36 0 0 1-.07-.25v-9.88a.8.8 0 0 1 .07-.33.57.57 0 0 1 .19-.23l.74-.43a.15.15 0 0 1 .19 0 .37.37 0 0 1 .08.25v.34c0-.12.12-.26.2-.41a5 5 0 0 1 .31-.47 3.6 3.6 0 0 1 .42-.47 2.5 2.5 0 0 1 .55-.4 1.3 1.3 0 0 1 .88-.22 1.08 1.08 0 0 1 .68.39 2.5 2.5 0 0 1 .44.88 5.5 5.5 0 0 1 .18 1.23v1.05a9 9 0 0 1-.18 1.44 8 8 0 0 1-.44 1.38 5.4 5.4 0 0 1-.68 1.18 3.1 3.1 0 0 1-.88.82m.91-4.17a6 6 0 0 0 0-.84c0-.63-.17-1-.4-1.19a.71.71 0 0 0-.81 0 2.2 2.2 0 0 0-.81.91 3.6 3.6 0 0 0-.37 1.46 5 5 0 0 0 0 .59 5 5 0 0 0 0 .56 1.43 1.43 0 0 0 .37 1 .67.67 0 0 0 .81 0 2.1 2.1 0 0 0 .81-.9 3.8 3.8 0 0 0 .4-1.55Zm3.67.97a.8.8 0 0 1-.08.33.57.57 0 0 1-.19.23l-.74.43h-.19a.37.37 0 0 1-.08-.25v-9.88a.8.8 0 0 1 .08-.33.45.45 0 0 1 .19-.23l.74-.43a.15.15 0 0 1 .19 0 .33.33 0 0 1 .08.24Zm3.59-9.65a2 2 0 0 1 1-.31 1.17 1.17 0 0 1 .75.27 1.76 1.76 0 0 1 .51.76 3.6 3.6 0 0 1 .22 1.17 3 3 0 0 1 0 .34v1.19a7 7 0 0 1-.22 1.42 6.7 6.7 0 0 1-.51 1.34 5.6 5.6 0 0 1-.75 1.14 3.7 3.7 0 0 1-1 .81 2 2 0 0 1-1 .31 1.1 1.1 0 0 1-.75-.27 1.7 1.7 0 0 1-.5-.75 4 4 0 0 1-.23-1.17 3 3 0 0 1 0-.33v-1.19a6.4 6.4 0 0 1 .22-1.42 7.2 7.2 0 0 1 .51-1.35 5.4 5.4 0 0 1 .75-1.14 3.6 3.6 0 0 1 1-.82m1.18 2.7a2.1 2.1 0 0 0-.14-.69.7.7 0 0 0-.28-.33.55.55 0 0 0-.36 0 1.4 1.4 0 0 0-.4.17 1.8 1.8 0 0 0-.4.3 1.9 1.9 0 0 0-.37.45 3.5 3.5 0 0 0-.28.65 4.2 4.2 0 0 0-.14.86 3 3 0 0 0 0 .31v.76a2 2 0 0 0 0 .29 2.1 2.1 0 0 0 .14.69.7.7 0 0 0 .28.33.5.5 0 0 0 .37 0 2 2 0 0 0 .4-.16 2.6 2.6 0 0 0 .4-.3 2.2 2.2 0 0 0 .36-.46 3.3 3.3 0 0 0 .28-.65 4.2 4.2 0 0 0 .14-.86 3 3 0 0 0 0-.3v-.76a3 3 0 0 0 0-.28Zm2.4-2.69a3.3 3.3 0 0 1 .18-.78 4.8 4.8 0 0 1 .4-.91 4.4 4.4 0 0 1 .64-.89 3.5 3.5 0 0 1 .87-.71 2.2 2.2 0 0 1 .9-.32 1 1 0 0 1 .69.2 1.5 1.5 0 0 1 .45.73 4.6 4.6 0 0 1 .15 1.27v4.43a.75.75 0 0 1-.07.33.5.5 0 0 1-.19.23l-.74.43h-.19a.33.33 0 0 1-.08-.24v-.5a4.7 4.7 0 0 1-.59 1.09 3.3 3.3 0 0 1-1 .88 1.9 1.9 0 0 1-.76.26.8.8 0 0 1-.55-.17 1.1 1.1 0 0 1-.35-.55 2.7 2.7 0 0 1-.13-.87 4 4 0 0 1 .48-1.9 5.4 5.4 0 0 1 1.29-1.54l1.59-1.34c0-.41-.09-.65-.26-.72a.77.77 0 0 0-.66.12 1.2 1.2 0 0 0-.38.32 3 3 0 0 0-.26.44 1.3 1.3 0 0 1-.17.26.43.43 0 0 1-.16.14l-.91.53h-.16c-.04 0-.05-.11-.03-.22m1.63 3.3a2.3 2.3 0 0 0 .59-.48 2.8 2.8 0 0 0 .44-.64 3 3 0 0 0 .26-.69 2.8 2.8 0 0 0 .09-.67V289l-1.33 1.13a2.7 2.7 0 0 0-.58.64 1.4 1.4 0 0 0-.17.65c0 .21.07.33.21.35a.8.8 0 0 0 .49-.18m5.91-9.74a2 2 0 0 1 .55-.22 1.2 1.2 0 0 1 .42 0 .8.8 0 0 1 .31.12.9.9 0 0 1 .2.18v-3.23a.8.8 0 0 1 .08-.34.46.46 0 0 1 .18-.22l.75-.43a.15.15 0 0 1 .19 0 .33.33 0 0 1 .07.24v9.89a.8.8 0 0 1-.07.33.53.53 0 0 1-.19.22l-.75.43a.13.13 0 0 1-.18 0 .33.33 0 0 1-.08-.24v-.35c-.05.12-.12.26-.2.41a4 4 0 0 1-.31.48 4.4 4.4 0 0 1-.42.47 3.2 3.2 0 0 1-.55.4 1.34 1.34 0 0 1-.88.22 1.14 1.14 0 0 1-.68-.4 2.4 2.4 0 0 1-.44-.87 4.7 4.7 0 0 1-.18-1.23v-1.06a7 7 0 0 1 .18-1.43 8.7 8.7 0 0 1 .44-1.39 5.6 5.6 0 0 1 .68-1.17 3 3 0 0 1 .88-.81m-.91 4.18a6 6 0 0 0 0 .84c0 .63.17 1 .39 1.18a.71.71 0 0 0 .82 0 2.1 2.1 0 0 0 .8-.9 3.5 3.5 0 0 0 .38-1.47v-1.14a1.35 1.35 0 0 0-.38-1 .66.66 0 0 0-.8 0 2.33 2.33 0 0 0-.82.9 4 4 0 0 0-.39 1.56Z" style="fill:#fafafa"/><path d="M204.51 174.28a.54.54 0 0 1-.25-.06.5.5 0 0 1-.25-.44v-30.59a.5.5 0 0 1 .25-.43l35.33-20.4a.5.5 0 0 1 .5 0 .48.48 0 0 1 .25.43v30.59a.5.5 0 0 1-.25.44l-35.33 20.4a.54.54 0 0 1-.25.06m.5-30.8v29.44l34.33-19.82v-29.44Z" style="fill:#10b981"/><path d="M204.51 168.17a.5.5 0 0 1-.44-.73l11.77-23.12a.5.5 0 0 1 .32-.25.48.48 0 0 1 .4.06l12.75 8.16a.5.5 0 0 1-.54.84l-12.29-7.86L205 167.9a.51.51 0 0 1-.49.27" style="fill:#10b981"/><path d="M225.23 150.77a.6.6 0 0 1-.28-.08.5.5 0 0 1-.14-.69l6.23-9.54a.49.49 0 0 1 .68-.15l8.39 5.17a.51.51 0 0 1 .16.69.49.49 0 0 1-.69.16l-8-4.92-6 9.13a.48.48 0 0 1-.35.23m-1.3-7.69a1.76 1.76 0 0 1-.9-.24 2.24 2.24 0 0 1-1-2.06 6 6 0 0 1 2.77-4.78 2 2 0 0 1 3.26 1.88 6.06 6.06 0 0 1-2.76 4.79 2.86 2.86 0 0 1-1.37.41m2.25-6.49a1.8 1.8 0 0 0-.87.27 5.1 5.1 0 0 0-2.27 3.92 1.34 1.34 0 0 0 .49 1.2 1.36 1.36 0 0 0 1.28-.18 5.1 5.1 0 0 0 2.26-3.92 1.3 1.3 0 0 0-.49-1.19.74.74 0 0 0-.4-.1" style="fill:#10b981"/><path d="m307 98.09-1.27-1.23 1.41-3a.65.65 0 1 0-1.17-.55l-1.23 2.6-1-.93a.65.65 0 0 0-.9.94l1.27 1.23-1.41 3a.65.65 0 0 0 .31.87.7.7 0 0 0 .28.06.65.65 0 0 0 .58-.37l1.23-2.6 1 .92a.66.66 0 0 0 .45.18.63.63 0 0 0 .45-.21.64.64 0 0 0 0-.91" style="fill:#455a64"/><path d="M245.87 142.44c0 1.41 1.06 1.94 2.36 1.19l52.71-30.43a5 5 0 0 0 2.35-3.91c0-1.41-1.05-1.94-2.35-1.19l-52.71 30.43a5.05 5.05 0 0 0-2.36 3.91" style="fill:#e0e0e0"/><path d="M245.87 142.44c0 1.41 1.06 1.94 2.36 1.19l29.43-17a5 5 0 0 0 2.35-3.91c0-1.41-1.05-1.94-2.35-1.19l-29.43 17a5.05 5.05 0 0 0-2.36 3.91" style="fill:#10b981"/><path d="M246.64 125.91a.1.1 0 0 1 .13 0 .24.24 0 0 1 .06.18v.85a.5.5 0 0 1-.06.24.36.36 0 0 1-.13.16l-.61.35a.09.09 0 0 1-.13 0 .21.21 0 0 1-.06-.17v-.85a.5.5 0 0 1 .06-.24.3.3 0 0 1 .13-.16Zm.15 7.33a.7.7 0 0 1 0 .24.4.4 0 0 1-.14.17l-.53.31a.14.14 0 0 1-.14 0 .24.24 0 0 1-.05-.18v-5.08a.5.5 0 0 1 .05-.23.35.35 0 0 1 .14-.17l.53-.31a.11.11 0 0 1 .14 0 .3.3 0 0 1 0 .18Zm1.89-5.91a4 4 0 0 1 .41-.72 2 2 0 0 1 .51-.46.92.92 0 0 1 .72-.16.78.78 0 0 1 .45.41 3.4 3.4 0 0 1 .23-.52 3 3 0 0 1 .28-.46 3 3 0 0 1 .31-.36 2 2 0 0 1 .32-.24 1 1 0 0 1 .67-.19.7.7 0 0 1 .44.31 1.65 1.65 0 0 1 .23.67 5.5 5.5 0 0 1 .07.94v2.92a.5.5 0 0 1-.06.24.34.34 0 0 1-.13.17l-.54.31a.1.1 0 0 1-.13 0 .24.24 0 0 1-.06-.18v-2.87a1.48 1.48 0 0 0-.18-.92c-.13-.13-.3-.13-.52 0a1.3 1.3 0 0 0-.48.56 2.6 2.6 0 0 0-.22 1.12v2.92a.7.7 0 0 1-.05.24.4.4 0 0 1-.14.17l-.54.31a.12.12 0 0 1-.13 0 .24.24 0 0 1-.06-.18v-2.87a1.54 1.54 0 0 0-.18-.93q-.18-.18-.51 0a1.27 1.27 0 0 0-.5.58 2.6 2.6 0 0 0-.21 1.15v2.87a.5.5 0 0 1-.05.24.36.36 0 0 1-.13.16l-.54.31a.11.11 0 0 1-.14 0 .25.25 0 0 1 0-.17v-5.07a.7.7 0 0 1 0-.24.4.4 0 0 1 .14-.16l.54-.31a.09.09 0 0 1 .13 0s.05.09.05.17Zm5.58-2.33a3 3 0 0 1 .13-.56 3.6 3.6 0 0 1 .75-1.3 2.6 2.6 0 0 1 .63-.51 1.65 1.65 0 0 1 .65-.23.77.77 0 0 1 .5.14 1.17 1.17 0 0 1 .32.53 3.4 3.4 0 0 1 .11.92v3.2a.5.5 0 0 1-.06.24.3.3 0 0 1-.13.16l-.54.31a.09.09 0 0 1-.13 0 .22.22 0 0 1-.06-.17v-.36a3.5 3.5 0 0 1-.42.78 2.3 2.3 0 0 1-.71.63 1.3 1.3 0 0 1-.55.19.55.55 0 0 1-.4-.12.85.85 0 0 1-.25-.39 1.9 1.9 0 0 1-.09-.63 2.76 2.76 0 0 1 .35-1.37 3.9 3.9 0 0 1 .92-1.11l1.15-1c0-.3-.06-.47-.19-.52a.55.55 0 0 0-.47.09.8.8 0 0 0-.28.23 2 2 0 0 0-.19.32 1 1 0 0 1-.11.18.35.35 0 0 1-.12.1l-.66.38a.11.11 0 0 1-.12 0 .2.2 0 0 1-.03-.13m1.18 2.39a1.6 1.6 0 0 0 .42-.35 2.4 2.4 0 0 0 .32-.46 2.6 2.6 0 0 0 .19-.5 2 2 0 0 0 .06-.48v-.11l-1 .81a1.7 1.7 0 0 0-.41.47.85.85 0 0 0-.13.47q0 .22.15.24a.53.53 0 0 0 .4-.13Zm4.45-.33a1.6 1.6 0 0 0 .31-.25 2 2 0 0 0 .28-.38 3 3 0 0 0 .21-.51 2.4 2.4 0 0 0 .08-.6v-.4q-.06.14-.15.3a3 3 0 0 1-.22.34 3 3 0 0 1-.3.34 2 2 0 0 1-.4.29 1 1 0 0 1-.64.16.76.76 0 0 1-.48-.29 1.7 1.7 0 0 1-.32-.63 3.4 3.4 0 0 1-.13-.89v-.76a5.3 5.3 0 0 1 .13-1 5 5 0 0 1 .32-1 3.7 3.7 0 0 1 .48-.85 2.2 2.2 0 0 1 .64-.58 1.2 1.2 0 0 1 .4-.16.6.6 0 0 1 .3 0 .5.5 0 0 1 .22.08l.15.12v-.24a.5.5 0 0 1 .06-.24.34.34 0 0 1 .13-.17l.54-.31a.1.1 0 0 1 .13 0 .24.24 0 0 1 .06.18v5.09a4.9 4.9 0 0 1-.48 2.26 3.34 3.34 0 0 1-1.32 1.43 1.7 1.7 0 0 1-.66.24.94.94 0 0 1-.54-.08.87.87 0 0 1-.36-.35 1.2 1.2 0 0 1-.15-.55.6.6 0 0 1 .06-.24.32.32 0 0 1 .14-.16l.48-.28a.12.12 0 0 1 .17 0l.11.12a.4.4 0 0 0 .26.16.93.93 0 0 0 .49-.19m-.84-3.73a3 3 0 0 0 0 .61c0 .45.12.74.28.85a.5.5 0 0 0 .59 0 1.6 1.6 0 0 0 .58-.65 2.6 2.6 0 0 0 .27-1.06v-.83a1 1 0 0 0-.27-.73.48.48 0 0 0-.58 0 1.57 1.57 0 0 0-.59.65 2.7 2.7 0 0 0-.28 1.16m3.43-1.68a6.2 6.2 0 0 1 .12-1.21 5 5 0 0 1 .35-1.14 4.5 4.5 0 0 1 .54-.94 2.5 2.5 0 0 1 .72-.64 1.08 1.08 0 0 1 .71-.19.8.8 0 0 1 .55.28 1.6 1.6 0 0 1 .35.68 3.7 3.7 0 0 1 .13 1v.51a.46.46 0 0 1-.06.23.4.4 0 0 1-.13.17l-2.36 1.36a1.1 1.1 0 0 0 .06.4.5.5 0 0 0 .18.22.4.4 0 0 0 .27 0 .8.8 0 0 0 .3-.11 1.6 1.6 0 0 0 .37-.28 2 2 0 0 0 .23-.31 1.4 1.4 0 0 1 .13-.2.5.5 0 0 1 .13-.11l.57-.32a.09.09 0 0 1 .13 0 .21.21 0 0 1 .06.17 2.6 2.6 0 0 1-.11.46 3.4 3.4 0 0 1-.31.64 4 4 0 0 1-.51.68 2.7 2.7 0 0 1-.69.57 1.24 1.24 0 0 1-.72.2.77.77 0 0 1-.54-.29 1.6 1.6 0 0 1-.35-.73 4.5 4.5 0 0 1-.12-1.1m1.73-2.63a1.3 1.3 0 0 0-.35.3 1.4 1.4 0 0 0-.24.38 2 2 0 0 0-.16.41 3 3 0 0 0-.06.38l1.59-.92a1.7 1.7 0 0 0-.05-.31.54.54 0 0 0-.13-.25.32.32 0 0 0-.23-.11.7.7 0 0 0-.37.1Zm2.56 3.63a.09.09 0 0 1-.13 0 .21.21 0 0 1-.06-.17v-.72a.5.5 0 0 1 .06-.24.3.3 0 0 1 .13-.16l4.13-2.36a.12.12 0 0 1 .14 0 .24.24 0 0 1 0 .18v.71a.5.5 0 0 1 0 .24.4.4 0 0 1-.14.17Zm4.86-8.65a.23.23 0 0 1 0-.19.55.55 0 0 1 .07-.24l1.53-2.74.12-.2a.4.4 0 0 1 .13-.13l.55-.32a.09.09 0 0 1 .13 0 .22.22 0 0 1 .06.17v7a.5.5 0 0 1-.06.24.3.3 0 0 1-.13.16l-.57.33a.11.11 0 0 1-.14 0 .25.25 0 0 1 0-.17v-5.37l-1 1.78c0 .08-.08.13-.13.14a.1.1 0 0 1-.13 0Z" style="fill:#455a64"/><path d="M204.51 216.54a.45.45 0 0 1-.25-.07.48.48 0 0 1-.26-.47v-30.6a.52.52 0 0 1 .25-.43l35.33-20.4a.5.5 0 0 1 .75.43v30.6a.48.48 0 0 1-.25.43l-35.33 20.4a.45.45 0 0 1-.24.11m.5-30.81v29.44l34.33-19.82v-29.44Z" style="fill:#10b981"/><path d="M204.51 210.42a.5.5 0 0 1-.23 0 .5.5 0 0 1-.21-.67l11.77-23.12a.51.51 0 0 1 .72-.2l12.75 8.16a.5.5 0 0 1 .15.69.49.49 0 0 1-.69.15l-12.29-7.86L205 210.15a.51.51 0 0 1-.49.27" style="fill:#10b981"/><path d="M225.23 193a.5.5 0 0 1-.28-.08.5.5 0 0 1-.14-.69l6.23-9.54a.5.5 0 0 1 .68-.15l8.39 5.18a.5.5 0 1 1-.53.85l-8-4.92-6 9.13a.49.49 0 0 1-.35.22m-1.3-7.67a1.85 1.85 0 0 1-.9-.23 2.24 2.24 0 0 1-1-2.06 6 6 0 0 1 2.77-4.79 2 2 0 0 1 3.26 1.88 6 6 0 0 1-2.76 4.79 2.86 2.86 0 0 1-1.37.41m2.25-6.49a1.8 1.8 0 0 0-.87.28A5.08 5.08 0 0 0 223 183a1.05 1.05 0 0 0 1.77 1 5.08 5.08 0 0 0 2.26-3.92 1.32 1.32 0 0 0-.49-1.19.74.74 0 0 0-.36-.05" style="fill:#10b981"/><path d="m307 140.34-1.27-1.23 1.41-3a.65.65 0 1 0-1.17-.56l-1.23 2.6-1-.92a.65.65 0 1 0-.9.93l1.27 1.23-1.41 3a.64.64 0 0 0 .31.86.7.7 0 0 0 .28.06.63.63 0 0 0 .58-.37l1.23-2.6 1 .93a.65.65 0 0 0 .92 0 .65.65 0 0 0-.02-.93" style="fill:#455a64"/><path d="M245.87 184.7c0 1.4 1.06 1.94 2.36 1.19l52.71-30.44a5 5 0 0 0 2.35-3.91c0-1.4-1.05-1.94-2.35-1.19l-52.71 30.44a5.05 5.05 0 0 0-2.36 3.91" style="fill:#e0e0e0"/><path d="M245.87 184.7c0 1.4 1.06 1.94 2.36 1.19L287.89 163a5.08 5.08 0 0 0 2.36-3.91c0-1.41-1.06-2-2.36-1.19l-39.66 22.9a5.05 5.05 0 0 0-2.36 3.9" style="fill:#10b981"/><path d="M246.64 168.16a.09.09 0 0 1 .13 0 .22.22 0 0 1 .06.17v.85a.5.5 0 0 1-.06.24.4.4 0 0 1-.13.17l-.64.41a.1.1 0 0 1-.13 0 .24.24 0 0 1-.06-.18v-.85a.5.5 0 0 1 .06-.23.34.34 0 0 1 .13-.17Zm.15 7.34a.7.7 0 0 1 0 .24.4.4 0 0 1-.14.16l-.53.31h-.14c-.04 0-.05-.09-.05-.17V171a.5.5 0 0 1 .05-.24.32.32 0 0 1 .14-.16l.53-.31a.11.11 0 0 1 .14 0 .25.25 0 0 1 0 .17Zm1.89-5.91a3.5 3.5 0 0 1 .41-.72 1.8 1.8 0 0 1 .51-.46.93.93 0 0 1 .72-.17.8.8 0 0 1 .45.42 3 3 0 0 1 .23-.52 2.6 2.6 0 0 1 .28-.46 3 3 0 0 1 .31-.36 1.7 1.7 0 0 1 .32-.25 1.1 1.1 0 0 1 .67-.18.7.7 0 0 1 .44.31 1.6 1.6 0 0 1 .23.67 5.4 5.4 0 0 1 .07.94v2.92a.5.5 0 0 1-.06.24.3.3 0 0 1-.13.16l-.54.31a.09.09 0 0 1-.13 0 .21.21 0 0 1-.06-.17v-2.87a1.54 1.54 0 0 0-.18-.93c-.13-.12-.3-.12-.52 0a1.23 1.23 0 0 0-.48.56 2.6 2.6 0 0 0-.22 1.11v2.93a.7.7 0 0 1-.05.24.4.4 0 0 1-.14.16l-.54.31a.09.09 0 0 1-.13 0 .21.21 0 0 1-.06-.17v-2.87a1.52 1.52 0 0 0-.18-.93q-.18-.18-.51 0a1.36 1.36 0 0 0-.5.59 2.6 2.6 0 0 0-.21 1.14v2.88a.46.46 0 0 1-.05.23.4.4 0 0 1-.13.17l-.54.31a.11.11 0 0 1-.14 0 .26.26 0 0 1 0-.17v-5.07a.7.7 0 0 1 0-.24.4.4 0 0 1 .14-.17l.54-.31a.1.1 0 0 1 .13 0 .24.24 0 0 1 .05.18Zm5.58-2.37a3 3 0 0 1 .13-.57 3.3 3.3 0 0 1 .29-.65 3 3 0 0 1 .46-.64 2.4 2.4 0 0 1 .63-.51 1.5 1.5 0 0 1 .65-.23.67.67 0 0 1 .5.14 1.1 1.1 0 0 1 .32.53 3.3 3.3 0 0 1 .11.91v3.2a.5.5 0 0 1-.06.24.34.34 0 0 1-.13.17l-.54.31a.1.1 0 0 1-.13 0 .24.24 0 0 1-.06-.18v-.36a3.6 3.6 0 0 1-.42.79 2.5 2.5 0 0 1-.71.63 1.3 1.3 0 0 1-.55.19.55.55 0 0 1-.4-.12.85.85 0 0 1-.25-.39 2 2 0 0 1-.1-.68 2.83 2.83 0 0 1 .35-1.38 4.2 4.2 0 0 1 .92-1.11l1.15-1c0-.29-.06-.47-.19-.52a.55.55 0 0 0-.47.09 1 1 0 0 0-.28.24 2 2 0 0 0-.19.31 1 1 0 0 1-.11.19l-.12.1-.66.38a.09.09 0 0 1-.12 0s-.03 0-.02-.08m1.18 2.39a1.6 1.6 0 0 0 .42-.36 2.3 2.3 0 0 0 .32-.45 2.6 2.6 0 0 0 .19-.51 2 2 0 0 0 .06-.48v-.11l-1 .82a1.8 1.8 0 0 0-.41.46.9.9 0 0 0-.13.47c0 .15 0 .24.15.25a.6.6 0 0 0 .4-.09m4.45-.29a1.6 1.6 0 0 0 .31-.25 2.4 2.4 0 0 0 .28-.39 3 3 0 0 0 .21-.5 2.4 2.4 0 0 0 .08-.6v-.4l-.15.3a3 3 0 0 1-.22.34l-.3.34a2.4 2.4 0 0 1-.4.29.94.94 0 0 1-.64.15.75.75 0 0 1-.48-.28 1.7 1.7 0 0 1-.32-.63 3.5 3.5 0 0 1-.13-.89v-.76a5.4 5.4 0 0 1 .13-1 5.6 5.6 0 0 1 .32-1 3.8 3.8 0 0 1 .48-.84 2.2 2.2 0 0 1 .64-.59 1.8 1.8 0 0 1 .4-.16 1 1 0 0 1 .3 0 .5.5 0 0 1 .22.09l.15.12v-.25a.5.5 0 0 1 .06-.24.3.3 0 0 1 .17-.17l.54-.31a.09.09 0 0 1 .13 0 .21.21 0 0 1 .06.17v5.1a4.9 4.9 0 0 1-.48 2.26 3.34 3.34 0 0 1-1.32 1.43 1.7 1.7 0 0 1-.66.24.94.94 0 0 1-.54-.09.84.84 0 0 1-.36-.34 1.2 1.2 0 0 1-.15-.55.5.5 0 0 1 .06-.24.35.35 0 0 1 .14-.17l.48-.27a.14.14 0 0 1 .17 0l.11.12a.4.4 0 0 0 .26.16.8.8 0 0 0 .45-.19m-.84-3.73a3 3 0 0 0 0 .6 1.13 1.13 0 0 0 .28.86.53.53 0 0 0 .59 0 1.6 1.6 0 0 0 .58-.65 2.7 2.7 0 0 0 .27-1.06v-.83a1 1 0 0 0-.27-.73.47.47 0 0 0-.58 0 1.5 1.5 0 0 0-.59.65 2.7 2.7 0 0 0-.28 1.16m3.43-1.68a6.3 6.3 0 0 1 .12-1.22 5 5 0 0 1 .35-1.13 4.3 4.3 0 0 1 .54-.94 2.7 2.7 0 0 1 .72-.65 1.2 1.2 0 0 1 .71-.19.9.9 0 0 1 .55.28 1.7 1.7 0 0 1 .35.68 3.7 3.7 0 0 1 .13 1v.49a.5.5 0 0 1-.06.24.3.3 0 0 1-.13.16L263.4 164a1.1 1.1 0 0 0 .06.4.6.6 0 0 0 .18.22.5.5 0 0 0 .27 0 .8.8 0 0 0 .3-.11 2 2 0 0 0 .37-.28 1.7 1.7 0 0 0 .23-.32 1.2 1.2 0 0 1 .13-.19.36.36 0 0 1 .13-.11l.57-.33a.1.1 0 0 1 .13 0 .23.23 0 0 1 .06.18 3 3 0 0 1-.11.45 3.4 3.4 0 0 1-.31.65 4 4 0 0 1-.51.68 2.9 2.9 0 0 1-.69.56 1.25 1.25 0 0 1-.72.21.8.8 0 0 1-.54-.29 1.66 1.66 0 0 1-.35-.73 4.6 4.6 0 0 1-.12-1.08m1.73-2.63a1.4 1.4 0 0 0-.35.29 1.7 1.7 0 0 0-.24.38 2.4 2.4 0 0 0-.16.42 3 3 0 0 0-.06.38l1.59-.92a2 2 0 0 0-.05-.32.7.7 0 0 0-.13-.25.3.3 0 0 0-.23-.1.63.63 0 0 0-.37.12m2.56 3.63a.09.09 0 0 1-.13 0 .24.24 0 0 1-.06-.17V164a.5.5 0 0 1 .06-.24.34.34 0 0 1 .13-.17l4.13-2.38a.11.11 0 0 1 .14 0s0 .09 0 .17v.72a.5.5 0 0 1 0 .24.4.4 0 0 1-.14.16Zm7.28-9.12a2.6 2.6 0 0 0 .28-.69 3 3 0 0 0 .06-.54 1 1 0 0 0-.18-.65c-.12-.14-.31-.13-.59 0a1.4 1.4 0 0 0-.57.62 4 4 0 0 0-.25.9.7.7 0 0 1-.09.26.5.5 0 0 1-.12.15l-.56.32a.12.12 0 0 1-.14 0 .22.22 0 0 1-.05-.19 4.5 4.5 0 0 1 .16-1 4.6 4.6 0 0 1 .38-1 4 4 0 0 1 .55-.84 2.5 2.5 0 0 1 .69-.58 1.27 1.27 0 0 1 .77-.23.88.88 0 0 1 .53.27 1.4 1.4 0 0 1 .32.6 3 3 0 0 1 .1.79v.53a4 4 0 0 1-.1.55 4.6 4.6 0 0 1-.23.64 7 7 0 0 1-.39.8l-1.31 2.59 2-1.13h.14a.22.22 0 0 1 .06.17v.87a.46.46 0 0 1-.06.23.35.35 0 0 1-.14.17l-3.29 1.9a.11.11 0 0 1-.14 0s-.05-.09-.05-.17v-.66a.9.9 0 0 1 .07-.36.9.9 0 0 1 .12-.26Z" style="fill:#455a64"/><path d="M204.51 259.88a.45.45 0 0 1-.25-.07.48.48 0 0 1-.25-.43v-30.59a.52.52 0 0 1 .25-.44L239.59 208a.55.55 0 0 1 .5 0 .5.5 0 0 1 .25.44V239a.5.5 0 0 1-.25.44l-35.33 20.39a.45.45 0 0 1-.25.05m.5-30.8v29.43l34.33-19.82v-29.44Z" style="fill:#10b981"/><path d="M204.51 253.77a.5.5 0 0 1-.44-.73l11.77-23.12a.51.51 0 0 1 .72-.19l12.75 8.16a.5.5 0 1 1-.54.84l-12.29-7.86L205 253.49a.5.5 0 0 1-.49.28" style="fill:#10b981"/><path d="M225.23 236.37a.6.6 0 0 1-.28-.08.51.51 0 0 1-.14-.7l6.23-9.53a.5.5 0 0 1 .68-.16l8.39 5.18a.51.51 0 0 1 .16.69.49.49 0 0 1-.69.16l-8-4.92-6 9.13a.48.48 0 0 1-.35.23m-1.3-7.69a1.76 1.76 0 0 1-.9-.24 2.24 2.24 0 0 1-1-2.06 6 6 0 0 1 2.77-4.79 2 2 0 0 1 3.26 1.89 6 6 0 0 1-2.76 4.78 2.77 2.77 0 0 1-1.37.42m2.25-6.49a1.8 1.8 0 0 0-.87.27 5.08 5.08 0 0 0-2.27 3.92 1.3 1.3 0 0 0 .49 1.19 1.32 1.32 0 0 0 1.28-.17 5.12 5.12 0 0 0 2.26-3.92 1.34 1.34 0 0 0-.49-1.2.84.84 0 0 0-.4-.09" style="fill:#10b981"/><path d="m307 183.68-1.27-1.23 1.41-3a.64.64 0 0 0-.31-.86.63.63 0 0 0-.86.31l-1.23 2.6-1-.93a.65.65 0 0 0-.92 0 .64.64 0 0 0 0 .91l1.27 1.23-1.41 3a.64.64 0 0 0 .31.86.55.55 0 0 0 .28.07.64.64 0 0 0 .58-.38l1.23-2.6 1 .93a.65.65 0 0 0 .92 0 .65.65 0 0 0 0-.91" style="fill:#455a64"/><path d="M245.87 228c0 1.41 1.06 1.94 2.36 1.19l52.71-30.43a5 5 0 0 0 2.35-3.91c0-1.41-1.05-1.94-2.35-1.19l-52.71 30.43a5.05 5.05 0 0 0-2.36 3.91" style="fill:#e0e0e0"/><path d="M245.87 228c0 1.41 1.06 1.94 2.36 1.19l16.48-9.51a5 5 0 0 0 2.35-3.91c0-1.41-1.05-1.94-2.35-1.19l-16.48 9.51a5.05 5.05 0 0 0-2.36 3.91" style="fill:#10b981"/><path d="M246.64 211.51a.09.09 0 0 1 .13 0 .21.21 0 0 1 .06.17v.85a.5.5 0 0 1-.06.24.36.36 0 0 1-.13.16l-.61.35a.09.09 0 0 1-.13 0 .21.21 0 0 1-.06-.17v-.85a.5.5 0 0 1 .06-.24.3.3 0 0 1 .13-.16Zm.15 7.33a.7.7 0 0 1 0 .24.4.4 0 0 1-.14.17l-.53.31a.12.12 0 0 1-.14 0 .24.24 0 0 1-.05-.18v-5.06a.5.5 0 0 1 .05-.24.35.35 0 0 1 .14-.17l.53-.31a.12.12 0 0 1 .14 0 .3.3 0 0 1 0 .18Zm1.89-5.91a4 4 0 0 1 .41-.72 2 2 0 0 1 .51-.46.92.92 0 0 1 .72-.16.78.78 0 0 1 .45.41 3.4 3.4 0 0 1 .23-.52 3 3 0 0 1 .28-.46 3 3 0 0 1 .31-.36 2 2 0 0 1 .32-.24 1 1 0 0 1 .67-.18.64.64 0 0 1 .44.3 1.64 1.64 0 0 1 .23.68 5.3 5.3 0 0 1 .07.93v2.93a.5.5 0 0 1-.06.23.34.34 0 0 1-.13.17l-.54.31a.09.09 0 0 1-.13 0 .22.22 0 0 1-.06-.17v-2.88a1.48 1.48 0 0 0-.18-.92c-.13-.13-.3-.13-.52 0a1.3 1.3 0 0 0-.48.56 2.6 2.6 0 0 0-.22 1.12v2.92a.7.7 0 0 1-.05.24.4.4 0 0 1-.14.17l-.54.31a.1.1 0 0 1-.13 0 .24.24 0 0 1-.06-.18v-2.87a1.54 1.54 0 0 0-.18-.93q-.18-.18-.51 0a1.3 1.3 0 0 0-.5.58 2.6 2.6 0 0 0-.21 1.15v2.87a.5.5 0 0 1-.05.24.36.36 0 0 1-.13.16l-.54.31a.11.11 0 0 1-.14 0 .25.25 0 0 1 0-.17v-5.07a.7.7 0 0 1 0-.24.4.4 0 0 1 .14-.16l.54-.31a.09.09 0 0 1 .13 0 .22.22 0 0 1 .05.17Zm5.58-2.37a3 3 0 0 1 .13-.56 3.7 3.7 0 0 1 .29-.66 3.4 3.4 0 0 1 .46-.64 2.6 2.6 0 0 1 .63-.51 1.65 1.65 0 0 1 .65-.23.77.77 0 0 1 .5.14 1.17 1.17 0 0 1 .32.53 3.4 3.4 0 0 1 .11.92v3.2a.5.5 0 0 1-.06.24.3.3 0 0 1-.13.16l-.54.31a.09.09 0 0 1-.13 0 .22.22 0 0 1-.06-.17v-.36a3.3 3.3 0 0 1-.42.78 2.3 2.3 0 0 1-.71.63 1.3 1.3 0 0 1-.55.19.55.55 0 0 1-.4-.12.85.85 0 0 1-.25-.39 1.9 1.9 0 0 1-.09-.63 2.76 2.76 0 0 1 .35-1.37 3.9 3.9 0 0 1 .92-1.11l1.15-1c0-.3-.06-.47-.19-.52a.55.55 0 0 0-.47.09.8.8 0 0 0-.28.23 3 3 0 0 0-.19.32 1 1 0 0 1-.11.18.35.35 0 0 1-.12.1l-.66.38a.11.11 0 0 1-.12 0 .2.2 0 0 1-.03-.13m1.18 2.39a1.6 1.6 0 0 0 .42-.35 2.4 2.4 0 0 0 .32-.46 2.3 2.3 0 0 0 .19-.5 2 2 0 0 0 .06-.48v-.11l-1 .81a1.9 1.9 0 0 0-.41.47.85.85 0 0 0-.13.47c0 .15 0 .23.15.25a.62.62 0 0 0 .4-.05Zm4.45-.29a1.6 1.6 0 0 0 .31-.25 2 2 0 0 0 .28-.38 3 3 0 0 0 .21-.51 2.3 2.3 0 0 0 .08-.59v-.41q-.06.14-.15.3a2 2 0 0 1-.22.34 3 3 0 0 1-.3.34 2 2 0 0 1-.4.29 1 1 0 0 1-.64.16.76.76 0 0 1-.48-.29 1.6 1.6 0 0 1-.32-.63 3.4 3.4 0 0 1-.13-.88v-.77a5.4 5.4 0 0 1 .13-1 5 5 0 0 1 .32-1 3.7 3.7 0 0 1 .48-.85 2.3 2.3 0 0 1 .64-.58 1.4 1.4 0 0 1 .4-.16.6.6 0 0 1 .3 0 .5.5 0 0 1 .22.08.6.6 0 0 1 .15.13v-.25a.5.5 0 0 1 .06-.24.34.34 0 0 1 .13-.17l.54-.31a.1.1 0 0 1 .13 0 .24.24 0 0 1 .06.18v5.1a4.9 4.9 0 0 1-.48 2.25 3.34 3.34 0 0 1-1.32 1.43 1.7 1.7 0 0 1-.66.24.94.94 0 0 1-.54-.08.87.87 0 0 1-.36-.35 1.2 1.2 0 0 1-.15-.55.5.5 0 0 1 .06-.23.3.3 0 0 1 .14-.17l.48-.28a.12.12 0 0 1 .17 0l.11.12a.4.4 0 0 0 .26.16.85.85 0 0 0 .49-.19m-.84-3.73a3 3 0 0 0 0 .61c0 .45.12.74.28.85a.5.5 0 0 0 .59 0 1.6 1.6 0 0 0 .58-.65 2.6 2.6 0 0 0 .27-1.06v-.82a1 1 0 0 0-.27-.74.49.49 0 0 0-.58 0 1.57 1.57 0 0 0-.59.65 2.7 2.7 0 0 0-.28 1.16m3.43-1.68a6.2 6.2 0 0 1 .12-1.21 5 5 0 0 1 .35-1.14 4.5 4.5 0 0 1 .54-.94 2.5 2.5 0 0 1 .72-.64 1.14 1.14 0 0 1 .71-.19.84.84 0 0 1 .55.28 1.6 1.6 0 0 1 .35.68 3.7 3.7 0 0 1 .13 1v.49a.46.46 0 0 1-.06.23.35.35 0 0 1-.13.17l-2.36 1.36a1.1 1.1 0 0 0 .06.4.5.5 0 0 0 .18.22.4.4 0 0 0 .27 0 .8.8 0 0 0 .3-.1 2 2 0 0 0 .37-.29 1.7 1.7 0 0 0 .23-.31 1.4 1.4 0 0 1 .13-.2.34.34 0 0 1 .13-.1l.57-.33a.09.09 0 0 1 .13 0 .21.21 0 0 1 .06.17 2.6 2.6 0 0 1-.11.46 3.4 3.4 0 0 1-.31.64 4.4 4.4 0 0 1-.51.69 2.9 2.9 0 0 1-.69.56 1.24 1.24 0 0 1-.72.2.77.77 0 0 1-.54-.29 1.6 1.6 0 0 1-.35-.73 4.5 4.5 0 0 1-.12-1.08m1.73-2.63a1.3 1.3 0 0 0-.35.3 1.4 1.4 0 0 0-.24.38 2 2 0 0 0-.16.41 3 3 0 0 0-.06.38l1.59-.92a1.7 1.7 0 0 0-.05-.31.54.54 0 0 0-.13-.25.32.32 0 0 0-.23-.11.8.8 0 0 0-.37.12m2.56 3.63a.09.09 0 0 1-.13 0 .21.21 0 0 1-.06-.17v-.72a.5.5 0 0 1 .06-.24.3.3 0 0 1 .13-.16l4.13-2.39a.12.12 0 0 1 .14 0 .24.24 0 0 1 0 .18v.71a.5.5 0 0 1 0 .24.4.4 0 0 1-.14.17Zm8.44-13.13h.14a.25.25 0 0 1 0 .17v.77a.6.6 0 0 1 0 .26c0 .08-.07.16-.1.23l-1 2.27a1.35 1.35 0 0 1 .57-.09.72.72 0 0 1 .44.2 1.07 1.07 0 0 1 .29.49 3 3 0 0 1 .1.79 4 4 0 0 1-.15 1.09 4.14 4.14 0 0 1-1 1.8 3.6 3.6 0 0 1-.76.6 2 2 0 0 1-.86.31.94.94 0 0 1-.61-.11.83.83 0 0 1-.36-.42 1.6 1.6 0 0 1-.15-.63.4.4 0 0 1 0-.24.37.37 0 0 1 .14-.16l.55-.32h.12a.8.8 0 0 1 .1.15.5.5 0 0 0 .11.18.4.4 0 0 0 .19.1.6.6 0 0 0 .29 0 1.7 1.7 0 0 0 .43-.19 2 2 0 0 0 .7-.67 1.7 1.7 0 0 0 .26-.91c0-.32-.09-.51-.26-.55a1.14 1.14 0 0 0-.7.19l-.59.34a.09.09 0 0 1-.13 0 .21.21 0 0 1-.06-.17v-.77a.65.65 0 0 1 .06-.26c0-.09.07-.16.1-.23l1-2.17-1.95 1.12a.11.11 0 0 1-.14 0 .25.25 0 0 1-.05-.17v-.77a.7.7 0 0 1 .05-.24.4.4 0 0 1 .14-.17Z" style="fill:#455a64"/><path d="M204.51 302.14a.55.55 0 0 1-.25-.07.5.5 0 0 1-.25-.43V271a.5.5 0 0 1 .25-.43l35.33-20.4a.5.5 0 0 1 .5 0 .48.48 0 0 1 .25.43v30.6a.48.48 0 0 1-.25.43l-35.33 20.4a.55.55 0 0 1-.25.11m.5-30.81v29.44L239.34 281v-29.49Z" style="fill:#10b981"/><path d="M204.51 296a.6.6 0 0 1-.23 0 .51.51 0 0 1-.21-.68l11.77-23.11a.52.52 0 0 1 .32-.26.48.48 0 0 1 .4.06l12.75 8.16a.5.5 0 1 1-.54.84l-12.29-7.86-11.48 22.6a.51.51 0 0 1-.49.25" style="fill:#10b981"/><path d="M225.23 278.62a.5.5 0 0 1-.28-.08.5.5 0 0 1-.14-.69l6.23-9.54a.49.49 0 0 1 .68-.15l8.39 5.18a.5.5 0 0 1 .16.68.51.51 0 0 1-.69.17l-8-4.92-6 9.13a.49.49 0 0 1-.35.22m-1.3-7.69a1.76 1.76 0 0 1-.9-.24 2.21 2.21 0 0 1-1-2.06 6 6 0 0 1 2.77-4.78 2 2 0 0 1 3.26 1.88 6.06 6.06 0 0 1-2.76 4.79 2.86 2.86 0 0 1-1.37.41m2.25-6.49a1.7 1.7 0 0 0-.87.28 5.06 5.06 0 0 0-2.27 3.91 1.05 1.05 0 0 0 1.77 1 5.1 5.1 0 0 0 2.26-3.92 1.32 1.32 0 0 0-.49-1.19.74.74 0 0 0-.4-.08" style="fill:#10b981"/><path d="m307 225.94-1.27-1.23 1.41-3a.64.64 0 0 0-.31-.86.65.65 0 0 0-.86.31l-1.23 2.6-1-.93a.66.66 0 0 0-.92 0 .65.65 0 0 0 0 .92l1.27 1.23-1.41 3a.65.65 0 0 0 .31.87.7.7 0 0 0 .28.06.65.65 0 0 0 .58-.37l1.23-2.6 1 .93a.65.65 0 0 0 .92 0 .65.65 0 0 0 0-.93" style="fill:#455a64"/><path d="M245.87 270.29c0 1.41 1.06 1.94 2.36 1.19l52.71-30.43a5 5 0 0 0 2.35-3.91c0-1.41-1.05-1.94-2.35-1.19l-52.71 30.43a5.07 5.07 0 0 0-2.36 3.91" style="fill:#e0e0e0"/><path d="M245.87 270.29c0 1.41 1.06 1.94 2.36 1.19L294.11 245a5.05 5.05 0 0 0 2.36-3.91c0-1.4-1.06-1.94-2.36-1.19l-45.88 26.49a5.07 5.07 0 0 0-2.36 3.9" style="fill:#10b981"/><path d="M246.64 253.76a.1.1 0 0 1 .13 0 .24.24 0 0 1 .06.17v.85a.5.5 0 0 1-.06.24.4.4 0 0 1-.13.17l-.61.35a.1.1 0 0 1-.13 0 .24.24 0 0 1-.06-.18v-.84a.5.5 0 0 1 .06-.24.34.34 0 0 1 .13-.17Zm.15 7.34a.7.7 0 0 1 0 .24.4.4 0 0 1-.14.16l-.53.31h-.14c-.04 0-.05-.09-.05-.17v-5.07a.5.5 0 0 1 .05-.24.32.32 0 0 1 .14-.16l.53-.31a.11.11 0 0 1 .14 0 .25.25 0 0 1 0 .17Zm1.89-5.91a3.5 3.5 0 0 1 .41-.72 1.8 1.8 0 0 1 .51-.46.92.92 0 0 1 .72-.16.78.78 0 0 1 .45.41 3 3 0 0 1 .23-.52 3 3 0 0 1 .28-.46 3 3 0 0 1 .31-.36 1.7 1.7 0 0 1 .32-.25 1.1 1.1 0 0 1 .67-.18.7.7 0 0 1 .44.31 1.6 1.6 0 0 1 .23.67 5.5 5.5 0 0 1 .07.94v2.92a.5.5 0 0 1-.06.24.34.34 0 0 1-.13.17l-.54.31a.1.1 0 0 1-.13 0 .21.21 0 0 1-.06-.17V255a1.54 1.54 0 0 0-.18-.93c-.13-.12-.3-.12-.52 0a1.23 1.23 0 0 0-.48.56 2.6 2.6 0 0 0-.22 1.11v2.93a.7.7 0 0 1-.05.24.4.4 0 0 1-.14.16l-.54.31a.09.09 0 0 1-.13 0 .21.21 0 0 1-.06-.17v-2.87a1.52 1.52 0 0 0-.18-.93q-.18-.18-.51 0a1.27 1.27 0 0 0-.5.58 2.6 2.6 0 0 0-.21 1.15V260a.5.5 0 0 1-.05.24.36.36 0 0 1-.13.16l-.54.31a.11.11 0 0 1-.14 0 .26.26 0 0 1 0-.17v-5.07a.7.7 0 0 1 0-.24.4.4 0 0 1 .14-.16l.54-.31a.1.1 0 0 1 .13 0 .24.24 0 0 1 .05.18Zm5.58-2.37a3 3 0 0 1 .13-.57 3.3 3.3 0 0 1 .29-.65 3 3 0 0 1 .46-.64 2.6 2.6 0 0 1 .63-.51 1.5 1.5 0 0 1 .65-.23.67.67 0 0 1 .5.14 1.1 1.1 0 0 1 .32.53 3.4 3.4 0 0 1 .11.92V255a.5.5 0 0 1-.06.24.34.34 0 0 1-.13.17l-.54.31a.1.1 0 0 1-.13 0 .24.24 0 0 1-.06-.18v-.36a3.6 3.6 0 0 1-.42.79 2.5 2.5 0 0 1-.71.63 1.3 1.3 0 0 1-.55.19.55.55 0 0 1-.4-.12.85.85 0 0 1-.25-.39 2 2 0 0 1-.09-.63 2.83 2.83 0 0 1 .35-1.38 4.2 4.2 0 0 1 .92-1.11l1.15-1c0-.29-.06-.47-.19-.52a.55.55 0 0 0-.47.09 1 1 0 0 0-.28.24 3 3 0 0 0-.19.31 1 1 0 0 1-.11.19.5.5 0 0 1-.12.1l-.66.38a.09.09 0 0 1-.12 0s-.04-.05-.03-.13m1.18 2.39a1.8 1.8 0 0 0 .42-.35 2.4 2.4 0 0 0 .32-.46 3 3 0 0 0 .19-.5 2.2 2.2 0 0 0 .06-.49v-.11l-1 .82a1.8 1.8 0 0 0-.41.46.9.9 0 0 0-.13.47c0 .15 0 .24.15.25a.6.6 0 0 0 .4-.09m4.45-.29a1.6 1.6 0 0 0 .31-.25 2.4 2.4 0 0 0 .28-.39 3 3 0 0 0 .21-.5 2.4 2.4 0 0 0 .08-.6v-.4q-.06.14-.15.3a3 3 0 0 1-.22.34l-.3.34a2.4 2.4 0 0 1-.4.29.94.94 0 0 1-.64.15.75.75 0 0 1-.48-.28 1.7 1.7 0 0 1-.32-.63 3.5 3.5 0 0 1-.13-.89v-.76a5.5 5.5 0 0 1 .13-1 5.6 5.6 0 0 1 .32-1 3.8 3.8 0 0 1 .48-.84 2.2 2.2 0 0 1 .64-.58 1.5 1.5 0 0 1 .4-.17 1 1 0 0 1 .3 0 .5.5 0 0 1 .22.09l.15.12V248a.5.5 0 0 1 .06-.24.3.3 0 0 1 .13-.16l.54-.31a.09.09 0 0 1 .13 0 .22.22 0 0 1 .06.17v5.1a4.9 4.9 0 0 1-.48 2.26 3.34 3.34 0 0 1-1.32 1.43 1.7 1.7 0 0 1-.66.24 1 1 0 0 1-.54-.08.93.93 0 0 1-.36-.35 1.2 1.2 0 0 1-.15-.55.5.5 0 0 1 .06-.24.35.35 0 0 1 .14-.17l.48-.27a.14.14 0 0 1 .17 0l.11.12a.4.4 0 0 0 .26.16.82.82 0 0 0 .49-.19m-.84-3.73a3 3 0 0 0 0 .61 1.12 1.12 0 0 0 .28.85.53.53 0 0 0 .59 0 1.6 1.6 0 0 0 .58-.65 2.7 2.7 0 0 0 .27-1.06v-.83a1 1 0 0 0-.27-.73.48.48 0 0 0-.58 0 1.5 1.5 0 0 0-.59.65 2.7 2.7 0 0 0-.28 1.16m3.43-1.68a6.3 6.3 0 0 1 .12-1.22 5 5 0 0 1 .35-1.13 4.3 4.3 0 0 1 .54-.94 2.7 2.7 0 0 1 .72-.65 1.2 1.2 0 0 1 .71-.19.9.9 0 0 1 .55.28 1.7 1.7 0 0 1 .35.68 3.7 3.7 0 0 1 .13 1v.49a.5.5 0 0 1-.06.24.4.4 0 0 1-.13.17l-2.36 1.36a1.1 1.1 0 0 0 .06.4.6.6 0 0 0 .18.22.5.5 0 0 0 .27 0 .8.8 0 0 0 .3-.11 2 2 0 0 0 .37-.28 1.7 1.7 0 0 0 .23-.32 1.2 1.2 0 0 1 .13-.19.36.36 0 0 1 .13-.11l.57-.32a.1.1 0 0 1 .13 0 .24.24 0 0 1 .06.18 3 3 0 0 1-.11.45 3.4 3.4 0 0 1-.31.65 4 4 0 0 1-.51.68 2.9 2.9 0 0 1-.69.56 1.18 1.18 0 0 1-.72.21.8.8 0 0 1-.54-.29 1.66 1.66 0 0 1-.35-.73 4.6 4.6 0 0 1-.12-1.09m1.73-2.63a1.4 1.4 0 0 0-.35.29 1.7 1.7 0 0 0-.24.38 2.4 2.4 0 0 0-.16.42 3 3 0 0 0-.06.38l1.59-.92a2 2 0 0 0-.05-.32.7.7 0 0 0-.13-.25.3.3 0 0 0-.23-.1.63.63 0 0 0-.37.12m2.56 3.63a.09.09 0 0 1-.13 0 .22.22 0 0 1-.06-.17v-.72a.5.5 0 0 1 .06-.24.27.27 0 0 1 .13-.16l4.13-2.39a.11.11 0 0 1 .14 0s0 .09 0 .17v.72a.5.5 0 0 1 0 .24.4.4 0 0 1-.14.16Zm7.46-4.96a.09.09 0 0 1-.13 0 .21.21 0 0 1-.06-.17v-1.32l-2.19 1.27a.1.1 0 0 1-.13 0 .24.24 0 0 1-.06-.18v-.77a1 1 0 0 1 0-.29c0-.1.06-.2.1-.31l2.17-5.4a.9.9 0 0 1 .28-.44l.54-.31a.11.11 0 0 1 .14 0 .26.26 0 0 1 .05.17v4.35l.61-.35a.09.09 0 0 1 .13 0 .24.24 0 0 1 .06.18v.77a.5.5 0 0 1-.06.24.3.3 0 0 1-.13.16l-.61.35v1.32a.7.7 0 0 1-.05.24.4.4 0 0 1-.14.16Zm-.19-2.86v-2.32l-1.21 3Z" style="fill:#455a64"/><path d="m101.79 398.51 10.7-6.16s9.73-20.32 5.92-40.48c-4.17-22.08-13.61-27.29-19.82-24.8s-8.7 10.11-.15 25.51c6.95 12.51 7.03 29.16 3.35 45.93" style="fill:#37474f"/><path d="M106.93 396.06a.49.49 0 0 0 .47-.34c6.89-21.09 7.17-50.72-5.86-64.08a.49.49 0 0 0-.7.68c12.31 12.61 12.53 42 5.63 63.1a.49.49 0 0 0 .31.61.4.4 0 0 0 .15.03" style="fill:#fff"/><path d="M82.57 409.61c-1.11.63-3.39-.76-4.27-1.34a10.6 10.6 0 0 1-3.51-4 9.84 9.84 0 0 1-.88-6 23 23 0 0 1 .75-3.17c.29-1 .59-2 .88-3.07a7.7 7.7 0 0 0 .45-3.1c-.27-2.1-2.13-3.57-3.83-4.84-1.87-1.4-3.82-3.26-3.81-5.78a8.9 8.9 0 0 1 2.23-5.3c1.2-1.53 2.64-2.88 3.73-4.5a6.24 6.24 0 0 0 1.28-3.93 6.5 6.5 0 0 0-.86-2.46 35 35 0 0 1-2.73-4.91c-.61-1.77-.53-4 .86-5.24a5.78 5.78 0 0 1 4.35-1.08 10 10 0 0 1 4 1.43c4 2.23 6.31 7 10.57 8.7a43 43 0 0 0 5.22 1.26 6.4 6.4 0 0 1 4.25 2.91c1.57 3.13-1.34 7-.24 10.29 1 2.94 3.83 4.06 5.43 6.71a6.28 6.28 0 0 1 .75 3.84 18.5 18.5 0 0 1-1.62 6.49 47 47 0 0 1-3.56 5.85c-.01.06-19.27 11.14-19.44 11.24" style="fill:#455a64"/><path d="M94.05 403.41a.44.44 0 0 0 .43-.38c2.06-16.39-5.76-38.5-17.44-49.29a.44.44 0 0 0-.62 0 .43.43 0 0 0 0 .61C88 365 95.65 386.77 93.62 402.92a.43.43 0 0 0 .37.48Z" style="fill:#fff"/><path d="M92.05 382.43a.42.42 0 0 0 .34-.17.43.43 0 0 0-.08-.61c-6.45-4.83-16.3-4-16.72-3.95a.43.43 0 0 0-.39.47.43.43 0 0 0 .47.39c.1 0 9.94-.85 16.12 3.79a.5.5 0 0 0 .26.08m-.97-4.02a.43.43 0 0 0 .43-.41 17.47 17.47 0 0 1 6-12.09.44.44 0 0 0-.53-.69A18.08 18.08 0 0 0 90.64 378a.44.44 0 0 0 .42.45Z" style="fill:#fff"/><path d="M360.7 174.57c-.3 5.22-1.41 27.33-1 29.54.65 3.91 12.5 21.44 12.5 21.44s.75 7-8.73 10.08c-2.81-5-12.56-19.95-14.55-24.34a17.1 17.1 0 0 1-.8-7.84c.92-10.34 3.37-25.45 3.64-28.78Z" style="fill:#ffa8a7"/><path d="M374.15 223.6c-.83-.76-4.33-3.35-5.54-5.06-4-5.62-6.39-10-6.39-10-4-.35-10.23 4.91-10.07 10.15 2.21 5.09 6.82 11.58 10.69 17.32Z" style="fill:#10b981"/><path d="m397.67 382.3-7.12.2-.35-14.05 7.12-.2z" style="fill:#ffa8a7"/><path d="M390.45 379v-1c-.67.32-2.56 5.71-4.83 9-1.7 2.52-6.63 5.51-7.34 7.82s4.37 3.56 6.45 3.13c2.42-.5 6.15-1.63 8.54-4.31 1.27-1.43 2-4.58 2.8-5.77s2.77-2.55 3.2-3.91a8.7 8.7 0 0 0-.52-3.72c-.36-1.25-.76-2.62-1.18-2.49v.77a5.6 5.6 0 0 1-3.52 1.31c-1.05.09-3.58-.05-3.6-.83" style="fill:#263238"/><path d="m375.73 370.09-7.1.44-.72-14.75 7.46-.46z" style="fill:#ffa8a7"/><path d="M368.5 367.92a4.55 4.55 0 0 0-1.93 1.57 18.5 18.5 0 0 1-4.95 3.94 78 78 0 0 1-11.09 4.85c-1.51.55-2 2.7.46 4.4 2.8 1.9 6.13 1.64 10.49.53 2.38-.6 6.43-3.31 8.6-3.74 1.94-.39 5.7-.55 7.48-2.22a10.7 10.7 0 0 0-.08-4.62c-.5-2-1.16-5.11-1.82-5v.7c-.81 1.32-5.21 2-7.12 1.07Z" style="fill:#263238"/><path d="M396.36 273.76c.19 6.79 1 53.72 1 53.72.22 1.95 2.2 5.37 2.55 12.41.5 10.2-2.09 34.43-2.09 34.43a9.37 9.37 0 0 1-7.92.39s-4.84-34-6.41-44.07c-1.44-9.31-1.68-8.63-4.24-32.38L377 319.19a40.6 40.6 0 0 1 1.21 11.28c-.2 4.68-2.14 33.74-2.14 33.74a9.74 9.74 0 0 1-8.2.86s-4.74-41.19-4.95-45.48c-.23-4.88-1-47.62-1-47.62Z" style="fill:#455a64"/><path d="M377.63 289.59s-3.3-.59-7.63-4.59c0 0 1.21 3.19 5.94 5.61l1.69 7.65-.42 18.49 2-18.5Z" style="fill:#37474f"/><path d="M393.13 227.26c3.65 2.09 4.85 3.38 5.48 5 .56 1.42 1.19 1.48 1.19 4.19l-3.8 18.04.38 19.27c-10.22 5.38-23.52 6.17-34.41-1.79 0 0-.93-32.11.4-37.83s4.53-10.8 9.81-12c1.93-.43 16.35 2.72 16.35 2.72s2.06.94 4.6 2.4" style="fill:#f0f0f0"/><circle cx="375.9" cy="199.69" r="9.78" style="fill:#263238"/><path d="M392.81 206.64s-1.59 7.44-2.22 8.67a3.4 3.4 0 0 1-1.95 1.57l.11-5.24ZM390.82 196a3.68 3.68 0 0 1 3 1.07c1.3 1.34.57 5.51-1.05 9.6l-3 .34Z" style="fill:#263238"/><path d="M388.93 207c.6.36 1.45-.79 2.19-1.56s3.15-1.83 4.35.7-1.06 6-3 6.59c-3.27 1-3.76-1.07-3.76-1.07l-.24 13.22c-4.06 5.22-15.35 4.82-10.65-.62v-4.71a23.5 23.5 0 0 1-4.08 0c-2.41-.37-3.85-2.05-4.63-4.64-1-3.36-1.53-9.22-1-15.78.78-9 11.57-9.1 17.23-5.54s3.59 13.41 3.59 13.41" style="fill:#ffa8a7"/><path d="M388.93 208c.3 0 1.44-1.89 2.19-2.57 1-.94-.3-9.45-.3-9.45a4 4 0 0 0-1-4.3c-1.41-1.56-2.95-2.54-7-2.76a83 83 0 0 0-8.35.4c-4 .27-5.51-.72-7.83-1.37s-2.5 5.64 2.5 8c0 0 1.46.94 5.29 1.4a56.5 56.5 0 0 0 10.61-.2c1.11-.15 1.35.93 1.95 3.87.49 2.58.93 6.98 1.94 6.98" style="fill:#263238"/><path d="m390.81 196.63 3.62-1.94a2 2 0 0 0-2.74-.9 2.15 2.15 0 0 0-.88 2.84" style="fill:#263238"/><path d="M377.87 219.53s5.37-1.08 7.25-2.08a6.14 6.14 0 0 0 2.59-2.56 8.4 8.4 0 0 1-1.47 3c-1.37 1.76-8.37 3.05-8.37 3.05Z" style="fill:#f28f8f"/><path d="M378.14 205.64a1.08 1.08 0 1 0 1.07-1.12 1.1 1.1 0 0 0-1.07 1.12m1.14-4.06 2.3 1.27A1.37 1.37 0 0 0 381 201a1.28 1.28 0 0 0-1.72.58" style="fill:#263238"/><path d="m378.36 213.07-2.46.92a1.29 1.29 0 0 0 1.67.82 1.38 1.38 0 0 0 .79-1.74" style="fill:#f28f8f"/><path d="m368.86 202.48 2.1-1.62a1.28 1.28 0 0 0-1.83-.28 1.39 1.39 0 0 0-.27 1.9m.64 2.86a1.08 1.08 0 1 0 2.15 0 1.08 1.08 0 0 0-1.07-1.11 1.1 1.1 0 0 0-1.08 1.11" style="fill:#263238"/><path d="m374.98 204.32-.35 6.46-3.38-1.15z" style="fill:#f28f8f"/><path d="M352.56 68.57v74.62a2.72 2.72 0 0 0 1.23 2.14L428 188.19c.68.39 1.23.07 1.23-.72v-3.9l-72.7-42V69.42l-2.71-1.56c-.71-.4-1.26-.08-1.26.71" style="fill:#263238"/><path d="M374.44 100.27a2 2 0 0 1 .24-.19l4.61-2.67a1.57 1.57 0 0 1 2.08.51l16.37 40.38 10.88-7.16a2 2 0 0 1 .23-.16h.05l4.55-2.63a1.56 1.56 0 0 1 2.11.46l15.86 32.16v21.34l-4.63 2.67-71.38-41.23a2.64 2.64 0 0 1-1.32-2.29v-20.32Z" style="fill:#10b981"/><path d="M374.44 100.27a2 2 0 0 1 .24-.19l4.61-2.67a1.57 1.57 0 0 1 2.08.51l16.37 40.38 10.88-7.16a2 2 0 0 1 .23-.16h.05l4.55-2.63a1.56 1.56 0 0 1 2.11.46l15.86 32.16v21.34l-4.63 2.67-71.38-41.23a2.64 2.64 0 0 1-1.32-2.29v-20.32Z" style="opacity:.15"/><path d="M426.89 184.91v-21.34L411 131.42a1.56 1.56 0 0 0-2.32-.32l-15.22 10-16.66-40.57a1.56 1.56 0 0 0-2.39-.28l-20.25 20.87v20.25a2.64 2.64 0 0 0 1.32 2.29Z" style="fill:#10b981"/><path d="m393.49 141.12 4.8 11.67-3.05-12.83z" style="opacity:.15"/><path d="M349.56 64.18v93.34a2.72 2.72 0 0 0 1.23 2.14l79.5 45.91a1.2 1.2 0 0 0 .2.1h.08a2.75 2.75 0 0 0 2.18-.13l2.16-1.24a2.74 2.74 0 0 0 1.24-2.14v-93.32a2.56 2.56 0 0 0-.36-1.21 2.6 2.6 0 0 0-.88-.92l-79.49-45.92a2.73 2.73 0 0 0-2.46 0L350.79 62a2.8 2.8 0 0 0-1.19 1.79s0 .1 0 .15-.04.17-.04.24m3 4.39c0-.79.55-1.11 1.23-.71L428 110.72a2.35 2.35 0 0 1 .87.92 2.45 2.45 0 0 1 .36 1.21v74.62c0 .79-.55 1.11-1.23.72l-74.18-42.86a2.72 2.72 0 0 1-1.23-2.14Z" style="fill:#455a64"/><path d="M430.57 205.7a2.75 2.75 0 0 0 2.18-.13l2.16-1.24a2.72 2.72 0 0 0 1.24-2.14v-93.35a2.56 2.56 0 0 0-.36-1.21l-4.63 2.67a2.45 2.45 0 0 1 .36 1.22v93.34c0 .67-.41 1-.95.84" style="fill:#263238"/><path d="M349.56 64.18v93.34a2.72 2.72 0 0 0 1.23 2.14l79.5 45.91a1.2 1.2 0 0 0 .2.1h.08c.54.16.95-.17.95-.84v-93.31a2.5 2.5 0 0 0-.36-1.22 2.6 2.6 0 0 0-.87-.92l-79.5-45.91c-.56-.33-1-.16-1.19.36v.15c0 .05-.04.13-.04.2m3 4.39c0-.79.55-1.11 1.23-.71L428 110.72a2.35 2.35 0 0 1 .87.92 2.45 2.45 0 0 1 .36 1.21v74.62c0 .79-.55 1.11-1.23.72l-74.18-42.86a2.72 2.72 0 0 1-1.23-2.14Z" style="fill:#37474f"/><path d="m400.17 111.61-1.79-3 3.68-2.14a3.51 3.51 0 0 1 3.52.35 11 11 0 0 1 5 8.63 3.5 3.5 0 0 1-1.43 3.19l-3.57 2.07-1.71-2.91a11.6 11.6 0 0 1-3.7-6.19" style="fill:#10b981"/><path d="m400.17 111.61-1.79-3 3.68-2.14a3.51 3.51 0 0 1 3.52.35 11 11 0 0 1 5 8.63 3.5 3.5 0 0 1-1.43 3.19l-3.57 2.07-1.71-2.91a11.6 11.6 0 0 1-3.7-6.19" style="opacity:.15"/><path d="M402 108.87c-2.75-1.58-5-.3-5 2.88a11 11 0 0 0 5 8.62c2.75 1.59 5 .3 5-2.87a11 11 0 0 0-5-8.63M410.07 228c1-.17 2.13 3.1 2.49 5.88s.92 7.15-.41 7.65-3.33-3.3-4-6.35-.38-7.03 1.92-7.18" style="fill:#10b981"/><path d="M410.07 228c1-.17 2.13 3.1 2.49 5.88s.92 7.15-.41 7.65-3.33-3.3-4-6.35-.38-7.03 1.92-7.18" style="opacity:.30000000000000004"/><path d="M421.91 201c-.47-.22-1.48-1.25-2.12-5.11-.44-2.6-.65-3.72-1.79-4.1s-.77.85-1.1 3.89c-.32 2.85-1.11 6.83-.72 10a49 49 0 0 1-.78 11.32c-.64 4.23-2.38 10.46-2.38 10.46-1.34 1.43-18.78 4.59-18.78 4.59-3.64 6.72 1 13.67 1 13.67 11.05-3.18 15.29-4.9 20.85-6.74 4.08-1.35 5.25-2.07 5.86-4.9 1.45-6.68 2-16.89 2.53-21.93.41-3.54 4.33-4.73 5-6.71Z" style="fill:#ffa8a7"/><path d="M395.51 229.2a4.94 4.94 0 0 0-3.14 3c-.53 1.46-2.51 12.89 4.13 14.56.62-.08 3.69-1.3 7.95-2.51a66 66 0 0 0 7.7-2.72c-2.57-.37-4.95-11.72-2.08-13.53Z" style="fill:#10b981"/><path d="M365.46 168.45c-.92-.57 0-3.23.2-6.09.21-3.05.85-4.21-.4-4s-1.59 1.24-2.48 3.72a13.4 13.4 0 0 1-1.86 3.73l-5.4-3.17c-1.63 1.88-3.12 3-3.39 6.27-.49 5.73-.56 7.13-1.12 11.64s9.64-5 9.64-5c.41-3.55 4.63-4.76 5.33-6.73l-.52-.31Z" style="fill:#ffa8a7"/></svg>