<svg xmlns="http://www.w3.org/2000/svg" viewBox="0 0 500 500"><path d="M409 255.09c-88.41-51-231.28-51-319.12 0S2.55 388.9 91 439.94s231.28 51.05 319.12 0 87.33-133.8-1.12-184.85" style="fill:#f5f5f5"/><path d="M60.13 340.16c-6.2-3.58-16.23-3.58-22.39 0s-6.14 9.39.07 13 16.23 3.58 22.4 0 6.13-9.41-.08-13m383.47 2.74c-6.53-3.78-17.1-3.78-23.6 0s-6.46 9.89.08 13.67 17.1 3.77 23.6 0 6.46-9.9-.08-13.67m-147.13-94.11L67.2 382.87l-10.64-6.15 229.27-134.07z" style="fill:#e0e0e0"/><path d="M397.68 338.65c-30.71-17.73-80.34-17.73-110.85 0-19.95 11.6-26.78 27.9-20.54 42.76-15 .37-29.73 3.86-41.13 10.48-24.13 14-24 36.77.29 50.8s63.55 14 87.69 0c12.78-7.43 18.75-17.3 17.94-27 23.74 2 48.76-2.22 67-12.8 30.48-17.76 30.32-46.51-.4-64.24" style="fill:#e0e0e0"/><path d="m359.43 73.17-4.56-2.61-.29 127.62h.01l36.82 21.03.02-5.23.27-122.39z" style="fill:#f0f0f0"/><path d="m359.16 195.55.27-122.38-4.56-2.61-.29 127.62h.01l4.59-2.62z" style="opacity:.1"/><path d="m391.43 213.98-32.25-18.42-4.59 2.62 36.82 21.03z" style="opacity:.2"/><path d="m309.53 44.19-4.57-2.61-.28 127.61.01.01 36.82 21.03.01-5.23.27-122.39z" style="fill:#f0f0f0"/><path d="m309.26 166.57.27-122.38-4.57-2.61-.28 127.61.01.01 4.58-2.62z" style="opacity:.1"/><path d="m341.52 185-32.25-18.42-4.58 2.62 36.82 21.03z" style="opacity:.2"/><path d="m409.82 101.94-4.57-2.61-.28 127.61.01.01 36.82 21.02.01-5.22.27-122.39z" style="fill:#f0f0f0"/><path d="m409.55 224.32.27-122.38-4.57-2.61-.28 127.61.01.01 4.58-2.62z" style="opacity:.1"/><path d="m441.81 242.75-32.25-18.42-4.58 2.62 36.82 21.02z" style="opacity:.2"/><path d="M64 319.55 49 320l-15-.44c-.7 10.13 1.28 20.44 4 25.52a6.9 6.9 0 0 0 3 3c4.43 2.56 11.59 2.56 16 0a6.68 6.68 0 0 0 3-3.08c2.68-5.07 4.64-15.36 4-25.45" style="fill:#fff"/><path d="M59.56 313.4c5.88 3.39 5.92 8.9.07 12.3s-15.36 3.4-21.25 0-5.91-8.91-.07-12.3 15.36-3.4 21.25 0" style="fill:#ebebeb"/><path d="M57.23 314.75c4.59 2.65 4.62 6.95.06 9.6s-12 2.65-16.58 0-4.62-7-.05-9.6 11.98-2.65 16.57 0" style="fill:#e0e0e0"/><path d="M57.23 314.75c4.59 2.65 4.62 6.95.06 9.6s-12 2.65-16.58 0-4.62-7-.05-9.6 11.98-2.65 16.57 0" style="opacity:.15"/><path d="M41.31 288.81c-2.45-3-5.28-5.76-7.52-8.95-1.53-2.18-2.81-4.84-2.17-7.42a6.64 6.64 0 0 1 5.26-4.63 10.07 10.07 0 0 1 7.06 1.57 21.7 21.7 0 0 1 5.34 5.08 53 53 0 0 1 11.16 37.86 8 8 0 0 1-1.39 4.35 4.36 4.36 0 0 1-4.49 1.33c-4.09-1.22-3.55-6.74-4.22-10a45.9 45.9 0 0 0-4.7-12.76 44 44 0 0 0-4.33-6.43" style="fill:#10b981"/><path d="M41.31 288.81c-2.45-3-5.28-5.76-7.52-8.95-1.53-2.18-2.81-4.84-2.17-7.42a6.64 6.64 0 0 1 5.26-4.63 10.07 10.07 0 0 1 7.06 1.57 21.7 21.7 0 0 1 5.34 5.08 53 53 0 0 1 11.16 37.86 8 8 0 0 1-1.39 4.35 4.36 4.36 0 0 1-4.49 1.33c-4.09-1.22-3.55-6.74-4.22-10a45.9 45.9 0 0 0-4.7-12.76 44 44 0 0 0-4.33-6.43" style="opacity:.2"/><path d="M54.81 313.92a.36.36 0 0 1-.29-.34c-.28-6.57-2.42-29-17.87-41.71a.36.36 0 0 1 0-.51.35.35 0 0 1 .5 0c15.64 12.87 17.85 35.55 18.09 42.19a.37.37 0 0 1-.34.38Z" style="fill:#f0f0f0"/><path d="M57.07 314.63a11 11 0 0 1-5 7 14.1 14.1 0 0 1-7.59 1.27 33.2 33.2 0 0 1-7.73-1.9c-1.24-.42-2.61-1-2.75-2.51a2.73 2.73 0 0 1 .88-2.16 8 8 0 0 1 .8-.69.8.8 0 0 0-.42-1.43 18 18 0 0 1-2.2-.27 9.7 9.7 0 0 1-4.61-2.08 7.6 7.6 0 0 1-2.13-3.16 3 3 0 0 1 .3-3.1 3.4 3.4 0 0 1 1.71-.74q.83-.18 1.65-.3a.74.74 0 0 0 .17-1.41l-2.33-1a4.4 4.4 0 0 1-1.77-1.09 3.87 3.87 0 0 1-.44-3.22c.28-1.45.78-2.86 1.13-4.31a9.3 9.3 0 0 0 .15-4.41 37.3 37.3 0 0 1 13.06.87 9.5 9.5 0 0 1 3.56 1.56 5.25 5.25 0 0 1 1.68 4.8.34.34 0 0 0 .63.18l1.49-2.75a1.77 1.77 0 0 1 2.32-.74 10.8 10.8 0 0 1 3.4 2.68 5.9 5.9 0 0 1 1.46 4.36 37.6 37.6 0 0 1-1.09 6.4.6.6 0 0 0 .93.63l.07-.06a2 2 0 0 1 1.41-.4c1.31.16 1.65 1.49 1.74 2.63a22.4 22.4 0 0 1-.48 5.35" style="fill:#10b981"/><path d="M57.07 314.63a11 11 0 0 1-5 7 14.1 14.1 0 0 1-7.59 1.27 33.2 33.2 0 0 1-7.73-1.9c-1.24-.42-2.61-1-2.75-2.51a2.73 2.73 0 0 1 .88-2.16 8 8 0 0 1 .8-.69.8.8 0 0 0-.42-1.43 18 18 0 0 1-2.2-.27 9.7 9.7 0 0 1-4.61-2.08 7.6 7.6 0 0 1-2.13-3.16 3 3 0 0 1 .3-3.1 3.4 3.4 0 0 1 1.71-.74q.83-.18 1.65-.3a.74.74 0 0 0 .17-1.41l-2.33-1a4.4 4.4 0 0 1-1.77-1.09 3.87 3.87 0 0 1-.44-3.22c.28-1.45.78-2.86 1.13-4.31a9.3 9.3 0 0 0 .15-4.41 37.3 37.3 0 0 1 13.06.87 9.5 9.5 0 0 1 3.56 1.56 5.25 5.25 0 0 1 1.68 4.8.34.34 0 0 0 .63.18l1.49-2.75a1.77 1.77 0 0 1 2.32-.74 10.8 10.8 0 0 1 3.4 2.68 5.9 5.9 0 0 1 1.46 4.36 37.6 37.6 0 0 1-1.09 6.4.6.6 0 0 0 .93.63l.07-.06a2 2 0 0 1 1.41-.4c1.31.16 1.65 1.49 1.74 2.63a22.4 22.4 0 0 1-.48 5.35" style="opacity:.2"/><path d="M57.07 314.63a11 11 0 0 1-5 7 14.1 14.1 0 0 1-7.59 1.27 33.2 33.2 0 0 1-7.73-1.9c-1.24-.42-2.61-1-2.75-2.51a2.73 2.73 0 0 1 .88-2.16 8 8 0 0 1 .8-.69.8.8 0 0 0-.42-1.43 18 18 0 0 1-2.2-.27 9.7 9.7 0 0 1-4.61-2.08 7.6 7.6 0 0 1-2.13-3.16 3 3 0 0 1 .3-3.1 3.4 3.4 0 0 1 1.71-.74q.83-.18 1.65-.3a.74.74 0 0 0 .17-1.41l-2.33-1a4.4 4.4 0 0 1-1.77-1.09 3.87 3.87 0 0 1-.44-3.22c.28-1.45.78-2.86 1.13-4.31a9.3 9.3 0 0 0 .15-4.41 37.3 37.3 0 0 1 13.06.87 9.5 9.5 0 0 1 3.56 1.56 5.25 5.25 0 0 1 1.68 4.8.34.34 0 0 0 .63.18l1.49-2.75a1.77 1.77 0 0 1 2.32-.74 10.8 10.8 0 0 1 3.4 2.68 5.9 5.9 0 0 1 1.46 4.36 37.6 37.6 0 0 1-1.09 6.4.6.6 0 0 0 .93.63l.07-.06a2 2 0 0 1 1.41-.4c1.31.16 1.65 1.49 1.74 2.63a22.4 22.4 0 0 1-.48 5.35" style="fill:#fff;opacity:.2"/><path d="M50.15 321.23a53.2 53.2 0 0 0-3.51-10.18.35.35 0 0 0-.13-.26l-.24-.54a33.1 33.1 0 0 1 3.47-11.65.36.36 0 1 0-.62-.35 33.6 33.6 0 0 0-3.42 10.83 47.76 47.76 0 0 0-15-18 .36.36 0 1 0-.41.59c7.55 5.25 12.32 12.54 15.21 18.58a21.83 21.83 0 0 0-12.5-1.71.35.35 0 0 0-.29.41.38.38 0 0 0 .29.29h.13c.07 0 6.9-1.26 12.81 2.05a51.5 51.5 0 0 1 3.48 10.08.38.38 0 0 0 .29.28.3.3 0 0 0 .14 0 .36.36 0 0 0 .3-.42" style="fill:#f0f0f0"/><path d="m447.67 321.17-15.83.46-15.84-.46c-.68 10.69 1.4 21.59 4.28 26.91a7.18 7.18 0 0 0 3.14 3.19c4.67 2.7 12.22 2.7 16.86 0a7 7 0 0 0 3.13-3.27c2.88-5.35 4.94-16.19 4.26-26.83" style="fill:#fff"/><path d="M443 314.69c6.2 3.58 6.24 9.38.07 13s-16.18 3.58-22.39 0-6.23-9.39-.07-13 16.19-3.59 22.39 0" style="fill:#ebebeb"/><path d="M440.55 316.11c4.84 2.8 4.86 7.33.05 10.12s-12.62 2.79-17.46 0-4.87-7.32-.06-10.12 12.63-2.79 17.47 0" style="fill:#e0e0e0"/><path d="M440.55 316.11c4.84 2.8 4.86 7.33.05 10.12s-12.62 2.79-17.46 0-4.87-7.32-.06-10.12 12.63-2.79 17.47 0" style="opacity:.15"/><path d="M457.87 253.61c-35.68 11.68-36 35.55-28 52.55 2 3.44 8.17 5.29 13.51-15.85l-9.37 1.2L445 286l2.84-8.48-9.1.68 11.55-4.86a171 171 0 0 1 7.58-19.73" style="fill:#10b981"/><path d="M457.87 253.61c-35.68 11.68-36 35.55-28 52.55 2 3.44 8.17 5.29 13.51-15.85l-9.37 1.2L445 286l2.84-8.48-9.1.68 11.55-4.86a171 171 0 0 1 7.58-19.73" style="opacity:.2"/><path d="M457.87 253.61c-35.68 11.68-36 35.55-28 52.55 2 3.44 8.17 5.29 13.51-15.85l-9.37 1.2L445 286l2.84-8.48-9.1.68 11.55-4.86a171 171 0 0 1 7.58-19.73" style="fill:#fff;opacity:.2"/><path d="M447.78 259.58c-18.81 14.28-20.51 30.65-15.2 47.74-1.88-15.05-3.91-30.26 15.2-47.74" style="fill:#fff"/><path d="M397.44 277.86c35.17 4.95 39.44 27.13 34.77 44.29-1.32 3.54-6.73 6.29-15.22-12.52l8.93-.43-11.09-3.34-4.05-7.43 8.59-.88-11.57-2.61a162 162 0 0 0-10.36-17.08" style="fill:#10b981"/><path d="M397.44 277.86c35.17 4.95 39.44 27.13 34.77 44.29-1.32 3.54-6.73 6.29-15.22-12.52l8.93-.43-11.09-3.34-4.05-7.43 8.59-.88-11.57-2.61a162 162 0 0 0-10.36-17.08" style="fill:#fff;opacity:.2"/><path d="M397.44 277.86c35.17 4.95 39.44 27.13 34.77 44.29-1.32 3.54-6.73 6.29-15.22-12.52l8.93-.43-11.09-3.34-4.05-7.43 8.59-.88-11.57-2.61a162 162 0 0 0-10.36-17.08" style="opacity:.1"/><path d="M407.83 281.74c19.9 10.17 24.2 25.14 22.09 41.94-.75-14.33-1.39-28.84-22.09-41.94" style="fill:#fff"/><path d="M468.17 286.17c-32.26.52-38.59 20-36.3 36 .79 3.34 5.36 6.42 15.12-9.58l-8-1.39 10.37-1.77 4.48-6.24-7.64-1.76 10.72-1.06a145 145 0 0 1 11.25-14.2" style="fill:#10b981"/><path d="M458.37 288.5c-19.07 6.95-24.63 19.95-24.61 35.33C436 311 438.24 298 458.37 288.5" style="fill:#fff"/><path d="M468.17 286.17c-32.26.52-38.59 20-36.3 36 .79 3.34 5.36 6.42 15.12-9.58l-8-1.39 10.37-1.77 4.48-6.24-7.64-1.76 10.72-1.06a145 145 0 0 1 11.25-14.2" style="fill:#fff;opacity:.2"/><path d="M67.15 335a5 5 0 0 1-.84.38 5 5 0 0 0 .84-.38m-1.43.54h-.17Zm-1.49-.15h-.06Z" style="fill:#455a64"/><path d="M279.79 77.72a3 3 0 0 0-3.11.26L59.34 203.51A9.51 9.51 0 0 0 55 211v22.35l.46 94.73a3 3 0 0 0 1.22 2.74l7.32 4.43a3.08 3.08 0 0 1-1.18-2.7l-.46-95V215.5a9.45 9.45 0 0 1 4.3-7.46L284 82.46a3.05 3.05 0 0 1 3-.32Z" style="fill:#10b981"/><path d="M55 211v22.35l.46 94.73a3 3 0 0 0 1.22 2.74l7.32 4.43a3.08 3.08 0 0 1-1.18-2.7l-.46-95V215.5a8.4 8.4 0 0 1 .94-3.63l-7.4-4.27a8.4 8.4 0 0 0-.9 3.4" style="fill:#fff;opacity:.2"/><path d="M62.34 228.22v-12.74a8.4 8.4 0 0 1 .94-3.63l-7.4-4.27A8.4 8.4 0 0 0 55 211v13.06l7.28 4.22Z" style="fill:#fff;opacity:.4"/><path d="M279.79 77.72a3 3 0 0 0-3.11.26L59.34 203.51a9.3 9.3 0 0 0-3.47 4l7.4 4.27a9.1 9.1 0 0 1 3.36-3.78L284 82.46a3.05 3.05 0 0 1 3-.32Z" style="fill:#fff;opacity:.5"/><path d="M288.3 93v-8.05c0-2.75-1.95-3.85-4.33-2.48L66.63 208a9.45 9.45 0 0 0-4.3 7.46v12.75l226-130.51Z" style="fill:#10b981"/><path d="M288.3 93v-8.05c0-2.75-1.95-3.85-4.33-2.48L66.63 208a9.45 9.45 0 0 0-4.3 7.46v12.75l226-130.51Z" style="fill:#fff;opacity:.2"/><path d="M288.34 107v-9.3l-226 130.51v9.29l.46 95c0 2.73 1.94 3.84 4.33 2.47l217.36-125.48a9.52 9.52 0 0 0 4.31-7.49z" style="fill:#10b981"/><path d="m174.28 177.44-1.82 1.05v7.46l1.82-1a6.69 6.69 0 0 0 3.25-5.57c.01-2.28-1.31-3.06-3.25-1.94m-23.43 13.37a7 7 0 0 0-3.21 5.72c0 2.1 1.36 3.1 3.26 2a7 7 0 0 0 3.22-5.72c-.01-2.11-1.36-3.1-3.27-2m10.55-1.19 2.98-1.72-1.5-3.21z" style="fill:none"/><path d="m143.49 202.67-4.38 2.52v-8.63c0-.77-.53-1.06-1.19-.68a2.6 2.6 0 0 0-1.19 2.06v9.74c0 .76.54 1 1.19.68l5.56-3.21a2.37 2.37 0 0 0 1.08-1.86c.01-.69-.48-.97-1.07-.62m7.38-14.38a12.15 12.15 0 0 0-5.71 9.73c0 3.52 2.4 5 5.71 3.08a12.17 12.17 0 0 0 5.72-9.74c-.01-3.51-2.4-4.99-5.72-3.07m0 10.28c-1.9 1.1-3.26.1-3.26-2a7 7 0 0 1 3.21-5.72c1.91-1.1 3.26-.11 3.27 2a7 7 0 0 1-3.19 5.72Zm13.48-16.96c-.27-.52-.73-.67-1.38-.3l-.14.08a3.3 3.3 0 0 0-1.37 1.88l-3.73 11.9a2.6 2.6 0 0 0-.14.67c0 .7.49 1 1.1.64a2.64 2.64 0 0 0 1.1-1.49l.74-2.46 4.73-2.73.73 1.52c.22.44.59.6 1.15.28a2.48 2.48 0 0 0 1.11-2 1 1 0 0 0-.13-.47Zm-2.95 8 1.48-4.93 1.5 3.21ZM174.28 175l-3 1.74a2.57 2.57 0 0 0-1.17 2v9.63c0 .77.52 1.07 1.18.69l3-1.74a11.7 11.7 0 0 0 5.7-9.48c.01-3.49-2.32-4.84-5.71-2.84m0 9.91-1.82 1v-7.46l1.82-1.05c1.94-1.12 3.26-.34 3.27 1.86a6.69 6.69 0 0 1-3.25 5.64Zm9.12-15.3a2.54 2.54 0 0 0-1.17 2v9.85c0 .76.53 1.06 1.18.68a2.56 2.56 0 0 0 1.19-2.05v-9.85c-.01-.72-.53-1.01-1.2-.63m12.27-7.08a2.54 2.54 0 0 0-1.16 2v6.37l-4.59-4.24a.92.92 0 0 0-1.24-.08l-.24.14a2.55 2.55 0 0 0-1.18 2v9.85c0 .74.53 1 1.18.65a2.55 2.55 0 0 0 1.16-2v-6.62l4.75 4.4a.91.91 0 0 0 1.23.08l.08-.05a2.56 2.56 0 0 0 1.18-2v-9.84c0-.74-.52-1.03-1.17-.66m12.33-1.78-2.71 1.57a2.25 2.25 0 0 0-1 1.77c0 .65.47.9 1 .57l1.61-.92v1.76a7.1 7.1 0 0 1-2.23 2c-1.91 1.1-3.26.22-3.27-2a7.1 7.1 0 0 1 3.08-5.64 3 3 0 0 1 2.36-.51.83.83 0 0 0 .71-.12 2.6 2.6 0 0 0 1.18-2c0-.53-.27-.75-.5-.8-1-.22-2.05 0-3.68.92A12.07 12.07 0 0 0 199 167c0 3.66 2.33 5 5.68 3.09a13.5 13.5 0 0 0 3.76-3.4 3.5 3.5 0 0 0 .83-2.22v-3c-.05-.8-.58-1.1-1.27-.72m4.42 1.67a2.79 2.79 0 0 0-1.33 2.27c0 .84.57 1.17 1.34.72a2.81 2.81 0 0 0 1.33-2.27c0-.85-.58-1.14-1.34-.72m4.39-2.54a2.81 2.81 0 0 0-1.33 2.27c0 .85.57 1.17 1.34.72a2.8 2.8 0 0 0 1.34-2.27c-.01-.84-.57-1.17-1.35-.72m5.74-1.81c0-.85-.57-1.17-1.34-.73a2.81 2.81 0 0 0-1.33 2.27c0 .85.58 1.17 1.34.73a2.84 2.84 0 0 0 1.33-2.27M77.76 275.29c.17-.1.31 0 .31.18a.67.67 0 0 1-.31.53L76 277v5.79a.75.75 0 0 1-.34.58c-.19.11-.34 0-.34-.19v-5.79l-1.73 1c-.16.1-.31 0-.31-.17a.72.72 0 0 1 .31-.54Zm1.53-1.08c.22-.13.4-.07.4.17v.13a.79.79 0 0 1-.4.63c-.21.12-.38.05-.38-.18v-.13a.77.77 0 0 1 .38-.62m.01 1.93c.19-.11.33 0 .33.19v4.39a.69.69 0 0 1-.32.57c-.19.11-.33 0-.33-.19v-4.39a.73.73 0 0 1 .32-.57m6.89-4.04c1-.58 1.64-.15 1.64 1.09V276a.73.73 0 0 1-.33.57c-.18.11-.33 0-.33-.19v-2.62c0-1-.42-1.28-1.14-.87a2.68 2.68 0 0 0-1.21 2.27v2.57a.72.72 0 0 1-.33.58c-.18.1-.32 0-.32-.2v-2.63c0-1-.44-1.26-1.13-.86a2.75 2.75 0 0 0-1.22 2.31v2.54a.67.67 0 0 1-.32.57c-.18.11-.33 0-.33-.19v-4.39a.76.76 0 0 1 .33-.57c.18-.1.33 0 .33.19v.52a3.52 3.52 0 0 1 1.42-1.77c.71-.42 1.17-.24 1.41.19a3.85 3.85 0 0 1 1.53-1.92m6.95-1.44a.69.69 0 0 1-.31.53L89.65 273c.1 1 .77 1.26 1.55.81a3.57 3.57 0 0 0 1.27-1.32.6.6 0 0 1 .19-.19c.16-.1.28 0 .29.15a.6.6 0 0 1-.11.31 4.6 4.6 0 0 1-1.65 1.72c-1.21.7-2.2.2-2.21-1.36a4.75 4.75 0 0 1 2.11-3.87c1.3-.72 2.04.07 2.05 1.41m-3.49 1.81 2.83-1.64c-.07-.87-.53-1.41-1.41-.9a3.31 3.31 0 0 0-1.42 2.54m9.35-7.73c.2-.11.33 0 .33.19a.71.71 0 0 1-.29.55 3.89 3.89 0 0 0-1.54 3.21v1.71a.7.7 0 0 1-.32.57c-.19.11-.34 0-.34-.19v-4.38a.73.73 0 0 1 .33-.57c.18-.11.33 0 .33.19v.98a4.22 4.22 0 0 1 1.5-2.26m5-.35a.66.66 0 0 1-.3.53l-3.19 1.84c.1 1 .77 1.27 1.56.81a3.6 3.6 0 0 0 1.26-1.31.5.5 0 0 1 .19-.2c.16-.09.29 0 .29.16a.6.6 0 0 1-.1.3 4.66 4.66 0 0 1-1.66 1.73c-1.21.69-2.2.19-2.2-1.37a4.75 4.75 0 0 1 2.1-3.87c1.29-.75 2.05.05 2.05 1.38m-3.49 1.81 2.83-1.63c-.07-.88-.53-1.41-1.41-.91a3.39 3.39 0 0 0-1.42 2.54m9.67-7.94c1-.59 1.63-.16 1.64 1.08v2.8a.71.71 0 0 1-.33.57c-.18.11-.33 0-.33-.19v-2.62c0-1-.42-1.28-1.14-.87a2.67 2.67 0 0 0-1.2 2.27v2.57a.73.73 0 0 1-.34.58c-.17.1-.32 0-.32-.2v-2.63c0-1-.44-1.26-1.13-.86a2.78 2.78 0 0 0-1.23 2.31v2.54a.69.69 0 0 1-.32.57c-.19.11-.34 0-.34-.19v-4.39a.76.76 0 0 1 .33-.57c.18-.1.33 0 .33.19v.53a3.5 3.5 0 0 1 1.42-1.78c.71-.42 1.17-.24 1.42.18a3.73 3.73 0 0 1 1.54-1.89m6.14-2.96c.3.18.45.58.45 1.23v2.76a.66.66 0 0 1-.31.55c-.19.11-.31 0-.31-.17v-.46a4 4 0 0 1-1.59 1.79c-.81.47-1.64.41-1.65-.62a3.37 3.37 0 0 1 1.88-2.72 5.6 5.6 0 0 1 1.36-.57v-.17c0-.91-.49-1.1-1.32-.62a4.7 4.7 0 0 0-1.14.94l-.12.1c-.15.09-.29 0-.29-.16a.7.7 0 0 1 .18-.42 5.9 5.9 0 0 1 1.44-1.17c.62-.38 1.1-.46 1.42-.29m-.16 2.81v-.48a4.5 4.5 0 0 0-1.3.53 2.24 2.24 0 0 0-1.28 1.78c0 .63.51.71 1.11.36a2.88 2.88 0 0 0 1.47-2.22m2.38-6.53c.23-.13.4-.07.4.17v.12a.81.81 0 0 1-.39.64c-.21.12-.39.05-.39-.19v-.12a.77.77 0 0 1 .38-.62m.01 1.93c.19-.11.33 0 .33.19v4.39a.67.67 0 0 1-.31.56c-.2.12-.34 0-.34-.19v-4.38a.73.73 0 0 1 .32-.57m4.01-2.38c1.07-.61 1.69-.15 1.7 1.06V255a.7.7 0 0 1-.31.56c-.2.12-.34 0-.34-.19v-2.61c0-.94-.45-1.27-1.22-.83a2.82 2.82 0 0 0-1.31 2.35v2.56a.7.7 0 0 1-.33.57c-.18.1-.33 0-.33-.19v-4.39a.73.73 0 0 1 .32-.57c.19-.11.33 0 .34.19v.55a3.63 3.63 0 0 1 1.48-1.9m3.44-3.88c.22-.12.39-.06.39.18v.12a.81.81 0 0 1-.39.64c-.21.12-.38.05-.39-.19v-.12a.82.82 0 0 1 .39-.63m0 1.94c.19-.11.33 0 .33.19v4.39a.68.68 0 0 1-.32.56c-.19.12-.33 0-.33-.19v-4.38a.72.72 0 0 1 .32-.57m4.05-2.38c1.06-.61 1.69-.15 1.69 1.06v2.8a.68.68 0 0 1-.32.56c-.19.12-.33 0-.33-.19v-2.61c0-.94-.45-1.27-1.23-.83a2.79 2.79 0 0 0-1.31 2.35v2.56a.71.71 0 0 1-.31.57c-.19.1-.34 0-.34-.19v-4.39a.74.74 0 0 1 .33-.57c.18-.11.32 0 .32.19v.55a3.73 3.73 0 0 1 1.5-1.86m6.95-3.94c.18-.11.33 0 .33.19v3.84a4.13 4.13 0 0 1-.56 2.11 4.5 4.5 0 0 1-1.67 1.65 2.93 2.93 0 0 1-1.84.46c-.1 0-.17-.08-.17-.21a.7.7 0 0 1 .3-.51h.14a2.32 2.32 0 0 0 1.56-.35 3.1 3.1 0 0 0 1.6-2.73v-.6a4.6 4.6 0 0 1-1.73 2.07c-1.06.6-2.07.28-2.08-1.17a4.49 4.49 0 0 1 2.06-3.58c.83-.48 1.37-.32 1.72 0v-.58a.7.7 0 0 1 .34-.59m-.3 2.51c0-1-.78-1.26-1.62-.78a3.17 3.17 0 0 0-1.51 2.58c0 1 .71 1.31 1.52.84a3.37 3.37 0 0 0 1.61-2.64m2.44-3.76c.23-.13.4 0 .4.23v.18a.87.87 0 0 1-.4.69c-.23.13-.4 0-.4-.23v-.2a.86.86 0 0 1 .4-.67m.01 4.03c.23-.13.4 0 .4.23v.15a.83.83 0 0 1-.4.7c-.23.14-.4 0-.4-.23v-.19a.85.85 0 0 1 .4-.66m9.85-5.11v.17a.68.68 0 0 1-.32.55c-.17.1-.28 0-.33-.08l-.63-1.22-3.27 1.88-.62 2a.7.7 0 0 1-.32.45c-.17.09-.3 0-.3-.18a.55.55 0 0 1 0-.23l2.4-7.46a1 1 0 0 1 .42-.59c.2-.12.33-.07.41.1Zm-4.25.45 2.74-1.58-1.37-2.71-1.39 4.33m7.79-7.19c1.06-.61 2.1-.25 2.11 1.41a4.72 4.72 0 0 1-2.09 3.84 1.25 1.25 0 0 1-1.69-.1v.63a.72.72 0 0 1-.32.57c-.19.11-.33 0-.33-.19v-6.48a.7.7 0 0 1 .32-.56c.19-.11.33 0 .33.19v2.76a4.36 4.36 0 0 1 1.67-2.07m1.44 1.82c0-1.2-.72-1.55-1.55-1.07a3.58 3.58 0 0 0-1.59 2.87c0 1.17.78 1.5 1.6 1a3.36 3.36 0 0 0 1.54-2.84m3.9-4.86c1.32-.77 2.29-.13 2.3 1.29a5 5 0 0 1-2.3 4c-1.32.76-2.29.12-2.29-1.3a5 5 0 0 1 2.29-3.99m1.62 1.73c0-1.09-.71-1.57-1.63-1a3.56 3.56 0 0 0-1.61 2.88c0 1.09.71 1.57 1.63 1a3.53 3.53 0 0 0 1.61-2.87m5.3-5.68c.18-.1.33 0 .33.19v4.39a.69.69 0 0 1-.33.57c-.17.1-.32 0-.32-.2v-.54a3.65 3.65 0 0 1-1.5 1.85c-1.07.62-1.69.15-1.69-1v-2.85a.7.7 0 0 1 .32-.57c.18-.1.33 0 .33.19v2.62c0 .94.45 1.27 1.22.82a2.83 2.83 0 0 0 1.32-2.34v-2.56a.69.69 0 0 1 .32-.57m2.35-2.88c.17-.11.33 0 .33.19v1.19l1.14-.66c.16-.09.31 0 .31.16a.65.65 0 0 1-.3.5l-1.15.66v3c0 .62.3.66.74.41a3 3 0 0 0 .41-.3.17.17 0 0 1 .28.16.6.6 0 0 1-.19.4 2.8 2.8 0 0 1-.65.52c-.7.4-1.24.31-1.24-.72v-3l-.36.21a.18.18 0 0 1-.28-.17.62.62 0 0 1 .28-.49l.36-.21v-1.2a.69.69 0 0 1 .32-.65m8.97-5.39c.19-.11.32-.05.32.14a1.05 1.05 0 0 1-.16.47l-1.75 3.25c1-.5 2-.46 2 .8a4 4 0 0 1-2 3.23 1.87 1.87 0 0 1-2.08.16.24.24 0 0 1-.11-.21.73.73 0 0 1 .33-.57.24.24 0 0 1 .25 0 1.37 1.37 0 0 0 1.62-.06 2.62 2.62 0 0 0 1.3-2.08c0-.85-.69-.93-1.68-.36l-.21.12c-.16.1-.3 0-.3-.15a.74.74 0 0 1 .14-.39l1.73-3.26-2.64 1.52c-.17.1-.32 0-.32-.15a.7.7 0 0 1 .32-.54Zm9.28-3.68c1-.59 1.63-.16 1.64 1.09v2.79a.67.67 0 0 1-.31.57c-.19.11-.34 0-.34-.19v-2.62c0-1-.44-1.28-1.15-.87a2.66 2.66 0 0 0-1.2 2.27v2.58a.7.7 0 0 1-.33.57c-.18.1-.32 0-.32-.19v-2.64c0-.95-.43-1.26-1.14-.86a2.81 2.81 0 0 0-1.22 2.31v2.55a.67.67 0 0 1-.32.56c-.19.11-.33 0-.33-.19v-4.39a.73.73 0 0 1 .31-.56c.2-.11.34 0 .34.19v.52a3.5 3.5 0 0 1 1.42-1.78c.72-.42 1.18-.24 1.41.19a3.88 3.88 0 0 1 1.54-1.9m3.44-3.84c.22-.12.39-.06.39.18v.12a.78.78 0 0 1-.39.63c-.22.13-.38.06-.38-.18v-.12a.77.77 0 0 1 .38-.63m0 1.91c.19-.11.34 0 .34.19v4.39a.68.68 0 0 1-.32.56c-.19.11-.34 0-.34-.19v-4.38a.74.74 0 0 1 .32-.57m4.02-2.38c1.06-.61 1.69-.15 1.69 1.05v2.81a.71.71 0 0 1-.32.56c-.19.11-.34 0-.34-.19v-2.61c0-.94-.44-1.28-1.21-.83a2.82 2.82 0 0 0-1.32 2.35v2.56a.7.7 0 0 1-.33.57c-.18.1-.33 0-.33-.19v-4.39a.73.73 0 0 1 .32-.57c.19-.11.33 0 .33.19v.55a3.6 3.6 0 0 1 1.51-1.86m6.53-3.71c.17-.1.32 0 .32.2v4.38a.68.68 0 0 1-.32.57c-.18.11-.32 0-.32-.19v-.55a3.68 3.68 0 0 1-1.51 1.86c-1.06.61-1.68.15-1.69-1.05v-2.81a.68.68 0 0 1 .32-.57c.18-.1.33 0 .33.19v2.62c0 .94.45 1.27 1.22.83a2.85 2.85 0 0 0 1.31-2.35v-2.56a.7.7 0 0 1 .34-.57m2.35-2.88c.18-.11.33 0 .33.19v1.19l1.14-.65c.17-.1.3 0 .3.15a.64.64 0 0 1-.3.51l-1.13.65v3c0 .61.3.67.75.41a3 3 0 0 0 .39-.3c.16-.09.28 0 .28.16a.6.6 0 0 1-.18.4 2.8 2.8 0 0 1-.64.52c-.71.4-1.25.31-1.25-.72v-3l-.36.21a.18.18 0 0 1-.29-.17.65.65 0 0 1 .29-.49l.36-.21v-1.19a.71.71 0 0 1 .31-.66m6.64.19a.66.66 0 0 1-.3.53l-3.18 1.84c.1 1 .77 1.27 1.55.81a3.63 3.63 0 0 0 1.27-1.31.5.5 0 0 1 .18-.2c.17-.1.3 0 .3.15a.6.6 0 0 1-.11.31 4.6 4.6 0 0 1-1.65 1.72c-1.21.7-2.2.2-2.21-1.36a4.75 4.75 0 0 1 2.11-3.87c1.29-.75 2.04.05 2.04 1.38m-3.48 1.81 2.83-1.64c-.07-.87-.53-1.41-1.41-.9a3.33 3.33 0 0 0-1.42 2.54m5.98-5.79a2.6 2.6 0 0 1 1.4-.38c.09 0 .17.07.17.21a.66.66 0 0 1-.29.5H212a1.94 1.94 0 0 0-1.15.27A1.57 1.57 0 0 0 210 202c0 .48.54.36 1.13.23s1.42-.28 1.42.63a3 3 0 0 1-1.56 2.42 2.4 2.4 0 0 1-1.7.34c-.06 0-.12-.08-.12-.2a.62.62 0 0 1 .29-.49h.16a1.94 1.94 0 0 0 1.4-.26 1.7 1.7 0 0 0 .91-1.33c0-.51-.52-.41-1.1-.26s-1.46.34-1.46-.58a2.9 2.9 0 0 1 1.49-2.35M77.33 310.93a.2.2 0 0 1 .32.18.67.67 0 0 1-.32.53l-1.73 1v5.79a.74.74 0 0 1-.34.58.21.21 0 0 1-.34-.19V313l-1.73 1c-.17.09-.32 0-.32-.17a.72.72 0 0 1 .31-.54Zm1.53-1.09c.23-.12.4-.06.4.18v.12a.81.81 0 0 1-.39.64c-.21.12-.39.05-.39-.19v-.12a.81.81 0 0 1 .38-.63m.01 1.94c.19-.11.33 0 .33.19v4.39a.65.65 0 0 1-.31.56c-.2.11-.34 0-.34-.19v-4.38a.72.72 0 0 1 .32-.57m6.89-4.04c1-.58 1.64-.16 1.64 1.09v2.8a.68.68 0 0 1-.32.56c-.19.11-.33 0-.33-.19v-2.61c0-1-.43-1.29-1.14-.87a2.65 2.65 0 0 0-1.21 2.27v2.57a.69.69 0 0 1-.34.57c-.17.11-.32 0-.32-.19v-2.64c0-1-.44-1.26-1.14-.86a2.8 2.8 0 0 0-1.22 2.31v2.55a.7.7 0 0 1-.33.57c-.18.1-.33 0-.33-.19v-4.39a.72.72 0 0 1 .32-.57c.19-.11.34 0 .34.19v.52a3.5 3.5 0 0 1 1.41-1.78c.72-.41 1.18-.24 1.42.19a3.8 3.8 0 0 1 1.55-1.9m6.95-1.44a.66.66 0 0 1-.3.52l-3.19 1.84c.1 1 .77 1.27 1.56.82a3.76 3.76 0 0 0 1.22-1.31.5.5 0 0 1 .19-.2c.16-.09.29 0 .29.16a.6.6 0 0 1-.1.3 4.63 4.63 0 0 1-1.66 1.72c-1.21.7-2.2.2-2.2-1.37a4.75 4.75 0 0 1 2.1-3.87c1.38-.75 2.09.09 2.09 1.39m-3.49 1.81 2.83-1.64c-.07-.88-.53-1.41-1.41-.91a3.41 3.41 0 0 0-1.42 2.55m9.36-7.73c.2-.12.33 0 .33.19a.72.72 0 0 1-.29.55 3.89 3.89 0 0 0-1.54 3.2V306a.71.71 0 0 1-.33.57c-.18.11-.33 0-.33-.19V302a.72.72 0 0 1 .32-.57c.19-.1.33 0 .33.19v1a4.16 4.16 0 0 1 1.51-2.24m4.99-.38a.69.69 0 0 1-.31.53l-3.19 1.84c.1 1 .78 1.26 1.56.81a3.7 3.7 0 0 0 1.26-1.31.7.7 0 0 1 .19-.2c.16-.09.29 0 .29.16a.56.56 0 0 1-.1.3 4.5 4.5 0 0 1-1.66 1.72c-1.2.7-2.2.21-2.2-1.36a4.75 4.75 0 0 1 2.11-3.87c1.3-.72 2.04.07 2.05 1.38m-3.5 1.81 2.84-1.64c-.08-.87-.54-1.41-1.41-.9a3.35 3.35 0 0 0-1.43 2.54m9.68-7.92c1-.58 1.64-.16 1.64 1.09v2.8a.74.74 0 0 1-.32.57c-.19.1-.34 0-.34-.19v-2.62c0-1-.42-1.29-1.14-.87a2.66 2.66 0 0 0-1.2 2.26v2.58a.71.71 0 0 1-.33.57c-.18.11-.33 0-.33-.19v-2.64c0-.95-.43-1.26-1.13-.85a2.77 2.77 0 0 0-1.22 2.3v2.55a.7.7 0 0 1-.33.57c-.18.11-.33 0-.33-.19v-4.39a.7.7 0 0 1 .32-.57c.19-.11.33 0 .33.19v.52a3.58 3.58 0 0 1 1.42-1.78c.71-.41 1.18-.24 1.42.19a3.8 3.8 0 0 1 1.54-1.9m6.15-2.95c.29.18.44.58.45 1.22v2.77a.68.68 0 0 1-.31.55c-.18.1-.31 0-.31-.17v-.46a4.1 4.1 0 0 1-1.6 1.79c-.81.47-1.64.41-1.64-.62a3.33 3.33 0 0 1 1.88-2.71 4.9 4.9 0 0 1 1.35-.57v-.18c0-.91-.49-1.1-1.32-.62a4.8 4.8 0 0 0-1.13.95l-.13.09c-.15.09-.28 0-.28-.15a.67.67 0 0 1 .17-.42 6.3 6.3 0 0 1 1.44-1.17c.62-.39 1.1-.48 1.43-.3m-.17 2.81v-.49a5 5 0 0 0-1.3.54 2.23 2.23 0 0 0-1.28 1.78c0 .64.52.71 1.11.37a2.91 2.91 0 0 0 1.47-2.22m2.39-6.55c.22-.13.39-.07.39.18v.12a.79.79 0 0 1-.39.63c-.21.13-.38.06-.39-.18v-.12a.79.79 0 0 1 .39-.63m0 1.94c.19-.11.33 0 .34.19v4.39a.7.7 0 0 1-.32.56c-.19.11-.33 0-.33-.19v-4.39a.71.71 0 0 1 .31-.56m4.02-2.38c1.06-.61 1.69-.15 1.69 1.05v2.81a.68.68 0 0 1-.32.56c-.19.11-.33 0-.33-.19v-2.62c0-.94-.45-1.27-1.23-.82a2.81 2.81 0 0 0-1.31 2.34v2.57a.68.68 0 0 1-.32.56c-.19.11-.34 0-.34-.19v-4.38a.73.73 0 0 1 .33-.57c.18-.11.33 0 .33.19v.55a3.6 3.6 0 0 1 1.5-1.86m3.46-3.88c.22-.13.4-.07.4.18v.12a.78.78 0 0 1-.4.63c-.21.13-.38.06-.38-.18v-.12a.78.78 0 0 1 .38-.63m0 1.94c.2-.11.34 0 .34.19v4.39a.67.67 0 0 1-.32.56c-.19.11-.33 0-.33-.19v-4.39a.73.73 0 0 1 .31-.56m4.02-2.38c1.07-.61 1.69-.15 1.69 1.05v2.81a.68.68 0 0 1-.32.56c-.19.11-.33 0-.33-.19V284c0-.94-.45-1.27-1.22-.82a2.82 2.82 0 0 0-1.32 2.35v2.56a.68.68 0 0 1-.32.56c-.19.11-.33 0-.33-.19v-4.38a.73.73 0 0 1 .33-.57c.18-.11.32 0 .33.19v.55a3.66 3.66 0 0 1 1.49-1.83m6.94-3.95c.19-.1.33 0 .33.19v3.85a4.17 4.17 0 0 1-.55 2.11 4.66 4.66 0 0 1-1.68 1.65 2.9 2.9 0 0 1-1.83.45c-.11 0-.18-.07-.18-.21a.74.74 0 0 1 .3-.51h.14a2.26 2.26 0 0 0 1.56-.35 3.1 3.1 0 0 0 1.6-2.72v-.6a4.5 4.5 0 0 1-1.73 2.06c-1.05.61-2.07.29-2.07-1.17a4.47 4.47 0 0 1 2.06-3.58 1.32 1.32 0 0 1 1.72 0V279a.75.75 0 0 1 .33-.53m-.29 2.52c0-1-.79-1.26-1.62-.77a3.15 3.15 0 0 0-1.52 2.58c0 1 .71 1.32 1.53.85a3.42 3.42 0 0 0 1.61-2.64m2.44-3.78c.23-.13.41 0 .41.23v.21a.83.83 0 0 1-.4.68c-.24.14-.41 0-.41-.22v-.2a.88.88 0 0 1 .4-.7m.01 4.03c.23-.13.41 0 .41.23v.19a.87.87 0 0 1-.4.7c-.24.14-.41 0-.41-.24V282a.85.85 0 0 1 .4-.74m9.83-5.12v.18a.69.69 0 0 1-.32.55.21.21 0 0 1-.33-.09l-.63-1.21-3.26 1.88-.62 1.95a.74.74 0 0 1-.32.45c-.18.1-.31 0-.31-.17a.8.8 0 0 1 0-.23l2.4-7.46a1 1 0 0 1 .43-.6c.2-.12.34-.07.41.1Zm-4.24.46 2.74-1.59-1.38-2.71zm7.78-7.15c1.06-.62 2.11-.26 2.11 1.4a4.66 4.66 0 0 1-2.09 3.84 1.24 1.24 0 0 1-1.69-.09v.63a.69.69 0 0 1-.32.56c-.19.11-.33 0-.33-.19v-6.47a.7.7 0 0 1 .32-.56c.19-.11.33 0 .33.19v2.76a4.37 4.37 0 0 1 1.67-2.07m1.44 1.82c0-1.19-.72-1.54-1.55-1.06a3.6 3.6 0 0 0-1.59 2.86c0 1.18.79 1.51 1.6 1a3.33 3.33 0 0 0 1.54-2.83m3.9-4.88c1.32-.76 2.3-.12 2.3 1.3a5 5 0 0 1-2.3 4c-1.32.77-2.28.13-2.29-1.3a5 5 0 0 1 2.29-4m1.63 1.73c0-1.08-.71-1.57-1.64-1a3.51 3.51 0 0 0-1.6 2.88c0 1.09.7 1.57 1.63 1a3.55 3.55 0 0 0 1.61-2.88m5.29-5.66c.18-.11.33 0 .33.19V267a.72.72 0 0 1-.32.57c-.18.1-.32 0-.32-.2v-.54a3.66 3.66 0 0 1-1.51 1.85c-1.06.62-1.69.16-1.69-1v-2.81a.72.72 0 0 1 .32-.57c.18-.1.33 0 .33.19v2.62c0 .94.45 1.27 1.23.82a2.81 2.81 0 0 0 1.31-2.35V263a.66.66 0 0 1 .32-.57m2.35-2.89a.2.2 0 0 1 .33.19v1.2l1.14-.66c.16-.09.3 0 .3.16a.65.65 0 0 1-.3.5l-1.14.66v3c0 .61.3.67.74.41a2.7 2.7 0 0 0 .4-.3c.15-.09.28 0 .28.16a.6.6 0 0 1-.18.4 2.7 2.7 0 0 1-.65.51c-.71.41-1.24.32-1.25-.71v-3l-.36.2c-.16.09-.29 0-.29-.16a.64.64 0 0 1 .29-.5l.35-.2v-1.2a.72.72 0 0 1 .34-.66m9.72-1.24c.16-.09.3 0 .3.16a.63.63 0 0 1-.3.49l-.67.39v1.29a.7.7 0 0 1-.33.56c-.18.11-.32 0-.32-.18v-1.3l-3 1.71c-.2.12-.35 0-.35-.17a1.1 1.1 0 0 1 .13-.45l3.09-6.13a1 1 0 0 1 .37-.45c.21-.11.36 0 .36.19v4.28Zm-1.32.77v-3.53l-2.49 5 2.5-1.44m4.68-7.42c1.07-.62 1.84-.24 1.85.86 0 1-.46 1.88-1.5 3.53l-1.59 2.54 2.88-1.66c.17-.1.32 0 .32.16a.69.69 0 0 1-.32.54l-3.58 2.07c-.19.11-.34.05-.34-.17a.9.9 0 0 1 .16-.46l2-3.23c.92-1.47 1.24-2.18 1.23-2.87s-.55-1-1.19-.62a3.84 3.84 0 0 0-1.48 1.85.62.62 0 0 1-.25.28c-.17.1-.31 0-.31-.17a.6.6 0 0 1 .07-.25 4.82 4.82 0 0 1 2.05-2.4m7.06-2.28a2.85 2.85 0 0 1 1.41-.39.2.2 0 0 1 .17.22.64.64 0 0 1-.3.5h-.14a1.94 1.94 0 0 0-1.15.27 1.58 1.58 0 0 0-.85 1.23c0 .48.55.35 1.14.22s1.41-.28 1.41.63a3 3 0 0 1-1.56 2.41 2.4 2.4 0 0 1-1.7.34c-.06 0-.11-.07-.11-.2a.61.61 0 0 1 .28-.49h.16a2 2 0 0 0 1.4-.27 1.7 1.7 0 0 0 .91-1.33c0-.51-.52-.4-1.1-.26s-1.45.34-1.46-.58a2.87 2.87 0 0 1 1.49-2.3m6.78-1.4a.69.69 0 0 1-.3.53l-3.18 1.83c.1 1.05.77 1.27 1.56.82a3.85 3.85 0 0 0 1.29-1.28.7.7 0 0 1 .18-.2c.17-.09.3 0 .3.15a.7.7 0 0 1-.1.31 4.63 4.63 0 0 1-1.66 1.72c-1.21.69-2.2.2-2.21-1.37a4.78 4.78 0 0 1 2.11-3.87c1.27-.75 2.01.05 2.01 1.36m-3.48 1.8 2.85-1.6c-.07-.88-.53-1.41-1.41-.91a3.36 3.36 0 0 0-1.42 2.54m6.6-6.18a1.66 1.66 0 0 1 1.62-.2.21.21 0 0 1 .1.21.67.67 0 0 1-.31.54q-.13.08-.21 0a1.19 1.19 0 0 0-1.21.09 3.57 3.57 0 0 0-1.56 2.86c0 1.09.7 1.56 1.62 1a3.65 3.65 0 0 0 1.22-1.33.6.6 0 0 1 .19-.2.19.19 0 0 1 .3.17.65.65 0 0 1-.09.28 4.53 4.53 0 0 1-1.65 1.77c-1.29.75-2.26.1-2.27-1.31a5 5 0 0 1 2.25-3.88m4.78-2.76c1.32-.76 2.29-.12 2.29 1.3a5 5 0 0 1-2.29 4c-1.33.76-2.29.12-2.29-1.31a5 5 0 0 1 2.29-3.99m1.62 1.73c0-1.08-.71-1.56-1.64-1a3.56 3.56 0 0 0-1.6 2.88c0 1.09.7 1.57 1.63 1a3.53 3.53 0 0 0 1.61-2.88m4.01-4.98c1.07-.61 1.69-.15 1.69 1.05v2.81a.74.74 0 0 1-.32.57c-.19.1-.34 0-.34-.19v-2.62c0-.94-.45-1.28-1.22-.83a2.82 2.82 0 0 0-1.32 2.35v2.56a.66.66 0 0 1-.32.56c-.19.12-.33 0-.33-.19v-4.38a.72.72 0 0 1 .32-.57c.19-.11.34 0 .34.19v.55a3.66 3.66 0 0 1 1.5-1.86m6.94-6.03c.18-.11.33 0 .33.19v6.47a.71.71 0 0 1-.33.57c-.18.11-.33 0-.33-.19V238a4.3 4.3 0 0 1-1.68 2.09c-1.06.61-2.11.26-2.11-1.4a4.69 4.69 0 0 1 2.09-3.86c.82-.48 1.35-.28 1.69.1v-2.72a.69.69 0 0 1 .34-.6m-.29 4.84c0-1.16-.78-1.5-1.6-1a3.35 3.35 0 0 0-1.54 2.84c0 1.2.73 1.53 1.55 1.06a3.59 3.59 0 0 0 1.59-2.87m3.43-4.64a2.77 2.77 0 0 1 1.41-.38c.08 0 .16.07.16.22a.62.62 0 0 1-.29.49l-.14.05a1.93 1.93 0 0 0-1.15.26 1.58 1.58 0 0 0-.85 1.23c0 .48.54.36 1.13.22s1.41-.28 1.42.63a3 3 0 0 1-1.56 2.42 2.44 2.44 0 0 1-1.7.34c-.05 0-.12-.07-.12-.2a.66.66 0 0 1 .29-.5h.16a2 2 0 0 0 1.4-.27 1.67 1.67 0 0 0 .91-1.32c0-.51-.52-.41-1.1-.26s-1.46.34-1.46-.58a2.85 2.85 0 0 1 1.49-2.35" style="fill:#fff"/><path d="M263.07 188.8v11.06l-185.37 107c-2.65 1.53-4.82.31-4.83-2.74a10.59 10.59 0 0 1 4.8-8.32Zm9.93-44.62c2.66-1.53 4.81-.29 4.82 2.76a10.54 10.54 0 0 1-4.79 8.3L77.64 268.06c-2.65 1.53-4.82.3-4.82-2.76a10.6 10.6 0 0 1 4.79-8.3Z" style="fill:#10b981"/><g style="opacity:.2"><path d="M273 144.18c2.66-1.53 4.81-.29 4.82 2.76a10.54 10.54 0 0 1-4.79 8.3L77.64 268.06c-2.65 1.53-4.82.3-4.82-2.76a10.6 10.6 0 0 1 4.79-8.3Z" style="fill:#fff"/></g><g style="opacity:.2"><path d="m142.93 219.28-9.59 16.62-12.09 6.98 9.59-16.62zm24.18-13.96-9.59 16.62-12.1 6.98 9.6-16.62zm-48.35 27.92-9.6 16.62-12.09 6.98 9.59-16.62zM94.58 247.2 85 263.81l-7.35 4.24a3.44 3.44 0 0 1-3.37.37l8.22-14.25Zm145.06-83.75-9.6 16.62-12.09 6.98 9.59-16.62zm24.17-13.96-9.59 16.62-12.09 6.98 9.59-16.62zm11.51-5.97c1.49.08 2.51 1.32 2.51 3.41a10.54 10.54 0 0 1-4.79 8.31l-6.73 3.89Zm-84.03 47.84-9.6 16.62-12.09 6.98 9.59-16.62zm24.17-13.95-9.59 16.61-12.09 6.99 9.59-16.63z" style="fill:#fff"/></g><path d="M273 183.06c2.66-1.54 4.81-.3 4.82 2.75a10.56 10.56 0 0 1-4.79 8.31L77.64 306.93c-2.65 1.53-4.82.3-4.82-2.75a10.58 10.58 0 0 1 4.79-8.31Z" style="fill:#10b981"/><g style="opacity:.2"><path d="M273 183.06c2.66-1.54 4.81-.3 4.82 2.75a10.56 10.56 0 0 1-4.79 8.31L77.64 306.93c-2.65 1.53-4.82.3-4.82-2.75a10.58 10.58 0 0 1 4.79-8.31Z" style="fill:#fff"/></g><g style="opacity:.2"><path d="m142.93 258.16-9.59 16.61-12.09 6.98 9.59-16.62zm24.18-13.96-9.59 16.61-12.1 6.99 9.6-16.63zm-48.35 27.91-9.6 16.62-12.09 6.98 9.59-16.62zm-24.18 13.96L85 302.69l-7.35 4.24a3.46 3.46 0 0 1-3.37.36l8.22-14.24Zm145.06-83.75-9.6 16.62-12.09 6.98 9.59-16.62zm24.17-13.95-9.59 16.61-12.09 6.98 9.59-16.62zm11.51-5.97c1.49.07 2.51 1.31 2.51 3.41a10.57 10.57 0 0 1-4.79 8.31l-6.73 3.88Zm-84.03 47.84-9.6 16.62-12.09 6.98 9.59-16.62zm24.17-13.96-9.59 16.62-12.09 6.98 9.59-16.62z" style="fill:#fff"/></g><path d="M160.83 209v11.06l-83.19 48c-2.65 1.53-4.82.3-4.82-2.76a10.6 10.6 0 0 1 4.79-8.3Z" style="fill:#10b981"/><g style="opacity:.7000000000000001"><path d="M263.07 188.8v11.06l-185.37 107c-2.65 1.53-4.82.31-4.83-2.74a10.59 10.59 0 0 1 4.8-8.32Z" style="fill:#fff"/></g><g style="opacity:.7000000000000001"><path d="M160.83 209v11.06l-83.19 48c-2.65 1.53-4.82.3-4.82-2.76a10.6 10.6 0 0 1 4.79-8.3Z" style="fill:#fff"/></g><path d="m122.82 127.08-27.51 15.88.06 21.03 27.51-15.88z" style="fill:none"/><path d="m122.82 127.08.06 21.03 2.55 1.48-.07-23.97z" style="fill:#f0f0f0"/><path d="m95.37 163.99.01 2.95 30.05-17.35-2.55-1.48z" style="fill:#f5f5f5"/><path d="m128.43 120.31-36.21 20.9.09 31 36.21-20.9Zm-33.05 46.62V164l-.06-21 27.51-15.88 2.54-1.46.07 24Z" style="fill:#e0e0e0"/><path d="m128.43 120.31-2.55-1.49-36.21 20.91 2.55 1.48z" style="fill:#f5f5f5"/><path d="m89.67 139.73.09 31.04 2.55 1.48-.09-31.04z" style="fill:#f0f0f0"/><path d="m167.58 101.36-27.51 15.89.06 21.02 27.51-15.88z" style="fill:none"/><path d="m167.58 101.36.06 21.03 2.55 1.48-.07-23.97z" style="fill:#f0f0f0"/><path d="m140.13 138.27.01 2.95 30.05-17.35-2.55-1.48z" style="fill:#f5f5f5"/><path d="M173.19 94.59 137 115.49l.09 31 36.2-20.9Zm-33.05 46.63v-2.95l-.06-21 27.51-15.88 2.54-1.46.06 24Z" style="fill:#e0e0e0"/><path d="m173.19 94.59-2.55-1.48-36.21 20.9 2.55 1.48z" style="fill:#f5f5f5"/><path d="m134.43 114.01.09 31.04 2.55 1.48-.09-31.04z" style="fill:#f0f0f0"/><path d="m114.08 135.06 7.5 5.91.02 5.77-24.95 14.41-.02-5.77 4.76-9.45 4.27 3.32-1.52 4.69 2.2-4.17z" style="fill:#e0e0e0"/><path d="M105.88 138c1.18-.67 2.13-.13 2.14 1.22a4.69 4.69 0 0 1-2.12 3.67c-1.18.68-2.13.13-2.14-1.22a4.71 4.71 0 0 1 2.12-3.67m52.96-28.65 7.5 5.9.01 5.77-24.95 14.41-.01-5.77 4.75-9.45 4.27 3.32-1.51 4.69 2.19-4.17z" style="fill:#e0e0e0"/><path d="M150.64 112.25c1.18-.67 2.13-.13 2.13 1.22a4.66 4.66 0 0 1-2.11 3.67c-1.18.68-2.13.13-2.14-1.21a4.71 4.71 0 0 1 2.12-3.68" style="fill:#e0e0e0"/><path d="M301.32 280.05c-9.82 6.82-20.87 11.53-29.06 20.67-15.31 17.06-15.67 44.52-3.65 64S303 396 325.76 398.69c23.89 2.81 48.95-3.79 67.69-18.86s30.66-38.63 30.66-62.69-12.33-48-32.48-61.14c-18.38-12-44.79-15.4-63.23-1.69-9.32 6.94-15.54 17.17-24.84 24.13-.74.56-1.49 1.09-2.24 1.61" style="fill:#10b981"/><path d="M301.32 280.05c-9.82 6.82-20.87 11.53-29.06 20.67-15.31 17.06-15.67 44.52-3.65 64S303 396 325.76 398.69c23.89 2.81 48.95-3.79 67.69-18.86s30.66-38.63 30.66-62.69-12.33-48-32.48-61.14c-18.38-12-44.79-15.4-63.23-1.69-9.32 6.94-15.54 17.17-24.84 24.13-.74.56-1.49 1.09-2.24 1.61" style="fill:#fff;opacity:.2"/><path d="M305.31 380c0-.16.05-.33.07-.49A25.83 25.83 0 0 1 326.31 358a81.5 81.5 0 0 0 26.81-10.27c5.86-3.54 11.4-7.88 18-9.81a29.34 29.34 0 0 1 19.37 1.13c-5.53-5.8-15-8.35-22.56-5.73 5.23-8 9.84-16.65 11.65-26.06s.52-19.73-5.15-27.44a27.62 27.62 0 0 0-42.63-2.28c-5.62 6.14-8.78 14.79-12.47 22.25-2.65 5.36-5.39 10.84-9.76 14.93-6.59 6.16-16.06 8.39-22.9 14.28-7.74 6.69-11.08 17.38-11.12 27.61a81.4 81.4 0 0 0 3 20.41 77.5 77.5 0 0 0 28 17.13 30.46 30.46 0 0 1-1.24-14.15" style="opacity:.1"/><path d="M411.28 313.84a70.19 70.19 0 0 0-59.88-68.15 51 51 0 0 0-6.77 1.14 68.44 68.44 0 0 1 64.8 67c.44 22.38-10.51 45.2-29.29 61-14.72 12.41-34.27 20.64-55.75 23.6l1.37.18c1.93.23 3.87.38 5.82.49 19.09-3.7 36.38-11.57 49.76-22.85 19.2-16.11 30.39-39.47 29.94-62.41" style="fill:#fff"/><path d="M277.71 376.54a66 66 0 0 1 1.16 10.79l2.56-1a6.59 6.59 0 0 1 7.11 1.62l.12.13a2.59 2.59 0 0 0 3.56.16 2.57 2.57 0 0 0 .88-1.86l.34-10.89Z" style="fill:#ffa8a7"/><path d="M287.59 417c-5.31 5.68-15.09 10.64-22.19 5.8l.8 1.8c7.1 4.85 16.88-.12 22.19-5.8s1.86-9.61 6.64-14.65a17.3 17.3 0 0 0 4.13-6.14c-.21-.54-.41-1.25-.66-2.06a21.6 21.6 0 0 1-4.27 6.39c-4.77 5.07-1.33 9-6.64 14.66" style="fill:#f5f5f5"/><path d="M295.88 390a10.2 10.2 0 0 1-1.67-3.87 2.27 2.27 0 0 0-1-1.58l-.06 1.83a2.58 2.58 0 0 1-4.44 1.7l-.12-.13a6.59 6.59 0 0 0-7.11-1.62l-2.6 1a2 2 0 0 0-1.3 1.91c.17 7.45-3.31 17.34-7 22.78-3.75 1.55-7 6.66-5.34 10.41l.17.38c7.1 4.84 16.88-.12 22.19-5.8s1.87-9.62 6.64-14.66a21.6 21.6 0 0 0 4.26-6.35 23.3 23.3 0 0 0-2.62-6" style="fill:#10b981"/><path d="M285.49 400.8a.92.92 0 0 0 1.21-.41.9.9 0 0 0-.37-1.2 10.38 10.38 0 0 0-10.2 0c-.16.59-.33 1.17-.51 1.75a10 10 0 0 1 9.87-.14m1.31-4.03a.91.91 0 0 0 .83-1.61 10.9 10.9 0 0 0-10.61.08c-.11.61-.23 1.22-.37 1.83 3.1-1.63 6.22-2.29 10.15-.3m-2.74 8.03a.89.89 0 0 0 1.2-.4.91.91 0 0 0-.37-1.21 10.37 10.37 0 0 0-10-.1c-.23.64-.47 1.25-.71 1.86a10 10 0 0 1 9.88-.15m-13.49 7.2c-3.75 1.55-7 6.66-5.34 10.41l.17.38c7 4.77 16.58 0 21.94-5.55-4.47-8.73-13.81-6.55-16.77-5.24m11.92-3.28a.91.91 0 0 0 .83-1.61 10.33 10.33 0 0 0-10-.09c-.32.69-.65 1.36-1 2 3.12-1.64 6.24-2.29 10.17-.3" style="fill:#fff"/><path d="M266.55 398.2a66 66 0 0 1-3.3 10.34l2.73.15a6.6 6.6 0 0 1 5.86 4.35l.06.17a2.58 2.58 0 0 0 3.19 1.58 2.57 2.57 0 0 0 1.55-1.34l4.71-9.83Z" style="fill:#ffa8a7"/><path d="M259.25 439.23c-7.15 3-18.1 3.65-22.65-3.66v2c4.55 7.3 15.5 6.7 22.65 3.65s5.59-8 12-10.73a17.3 17.3 0 0 0 6.26-3.94c0-.59.12-1.32.22-2.16a22 22 0 0 1-6.48 4.13c-6.41 2.66-4.85 7.65-12 10.71" style="fill:#f5f5f5"/><path d="M277.72 417.88a10.3 10.3 0 0 1 0-4.21 2.23 2.23 0 0 0-.33-1.87l-.79 1.65a2.57 2.57 0 0 1-4.74-.24l-.06-.17a6.6 6.6 0 0 0-5.86-4.35l-2.77-.16a2 2 0 0 0-2 1.23c-2.85 6.88-10 14.53-15.56 18-4.06-.09-9.09 3.28-9.09 7.38v.4c4.55 7.31 15.5 6.71 22.65 3.66s5.59-8.05 12-10.73a22 22 0 0 0 6.48-4.13 23.3 23.3 0 0 0 .07-6.46" style="fill:#10b981"/><path d="M263.88 423.53a.91.91 0 0 0 1.41-1.14 10.35 10.35 0 0 0-9.34-4.1 51 51 0 0 1-1.17 1.4 10 10 0 0 1 9.1 3.84m2.82-3.16a.91.91 0 0 0 1.27.12.9.9 0 0 0 .14-1.25 10.88 10.88 0 0 0-9.74-4.21c-.34.51-.71 1-1.08 1.52 3.5-.24 6.62.45 9.41 3.82m-5.7 6.25a.91.91 0 0 0 1.41-1.14 10.34 10.34 0 0 0-9.09-4.12c-.46.49-.93 1-1.4 1.41a10 10 0 0 1 9.08 3.85m-15.31 1.17c-4.06-.09-9.09 3.28-9.09 7.38v.4c4.48 7.2 15.17 6.72 22.32 3.78-.55-9.82-9.98-11.59-13.23-11.56m12.24 1.77a.9.9 0 0 0 1.41-1.13 10.33 10.33 0 0 0-9.11-4.12c-.57.51-1.14 1-1.7 1.43 3.47-.24 6.61.42 9.4 3.82" style="fill:#fff"/><path d="m308.56 305.18-35.79 19.94a17.73 17.73 0 0 0-8.77 18.73l7 37.42-5.7 18.1c4.91 6.6 16.2 6.93 16.2 6.93 6.29-12.63 10.91-18 14.49-28.57s6-17.88 6-17.88l29.73-8.12a35.24 35.24 0 0 0 25.76-30c.5-4.5.53-7.57.53-7.57Z" style="fill:#37474f"/><path d="M308.83 315.23a16.9 16.9 0 0 0 4 10.91L287.58 342a18.14 18.14 0 0 0-7.73 10l-8.94 29.23 8.09-32.52a14.72 14.72 0 0 1 6.57-9l23.32-14.42c-2.41-5.96-.06-10.06-.06-10.06" style="opacity:.2"/><path d="M333.82 330.14a1.5 1.5 0 0 1 0 .47 1.6 1.6 0 0 1-.19.36 1.5 1.5 0 0 1-.32.36 3 3 0 0 1-.48.35L306.54 347a4 4 0 0 1-.75.33l-.29.09-.38.1a4 4 0 0 1-.47.07h-1.58a6 6 0 0 1-.61-.1h-.11l-.53-.16h-.09a3.5 3.5 0 0 1-.58-.28l-43.22-24.95a3.3 3.3 0 0 1-.49-.35 1.4 1.4 0 0 1-.12-.13 1.7 1.7 0 0 1-.23-.25 1.4 1.4 0 0 1-.09-.17c0-.08-.09-.16-.12-.24a1 1 0 0 1 0-.18 1 1 0 0 1 0-.24V322a1 1 0 0 0 0 .24 1 1 0 0 0 0 .18 2 2 0 0 0 .12.25 1 1 0 0 0 .09.16 1.3 1.3 0 0 0 .23.25.7.7 0 0 0 .12.13 2.7 2.7 0 0 0 .49.35l43.22 24.95a3.5 3.5 0 0 0 .58.28h.09a5 5 0 0 0 .53.16h.11a6 6 0 0 0 .61.1h.1a4.4 4.4 0 0 0 .63 0h.1a4.5 4.5 0 0 0 .64 0h.11l.47-.08.38-.1a1.6 1.6 0 0 0 .29-.09 4 4 0 0 0 .75-.33l26.2-15.22a4 4 0 0 0 .48-.34 2 2 0 0 0 .32-.36 1.6 1.6 0 0 0 .19-.37 1.3 1.3 0 0 0 0-.34v-1.66Z" style="fill:#e0e0e0"/><path d="M333.82 330.14a1.5 1.5 0 0 1 0 .47 1.6 1.6 0 0 1-.19.36 1.5 1.5 0 0 1-.32.36 3 3 0 0 1-.48.35L306.54 347a4 4 0 0 1-.75.33l-.29.09-.38.1a4 4 0 0 1-.47.07h-1.58a6 6 0 0 1-.61-.1h-.11l-.53-.16h-.09a3.5 3.5 0 0 1-.58-.28l-43.22-24.95a3.3 3.3 0 0 1-.49-.35 1.4 1.4 0 0 1-.12-.13 1.7 1.7 0 0 1-.23-.25 1.4 1.4 0 0 1-.09-.17c0-.08-.09-.16-.12-.24a1 1 0 0 1 0-.18 1 1 0 0 1 0-.24V322a1 1 0 0 0 0 .24 1 1 0 0 0 0 .18 2 2 0 0 0 .12.25 1 1 0 0 0 .09.16 1.3 1.3 0 0 0 .23.25.7.7 0 0 0 .12.13 2.7 2.7 0 0 0 .49.35l43.22 24.95a3.5 3.5 0 0 0 .58.28h.09a5 5 0 0 0 .53.16h.11a6 6 0 0 0 .61.1h.1a4.4 4.4 0 0 0 .63 0h.1a4.5 4.5 0 0 0 .64 0h.11l.47-.08.38-.1a1.6 1.6 0 0 0 .29-.09 4 4 0 0 0 .75-.33l26.2-15.22a4 4 0 0 0 .48-.34 2 2 0 0 0 .32-.36 1.6 1.6 0 0 0 .19-.37 1.3 1.3 0 0 0 0-.34v-1.66Z" style="opacity:.2"/><path d="M256.88 320.91c0 .08.08.16.12.24a1.4 1.4 0 0 0 .09.17 1.7 1.7 0 0 0 .23.25 1.4 1.4 0 0 0 .12.13 3.3 3.3 0 0 0 .49.35L301.15 347a3.5 3.5 0 0 0 .58.28h.09l.53.16h.11a6 6 0 0 0 .61.1h1.58a4 4 0 0 0 .47-.07l.38-.1.29-.09a4 4 0 0 0 .75-.33l26.2-15.22a3 3 0 0 0 .48-.35 1.5 1.5 0 0 0 .32-.36 1.6 1.6 0 0 0 .19-.36 1.5 1.5 0 0 0 0-.47 2 2 0 0 0-1.11-1.48l-43.22-25a5.93 5.93 0 0 0-5.38 0l-26.19 15.22a1.89 1.89 0 0 0-1.11 1.56 1 1 0 0 0 0 .24 1 1 0 0 0 .16.18" style="fill:#e0e0e0"/><path d="m260.48 320.49 42 24.24.17.08h.09l.33.09.23.05h.99l.28-.05.34-.09a1.5 1.5 0 0 0 .29-.12l13.51-7.85-43.38-25Zm39.94-6.67-7.9 4.64a.81.81 0 0 0 0 1.39l11.81 6.81a1.3 1.3 0 0 0 1.32 0l7.9-4.65a.8.8 0 0 0 0-1.38l-11.81-6.82a1.32 1.32 0 0 0-1.32.01" style="fill:#e0e0e0"/><path d="m260.48 320.49 42 24.24.17.08h.09l.33.09.23.05h.99l.28-.05.34-.09a1.5 1.5 0 0 0 .29-.12l13.51-7.85-43.38-25Zm39.94-6.67-7.9 4.64a.81.81 0 0 0 0 1.39l11.81 6.81a1.3 1.3 0 0 0 1.32 0l7.9-4.65a.8.8 0 0 0 0-1.38l-11.81-6.82a1.32 1.32 0 0 0-1.32.01" style="opacity:.4"/><path d="M298.26 256.61 296.32 288l-20.24 17.45a8 8 0 0 1-3.74.58l-7.5-.62a4.22 4.22 0 0 0-2.52.6l-4.29 2.6a4.5 4.5 0 0 0-1.15 1l-2.1 2.49a1.58 1.58 0 0 0 .29 2.3l1.32.95a4.7 4.7 0 0 0 4.86.37l3.32-1.67 6.87.75v1.79l-1.86 1.6a2 2 0 0 0 0 3s4.59-1.36 8.75-8l24.24-10.95a14.83 14.83 0 0 0 8.7-12.82l2.15-45.83-3.35.42a13.58 13.58 0 0 0-11.81 12.6" style="fill:#ffa8a7"/><path d="m313.46 243.57-3.89.26a13.41 13.41 0 0 0-12.51 12.54l-1.23 19.71-.51 10.42-4.71 4.32a4.54 4.54 0 0 0-1.47 3.35l1.25-1.08c8.6 2.75 7.2 11.39 7.2 11.39a4.4 4.4 0 0 0 3.5-.12l3.57-1.71a16.8 16.8 0 0 0 9.57-15.17v-8.18Z" style="fill:#10b981"/><path d="m313.46 243.57-3.89.26a13.41 13.41 0 0 0-12.51 12.54l-1.23 19.71-.51 10.42-4.71 4.32a4.54 4.54 0 0 0-1.47 3.35l1.25-1.08c8.6 2.75 7.2 11.39 7.2 11.39a4.4 4.4 0 0 0 3.5-.12l3.57-1.71a16.8 16.8 0 0 0 9.57-15.17v-8.18Z" style="fill:#fff;opacity:.6000000000000001"/><path d="M358.45 317c-6.35 6.1-36.85 7.23-52.41-7.59 1.49-10.46 1-21.66 0-32.74s-7.47-30.46 4.89-32.72c16.52-3.22 27.31-3 38.35 3.25 11.78 19.61 10.17 48.99 9.17 69.8" style="fill:#fafafa"/><path d="m368.41 296.12-4.67-17.36-16.38 3.59 3.93 13.46-24 17.06-8.07 3.4a12.66 12.66 0 0 0-5.35 4.25l-6.59 9.11a.9.9 0 0 0-.06.4 1.25 1.25 0 0 0 2.2.6c1.46-1.67 2.67-3.22 4.21-4.68l-3.88 5.25a1.55 1.55 0 0 0 .48 2.26 5.64 5.64 0 0 0 6.85-.76l5.09-4.65 1.4-.5a21.27 21.27 0 0 0 10.21-7.66L361.91 309a10.76 10.76 0 0 0 6.5-12.88" style="fill:#ffa8a7"/><path d="m369.74 297.29-3.93-18.57c-5.95-27.05-10.7-29-18.68-32.67-7.76 6.76-6.46 18.25-6.46 18.25l7 20.81.2.6 2.85 9.69-7.94 5.44v1c6.25.77 7.13 11.76 7.13 11.76l-1.21.47 1.21 1 13.01-5.07a11.14 11.14 0 0 0 6.82-12.71" style="fill:#10b981"/><path d="m369.74 297.29-3.93-18.57c-5.95-27.05-10.7-29-18.68-32.67-7.76 6.76-6.46 18.25-6.46 18.25l7 20.81.2.6 2.85 9.69-7.94 5.44v1c6.25.77 7.13 11.76 7.13 11.76l-1.21.47 1.21 1 13.01-5.07a11.14 11.14 0 0 0 6.82-12.71" style="fill:#fff;opacity:.6000000000000001"/><path d="M333.74 232v11.61a5.5 5.5 0 0 1-1.85 4.12 15.52 15.52 0 0 1-11.1 3.77 3.87 3.87 0 0 1-2.3-.71 3 3 0 0 1-.74-3.16 6.1 6.1 0 0 1 .84-1.7 5.24 5.24 0 0 0 .92-2.94V232Z" style="fill:#ffa8a7"/><path d="M325.28 241.41a31.4 31.4 0 0 1-5.77 1.14V232h14.23v2.47a11 11 0 0 1-1.17 2 14.16 14.16 0 0 1-7.29 4.94" style="opacity:.2"/><path d="M307.61 221.7c-1.52-2.89-4.1-6.25-5.31-9.81-5.88-17.22 27.28-30.31 32-16-.07-1.73-.11-3.3-.18-5a3.65 3.65 0 0 1 2 2.26 4.8 4.8 0 0 1-.79 3.43c1.64-1.78 2.29-2.53 3.93-4.31.65 2.21-.33 3.44-3.14 4.54 14-1.5 13.32 9.2 9.48 17.4-2.11 4.52-2 5.26-4.23 8.89a44.54 44.54 0 0 1-21 4.37 20.6 20.6 0 0 1-6.28-1.34c-2.4-.99-5.3-2.19-6.48-4.43" style="fill:#263238"/><path d="m332.15 212.08-.23 10a2.29 2.29 0 0 0 .5 1.91 1.53 1.53 0 0 0 1.76 0 4.6 4.6 0 0 0 1.27-1.35 13.3 13.3 0 0 1 2.55-3 4.6 4.6 0 0 1 3.65-1.07c2.1.42 3.34 2.81 3.2 5a6.7 6.7 0 0 1-3.44 5.32 6.57 6.57 0 0 1-6.28-.35c.32 3.82-2.28 7.41-5.56 9.4s-7.16 2.69-10.94 3.35c-2.06.37-4.25.72-6.21 0a7.7 7.7 0 0 1-3.75-3.34 18.3 18.3 0 0 1-1.84-4.75 59.7 59.7 0 0 1-1.5-23.16c1.24 1.08 2.66 1.48 7.08 1.55a11.14 11.14 0 0 1-5.29 2c4.1 1 13.09-1.41 15.09-2.12a20.8 20.8 0 0 1-4.92 2.79c5.09.06 14.86-2.26 14.86-2.18" style="fill:#ffa8a7"/><path d="m315.99 221.82-4.36 7.34 5.2.97zm5.85 10.84-3.95 1.92a2.57 2.57 0 0 0 3 .85 2.34 2.34 0 0 0 .95-2.77" style="fill:#f28f8f"/><path d="m321.84 232.66-3.95 1.92a2.57 2.57 0 0 0 3 .85 2.34 2.34 0 0 0 .95-2.77" style="opacity:.30000000000000004"/><path d="M319.51 235.56a2.26 2.26 0 0 0 1.37-.13 2.11 2.11 0 0 0 1.06-2.08 2.6 2.6 0 0 0-1.56.54 2.52 2.52 0 0 0-.87 1.67" style="fill:#f28f8f"/><path d="M323.51 222.12a1.49 1.49 0 1 1-1.63-1.34 1.48 1.48 0 0 1 1.63 1.34m-12.51.77a1.49 1.49 0 1 1-1.63-1.33 1.48 1.48 0 0 1 1.63 1.33m-2-5.76-3.06 2.61a2.13 2.13 0 0 1 .41-2.4 2.5 2.5 0 0 1 2.65-.21m12.66-1.46 3.52 1.94a2.13 2.13 0 0 0-.88-2.26 2.5 2.5 0 0 0-2.64.32" style="fill:#263238"/><path d="M303.58 345.45 299.11 317a5.24 5.24 0 0 0-2.55-3.72L253 288a1.27 1.27 0 0 0-1.15-.07l-1 .52.35.13a1.25 1.25 0 0 0-.11.77l4.47 28.45a5.23 5.23 0 0 0 2.55 3.73l43.52 25.3a1 1 0 0 0 .28.11v.42l1-.49a1.29 1.29 0 0 0 .67-1.42" style="fill:#e0e0e0"/><path d="M303.58 345.45 299.11 317a5.24 5.24 0 0 0-2.55-3.72L253 288a1.27 1.27 0 0 0-1.15-.07l-1 .52.35.13a1.25 1.25 0 0 0-.11.77l4.47 28.45a5.23 5.23 0 0 0 2.55 3.73l43.52 25.3a1 1 0 0 0 .28.11v.42l1-.49a1.29 1.29 0 0 0 .67-1.42" style="opacity:.30000000000000004"/><path d="m295.69 313.71-43.52-25.3a1.31 1.31 0 0 0-2 1.34l4.47 28.45a5.31 5.31 0 0 0 2.55 3.73l43.52 25.3a1.32 1.32 0 0 0 2-1.34l-4.48-28.45a5.27 5.27 0 0 0-2.54-3.73" style="fill:#e0e0e0"/><path d="M274.6 314.45a9.62 9.62 0 0 1 4.31 6.22c.29 2.22-1.18 3-3.29 1.83a9.68 9.68 0 0 1-4.32-6.22c-.3-2.22 1.2-3.04 3.3-1.83" style="fill:#fff"/><path d="m131 58.26.28-.22Zm-1.59 1.34.05-.05zm11.36-6.29.41-.07-.39.07Zm-.92.23.36-.09-.35.09Zm-16.51 49.36c-.25-.08-.51-.16-.75-.26a7 7 0 0 0 .75.26m-2.96-32.1.17-.29Zm.99-1.63.2-.32c-.06.15-.13.21-.2.32m6.42-8.06L128 61l-.18.16Zm-1.08 1.12.01-.01zm-1.22 41.07a8 8 0 0 1-.83-.1 8 8 0 0 0 .83.1M141 96c-.42.41-.85.81-1.28 1.2.39-.38.82-.78 1.28-1.2m-6.2 4.76c-.4.23-.8.44-1.19.64.39-.2.79-.4 1.19-.64m1.48-.93c-.49.33-1 .64-1.48.93.5-.29.99-.6 1.48-.93m-7.53 3.27-.44.08ZM118.66 74l.06-.12Zm24.13-21h.26zm1.73 0h.23-.21Zm-2.81.14h.43-.38Zm5.22.26.15.05H147Zm.95.33.14.06h-.12ZM132.8 57h.06zm-18.08 37.76c0 .19.07.39.1.58-.03-.19-.06-.34-.1-.58m.46 2.02.15.51Zm-.25-.98.12.54Zm.89 2.79c.07.15.13.3.19.45-.01-.15-.12-.3-.19-.45m-.34-.88c0 .16.11.32.17.48-.06-.19-.12-.32-.17-.48m.73 1.71.21.42Zm.11-19.65v-.01zm18.35-24.01-.84.52Zm-20.21 36.68c0 .26 0 .52.05.77-.02-.21-.04-.51-.05-.77m.1 1.19c0 .22 0 .45.08.67-.03-.22-.05-.45-.08-.67m-.16-2.75v1.19c.01-.39 0-.78 0-1.19m.25-3.88v-.22zm3.81 15.51-.3-.3Zm-3.37-18.17v-.13zm-.25 1.35c0-.18.07-.36.1-.55-.03.19-.07.37-.1.55m4.52 17.58c.11.09.22.18.34.26-.12-.08-.23-.17-.34-.26m-1.75-1.68.28.33Zm-.5-.67.25.36Zm1.63 1.85.32.28Zm29.61-46.38.31.19Zm2.83 23.85c.2-.52.39-1 .56-1.57-.17.53-.36 1-.56 1.57m.6-1.7c.18-.53.35-1.07.5-1.62-.15.55-.28 1.08-.5 1.62m-32.11 21.77.85.1h1.53c.41 0 .83-.06 1.26-.13.28 0 .56-.1.85-.16l.27-.06.59-.15c.33-.09.67-.2 1-.31l.21-.08.83-.31.32-.14c.29-.13.59-.26.89-.41l.34-.17c.4-.2.8-.41 1.2-.64s1-.6 1.48-.93l.25-.16c.47-.32.93-.66 1.38-1l.27-.21c.46-.36.92-.74 1.37-1.13l.12-.11c.44-.39.86-.79 1.28-1.2l.21-.2c.33-.32.65-.65 1-1l.05-.06c.3-.32.6-.64.88-1l.19-.22c.48-.55.94-1.11 1.39-1.69l.14-.19c.36-.46.71-.94 1.05-1.42a2 2 0 0 0 .14-.2c.33-.47.65-1 1-1.43.07-.11.14-.23.22-.34.25-.4.49-.8.73-1.2L143 84c.27-.46.53-.93.78-1.4l.18-.34c.2-.38.39-.76.58-1.14l.18-.37c.23-.48.45-1 .66-1.45l.09-.2c.19-.44.36-.88.53-1.32.06-.13.11-.26.16-.39.19-.52.38-1 .56-1.56v-.13c.18-.54.34-1.08.49-1.62l.09-.31c.17-.63.33-1.26.46-1.88l.09-.42c0-.24.1-.49.14-.73s.07-.34.09-.51.08-.51.12-.76l.06-.45c.07-.54.12-1.08.16-1.62v-1.97c0-4.46-1.2-7.93-3.23-10.21-3-.65-6.71.06-10.66 2.35-10.39 6-18.79 20.54-18.76 32.49 0 4.45 1.2 7.91 3.22 10.19l.27.06Zm23.58-6.74q.7-.82 1.38-1.68-.67.85-1.38 1.68m6.31-9.57c-.18.38-.37.76-.57 1.13.2-.4.39-.78.57-1.13M148 86.85l.78-1.4Zm-26.37 15.34c.25.14.5.26.76.38ZM146 90.07c.33-.46.64-.94.95-1.42-.31.48-.62 1-.95 1.42m-3.81 4.69.87-1Zm-4.01 3.69c.49-.38 1-.78 1.45-1.2l-.07.06q-.67.6-1.38 1.14m-1.65 1.21-.18.13c.59-.4 1.17-.82 1.74-1.27l-.17.14c-.46.34-.92.68-1.39 1m4.64-3.85 1-1Zm-8.8 6.19c.36-.16.73-.33 1.09-.51l-.19.1Zm-1.15.43-.2.07c-.34.12-.67.22-1 .31a18 18 0 0 0 2-.7c-.24.12-.52.22-.8.32m-4.22.88h.6zm-1.29.01h1.09c-.38.02-.74.02-1.09 0m-2.23-.32a8 8 0 0 0 .94.21c-.33-.11-.64-.21-.94-.21m5.68 0 .33-.08h-.08Zm15.62-11.3c.35-.47.7-.94 1-1.42-.3.48-.65.95-1 1.42m6.28-32.7.21.3Zm-.48-.63.24.29Zm.91 1.3.2.32Zm-1.96-2.39.27.24Zm-.53-.47.29.22Zm1.08.99.25.26Zm.92 22.83c-.17.44-.35.88-.54 1.31.22-.43.4-.87.54-1.31m-.59 1.52c-.21.49-.44 1-.66 1.45.25-.48.45-.96.66-1.45" style="fill:none"/><path d="m142.19 94.76.87-1c.06-.07.13-.14.19-.22q.7-.82 1.38-1.68l.15-.19c.35-.47.7-.94 1-1.42l.15-.21c.33-.46.64-.94.95-1.42.08-.11.15-.23.22-.35.25-.39.5-.79.73-1.19l.16-.26.78-1.4.18-.35c.2-.37.39-.75.57-1.13.06-.12.12-.25.19-.37.22-.48.45-1 .66-1.45l.08-.21c.19-.43.37-.87.54-1.31l.15-.39c.2-.52.39-1 .56-1.57a.5.5 0 0 0 0-.13c.18-.53.35-1.07.5-1.61l.09-.31c.17-.62.32-1.25.46-1.88l.09-.41c.05-.24.09-.49.14-.73s.05-.32.08-.47v-.05c0-.25.08-.5.11-.75s.05-.31.07-.45c.06-.55.12-1.08.15-1.62v-.34c0-.55.05-1.09.05-1.63v-1.5c0-.22 0-.44-.05-.65s0-.27 0-.41 0-.4-.08-.6-.05-.28-.07-.42-.06-.37-.1-.55-.06-.28-.09-.42-.07-.34-.12-.5-.08-.27-.11-.41-.09-.32-.14-.47l-.14-.39c-.05-.15-.1-.3-.16-.44s-.1-.25-.16-.37-.11-.28-.18-.42-.11-.23-.17-.35l-.2-.39-.2-.32c-.07-.12-.14-.25-.22-.37l-.21-.3-.24-.34-.24-.29c-.08-.1-.16-.21-.25-.31l-.25-.26-.28-.28-.27-.24-.28-.25-.29-.22-.3-.23-.31-.19a9 9 0 0 0-3-1.22c2 2.28 3.22 5.75 3.23 10.21v1.97c0 .54-.09 1.08-.16 1.62l-.06.45c0 .25-.07.5-.12.76s-.06.34-.09.51-.09.49-.14.73l-.09.42c-.13.62-.29 1.25-.46 1.88l-.09.31c-.15.54-.31 1.08-.49 1.62v.13c-.18.52-.37 1-.56 1.56 0 .13-.1.26-.16.39-.17.44-.34.88-.53 1.32l-.09.2c-.21.49-.43 1-.66 1.45l-.18.37c-.19.38-.38.76-.58 1.14l-.18.34c-.25.47-.51.94-.78 1.4l-.15.26c-.24.4-.48.8-.73 1.2-.08.11-.15.23-.22.34-.31.48-.63 1-1 1.43a2 2 0 0 1-.14.2c-.34.48-.69 1-1.05 1.42l-.14.19c-.45.58-.91 1.14-1.39 1.69l-.19.22c-.28.33-.58.65-.88 1l-.05.06c-.31.33-.63.66-1 1l-.21.2c-.42.41-.84.81-1.28 1.2l-.12.11c-.45.39-.91.77-1.37 1.13l-.27.21c-.45.35-.91.69-1.38 1l-.25.16c-.49.33-1 .64-1.48.93s-.8.44-1.2.64l-.34.17c-.3.15-.6.28-.89.41l-.32.14-.83.31-.21.08c-.34.11-.68.22-1 .31l-.59.15-.27.06c-.29.06-.57.12-.85.16-.43.07-.85.1-1.26.13h-1.53l-.85-.1h-.26l-.27-.06a9.6 9.6 0 0 0 2.33 1.91h.1l.7.34.25.1c.24.1.5.18.75.26h.14c.3.08.61.15.92.21h.24a8 8 0 0 0 .83.1h2.12c.23 0 .45 0 .68-.09l.44-.08.41-.07.25-.07h.08l.53-.14c.33-.09.66-.19 1-.31l.2-.07c.28-.1.56-.2.83-.32l.31-.13.9-.41.19-.1.15-.07c.39-.2.79-.41 1.19-.64s1-.6 1.48-.93h.07l.18-.13c.47-.32.93-.65 1.39-1l.17-.14.09-.07q.7-.54 1.38-1.14l.07-.06h.05c.43-.39.86-.79 1.28-1.2l.21-.2 1-1Z" style="fill:#ebebeb"/><path d="M119.46 84.49v1.16l-3.27 1.89v-1.16zm26.42-24.41.5.71-2.83 3.51-.5-.71z" style="fill:#fff"/><path d="M132.19 56.07c10.39-6 18.84-1.19 18.87 10.76s-8.36 26.48-18.75 32.48-18.85 1.19-18.88-10.75 8.36-26.49 18.76-32.49M140.75 77c.11-.35 0-.62-.27-.61l-7.87.62-5.14-8.72c-.09-.15-.27-.17-.46-.06a1 1 0 0 0-.22.19.9.9 0 0 0-.22.91l5.23 8.86a.28.28 0 0 0 .3.12l8-.63a.6.6 0 0 0 .2-.07 1.12 1.12 0 0 0 .46-.61m-15.38-7.8.87-1.08-1.64-2.31-.87 1.08zm-.68 29.14 1.63-4.2-.88-.07-1.62 4.19zm21.23-18.81.5-1.29-2.84-.24-.5 1.29zM118.62 95.3l2.82-3.51-.5-.72-2.83 3.52zm27.25-35.22-2.82 3.51.5.71 2.83-3.51zm-25 17.3.5-1.29-2.84-.24-.5 1.29zM139.8 57l-1.63 4.2.87.07 1.62-4.2zm.09 32.53.86-1.08-1.64-2.31-.87 1.08zM145 70.88l3.31-1.88v-1.16L145 69.73zm-28.85 15.5v1.16l3.27-1.89v-1.16zm16.61 9.47v-3.76l-1 .58v3.76zm-1.11-36.32v3.76l1-.58V59l-1 .58" style="fill:#e0e0e0"/><path d="m132.69 58.95.02 3.76-1.01.57-.01-3.75zm-8.08 6.86 1.64 2.31-.87 1.07-1.64-2.3zm-6.05 10.04 2.84.24-.5 1.29-2.84-.24zm2.38 15.23.5.71-2.82 3.51-.51-.71zm4.51 2.99.88.07-1.63 4.2-.87-.08zm7.34-1.98.01 3.76-1 .58-.01-3.76zm6.32-5.91 1.64 2.31-.86 1.08-1.65-2.31zm4.48-8.18 2.84.24-.5 1.29-2.84-.24zm4.71-10.16.01 1.16-3.27 1.88-.01-1.15zm-8.5-10.8.86.07-1.62 4.2-.87-.08zm-7.56 20.07a.4.4 0 0 1 .2-.06h.17l7.87-.62c.26 0 .38.26.27.61a1.12 1.12 0 0 1-.46.61.6.6 0 0 1-.2.07l-8 .63c-.25 0-.37-.25-.27-.61a1.17 1.17 0 0 1 .42-.63" style="fill:#fff"/><path d="M127 68.25c.19-.11.37-.09.46.06l5.15 8.69h-.17a.4.4 0 0 0-.2.06 1.17 1.17 0 0 0-.46.61c-.1.36 0 .63.27.61a.28.28 0 0 1-.3-.12l-5.23-8.86a.9.9 0 0 1 .22-.91 1 1 0 0 1 .26-.14" style="fill:#f5f5f5"/><path d="m119.36 103.27-.3-.22-.32-.28-.28-.26-.3-.3-.27-.29-.28-.33c-.08-.11-.17-.2-.25-.31l-.25-.36-.24-.34c-.08-.12-.16-.26-.23-.39l-.22-.35-.21-.42L116 99c-.06-.15-.12-.3-.19-.45s-.12-.27-.17-.4-.12-.32-.17-.48l-.15-.42-.15-.51c0-.15-.09-.29-.13-.44l-.12-.54c0-.15-.07-.3-.11-.46s-.06-.39-.1-.58 0-.31-.08-.46 0-.45-.08-.67 0-.28 0-.42 0-.51-.05-.77v-1.56c0-.58 0-1.17.06-1.76V89c.05-.66.11-1.33.19-2v-.22c0-.36.1-.72.16-1.09 0-.18.07-.36.1-.55l.15-.8v-.13a41 41 0 0 1 1.2-4.44 48 48 0 0 1 2.3-5.77l.06-.12c.52-1.06 1.07-2.1 1.66-3.11l.17-.29c.27-.45.54-.9.82-1.34.07-.11.14-.21.2-.32.77-1.19 1.59-2.35 2.45-3.46a45 45 0 0 1 2.66-3.12c.35-.38.71-.74 1.07-1.11L128 61q.71-.71 1.44-1.35l.05-.05q.76-.67 1.56-1.29l.28-.22c.5-.38 1-.75 1.5-1.09h.06c.32-.22.64-.43 1-.63l.84-.52c.44-.25.87-.47 1.29-.69a22 22 0 0 1 3.85-1.51l.35-.09.56-.14.39-.07.51-.1h.43l.67-.07h.26a12 12 0 0 1 1.45 0h.23c.31 0 .61.06.9.1a11 11 0 0 1 1.26.28h.08c.28.08.55.18.82.28h.12a10 10 0 0 1 1.09.54l-5-2.9-.11-.06-.13-.07c-.24-.13-.49-.25-.75-.37l-.14-.06h-.12c-.3-.12-.6-.23-.91-.32h.17c-.33-.1-.67-.17-1-.24h-.28a9 9 0 0 0-.92-.11h-2.15a8 8 0 0 0-.82.1l-.92.17-.29.07-.58.14h-.05c-.37.1-.73.21-1.1.34l-.23.08-.89.34-.12.05-.23.1-1 .44-.37.18c-.43.22-.86.45-1.29.7s-1.07.65-1.6 1l-.27.18c-.51.35-1 .71-1.5 1.09l-.29.22c-.5.4-1 .8-1.48 1.23a.7.7 0 0 1-.13.11c-.47.42-.93.85-1.39 1.3a1 1 0 0 1-.14.13l-.08.09c-.35.34-.7.7-1 1.06v.06c-.32.34-.64.7-1 1.06l-.09.1-.11.13c-.51.59-1 1.2-1.5 1.82a.2.2 0 0 1 0 .06s-.07.1-.11.14c-.38.51-.76 1-1.13 1.54l-.11.15a.4.4 0 0 0 0 .08c-.35.5-.7 1-1 1.53l-.1.15c0 .07-.09.15-.14.23-.27.42-.53.85-.79 1.29l-.12.2a.3.3 0 0 0 0 .08c-.29.5-.57 1-.85 1.51l-.06.12-.13.26c-.22.4-.42.81-.62 1.22l-.13.25a1 1 0 0 0-.07.16q-.37.78-.72 1.56a1 1 0 0 1-.07.16c-.2.48-.39 1-.58 1.43 0 .08-.07.16-.1.23a2 2 0 0 1-.07.2c-.21.56-.41 1.13-.6 1.69a.5.5 0 0 0 0 .1c-.2.59-.37 1.17-.54 1.76 0 .07 0 .14-.07.22v.12c-.18.68-.35 1.36-.5 2v.45c-.06.26-.11.53-.15.79s-.07.37-.1.56-.09.55-.13.82 0 .26 0 .38a.4.4 0 0 0 0 .1 36 36 0 0 0-.18 1.75v.37c0 .59-.06 1.18 0 1.77 0 6.41 2.28 10.92 5.93 13l5 2.9-.31-.2-.32-.2c-.73-.02-.84-.11-.95-.2" style="fill:#ebebeb"/><path d="M149.11 54.33a10 10 0 0 0-1.09-.54l-.14-.06c-.27-.1-.54-.2-.82-.28l-.15-.05a11 11 0 0 0-1.26-.28c-.29 0-.59-.08-.9-.1h-.23a12 12 0 0 0-1.45 0h-.26l-.67.07h-.43l-.51.1-.41.07-.56.14-.36.09a22 22 0 0 0-3.87 1.56c-.42.22-.85.44-1.29.69l-.84.52c-.33.2-.65.41-1 .63h-.06c-.5.34-1 .71-1.5 1.09l-.28.22q-.79.62-1.56 1.29l-.05.05q-.74.65-1.44 1.35l-.18.16c-.36.37-.72.73-1.07 1.11-.93 1-1.81 2-2.66 3.12-.86 1.11-1.68 2.27-2.45 3.46l-.2.32c-.28.44-.55.89-.82 1.34l-.17.29c-.59 1-1.14 2-1.66 3.11l-.06.12a48 48 0 0 0-2.34 5.73 41 41 0 0 0-1.2 4.44v.13l-.15.8c0 .19-.07.37-.1.55-.06.37-.11.73-.16 1.09v.22c-.08.67-.14 1.34-.19 2V89c0 .59-.06 1.18-.06 1.76v1.56c0 .26 0 .52.05.77s0 .28 0 .42 0 .45.08.67.06.3.08.46.07.39.1.58.07.31.11.46l.12.54c0 .15.09.29.13.44l.15.51.15.42c0 .16.11.32.17.48s.11.26.17.4.13.3.19.45l.2.38.21.42.22.35c.07.13.15.27.23.39l.24.34.25.36c.08.11.17.2.25.31l.28.33.27.29.3.3.28.26.32.28.3.22c.11.09.22.18.34.26l.32.2c3.72 2.36 9 2.14 14.79-1.22C146 96 155.12 80.3 155.08 67.4c-.01-6.4-2.29-10.96-5.97-13.07m-7.94 41.48L141 96c-.42.41-.85.81-1.28 1.2h-.05c-.47.42-1 .82-1.45 1.2l-.09.07c-.57.45-1.15.87-1.74 1.27h-.07c-.49.33-1 .64-1.48.93s-.8.44-1.19.64l-.15.07c-.36.18-.73.35-1.09.51l-.31.13a18 18 0 0 1-2 .7l-.53.14-.33.08-.41.07-.44.08c-.23 0-.45.07-.68.09h-2.14a8 8 0 0 1-.83-.1h-.24a8 8 0 0 1-.94-.21h-.14a7 7 0 0 1-.75-.26l-.25-.1c-.26-.12-.51-.24-.76-.38h-.1a9.6 9.6 0 0 1-2.33-1.91c-2-2.28-3.21-5.74-3.22-10.19 0-12 8.37-26.49 18.76-32.49 3.95-2.29 7.63-3 10.66-2.35a9 9 0 0 1 3 1.22l.31.19.3.23.29.22.28.25.27.24.28.28.25.26c.09.1.17.21.25.31l.24.29.24.34.21.3c.08.12.15.25.22.37l.2.32.2.39c.06.12.12.23.17.35s.12.28.18.42.11.24.16.37.11.29.16.44l.14.39c.05.15.09.31.14.47s.08.27.11.41.08.33.12.5.07.28.09.42.07.37.1.55.05.27.07.42 0 .4.08.6 0 .27 0 .41 0 .43.05.65v1.5c0 .54 0 1.08-.05 1.63v.34c0 .54-.09 1.07-.15 1.62 0 .14-.05.3-.07.45s-.07.53-.12.8 0 .31-.08.47-.09.49-.14.73l-.09.41c-.14.63-.29 1.26-.46 1.88l-.09.31c-.15.55-.32 1.09-.5 1.62a.5.5 0 0 1 0 .13c-.17.53-.36 1-.56 1.57l-.15.39c-.17.44-.35.88-.54 1.31l-.08.21c-.21.49-.44 1-.66 1.45-.07.12-.13.25-.19.37-.18.38-.37.76-.57 1.13l-.18.35-.78 1.4-.16.26c-.23.4-.48.8-.73 1.19-.07.12-.14.24-.22.35-.31.48-.62 1-.95 1.42l-.15.21c-.34.48-.69 1-1 1.42l-.15.19q-.67.85-1.38 1.68c-.06.08-.13.15-.19.22l-.87 1-.06.07Z" style="fill:#fff"/></svg>