<svg xmlns="http://www.w3.org/2000/svg" viewBox="0 0 500 500"><path d="M88.66 405.53c89.58 51.56 234.81 51.56 324.39 0s89.57-135.17 0-186.74-234.81-51.56-324.39 0-89.58 135.21 0 186.74" style="fill:#f0f0f0"/><path d="m74.26 349.73 139 80.25a10 10 0 0 0 9 0l210.9-121.75c2.49-1.44 2.49-3.77 0-5.21l-139-80.25a10 10 0 0 0-9 0L74.26 344.53c-2.49 1.47-2.49 3.76 0 5.2m341.31-120.24c-16.41-6.57-42.57-6.57-58.42 0s-15.86 17.21 0 23.78 42 6.57 58.42 0 16.43-17.21 0-23.78" style="fill:#e0e0e0"/><ellipse cx="85.75" cy="287.99" rx="33.63" ry="16.03" style="fill:#e0e0e0"/><path d="M65.21 258.94c-.51-6.35-5.4-17.18-12.66-24.9s-18.85-11.43-26-8.32c-6.67 2.89-5.2 11.83 3.6 17.12S52 254.61 56.52 264.62l8.69 12Z" style="fill:#10b981"/><path d="M65.21 258.94c-.51-6.35-5.4-17.18-12.66-24.9s-18.85-11.43-26-8.32c-6.67 2.89-5.2 11.83 3.6 17.12S52 254.61 56.52 264.62l8.69 12Z" style="opacity:.1"/><path d="M66.13 267.26h.14a.45.45 0 0 0 .28-.56c-7.14-21.54-27.39-36-35.79-37.36a.44.44 0 0 0-.51.36.45.45 0 0 0 .37.51c8.22 1.35 28.06 15.55 35.09 36.77a.44.44 0 0 0 .42.28" style="fill:#fff"/><path d="M64.26 285.16c-1.3-3.49-6.14-9-13.58-13.33-8.24-4.75-18.31-6.43-20.92-10.44-3.14-4.81.72-9.91 8.81-9.56S61.64 262 65.21 278.26Z" style="fill:#10b981"/><path d="M64.64 278.55a.45.45 0 0 0 .19-.05.44.44 0 0 0 .2-.59c-7-13.87-21.67-20.35-29.26-22a.45.45 0 0 0-.53.34.44.44 0 0 0 .34.52c7.44 1.61 21.84 8 28.66 21.54a.46.46 0 0 0 .4.24" style="fill:#fff"/><path d="M178.43 280v-2.74L282.33 220a5.4 5.4 0 0 1 4.92 0l144.08 81.3v2.7a1.72 1.72 0 0 1-1 1.42l-103.9 60Z" style="fill:#10b981"/><path d="M431.33 304v-2.7l-1.76-1-103.16 62.39v2.74l103.9-60a1.72 1.72 0 0 0 1.02-1.43" style="opacity:.1"/><path d="m178.43 277.25 103.9-60a5.4 5.4 0 0 1 4.92 0l143.06 82.59c1.36.78 1.36 2.06 0 2.84l-103.9 60Z" style="fill:#10b981"/><path d="M326.41 365.43v-2.74l-147.98-85.44v2.74z" style="opacity:.2"/><path d="m180.8 281.31-105 55.3-2.19 3.39v2.74a4 4 0 0 0 2.16 3.39l138.42 79.92a7.67 7.67 0 0 0 7.21 0l102.69-59.28V364Z" style="fill:#10b981"/><path d="m180.8 281.31-105 55.3-2.19 3.39v2.74a4 4 0 0 0 2.16 3.39l138.42 79.92a7.67 7.67 0 0 0 7.21 0l102.69-59.28V364Z" style="opacity:.1"/><path d="M217.8 424.21a7.4 7.4 0 0 1-3.61-.89L75.77 343.4a3.75 3.75 0 0 1 0-6.79l100.41-58L324.09 364 221.4 423.32a7.4 7.4 0 0 1-3.6.89" style="fill:#10b981"/><path d="m176.18 270.61-99.27 57.31-1 1.43V340a1.72 1.72 0 0 0 1 1.42l138.42 79.93a5.49 5.49 0 0 0 4.93 0L319.53 364v-10.62Z" style="fill:#ebebeb"/><path d="m319.54 353.38-1.24.72-16.16 9.32-3 1.75-78.87 45.52a5.42 5.42 0 0 1-4.93 0L76.9 330.77c-1.35-.79-1.35-2.06 0-2.85l1.32-.76 98-56.55 142.13 82.06.3.18Z" style="fill:#f0f0f0"/><path d="M217.8 411.29v10.65a4.9 4.9 0 0 1-2.46-.59L76.9 341.42a1.72 1.72 0 0 1-1-1.42v-10.66a1.75 1.75 0 0 0 1 1.43l138.44 79.92a4.93 4.93 0 0 0 2.46.6" style="fill:#e0e0e0"/><path d="m319.54 352-17.87 10.31-2.8 1.62-78.6 45.38a5.42 5.42 0 0 1-4.93 0l-124-71.57c-1.11-.61-2.15-1.22-3.12-1.8-5-3.07-8.08-5.82-10-8.74l-.24-.37a2 2 0 0 1-.3-.74 2.21 2.21 0 0 1 1.73-2.5 46 46 0 0 0 9.34-3.89l.13-.07 87.3-50.4Z" style="fill:#fafafa"/><path d="M301 350.71c-1.27.74-1.27 1.93 0 2.67a5 5 0 0 0 4.6 0c1.28-.74 1.28-1.93 0-2.67a5 5 0 0 0-4.6 0" style="opacity:.1"/><path d="M315.83 342.08c-1.75-1-3.95-.85-6.19.43-3.48 2-6.48 6.5-7.79 11.2a4.7 4.7 0 0 0 1.69.21c1.21-4.19 3.88-8.14 6.95-9.93a5.8 5.8 0 0 1 2.82-.86 3.24 3.24 0 0 1 1.66.43c1.48.85 2.34 2.94 2.34 5.7a10.5 10.5 0 0 1-.08 1.37l1.62.93a16.4 16.4 0 0 0 .17-2.3c-.02-3.39-1.17-6.01-3.19-7.18m2.86 10.37c0 .13-.05.26-.08.4l-.3-.18Z" style="fill:#263238"/><path d="M287.17 342.7c-1.27.74-1.27 1.93 0 2.67a5 5 0 0 0 4.6 0c1.28-.74 1.28-1.93 0-2.67a5 5 0 0 0-4.6 0" style="opacity:.1"/><path d="M302 334.07c-1.76-1-3.95-.86-6.2.43-3.47 2-6.47 6.5-7.78 11.2a4.7 4.7 0 0 0 1.69.21c1.21-4.19 3.87-8.14 6.95-9.93a5.83 5.83 0 0 1 2.82-.87 3.27 3.27 0 0 1 1.66.44c1.48.85 2.34 2.93 2.34 5.7a13 13 0 0 1-.08 1.37l1.61.93a15 15 0 0 0 .17-2.3c-.04-3.39-1.18-6.01-3.18-7.18" style="fill:#263238"/><path d="M273.29 334.69a1.42 1.42 0 0 0 0 2.67 5.1 5.1 0 0 0 4.6 0c1.28-.74 1.28-1.94 0-2.67a5 5 0 0 0-4.6 0" style="opacity:.1"/><path d="M288.08 326.06c-1.75-1-3.95-.86-6.19.43-3.47 2-6.48 6.5-7.79 11.2a4.8 4.8 0 0 0 1.7.21c1.2-4.19 3.87-8.14 6.94-9.93a5.83 5.83 0 0 1 2.83-.87 3.27 3.27 0 0 1 1.66.44c1.48.85 2.33 2.93 2.33 5.7a10.5 10.5 0 0 1-.08 1.37l1.62.93a16.4 16.4 0 0 0 .17-2.3c0-3.39-1.16-6.01-3.19-7.18" style="fill:#263238"/><path d="M259.42 326.68c-1.27.74-1.27 1.93 0 2.67a5 5 0 0 0 4.6 0c1.28-.74 1.28-1.93 0-2.67a5 5 0 0 0-4.6 0" style="opacity:.1"/><path d="M274.21 318.05c-1.75-1-3.95-.86-6.19.43-3.48 2-6.48 6.5-7.79 11.2a4.8 4.8 0 0 0 1.7.21c1.2-4.19 3.87-8.14 6.94-9.93a5.8 5.8 0 0 1 2.82-.86 3.3 3.3 0 0 1 1.67.43c1.48.85 2.33 2.94 2.33 5.7a10.5 10.5 0 0 1-.08 1.37l1.62.93a16.4 16.4 0 0 0 .17-2.3c0-3.39-1.16-6.01-3.19-7.18" style="fill:#263238"/><path d="M245.54 318.67a1.42 1.42 0 0 0 0 2.67 5.06 5.06 0 0 0 4.61 0c1.27-.74 1.27-1.93 0-2.67a5.06 5.06 0 0 0-4.61 0" style="opacity:.1"/><path d="M260.34 310c-1.76-1-3.95-.86-6.2.43-3.47 2-6.47 6.5-7.78 11.2a4.7 4.7 0 0 0 1.69.21c1.21-4.19 3.87-8.14 6.95-9.93a5.8 5.8 0 0 1 2.82-.86 3.26 3.26 0 0 1 1.66.43c1.48.85 2.34 2.94 2.34 5.7a13 13 0 0 1-.08 1.37l1.61.93a15 15 0 0 0 .17-2.3c0-3.35-1.16-5.97-3.18-7.18" style="fill:#263238"/><path d="M231.67 310.66c-1.27.74-1.27 1.93 0 2.67a5 5 0 0 0 4.6 0c1.28-.74 1.28-1.93 0-2.67a5 5 0 0 0-4.6 0" style="opacity:.1"/><path d="M246.46 302c-1.75-1-4-.86-6.19.43-3.48 2-6.48 6.5-7.79 11.2a4.8 4.8 0 0 0 1.7.21c1.2-4.19 3.87-8.14 6.94-9.93a5.8 5.8 0 0 1 2.82-.86 3.3 3.3 0 0 1 1.67.43c1.48.85 2.33 2.94 2.33 5.7a10.5 10.5 0 0 1-.08 1.37l1.62.93a16.4 16.4 0 0 0 .17-2.3c0-3.36-1.16-5.98-3.19-7.18" style="fill:#263238"/><path d="M217.8 302.65c-1.27.74-1.27 1.93 0 2.67a5 5 0 0 0 4.6 0c1.28-.74 1.28-1.93 0-2.67a5 5 0 0 0-4.6 0" style="opacity:.1"/><path d="M232.59 294c-1.76-1-4-.86-6.2.43-3.47 2-6.47 6.5-7.78 11.2a4.7 4.7 0 0 0 1.69.21c1.21-4.19 3.88-8.14 6.95-9.93a5.8 5.8 0 0 1 2.82-.86 3.24 3.24 0 0 1 1.66.43c1.48.85 2.34 2.94 2.34 5.7a10.5 10.5 0 0 1-.08 1.37l1.61.93a15 15 0 0 0 .18-2.3c0-3.37-1.17-5.99-3.19-7.18" style="fill:#263238"/><path d="M203.92 294.64a1.42 1.42 0 0 0 0 2.67 5 5 0 0 0 4.6 0c1.28-.74 1.28-1.93 0-2.67a5 5 0 0 0-4.6 0" style="opacity:.1"/><path d="M218.71 286c-1.75-1-4-.86-6.19.43-3.47 2-6.48 6.5-7.79 11.2a4.8 4.8 0 0 0 1.7.21c1.21-4.19 3.87-8.14 6.94-9.93a5.8 5.8 0 0 1 2.83-.86 3.26 3.26 0 0 1 1.66.43c1.48.85 2.33 2.94 2.33 5.7a10.5 10.5 0 0 1-.08 1.37l1.62.93a16.4 16.4 0 0 0 .17-2.3c0-3.38-1.16-6-3.19-7.18" style="fill:#263238"/><path d="M190.05 286.63c-1.27.74-1.27 1.93 0 2.67a5 5 0 0 0 4.6 0c1.28-.74 1.28-1.93 0-2.67a5 5 0 0 0-4.6 0" style="opacity:.1"/><path d="M204.84 278c-1.75-1-4-.86-6.19.43-3.47 2-6.48 6.5-7.79 11.2a4.8 4.8 0 0 0 1.7.21c1.2-4.19 3.87-8.14 6.94-9.93a5.83 5.83 0 0 1 2.83-.87 3.27 3.27 0 0 1 1.66.44c1.48.85 2.33 2.93 2.33 5.7a10.5 10.5 0 0 1-.08 1.37l1.62.93a16.4 16.4 0 0 0 .17-2.3c-.03-3.39-1.16-6.01-3.19-7.18" style="fill:#263238"/><path d="M176.17 278.62a1.42 1.42 0 0 0 0 2.67 5.06 5.06 0 0 0 4.61 0c1.27-.74 1.27-1.93 0-2.67a5.06 5.06 0 0 0-4.61 0" style="opacity:.1"/><path d="M191 270c-1.76-1-3.95-.86-6.2.43-3.47 2-6.48 6.5-7.78 11.2a4.7 4.7 0 0 0 1.69.21c1.21-4.19 3.87-8.14 6.95-9.93a5.8 5.8 0 0 1 2.82-.86 3.26 3.26 0 0 1 1.66.43c1.48.85 2.34 2.94 2.34 5.7a13 13 0 0 1-.08 1.37l1.61.93a15 15 0 0 0 .17-2.3c-.03-3.4-1.18-6.02-3.18-7.18" style="fill:#263238"/><path d="m280.3 349.33-76.38 44.1m67.13-49.44-76.37 44.1m67.12-49.44-76.37 44.1m67.12-49.44-76.37 44.1m67.12-49.44-76.37 44.1m67.12-49.44-76.37 44.1m67.12-49.44-76.37 44.09m67.12-49.43-76.37 44.09m67.12-49.43-76.37 44.09m67.12-49.43-76.37 44.09m67.12-49.43-76.37 44.09m67.12-49.43-76.37 44.09m67.12-49.43-76.37 44.09" style="fill:none;stroke:#ebebeb;stroke-linecap:round;stroke-miterlimit:10;stroke-width:.5692229999999999px"/><path d="m164.67 282.6 134.13 77.41m-4.7-7.96-80.78 46.72" style="fill:none;stroke:#10b981;stroke-linecap:round;stroke-miterlimit:10;stroke-width:.5692229999999999px"/><g style="opacity:.25"><path d="M253.69 342.28c-.7-1.07-2-1.5-3.12-2-.45-.2-1-.48-1.51-.76-.7-1.13-1.63-3-.4-3.21.74-.14 2.17.64 3 .88.45.13.35-.53 0-.65-1.36-.53-4-2.22-4.52.09a3.54 3.54 0 0 0 .32 2.13 4.6 4.6 0 0 0-2-.37c-.64.06-1.19.08-1.41.83-.13.41.05.59.08.9a.79.79 0 0 0 .64.66h-.72c-1 0-3.6-.68-4.21.52-.25.49.33 1.18.24 1.37s-1.91.72-2.24.92c-.15.09-.05.61-.13.66a23 23 0 0 1-2.78 0c-1.53.12-5.32-.45-4.82 1.91.05.25.26.22.31.63a2 2 0 0 0 .11.57c-.05 0-.16 0-.36.32s-.66.13-.85.36c-.72.91.39 1.23-.52 1.8-1.27.8-3.92-.82-5.22.07-1.15.8.35 3.09-1.69 3.13-.45 0-.19.67.15.7 1.91.17 1.7-.19 2.07-1.75.59-2.53 4.37-.78 6.5-1.37a.37.37 0 0 0 .15-.56c-.56-.9.09-1.39.93-1.78a.38.38 0 0 0 .16-.56c-.23-.41-1-1.67-.54-2.27a11.7 11.7 0 0 1 2.25-.26 48 48 0 0 1 4.94-.09.35.35 0 0 0 .32-.47c-.24-.53 1.9-.87 2.37-1a.35.35 0 0 0 .21-.45c-1-2.54 2.74-1.6 4.3-1.36a.36.36 0 0 0 .43-.48c-.24-.85-2.13-1.71.11-2a3.45 3.45 0 0 1 1.71.41 11.86 11.86 0 0 0 3.91 4c1.47.77 2.97.25 1.83-1.47m-.69.46c.47.62-1 .11-1.18 0a5.5 5.5 0 0 1-2-2.08c.45.25.86.47 1.16.61a4.5 4.5 0 0 1 2.02 1.47m-37.51 15.63c-.27-1.11-.31-2.32.72-2.45.49-.06.14-.73-.23-.75-1.38 0-1.81 1.16-1.63 2.6a8.5 8.5 0 0 0-1.72-.58c-.9-.17-1.48-.19-1.77.72-.18.55.26.9.22 1.4-.05.72.68.42-.41.71a6.4 6.4 0 0 1-1.26-.14c-1.1 0-1.19 0-1.86.58s1 .85-1 .53a4.2 4.2 0 0 0-1.57-.22c-.73.17-1.12.38-1 1.19.06.37.85.85.84 1.08 0 1.76-1.91.27-2.62 0a.32.32 0 0 0-.45.27c0 .87.58 1.18-.69 1.25-.15 0-1-.47-1.3-.48-.81 0-1.55 1.06-2.61 1-.29 0-.39.24-.3.47.29.79.72 1.27-.88 2 0 0-1.88-.23-1.84-.23-.46 0-.16.74.19.77.73.05 3.2 1.09 3.93.11.53-.73-.53-1.57-.26-2-.18.3 1.41-.43 1.58-.49a4.4 4.4 0 0 1 1.24-.34c.22 0 .4.36.64.35s.63.15.91 0 .35-.52.46-.59c.28-.19-.36-.41.19-.6.4-.14.75.27 1.12.38.6.19 1.5.63 2 0 .67-.83-.55-1.41-.44-2 .26-1.25 2-.3 2.86-.86a.33.33 0 0 0 .12-.38c-.51-1.73 2.63-.38 3.61-.56.18 0 .37-.15.34-.36s-.39-1.07-.39-1.08c.25-1 1.68-.93 2.33-.75.64 2.1 2.31 4.22 4.13 3.66a.33.33 0 0 0 .23-.32c-.11-1.48-1.73-2.91-3.43-3.89m.66 1.73c-.06-.11-.15-.29-.24-.5a4.4 4.4 0 0 1 1.28 1.26c.35 1.05-.87-.47-1.04-.76m27.1 9.54c-.71-1.07-2-1.5-3.12-2-.46-.21-1-.49-1.51-.77-.71-1.13-1.64-3-.4-3.2.74-.14 2.17.63 3 .87.45.14.34-.52 0-.64-1.36-.54-4-2.22-4.52.09a3.53 3.53 0 0 0 .31 2.13 4.56 4.56 0 0 0-2-.37c-.65.06-1.19.08-1.42.83-.12.41.06.59.08.9a.79.79 0 0 0 .65.66c-.08 0-.28 0-.73-.06-1 0-3.59-.67-4.2.53-.26.49.32 1.18.24 1.36s-1.92.72-2.25.92c-.14.1 0 .62-.13.66a19.4 19.4 0 0 1-2.78 0c-1.53.13-5.31-.44-4.82 1.91.06.26.26.22.31.64a1.9 1.9 0 0 0 .12.57c-.06 0-.17 0-.37.32s-.65.12-.84.36c-.73.91.38 1.23-.52 1.79-1.28.8-3.93-.81-5.22.08s.34 3.08-1.69 3.12c-.45 0-.19.68.15.71 1.9.16 1.7-.2 2.06-1.75.6-2.54 4.38-.79 6.5-1.38.25-.06.27-.37.16-.55-.56-.9.09-1.4.93-1.79a.36.36 0 0 0 .15-.55c-.22-.41-1-1.68-.54-2.27a12 12 0 0 1 2.26-.26 45 45 0 0 1 4.94-.09.35.35 0 0 0 .32-.47c-.24-.53 1.89-.87 2.37-1a.34.34 0 0 0 .2-.45c-1-2.53 2.74-1.6 4.3-1.35a.37.37 0 0 0 .44-.48c-.25-.86-2.13-1.71.1-2a3.7 3.7 0 0 1 1.72.41 12 12 0 0 0 3.9 4c1.48.81 2.99.3 1.85-1.43m-.69.46c.46.63-1 .12-1.19 0a5.63 5.63 0 0 1-2-2.09c.46.25.87.48 1.17.61a4.73 4.73 0 0 1 2.02 1.48m24.16-19.86c-.28-1.11-.31-2.32.71-2.45.5-.06.15-.73-.22-.75-1.38 0-1.82 1.16-1.64 2.61a7.8 7.8 0 0 0-1.71-.59c-.9-.17-1.48-.19-1.78.72-.17.55.27.9.23 1.4-.05.72.67.42-.41.71a6.3 6.3 0 0 1-1.26-.14c-1.1 0-1.2 0-1.86.58s1 .85-1 .53a4.1 4.1 0 0 0-1.56-.22c-.73.17-1.12.38-1 1.19.06.37.84.85.84 1.08 0 1.76-1.91.27-2.63 0a.33.33 0 0 0-.45.27c0 .87.58 1.18-.68 1.25-.15 0-1-.47-1.3-.48-.81 0-1.56 1.06-2.62 1-.29 0-.38.24-.3.47.3.79.73 1.27-.87 2 0 0-1.88-.23-1.84-.23-.46 0-.17.74.19.77.73.05 3.19 1.09 3.92.11.54-.73-.52-1.57-.25-2-.18.3 1.4-.43 1.58-.49a4.4 4.4 0 0 1 1.23-.34c.22 0 .41.36.64.35s.64.15.92 0 .35-.52.46-.59c.28-.19-.36-.41.19-.6.4-.14.74.27 1.12.38.6.19 1.5.63 2 0 .66-.83-.56-1.41-.44-2 .25-1.25 2-.3 2.86-.86a.34.34 0 0 0 .11-.38c-.5-1.73 2.63-.38 3.62-.56.18 0 .36-.15.34-.36s-.39-1.07-.39-1.08c.25-1 1.67-.93 2.33-.75.64 2.1 2.3 4.22 4.12 3.66a.31.31 0 0 0 .23-.32c-.15-1.48-1.73-2.91-3.43-3.89m.66 1.73a4 4 0 0 1-.24-.5 4.4 4.4 0 0 1 1.28 1.26c.35 1.05-.87-.47-1.04-.73Zm-70.1-40.88c-.71-1.07-2-1.49-3.12-2-.46-.21-1-.49-1.51-.77-.71-1.13-1.64-3-.4-3.2.73-.14 2.17.64 3 .87.44.14.34-.52 0-.64-1.36-.54-4-2.22-4.52.09a3.45 3.45 0 0 0 .31 2.13 4.56 4.56 0 0 0-2-.37c-.65.06-1.19.08-1.42.83-.12.41 0 .59.08.9a.79.79 0 0 0 .65.66 6 6 0 0 0-.73 0c-1 0-3.59-.68-4.21.52-.25.49.33 1.18.25 1.36s-1.92.72-2.25.93c-.15.09 0 .61-.13.65a19.4 19.4 0 0 1-2.78 0c-1.53.13-5.31-.44-4.82 1.92.06.25.26.21.31.63a1.9 1.9 0 0 0 .12.57c-.06 0-.17 0-.37.32s-.65.12-.84.36c-.73.91.38 1.23-.52 1.79-1.28.8-3.93-.81-5.23.08s.35 3.08-1.68 3.12c-.45 0-.19.68.15.71 1.9.16 1.69-.2 2.06-1.75.6-2.53 4.38-.79 6.5-1.37a.36.36 0 0 0 .15-.56c-.55-.9.1-1.4.94-1.79a.36.36 0 0 0 .15-.55c-.22-.41-1-1.68-.54-2.27a12 12 0 0 1 2.26-.26 45 45 0 0 1 4.94-.09.34.34 0 0 0 .31-.47c-.23-.53 1.9-.87 2.38-1a.35.35 0 0 0 .2-.45c-1-2.54 2.74-1.61 4.3-1.36a.37.37 0 0 0 .44-.48c-.25-.86-2.14-1.71.1-2a3.7 3.7 0 0 1 1.72.41 12 12 0 0 0 3.9 4c1.48.77 2.99.26 1.85-1.47m-.69.46c.46.63-1 .12-1.19 0a5.63 5.63 0 0 1-2-2.09c.46.25.87.48 1.17.62a4.6 4.6 0 0 1 2.02 1.47m-37.51 15.63c-.28-1.1-.31-2.31.71-2.44.49-.07.14-.74-.22-.75-1.39 0-1.82 1.16-1.64 2.6a7.8 7.8 0 0 0-1.71-.58c-.9-.17-1.48-.2-1.78.72-.18.54.26.9.23 1.39 0 .73.67.43-.42.71a6.4 6.4 0 0 1-1.26-.13 1.91 1.91 0 0 0-1.86.58c-.68.57 1 .85-1 .53a4 4 0 0 0-1.56-.22c-.74.17-1.12.38-1 1.19 0 .36.84.85.83 1.08 0 1.76-1.9.27-2.62 0a.34.34 0 0 0-.45.28c0 .87.58 1.17-.68 1.25-.16 0-1-.48-1.3-.48-.82 0-1.56 1.06-2.62 1-.29 0-.39.23-.3.47.29.79.72 1.27-.87 2 0 0-1.88-.24-1.84-.24-.46 0-.17.75.19.77.72.06 3.19 1.1 3.92.11.54-.72-.52-1.56-.26-2-.17.31 1.41-.43 1.58-.49a4.7 4.7 0 0 1 1.24-.34c.22 0 .41.36.64.36s.64.15.92 0 .34-.51.45-.59c.29-.18-.36-.41.19-.59s.75.26 1.13.38c.59.19 1.5.63 2 0 .66-.83-.56-1.41-.45-2 .26-1.25 2.05-.3 2.86-.86a.33.33 0 0 0 .12-.38c-.5-1.73 2.63-.38 3.62-.56.17 0 .36-.15.34-.36s-.4-1.07-.39-1.09c.24-1 1.67-.92 2.33-.74.63 2.1 2.3 4.22 4.12 3.65a.31.31 0 0 0 .23-.31c-.1-1.5-1.73-2.94-3.42-3.92m.65 1.73a5 5 0 0 1-.23-.49 4.2 4.2 0 0 1 1.27 1.26c.36 1.05-.86-.47-1.04-.77m27.1 9.55c-.7-1.07-2-1.5-3.12-2-.45-.21-1-.49-1.51-.77-.7-1.13-1.64-3-.4-3.2.74-.14 2.17.63 3 .87.45.13.35-.52 0-.65-1.36-.53-4-2.22-4.52.1a3.48 3.48 0 0 0 .32 2.13 4.5 4.5 0 0 0-2-.37c-.64.06-1.19.07-1.41.82-.13.42 0 .6.08.91a.8.8 0 0 0 .64.66 5 5 0 0 0-.72-.06c-1 0-3.6-.67-4.21.52-.25.5.32 1.18.24 1.37s-1.92.72-2.24.92c-.15.09-.05.61-.13.66a21 21 0 0 1-2.78 0c-1.53.13-5.32-.44-4.82 1.91 0 .26.26.22.3.63a2.5 2.5 0 0 0 .12.58c-.06 0-.16 0-.36.31s-.66.13-.85.37c-.72.91.39 1.22-.52 1.79-1.27.8-3.92-.82-5.22.08s.35 3.08-1.69 3.12c-.45 0-.19.67.15.7 1.91.17 1.7-.19 2.06-1.74.6-2.54 4.38-.79 6.51-1.38a.36.36 0 0 0 .15-.55c-.56-.9.09-1.4.93-1.79a.37.37 0 0 0 .16-.55c-.23-.42-1-1.68-.54-2.27a12.5 12.5 0 0 1 2.25-.27 45 45 0 0 1 4.94-.08.35.35 0 0 0 .32-.47c-.24-.53 1.9-.87 2.37-1a.35.35 0 0 0 .21-.45c-1-2.53 2.73-1.6 4.3-1.35a.37.37 0 0 0 .43-.48c-.24-.86-2.13-1.72.11-2a3.7 3.7 0 0 1 1.71.41 12 12 0 0 0 3.91 4c1.47.81 3 .3 1.83-1.43m-.69.46c.47.62-1 .12-1.18 0a5.47 5.47 0 0 1-2-2.09c.45.25.86.47 1.16.61a4.6 4.6 0 0 1 2.02 1.48m24.17-19.87c-.28-1.1-.32-2.31.71-2.44.49-.07.14-.74-.23-.75-1.38 0-1.81 1.16-1.63 2.6a8.5 8.5 0 0 0-1.72-.58c-.89-.17-1.48-.2-1.77.72-.18.54.26.9.23 1.39-.05.73.67.43-.42.71a5.7 5.7 0 0 1-1.26-.13 1.91 1.91 0 0 0-1.86.58c-.68.57 1 .85-1 .53a4 4 0 0 0-1.57-.22c-.73.17-1.12.38-1 1.19.05.36.84.85.83 1.08 0 1.76-1.9.27-2.62 0a.34.34 0 0 0-.45.28c0 .87.58 1.17-.69 1.25-.15 0-1-.48-1.3-.48-.81 0-1.55 1.06-2.61 1-.29 0-.39.23-.3.47.29.79.72 1.27-.88 2 0 0-1.88-.24-1.84-.24-.45 0-.16.75.19.77.73.06 3.2 1.1 3.93.12.54-.73-.52-1.57-.26-2-.17.31 1.41-.43 1.58-.49a4.4 4.4 0 0 1 1.24-.33c.22 0 .4.35.64.35s.63.15.91 0 .35-.51.46-.59c.28-.18-.36-.41.19-.59.4-.14.75.26 1.12.38.6.19 1.5.63 2 0 .67-.83-.55-1.41-.44-2 .26-1.25 2-.3 2.86-.86a.33.33 0 0 0 .12-.38c-.51-1.73 2.63-.38 3.62-.56.17 0 .36-.15.33-.36s-.39-1.07-.39-1.09c.25-1 1.68-.92 2.33-.74.64 2.1 2.31 4.22 4.13 3.65a.32.32 0 0 0 .23-.31c-.1-1.51-1.72-2.98-3.41-3.93m.65 1.73a5 5 0 0 1-.24-.49 4.3 4.3 0 0 1 1.28 1.26c.35 1.05-.87-.47-1-.77Zm-18.33 36.51c-.7-1.07-2-1.5-3.12-2-.46-.21-1-.49-1.51-.77-.7-1.13-1.64-3-.4-3.2.74-.14 2.17.63 3 .87.45.13.35-.52 0-.64-1.36-.54-4-2.23-4.52.09a3.54 3.54 0 0 0 .31 2.13 4.4 4.4 0 0 0-2-.37c-.64.06-1.19.07-1.41.83-.13.41.05.59.08.9a.8.8 0 0 0 .64.66 7 7 0 0 0-.72-.06c-1 0-3.6-.67-4.21.53-.25.49.32 1.18.24 1.36s-1.92.72-2.24.92c-.15.09-.05.61-.13.66a19.5 19.5 0 0 1-2.78 0c-1.53.13-5.32-.44-4.82 1.91.05.26.26.22.3.64a2.5 2.5 0 0 0 .12.57c-.06 0-.16 0-.36.32s-.66.12-.85.36c-.72.91.39 1.23-.52 1.79-1.27.8-3.92-.82-5.22.08-1.15.79.35 3.08-1.69 3.12-.45 0-.19.67.15.7 1.91.17 1.7-.19 2.06-1.74.6-2.54 4.38-.79 6.51-1.38.24-.06.26-.37.15-.55-.56-.9.09-1.4.93-1.79a.37.37 0 0 0 .16-.55c-.23-.41-1-1.68-.54-2.27a12.5 12.5 0 0 1 2.25-.27 45 45 0 0 1 4.94-.08.35.35 0 0 0 .32-.47c-.24-.53 1.9-.87 2.37-1a.34.34 0 0 0 .21-.45c-1-2.53 2.73-1.6 4.3-1.35a.37.37 0 0 0 .43-.48c-.24-.86-2.13-1.72.11-2a3.7 3.7 0 0 1 1.71.41 12 12 0 0 0 3.91 4c1.48.81 2.98.28 1.84-1.43m-.69.46c.47.63-1 .12-1.18 0a5.47 5.47 0 0 1-2-2.09c.45.25.86.48 1.16.61a4.6 4.6 0 0 1 2.02 1.48m19.29-18.14c-.28-1.11-.31-2.32.71-2.45.49-.06.14-.73-.23-.75-1.38 0-1.81 1.16-1.63 2.6a8.5 8.5 0 0 0-1.72-.58c-.89-.17-1.47-.19-1.77.72-.18.55.26.9.23 1.4 0 .72.67.42-.42.71a6.4 6.4 0 0 1-1.26-.14 1.93 1.93 0 0 0-1.86.58c-.68.58 1 .85-1 .53a4.2 4.2 0 0 0-1.57-.22c-.73.17-1.12.38-1 1.19.05.37.84.85.83 1.08 0 1.76-1.9.27-2.62 0a.33.33 0 0 0-.45.27c0 .87.58 1.18-.69 1.25-.15 0-1-.47-1.29-.48-.82 0-1.56 1.06-2.62 1-.29 0-.39.24-.3.47.29.79.72 1.27-.88 2 0 0-1.88-.23-1.83-.23-.46 0-.17.74.18.77.73.05 3.2 1.09 3.93.11.54-.73-.52-1.57-.26-2-.17.3 1.41-.43 1.58-.49a4.4 4.4 0 0 1 1.24-.34c.22 0 .4.36.64.35s.64.15.92 0 .34-.52.45-.59c.28-.19-.36-.41.19-.6.4-.14.75.27 1.12.38.6.19 1.5.63 2 0 .66-.83-.56-1.41-.45-2 .26-1.25 2-.3 2.86-.86a.33.33 0 0 0 .12-.38c-.51-1.73 2.63-.38 3.62-.56.17 0 .36-.15.33-.36s-.39-1.07-.39-1.08c.25-1 1.68-.93 2.34-.75.63 2.1 2.3 4.22 4.12 3.66a.33.33 0 0 0 .23-.32c-.09-1.5-1.71-2.91-3.4-3.89m.65 1.73c-.06-.11-.15-.29-.24-.5a4.3 4.3 0 0 1 1.28 1.26c.35 1.05-.87-.47-1.04-.76m20.64-16.06a1 1 0 0 0 0-.42c-.3-1.08-1.54-.27-1.75.39s.26.9.22 1.39c0 .72.68.43-.41.71a7 7 0 0 1-1.26-.13c-1.1-.05-1.2 0-1.86.58s1 .84-1 .52a4.2 4.2 0 0 0-1.57-.21c-.73.16-1.12.37-1 1.19.06.36.85.85.84 1.08 0 1.75-1.91.27-2.62 0a.34.34 0 0 0-.46.28c0 .86.58 1.17-.68 1.25-.15 0-1-.48-1.3-.48-.81 0-1.55 1.05-2.61 1-.29 0-.39.23-.31.47.3.79.73 1.27-.87 1.95 0 0-1.88-.23-1.84-.23-.46 0-.16.75.19.77.73.06 3.2 1.1 3.93.11.53-.72-.53-1.56-.26-2-.18.31 1.41-.43 1.58-.49a4.7 4.7 0 0 1 1.23-.34c.23 0 .41.36.64.36s.64.15.92 0 .35-.51.46-.59c.28-.18-.36-.41.19-.6s.75.27 1.12.39c.6.19 1.5.63 2 0 .67-.83-.56-1.41-.44-2 .26-1.25 2-.3 2.86-.86a.33.33 0 0 0 .11-.38c-.5-1.73 2.64-.38 3.62-.56.18 0 .37-.15.34-.36a5.2 5.2 0 0 1-.14-2.23 4 4 0 0 0 .13-.56" style="fill:#455a64"/></g><path d="M105.29 113.06c4.66 5.57 12.36 13.09 16.73 18.57a16 16 0 0 1 3.54 10.13c0 2.73-.78 5-3.45 3.84-1.93-.84-3.16-1.84-6-4.61-2.53-2.5-14.77-14-14.77-14s-2.3-14.09-6.08-15.24-7-7.18-7-7.18c6.2-.57 11.12 1.43 17.03 8.49" style="fill:#f28f8f"/><path d="m147.89 258.64 21.87 32a1.18 1.18 0 0 0 2.15-.6l2.09-38.93Z" style="fill:#ffa8a7"/><path d="M171.91 290.05a1.18 1.18 0 0 1-2.15.6l-4.27-6.25a6.54 6.54 0 0 0 6.45-2.17l.43-.51Z" style="fill:#263238"/><path d="m130.1 93.58 1 3.46 1.18 4.16L174 251.11a17.27 17.27 0 0 1-9.61 8.24c-6.16 2.41-13.24 2.13-16.52-.72l-41.5-148.8-2.22-8c1.77 5.11 27.61-3.13 25.95-8.25" style="fill:#10b981"/><path d="m133.81 106.73 2.14 7.72c.7 2.22-3.68 5-9 7-7.12 2.71-16 4.11-16.93 1.18L108.4 117l-.53-2c.92 2.94 9.8 1.54 16.92-1.17 5.14-2 9.38-4.59 9.07-6.76a.45.45 0 0 0-.05-.34" style="fill:#ebebeb"/><path d="M134.33 108.66c1.62 5.15-24.33 13.33-26 8.18l-2.17-7.72c1.63 5.14 27.57-3 26-8.18Z" style="fill:#10b981"/><path d="m130.1 93.58 2.14 7.62c1.63 5-23.34 13.19-25.83 8.63a.9.9 0 0 1-.12-.28l-2.1-7.69c1.73 5.08 27.57-3.16 25.91-8.28" style="fill:#ebebeb"/><path d="m106.41 109.83-2.22-8c.78 2.29 6.49 1.87 12.36.24l43 158.59 10.26 30-21.87-32Z" style="opacity:.1"/><path d="m121 61.22 9.06 32.36c.71 2.19-3.6 5-8.91 7-7.12 2.73-16 4.2-17 1.29L95.46 70.7c-2.63-7.09 10.23-14.06 18.81-13.53 3.21.18 5.79 1.4 6.73 4.05" style="fill:#f28f8f"/><path d="M83.08 99.45a18.29 18.29 0 0 1-18.29-18.29v-1a15.5 15.5 0 0 1 15.5-15.5h5.58a15.5 15.5 0 0 1 15.5 15.5v1a18.29 18.29 0 0 1-18.29 18.29" style="fill:#263238"/><path d="M57.36 101.31A8.31 8.31 0 0 0 65.67 93V76.49a8.31 8.31 0 0 0-8.31 8.3Zm44.54 179.07a49.3 49.3 0 0 0 7 6.07 3 3 0 0 1 1 1c.33.68.84 2.38-2.28 3.47a11.62 11.62 0 0 1-9.63-.93c-2.56-1.6-2.68-4.94-5.1-6.84-1.79-1.41-4-1.77-5.47-3.62-1-1.28-.75-3-.22-5.1.57-2.31.84-4.05 1.6-3.87l-.13 1.06c1 1.52 5.89 2 8.09.92a92 92 0 0 0 5.14 7.84" style="fill:#263238"/><path d="M104.07 282.53c-.75-.68-1.47-1.38-2.17-2.15a60 60 0 0 1-4-5.94 9.15 9.15 0 0 1-1.72-4.34c-.05-2 .14-5.67.14-5.67l-7.32-.49-.36 7.67c-.19 1.74 1.25 3.29 3.8 5.48s5.78 7.31 8.08 8.6 4 1.24 4.94.58 1.09-1.2-1.39-3.74" style="fill:#ffa8a7"/><path d="M77.55 287.69a48.7 48.7 0 0 0 7 6.07 3.1 3.1 0 0 1 1 1c.33.68.84 2.38-2.28 3.47a11.62 11.62 0 0 1-9.63-.93c-2.57-1.6-2.68-4.94-5.1-6.84-1.79-1.41-4-1.77-5.47-3.62-1-1.28-.75-3-.22-5.1.57-2.31.83-4.05 1.6-3.87l-.13 1.06c1 1.52 5.89 2 8.09.92a90 90 0 0 0 5.14 7.84" style="fill:#263238"/><path d="M79.71 289.84c-.74-.68-1.47-1.38-2.16-2.15a59 59 0 0 1-4-5.94 10.24 10.24 0 0 1-1.71-4.41c-.14-1.79 0-5.52 0-5.52h-7.32l-.18 7.08c-.19 1.74 1.25 3.29 3.8 5.48s5.77 7.31 8.08 8.6 3.95 1.24 4.93.58 1.05-1.18-1.44-3.72" style="fill:#ffa8a7"/><path d="M64.36 153.34c-6.37 13.92.88 66.71.88 66.71-.19 2.26-2.18 5.77-2.42 12.67-.3 8.86 1.28 41.57 1.28 41.57a9.22 9.22 0 0 0 8.34.17s7.55-44.41 9-56.09c1.28-10.19 3.75-34.16 3.75-34.16l5.08 34.11s-2.61 5.69-2.74 10.83c-.19 6.9.83 38.93.83 38.93s3.09 1.08 8.48.29c0 0 7.68-43.34 8.4-51.61.43-4.94-3.26-65.51-3.26-65.51Z" style="fill:#37474f"/><path d="m85.21 184.21 2.07-11.38S96 171 100 167.28c0 0-4.17 5.19-10.35 6.88l-2.33 10 2.3 29.75Z" style="fill:#263238"/><path d="M76.81 104.92c-5.6.77-8.6 2-10.4 7.26-1.18 3.44-.86 8.5.33 11.94l4.88 14.28a77.3 77.3 0 0 0-7.26 14.94c14.3 8 33.34 3.73 37.64-2.09.18-1.23-1-7.2-.63-13.53.37-6.76 1.45-14.51.39-18.68-2-7.75-7.38-12.81-13.47-14.44Z" style="fill:#f5f5f5"/><path d="M95.36 72.05c1.93 1.14 4.32 6 4.08 16.18-.2 8.64-3 10.77-4.4 11.38s-4.12.24-6.75-.19v5.18s3.64 4.23 3.41 6.6-5.26 2.94-8.66.62a21.9 21.9 0 0 1-5.59-5.82V93.44s-1.78 2.38-4.69.44-3-6.71-1.33-8.43 5.34-1.17 6 1.2c0 0 4.2.16 9.79-2.92a15.71 15.71 0 0 0 8.14-11.68" style="fill:#ffa8a7"/><path d="M89.8 86.06a1.09 1.09 0 0 1-1 1.18 1.13 1.13 0 1 1 1-1.18" style="fill:#263238"/><path d="m90.09 93.38 2.53.81a1.3 1.3 0 0 1-1.64.9 1.39 1.39 0 0 1-.89-1.71" style="fill:#f28f8f"/><path d="m98.71 82.73-2.2-1.52a1.28 1.28 0 0 1 1.82-.38 1.41 1.41 0 0 1 .38 1.9m-.51 2.55a1.09 1.09 0 1 1-1.14-1.08 1.11 1.11 0 0 1 1.14 1.08" style="fill:#263238"/><path d="m93.08 84.66.17 6.53 3.44-1.06zm-4.79 14.76c-2.78-.37-8.49-2-9.38-4.27a5.87 5.87 0 0 0 2 2.88c1.71 1.47 7.38 3.11 7.38 3.11Z" style="fill:#f28f8f"/><path d="M132.23 147c-1.7.64-3.4.68-5.72 1.78a10.8 10.8 0 0 1-5 1.42c-2.27.11-8.64-2.6-14.23-5.21A59.1 59.1 0 0 1 91 133.31a119 119 0 0 1-12.59-18.09c-2-3.41-4-8.37-7.19-9-5.5.58-7.74 10.16-4.17 16.08s9.87 13.7 16.64 20.24c3.28 3.18 9.29 6.62 17.89 10.31a118 118 0 0 0 17.37 6c1.73.45 2.94 1.09 6.18 2.2a14.3 14.3 0 0 0 4.1 1 18.2 18.2 0 0 0 5.2-.55 12.4 12.4 0 0 0 5.7-3.22 7.76 7.76 0 0 0 1.87-3.08 5.22 5.22 0 0 0-.12-3.57 1.5 1.5 0 0 0-.42-.6 1.78 1.78 0 0 0-1.29-.15 75 75 0 0 1-7.53 1.21c-2.1.08-3.58-.15-3.32-.48s1.5-.29 3.08-1.19 2.5-2.6 1.95-3.42-.42-.64-2.12 0m4.63-23.1s-2.28-1.81-6.6-1.1c-2.09.35-1.29 8.26 5.44 10.47 4.38 1.44 5.27.7 6.68 4.3 0 0 2.65-.55 2-4.58a22.5 22.5 0 0 0-5.33-11.16c-1.93-2.28-2.06-4.2-3-3.55s-.42 2.62-.42 2.62Z" style="fill:#ffa8a7"/><path d="M415 166.73c-16.07-5.92-41.7-5.92-57.24 0s-15.54 15.51 0 21.43 41.17 5.92 57.24 0 16.05-15.51 0-21.43" style="fill:#263238"/><path d="m428.31 140.7-83.5.1 6.33 98.37h.08c.39 3.59 3.74 7.12 10.12 9.86 13.6 5.83 36 5.83 50.09 0 6.6-2.74 10.06-6.27 10.47-9.86h.1Z" style="fill:#fafafa"/><path d="m344.81 140.8 1.29 20a37 37 0 0 0 7 3.73c18.06 7.48 47.83 7.48 66.51 0 .81-.32 1.48-.67 2.21-1a43 43 0 0 0 5.24-2.95l1.28-19.85Z" style="fill:#f0f0f0"/><path d="M433.59 143.61v-15h-9.73a45 45 0 0 0-4.28-2c-18.67-7.48-48.45-7.48-66.51 0a45 45 0 0 0-4.08 2h-9.46v15c0 4.9 4.52 9.81 13.54 13.54 18.06 7.48 47.84 7.48 66.51 0 9.34-3.74 14.01-8.64 14.01-13.54" style="fill:#10b981"/><path d="M419.58 115c-18.67-7.47-48.45-7.47-66.51 0s-18.05 19.61 0 27.08 47.84 7.48 66.51 0 18.68-19.57 0-27.08" style="fill:#10b981"/><g style="opacity:.30000000000000004"><path d="M419.58 115c-18.67-7.47-48.45-7.47-66.51 0s-18.05 19.61 0 27.08 47.84 7.48 66.51 0 18.68-19.57 0-27.08" style="fill:#fff"/></g><path d="m421.6 124.34-3.76-13.75h-62.56l-3.77 13.75c-1.4 3.91 1.88 8 9.87 11 13.57 5.11 36 5.11 50 0 8.27-2.99 11.67-7.09 10.22-11" style="fill:#10b981"/><path d="M408.64 103.59c-12.49-4.54-32.4-4.54-44.48 0s-12.07 11.91 0 16.45 32 4.54 44.48 0 12.49-11.9 0-16.45" style="fill:#10b981"/><g style="opacity:.30000000000000004"><path d="M408.64 103.59c-12.49-4.54-32.4-4.54-44.48 0s-12.07 11.91 0 16.45 32 4.54 44.48 0 12.49-11.9 0-16.45" style="fill:#fff"/></g><path d="M413.68 111.83c0 .17-.35.76-1.38 1.56a20.4 20.4 0 0 1-5.12 2.59c-5.52 2-13.15 3.16-20.93 3.16S371 118 365.68 116a17.9 17.9 0 0 1-4.95-2.61c-1-.82-1.3-1.43-1.3-1.58 0-.3 1.08-2.23 6.25-4.17s12.79-3.14 20.57-3.14 15.41 1.15 20.93 3.16c5.18 1.88 6.48 3.78 6.5 4.17" style="fill:#10b981"/><path d="M412.3 113.39a20.4 20.4 0 0 1-5.12 2.59c-5.52 2-13.15 3.16-20.93 3.16S371 118 365.68 116a17.9 17.9 0 0 1-4.95-2.61 17.6 17.6 0 0 1 4.95-2.62c5.29-2 12.79-3.13 20.57-3.13s15.41 1.14 20.93 3.15a19.4 19.4 0 0 1 5.12 2.6" style="opacity:.1"/><path d="M399.78 113.67c1.82-1 4-1.45 4.94-.94s.18 1.77-1.64 2.82-4 1.46-4.94.94-.14-1.79 1.64-2.82" style="fill:#263238"/><path d="M348.43 213.09c0 3.66 3.66 7.31 11 10.1 14.64 5.58 38.78 5.58 53.92 0 7.56-2.78 11.35-6.43 11.36-10.08l2.29-35.66c0 3.88-4 7.75-12 10.71-16.07 5.92-41.7 5.92-57.24 0-7.77-3-11.66-6.83-11.65-10.71Z" style="fill:#455a64"/><path d="M381.5 215.2c-1.36-1.83-2.11-4.07-3.21-6a17.9 17.9 0 0 0-9.33-8.21 1.15 1.15 0 0 0-1.45.52c-2 4.13-.78 9.91 3.41 14.11s9.88 5.44 14 3.5c.24-.11.3-.57.11-.68a11.5 11.5 0 0 1-3.53-3.24m-10.3-15.4a20 20 0 0 1 5.88 3.62 17.8 17.8 0 0 1 4.25 5.83c1.57 3.32 3.06 5.38 5.36 7.09a1.15 1.15 0 0 0 1.61-.25c2.74-4.14 1.65-10.5-2.87-15-4.29-4.28-10.24-5.51-14.38-3.3a1.13 1.13 0 0 0 .15 2.01" style="fill:#263238"/></svg>