<svg xmlns="http://www.w3.org/2000/svg" viewBox="0 0 500 500"><ellipse cx="250.05" cy="365.44" rx="208.91" ry="120.61" style="fill:#f5f5f5"/><ellipse cx="134.32" cy="401.97" rx="45.5" ry="26.27" style="fill:#ebebeb"/><ellipse cx="369.92" cy="401.97" rx="45.5" ry="26.27" style="fill:#ebebeb"/><ellipse cx="251.98" cy="413.94" rx="51.66" ry="29.83" style="fill:#ebebeb"/><path d="M47 168.9a28.46 28.46 0 0 1 2.92 16.19c-.6 4.75-2.25 9.35-1.65 14.19.94 7.64 6.3 13.73 10.63 19.74a41.2 41.2 0 0 1 6 10.62c1.58 4.7 1.2 9.59.32 14.39-1.66 9.12-4 17.69 1.11 26.16 2.82 4.66 6.63 8.61 9.28 13.38a45.4 45.4 0 0 1 5.26 17c.06.54 1.1.72 1.05.11a42.4 42.4 0 0 0-3.65-14.47c-2.09-4.62-5.13-8.5-8.13-12.54s-5.61-8.5-5.88-13.77c-.25-4.92 1-9.77 2-14.55.86-4.39 1.5-8.92.57-13.35a30.5 30.5 0 0 0-4.64-10.33c-4.38-6.62-10.57-12.67-12.39-20.61-1.33-5.82 1-11.33 1.38-17.09a25.62 25.62 0 0 0-3.65-15.24c-.21-.34-.73-.26-.52.17Z" style="fill:#37474f"/><path d="M45.68 177.44c-.25-1.59 2.38-6.49 3-6.58s4.27 3.72 4.54 5.42a1.93 1.93 0 0 1-.87 1.72 5.92 5.92 0 0 1-5.33.82 1.89 1.89 0 0 1-1.35-1.38Z" style="fill:#10b981"/><path d="M45.68 177.44c-.25-1.59 2.38-6.49 3-6.58s4.27 3.72 4.54 5.42a1.93 1.93 0 0 1-.87 1.72 5.92 5.92 0 0 1-5.33.82 1.89 1.89 0 0 1-1.35-1.38Z" style="opacity:.1"/><path d="M22.16 145.57C24 157.79 36 171.75 49 172.74c12.07-5.46 19.31-21.75 17.43-34s-11.5-22.42-25.75-20.23-20.4 14.84-18.52 27.06" style="fill:#10b981"/><path d="M66.44 145.31S65 157.54 50.58 160.7c-13.84 3.06-27.58-10.55-28.71-20.78a27.5 27.5 0 0 0 .29 5.65C24 157.79 36 171.75 49 172.74c10-4.52 16.68-16.48 17.61-27.4Z" style="opacity:.05"/><path d="M453.11 217.31a26.1 26.1 0 0 0-4.47 10.58c-.66 3.79 0 7.57.19 11.37.3 5-.78 9.19-4.1 13-2.63 3-5.81 5.5-8.19 8.74-4.78 6.51-5.86 13.79-4.88 21.66 1.11 8.91 3.18 17.29-1.11 25.75-2.3 4.54-5.34 8.68-6.95 13.56a43.5 43.5 0 0 0-1.82 14.67c0 .55 1.05.72 1.06.11a48.6 48.6 0 0 1 1.81-14c1.31-4.18 3.67-7.85 5.81-11.64a28.7 28.7 0 0 0 4-11.71 46.8 46.8 0 0 0-.75-11.14c-.66-4.27-1.46-8.6-1.25-12.93a25.16 25.16 0 0 1 3.95-12.08c4.1-6.51 12.06-10.51 13.43-18.6.66-3.92-.18-7.9-.37-11.82-.26-5.44 1.53-10.4 4.16-15.08.17-.29-.32-.76-.54-.45Z" style="fill:#37474f"/><path d="M454.42 226.25c.34-1.58-2-6.63-2.59-6.77s-4.5 3.45-4.87 5.13a1.92 1.92 0 0 0 .75 1.77 6 6 0 0 0 5.27 1.16 1.94 1.94 0 0 0 1.44-1.29" style="fill:#10b981"/><path d="M454.42 226.25c.34-1.58-2-6.63-2.59-6.77s-4.5 3.45-4.87 5.13a1.92 1.92 0 0 0 .75 1.77 6 6 0 0 0 5.27 1.16 1.94 1.94 0 0 0 1.44-1.29" style="opacity:.1"/><path d="M479.92 196c-2.65 12.07-15.48 25.24-28.5 25.4-11.7-6.23-17.88-22.94-15.22-35s12.91-21.64 27-18.54 19.38 16.01 16.72 28.14" style="fill:#10b981"/><path d="M435.75 192.85s.71 12.3 14.84 16.38c13.62 3.93 28.2-8.77 30-18.91a28.5 28.5 0 0 1-.66 5.63c-2.65 12.07-15.48 25.24-28.5 25.4-9.7-5.16-15.59-17.52-15.82-28.48Z" style="opacity:.05"/><path d="M304.32 43.59c-4.67-.46-11 7.34-6.42 11.09 2.54 2.08 8.07 1.18 8-2.71a.5.5 0 0 0-.41-.44c-3.67-.84-7.31.74-6.69 5a8.25 8.25 0 0 0 7.73 6.77c.22 0 .14-.38 0-.42-3.2-.67-6.22-2.66-6.85-6.08a4.4 4.4 0 0 1 .69-3.54 3.5 3.5 0 0 1 1.63-1.1c.55-.17 2.52-.48 3 0 .86.89-1.48 2.4-2.18 2.64a5 5 0 0 1-4.23-.4c-1.94-1.36-1.46-3.92-.52-5.73 1.27-2.45 3.49-4.44 6.35-4.54.26 0 .12-.49-.08-.51Zm1.55 153.64c1.47-3.31 1.31-6.74 5.59-7.83 1.88-.48 6.33-.92 7.74.75a2 2 0 0 1-.37 2.58c-1.11 1-1.94-.2-2.23-1.26a4.85 4.85 0 0 1 2.14-5.18 8.6 8.6 0 0 1 11.47 1.84c.16.2.33 0 .26-.22-3.28-7.55-19-2.3-14 4.94 1.53 2.19 4.23.26 3.72-2.06-.56-2.57-4.94-2.44-6.88-2.31a7.94 7.94 0 0 0-5.32 2.05c-1.71 1.68-1.94 4.34-2.3 6.6 0 .1.09.25.16.1ZM418 34.88c3.07-.9 7.29-.65 9.86 1.42 2 1.6 3.12 5.07.19 6.26-1.15.46-4.94.46-5.39-1.1-.32-1.09.85-1.74 1.79-1.88 2.75-.43 5.33 2.47 5.26 5.06-.09 3.89-4.62 5.18-7.82 5.21-.21 0-.16.4 0 .41 5.45.53 11.53-4.52 6.68-9.58-1.3-1.36-3.34-2.33-5.22-1.58-1.06.43-1.9 1.39-1.37 2.54.85 1.85 4.27 2.17 5.93 1.7a3.33 3.33 0 0 0 2.3-4.28c-1.34-4.92-8.23-6-12.31-4.47-.12 0-.07.33.07.29Zm40.23 206.43c3.07-.9 7.29-.65 9.86 1.42 2 1.6 3.12 5.07.19 6.26-1.15.46-4.94.46-5.39-1.11-.32-1.08.85-1.73 1.78-1.88 2.76-.42 5.33 2.48 5.27 5.07-.09 3.89-4.62 5.18-7.82 5.21-.21 0-.16.4 0 .41 5.45.53 11.53-4.52 6.68-9.58-1.3-1.36-3.34-2.33-5.22-1.58-1.06.42-1.9 1.39-1.37 2.54.85 1.85 4.27 2.17 5.93 1.69a3.31 3.31 0 0 0 2.3-4.27c-1.34-4.93-8.23-6-12.31-4.47-.12 0-.08.33.07.29Zm-22.5-149.52c-3.66 1.09-7.06 7.53-3.66 10.46 2.89 2.49 8.73 1.93 7.76-2.82a.31.31 0 0 0-.2-.24c-3.84-.92-5.11 3.56-4.3 6.52 1.25 4.6 5.89 4.54 9.24 2.14.11-.08.06-.4-.1-.32-2.74 1.37-6.58 2.59-8.25-.91-.89-1.87-.92-5 .8-6.41a2.38 2.38 0 0 1 1.65-.64c1.28.15 1.06 1.53.34 2.41-1.15 1.4-3.46 1.25-5 .71-5.27-1.87-1.65-8.7 1.79-10.62.1-.06.08-.32-.07-.28M354.34 75.7c-4.32-.55-13.61 3.09-11.19 9 1.29 3.15 7.05 5.17 8.94 1.56a.41.41 0 0 0-.21-.53c-9-5.1-18.48 9.63-8.93 15 .3.17.29-.34.12-.47a7.51 7.51 0 0 1-1.87-10.56 9.9 9.9 0 0 1 4-3.62c1.23-.58 4.32-1.4 5.47-.2.52.56.51-.14.24.51a1.84 1.84 0 0 1-1.1.77 4.5 4.5 0 0 1-3-.1c-2-.7-3.57-2.54-3-4.75 1.05-4.43 6.69-6 10.64-6.07.27 0 .1-.51-.11-.54" style="fill:#10b981"/><path d="M374 35.83s-.26 4.84 3.33 7.53l3.76-1.15s-2.51-1.2-3.76-6.38ZM310.66 153s-.27 4.84 3.32 7.53l3.77-1.15s-2.52-1.2-3.77-6.38Z" style="fill:#455a64"/><path d="M341.4 207.54s-.27 4.83 3.33 7.52l3.76-1.14s-2.51-1.21-3.76-6.38Z" style="fill:#37474f"/><path d="M459.26 60.08s-2.2 4.32-6.65 4.85l-2.69-2.88s2.78.22 6.46-3.63Zm-25.79 154.46s-2.19 4.32-6.65 4.84l-2.69-2.87s2.79.21 6.46-3.64Z" style="fill:#455a64"/><path d="M371.92 123.81s-2.19 4.32-6.65 4.84l-2.69-2.87s2.79.21 6.46-3.64Z" style="fill:#10b981"/><path d="M331.91 70.5s-2.19 4.32-6.64 4.85l-2.69-2.88s2.78.22 6.46-3.63Z" style="fill:#455a64"/><path d="M415 77s-4.81.6-7.74-2.81l.89-3.83s1.37 2.43 6.62 3.32Zm-69.74-23.61s-4.8.6-7.73-2.8l.88-3.83s1.38 2.42 6.63 3.32Zm-80.87-10.5s-4.8.6-7.73-2.8l.88-3.83s1.38 2.42 6.62 3.32Zm57.54 64.52s-4.8.59-7.73-2.81l.88-3.83s1.38 2.43 6.63 3.32Zm143.89 35.81s-4.81.59-7.73-2.81l.88-3.83s1.38 2.43 6.62 3.32Z" style="fill:#10b981"/><path d="M382.07 94.75s-2.19 4.32-6.65 4.85l-2.69-2.88s3.29.51 7-3.34Z" style="fill:#455a64"/><path d="M386.91 101.13s-.86 4.77-5 6.55l-3.4-2a12.47 12.47 0 0 0 5.71-5.2Z" style="fill:#37474f"/><path d="M217.89 39.85c4.68-.46 11 7.33 6.42 11.08-2.53 2.09-8.07 1.18-8-2.71a.5.5 0 0 1 .41-.43c3.68-.84 7.31.73 6.69 5a8.23 8.23 0 0 1-7.72 6.76c-.23 0-.15-.38 0-.41 3.2-.68 6.22-2.67 6.84-6.09a4.33 4.33 0 0 0-.69-3.53 3.43 3.43 0 0 0-1.67-1.12c-.54-.17-2.52-.48-2.95 0-.87.9 1.48 2.4 2.18 2.64a4.93 4.93 0 0 0 4.22-.4c1.94-1.35 1.46-3.91.52-5.73-1.26-2.44-3.49-4.44-6.35-4.53-.25 0-.12-.49.08-.51Zm-7.5 163.92c-1.47-3.31-1.32-6.74-5.59-7.84-1.88-.48-6.33-.92-7.75.76a2 2 0 0 0 .37 2.57c1.12 1 2-.2 2.24-1.25a4.86 4.86 0 0 0-2.14-5.19 8.6 8.6 0 0 0-11.52 1.85c-.15.19-.32 0-.25-.22 3.28-7.55 19-2.3 14 4.94-1.53 2.19-4.24.25-3.73-2.06.57-2.57 5-2.44 6.88-2.32a8 8 0 0 1 5.33 2.05c1.71 1.69 1.94 4.35 2.3 6.6 0 .11-.09.25-.16.11ZM87.5 34.88c-3.07-.9-7.29-.65-9.87 1.42-2 1.6-3.11 5.07-.18 6.26 1.15.46 4.94.46 5.39-1.1.32-1.09-.85-1.74-1.79-1.88-2.75-.43-5.33 2.47-5.27 5.06.1 3.89 4.63 5.18 7.83 5.21.21 0 .16.4 0 .41-5.45.53-11.53-4.52-6.69-9.58 1.31-1.36 3.35-2.33 5.23-1.58 1.06.43 1.9 1.39 1.37 2.54-.85 1.85-4.27 2.17-5.93 1.7a3.33 3.33 0 0 1-2.3-4.28c1.34-4.92 8.22-6 12.31-4.47.12 0 .07.33-.07.29ZM51.79 237.61c-3.07-.9-7.29-.65-9.87 1.42-2 1.6-3.12 5.07-.18 6.26 1.15.46 4.93.46 5.39-1.1.31-1.09-.86-1.74-1.79-1.88-2.76-.43-5.33 2.47-5.27 5.06.09 3.89 4.62 5.18 7.82 5.21.22 0 .16.4 0 .42-5.45.52-11.53-4.53-6.69-9.59 1.31-1.36 3.34-2.33 5.22-1.58 1.07.43 1.91 1.39 1.38 2.54-.85 1.85-4.28 2.17-5.94 1.7a3.32 3.32 0 0 1-2.29-4.28c1.33-4.92 8.22-5.95 12.31-4.47.12 0 .07.33-.07.29Zm7.87-143.97c3.66 1.09 7.06 7.53 3.66 10.46-2.89 2.5-8.73 1.93-7.76-2.82a.33.33 0 0 1 .2-.24c3.84-.91 5.11 3.57 4.3 6.53-1.25 4.59-5.89 4.54-9.24 2.13-.11-.08-.06-.39.1-.31 2.74 1.37 6.58 2.58 8.25-.92.89-1.87.92-5-.8-6.4a2.4 2.4 0 0 0-1.65-.65c-1.28.15-1.06 1.54-.34 2.41 1.15 1.4 3.46 1.25 5 .71 5.27-1.86 1.65-8.7-1.79-10.62-.1-.06-.08-.32.07-.28m11.63 81.9c-6.23.5-5.11 12.33-.08 13.93a2.48 2.48 0 0 0 1.91-.1 2.78 2.78 0 0 0 1.13-2.37c-.6-2-4 .54-4.39 1.33a5.82 5.82 0 0 0 .48 6.81C72.9 197.91 77.8 198 81 196.4c.16-.09.19.22.08.3-3.45 2.21-9.23 1.89-11.79-1.61-2-2.8-.63-10.23 3.83-9.57 4.16.61 1.28 5.35-1.87 4.72s-4.29-4.81-4.59-7.4c-.38-3.26.59-7.66 4.63-7.59.13 0 .12.28 0 .29m78.24-99.84c4.32-.55 13.61 3.09 11.19 9-1.29 3.15-7.05 5.17-8.94 1.56a.41.41 0 0 1 .21-.53c9-5.1 18.48 9.63 8.93 15-.3.17-.29-.34-.12-.47a7.51 7.51 0 0 0 1.87-10.57 9.9 9.9 0 0 0-4-3.62c-1.23-.58-4.32-1.4-5.47-.2-.52.56-.51-.14-.24.51a1.84 1.84 0 0 0 1.1.77 4.5 4.5 0 0 0 3-.1c2-.7 3.57-2.54 3-4.75-1.05-4.43-6.69-6-10.64-6.07-.27 0-.1-.51.11-.54Z" style="fill:#10b981"/><path d="M132 44.63s.27 4.84-3.33 7.53L124.91 51s2.51-1.2 3.76-6.38Zm77.71 119.78s.27 4.84-3.33 7.53l-3.76-1.14s2.51-1.21 3.76-6.39Z" style="fill:#455a64"/><path d="M194.85 222.26s.26 4.84-3.33 7.53l-3.76-1.15s2.51-1.2 3.76-6.38Z" style="fill:#37474f"/><path d="M44.61 60.08s2.2 4.32 6.65 4.85L54 62.05s-2.78.22-6.46-3.63Zm46.52 149.19s2.19 4.32 6.65 4.85l2.69-2.88s-2.79.22-6.46-3.63Z" style="fill:#455a64"/><path d="M138.49 129.41s2.19 4.32 6.65 4.85l2.68-2.88s-2.78.22-6.45-3.63Z" style="fill:#10b981"/><path d="M182 72.87s2.19 4.32 6.65 4.85l2.68-2.88s-2.78.22-6.45-3.63Z" style="fill:#455a64"/><path d="M88.86 77s4.81.6 7.74-2.81l-.89-3.83s-1.37 2.43-6.62 3.32ZM171 39.55s4.81.6 7.74-2.8l-.88-3.83s-1.38 2.42-6.63 3.32Zm10.91 63.82s4.8.59 7.73-2.81l-.88-3.83s-1.38 2.43-6.63 3.32ZM26 198.46s4.81.6 7.74-2.8l-.88-3.84s-1.38 2.43-6.63 3.32Z" style="fill:#10b981"/><path d="M121.8 94.75s2.19 4.32 6.65 4.85l2.69-2.88s-3.29.51-7-3.34Z" style="fill:#455a64"/><path d="M117 101.13s.86 4.77 5 6.55l3.4-2a12.47 12.47 0 0 1-5.71-5.2Z" style="fill:#37474f"/><path d="M274.88 76.24s-2.19 4.32-6.65 4.85l-2.69-2.87s3.29.5 7-3.35Z" style="fill:#455a64"/><path d="M253.32 71.06s-.86 4.77-5 6.56l-3.4-2a12.45 12.45 0 0 0 5.71-5.21Z" style="fill:#37474f"/><path d="M380.52 308.28a59 59 0 0 0 1.2 10.19c1.66 20.9 3.83 25.81 6.33 40.28.27 1.62.92 4.83 1 5.9.12 1.35.74 11.56 1.29 14.6.79 4.46 8.2 4.57 8.77-.61.38-3.45-.54-12.55-.61-14.21v-4.37c0-6.5 1.07-19 1.69-30.29.47-8.51-1.29-12.74-2.34-17 0 0 2.14-13.79 4.74-29s8.93-32.63-3.73-46.41l-17.47 6s-1.79 27.92-1.11 50.62c.14 6.48.25 11.13.24 14.3" style="fill:#ffbda7"/><path d="M372.41 332.9c2.69 3.57 4.41 7.9 6.18 12a28 28 0 0 1-3.08 6.09l-7.14-9.31c1.39-2.93 2.71-5.86 4.04-8.78" style="fill:#263238"/><path d="M375.51 351h-9.53c-1.59-2.05-3.2-4.08-4.78-6.13 3.32.1 6.64.3 10 .39Z"/><path d="M364 328.89c2-1.47 2.18.28 3.9 1.08 1.2.56 3.2 1.31 4.37 2.91 1.64 2.24.35 6.23-.45 9.1a15.54 15.54 0 0 0 .09 8.52c.95 4.14.86 7.52-2.31 11.14-2.53 2.9-10.56 6.42-13.32 4.63-4.71-3 2.2-9.72 2.1-13.72a70.5 70.5 0 0 0-2-15.11c-.18-.79-.27-1.63.21-2 2.15-1.93 5.41-5.08 7.41-6.55" style="fill:#37474f"/><path d="M367.53 237.34c-3.85 4.55-22.43 27.61-27.27 35.5-3.18 5.18-1 12 .76 17.7 2.29 7.61 5.55 16.31 7.46 21.92 3.57 10.46 6.21 16 9.08 25.06 1.66 1.73 4.63.24 6.27-.92 1.41-1 2.92-4.54 2.74-6.32-.52-5.16-.45-6-1.11-12-1-9.58-.82-24.54-7.33-33.19 9.75-10.81 20.44-18.4 27.55-31.05-7.68-4.14-12.54-23.33-18.15-16.7" style="fill:#ffbda7"/><path d="M388.86 363.32c-1.21.15-1.27 1.12-1.31 5.84a102 102 0 0 1-.92 15.08c-.88 5.31-1.81 11 2.52 15.7 2.54 2.77 6.71 3.42 9.65-1.06 2.74-4.17 4.47-8.12 3.14-12.86a50 50 0 0 1-2.1-12.48c-.21-6.59.16-10.11-1.34-10.1v1c-.49.87-2 2-4.66 2.11-3 .12-4.35-1-4.79-1.89-.05-.45-.12-.89-.19-1.34" style="fill:#37474f"/><path d="M368.05 233c-1.92 3.63-8.49 11.26-16.17 21.75-5.31 7.26-14.62 18.28-15.11 23.69s12.57 37.83 12.57 37.83 10.89 1.28 15.81-4.21c.17-9.07-1-20.09-5.82-26.5 2.14-2.17 17.63-18.3 20.45-21.67 0 0-.46 15.88-.49 24.88s1 27 1.78 32.76 1.83 14.31 2.28 17c0 0 6.73 6.22 17-.21 0 0 1-9.08.68-13.09s-1.69-8.85-2.51-12.31c0 0 4-24.44 5.95-35.27s5.65-27.39-4.14-43.28c.04-.01-18.47 6.07-32.28-1.37" style="fill:#455a64"/><path d="M379.78 263.87s-6.21-3.94-8.78-8.5c0 0 1.35 5.42 5 8.5l-11 15.78Z" style="fill:#37474f"/><path d="M343.11 166.55c7.7 17.52 18.12 23.63 23 34.87 6.16-.49 14.62-10.75 9.95-17.06-5.27-2.15-22.45-20.4-23.53-28.17-.95-6.9-4.8-17.61-4.7-23.36a4 4 0 0 1 1.08-2.57c1.87-2.06 1.85-3.69 3-6 .92-1.76 1.95-2.43 1.65-2.82a2.26 2.26 0 0 0-3.07-.19 11.1 11.1 0 0 0-2.3 2.26 23 23 0 0 1 1.77-6.23c2-4.76 1.5-7.17-4.87-5.41-4 1.11-6.47 4.47-6.95 14.11a95 95 0 0 0 .07 12c.79 7.4 1.63 14.49 2.62 20.61a32.4 32.4 0 0 0 2.28 7.96" style="fill:#ffbda7"/><path d="M367.32 228.09c-.55-2.58-1.2-7.45-1.59-11-6.49-6.08-4.67-12.71-2.31-17.59 4.72-9.76 9.29-15.3 13.56-15.14l11.7.87c6.38.75 10.75 1.48 12.29 1.81 3.94.86 3.82 3.72 4 7.89a44.3 44.3 0 0 1-.43 12.89l-5.38 11.63-.48 7.16s6.52 13.09 7.7 21.59a17.3 17.3 0 0 1-8.37-5.41s-5.07 7.65-17.65 8.28-18.8-10.55-18.8-10.55Z" style="fill:#10b981"/><path d="M392.47 213.52a10.42 10.42 0 0 1-9.84 5.62 11 11 0 0 1-9.42-5.75s.37 7.68 9.44 7.59 9.82-7.46 9.82-7.46" style="opacity:.1"/><path d="M395.37 141.32c4.28 2.21 6.47 4.87 10 5.85s6.38-.07 9-2.25c3-2.47 4.42-5.59 7.53-7.51s7-3.11 10.45-1.93c4.32 1.47 6.72 6.1 7.84 10.52 1.38 5.49.86 11.67-2.25 16.48a44.2 44.2 0 0 1-23.89 17.86 48.34 48.34 0 0 1-36.19-3.25c-4.6-2.36-6.08-4.41-9.41-8.24s-4.57-8.51-3.53-14.71c1-5.93 4.16-9.75 10.21-12.92a21 21 0 0 1 20.24.1" style="fill:#10b981"/><path d="M395.37 141.32c4.28 2.21 6.47 4.87 10 5.85s6.38-.07 9-2.25c3-2.47 4.42-5.59 7.53-7.51s7-3.11 10.45-1.93c4.32 1.47 6.72 6.1 7.84 10.52 1.38 5.49.86 11.67-2.25 16.48a44.2 44.2 0 0 1-23.89 17.86 48.34 48.34 0 0 1-36.19-3.25c-4.6-2.36-6.08-4.41-9.41-8.24s-4.57-8.51-3.53-14.71c1-5.93 4.16-9.75 10.21-12.92a21 21 0 0 1 20.24.1" style="opacity:.5"/><path d="M373.53 148.8c-2.22 1.24-5 6.67-5.06 18.21 0 9.77 3.1 12.26 4.67 13s4.65.38 7.64 0l-.14 5.87s-8.45 8.81-1.62 9.84c3.41.52 7.78-1.54 10.74-3.77a12 12 0 0 0 3.94-6.06l.24-12.76s1.71 1.75 4.75-.78c2.51-2.09 3.42-5.69 1.55-7.68a4.28 4.28 0 0 0-6.84 1.2s-1.75.1-3.42-3.19a13.3 13.3 0 0 1-8.35-2.08 18.27 18.27 0 0 1-8.1-11.8" style="fill:#ffbda7"/><path d="M381.16 164.24a1.26 1.26 0 0 0 1.13 1.36 1.27 1.27 0 0 0 1.33-1.19 1.23 1.23 0 1 0-2.46-.17" style="fill:#263238"/><g style="opacity:.5;mix-blend-mode:multiply"><path d="m379.44 172.38-3.86 1.13a2 2 0 0 0 2.46 1.43 2.1 2.1 0 0 0 1.4-2.56" style="fill:#f0997a"/></g><path d="m370.15 160.15 2.53-1.66a1.45 1.45 0 0 0-2.06-.48 1.59 1.59 0 0 0-.47 2.14M383 160l2.8 1.16a1.45 1.45 0 0 0-.77-2 1.59 1.59 0 0 0-2.03.84m-12.26 3.72a1.23 1.23 0 1 0 1.32-1.19 1.25 1.25 0 0 0-1.32 1.19" style="fill:#263238"/><g style="opacity:.5;mix-blend-mode:multiply"><path d="m376.65 163.16-.37 7.39-3.86-1.3z" style="fill:#f0997a"/></g><g style="opacity:.5;mix-blend-mode:multiply"><path d="M380.78 180c3.16-.33 9.66-2 10.73-4.57a6.6 6.6 0 0 1-2.34 3.21c-2 1.61-8.43 3.32-8.43 3.32Z" style="fill:#f0997a"/></g><path d="m393.4 165.82-.12 5.13a3.49 3.49 0 0 1-3.41-3.58l.11-4.74Z" style="fill:#10b981"/><path d="m393.4 165.82-.12 5.13a3.49 3.49 0 0 1-3.41-3.58l.11-4.74Z" style="opacity:.5"/><path d="M426.73 168c-7.27 17.7-16.27 28.54-22.14 39.86-10 .59-10.91-14.86-6.4-21.28 0 0 17.38-21 18.92-28.71 1.36-6.83 4.38-17.72 4.13-23.47a3.9 3.9 0 0 0-1.14-2.54c-1.91-2-1.93-3.65-3.18-5.89-1-1.74-2-2.38-1.72-2.78a2.26 2.26 0 0 1 3.07-.26 11.2 11.2 0 0 1 2.35 2.2 23.2 23.2 0 0 0-1.92-6.18c-2.15-4.71-1.67-7.14 4.74-5.53 4 1 6.57 4.32 7.29 13.94a94 94 0 0 1 .21 12c-.6 7.42-1.28 14.52-2.11 20.67a32.5 32.5 0 0 1-2.1 7.97" style="fill:#ffbda7"/><path d="M227.48 377.23c.73 1.94 1.82 3.87 4 4.59 4.48 1.49 10.3-2.36 12.71-5.23 2.92-3.48 3.36-7.19 5.5-10.08s5.16-4.72 6.62-7.22a6.58 6.58 0 0 0 .43-6.34 7.2 7.2 0 0 0-3-2.93c-.33-.2-.91-.22-1.27-.42Z" style="fill:#263238"/><path d="M236.79 359a12.4 12.4 0 0 1-2.06 5c-1.86 2.48-4.25 4.31-6.44 6.46a7 7 0 0 0-1.88 2.34c-.92 2.4.16 4.34 1.85 6.21a6.3 6.3 0 0 0 2.59 1.42 8.2 8.2 0 0 0 4.34 0 16.8 16.8 0 0 0 7.11-4.73c3.79-4.24 3.55-9.81 8.07-13.53s7.56-7.69 2.95-12.49c-2.24-2.34-4.74-3.34-5.41-4.18-1.2-1.49-4 1.12-4.89 1.88s-1.75 1.66-2.66 2.46a26 26 0 0 0-2.3 3 4 4 0 0 0-.71 1 4 4 0 0 0-.18 1.52 18.3 18.3 0 0 1-.38 3.64" style="fill:#37474f"/><path d="M242.37 375.67a12.6 12.6 0 0 0 1.42-1.8 10.14 10.14 0 0 0-4-5.24 9.92 9.92 0 0 0-8.05-1.4 28 28 0 0 0-3.91 2.9 6.06 6.06 0 0 0-1.75 2.56 6 6 0 0 0 2.24 6.39 5.5 5.5 0 0 0 2.49 1.32 8.23 8.23 0 0 0 4.35 0 18.2 18.2 0 0 0 7.21-4.73" style="fill:#fafafa"/><path d="m244.74 337.92 2.7 8.27s2.07 2.71-1.19 5.85-6.91 3-8.48 1.09l-4.65-8.78Z" style="fill:#b16668"/><path d="M312.73 321.2c1.19.56 4.33.77 6.06-.41 3.61-2.46 4.38-9.71 3.25-13.72-1.38-4.86-4.08-7.32-5-10.24s-.67-7.1-1.89-9.65a7.66 7.66 0 0 0-5-4 4.66 4.66 0 0 0-4 .75l-1.09.8Z" style="fill:#263238"/><path d="M303.55 302.84a11.5 11.5 0 0 1 2.75 4.7c.92 2.9 1 6 1.39 9a8.5 8.5 0 0 0 .77 2.9c1.1 2.11 3.61 2.5 6.11 2.18a6.7 6.7 0 0 0 2.73-1.29 8 8 0 0 0 2.55-3.5 17.1 17.1 0 0 0 .38-8.6c-.91-5.42-6.36-9-6.29-14.34s-3.06-12.25-9.78-8.71a37.5 37.5 0 0 0-9 7c1.6 2.4 3.24 4.79 4.81 7.21a7.5 7.5 0 0 0 1.15 1.69c.69.61 1.59.94 2.28 1.6Z" style="fill:#37474f"/><path d="M320.23 308.32a10.7 10.7 0 0 0-.63-2.18 9.62 9.62 0 0 0-6.53.06 9.1 9.1 0 0 0-5.9 5.73 28.3 28.3 0 0 0 0 4.87 6.8 6.8 0 0 0 1 2.94c1.47 2.13 3.84 2.29 6.34 2a6.74 6.74 0 0 0 2.73-1.29 8.06 8.06 0 0 0 2.55-3.5 17.1 17.1 0 0 0 .44-8.63" style="fill:#fafafa"/><path d="m296.68 288.9 4.23-.18a7.57 7.57 0 0 1 4.32 5.37 8.83 8.83 0 0 1-1.78 6.87l-7 .92.21-12.7" style="fill:#b16668"/><path d="m297 288.36-29.21.29s5.3-39.19 3.55-62.13l-46.88-5.39-.14.29c-7.69 20.47-15.81 47.17-20.23 67.29-1.36 6.2-.66 7.89 4.16 17 6.77 12.78 18.29 29.88 26.54 42.86 6.52-.58 10-2.56 11.5-7.95-5.12-11.93-9.45-37.67-21-48.59 6.45-11.5 12.5-24.71 18.66-37.4.19 8.08 1 34.57 3.81 45.48 1.74 6.85 5.54 10.94 13.12 9.73 10.56-1.69 38.46-7.94 38.46-7.94 5.6-.8 4.2-11.27-2.34-13.54" style="fill:#10b981"/><path d="m297 288.36-29.21.29s5.3-39.19 3.55-62.13l-46.88-5.39-.14.29c-7.69 20.47-15.81 47.17-20.23 67.29-1.36 6.2-.66 7.89 4.16 17 6.77 12.78 18.29 29.88 26.54 42.86 6.52-.58 10-2.56 11.5-7.95-5.12-11.93-9.45-37.67-21-48.59 6.45-11.5 12.5-24.71 18.66-37.4.19 8.08 1 34.57 3.81 45.48 1.74 6.85 5.54 10.94 13.12 9.73 10.56-1.69 38.46-7.94 38.46-7.94 5.6-.8 4.2-11.27-2.34-13.54" style="opacity:.2"/><path d="M267.82 288.65s.4 5.29-1.86 9.24a14.56 14.56 0 0 0 3.63-5.39c1.2-3.26 10.56-2.49 17.56-4Zm-23.88-34-.46-7.38a38.2 38.2 0 0 1-10.48-8.84 40.5 40.5 0 0 0 8.34 9.54l.7 5.22-10.2 26.54ZM225.3 292a8.8 8.8 0 0 1-2.35 2.33 23.6 23.6 0 0 1 7.08 5.95 82.5 82.5 0 0 1 5.76 9c-2.79-6.82-6.1-13.1-10.49-17.28" style="opacity:.2"/><path d="M207.64 142.89c1.44 3.71 19.22 30 23.49 36.29 12.14-5.18 4.06-19.45 4.06-19.45s-12.76-20.65-14.83-24.13a7.6 7.6 0 0 1-.9-2.87c-.26-1.84-1.16-24.42-.06-31.24a5 5 0 0 1 1.81-3.07c2.55-2.07 3.44-4 5.25-6.42 1.41-1.91 2.75-2.51 2.46-3a2.69 2.69 0 0 0-3.58-.78 19 19 0 0 0-3.66 2.61 25 25 0 0 1 3.15-7.4c3.28-5.24 3.09-8.17-4.74-7.26-4.91.57-9.69 4.37-12 15.64-.67 3.24-.82 8.13-1.07 12.33-.54 9.54-.9 24.64-.72 31.25.06 3.32-.09 3.8 1.34 7.5" style="fill:#b16668"/><path d="M242.88 157c-4.21-.62-18-15.71-18-15.71-3.85-.22-13.29 9.65-11.42 13.67 5.61 9.34 12.74 18 14.68 24 1.61 3.38 5.92.51 7.78-6.6 2.61-9.83 10.38-14.82 6.96-15.36" style="fill:#10b981"/><path d="M242.88 157c-4.21-.62-18-15.71-18-15.71-3.85-.22-13.29 9.65-11.42 13.67 5.61 9.34 12.74 18 14.68 24 1.61 3.38 5.92.51 7.78-6.6 2.61-9.83 10.38-14.82 6.96-15.36" style="opacity:.30000000000000004"/><path d="m274.09 174.83-1 17.92-1.09 38.11c-13.83 6.47-34.25 2.57-48.14-8.62 0 0 .79-43.86 3.65-54s8-12.15 15.15-11.93c7.55.24 17.25 1.3 17.25 1.3l8.26 2.2s6.09 11.43 5.92 15.02" style="fill:#455a64"/><path d="M279.94 145.32c.94-.48 5.27 1.68 7.91 5.41s2.82 9 2 10S278.4 157 278.4 157Z" style="fill:#10b981"/><path d="M279.94 145.32c.94-.48 5.27 1.68 7.91 5.41s2.82 9 2 10S278.4 157 278.4 157Z" style="opacity:.6000000000000001"/><path d="M297.38 148.13c-1.77 3.56-21.95 28.05-26.8 33.92-11.59-6.3-2.2-19.74-2.2-19.74S283 143 285.4 139.68a7.7 7.7 0 0 0 1.18-2.77c.42-1.82 3.45-24.21 3-31.1a5 5 0 0 0-1.51-3.22c-2.34-2.31-3.05-4.3-4.62-6.9-1.23-2-2.5-2.75-2.17-3.24a2.7 2.7 0 0 1 3.64-.44 18.7 18.7 0 0 1 3.4 2.95 25.1 25.1 0 0 0-2.45-7.67c-2.77-5.52-2.3-8.43 5.41-6.79 4.83 1 9.24 5.28 10.51 16.71.36 3.29.05 8.17-.1 12.37-.36 9.56-1.42 24.62-2.22 31.19-.42 3.32-.31 3.81-2.09 7.36" style="fill:#b16668"/><path d="m265.41 159.27 14.53-14s-1.31 12 9.89 15.43l-16.69 21.11c-1.93 3.22-7.22-1-8.4-8.22-1.65-10.06.67-14.32.67-14.32" style="fill:#10b981"/><path d="m265.41 159.27 14.53-14s-1.31 12 9.89 15.43l-16.69 21.11c-1.93 3.22-7.22-1-8.4-8.22-1.65-10.06.67-14.32.67-14.32" style="opacity:.30000000000000004"/><path d="M257.69 125.51A12.93 12.93 0 1 1 245.38 112a12.94 12.94 0 0 1 12.31 13.51m8.98 9.63s-2.56 9.73-3.47 11.31a4.48 4.48 0 0 1-2.68 2l.48-6.92Zm-1.96-14.22a4.84 4.84 0 0 1 3.94 1.6c1.64 1.85.42 7.32-2 12.62l-4 .26Z" style="fill:#263238"/><path d="M261.52 135.35c.77.51 2-.95 3-1.93s4.28-2.22 5.71 1.2-1.78 7.85-4.32 8.52c-4.39 1.15-4.9-1.65-4.9-1.65l-1.08 16c-5.69 6.63-20.57 5.34-14-1.56l.23-4.74a27.4 27.4 0 0 1-5.83 0c-3.16-.64-5-3.25-5.84-6.73-1.29-5.59-1.66-10.08.16-20.88 2-11.84 15.86-11.31 23.11-6.25s3.76 18.02 3.76 18.02" style="fill:#b16668"/><path d="M261.46 136.68c.4 0 2-2.41 3.05-3.26 1.43-1.18.2-12.5.2-12.5a5.47 5.47 0 0 0-.66-6.11c-1.77-2.14-4.26-4.78-12.78-4.18-6.08.43-12.75 2-17.94-.85a9 9 0 0 0 2.7 9.75s1.86 1.34 6.89 2.19a76 76 0 0 0 14 .4c1.47-.14 1.72 1.3 2.33 5.22.57 3.45.87 9.25 2.21 9.34" style="fill:#263238"/><path d="m264.66 121.8 4.9-2.35a2.63 2.63 0 0 0-3.56-1.36 2.84 2.84 0 0 0-1.34 3.71" style="fill:#263238"/><path d="M246.13 151.24s7.16-1.09 9.7-2.29a8.25 8.25 0 0 0 3.59-3.23 11.1 11.1 0 0 1-2.14 3.91c-1.92 2.23-11.23 3.5-11.23 3.5Z" style="fill:#9a4a4d"/><path d="M248.7 133a1.43 1.43 0 1 0 1.49-1.41 1.45 1.45 0 0 0-1.49 1.41m1.76-5.32 3 1.82a1.83 1.83 0 0 0-.59-2.46 1.7 1.7 0 0 0-2.41.64" style="fill:#263238"/><path d="m247.18 142.74-3.3 1.06A1.7 1.7 0 0 0 246 145a1.81 1.81 0 0 0 1.18-2.26" style="fill:#9a4a4d"/><path d="m236.23 128.19 2.87-2a1.68 1.68 0 0 0-2.39-.49 1.85 1.85 0 0 0-.48 2.49m.67 3.81a1.43 1.43 0 1 0 2.85.12 1.43 1.43 0 1 0-2.85-.12" style="fill:#263238"/><path d="m244.21 131-.87 8.53-4.39-1.74z" style="fill:#9a4a4d"/><path d="m150.74 374.94.4-1.39c.07 1.79.57 9.54 3.39 14.18 2.25 3.68 5.49 8.13 5.64 11.55s-7.07 2.63-9.79 1.29c-3.15-1.56-6.9-4.7-8.4-8.26-1.06-2.5-1.4-5.2-2.12-7.13s-2.9-4.5-3-6.53c-.05-1.11 1-3.2 2-4.93s2.25-3.41 2.79-3.08c-.06.21-.57 1.14-.57 1.14.47 1 2.2 2.33 4.37 3.05 1.45.47 4.98 1.17 5.29.11m-64.6-26.59 1-.31c-1 1.48-4.88 8.59-5.35 14-.38 4.3-.41 9.8-2.32 12.64s-7.26-2.08-8.64-4.77c-1.62-3.12-2.77-7.88-1.87-11.63.64-2.64 2-5 2.53-7s.34-5.34 1.46-7c.62-.93 2.71-2 4.57-2.76 1.71-.71 3.84-1.41 4.08-.82-.17.13-1.14.57-1.14.57-.2 1.08.39 3.19 1.71 5.06a6.3 6.3 0 0 0 3.97 2.02" style="fill:#263238"/><path d="M175 314.11c1-3.07 3.51-9.59 3-12.78-2.19-14.91-7.05-31.92-8.68-37.29-2.19-7.2-4.75-17.82-7.51-30 .07-3.39.1-6.41.1-6.41l-32 2.76c-3.69 9-9.55 24.47-7.33 44a245 245 0 0 1 1.54 27.45c-3 1.86-6.33 4-9 5.85-7.14 5-32.16 31.41-32.16 31.41l-2.58 2.06-.2.15v.06c-1.38 1.66-3 8.74-4.31 13-.87 2.89-1.3 7.45.71 11 1.9 3.33 4 4.15 4.82.44.11-1.33.19-2.64.3-3.86.33-3.78 2.48-8.11 4.09-10.88 1.31-2.25 2.18-4.14 4.64-5.73 0 0 29.91-19.52 44.29-28.7a20.58 20.58 0 0 0 9.28-13.33c1-5.18 4.55-17.93 5.76-24.35l7 26.67c-1.59 2.58-4.55 11.75-6.3 23-2.34 15-7.87 37.93-7.87 37.93l-1.41 5.24-.07.24c-.12 2.15 2.77 8.82 4.28 13.05 1 2.84 3.36 6.77 7.06 8.41 3.51 1.55 5.71.94 4.15-2.52a30 30 0 0 1-1.77-3.55 39.5 39.5 0 0 1-3.24-10.94 15 15 0 0 1 1-7.46s17.1-38.5 22.41-54.92" style="fill:#ffa8a7"/><path d="M128.12 235.15s-6.25 9.41-7.51 17.35c-2.16 13.52.79 35.11.79 35.11s4.16-2.42 4.75-7c0 0 1.72 4.13 4.87 6.21 3.95 2.63 10 4.12 17.65 1.81l1.07-9.68 1.51 8.15a33.16 33.16 0 0 0 14.63-1.92c7.47-2.86 9.13-11.12 9.13-11.12l-12.94-38.92s.73 6.47-14.69 7.07-19.26-7.06-19.26-7.06" style="fill:#455a64"/><path d="M184.12 171.13c-7.48 17.6-17.83 23.84-22.54 35.14-6.17-.42-14.74-10.58-10.15-16.94 5.24-2.21 22.21-20.67 23.19-28.45.87-6.91 4.59-17.67 4.42-23.42a4 4 0 0 0-1.11-2.55c-1.89-2-1.9-3.68-3.11-5.93-.95-1.75-2-2.41-1.69-2.8a2.26 2.26 0 0 1 3.07-.23 11.7 11.7 0 0 1 2.33 2.24 23.3 23.3 0 0 0-1.85-6.21c-2.1-4.74-1.59-7.15 4.81-5.47 4 1.06 6.52 4.4 7.12 14a96 96 0 0 1 .07 12c-.7 7.41-1.46 14.5-2.37 20.64a32.2 32.2 0 0 1-2.19 7.98" style="fill:#ffa8a7"/><path d="m129.23 231.85-.57-7.16-5.52-11.56a44.9 44.9 0 0 1-.58-12.89c.18-4.17 0-7 4-7.93 1.54-.35 5.9-1.13 12.28-2l11.68-1c4.27-.22 8.9 5.27 13.74 15 2.42 4.86 4.32 11.47-2.1 17.62 0 1.27.16 5.56 0 8.13a40.75 40.75 0 0 1-32.93 1.79" style="fill:#10b981"/><path d="M159.86 158.46v-.36c-1.05-11.21-7.48-13.29-19.23-12.09-8.68.89-16.55 5-19.17 12.65A19.75 19.75 0 0 0 123.8 176c3.59 5.32 9.66 8.29 18.24 7.49 11.18 1.31 18.87-13.83 17.82-25.03" style="fill:#263238"/><path d="M86 171a16.1 16.1 0 0 1-4.72-5.82c-1.76-3.67-2.57-9.29 1.53-11.8a3.7 3.7 0 0 1 1.54-.56c1.82-.18 3.28 1.35 4.7 2.49a13.22 13.22 0 0 0 9.82 2.69c3.76-.48 7.12-2.57 10.07-4.94a13.5 13.5 0 0 1 3-2 8.3 8.3 0 0 1 2.82-.62 14.13 14.13 0 0 1 9 2.68 4.25 4.25 0 0 1 2 2.63 2 2 0 0 1-.93 2c-.76.43-1.75 0-2.55-.09a8.63 8.63 0 0 0-5.77 1.22c-1.64 1.12-2.67 2.92-3.77 4.57-3.48 5.21-8.62 9.73-14.81 10.63A16 16 0 0 1 86 171" style="fill:#263238"/><path d="M152.15 153.14c2.3 1.08 5.5 6.3 6.31 17.81.68 9.75-2.24 12.45-3.76 13.29s-4.62.7-7.63.49l.54 5.84s9 8.2 2.3 9.7c-3.36.76-7.86-1-11-3a12 12 0 0 1-4.35-5.78l-1.12-12.71s-1.59 1.86-4.79-.45c-2.65-1.91-3.81-5.44-2.08-7.56a4.28 4.28 0 0 1 6.9.72s1.76 0 3.2-3.42a13.26 13.26 0 0 0 8.18-2.65 18.2 18.2 0 0 0 7.3-12.28" style="fill:#ffa8a7"/><path d="M145.6 169.06a1.25 1.25 0 0 1-1 1.44 1.27 1.27 0 0 1-1.4-1.09 1.23 1.23 0 1 1 2.43-.35Z" style="fill:#263238"/><g style="opacity:.5;mix-blend-mode:multiply"><path d="m147.88 177.06 3.93.87a2 2 0 0 1-2.35 1.6 2.11 2.11 0 0 1-1.58-2.47" style="fill:#f28f8f"/></g><path d="m156.31 164.22-2.64-1.48a1.46 1.46 0 0 1 2-.62 1.58 1.58 0 0 1 .64 2.1m-12.81.7-2.72 1.35a1.46 1.46 0 0 1 .63-2 1.6 1.6 0 0 1 2.09.65m12.5 2.9a1.23 1.23 0 1 1-1.4-1.09 1.26 1.26 0 0 1 1.4 1.09" style="fill:#263238"/><g style="opacity:.5;mix-blend-mode:multiply"><path d="m150.03 167.67.88 7.35 3.77-1.56z" style="fill:#f28f8f"/></g><g style="opacity:.5;mix-blend-mode:multiply"><path d="M147.07 184.73c-3.17-.12-9.78-1.37-11-3.82a6.6 6.6 0 0 0 2.56 3c2.08 1.46 8.64 2.72 8.64 2.72Z" style="fill:#f28f8f"/></g><path d="m123.87 153.55 1.44-5.26a2.66 2.66 0 0 1 2 3.28 2.87 2.87 0 0 1-3.44 1.98" style="fill:#263238"/><path d="m123.41 154-3-4.54a2.65 2.65 0 0 1 3.77.66 2.87 2.87 0 0 1-.77 3.88m10.09 17.48.48 5.12a3.5 3.5 0 0 0 3.16-3.81l-.44-4.73Z" style="fill:#263238"/><path d="M100.53 173.54c7.48 17.61 16.61 28.34 22.61 39.59 10 .47 10.74-15 6.15-21.36 0 0-17.63-20.8-19.26-28.47-1.45-6.82-4.59-17.68-4.42-23.43a3.9 3.9 0 0 1 1.11-2.55c1.89-2 1.89-3.67 3.11-5.92.94-1.76 2-2.41 1.69-2.81a2.29 2.29 0 0 0-3.08-.22 11.6 11.6 0 0 0-2.32 2.23 23 23 0 0 1 1.84-6.21c2.1-4.73 1.59-7.15-4.8-5.46-4 1-6.52 4.39-7.12 14A94 94 0 0 0 96 145c.69 7.41 1.45 14.51 2.36 20.64a32.4 32.4 0 0 0 2.17 7.9" style="fill:#ffa8a7"/><path d="m151.25 286.83-1.51-7.46 1.55-14.22a41.3 41.3 0 0 0 9.18-5.35 28.5 28.5 0 0 1-6.28 6.47l-3.45 12.23Z" style="fill:#37474f"/><path d="M135.33 218.69a10.44 10.44 0 0 0 9.91 5.5 11 11 0 0 0 9.35-5.87s-.28 7.68-9.35 7.7-9.91-7.33-9.91-7.33" style="opacity:.1"/></svg>