<svg xmlns="http://www.w3.org/2000/svg" viewBox="0 0 500 500"><path d="M407 266c-87.3-50.36-228.3-50.36-315 0S5.79 398.06 93 448.44s228.26 50.37 315 0 86.21-132.05-1-182.44" style="fill:#f0f0f0"/><path d="M236.2 342.22c16.91 9.76 44.23 9.76 61 0 8.4-4.89 12.58-11.28 12.54-17.68s-4.28-12.8-12.74-17.68c-16.91-9.76-44.23-9.76-61 0-8.4 4.88-12.58 11.28-12.54 17.68s4.28 12.79 12.74 17.68m194.16-7.41c-26.13-15.08-68.35-15.08-94.31 0-22.93 13.33-25.48 34-7.74 49-14.31-.88-29.14 1.84-40.07 8.19-19.18 11.15-19.08 29.22.22 40.37s50.51 11.15 69.69 0c15.26-8.87 18.3-22.12 9.19-32.78 22 3.18 46.2-.2 63.32-10.15 25.96-15.09 25.82-39.54-.3-54.63m-343.17.05c26.13-15.08 68.35-15.08 94.3 0 22.94 13.33 25.49 34 7.75 49 14.31-.89 29.14 1.84 40.07 8.19 19.18 11.15 19.08 29.22-.23 40.37s-50.5 11.14-69.69 0c-15.26-8.87-18.3-22.12-9.18-32.78-22 3.18-46.2-.2-63.33-10.16-25.95-15.08-25.82-39.48.31-54.62m133.31-70.1c-7.38-4.26-19.31-4.26-26.65 0s-7.3 11.18.09 15.44 19.31 4.26 26.65 0 7.3-11.2-.09-15.44" style="fill:#e0e0e0"/><path d="m225.1 240.23-17.88.52-17.88-.52c-.77 12.07 1.59 24.38 4.84 30.39a8.2 8.2 0 0 0 3.54 3.6c5.28 3 13.8 3 19 0a7.9 7.9 0 0 0 3.54-3.7c3.27-6.04 5.6-18.28 4.84-30.29" style="fill:#fff"/><path d="M219.82 232.91c7 4 7 10.6.08 14.64s-18.28 4-25.28 0-7-10.6-.08-14.64 18.28-4.05 25.28 0" style="fill:#ebebeb"/><path d="M217.05 234.52c5.46 3.15 5.49 8.27.06 11.42s-14.26 3.16-19.72 0-5.49-8.27-.06-11.42 14.26-3.16 19.72 0" style="fill:#e0e0e0"/><path d="M217.05 234.52c5.46 3.15 5.49 8.27.06 11.42s-14.26 3.16-19.72 0-5.49-8.27-.06-11.42 14.26-3.16 19.72 0" style="opacity:.15"/><path d="M236.61 163.94c-40.29 13.2-40.61 40.15-31.61 59.34 2.29 3.89 9.23 6 15.26-17.9l-10.58 1.36 12.33-6.25 3.2-9.58-10.28.77 13.07-5.49a194 194 0 0 1 8.61-22.25" style="fill:#fafafa"/><path d="M236.61 163.94c-40.29 13.2-40.61 40.15-31.61 59.34 2.29 3.89 9.23 6 15.26-17.9l-10.58 1.36 12.33-6.25 3.2-9.58-10.28.77 13.07-5.49a194 194 0 0 1 8.61-22.25" style="opacity:.2"/><path d="M236.61 163.94c-40.29 13.2-40.61 40.15-31.61 59.34 2.29 3.89 9.23 6 15.26-17.9l-10.58 1.36 12.33-6.25 3.2-9.58-10.28.77 13.07-5.49a194 194 0 0 1 8.61-22.25" style="fill:#fff;opacity:.2"/><path d="M225.22 170.68c-21.22 16.13-23.17 34.62-17.16 53.92-2.13-17-4.42-34.18 17.16-53.92" style="fill:#fff"/><path d="M168.38 191.32c39.71 5.59 44.53 30.63 39.26 50-1.49 4-7.6 7.09-17.19-14.14l10.08-.49-12.53-3.75-4.57-8.39 9.7-1-13.07-2.94a182 182 0 0 0-11.68-19.29" style="fill:#fafafa"/><path d="M168.38 191.32c39.71 5.59 44.53 30.63 39.26 50-1.49 4-7.6 7.09-17.19-14.14l10.08-.49-12.53-3.75-4.57-8.39 9.7-1-13.07-2.94a182 182 0 0 0-11.68-19.29" style="fill:#fff;opacity:.2"/><path d="M168.38 191.32c39.71 5.59 44.53 30.63 39.26 50-1.49 4-7.6 7.09-17.19-14.14l10.08-.49-12.53-3.75-4.57-8.39 9.7-1-13.07-2.94a182 182 0 0 0-11.68-19.29" style="opacity:.1"/><path d="M180.11 195.71c22.46 11.48 27.32 28.38 24.94 47.35-.85-16.18-1.57-32.56-24.94-47.35" style="fill:#fff"/><path d="M248.24 200.71c-36.42.59-43.57 22.62-41 40.68.9 3.77 6.06 7.25 17.07-10.81l-9-1.58 11.69-2 5.06-7-8.63-2 12.1-1.19a166 166 0 0 1 12.71-16.1" style="fill:#fafafa"/><path d="M237.17 203.34c-21.53 7.84-27.8 22.53-27.78 39.9 2.61-14.49 5.06-29.18 27.78-39.9" style="fill:#fff"/><path d="M248.24 200.71c-36.42.59-43.57 22.62-41 40.68.9 3.77 6.06 7.25 17.07-10.81l-9-1.58 11.69-2 5.06-7-8.63-2 12.1-1.19a166 166 0 0 1 12.71-16.1" style="fill:#fff;opacity:.2"/><path d="m367.98 101.37-.29 102.14 5.69 3.28.29-102.14z" style="fill:#e0e0e0"/><path d="m373.67 104.65-.29 102.14 4.94-2.87.27-96.43z" style="fill:#f0f0f0"/><rect height="6.56" x="370.83" y="99.73" style="fill:#e0e0e0" transform="rotate(-60 370.83 103.005)"/><path d="m373.65 109.23.02-4.58-5.69-3.28-.01 4.58z" style="opacity:.2"/><path d="m373.65 109.23 3.99-2.29-3.97-2.29z" style="opacity:.2"/><rect height="6.56" x="370.83" y="99.73" style="fill:#e0e0e0" transform="rotate(-60 370.83 103.005)"/><path d="m299.58 61.87 4.94-2.87-.28 102.15-4.94 2.87z" style="fill:#f0f0f0"/><path d="m299.3 164.02 4.94-2.87 142.49 82.26-4.94 2.88z" style="fill:#f5f5f5"/><path d="m293.92 52.06 153.86 88.83-.33 115.21-153.86-88.83Zm147.87 194.23.29-102.15-142.5-82.27-.29 102.13 142.5 82.27" style="fill:#e0e0e0"/><path d="m293.92 52.06 4.94-2.87 153.86 88.83-4.94 2.87z" style="fill:#f5f5f5"/><path d="m447.78 140.89 4.94-2.87-.33 115.21-4.94 2.87z" style="fill:#f0f0f0"/><path d="M87.53 146.8c.49-.23 1-.48 1.49-.73-.49.25-1.02.49-1.49.73m-.53.26.55-.27Zm17.47-62.1-11.36 6.55-11.53 6.67 11.53-6.67zm.11 37.43-.03-10.54-.03-9.62.03 9.62zM89 146.06l.31-.15zm15.71 22.51-.03-8.81-.02-7.7.02 7.7zm-22.13-19.7a54 54 0 0 0 4.41-1.81c-1.48.68-2.99 1.29-4.41 1.81m-11.83-31.4.09 33.84.06 19.61-.06-19.61z" style="fill:none"/><path d="M104.68 159.76v-7.7l-.35.2c-.22.12-.43.25-.64.38-5.7 3.43-11.41 8.84-16.73 14.68-.88 1-1.76 1.94-2.61 2.93-4.49 5.13-8.88 10.57-13.39 15.66v12.46l5.43-3.14c7.35-13.84 17.43-26.48 28.29-35.47m.06 19.11v-10.29a64.6 64.6 0 0 0-11.55 17Z" style="fill:#ebebeb"/><path d="M93.16 185.56a64.6 64.6 0 0 1 11.55-17v-8.82c-10.86 9-20.94 21.63-28.27 35.47l16.75-9.67Zm-11.37-36.42c.27-.08.53-.18.79-.27a54 54 0 0 0 4.41-1.81l.54-.26c.5-.24 1-.48 1.5-.74l.31-.15c.75-.39 1.51-.8 2.27-1.23l.48-.28.4-.23a81.6 81.6 0 0 0 11.62-8.33c.17-.14.34-.28.5-.43v-13c-8.27 4.23-16.4 5.54-23 3.5a20.1 20.1 0 0 1-10.87-8.42l.09 33.84a40 40 0 0 0 10.96-2.19m5.15 18.18c5.32-5.84 11-11.25 16.73-14.68.21-.13.42-.26.64-.38l.35-.2v-7.47a161.7 161.7 0 0 0-30.46 23.18c-1.1 1-2.2 2.12-3.3 3.15v15c4.51-5.09 8.9-10.53 13.39-15.66.89-1 1.77-1.98 2.65-2.94" style="fill:#fafafa"/><path d="M104.64 144.59v-9.18c-.16.15-.33.29-.5.43a81.6 81.6 0 0 1-11.62 8.33l-.4.23-.48.28c-.76.43-1.52.84-2.27 1.23l-.31.15-.21.11.21-.11c-.5.25-1 .5-1.49.73l-.55.27a54 54 0 0 1-4.41 1.81l.83-.31-.83.31c-.26.09-.52.19-.79.27a40 40 0 0 1-11 2.17l.06 19.61c1.1-1 2.2-2.1 3.3-3.15a161.7 161.7 0 0 1 30.46-23.18" style="fill:#ebebeb"/><path d="M104.55 111.85v-9.62c-5.22-1.23-9.27-5-11.41-10.72l-11.57 6.67c4.58 9.05 12.88 14.06 22.98 13.67" style="fill:#fafafa"/><path d="M81.62 125.89c6.56 2 14.69.73 23-3.5v-10.54c-10.1.39-18.4-4.62-23-13.67l-10.86 6.27v13a20.1 20.1 0 0 0 10.86 8.44" style="fill:#ebebeb"/><path d="M106.37 81.68 68.8 103.37l.27 98.28L106.64 180ZM71 198.37v-27.46l-.06-19.61-.09-33.84v-13l10.86-6.27 11.54-6.67L104.47 85v93.89l-11.58 6.69-16.75 9.67Z" style="fill:#fff"/><path d="m88.82 146.17.21-.11m2.57-1.38c-.86.49-1.72.94-2.57 1.38m-6.45 2.81.83-.31" style="fill:none;stroke:gray;stroke-linecap:round;stroke-linejoin:round;stroke-width:0"/><path d="M104.52 102.23V84.96l-11.41 6.55c2.14 5.69 6.19 9.49 11.41 10.72" style="fill:#ebebeb"/><path d="m106.64 179.96-37.57 21.69.01 2.61 39.82-22.99z" style="fill:#cacaca"/><path d="m106.37 81.68.27 98.28 2.26 1.31-.28-100.89z" style="fill:#f0f0f0"/><path d="m114.66 69.92-51.94 30 .28 114.8 51.94-30ZM69.08 204.26v-2.61l-.27-98.28 37.57-21.69 2.25-1.3.28 100.89Z" style="fill:#e0e0e0"/><path d="m114.66 69.92-4.29-2.3-51.94 29.99 4.29 2.3z" style="fill:#f5f5f5"/><path d="m58.43 97.61.33 114.81 4.28 2.3-.32-114.81z" style="fill:#f0f0f0"/><path d="m166.71 72.49.36-.28Zm-2.01 1.67.07-.06zm14.2-7.85.51-.1-.49.09Zm-1.15.28.45-.11-.44.11Zm-20.63 61.7a10 10 0 0 1-1-.34 10 10 0 0 0 1 .34m-3.71-40.13.21-.36Zm1.24-2.04.26-.4Zm8.03-10.06a2 2 0 0 1 .22-.21 2 2 0 0 0-.22.21m-1.36 1.39.01-.01zM158 81.4v-.05Zm1.81 47.38a9 9 0 0 1-1.05-.12 9 9 0 0 0 1.05.12m19.32-9.11c-.52.52-1.06 1-1.6 1.5.54-.48 1.08-.98 1.6-1.5m-15.26 8.87-.54.1Zm-12.6-36.34.07-.15Zm30.15-26.26h.32zm2.16-.03h.29Zm-3.5.18.54-.07-.48.06Zm6.52.33.19.06h-.1Zm1.18.41.18.08-.15-.07Zm-18.84 4.02h.07zm-22.6 47.26c0 .24.08.49.13.73-.05-.24-.09-.49-.13-.73m.57 2.52c.07.22.12.43.19.64-.1-.21-.1-.42-.19-.64m.81 2.26c.08.19.15.38.24.56-.09-.18-.16-.37-.24-.56m-.43-1.1c.07.2.13.41.21.6-.08-.19-.14-.39-.21-.6m.91 2.14c.09.17.17.35.27.52-.1-.17-.18-.35-.27-.52m.14-24.56v-.01zm22.94-30c-.36.2-.71.42-1.06.64.35-.22.7-.44 1.06-.64M146 115.21c0 .32 0 .64.07 1-.02-.36-.07-.68-.07-1m.14 1.48c0 .28.06.57.1.84-.04-.27-.07-.53-.1-.84m-.2-3.42v1.47c.06-.48 0-.97 0-1.47m.31-4.86v-.27zM151 127.8l-.37-.38Zm-4.19-22.71v-.17zm-.32 1.69.12-.69Zm2.24 18.12.3.49Zm3.41 3.85.42.32Zm-2.14-2.11c.11.14.22.29.34.42-.16-.13-.27-.28-.34-.42m-.68-.83.32.45Zm2.05 2.31.39.35Zm37.01-57.97.38.24Zm3.53 29.85c.25-.65.49-1.3.7-2-.21.66-.45 1.31-.7 2m.76-2.16c.23-.67.43-1.35.62-2-.2.65-.4 1.33-.62 2M152.53 125c.35.06.7.1 1.06.13h1.91c.52 0 1-.08 1.57-.16.35 0 .71-.12 1.06-.2l.34-.08c.25 0 .49-.11.74-.18l1.27-.39.26-.1c.34-.12.69-.25 1-.39l.4-.17 1.12-.51.43-.21c.49-.25 1-.51 1.49-.8s1.24-.76 1.85-1.16l.31-.21c.59-.4 1.16-.82 1.73-1.26l.33-.26c.58-.45 1.16-.92 1.72-1.42l.15-.13c.54-.49 1.08-1 1.6-1.5l.26-.25q.61-.6 1.2-1.23l.07-.07c.37-.4.74-.81 1.1-1.22l.24-.28c.59-.68 1.16-1.38 1.72-2.1l.18-.24c.45-.58.89-1.17 1.31-1.77l.19-.26c.4-.58.8-1.18 1.19-1.78l.27-.43c.31-.49.62-1 .92-1.5l.19-.32c.33-.57.66-1.16 1-1.75l.23-.43.72-1.42.23-.47c.28-.59.56-1.2.82-1.8l.11-.26c.23-.55.46-1.09.67-1.64.07-.16.13-.33.19-.49.25-.65.48-1.31.7-2a1 1 0 0 0 .05-.16c.23-.67.43-1.35.62-2 0-.13.08-.26.11-.39.22-.79.41-1.57.58-2.35 0-.17.07-.35.11-.52L188 88c0-.21.07-.42.11-.64s.1-.63.14-.94.06-.38.08-.57c.09-.67.15-1.35.2-2v-.43q.06-1 .06-2c0-5.58-1.5-9.92-4-12.77-3.8-.8-8.39.09-13.34 2.94-13 7.5-23.48 25.68-23.44 40.61 0 5.56 1.5 9.89 4 12.74l.35.08Zm34.33-15c.31-.49.62-1 .92-1.5-.3.51-.6 1-.92 1.5m3.03-5.37c-.24.47-.47.94-.72 1.41.25-.47.48-.94.72-1.41m-1.89 3.59c.33-.58.66-1.17 1-1.75-.37.59-.7 1.18-1 1.75m-33 19.17h-.07a11 11 0 0 0 1 .47 9 9 0 0 1-.93-.47m25.67-9.28c.37-.4.73-.8 1.09-1.21-.36.41-.76.81-1.09 1.21m-5 4.61q.92-.72 1.8-1.5l-.09.08c-.56.5-1.14.97-1.71 1.42m-2.07 1.52-.23.15c.74-.49 1.47-1 2.18-1.58a2 2 0 0 1-.22.17c-.57.44-1.14.86-1.73 1.26m5.79-4.82q.62-.6 1.2-1.23-.59.63-1.2 1.23m-10.99 7.71c.45-.19.91-.4 1.37-.63l-.25.12c-.37.18-.75.38-1.12.51m-1.4.56-.26.1-1.25.39a24 24 0 0 0 2.56-.89Zm-5.27 1.11.75-.06zm-1.65.01h1.36c-.44.02-.92.02-1.36 0m4.31-.37.41-.1h-.1Zm27.37-55.03c.08.13.18.25.26.38-.08-.13-.18-.25-.26-.38m-.6-.78c.1.12.2.23.3.36-.1-.13-.2-.24-.3-.36m1.14 1.62.24.41Zm-2.45-2.99.34.3Zm-.72-.59c.12.09.25.18.36.28-.11-.1-.24-.19-.36-.28m1.4 1.25.32.32Zm.41 30.43c-.26.61-.54 1.21-.82 1.8.28-.59.56-1.15.82-1.8" style="fill:none"/><path d="M180.67 118.11c.37-.4.73-.8 1.09-1.21l.24-.28c.59-.68 1.16-1.38 1.72-2.1l.19-.24c.44-.58.88-1.17 1.3-1.77l.19-.26c.41-.58.8-1.18 1.19-1.78l.27-.43c.32-.49.62-1 .92-1.5.06-.1.12-.21.19-.31.33-.57.66-1.16 1-1.74l.23-.44c.25-.47.48-.94.72-1.41.07-.16.15-.32.23-.48.28-.59.56-1.19.82-1.8 0-.09.08-.17.11-.26.24-.55.46-1.09.67-1.64.07-.16.13-.33.19-.49.25-.65.49-1.3.7-2a1 1 0 0 0 0-.16c.22-.67.42-1.35.61-2 0-.13.08-.26.11-.39.22-.79.41-1.57.58-2.35 0-.17.07-.35.11-.52l.18-.91c0-.2.07-.39.1-.59V91c0-.31.1-.63.14-.94s.06-.38.08-.57c.09-.67.15-1.35.2-2v-.43q.06-1 .06-2v-1.87c0-.17 0-.55-.06-.82s0-.33-.06-.5-.05-.51-.09-.76l-.09-.52c0-.23-.07-.47-.12-.69l-.12-.52c-.05-.21-.09-.43-.14-.63l-.15-.51c-.06-.2-.11-.4-.17-.59l-.18-.49c-.06-.18-.12-.37-.19-.55s-.14-.31-.2-.46-.15-.35-.23-.52-.14-.29-.22-.44-.16-.33-.25-.48l-.24-.41c-.09-.15-.18-.31-.28-.46s-.18-.25-.26-.38l-.3-.42c-.1-.13-.2-.24-.3-.36l-.31-.39-.32-.32-.34-.36-.34-.3c-.12-.11-.23-.21-.36-.31s-.24-.19-.36-.28l-.37-.28-.38-.24a11.7 11.7 0 0 0-3.76-1.53c2.53 2.85 4 7.19 4 12.77q0 1-.06 2v.43c-.05.66-.11 1.34-.2 2 0 .19-.05.38-.08.57s-.09.63-.14.94-.08.43-.11.64l-.18.92c0 .17-.07.35-.11.52-.17.78-.36 1.56-.58 2.35 0 .13-.07.26-.11.39-.19.67-.39 1.35-.62 2a1 1 0 0 1-.05.16c-.22.65-.45 1.31-.7 2-.06.16-.12.33-.19.49-.21.55-.44 1.09-.67 1.64l-.11.26c-.26.6-.54 1.21-.82 1.8l-.23.47-.72 1.42-.23.43a25 25 0 0 1-1 1.75l-.19.32c-.3.51-.61 1-.92 1.5l-.27.43c-.39.6-.79 1.2-1.19 1.78l-.19.26c-.42.6-.86 1.19-1.31 1.77l-.18.24c-.56.72-1.13 1.42-1.72 2.1l-.24.28c-.36.41-.73.82-1.1 1.22l-.07.07q-.59.63-1.2 1.23l-.26.25c-.52.51-1.06 1-1.6 1.5l-.15.13c-.56.5-1.14 1-1.72 1.42l-.33.26c-.57.44-1.14.86-1.73 1.26l-.31.21c-.61.4-1.23.8-1.85 1.16s-1 .55-1.49.8l-.43.21-1.12.51-.4.17c-.34.14-.69.27-1 .39l-.26.1-1.27.39c-.25.07-.49.13-.74.18l-.34.08a15.4 15.4 0 0 1-2.63.36h-1.91c-.36 0-.71-.07-1.06-.13l-.32-.05-.35-.08a11.4 11.4 0 0 0 2.92 2.38l.12.06h.07a9 9 0 0 0 .87.43l.3.12a10 10 0 0 0 1 .34l.17.06c.37.1.76.19 1.15.26h.3a9 9 0 0 0 1.05.12h1.9l.75-.06c.28 0 .56-.06.85-.1l.54-.1.52-.1.31-.08h.1l.66-.16 1.25-.39.26-.1 1-.39.38-.16c.37-.16.75-.33 1.12-.51l.25-.12.18-.09c.49-.25 1-.51 1.49-.8s1.24-.76 1.85-1.16l.08-.06.23-.15c.59-.4 1.16-.82 1.73-1.26a2 2 0 0 0 .22-.17l.12-.09c.57-.45 1.15-.92 1.71-1.42l.09-.08h.06c.54-.48 1.08-1 1.6-1.5a3 3 0 0 0 .26-.25q.62-.6 1.2-1.23Z" style="fill:#10b981"/><path d="M180.67 118.11c.37-.4.73-.8 1.09-1.21l.24-.28c.59-.68 1.16-1.38 1.72-2.1l.19-.24c.44-.58.88-1.17 1.3-1.77l.19-.26c.41-.58.8-1.18 1.19-1.78l.27-.43c.32-.49.62-1 .92-1.5.06-.1.12-.21.19-.31.33-.57.66-1.16 1-1.74l.23-.44c.25-.47.48-.94.72-1.41.07-.16.15-.32.23-.48.28-.59.56-1.19.82-1.8 0-.09.08-.17.11-.26.24-.55.46-1.09.67-1.64.07-.16.13-.33.19-.49.25-.65.49-1.3.7-2a1 1 0 0 0 0-.16c.22-.67.42-1.35.61-2 0-.13.08-.26.11-.39.22-.79.41-1.57.58-2.35 0-.17.07-.35.11-.52l.18-.91c0-.2.07-.39.1-.59V91c0-.31.1-.63.14-.94s.06-.38.08-.57c.09-.67.15-1.35.2-2v-.43q.06-1 .06-2v-1.87c0-.17 0-.55-.06-.82s0-.33-.06-.5-.05-.51-.09-.76l-.09-.52c0-.23-.07-.47-.12-.69l-.12-.52c-.05-.21-.09-.43-.14-.63l-.15-.51c-.06-.2-.11-.4-.17-.59l-.18-.49c-.06-.18-.12-.37-.19-.55s-.14-.31-.2-.46-.15-.35-.23-.52-.14-.29-.22-.44-.16-.33-.25-.48l-.24-.41c-.09-.15-.18-.31-.28-.46s-.18-.25-.26-.38l-.3-.42c-.1-.13-.2-.24-.3-.36l-.31-.39-.32-.32-.34-.36-.34-.3c-.12-.11-.23-.21-.36-.31s-.24-.19-.36-.28l-.37-.28-.38-.24a11.7 11.7 0 0 0-3.76-1.53c2.53 2.85 4 7.19 4 12.77q0 1-.06 2v.43c-.05.66-.11 1.34-.2 2 0 .19-.05.38-.08.57s-.09.63-.14.94-.08.43-.11.64l-.18.92c0 .17-.07.35-.11.52-.17.78-.36 1.56-.58 2.35 0 .13-.07.26-.11.39-.19.67-.39 1.35-.62 2a1 1 0 0 1-.05.16c-.22.65-.45 1.31-.7 2-.06.16-.12.33-.19.49-.21.55-.44 1.09-.67 1.64l-.11.26c-.26.6-.54 1.21-.82 1.8l-.23.47-.72 1.42-.23.43a25 25 0 0 1-1 1.75l-.19.32c-.3.51-.61 1-.92 1.5l-.27.43c-.39.6-.79 1.2-1.19 1.78l-.19.26c-.42.6-.86 1.19-1.31 1.77l-.18.24c-.56.72-1.13 1.42-1.72 2.1l-.24.28c-.36.41-.73.82-1.1 1.22l-.07.07q-.59.63-1.2 1.23l-.26.25c-.52.51-1.06 1-1.6 1.5l-.15.13c-.56.5-1.14 1-1.72 1.42l-.33.26c-.57.44-1.14.86-1.73 1.26l-.31.21c-.61.4-1.23.8-1.85 1.16s-1 .55-1.49.8l-.43.21-1.12.51-.4.17c-.34.14-.69.27-1 .39l-.26.1-1.27.39c-.25.07-.49.13-.74.18l-.34.08a15.4 15.4 0 0 1-2.63.36h-1.91c-.36 0-.71-.07-1.06-.13l-.32-.05-.35-.08a11.4 11.4 0 0 0 2.92 2.38l.12.06h.07a9 9 0 0 0 .87.43l.3.12a10 10 0 0 0 1 .34l.17.06c.37.1.76.19 1.15.26h.3a9 9 0 0 0 1.05.12h1.9l.75-.06c.28 0 .56-.06.85-.1l.54-.1.52-.1.31-.08h.1l.66-.16 1.25-.39.26-.1 1-.39.38-.16c.37-.16.75-.33 1.12-.51l.25-.12.18-.09c.49-.25 1-.51 1.49-.8s1.24-.76 1.85-1.16l.08-.06.23-.15c.59-.4 1.16-.82 1.73-1.26a2 2 0 0 0 .22-.17l.12-.09c.57-.45 1.15-.92 1.71-1.42l.09-.08h.06c.54-.48 1.08-1 1.6-1.5a3 3 0 0 0 .26-.25q.62-.6 1.2-1.23Z" style="opacity:.30000000000000004"/><path d="M180.67 118.11c.37-.4.73-.8 1.09-1.21l.24-.28c.59-.68 1.16-1.38 1.72-2.1l.19-.24c.44-.58.88-1.17 1.3-1.77l.19-.26c.41-.58.8-1.18 1.19-1.78l.27-.43c.32-.49.62-1 .92-1.5.06-.1.12-.21.19-.31.33-.57.66-1.16 1-1.74l.23-.44c.25-.47.48-.94.72-1.41.07-.16.15-.32.23-.48.28-.59.56-1.19.82-1.8 0-.09.08-.17.11-.26.24-.55.46-1.09.67-1.64.07-.16.13-.33.19-.49.25-.65.49-1.3.7-2a1 1 0 0 0 0-.16c.22-.67.42-1.35.61-2 0-.13.08-.26.11-.39.22-.79.41-1.57.58-2.35 0-.17.07-.35.11-.52l.18-.91c0-.2.07-.39.1-.59V91c0-.31.1-.63.14-.94s.06-.38.08-.57c.09-.67.15-1.35.2-2v-.43q.06-1 .06-2v-1.87c0-.17 0-.55-.06-.82s0-.33-.06-.5-.05-.51-.09-.76l-.09-.52c0-.23-.07-.47-.12-.69l-.12-.52c-.05-.21-.09-.43-.14-.63l-.15-.51c-.06-.2-.11-.4-.17-.59l-.18-.49c-.06-.18-.12-.37-.19-.55s-.14-.31-.2-.46-.15-.35-.23-.52-.14-.29-.22-.44-.16-.33-.25-.48l-.24-.41c-.09-.15-.18-.31-.28-.46s-.18-.25-.26-.38l-.3-.42c-.1-.13-.2-.24-.3-.36l-.31-.39-.32-.32-.34-.36-.34-.3c-.12-.11-.23-.21-.36-.31s-.24-.19-.36-.28l-.37-.28-.38-.24a11.7 11.7 0 0 0-3.76-1.53c2.53 2.85 4 7.19 4 12.77q0 1-.06 2v.43c-.05.66-.11 1.34-.2 2 0 .19-.05.38-.08.57s-.09.63-.14.94-.08.43-.11.64l-.18.92c0 .17-.07.35-.11.52-.17.78-.36 1.56-.58 2.35 0 .13-.07.26-.11.39-.19.67-.39 1.35-.62 2a1 1 0 0 1-.05.16c-.22.65-.45 1.31-.7 2-.06.16-.12.33-.19.49-.21.55-.44 1.09-.67 1.64l-.11.26c-.26.6-.54 1.21-.82 1.8l-.23.47-.72 1.42-.23.43a25 25 0 0 1-1 1.75l-.19.32c-.3.51-.61 1-.92 1.5l-.27.43c-.39.6-.79 1.2-1.19 1.78l-.19.26c-.42.6-.86 1.19-1.31 1.77l-.18.24c-.56.72-1.13 1.42-1.72 2.1l-.24.28c-.36.41-.73.82-1.1 1.22l-.07.07q-.59.63-1.2 1.23l-.26.25c-.52.51-1.06 1-1.6 1.5l-.15.13c-.56.5-1.14 1-1.72 1.42l-.33.26c-.57.44-1.14.86-1.73 1.26l-.31.21c-.61.4-1.23.8-1.85 1.16s-1 .55-1.49.8l-.43.21-1.12.51-.4.17c-.34.14-.69.27-1 .39l-.26.1-1.27.39c-.25.07-.49.13-.74.18l-.34.08a15.4 15.4 0 0 1-2.63.36h-1.91c-.36 0-.71-.07-1.06-.13l-.32-.05-.35-.08a11.4 11.4 0 0 0 2.92 2.38l.12.06h.07a9 9 0 0 0 .87.43l.3.12a10 10 0 0 0 1 .34l.17.06c.37.1.76.19 1.15.26h.3a9 9 0 0 0 1.05.12h1.9l.75-.06c.28 0 .56-.06.85-.1l.54-.1.52-.1.31-.08h.1l.66-.16 1.25-.39.26-.1 1-.39.38-.16c.37-.16.75-.33 1.12-.51l.25-.12.18-.09c.49-.25 1-.51 1.49-.8s1.24-.76 1.85-1.16l.08-.06.23-.15c.59-.4 1.16-.82 1.73-1.26a2 2 0 0 0 .22-.17l.12-.09c.57-.45 1.15-.92 1.71-1.42l.09-.08h.06c.54-.48 1.08-1 1.6-1.5a3 3 0 0 0 .26-.25q.62-.6 1.2-1.23Z" style="fill:#fff;opacity:.1"/><path d="M168.17 69.75c-13 7.5-23.49 25.67-23.45 40.6s10.61 20.94 23.6 13.45 23.49-25.68 23.44-40.6-10.6-20.95-23.59-13.45m-.17 4.06-.46.26v4.7l.79-.46-.79.46v-4.7Zm-.32 23.61.06.06s-.05 0-.06-.06l-6.54-11.07Zm0 22.77v-4.69l.46-.27-.46.27zl.59-.33Zm.38-22.62 10-.78Zm9.74 14.05 1.08-1.34ZM182.38 80l3.53-4.39Z" style="fill:#10b981"/><path d="M168.17 69.75c-13 7.5-23.49 25.67-23.45 40.6s10.61 20.94 23.6 13.45 23.49-25.68 23.44-40.6-10.6-20.95-23.59-13.45m-.17 4.06-.46.26v4.7l.79-.46-.79.46v-4.7Zm-.32 23.61.06.06s-.05 0-.06-.06l-6.54-11.07Zm0 22.77v-4.69l.46-.27-.46.27zl.59-.33Zm.38-22.62 10-.78Zm9.74 14.05 1.08-1.34ZM182.38 80l3.53-4.39Z" style="opacity:.2"/><path d="M168.17 69.75c-13 7.5-23.49 25.67-23.45 40.6s10.61 20.94 23.6 13.45 23.49-25.68 23.44-40.6-10.6-20.95-23.59-13.45m-.17 4.06-.46.26v4.7l.79-.46-.79.46v-4.7Zm-.32 23.61.06.06s-.05 0-.06-.06l-6.54-11.07Zm0 22.77v-4.69l.46-.27-.46.27zl.59-.33Zm.38-22.62 10-.78Zm9.74 14.05 1.08-1.34ZM182.38 80l3.53-4.39Z" style="fill:#fff;opacity:.2"/><g style="opacity:.4"><path d="M168.24 96.05a.8.8 0 0 1 .25-.08h.21l9.84-.77c.32 0 .47.31.33.76a1.37 1.37 0 0 1-.57.76.7.7 0 0 1-.25.09l-10 .78H168c-.32 0-.47-.31-.33-.75a1.4 1.4 0 0 1 .57-.79" style="fill:#fff"/></g><g style="opacity:.5"><path d="M161.71 85c.23-.14.45-.12.56.07L168.7 96h-.21a.8.8 0 0 0-.25.08 1.4 1.4 0 0 0-.57.77c-.14.44 0 .78.33.75h.06a.31.31 0 0 1-.37-.15l-6.54-11.07a1.12 1.12 0 0 1 .28-1.14 1 1 0 0 1 .28-.24" style="fill:#fff"/></g><g style="opacity:.30000000000000004"><path d="M152.26 105.28v1.44l-4.08 2.36v-1.45zm33.02-30.51.63.88-3.53 4.39-.63-.89zm-16.47-1.42.01 4.7-1.25.72-.02-4.7zm-10.11 8.57 2.05 2.89-1.08 1.35-2.06-2.89zm-7.56 12.56 3.55.29-.63 1.62-3.54-.31zm2.97 19.02.63.89-3.53 4.39-.63-.89zm5.64 3.74 1.1.09-2.04 5.25-1.09-.09zm9.17-2.46.02 4.69-1.26.72-.01-4.69zm7.9-7.39 2.06 2.89-1.08 1.34-2.06-2.89zm5.61-10.23 3.54.3-.62 1.62-3.55-.31zm5.88-12.7.01 1.45-4.09 2.36v-1.45zm-10.63-13.5 1.09.1-2.03 5.24-1.09-.09z" style="fill:#fff"/></g><path d="m152.14 128.75-.38-.28-.39-.35-.36-.32-.37-.38-.34-.36c-.12-.13-.23-.28-.34-.42s-.22-.25-.32-.38l-.32-.45-.29-.42-.3-.49c-.08-.15-.18-.29-.26-.45s-.18-.35-.27-.52-.17-.31-.24-.48-.16-.37-.24-.56-.15-.33-.22-.5-.14-.4-.21-.6-.13-.34-.19-.52-.12-.42-.19-.64-.11-.36-.15-.55-.11-.44-.16-.67-.09-.38-.13-.57-.09-.49-.13-.73-.07-.38-.1-.58-.07-.56-.1-.84l-.06-.52c0-.32-.05-.64-.07-1v-1.94c0-.73 0-1.47.07-2.21v-.15c0-.82.13-1.66.23-2.5v-.27c.06-.46.13-.91.2-1.36l.12-.69c.07-.33.13-.67.2-1v-.17a53 53 0 0 1 1.5-5.55 59 59 0 0 1 2.93-7.16l.07-.15a69 69 0 0 1 2.07-3.89l.21-.35c.34-.56.68-1.12 1-1.68l.26-.39q1.44-2.23 3.05-4.32v-.05c1.06-1.36 2.17-2.67 3.32-3.9.45-.47.89-.93 1.35-1.38a2 2 0 0 1 .22-.21c.59-.58 1.19-1.15 1.8-1.69l.07-.06c.63-.56 1.28-1.1 1.94-1.61l.36-.28c.61-.48 1.24-.93 1.87-1.36h.07c.4-.27.81-.54 1.21-.79s.7-.44 1.06-.64c.54-.31 1.08-.6 1.61-.87a26.4 26.4 0 0 1 4.82-1.89l.44-.11.7-.17.49-.09.64-.12h.06l.48-.06.83-.08h.32a16 16 0 0 1 1.82 0h.25c.38 0 .76.08 1.13.14a13 13 0 0 1 1.57.34h.16q.53.16 1 .36l.15.07a11.5 11.5 0 0 1 1.37.66l-5.89-3.6-.14-.1-.16-.08c-.31-.17-.62-.32-.94-.46l-.18-.09-.15-.05a11 11 0 0 0-1.14-.4h-.05a13 13 0 0 0-1.27-.3h-.35c-.38-.06-.76-.11-1.15-.14h-.25a14 14 0 0 0-1.47 0h-.96c-.35 0-.69.07-1 .12-.38.05-.76.13-1.15.21l-.36.09-.73.17h-.07c-.45.12-.91.26-1.37.42l-.28.1-1.12.43-.15.06-.28.12c-.4.18-.8.36-1.21.56l-.46.22c-.53.27-1.07.56-1.61.87s-1.34.81-2 1.25l-.34.23c-.63.43-1.26.88-1.87 1.36l-.36.28q-.94.73-1.86 1.53l-.15.14q-.89.79-1.74 1.62l-.18.17-.1.11c-.44.43-.87.87-1.3 1.33l-.06.07q-.61.64-1.2 1.32a.7.7 0 0 0-.11.13l-.14.16c-.64.74-1.27 1.5-1.87 2.28a.2.2 0 0 0-.05.07l-.14.18q-.72.94-1.41 1.92l-.15.19-.06.1c-.44.63-.87 1.27-1.28 1.91 0 .07-.09.13-.13.19l-.17.28c-.34.53-.67 1.07-1 1.61l-.15.26-.06.1q-.54.93-1.05 1.89a1 1 0 0 0-.08.15c-.06.1-.11.21-.17.32-.26.5-.52 1-.77 1.52l-.16.32-.09.19c-.31.65-.61 1.3-.89 2v.06c0 .06-.05.13-.08.2-.26.59-.5 1.19-.74 1.79 0 .1-.08.19-.11.29l-.09.24c-.27.71-.52 1.41-.76 2.12a.6.6 0 0 0 0 .12c-.24.73-.46 1.46-.67 2.2l-.09.27v.15c-.23.85-.44 1.7-.63 2.54a2 2 0 0 1-.05.23l-.06.33c-.07.33-.14.66-.2 1l-.12.69q-.09.51-.15 1c0 .16-.06.33-.08.49a.5.5 0 0 1 0 .12q-.14 1.09-.21 2.19v.45c0 .75-.07 1.48-.07 2.21 0 8 2.85 13.66 7.41 16.31l6.24 3.62-.4-.25-.4-.25Z" style="fill:#10b981"/><path d="m152.14 128.75-.38-.28-.39-.35-.36-.32-.37-.38-.34-.36c-.12-.13-.23-.28-.34-.42s-.22-.25-.32-.38l-.32-.45-.29-.42-.3-.49c-.08-.15-.18-.29-.26-.45s-.18-.35-.27-.52-.17-.31-.24-.48-.16-.37-.24-.56-.15-.33-.22-.5-.14-.4-.21-.6-.13-.34-.19-.52-.12-.42-.19-.64-.11-.36-.15-.55-.11-.44-.16-.67-.09-.38-.13-.57-.09-.49-.13-.73-.07-.38-.1-.58-.07-.56-.1-.84l-.06-.52c0-.32-.05-.64-.07-1v-1.94c0-.73 0-1.47.07-2.21v-.15c0-.82.13-1.66.23-2.5v-.27c.06-.46.13-.91.2-1.36l.12-.69c.07-.33.13-.67.2-1v-.17a53 53 0 0 1 1.5-5.55 59 59 0 0 1 2.93-7.16l.07-.15a69 69 0 0 1 2.07-3.89l.21-.35c.34-.56.68-1.12 1-1.68l.26-.39q1.44-2.23 3.05-4.32v-.05c1.06-1.36 2.17-2.67 3.32-3.9.45-.47.89-.93 1.35-1.38a2 2 0 0 1 .22-.21c.59-.58 1.19-1.15 1.8-1.69l.07-.06c.63-.56 1.28-1.1 1.94-1.61l.36-.28c.61-.48 1.24-.93 1.87-1.36h.07c.4-.27.81-.54 1.21-.79s.7-.44 1.06-.64c.54-.31 1.08-.6 1.61-.87a26.4 26.4 0 0 1 4.82-1.89l.44-.11.7-.17.49-.09.64-.12h.06l.48-.06.83-.08h.32a16 16 0 0 1 1.82 0h.25c.38 0 .76.08 1.13.14a13 13 0 0 1 1.57.34h.16q.53.16 1 .36l.15.07a11.5 11.5 0 0 1 1.37.66l-5.89-3.6-.14-.1-.16-.08c-.31-.17-.62-.32-.94-.46l-.18-.09-.15-.05a11 11 0 0 0-1.14-.4h-.05a13 13 0 0 0-1.27-.3h-.35c-.38-.06-.76-.11-1.15-.14h-.25a14 14 0 0 0-1.47 0h-.96c-.35 0-.69.07-1 .12-.38.05-.76.13-1.15.21l-.36.09-.73.17h-.07c-.45.12-.91.26-1.37.42l-.28.1-1.12.43-.15.06-.28.12c-.4.18-.8.36-1.21.56l-.46.22c-.53.27-1.07.56-1.61.87s-1.34.81-2 1.25l-.34.23c-.63.43-1.26.88-1.87 1.36l-.36.28q-.94.73-1.86 1.53l-.15.14q-.89.79-1.74 1.62l-.18.17-.1.11c-.44.43-.87.87-1.3 1.33l-.06.07q-.61.64-1.2 1.32a.7.7 0 0 0-.11.13l-.14.16c-.64.74-1.27 1.5-1.87 2.28a.2.2 0 0 0-.05.07l-.14.18q-.72.94-1.41 1.92l-.15.19-.06.1c-.44.63-.87 1.27-1.28 1.91 0 .07-.09.13-.13.19l-.17.28c-.34.53-.67 1.07-1 1.61l-.15.26-.06.1q-.54.93-1.05 1.89a1 1 0 0 0-.08.15c-.06.1-.11.21-.17.32-.26.5-.52 1-.77 1.52l-.16.32-.09.19c-.31.65-.61 1.3-.89 2v.06c0 .06-.05.13-.08.2-.26.59-.5 1.19-.74 1.79 0 .1-.08.19-.11.29l-.09.24c-.27.71-.52 1.41-.76 2.12a.6.6 0 0 0 0 .12c-.24.73-.46 1.46-.67 2.2l-.09.27v.15c-.23.85-.44 1.7-.63 2.54a2 2 0 0 1-.05.23l-.06.33c-.07.33-.14.66-.2 1l-.12.69q-.09.51-.15 1c0 .16-.06.33-.08.49a.5.5 0 0 1 0 .12q-.14 1.09-.21 2.19v.45c0 .75-.07 1.48-.07 2.21 0 8 2.85 13.66 7.41 16.31l6.24 3.62-.4-.25-.4-.25Z" style="opacity:.2"/><path d="m152.14 128.75-.38-.28-.39-.35-.36-.32-.37-.38-.34-.36c-.12-.13-.23-.28-.34-.42s-.22-.25-.32-.38l-.32-.45-.29-.42-.3-.49c-.08-.15-.18-.29-.26-.45s-.18-.35-.27-.52-.17-.31-.24-.48-.16-.37-.24-.56-.15-.33-.22-.5-.14-.4-.21-.6-.13-.34-.19-.52-.12-.42-.19-.64-.11-.36-.15-.55-.11-.44-.16-.67-.09-.38-.13-.57-.09-.49-.13-.73-.07-.38-.1-.58-.07-.56-.1-.84l-.06-.52c0-.32-.05-.64-.07-1v-1.94c0-.73 0-1.47.07-2.21v-.15c0-.82.13-1.66.23-2.5v-.27c.06-.46.13-.91.2-1.36l.12-.69c.07-.33.13-.67.2-1v-.17a53 53 0 0 1 1.5-5.55 59 59 0 0 1 2.93-7.16l.07-.15a69 69 0 0 1 2.07-3.89l.21-.35c.34-.56.68-1.12 1-1.68l.26-.39q1.44-2.23 3.05-4.32v-.05c1.06-1.36 2.17-2.67 3.32-3.9.45-.47.89-.93 1.35-1.38a2 2 0 0 1 .22-.21c.59-.58 1.19-1.15 1.8-1.69l.07-.06c.63-.56 1.28-1.1 1.94-1.61l.36-.28c.61-.48 1.24-.93 1.87-1.36h.07c.4-.27.81-.54 1.21-.79s.7-.44 1.06-.64c.54-.31 1.08-.6 1.61-.87a26.4 26.4 0 0 1 4.82-1.89l.44-.11.7-.17.49-.09.64-.12h.06l.48-.06.83-.08h.32a16 16 0 0 1 1.82 0h.25c.38 0 .76.08 1.13.14a13 13 0 0 1 1.57.34h.16q.53.16 1 .36l.15.07a11.5 11.5 0 0 1 1.37.66l-5.89-3.6-.14-.1-.16-.08c-.31-.17-.62-.32-.94-.46l-.18-.09-.15-.05a11 11 0 0 0-1.14-.4h-.05a13 13 0 0 0-1.27-.3h-.35c-.38-.06-.76-.11-1.15-.14h-.25a14 14 0 0 0-1.47 0h-.96c-.35 0-.69.07-1 .12-.38.05-.76.13-1.15.21l-.36.09-.73.17h-.07c-.45.12-.91.26-1.37.42l-.28.1-1.12.43-.15.06-.28.12c-.4.18-.8.36-1.21.56l-.46.22c-.53.27-1.07.56-1.61.87s-1.34.81-2 1.25l-.34.23c-.63.43-1.26.88-1.87 1.36l-.36.28q-.94.73-1.86 1.53l-.15.14q-.89.79-1.74 1.62l-.18.17-.1.11c-.44.43-.87.87-1.3 1.33l-.06.07q-.61.64-1.2 1.32a.7.7 0 0 0-.11.13l-.14.16c-.64.74-1.27 1.5-1.87 2.28a.2.2 0 0 0-.05.07l-.14.18q-.72.94-1.41 1.92l-.15.19-.06.1c-.44.63-.87 1.27-1.28 1.91 0 .07-.09.13-.13.19l-.17.28c-.34.53-.67 1.07-1 1.61l-.15.26-.06.1q-.54.93-1.05 1.89a1 1 0 0 0-.08.15c-.06.1-.11.21-.17.32-.26.5-.52 1-.77 1.52l-.16.32-.09.19c-.31.65-.61 1.3-.89 2v.06c0 .06-.05.13-.08.2-.26.59-.5 1.19-.74 1.79 0 .1-.08.19-.11.29l-.09.24c-.27.71-.52 1.41-.76 2.12a.6.6 0 0 0 0 .12c-.24.73-.46 1.46-.67 2.2l-.09.27v.15c-.23.85-.44 1.7-.63 2.54a2 2 0 0 1-.05.23l-.06.33c-.07.33-.14.66-.2 1l-.12.69q-.09.51-.15 1c0 .16-.06.33-.08.49a.5.5 0 0 1 0 .12q-.14 1.09-.21 2.19v.45c0 .75-.07 1.48-.07 2.21 0 8 2.85 13.66 7.41 16.31l6.24 3.62-.4-.25-.4-.25Z" style="fill:#fff;opacity:.30000000000000004"/><path d="M189.33 67.57a11.5 11.5 0 0 0-1.37-.66l-.18-.08q-.5-.19-1-.36l-.19-.06a13 13 0 0 0-1.57-.34c-.37-.06-.75-.11-1.13-.14h-.29a16 16 0 0 0-1.82 0h-.32l-.83.08-.54.07-.64.12-.51.1-.7.17-.45.11a26.4 26.4 0 0 0-4.82 1.89c-.53.27-1.07.56-1.61.87-.36.2-.71.42-1.06.64s-.81.52-1.21.79h-.07c-.63.43-1.26.88-1.87 1.36l-.36.28c-.66.51-1.31 1.05-1.94 1.61l-.07.06c-.61.54-1.21 1.11-1.8 1.69a2 2 0 0 0-.22.21c-.46.45-.9.91-1.35 1.38a57 57 0 0 0-3.32 3.9v.05q-1.61 2.09-3.05 4.32l-.26.4c-.35.56-.69 1.12-1 1.68l-.21.36a69 69 0 0 0-2.07 3.89l-.07.15a59 59 0 0 0-2.93 7.16 53 53 0 0 0-1.5 5.55v.17c-.07.33-.13.67-.2 1l-.12.69c-.07.45-.14.9-.2 1.36v.27c-.1.84-.18 1.68-.23 2.5v.15c0 .74-.07 1.48-.07 2.21v1.94c0 .32 0 .64.07 1l.06.52c0 .28.06.57.1.84s.07.39.1.58.08.49.13.73.09.38.13.57.1.45.16.67l.15.55c.05.18.12.43.19.64s.12.35.19.52.13.41.21.6.14.34.22.5.15.38.24.56l.24.48c.08.16.17.35.27.52s.18.3.26.45l.3.49.29.42.32.45c.1.13.21.25.32.38s.22.29.34.42l.34.36.37.38.36.32.39.35.38.28.42.32.4.25c4.65 3 11.21 2.68 18.48-1.52 14.05-8.11 25.39-27.76 25.35-43.89-.19-7.99-3.04-13.63-7.63-16.28m-9.94 51.85a3 3 0 0 1-.26.25c-.52.52-1.06 1-1.6 1.5h-.06q-.89.78-1.8 1.5l-.12.09c-.71.56-1.44 1.09-2.18 1.58l-.08.06c-.61.4-1.23.8-1.85 1.16s-1 .55-1.49.8l-.18.09c-.46.23-.92.44-1.37.63l-.38.16a24 24 0 0 1-2.56.89l-.66.16-.41.1-.52.1-.54.1c-.29 0-.57.08-.85.1l-.75.06h-1.92a9 9 0 0 1-1.05-.12h-.3c-.4-.07-.79-.16-1.17-.26l-.17-.06a10 10 0 0 1-1-.34l-.3-.12a11 11 0 0 1-1-.47l-.12-.06a11.4 11.4 0 0 1-2.92-2.38c-2.52-2.85-4-7.18-4-12.74 0-14.93 10.46-33.11 23.44-40.61 4.95-2.85 9.54-3.74 13.34-2.94a11.7 11.7 0 0 1 3.76 1.53l.38.24.37.28c.12.09.25.18.36.28s.24.2.36.31l.34.3.34.36.32.32.31.39c.1.12.2.23.3.36l.3.42c.08.13.18.25.26.38s.19.31.28.46l.24.41c.09.15.17.32.25.48s.15.29.22.44.15.34.23.52.13.3.2.46.13.37.19.55l.18.49c.06.19.11.39.17.59l.15.51c.05.2.09.42.14.63l.12.52c.05.22.08.46.12.69l.09.52c0 .25.06.5.09.76s.05.33.06.5 0 .55.06.82 0 .33 0 .5v1.37q0 1-.06 2v.43c0 .66-.11 1.34-.2 2 0 .19-.05.38-.08.57s-.09.66-.15 1-.07.39-.1.59l-.18.91c0 .17-.07.35-.11.52-.17.78-.36 1.56-.58 2.35 0 .13-.07.26-.11.39-.19.67-.39 1.35-.62 2a1 1 0 0 1 0 .16c-.21.66-.45 1.31-.7 2-.06.16-.12.33-.19.49-.21.55-.43 1.09-.67 1.64 0 .09-.07.17-.11.26-.26.61-.54 1.21-.82 1.8-.08.16-.16.32-.23.48-.24.47-.47.94-.72 1.41l-.23.44c-.31.58-.64 1.17-1 1.75-.07.1-.13.21-.19.31-.3.51-.61 1-.92 1.5l-.27.43c-.39.6-.78 1.2-1.19 1.78l-.19.26c-.42.6-.86 1.19-1.3 1.77l-.19.24c-.56.72-1.13 1.42-1.72 2.1l-.24.28c-.36.41-.72.81-1.09 1.21l-.08.08q-.51.63-1.12 1.23" style="fill:#10b981"/><path d="M189.33 67.57a11.5 11.5 0 0 0-1.37-.66l-.18-.08q-.5-.19-1-.36l-.19-.06a13 13 0 0 0-1.57-.34c-.37-.06-.75-.11-1.13-.14h-.29a16 16 0 0 0-1.82 0h-.32l-.83.08-.54.07-.64.12-.51.1-.7.17-.45.11a26.4 26.4 0 0 0-4.82 1.89c-.53.27-1.07.56-1.61.87-.36.2-.71.42-1.06.64s-.81.52-1.21.79h-.07c-.63.43-1.26.88-1.87 1.36l-.36.28c-.66.51-1.31 1.05-1.94 1.61l-.07.06c-.61.54-1.21 1.11-1.8 1.69a2 2 0 0 0-.22.21c-.46.45-.9.91-1.35 1.38a57 57 0 0 0-3.32 3.9v.05q-1.61 2.09-3.05 4.32l-.26.4c-.35.56-.69 1.12-1 1.68l-.21.36a69 69 0 0 0-2.07 3.89l-.07.15a59 59 0 0 0-2.93 7.16 53 53 0 0 0-1.5 5.55v.17c-.07.33-.13.67-.2 1l-.12.69c-.07.45-.14.9-.2 1.36v.27c-.1.84-.18 1.68-.23 2.5v.15c0 .74-.07 1.48-.07 2.21v1.94c0 .32 0 .64.07 1l.06.52c0 .28.06.57.1.84s.07.39.1.58.08.49.13.73.09.38.13.57.1.45.16.67l.15.55c.05.18.12.43.19.64s.12.35.19.52.13.41.21.6.14.34.22.5.15.38.24.56l.24.48c.08.16.17.35.27.52s.18.3.26.45l.3.49.29.42.32.45c.1.13.21.25.32.38s.22.29.34.42l.34.36.37.38.36.32.39.35.38.28.42.32.4.25c4.65 3 11.21 2.68 18.48-1.52 14.05-8.11 25.39-27.76 25.35-43.89-.19-7.99-3.04-13.63-7.63-16.28m-9.94 51.85a3 3 0 0 1-.26.25c-.52.52-1.06 1-1.6 1.5h-.06q-.89.78-1.8 1.5l-.12.09c-.71.56-1.44 1.09-2.18 1.58l-.08.06c-.61.4-1.23.8-1.85 1.16s-1 .55-1.49.8l-.18.09c-.46.23-.92.44-1.37.63l-.38.16a24 24 0 0 1-2.56.89l-.66.16-.41.1-.52.1-.54.1c-.29 0-.57.08-.85.1l-.75.06h-1.92a9 9 0 0 1-1.05-.12h-.3c-.4-.07-.79-.16-1.17-.26l-.17-.06a10 10 0 0 1-1-.34l-.3-.12a11 11 0 0 1-1-.47l-.12-.06a11.4 11.4 0 0 1-2.92-2.38c-2.52-2.85-4-7.18-4-12.74 0-14.93 10.46-33.11 23.44-40.61 4.95-2.85 9.54-3.74 13.34-2.94a11.7 11.7 0 0 1 3.76 1.53l.38.24.37.28c.12.09.25.18.36.28s.24.2.36.31l.34.3.34.36.32.32.31.39c.1.12.2.23.3.36l.3.42c.08.13.18.25.26.38s.19.31.28.46l.24.41c.09.15.17.32.25.48s.15.29.22.44.15.34.23.52.13.3.2.46.13.37.19.55l.18.49c.06.19.11.39.17.59l.15.51c.05.2.09.42.14.63l.12.52c.05.22.08.46.12.69l.09.52c0 .25.06.5.09.76s.05.33.06.5 0 .55.06.82 0 .33 0 .5v1.37q0 1-.06 2v.43c0 .66-.11 1.34-.2 2 0 .19-.05.38-.08.57s-.09.66-.15 1-.07.39-.1.59l-.18.91c0 .17-.07.35-.11.52-.17.78-.36 1.56-.58 2.35 0 .13-.07.26-.11.39-.19.67-.39 1.35-.62 2a1 1 0 0 1 0 .16c-.21.66-.45 1.31-.7 2-.06.16-.12.33-.19.49-.21.55-.43 1.09-.67 1.64 0 .09-.07.17-.11.26-.26.61-.54 1.21-.82 1.8-.08.16-.16.32-.23.48-.24.47-.47.94-.72 1.41l-.23.44c-.31.58-.64 1.17-1 1.75-.07.1-.13.21-.19.31-.3.51-.61 1-.92 1.5l-.27.43c-.39.6-.78 1.2-1.19 1.78l-.19.26c-.42.6-.86 1.19-1.3 1.77l-.19.24c-.56.72-1.13 1.42-1.72 2.1l-.24.28c-.36.41-.72.81-1.09 1.21l-.08.08q-.51.63-1.12 1.23" style="opacity:.1"/><path d="M189.33 67.57a11.5 11.5 0 0 0-1.37-.66l-.18-.08q-.5-.19-1-.36l-.19-.06a13 13 0 0 0-1.57-.34c-.37-.06-.75-.11-1.13-.14h-.29a16 16 0 0 0-1.82 0h-.32l-.83.08-.54.07-.64.12-.51.1-.7.17-.45.11a26.4 26.4 0 0 0-4.82 1.89c-.53.27-1.07.56-1.61.87-.36.2-.71.42-1.06.64s-.81.52-1.21.79h-.07c-.63.43-1.26.88-1.87 1.36l-.36.28c-.66.51-1.31 1.05-1.94 1.61l-.07.06c-.61.54-1.21 1.11-1.8 1.69a2 2 0 0 0-.22.21c-.46.45-.9.91-1.35 1.38a57 57 0 0 0-3.32 3.9v.05q-1.61 2.09-3.05 4.32l-.26.4c-.35.56-.69 1.12-1 1.68l-.21.36a69 69 0 0 0-2.07 3.89l-.07.15a59 59 0 0 0-2.93 7.16 53 53 0 0 0-1.5 5.55v.17c-.07.33-.13.67-.2 1l-.12.69c-.07.45-.14.9-.2 1.36v.27c-.1.84-.18 1.68-.23 2.5v.15c0 .74-.07 1.48-.07 2.21v1.94c0 .32 0 .64.07 1l.06.52c0 .28.06.57.1.84s.07.39.1.58.08.49.13.73.09.38.13.57.1.45.16.67l.15.55c.05.18.12.43.19.64s.12.35.19.52.13.41.21.6.14.34.22.5.15.38.24.56l.24.48c.08.16.17.35.27.52s.18.3.26.45l.3.49.29.42.32.45c.1.13.21.25.32.38s.22.29.34.42l.34.36.37.38.36.32.39.35.38.28.42.32.4.25c4.65 3 11.21 2.68 18.48-1.52 14.05-8.11 25.39-27.76 25.35-43.89-.19-7.99-3.04-13.63-7.63-16.28m-9.94 51.85a3 3 0 0 1-.26.25c-.52.52-1.06 1-1.6 1.5h-.06q-.89.78-1.8 1.5l-.12.09c-.71.56-1.44 1.09-2.18 1.58l-.08.06c-.61.4-1.23.8-1.85 1.16s-1 .55-1.49.8l-.18.09c-.46.23-.92.44-1.37.63l-.38.16a24 24 0 0 1-2.56.89l-.66.16-.41.1-.52.1-.54.1c-.29 0-.57.08-.85.1l-.75.06h-1.92a9 9 0 0 1-1.05-.12h-.3c-.4-.07-.79-.16-1.17-.26l-.17-.06a10 10 0 0 1-1-.34l-.3-.12a11 11 0 0 1-1-.47l-.12-.06a11.4 11.4 0 0 1-2.92-2.38c-2.52-2.85-4-7.18-4-12.74 0-14.93 10.46-33.11 23.44-40.61 4.95-2.85 9.54-3.74 13.34-2.94a11.7 11.7 0 0 1 3.76 1.53l.38.24.37.28c.12.09.25.18.36.28s.24.2.36.31l.34.3.34.36.32.32.31.39c.1.12.2.23.3.36l.3.42c.08.13.18.25.26.38s.19.31.28.46l.24.41c.09.15.17.32.25.48s.15.29.22.44.15.34.23.52.13.3.2.46.13.37.19.55l.18.49c.06.19.11.39.17.59l.15.51c.05.2.09.42.14.63l.12.52c.05.22.08.46.12.69l.09.52c0 .25.06.5.09.76s.05.33.06.5 0 .55.06.82 0 .33 0 .5v1.37q0 1-.06 2v.43c0 .66-.11 1.34-.2 2 0 .19-.05.38-.08.57s-.09.66-.15 1-.07.39-.1.59l-.18.91c0 .17-.07.35-.11.52-.17.78-.36 1.56-.58 2.35 0 .13-.07.26-.11.39-.19.67-.39 1.35-.62 2a1 1 0 0 1 0 .16c-.21.66-.45 1.31-.7 2-.06.16-.12.33-.19.49-.21.55-.43 1.09-.67 1.64 0 .09-.07.17-.11.26-.26.61-.54 1.21-.82 1.8-.08.16-.16.32-.23.48-.24.47-.47.94-.72 1.41l-.23.44c-.31.58-.64 1.17-1 1.75-.07.1-.13.21-.19.31-.3.51-.61 1-.92 1.5l-.27.43c-.39.6-.78 1.2-1.19 1.78l-.19.26c-.42.6-.86 1.19-1.3 1.77l-.19.24c-.56.72-1.13 1.42-1.72 2.1l-.24.28c-.36.41-.72.81-1.09 1.21l-.08.08q-.51.63-1.12 1.23" style="fill:#fff;opacity:.4"/><path d="M263.83 286.68c.28 30.06.6 59 .6 59a1.09 1.09 0 0 0 .64.9 3.45 3.45 0 0 0 3.1 0 1.09 1.09 0 0 0 .63-.9s.32-28.93.6-59c-1.86.08-3.72.08-5.57 0M227.31 324a1.12 1.12 0 0 0 .65.9 3.43 3.43 0 0 0 3.09 0 1.09 1.09 0 0 0 .64-.9s1.39-20.67 3.39-45.24a34 34 0 0 1-5.24-4c-1.61 26.3-2.53 49.24-2.53 49.24m74.23 0a1.09 1.09 0 0 0 .63.9 3.45 3.45 0 0 0 3.1 0 1.12 1.12 0 0 0 .65-.9s-.92-22.86-2.53-49.09a32.8 32.8 0 0 1-5.24 4c2 24.47 3.39 45.09 3.39 45.09" style="fill:#10b981"/><path d="M263.83 286.68c.28 30.06.6 59 .6 59a1.09 1.09 0 0 0 .64.9 3.45 3.45 0 0 0 3.1 0 1.09 1.09 0 0 0 .63-.9s.32-28.93.6-59c-1.86.08-3.72.08-5.57 0M227.31 324a1.12 1.12 0 0 0 .65.9 3.43 3.43 0 0 0 3.09 0 1.09 1.09 0 0 0 .64-.9s1.39-20.67 3.39-45.24a34 34 0 0 1-5.24-4c-1.61 26.3-2.53 49.24-2.53 49.24m74.23 0a1.09 1.09 0 0 0 .63.9 3.45 3.45 0 0 0 3.1 0 1.12 1.12 0 0 0 .65-.9s-.92-22.86-2.53-49.09a32.8 32.8 0 0 1-5.24 4c2 24.47 3.39 45.09 3.39 45.09" style="opacity:.30000000000000004"/><path d="M309.77 256.89c0 6.4-4.14 12.79-12.54 17.67-16.8 9.77-44.12 9.77-61 0-8.46-4.89-12.71-11.28-12.74-17.68v4.86c0 4.52 2.16 9 6.38 13a34 34 0 0 0 5.24 4c.37.23.73.46 1.12.68 7.7 4.45 17.58 6.86 27.63 7.25 1.85.08 3.71.08 5.57 0 10.14-.36 20.1-2.78 27.83-7.27l.92-.57a32.8 32.8 0 0 0 5.24-4c4.28-4 6.41-8.58 6.38-13.15v-4.86Z" style="fill:#10b981"/><path d="M309.77 256.89c0 6.4-4.14 12.79-12.54 17.67-16.8 9.77-44.12 9.77-61 0-8.46-4.89-12.71-11.28-12.74-17.68v4.86c0 4.52 2.16 9 6.38 13a34 34 0 0 0 5.24 4c.37.23.73.46 1.12.68 7.7 4.45 17.58 6.86 27.63 7.25 1.85.08 3.71.08 5.57 0 10.14-.36 20.1-2.78 27.83-7.27l.92-.57a32.8 32.8 0 0 0 5.24-4c4.28-4 6.41-8.58 6.38-13.15v-4.86Z" style="opacity:.4"/><path d="M236.2 274.57c16.91 9.76 44.23 9.76 61 0 8.4-4.88 12.58-11.27 12.54-17.67s-4.28-12.8-12.74-17.68c-16.91-9.76-44.23-9.76-61 0-8.4 4.88-12.58 11.28-12.54 17.68s4.28 12.78 12.74 17.67" style="fill:#10b981"/><path d="M236.2 274.57c16.91 9.76 44.23 9.76 61 0 8.4-4.88 12.58-11.27 12.54-17.67s-4.28-12.8-12.74-17.68c-16.91-9.76-44.23-9.76-61 0-8.4 4.88-12.58 11.28-12.54 17.68s4.28 12.78 12.74 17.67" style="opacity:.2"/><path d="M263.83 286.68q0 3 .06 6c1.81.07 3.64.08 5.45 0q0-3 .06-6c-1.86.08-3.72.08-5.57 0m-33.99-11.91c-.11 1.92-.23 3.81-.34 5.69a32 32 0 0 0 5.12 4c.15-1.87.31-3.78.46-5.72a34 34 0 0 1-5.24-3.97m73.55.13a32.8 32.8 0 0 1-5.24 4q.24 2.91.47 5.73a32 32 0 0 0 5.11-4c-.11-1.92-.22-3.82-.34-5.73" style="opacity:.30000000000000004"/><path d="M280.22 223.39c-.66-.66-8.28 0-8.28 0s-7.62-.66-8.28 0c-2.81 2.8-8.55 15.29-8.55 23.68 0 2.49 1.67 5 5 6.89 6.59 3.81 17.25 3.81 23.8 0 3.27-1.9 4.9-4.4 4.89-6.89-.03-8.39-5.8-20.88-8.58-23.68" style="fill:#e6e6e6"/><path d="M284.68 237.58a4 4 0 0 1 .06.69c0 1.89-1.23 3.79-3.72 5.24-5 2.89-13.09 2.89-18.1 0-2.51-1.45-3.77-3.35-3.78-5.24a5 5 0 0 1 .05-.66 32.7 32.7 0 0 0-1.78 9.45c0 1.72 1.4 3.51 3.82 4.91a21.9 21.9 0 0 0 10.77 2.55 21.7 21.7 0 0 0 10.72-2.52c2.39-1.39 3.76-3.17 3.75-4.9a32.6 32.6 0 0 0-1.79-9.52" style="fill:#632828"/><path d="M262.92 243.51c5 2.89 13.12 2.89 18.1 0 2.49-1.45 3.73-3.35 3.72-5.24a4 4 0 0 0-.06-.69c-.28-1.66-1.51-3.28-3.72-4.56-5-2.89-13.12-2.89-18.1 0-2.2 1.28-3.42 2.92-3.67 4.59a5 5 0 0 0-.05.66c.01 1.89 1.27 3.79 3.78 5.24" style="fill:#804040"/><path d="M280.22 223.39c-.66-.66-8.28 0-8.28 0s-7.62-.66-8.28 0c-2.81 2.8-8.55 15.29-8.55 23.68 0 2.49 1.67 5 5 6.89 6.59 3.81 17.25 3.81 23.8 0 3.27-1.9 4.9-4.4 4.89-6.89-.03-8.39-5.8-20.88-8.58-23.68" style="fill:#fff;opacity:.30000000000000004"/><path d="M264.64 226.61a16.16 16.16 0 0 0 14.65 0c2-1.17 3-2.71 3-4.25s-1-3.07-3.05-4.24a16.16 16.16 0 0 0-14.65 0c-2 1.17-3 2.71-3 4.24s1.02 3.08 3.05 4.25" style="fill:#263238"/><path d="M281.37 223.34a4 4 0 0 0 .32-.47c2.83-4.13 4.1-8.15 4.1-11.37h-33.24c0 2.5 7.48 10.72 11.18 13a9 9 0 0 0 .9.6 16.16 16.16 0 0 0 14.65 0 7.3 7.3 0 0 0 2-1.65Z" style="fill:#e6e6e6"/><path d="M282.32 206.72c2.12 1.23 3.44 2.92 3.47 4.78 0 3.92-5.78 6.95-12.54 6.84a37 37 0 0 1-17.82-4.56c-.84-.49-1.68-1-2.49-1.61a.72.72 0 0 1 0-1.27c6.59-4.79 14.45-6.17 21.06-6.17a17 17 0 0 1 8.32 1.99" style="fill:#f0f0f0"/><path d="M280.89 207.73c1.81 1 2.95 2.48 3 4.07s-1 2.93-2.85 4a15.6 15.6 0 0 1-7.59 1.81h-.33a34 34 0 0 1-16.62-4.25c-.82-.47-1.62-1-2.39-1.54 6.56-4.82 14.33-5.82 19.69-5.82a14.35 14.35 0 0 1 7.09 1.73" style="fill:#e0e0e0"/><path d="M255.72 253.47c-6-3.44-15.58-3.44-21.5 0s-5.88 9 .07 12.46 15.58 3.43 21.5 0 5.89-9.02-.07-12.46" style="fill:#f0f0f0"/><path d="M255.72 252.51c-6-3.44-15.58-3.44-21.5 0s-5.88 9 .07 12.45 15.58 3.44 21.5 0 5.89-8.96-.07-12.45" style="fill:#fafafa"/><path d="M250 256.82a11 11 0 0 0-9.94 0c-2.74 1.59-2.73 4.17 0 5.76a11 11 0 0 0 9.95 0c2.73-1.58 2.71-4.17-.01-5.76" style="fill:#ebebeb"/><path d="M286.81 262.39c-6-3.44-15.58-3.44-21.5 0s-5.89 9 .07 12.46 15.58 3.43 21.5 0 5.88-9.02-.07-12.46" style="fill:#f0f0f0"/><path d="M286.81 261.43c-6-3.44-15.58-3.44-21.5 0s-5.89 9 .07 12.45 15.58 3.44 21.5 0 5.88-9.01-.07-12.45" style="fill:#fafafa"/><path d="M281.05 265.74a11 11 0 0 0-9.95 0c-2.73 1.59-2.72 4.17 0 5.76a11 11 0 0 0 9.95 0c2.77-1.59 2.76-4.17 0-5.76" style="fill:#ebebeb"/><path d="M348.68 282.84c-8.91 6.19-18.95 10.47-26.39 18.76-13.9 15.5-14.22 40.43-3.31 58.15s31.22 28.37 51.89 30.8c21.69 2.56 44.45-3.43 61.46-17.12s27.84-35.07 27.83-56.91S449 272.94 430.68 261c-16.68-10.88-40.68-14-57.41-1.53-8.47 6.3-14.11 15.59-22.55 21.9-.72.51-1.36.99-2.04 1.47" style="fill:#10b981"/><path d="M348.68 282.84c-8.91 6.19-18.95 10.47-26.39 18.76-13.9 15.5-14.22 40.43-3.31 58.15s31.22 28.37 51.89 30.8c21.69 2.56 44.45-3.43 61.46-17.12s27.84-35.07 27.83-56.91S449 272.94 430.68 261c-16.68-10.88-40.68-14-57.41-1.53-8.47 6.3-14.11 15.59-22.55 21.9-.72.51-1.36.99-2.04 1.47" style="fill:#fff;opacity:.2"/><path d="M448.52 313.52a63.73 63.73 0 0 0-54.37-61.88 47 47 0 0 0-6.15 1 62.16 62.16 0 0 1 58.84 60.88c.4 20.33-9.54 41-26.59 55.42-13.37 11.26-31.12 18.73-50.63 21.42.42.06.83.12 1.25.16 1.75.21 3.52.36 5.28.45 17.33-3.36 33-10.51 45.18-20.75 17.43-14.67 27.6-35.87 27.19-56.7" style="fill:#fff"/><path d="m352.31 373.62.06-.44a23.43 23.43 0 0 1 19-19.54 74.2 74.2 0 0 0 24.34-9.32c5.32-3.22 10.35-7.16 16.32-8.91a26.6 26.6 0 0 1 17.58 1c-5-5.26-13.61-7.58-20.48-5.2 4.75-7.28 8.94-15.12 10.58-23.66s.47-17.91-4.68-24.92a25.08 25.08 0 0 0-38.7-2.07c-5.1 5.58-8 13.43-11.33 20.21-2.4 4.86-4.89 9.84-8.86 13.55-6 5.6-14.58 7.62-20.79 13-7 6.07-10.06 15.78-10.09 25.07a73.4 73.4 0 0 0 2.74 18.52 70.25 70.25 0 0 0 25.44 15.55 27.5 27.5 0 0 1-1.13-12.84" style="opacity:.2"/><path d="M329.59 366.83a62 62 0 0 1 1.09 10.17l2.41-.91a6.21 6.21 0 0 1 6.68 1.53l.12.12a2.42 2.42 0 0 0 3.34.15 2.4 2.4 0 0 0 .83-1.75l.32-10.24Z" style="fill:#ffa8a7"/><path d="M338.88 404.89c-5 5.34-14.18 10-20.86 5.45l.75 1.7c6.67 4.56 15.87-.11 20.86-5.45s1.75-9 6.25-13.78a16.3 16.3 0 0 0 3.88-5.77c-.2-.51-.39-1.18-.63-1.94a20.4 20.4 0 0 1-4 6c-4.5 4.75-1.26 8.45-6.25 13.79" style="fill:#37474f"/><path d="M346.67 379.52a9.9 9.9 0 0 1-1.57-3.64 2.09 2.09 0 0 0-1-1.48l-.06 1.71a2.42 2.42 0 0 1-4.17 1.6l-.12-.12a6.21 6.21 0 0 0-6.68-1.53l-2.45.93a1.88 1.88 0 0 0-1.22 1.8c.16 7-3.11 16.3-6.54 21.41-3.53 1.46-6.57 6.27-5 9.79l.16.35c6.68 4.56 15.87-.11 20.86-5.45s1.75-9 6.25-13.78a20.4 20.4 0 0 0 4-6 21.8 21.8 0 0 0-2.46-5.59" style="fill:#455a64"/><path d="M336.91 389.63a.85.85 0 0 0 1.13-.38.84.84 0 0 0-.35-1.13 9.73 9.73 0 0 0-9.59 0c-.15.55-.31 1.1-.47 1.65a9.39 9.39 0 0 1 9.28-.14m1.23-3.78a.85.85 0 0 0 .78-1.52 10.26 10.26 0 0 0-10 .08c-.1.57-.22 1.14-.34 1.72 2.93-1.54 5.86-2.13 9.56-.28m-2.58 7.55a.85.85 0 0 0 .78-1.52 9.71 9.71 0 0 0-9.38-.09c-.22.59-.44 1.18-.67 1.75a9.4 9.4 0 0 1 9.27-.14m-12.68 6.8c-3.53 1.46-6.57 6.27-5 9.79l.16.35c6.58 4.49 15.59 0 20.63-5.22-4.23-8.24-13.01-6.18-15.79-4.92m11.2-3.12a.85.85 0 0 0 1.13-.38.86.86 0 0 0-.34-1.14 9.76 9.76 0 0 0-9.41-.08c-.3.65-.6 1.28-.92 1.88 2.91-1.54 5.85-2.15 9.54-.28" style="fill:#fff"/><path d="M319.1 387.19a62 62 0 0 1-3.1 9.72l2.57.14a6.23 6.23 0 0 1 5.5 4.09l.06.16a2.43 2.43 0 0 0 3 1.49 2.42 2.42 0 0 0 1.46-1.27l4.43-9.24Z" style="fill:#ffa8a7"/><path d="M312.24 425.76c-6.73 2.87-17 3.43-21.29-3.43v1.85c4.27 6.87 14.56 6.31 21.29 3.44s5.25-7.57 11.27-10.09a16.3 16.3 0 0 0 5.88-3.71c0-.55.12-1.23.21-2a20.2 20.2 0 0 1-6.09 3.88c-6.02 2.5-4.51 7.19-11.27 10.06" style="fill:#37474f"/><path d="M329.6 405.7a9.7 9.7 0 0 1 0-4 2.16 2.16 0 0 0-.31-1.76l-.74 1.55a2.42 2.42 0 0 1-4.46-.22l-.06-.16a6.23 6.23 0 0 0-5.5-4.09l-2.53-.12a1.88 1.88 0 0 0-1.84 1.16c-2.68 6.47-9.43 13.66-14.63 16.95-3.82-.09-8.54 3.08-8.54 6.93v.39c4.27 6.86 14.56 6.3 21.29 3.43s5.25-7.56 11.27-10.09a20.2 20.2 0 0 0 6.09-3.88 21.6 21.6 0 0 0-.04-6.09" style="fill:#455a64"/><path d="M316.59 411a.84.84 0 0 0 1.19.11.86.86 0 0 0 .14-1.18 9.75 9.75 0 0 0-8.78-3.85c-.36.44-.73.88-1.1 1.31a9.42 9.42 0 0 1 8.55 3.61m2.65-3a.85.85 0 0 0 1.19.1.84.84 0 0 0 .14-1.17 10.23 10.23 0 0 0-9.16-4c-.32.48-.66 1-1 1.43 3.27-.15 6.2.48 8.83 3.64m-5.41 5.91a.85.85 0 0 0 1.19.1.83.83 0 0 0 .14-1.17 9.74 9.74 0 0 0-8.55-3.88c-.43.46-.87.9-1.31 1.33a9.39 9.39 0 0 1 8.53 3.62M299.49 415c-3.82-.09-8.54 3.08-8.54 6.93v.39c4.2 6.76 14.25 6.31 21 3.55-.54-9.23-9.41-10.87-12.46-10.87m11.51 1.68a.85.85 0 0 0 1.33-1.07 9.76 9.76 0 0 0-8.58-3.88c-.53.48-1.07.93-1.6 1.35 3.29-.23 6.22.4 8.85 3.6" style="fill:#fff"/><path d="m358.6 299.74-33.66 18.75a16.69 16.69 0 0 0-8.28 17.61l6.54 35.17-5.36 17c4.62 6.2 15.23 6.52 15.23 6.52 5.92-11.87 10.26-16.92 13.62-26.86s5.6-16.81 5.6-16.81l27.95-7.64a33.12 33.12 0 0 0 24.22-28.18c.48-4.22.5-7.11.5-7.11Z" style="fill:#37474f"/><path d="M358.85 309.19a15.88 15.88 0 0 0 3.77 10.26l-23.75 14.86a17 17 0 0 0-7.27 9.48l-8.4 27.48 7.58-30.61a13.8 13.8 0 0 1 6.22-8.46l21.93-13.56c-2.29-5.64-.08-9.45-.08-9.45" style="opacity:.2"/><path d="m333.46 263.36-4.71 4.57c-4.83-6.17-11.33-10.35-17-19-1.63-2.07-1.46-6.2-2.57-8.31-.87-1.65-2.39-4.13-3-5.52a.92.92 0 0 0-1.35-.41c-1.61 1.17-.76 4 .09 6.92 1 3.46-4.22-1.22-4.92-2-3.3-3.08-6.14-10.62-8.4-9.87s-.46 4.51-.46 4.51c-2.08.44-1.29 3.75-1.29 3.75-1.23 2.16-.88 5.5 1.64 8.6 1.83 2.25 6.77 5.34 9.34 6.86a8.2 8.2 0 0 1 2.68 2.53l16.17 24a9.8 9.8 0 0 0 14 2.38l8.78-6.57Z" style="fill:#ffa8a7"/><path d="M360.82 242.16c-8.95-.4-21.1 14.13-27.95 21 .53 8.37 9.54 13.87 9.54 13.87a195 195 0 0 0 18.41-14.4Z" style="fill:#e0e0e0"/><path d="M360.82 242.16c-8.95-.4-21.1 14.13-27.95 21 .53 8.37 9.54 13.87 9.54 13.87a195 195 0 0 0 18.41-14.4Z" style="opacity:.1"/><path d="M316.68 299.38a8.31 8.31 0 0 1-7.58 0 13.5 13.5 0 0 1-1.54-.85 2.84 2.84 0 0 0 1.54 2 8.37 8.37 0 0 0 7.58 0 2.74 2.74 0 0 0 1.52-2 12 12 0 0 1-1.45.82Z" style="fill:#263238"/><path d="M325 286.3c0 1.79-1.16 3.58-3.51 4.95-4.7 2.73-12.35 2.73-17.08 0-2.36-1.37-3.55-3.16-3.56-4.95a15.29 15.29 0 0 0 6.75 12.23 13.5 13.5 0 0 0 1.54.85 8.31 8.31 0 0 0 7.58 0h.07a12 12 0 0 0 1.45-.82A15.28 15.28 0 0 0 325 286.3" style="fill:#455a64"/><path d="M304.37 291.25c4.73 2.73 12.38 2.73 17.08 0 2.35-1.37 3.52-3.16 3.51-4.95s-1.2-3.58-3.57-4.94c-4.73-2.73-12.38-2.73-17.07 0-2.35 1.36-3.52 3.15-3.51 4.94s1.19 3.58 3.56 4.95m.48-9a16.14 16.14 0 0 1 8-1.91 16.3 16.3 0 0 1 8 1.91c2 1.13 3 2.57 3 4.05a4.33 4.33 0 0 1-1.92 3.29 8.6 8.6 0 0 1-1.06.73 17.75 17.75 0 0 1-16 0 10 10 0 0 1-1.12-.76 4.37 4.37 0 0 1-1.92-3.29c.03-1.45 1.09-2.88 3.02-4Z" style="fill:#455a64"/><path d="M303.78 289.58a5 5 0 0 1 2.35-2.45 14.87 14.87 0 0 1 13.46 0 5.08 5.08 0 0 1 2.39 2.48 4.33 4.33 0 0 0 1.92-3.29c0-1.48-1.08-2.92-3-4.05a16.3 16.3 0 0 0-8-1.91 16.14 16.14 0 0 0-8 1.91c-1.93 1.12-3 2.55-3 4a4.37 4.37 0 0 0 1.88 3.31" style="fill:#263238"/><path d="M316.68 299.38a8.31 8.31 0 0 1-7.58 0 13.5 13.5 0 0 1-1.54-.85 2.84 2.84 0 0 0 1.54 2 8.37 8.37 0 0 0 7.58 0 2.74 2.74 0 0 0 1.52-2 12 12 0 0 1-1.45.82Z" style="fill:#fff;opacity:.6000000000000001"/><path d="M325 286.3c0 1.79-1.16 3.58-3.51 4.95-4.7 2.73-12.35 2.73-17.08 0-2.36-1.37-3.55-3.16-3.56-4.95a15.29 15.29 0 0 0 6.75 12.23 13.5 13.5 0 0 0 1.54.85 8.31 8.31 0 0 0 7.58 0h.07a12 12 0 0 0 1.45-.82A15.28 15.28 0 0 0 325 286.3" style="fill:#fff;opacity:.7000000000000001"/><path d="M304.37 291.25c4.73 2.73 12.38 2.73 17.08 0 2.35-1.37 3.52-3.16 3.51-4.95s-1.2-3.58-3.57-4.94c-4.73-2.73-12.38-2.73-17.07 0-2.35 1.36-3.52 3.15-3.51 4.94s1.19 3.58 3.56 4.95m.48-9a16.14 16.14 0 0 1 8-1.91 16.3 16.3 0 0 1 8 1.91c2 1.13 3 2.57 3 4.05a4.33 4.33 0 0 1-1.92 3.29 8.6 8.6 0 0 1-1.06.73 17.75 17.75 0 0 1-16 0 10 10 0 0 1-1.12-.76 4.37 4.37 0 0 1-1.92-3.29c.03-1.45 1.09-2.88 3.02-4Z" style="fill:#fff;opacity:.8"/><path d="M303.78 289.58a5 5 0 0 1 2.35-2.45 14.87 14.87 0 0 1 13.46 0 5.08 5.08 0 0 1 2.39 2.48 4.33 4.33 0 0 0 1.92-3.29c0-1.48-1.08-2.92-3-4.05a16.3 16.3 0 0 0-8-1.91 16.14 16.14 0 0 0-8 1.91c-1.93 1.12-3 2.55-3 4a4.37 4.37 0 0 0 1.88 3.31" style="fill:#fff;opacity:.6000000000000001"/><path d="M319.59 287.13a14.87 14.87 0 0 0-13.46 0 5 5 0 0 0-2.35 2.45 10 10 0 0 0 1.12.76 17.75 17.75 0 0 0 16 0 8.6 8.6 0 0 0 1.06-.73 5.08 5.08 0 0 0-2.37-2.48" style="fill:#632828"/><path d="M405.5 310.84c-6 5.73-34.65 6.79-49.28-7.14 1.41-9.83.94-20.37 0-30.79s-7-28.63 4.6-30.75c15.53-3 25.68-2.8 36.05 3.05 11.13 18.46 9.56 46.08 8.63 65.63" style="fill:#e0e0e0"/><path d="M389.45 218.7a4.22 4.22 0 0 0-2.07-2.17 3 3 0 0 0-.62-.23 3.89 3.89 0 0 0-3.46 1.15 6.7 6.7 0 0 0-1.68 3.35 25 25 0 0 0-.42 3.77 45 45 0 0 1-1 6.65 8.47 8.47 0 0 1-4.31 5.62l-.14.08a26.1 26.1 0 0 1-10 2.67v3.81c-2.77 3.78-3.54 11 3.76 8.83s12.06-7 12.06-11.79c.05-2 .1-4.6.15-6.92l.13-5.73a4.1 4.1 0 0 0 2.67 1.4 3.6 3.6 0 0 0 1.4-.08 5.26 5.26 0 0 0 3.12-2.66 9.8 9.8 0 0 0 1-4.06 8.24 8.24 0 0 0-.59-3.69" style="fill:#ffa8a7"/><path d="M387.08 205.51a9 9 0 0 0-5.74-3l-30 2.79c-3.45 7.33-.69 12.18-.69 12.18-.47 11.18-.86 18.29 4.06 20.64 2.68 1.28 6.76 1.83 11 1.52a26.1 26.1 0 0 0 10-2.67l.16-.09a8.47 8.47 0 0 0 4.3-5.64 46 46 0 0 0 1-6.62 25 25 0 0 1 .42-3.77 6.7 6.7 0 0 1 1.68-3.35 3.89 3.89 0 0 1 3.46-1.15 3 3 0 0 1 .62.23c.88-5.02 1.13-9.32-.27-11.07" style="fill:#37474f"/><path d="M376.09 206.37a10.4 10.4 0 0 0 .4 6.28 45.5 45.5 0 0 1 1.91 6.11 10 10 0 0 1-.83 6.16 7.24 7.24 0 0 1-4.78 3.81c-3.22.69-6.37-1.19-9.61-1.82a13.45 13.45 0 0 0-9 1.6 1.57 1.57 0 0 1-2.36-1.25c-.38-6.44-.37-16.52.58-21.26Z" style="fill:#ffa8a7"/><path d="m352.88 200.54-3.73-2.54a7.91 7.91 0 0 0 1.42 7.34 11.85 11.85 0 0 0 6.58 3.87 25 25 0 0 0 7.73.35 56.4 56.4 0 0 0 11.16-2 8.9 8.9 0 0 0 4.39-2.3 5.8 5.8 0 0 0 .23-6.83 8.67 8.67 0 0 0-6.17-3.57 23.6 23.6 0 0 0-7.42.58 22.5 22.5 0 0 1-7.43.53 7.72 7.72 0 0 1-6-4c-2.09 3.36-.76 8.57-.76 8.57" style="fill:#37474f"/><path d="m362.29 217.78-5.47 6.62 5.02 1.78zm4.14 11.69-4.22 1.3a2.6 2.6 0 0 0 2.84 1.31 2.34 2.34 0 0 0 1.38-2.61" style="fill:#f28f8f"/><path d="m366.43 229.47-4.22 1.3a2.6 2.6 0 0 0 2.84 1.31 2.34 2.34 0 0 0 1.38-2.61" style="opacity:.30000000000000004"/><path d="M363.67 232a2.43 2.43 0 0 0 1.38.08 2.14 2.14 0 0 0 1.38-1.91 2.53 2.53 0 0 0-1.64.3 2.5 2.5 0 0 0-1.12 1.53" style="fill:#f28f8f"/><path d="M369.73 219.23a1.5 1.5 0 1 1-1.42-1.58 1.49 1.49 0 0 1 1.42 1.58m-12.57-1.16a1.5 1.5 0 1 1-1.42-1.58 1.51 1.51 0 0 1 1.42 1.58M356 212l-3.45 2.12a2.12 2.12 0 0 1 .78-2.32 2.52 2.52 0 0 1 2.67.2m12.88.53 3.2 2.48a2.15 2.15 0 0 0-.52-2.39 2.53 2.53 0 0 0-2.68-.09" style="fill:#263238"/><path d="M377.73 236.72a9.6 9.6 0 0 0 1.75-3.64 8.4 8.4 0 0 1-3.63 3.76l-.14.08a26.1 26.1 0 0 1-10 2.67v2.57a25 25 0 0 0 5.94-1.25 13.4 13.4 0 0 0 6.08-4.19" style="opacity:.2"/><path d="M341.72 307.25c2.74 0 25.64-.51 36.16-.74a8.48 8.48 0 0 0 7.48-4.89l8-17.24-16.54-7.38-6.09 15.1c-9.59-.59-21.65 3.74-28.67 3.16-3.9-.25-3.37-3.76-7.67-4.81s-5.45.17-7.55-.36-2.44 2.84 1.51 3.56c-3.09.2-2.57-2.11-4.34-2.37a3.17 3.17 0 0 0-3.14 1.5 2.77 2.77 0 0 0 .71 3.17 3 3 0 0 0-1.7 2.78 2.78 2.78 0 0 0 1.69 2.61 2.76 2.76 0 0 0-.46 2.76 2.72 2.72 0 0 0 2.24 1.64 3.55 3.55 0 0 0 2.42 2.93 9.6 9.6 0 0 0 3.85 0c3.95-.44 8.16-.93 12.1-1.42" style="fill:#ffa8a7"/><path d="M390.81 242.42c-7.08 7.2-15.63 36-15.63 36 4.8 7.84 18.38 8.07 18.38 8.07 14.04-33.59 12.88-40.73-2.75-44.07" style="fill:#e0e0e0"/><path d="M390.81 242.42c-7.08 7.2-15.63 36-15.63 36 4.8 7.84 18.38 8.07 18.38 8.07 14.04-33.59 12.88-40.73-2.75-44.07" style="opacity:.1"/><path d="M324.23 291.39a2 2 0 0 0-1.34 0 6.1 6.1 0 0 1 1.41-1.7 2 2 0 0 1 3.37 1.6 6.6 6.6 0 0 1-.48 2.35A1.8 1.8 0 0 1 326 293a5.8 5.8 0 0 0 .19-1.3 1.6 1.6 0 0 0 0-.58.8.8 0 0 0-.32-.47.83.83 0 0 0-.89.08 2.7 2.7 0 0 0-.75.66" style="fill:#263238"/><path d="M324.23 291.39a2 2 0 0 0-1.34 0 6.1 6.1 0 0 1 1.41-1.7 2 2 0 0 1 3.37 1.6 6.6 6.6 0 0 1-.48 2.35A1.8 1.8 0 0 1 326 293a5.8 5.8 0 0 0 .19-1.3 1.6 1.6 0 0 0 0-.58.8.8 0 0 0-.32-.47.83.83 0 0 0-.89.08 2.7 2.7 0 0 0-.75.66" style="fill:#fff;opacity:.5"/><path d="M164.89 282.89c8.91 6.19 18.94 10.47 26.39 18.76 13.89 15.5 14.22 40.43 3.3 58.15s-31.21 28.37-51.88 30.8c-21.69 2.56-44.45-3.43-61.46-17.12S53.4 338.4 53.4 316.57 64.6 273 82.89 261.05c16.69-10.88 40.66-14 57.41-1.53 8.46 6.3 14.11 15.59 22.55 21.9q1.01.75 2.04 1.47" style="fill:#10b981"/><path d="M164.89 282.89c8.91 6.19 18.94 10.47 26.39 18.76 13.89 15.5 14.22 40.43 3.3 58.15s-31.21 28.37-51.88 30.8c-21.69 2.56-44.45-3.43-61.46-17.12S53.4 338.4 53.4 316.57 64.6 273 82.89 261.05c16.69-10.88 40.66-14 57.41-1.53 8.46 6.3 14.11 15.59 22.55 21.9q1.01.75 2.04 1.47" style="fill:#fff;opacity:.2"/><path d="M65.05 313.57a63.71 63.71 0 0 1 54.37-61.88 45.5 45.5 0 0 1 6.14 1 62.14 62.14 0 0 0-58.83 60.91c-.4 20.33 9.54 41 26.59 55.42 13.36 11.26 31.11 18.73 50.62 21.42l-1.24.16c-1.76.21-3.52.35-5.28.45-17.34-3.36-33-10.51-45.18-20.75-17.44-14.7-27.6-35.91-27.19-56.73" style="fill:#fff"/><path d="m161.26 373.67-.06-.44a23.45 23.45 0 0 0-19-19.54 74.4 74.4 0 0 1-24.34-9.33c-5.32-3.21-10.34-7.16-16.31-8.9a26.6 26.6 0 0 0-17.58 1c5-5.26 13.61-7.58 20.48-5.2-4.76-7.28-8.94-15.12-10.58-23.66s-.47-17.91 4.68-24.92a25.06 25.06 0 0 1 38.7-2.07c5.1 5.58 8 13.43 11.32 20.21 2.41 4.86 4.9 9.84 8.86 13.55 6 5.6 14.59 7.62 20.79 13 7 6.07 10.07 15.77 10.1 25.06a74 74 0 0 1-2.73 18.57 70.3 70.3 0 0 1-25.44 15.55 27.5 27.5 0 0 0 1.11-12.88" style="opacity:.2"/><path d="M194.47 387.24a62 62 0 0 0 3.1 9.71l-2.57.15a6.19 6.19 0 0 0-5.5 4.09l-.06.16a2.43 2.43 0 0 1-3 1.49 2.42 2.42 0 0 1-1.46-1.27l-4.43-9.24Z" style="fill:#955"/><path d="M201.33 425.81c6.72 2.87 17 3.43 21.29-3.44v1.86c-4.27 6.87-14.57 6.31-21.29 3.43s-5.25-7.56-11.27-10.08a16.3 16.3 0 0 1-5.89-3.71c0-.55-.11-1.24-.21-2a20.5 20.5 0 0 0 6.1 3.88c6.02 2.49 4.55 7.18 11.27 10.06" style="fill:#37474f"/><path d="M184 405.74a9.7 9.7 0 0 0 0-4 2.12 2.12 0 0 1 .3-1.76l.75 1.55a2.42 2.42 0 0 0 4.46-.22l.06-.16a6.19 6.19 0 0 1 5.5-4.09l2.61-.15a1.88 1.88 0 0 1 1.84 1.16c2.68 6.47 9.43 13.66 14.63 16.95 3.81-.09 8.54 3.08 8.54 6.93v.38c-4.27 6.87-14.57 6.31-21.29 3.44s-5.25-7.57-11.27-10.09a20.5 20.5 0 0 1-6.1-3.88 22.4 22.4 0 0 1-.03-6.06" style="fill:#455a64"/><path d="M197 411.05a.85.85 0 0 1-1.19.11.84.84 0 0 1-.14-1.18 9.73 9.73 0 0 1 8.78-3.85c.36.44.73.88 1.1 1.31a9.41 9.41 0 0 0-8.55 3.61m-2.67-2.97A.85.85 0 0 1 193 407a10.24 10.24 0 0 1 9.16-3.95c.32.48.66 1 1 1.43-3.28-.22-6.16.4-8.83 3.6m5.4 5.92a.84.84 0 0 1-1.19.11.86.86 0 0 1-.14-1.18A9.74 9.74 0 0 1 207 409c.44.46.88.9 1.32 1.33a9.4 9.4 0 0 0-8.59 3.67m14.35 1.06c3.81-.09 8.54 3.08 8.54 6.93v.38c-4.21 6.77-14.26 6.32-21 3.56.54-9.24 9.38-10.93 12.46-10.87m-11.51 1.66a.84.84 0 0 1-1.19.11.85.85 0 0 1-.14-1.18 9.74 9.74 0 0 1 8.57-3.87c.54.48 1.07.93 1.6 1.35-3.28-.23-6.21.39-8.84 3.59" style="fill:#fff"/><path d="M215.5 373.14a62 62 0 0 0 3.1 9.72l-2.6.14a6.2 6.2 0 0 0-5.51 4.09l-.05.16a2.43 2.43 0 0 1-3 1.49 2.4 2.4 0 0 1-1.47-1.27l-4.42-9.24Z" style="fill:#955"/><path d="M222.37 411.71c6.72 2.87 17 3.43 21.29-3.43v1.85c-4.27 6.87-14.57 6.31-21.29 3.43s-5.26-7.56-11.28-10.08a16.3 16.3 0 0 1-5.88-3.71c0-.55-.12-1.24-.21-2a20.6 20.6 0 0 0 6.09 3.88c6.02 2.49 4.55 7.19 11.28 10.06" style="fill:#37474f"/><path d="M205 391.64a9.5 9.5 0 0 0 0-4 2.16 2.16 0 0 1 .31-1.76l.74 1.55a2.4 2.4 0 0 0 1.47 1.27 2.43 2.43 0 0 0 3-1.49l.05-.16A6.2 6.2 0 0 1 216 383l2.6-.15a1.88 1.88 0 0 1 1.84 1.16c2.69 6.47 9.43 13.66 14.63 16.95 3.82-.09 8.55 3.08 8.55 6.93v.39c-4.27 6.86-14.57 6.3-21.29 3.43s-5.26-7.57-11.28-10.09a20.6 20.6 0 0 1-6.09-3.88 22 22 0 0 1 .04-6.1" style="fill:#455a64"/><path d="M218 397a.86.86 0 0 1-1.2.11.85.85 0 0 1-.13-1.18 9.73 9.73 0 0 1 8.78-3.85c.36.44.72.88 1.1 1.31A9.4 9.4 0 0 0 218 397m-2.64-3a.85.85 0 0 1-1.33-1.06 10.25 10.25 0 0 1 9.17-4c.32.48.66 1 1 1.43-3.28-.21-6.2.42-8.84 3.63m5.41 5.85a.85.85 0 0 1-1.33-1.06 9.74 9.74 0 0 1 8.55-3.88c.43.46.87.9 1.32 1.33a9.41 9.41 0 0 0-8.54 3.61m14.34 1.15c3.82-.09 8.55 3.08 8.55 6.93v.39c-4.21 6.76-14.26 6.31-21 3.55.53-9.28 9.4-10.95 12.45-10.87m-11.5 1.62a.84.84 0 0 1-1.19.11.83.83 0 0 1-.14-1.17 9.72 9.72 0 0 1 8.57-3.88c.53.48 1.07.93 1.6 1.35-3.29-.23-6.22.4-8.84 3.59" style="fill:#fff"/><path d="M216.15 374.89c-4.62 6.2-15.23 6.51-15.23 6.51-5.92-11.87-10.26-16.91-13.62-26.85s-5.6-16.81-5.6-16.81l-45.1-12.33c-7.43-11.9-5.27-21.31-5.27-21.31l26-.36L193.64 318a21 21 0 0 1 12.82 14.87Z" style="fill:#10b981"/><path d="M216.15 374.89c-4.62 6.2-15.23 6.51-15.23 6.51-5.92-11.87-10.26-16.91-13.62-26.85s-5.6-16.81-5.6-16.81l-45.1-12.33c-7.43-11.9-5.27-21.31-5.27-21.31l26-.36L193.64 318a21 21 0 0 1 12.82 14.87Z" style="opacity:.30000000000000004"/><path d="m179.25 327.85-20.9-13a11.7 11.7 0 0 1 2.37-5.19 12.4 12.4 0 0 0-6.08 5.79l-3.39 13.95 30.45 8.32s2.24 6.86 5.6 16.81a78 78 0 0 0 7.07 14.83c-1.25-6.79-2.85-15.84-4.44-25.51a23.3 23.3 0 0 0-10.68-16" style="opacity:.30000000000000004"/><path d="M195.73 388.34c-4.62 6.2-15.23 6.51-15.23 6.51-5.92-11.85-10.26-16.91-13.63-26.85s-5.6-16.81-5.6-16.81l-28-7.64a33.19 33.19 0 0 1-24.23-28.33c-.46-4.14-.48-7-.48-7l28.2-5.16 40 27.79a21 21 0 0 1 8.52 12.57Z" style="fill:#10b981"/><path d="M195.73 388.34c-4.62 6.2-15.23 6.51-15.23 6.51-5.92-11.85-10.26-16.91-13.63-26.85s-5.6-16.81-5.6-16.81l-28-7.64a33.19 33.19 0 0 1-24.23-28.33c-.46-4.14-.48-7-.48-7l28.2-5.16 40 27.79a21 21 0 0 1 8.52 12.57Z" style="opacity:.30000000000000004"/><path d="M164.23 267.42 176 277l7.79-12.64-9.8-11c-8.58 3.79-9.76 14.06-9.76 14.06" style="fill:#823c3c"/><path d="M144.27 233.89c9.28-1 12.77 1.9 18.79 7.58s12.1 12.07 12.1 12.07c-9.28 4.54-10.31 15.58-10.31 15.58-5.06-3.92-9.34-7-9.34-7Z" style="fill:#10b981"/><path d="M144.27 233.89c9.28-1 12.77 1.9 18.79 7.58s12.1 12.07 12.1 12.07c-9.28 4.54-10.31 15.58-10.31 15.58-5.06-3.92-9.34-7-9.34-7Z" style="fill:#fff;opacity:.5"/><path d="M111.16 241.56c13.21-6.19 23.11-6.91 33.91-7.38 16.16 10.41 10.11 19.07 9.84 33s-3.31 22.28 6.32 36.73c-21.18 16.92-47.94 11.57-54.33 7.5-4.13-38.48-2.9-66.88 4.26-69.85" style="fill:#10b981"/><path d="M111.16 241.56c13.21-6.19 23.11-6.91 33.91-7.38 16.16 10.41 10.11 19.07 9.84 33s-3.31 22.28 6.32 36.73c-21.18 16.92-47.94 11.57-54.33 7.5-4.13-38.48-2.9-66.88 4.26-69.85" style="fill:#fff;opacity:.7000000000000001"/><path d="m163 248.6 11.84 27.9a8.2 8.2 0 0 0 10.5 4.45 8.21 8.21 0 0 0 3.47-12.8l-19.9-24.85a9 9 0 0 0-2.14-1.94l-8-5.17a4.2 4.2 0 0 0-2.87-.64l-5.38.74-.26 14.79 3.42.43a5.6 5.6 0 0 0 2.72-.33ZM123.44 276l3 16.46 21.64 5.5a6.4 6.4 0 0 0 4.58-.53 21 21 0 0 1 4.84-2c1.34-.31 2.71-.48 4.05-.78a12 12 0 0 0 2.74-.93 1.17 1.17 0 0 1 1.71 1 2.5 2.5 0 0 1-.19.94 4.64 4.64 0 0 1-1.82 2 11.3 11.3 0 0 1-3.94 1.65 11 11 0 0 0 6.16.67c2-.26 4-.8 6-1a3.7 3.7 0 0 1 2.21.26 1.46 1.46 0 0 1 .66 1.91c-.52.82-1.86.63-2.51 1.34a3.7 3.7 0 0 1 .66 1.42 2.23 2.23 0 0 1-.31 1.56 1.58 1.58 0 0 1-1.38.72 5.64 5.64 0 0 1-2.2 3.78 11.2 11.2 0 0 1-4 1.88c-6 1.62-11.77-1.49-17.79-3-.82-.2-20.09-1.36-29.94-1.94a7.4 7.4 0 0 1-6.82-5.94l-4.31-21.67Z" style="fill:#955"/><path d="M116.84 296.67c1.3-1.58 6.31-4.78 9.63-4.24l-.31-1.69a9.71 9.71 0 0 0-9.32 5.93" style="fill:#823c3c"/><path d="M111.16 241.56c-15.82 5.92-12.22 20-6.39 42.25 9.42 2.6 20.56-5.59 20.56-5.59-3.1-17.61-4.27-36.93-14.17-36.66" style="fill:#10b981"/><path d="M111.16 241.56c-15.82 5.92-12.22 20-6.39 42.25 9.42 2.6 20.56-5.59 20.56-5.59-3.1-17.61-4.27-36.93-14.17-36.66" style="fill:#fff;opacity:.5"/><path d="M115.25 216.08c-1.59-5.34-1.25-11.47 1.94-16a17.5 17.5 0 0 1 8.47-6.25 26.8 26.8 0 0 1 10.53-1.36 19.2 19.2 0 0 1 8.12 1.95 13.07 13.07 0 0 1 5.38 17.72 21.9 21.9 0 0 1-5.32 6.07 68 68 0 0 1-13.4 9c-1.2.61-2.42 1.18-3.65 1.72-.84.36-2.43 1.39-3.37 1.21s-1.93-2-2.5-2.67c-.82-1-1.6-2.12-2.33-3.22a31 31 0 0 1-3.87-8.17" style="fill:#263238"/><path d="M148.48 202.41a13.35 13.35 0 0 1-8.87 3.73c-3.12 0-6.14-1-9.14-1.82a7 7 0 0 1-2.07 3.82 8 8 0 0 1-4.26 1.85 27.5 27.5 0 0 1 0 8.5 1.63 1.63 0 0 1-1.14 1.31c-1 .29-1.68-.75-2.18-1.59a7 7 0 0 0-2.19-2.45 3.43 3.43 0 0 0-3.18-.32 3.3 3.3 0 0 0-1.67 2 6.1 6.1 0 0 0-.13 2.69 8.06 8.06 0 0 0 1.75 4.11 5.54 5.54 0 0 0 3.91 2 4 4 0 0 0 3.76-1.86l.07.28a9.5 9.5 0 0 0 .41 1.31 11.2 11.2 0 0 0 8.21 7 116 116 0 0 0 9.37 1.55 7.7 7.7 0 0 0 8.5-6.29c1.48-8.12 1.96-17.69-1.15-25.82" style="fill:#955"/><path d="M123.58 226v14.31a15.77 15.77 0 0 0 11.51 6.38 5.6 5.6 0 0 0 4.14-1.06 3.36 3.36 0 0 0-.42-5.31 1.83 1.83 0 0 1-.84-1.53v-4.65c-2.16-.33-4.27-.71-6.18-1.11a11.2 11.2 0 0 1-8.21-7.03" style="fill:#955"/><path d="M133.14 236.21a30.4 30.4 0 0 0 4.83.86v-2.9c-2.16-.33-4.27-.71-6.18-1.11a11.19 11.19 0 0 1-7.93-6.41 11.4 11.4 0 0 0 2.89 6 13.7 13.7 0 0 0 6.39 3.56" style="fill:#823c3c"/><path d="M142.26 212.78h-1.85a13.57 13.57 0 0 0-12.79-1.3v2l.51.27a20.3 20.3 0 0 1 .48 3.83 5.1 5.1 0 0 0 1.41 3.39 5.7 5.7 0 0 0 3.81 1 7 7 0 0 0 3.16-.45 5.06 5.06 0 0 0 2.42-2.9c.45-1.22.38-1.92 1-3.39a1.09 1.09 0 0 1 1-.68 1 1 0 0 1 .94.68c.53 1.47.46 2.17.89 3.39a5 5 0 0 0 2.26 2.9 6.2 6.2 0 0 0 3 .45 5.07 5.07 0 0 0 3.56-1 5.26 5.26 0 0 0 1.32-3.39 21 21 0 0 1 .45-3.83l.48-.27v-2a12 12 0 0 0-12.05 1.3m-2.78 1-.08.7a16.5 16.5 0 0 1-.93 3.68 4.14 4.14 0 0 1-1.91 2.33 5.3 5.3 0 0 1-2.28.37h-.41a5 5 0 0 1-3.15-.76 4 4 0 0 1-1.08-2.72c0-.32-.06-.66-.08-1-.06-.93 0-3 .07-4.45a12 12 0 0 1 3.25-.45 12.43 12.43 0 0 1 6.52 1.9c.11.08.08.4.08.4m12.93 2.61c0 .33 0 .67-.07 1a4.17 4.17 0 0 1-1 2.72 4.35 4.35 0 0 1-2.94.76h-.4a4.64 4.64 0 0 1-2.13-.37 4.06 4.06 0 0 1-1.78-2.33 17.4 17.4 0 0 1-.88-3.68l-.07-.7s0-.32.08-.39a11.07 11.07 0 0 1 6.1-1.9 10.4 10.4 0 0 1 3 .45c.1 1.46.15 3.51.09 4.44m-24.79-4.91-10.41 3.74a4.5 4.5 0 0 1 2 1c.11.09 8.37-2.75 8.37-2.75Z" style="fill:#455a64"/><path d="m141.32 214.64 5.25 6.36-4.82 1.71z" style="fill:#955"/><path d="m141.32 214.64 5.25 6.36-4.82 1.71z" style="fill:#823c3c"/><path d="M133.9 215.44a1.45 1.45 0 1 0 1.45-1.44 1.46 1.46 0 0 0-1.45 1.44m12.1-.39a1.44 1.44 0 1 0 1.45-1.44 1.44 1.44 0 0 0-1.45 1.44m-.75-6.4 3.87.43a2.07 2.07 0 0 0-1.62-1.7 2.47 2.47 0 0 0-2.25 1.27m-8.46-.45-3.75 1a2 2 0 0 1 1.34-1.92 2.44 2.44 0 0 1 2.41.92" style="fill:#263238"/><path d="m136.89 225.08 4 1.23a2.46 2.46 0 0 1-2.7 1.25 2.23 2.23 0 0 1-1.3-2.48" style="fill:#955"/><path d="m136.89 225.08 4 1.23a2.46 2.46 0 0 1-2.7 1.25 2.23 2.23 0 0 1-1.3-2.48" style="fill:#632828"/><path d="M139.51 227.48a2.27 2.27 0 0 1-1.31.08 2 2 0 0 1-1.31-1.82 2.43 2.43 0 0 1 1.56.29 2.34 2.34 0 0 1 1.06 1.45" style="fill:#823c3c"/><path d="M141.16 251.93a8.31 8.31 0 0 0 7.58 0 13.5 13.5 0 0 0 1.54-.85 2.84 2.84 0 0 1-1.54 2 8.37 8.37 0 0 1-7.58 0 2.74 2.74 0 0 1-1.52-2 12 12 0 0 0 1.45.82Z" style="fill:#263238"/><path d="M132.89 238.85c0 1.8 1.15 3.58 3.5 5 4.7 2.73 12.35 2.73 17.08 0 2.37-1.37 3.55-3.15 3.56-5a15.29 15.29 0 0 1-6.75 12.23 13.5 13.5 0 0 1-1.54.85 8.31 8.31 0 0 1-7.58 0h-.07a12 12 0 0 1-1.45-.82 15.27 15.27 0 0 1-6.75-12.26" style="fill:#455a64"/><path d="M157 238.85c0-1.78-1.15-3.57-3.5-4.94-4.7-2.73-12.35-2.73-17.08 0-2.37 1.37-3.55 3.16-3.56 4.94s1.15 3.58 3.5 5c4.7 2.73 12.35 2.73 17.08 0 2.4-1.42 3.56-3.2 3.56-5m-1.05 0a4.35 4.35 0 0 1-1.92 3.29 10 10 0 0 1-1.12.76 17.75 17.75 0 0 1-16 0 8.6 8.6 0 0 1-1.06-.73 4.33 4.33 0 0 1-1.92-3.29c0-1.48 1.08-2.92 3-4.05a17.75 17.75 0 0 1 16 0c1.99 1.11 3.07 2.54 3.07 4.01Z" style="fill:#455a64"/><path d="M154.06 242.13a5 5 0 0 0-2.35-2.45 13.5 13.5 0 0 0-6.72-1.61 13.66 13.66 0 0 0-6.74 1.61 5.08 5.08 0 0 0-2.39 2.48 4.33 4.33 0 0 1-1.92-3.29c0-1.48 1.08-2.92 3-4.05a17.75 17.75 0 0 1 16 0c1.92 1.12 3 2.55 3 4a4.35 4.35 0 0 1-1.88 3.31" style="fill:#263238"/><path d="M141.16 251.93a8.31 8.31 0 0 0 7.58 0 13.5 13.5 0 0 0 1.54-.85 2.84 2.84 0 0 1-1.54 2 8.37 8.37 0 0 1-7.58 0 2.74 2.74 0 0 1-1.52-2 12 12 0 0 0 1.45.82Z" style="fill:#fff;opacity:.6000000000000001"/><path d="M132.89 238.85c0 1.8 1.15 3.58 3.5 5 4.7 2.73 12.35 2.73 17.08 0 2.37-1.37 3.55-3.15 3.56-5a15.29 15.29 0 0 1-6.75 12.23 13.5 13.5 0 0 1-1.54.85 8.31 8.31 0 0 1-7.58 0h-.07a12 12 0 0 1-1.45-.82 15.27 15.27 0 0 1-6.75-12.26" style="fill:#fff;opacity:.7000000000000001"/><path d="M157 238.85c0-1.78-1.15-3.57-3.5-4.94-4.7-2.73-12.35-2.73-17.08 0-2.37 1.37-3.55 3.16-3.56 4.94s1.15 3.58 3.5 5c4.7 2.73 12.35 2.73 17.08 0 2.4-1.42 3.56-3.2 3.56-5m-1.05 0a4.35 4.35 0 0 1-1.92 3.29 10 10 0 0 1-1.12.76 17.75 17.75 0 0 1-16 0 8.6 8.6 0 0 1-1.06-.73 4.33 4.33 0 0 1-1.92-3.29c0-1.48 1.08-2.92 3-4.05a17.75 17.75 0 0 1 16 0c1.99 1.11 3.07 2.54 3.07 4.01Z" style="fill:#fff;opacity:.8"/><path d="M154.06 242.13a5 5 0 0 0-2.35-2.45 13.5 13.5 0 0 0-6.72-1.61 13.66 13.66 0 0 0-6.74 1.61 5.08 5.08 0 0 0-2.39 2.48 4.33 4.33 0 0 1-1.92-3.29c0-1.48 1.08-2.92 3-4.05a17.75 17.75 0 0 1 16 0c1.92 1.12 3 2.55 3 4a4.35 4.35 0 0 1-1.88 3.31" style="fill:#fff;opacity:.6000000000000001"/><path d="M138.25 239.68a13.66 13.66 0 0 1 6.74-1.61 13.5 13.5 0 0 1 6.72 1.61 5 5 0 0 1 2.35 2.45 10 10 0 0 1-1.12.76 17.75 17.75 0 0 1-16 0 8.6 8.6 0 0 1-1.06-.73 5.08 5.08 0 0 1 2.37-2.48" style="fill:#632828"/><circle cx="117.87" cy="197.22" r="9.61" style="fill:#263238"/></svg>