<svg xmlns="http://www.w3.org/2000/svg" viewBox="0 0 500 500"><ellipse cx="252" cy="349.34" rx="228.86" ry="132.14" style="fill:#fafafa"/><path d="m325.8 236.65-70.06 40.46-49.05-28.32 70.06-40.45z" style="fill:#e0e0e0"/><path d="m283.83 458.92 142.36-82.22c2.28-1.31 2.28-3.44 0-4.76l-235.64-136a9.15 9.15 0 0 0-8.25 0L40 318.11c-2.28 1.32-2.28 3.45 0 4.77l235.63 136a9.09 9.09 0 0 0 8.2.04" style="fill:#e0e0e0"/><path d="m245.05 285.69 124.18 71.87-205.45 118.69L39.72 404.4zm164.7 25.48c-9.8 5.66-9.8 14.83 0 20.49s25.68 5.66 35.48 0 9.8-14.83 0-20.49-25.68-5.66-35.48 0" style="fill:#e0e0e0"/><path d="m365.85 167.8 89.95 51.97V86.95l-89.95-51.97z" style="fill:#fff"/><path d="m455.8 181.63-21.08-48.34 21.08 69.12Zm-10.9 31.84-10.18-80.18-.26 74.15Zm10.9-57.4-21.08-22.78 21.08 31.16Zm0-17.46-21.08-5.32 21.08 12.35Zm0-22.29-21.08 17L455.8 127ZM419 198.49l15.75-65.2-28.21 58Zm-53.15-30.69 15.15 8.75 53.73-43.26L365.85 154Zm60.84-97.67 8 63.16.2-58.4ZM455.8 87l-8.68-5-12.4 51.35 21.08-43.42Zm-55.22-31.95 34.14 78.24L413 62.25Zm-34.73 60.87 68.87 17.37L365.85 93Zm0-80.94v23.94l68.87 74.37-65.06-96.11Z" style="fill:#10b981;opacity:.07"/><ellipse cx="434.72" cy="133.29" rx="9.49" ry="17.77" style="fill:#10b981" transform="rotate(-17.06 434.817 133.321)"/><ellipse cx="434.72" cy="133.29" rx="9.49" ry="17.77" style="fill:#fff;opacity:.8" transform="rotate(-17.06 434.817 133.321)"/><path d="M455.8 154.5c-3.76-5.24-10.16-11.14-13.25-12.92-10.26-5.92-24.79-1.83-24.79-1.83l16.43 30.5c-8.49-11.91-34.8-58.89-42-63.46-5.56-3.51-10.85-3.78-26.3.79v60.22l89.95 52Z" style="fill:#10b981"/><path d="M455.8 154.5c-3.76-5.24-10.16-11.14-13.25-12.92-10.26-5.92-24.79-1.83-24.79-1.83l16.43 30.5c-8.49-11.91-34.8-58.89-42-63.46-5.56-3.51-10.85-3.78-26.3.79v60.22l89.95 52Z" style="fill:#fff;opacity:.4"/><path d="M365.85 40.43v10.41L455.8 201.9v-10.41zm37.2 148.86-37.2-62.47v26.29l13.34 22.4zm-37.2-118.46v42.47l49.47 83.08 38.56 22.28zm86.61 14.19L428.6 71.23l27.2 45.69V90.64zm-35.62-20.58-38.56-22.28 77.52 130.19v-42.47z" style="fill:#fff;opacity:.2"/><path d="M455.8 219.78v2.76l-92.3-53.33 2.35-1.41z" style="fill:#37474f"/><path d="m359.06 171.77 101.14 58.44V84.36L359.05 25.93Zm4.44-138.15L455.8 87v135.54l-92.3-53.33Z" style="fill:#455a64"/><path d="m363.5 169.21 2.35-1.41V34.98l-2.35-1.36z" style="fill:#263238"/><path d="m359.06 25.93 2.39-1.37L462.59 83l-2.39 1.36z" style="fill:#37474f"/><path d="m462.59 83-2.39 1.36v145.85l2.39-1.37zm-48.35-20.08-2.39-1.38v135.59l2.39-1.37z" style="fill:#263238"/><path d="m407.41 58.98 4.44 2.56v135.59l-4.44-2.57z" style="fill:#455a64"/><path d="m340.51 65.76-1.24.74-25.45-14.69 1.24-.74z" style="fill:#fafafa"/><path d="m315.06 51.07 24.21 13.97V39.69l-24.21-13.97z" style="fill:#fff"/><path d="m311.48 53.16 30.13 17.39V38.34l-30.13-17.4ZM313.82 25l25.45 14.7v26.8l-25.45-14.69Z" style="fill:#f0f0f0"/><path d="m313.82 51.81 1.24-.74V25.72l-1.24-.72z" style="fill:#e0e0e0"/><path d="m311.48 20.94 1.26-.72 30.13 17.4-1.26.72z" style="fill:#fafafa"/><path d="m342.87 37.62-1.26.72v32.22l1.26-.73z" style="fill:#e0e0e0"/><path d="m316.01 50.31 22.32 12.89v-6.45l-5.58-12.88-3.48 3.22 1.25 5.4-7.71-16.48-6.8 7.86z" style="fill:#f0f0f0"/><path d="M329.48 37.64a3.66 3.66 0 0 1 1.65 2.86c0 1.06-.74 1.48-1.65 1a3.66 3.66 0 0 1-1.65-2.86c0-1.1.74-1.52 1.65-1" style="fill:#f0f0f0"/><path d="m340.51 109.95-1.24.74-25.45-14.7 1.24-.74z" style="fill:#fafafa"/><path d="m315.06 95.25 24.21 13.98V83.88l-24.21-13.97z" style="fill:#fff"/><path d="m311.48 97.34 30.13 17.4V82.52l-30.13-17.39Zm2.34-28.16 25.45 14.7v26.81L313.82 96Z" style="fill:#f0f0f0"/><path d="m313.82 95.99 1.24-.74V69.91l-1.24-.73z" style="fill:#e0e0e0"/><path d="m311.48 65.13 1.26-.72 30.13 17.39-1.26.72z" style="fill:#fafafa"/><path d="m342.87 81.8-1.26.72v32.22l1.26-.72z" style="fill:#e0e0e0"/><path d="m316.01 94.5 22.32 12.88v-6.44l-5.58-12.89-3.48 3.22 1.25 5.4-7.71-16.48-6.8 7.86z" style="fill:#f0f0f0"/><path d="M329.48 81.83a3.66 3.66 0 0 1 1.65 2.86c0 1-.74 1.48-1.65 1a3.63 3.63 0 0 1-1.65-2.86c0-1.1.74-1.53 1.65-1" style="fill:#f0f0f0"/><path d="m182.48 33.56 2.78 1.55v50.91l-2.78-1.56z" style="fill:#455a64"/><path d="m182.48 84.46-.01-47.74-125.28 72.34.02 47.73z" style="fill:#fff"/><path d="M190.42 89V26.17L52 106.07v62.83ZM57.18 160v-50.9l128.08-73.99V86Z" style="fill:#10b981"/><path d="m185.26 86.02-2.78-1.56-125.27 72.33-.02 3.17z" style="fill:#37474f"/><path d="m52.02 168.9-2.76-1.61v-62.83l2.76 1.61z" style="fill:#455a64"/><path d="m49.26 104.46 2.76 1.61 138.4-79.9-2.76-1.61z" style="fill:#37474f"/><path d="M177.71 82.59V44.1L63.37 110.11v38.5z" style="fill:#f5f5f5"/><path d="M177.71 82.59V44.1L63.37 110.11v38.5z" style="fill:#10b981"/><g style="opacity:.7000000000000001"><path d="M177.71 82.59V44.1L63.37 110.11v38.5z" style="fill:#fff"/></g><path d="M109.36 91.69a36.7 36.7 0 0 0-1.84-7.07l-9.18 5.3c.1.82.19 1.56.2 2.17 0 1.67.06 3.35 0 5-.16 6.2-1 12.4-3.55 18.1-3.3 7.43-9.14 13.38-14.14 19.8a65 65 0 0 0-4.06 5.82l32.28-18.64c-1.28-3.35-.73-7.15-.2-10.74.96-6.52 1.65-13.22.49-19.74M86 97l-8.81 5.08a32.9 32.9 0 0 1-6.8 10.92 36.4 36.4 0 0 1-7 5.72v21.47A56.4 56.4 0 0 0 77 125.42 58.65 58.65 0 0 0 86 97m66.25-3.35c-5.53-.13-11.57-1.45-14.91-5.86-1.72-2.27-2.51-5.09-3.54-7.75a35 35 0 0 0-4.52-8l-11.36 6.56a23 23 0 0 1 1.45 3.53c2.08 8.67-1.27 18.44 2.8 26.37a16.8 16.8 0 0 0 3.21 4.29L159 93.42a52 52 0 0 1-6.74.27Zm10.61-29.13a24.2 24.2 0 0 1-10.58-5.79l-13.45 7.77a33.2 33.2 0 0 0 5.17 6.27 34.4 34.4 0 0 0 15.64 7.88 32.9 32.9 0 0 0 15.34 0 27 27 0 0 0 2.7-.87V62.7a23.7 23.7 0 0 1-14.81 1.86ZM162 53.16a15 15 0 0 0 13.74.52 17 17 0 0 0 2-1.12V44.1Z" style="fill:#fff;opacity:.4"/><path d="M412.45 322.07c-8.12-8.37-12.88-29.52-5-36.16h40.26c7.91 6.64 3.15 27.78-5 36.16l-.22.23-.28.27a9 9 0 0 1-.73.66c-.06.06-.13.1-.2.16s-.39.31-.61.46a10 10 0 0 1-1.05.68c-6.67 3.9-17.49 3.9-24.16 0a11 11 0 0 1-1.06-.68c-.2-.14-.38-.29-.57-.44l-.24-.19c-.25-.2-.48-.42-.7-.63l-.33-.32c.01-.07-.06-.13-.11-.2" style="fill:#37474f"/><path d="M444.24 283.24c9.19 5.36 9.19 14.06 0 19.42s-24.08 5.36-33.26 0-9.19-14.06 0-19.42 24.08-5.36 33.26 0" style="fill:#455a64"/><path d="M439.83 285.82c6.74 3.94 6.74 10.32 0 14.26s-17.69 3.94-24.43 0-6.75-10.32 0-14.26 17.68-3.94 24.43 0" style="fill:#263238"/><path d="M415.4 292.59c6.74-3.94 17.68-3.94 24.43 0a11.35 11.35 0 0 1 4 3.74 11.3 11.3 0 0 1-4 3.75c-6.75 3.94-17.69 3.94-24.43 0a11.1 11.1 0 0 1-4-3.75 11.2 11.2 0 0 1 4-3.74" style="fill:#fafafa"/><path d="M422.1 242.58c-2.72 3.44-10.88 4.95-15-3.46-3.82-7.89-7.85-15.34-9.07-18.25a3.08 3.08 0 0 1 1.67-4.12s-.11-4.48 7.7-2 13.49 6.63 17.36 13.81 2.33 12.64-2.66 14.02" style="fill:#10b981"/><path d="M422.1 242.58c-2.72 3.44-10.88 4.95-15-3.46-3.82-7.89-7.85-15.34-9.07-18.25a3.08 3.08 0 0 1 1.67-4.12s-.11-4.48 7.7-2 13.49 6.63 17.36 13.81 2.33 12.64-2.66 14.02" style="fill:#fff;opacity:.05"/><path d="M422.1 242.58c-2.72 3.44-10.88 4.95-15-3.46-3.82-7.89-7.85-15.34-9.07-18.25a3.08 3.08 0 0 1 1.67-4.12s-.11-4.48 7.7-2 13.49 6.63 17.36 13.81 2.33 12.64-2.66 14.02" style="fill:#fff;opacity:.45"/><path d="M426.25 253.8a40 40 0 0 0-1-4.48 64.1 64.1 0 0 0-13.19-24.06 55 55 0 0 0-7.49-7.29c-.08-.07-.13.11-.07.16a67.27 67.27 0 0 1 19.5 30.54c.49 1.62 1 3.25 1.4 4.89s.75 3.36 1.16 5c0 .17.31.25.31 0a32.4 32.4 0 0 0-.62-4.76" style="fill:#10b981"/><path d="M426.25 253.8a40 40 0 0 0-1-4.48 64.1 64.1 0 0 0-13.19-24.06 55 55 0 0 0-7.49-7.29c-.08-.07-.13.11-.07.16a67.27 67.27 0 0 1 19.5 30.54c.49 1.62 1 3.25 1.4 4.89s.75 3.36 1.16 5c0 .17.31.25.31 0a32.4 32.4 0 0 0-.62-4.76" style="opacity:.4"/><path d="M431 236.56c-7.08 2.19-12.34-3.34-10.52-12s10.93-18.29 14.37-15.71c2.15-2.15 6.88-1.37 9.11 5.67s.15 25.11-12.96 22.04" style="fill:#10b981"/><path d="M431 236.56c-7.08 2.19-12.34-3.34-10.52-12s10.93-18.29 14.37-15.71c2.15-2.15 6.88-1.37 9.11 5.67s.15 25.11-12.96 22.04" style="fill:#fff;opacity:.15"/><path d="M435.11 214.11a95 95 0 0 0-4.71 15.58 153 153 0 0 0-2.74 16.31 257 257 0 0 0-1.42 32c0 2.95.07 5.9.12 8.85s0 6.1.27 9.13c.1 1.16 1.75.85 1.77-.22.11-5.31-.19-10.64-.24-15.95s0-10.51.1-15.76a220.4 220.4 0 0 1 2.87-31.93c.5-2.94 1.06-5.87 1.75-8.78s1.6-6.06 2.41-9.1c.03-.14-.11-.24-.18-.13" style="fill:#10b981"/><path d="M435.11 214.11a95 95 0 0 0-4.71 15.58 153 153 0 0 0-2.74 16.31 257 257 0 0 0-1.42 32c0 2.95.07 5.9.12 8.85s0 6.1.27 9.13c.1 1.16 1.75.85 1.77-.22.11-5.31-.19-10.64-.24-15.95s0-10.51.1-15.76a220.4 220.4 0 0 1 2.87-31.93c.5-2.94 1.06-5.87 1.75-8.78s1.6-6.06 2.41-9.1c.03-.14-.11-.24-.18-.13" style="opacity:.4"/><path d="M417.78 260.29c-2 4.2-9 5.8-15.22 1s-15.3-26.64-8.45-27c.52-3.41 20.36-1.1 26.76 13 4.64 10.4-3.09 13-3.09 13" style="fill:#10b981"/><path d="M417.78 260.29c-2 4.2-9 5.8-15.22 1s-15.3-26.64-8.45-27c.52-3.41 20.36-1.1 26.76 13 4.64 10.4-3.09 13-3.09 13" style="fill:#fff;opacity:.15"/><path d="M426.08 269.51a32 32 0 0 0-2-3.88 88 88 0 0 0-4.92-7.46 90 90 0 0 0-12.31-13.42 82 82 0 0 0-7.87-6.42c-.08-.05-.09.12 0 .16 2.23 1.88 4.49 3.73 6.59 5.75a91 91 0 0 1 6.2 6.65A111 111 0 0 1 422 265c.86 1.41 1.66 2.87 2.53 4.27s1.94 2.85 2.79 4.35c.12.21.44.22.33-.08-.57-1.32-1-2.7-1.57-4.03" style="fill:#10b981"/><path d="M426.08 269.51a32 32 0 0 0-2-3.88 88 88 0 0 0-4.92-7.46 90 90 0 0 0-12.31-13.42 82 82 0 0 0-7.87-6.42c-.08-.05-.09.12 0 .16 2.23 1.88 4.49 3.73 6.59 5.75a91 91 0 0 1 6.2 6.65A111 111 0 0 1 422 265c.86 1.41 1.66 2.87 2.53 4.27s1.94 2.85 2.79 4.35c.12.21.44.22.33-.08-.57-1.32-1-2.7-1.57-4.03" style="opacity:.4"/><path d="M430.75 258.51c-4.05-.92-4.25-5.78.81-11.75s17.81-8.57 18.42-6.06c2.84 0 2.84 8.88-3.44 17s-15.41 6.3-15.79.81" style="fill:#10b981"/><path d="M430.75 258.51c-4.05-.92-4.25-5.78.81-11.75s17.81-8.57 18.42-6.06c2.84 0 2.84 8.88-3.44 17s-15.41 6.3-15.79.81" style="fill:#fff;opacity:.15"/><path d="M438.68 249.83A32.2 32.2 0 0 0 427 265c-.13.35.47.85.61.48a37.3 37.3 0 0 1 11.14-15.53s-.02-.15-.07-.12" style="fill:#10b981"/><path d="M438.68 249.83A32.2 32.2 0 0 0 427 265c-.13.35.47.85.61.48a37.3 37.3 0 0 1 11.14-15.53s-.02-.15-.07-.12" style="opacity:.4"/><path d="M435.38 288.14c-5.61 2.27-3.21 8.94 2.27 14a25 25 0 0 0 17.07 6.14c3.76-.27 4.72-.78 4.72-.78a42.6 42.6 0 0 0 0-9.29A18 18 0 0 0 446.2 284c-8.73-2.37-10.82.8-10.82 4.14" style="fill:#10b981"/><path d="M435.38 288.14c-5.61 2.27-3.21 8.94 2.27 14a25 25 0 0 0 17.07 6.14c3.76-.27 4.72-.78 4.72-.78a42.6 42.6 0 0 0 0-9.29A18 18 0 0 0 446.2 284c-8.73-2.37-10.82.8-10.82 4.14" style="fill:#fff;opacity:.05"/><path d="M435.38 288.14c-5.61 2.27-3.21 8.94 2.27 14a25 25 0 0 0 17.07 6.14c3.76-.27 4.72-.78 4.72-.78a42.6 42.6 0 0 0 0-9.29A18 18 0 0 0 446.2 284c-8.73-2.37-10.82.8-10.82 4.14" style="fill:#fff;opacity:.45"/><path d="M450.9 298a45.2 45.2 0 0 0-8.58-7.95c-3.2-2.1-7.46-3.89-11.29-2.58-1.48.5-3.79 2-3.51 3.82 0 .18.35.64.57.39a15.3 15.3 0 0 1 2-2.36 5.9 5.9 0 0 1 3-1.14A13.84 13.84 0 0 1 441 290c3.79 2 6.85 5.13 9.87 8.12.02 0 .06-.12.03-.12" style="fill:#10b981"/><path d="M450.9 298a45.2 45.2 0 0 0-8.58-7.95c-3.2-2.1-7.46-3.89-11.29-2.58-1.48.5-3.79 2-3.51 3.82 0 .18.35.64.57.39a15.3 15.3 0 0 1 2-2.36 5.9 5.9 0 0 1 3-1.14A13.84 13.84 0 0 1 441 290c3.79 2 6.85 5.13 9.87 8.12.02 0 .06-.12.03-.12" style="opacity:.4"/><path d="M414.06 266.21c.05-2.38-4.26-7.27-14.77-6.43s-17.44 6.63-18.63 8.92-1.6 4.53.37 4.71 8.53-.37 13.12.8 14.25 5.36 19.81 2.57 3.43-8.78.1-10.57" style="fill:#10b981"/><path d="M414.06 266.21c.05-2.38-4.26-7.27-14.77-6.43s-17.44 6.63-18.63 8.92-1.6 4.53.37 4.71 8.53-.37 13.12.8 14.25 5.36 19.81 2.57 3.43-8.78.1-10.57" style="fill:#fff;opacity:.05"/><path d="M414.06 266.21c.05-2.38-4.26-7.27-14.77-6.43s-17.44 6.63-18.63 8.92-1.6 4.53.37 4.71 8.53-.37 13.12.8 14.25 5.36 19.81 2.57 3.43-8.78.1-10.57" style="fill:#fff;opacity:.45"/><path d="M423.36 272.76c-6-8.19-17.71-8.88-26.87-7.16a37 37 0 0 0-8.73 2.8s0 .12 0 .11a48.2 48.2 0 0 1 14.91-2.89 31.46 31.46 0 0 1 14.61 2.77 18.8 18.8 0 0 1 5.89 4.58c.19.19.32-.04.19-.21" style="fill:#10b981"/><path d="M423.36 272.76c-6-8.19-17.71-8.88-26.87-7.16a37 37 0 0 0-8.73 2.8s0 .12 0 .11a48.2 48.2 0 0 1 14.91-2.89 31.46 31.46 0 0 1 14.61 2.77 18.8 18.8 0 0 1 5.89 4.58c.19.19.32-.04.19-.21" style="opacity:.4"/><path d="M440.81 246c-.15 4 5.51 6.35 11 2.88S463 242 468.1 240.7s7.48-5.45 5.87-7.45-4.15-7.06-17.49-5.41-18.07 7.66-19.9 11.91 2.22 7.4 4.23 6.25" style="fill:#10b981"/><path d="M440.81 246c-.15 4 5.51 6.35 11 2.88S463 242 468.1 240.7s7.48-5.45 5.87-7.45-4.15-7.06-17.49-5.41-18.07 7.66-19.9 11.91 2.22 7.4 4.23 6.25" style="fill:#fff;opacity:.05"/><path d="M440.81 246c-.15 4 5.51 6.35 11 2.88S463 242 468.1 240.7s7.48-5.45 5.87-7.45-4.15-7.06-17.49-5.41-18.07 7.66-19.9 11.91 2.22 7.4 4.23 6.25" style="fill:#fff;opacity:.45"/><path d="M462.53 233.23a14.4 14.4 0 0 0-5.72.6 28 28 0 0 0-4.9 1.75 27.2 27.2 0 0 0-8.35 6 22 22 0 0 0-1.88 2.27 9.5 9.5 0 0 0-1.42 2.33c-.1.26.29.69.53.42.66-.76 1.15-1.69 1.77-2.49a28 28 0 0 1 2.15-2.46 27.2 27.2 0 0 1 5.14-4 30.7 30.7 0 0 1 9-3.77 11.4 11.4 0 0 1 3.62-.5c.09 0 .12-.14.06-.15" style="fill:#10b981"/><path d="M462.53 233.23a14.4 14.4 0 0 0-5.72.6 28 28 0 0 0-4.9 1.75 27.2 27.2 0 0 0-8.35 6 22 22 0 0 0-1.88 2.27 9.5 9.5 0 0 0-1.42 2.33c-.1.26.29.69.53.42.66-.76 1.15-1.69 1.77-2.49a28 28 0 0 1 2.15-2.46 27.2 27.2 0 0 1 5.14-4 30.7 30.7 0 0 1 9-3.77 11.4 11.4 0 0 1 3.62-.5c.09 0 .12-.14.06-.15" style="opacity:.4"/><path d="M431.24 267.7c-1.87-1.87-6.95-1.43-9.35 4.09s2.64 11.57 3.2 13.27c2.32-1.33 4.13-.54 8.21-1.33a10.2 10.2 0 0 0 7.82-10.17c-.27-5.06-2.4-8.4-9.88-5.86" style="fill:#10b981"/><path d="M431.24 267.7c-1.87-1.87-6.95-1.43-9.35 4.09s2.64 11.57 3.2 13.27c2.32-1.33 4.13-.54 8.21-1.33a10.2 10.2 0 0 0 7.82-10.17c-.27-5.06-2.4-8.4-9.88-5.86" style="fill:#fff;opacity:.05"/><path d="M431.24 267.7c-1.87-1.87-6.95-1.43-9.35 4.09s2.64 11.57 3.2 13.27c2.32-1.33 4.13-.54 8.21-1.33a10.2 10.2 0 0 0 7.82-10.17c-.27-5.06-2.4-8.4-9.88-5.86" style="fill:#fff;opacity:.45"/><path d="M431.17 267.15a7.5 7.5 0 0 0-2.48 2.56 14.5 14.5 0 0 0-1.61 3.1 13.2 13.2 0 0 0-.7 7c0 .09.09 0 .09 0a14.3 14.3 0 0 1 1.18-7 14 14 0 0 1 1.68-2.79 14 14 0 0 1 1.13-1.31 7.2 7.2 0 0 0 1.07-1.07c.14-.18-.08-.64-.36-.49" style="fill:#10b981"/><path d="M431.17 267.15a7.5 7.5 0 0 0-2.48 2.56 14.5 14.5 0 0 0-1.61 3.1 13.2 13.2 0 0 0-.7 7c0 .09.09 0 .09 0a14.3 14.3 0 0 1 1.18-7 14 14 0 0 1 1.68-2.79 14 14 0 0 1 1.13-1.31 7.2 7.2 0 0 0 1.07-1.07c.14-.18-.08-.64-.36-.49" style="opacity:.4"/><path d="M423.52 282.55c-1-4-6.09-6.22-12.68-6.71a17.25 17.25 0 0 0-16.41 8.42c-3.45 5.9-4.89 10.6-2.79 11.37s11 2 16.68 2.51 12.87-.52 17.54-4.87 3.14-9.81-2.34-10.72" style="fill:#10b981"/><path d="M423.52 282.55c-1-4-6.09-6.22-12.68-6.71a17.25 17.25 0 0 0-16.41 8.42c-3.45 5.9-4.89 10.6-2.79 11.37s11 2 16.68 2.51 12.87-.52 17.54-4.87 3.14-9.81-2.34-10.72" style="fill:#fff;opacity:.15"/><path d="M423.77 282a17.4 17.4 0 0 0-7.12-.33 31.6 31.6 0 0 0-6.73 1.55 43.7 43.7 0 0 0-6.66 3c-1.12.62-2.22 1.27-3.29 1.95a25 25 0 0 0-3 2s0 .17 0 .14c1.08-.49 2.09-1.17 3.13-1.75s2.24-1.25 3.38-1.82a47 47 0 0 1 6.6-2.8 30.6 30.6 0 0 1 7-1.5 41.4 41.4 0 0 1 6.68.17c.55.08.29-.5.01-.61" style="fill:#10b981"/><path d="M423.77 282a17.4 17.4 0 0 0-7.12-.33 31.6 31.6 0 0 0-6.73 1.55 43.7 43.7 0 0 0-6.66 3c-1.12.62-2.22 1.27-3.29 1.95a25 25 0 0 0-3 2s0 .17 0 .14c1.08-.49 2.09-1.17 3.13-1.75s2.24-1.25 3.38-1.82a47 47 0 0 1 6.6-2.8 30.6 30.6 0 0 1 7-1.5 41.4 41.4 0 0 1 6.68.17c.55.08.29-.5.01-.61" style="opacity:.4"/><path d="M435.52 272.77c-4.53-3.6-3-12.23 12.85-12.7s27.19 3.68 26.69 8.78c2.55 2.56 1.26 9.71-11.59 11.94s-31.22 1.12-27.95-8.02" style="fill:#10b981"/><path d="M435.52 272.77c-4.53-3.6-3-12.23 12.85-12.7s27.19 3.68 26.69 8.78c2.55 2.56 1.26 9.71-11.59 11.94s-31.22 1.12-27.95-8.02" style="fill:#fff;opacity:.15"/><path d="M467.6 268.91a68 68 0 0 0-14.18-.83 54.3 54.3 0 0 0-13.08 1.51 19 19 0 0 0-3.19 1.18 14 14 0 0 0-1.39.75c-.36.22-.77.41-.9.83a.44.44 0 0 0 .48.5 17.4 17.4 0 0 0 2.77-1.37 20.5 20.5 0 0 1 2.75-1 33.4 33.4 0 0 1 5.51-1.09 98 98 0 0 1 13.39-.74c2.61 0 5.21.24 7.8.44.08.01.11-.17.04-.18" style="fill:#10b981"/><path d="M467.6 268.91a68 68 0 0 0-14.18-.83 54.3 54.3 0 0 0-13.08 1.51 19 19 0 0 0-3.19 1.18 14 14 0 0 0-1.39.75c-.36.22-.77.41-.9.83a.44.44 0 0 0 .48.5 17.4 17.4 0 0 0 2.77-1.37 20.5 20.5 0 0 1 2.75-1 33.4 33.4 0 0 1 5.51-1.09 98 98 0 0 1 13.39-.74c2.61 0 5.21.24 7.8.44.08.01.11-.17.04-.18" style="opacity:.4"/><path d="m239.17 287.83 118.98 68.86-190.47 109.68L48.8 397.52z" style="fill:#10b981"/><path d="m239.17 287.83 118.98 68.86-190.47 109.68L48.8 397.52z" style="fill:#fff;opacity:.7000000000000001"/><path d="M167.78 467.16a.8.8 0 0 1-.36-.09l-119-68.7a.75.75 0 0 1-.36-.64.73.73 0 0 1 .36-.63l190.39-109.91a.73.73 0 0 1 .73 0l119 68.69a.74.74 0 0 1 .37.64.72.72 0 0 1-.37.63L168.15 467.07a.8.8 0 0 1-.37.09M50.26 397.73l117.52 67.86 188.91-109.07-117.52-67.85Z" style="fill:#fff"/><path d="M239.17 288.56a.73.73 0 0 1-.36-1.37l5.23-3a.73.73 0 0 1 1 .27.72.72 0 0 1-.26 1l-5.24 3a.7.7 0 0 1-.37.1m6.62 3.81a.71.71 0 0 1-.63-.37.73.73 0 0 1 .27-1l5.23-3a.73.73 0 0 1 .74 1.26l-5.24 3a.7.7 0 0 1-.37.11m6.62 3.81a.71.71 0 0 1-.63-.37.74.74 0 0 1 .27-1l5.23-3a.73.73 0 0 1 .74 1.26l-5.24 3a.7.7 0 0 1-.37.11M259 300a.71.71 0 0 1-.63-.37.74.74 0 0 1 .27-1l5.23-3a.73.73 0 0 1 1 .26.72.72 0 0 1-.26 1l-5.24 3a.7.7 0 0 1-.37.11m6.65 3.8a.73.73 0 0 1-.63-.36.73.73 0 0 1 .27-1l5.23-3a.73.73 0 0 1 .74 1.26l-5.24 3a.7.7 0 0 1-.37.1m6.62 3.81a.73.73 0 0 1-.63-.36.73.73 0 0 1 .27-1l5.23-3a.73.73 0 0 1 .74 1.26l-5.24 3a.7.7 0 0 1-.37.1m6.62 3.81a.73.73 0 0 1-.63-.36.74.74 0 0 1 .26-1l5.24-3a.72.72 0 0 1 1 .27.73.73 0 0 1-.26 1l-5.24 3a.7.7 0 0 1-.37.09m6.62 3.81a.73.73 0 0 1-.63-.36.74.74 0 0 1 .26-1l5.24-3a.73.73 0 0 1 .74 1.27l-5.24 3a.7.7 0 0 1-.37.09m6.62 3.77a.73.73 0 0 1-.37-1.36l5.24-3a.73.73 0 0 1 1 .27.74.74 0 0 1-.26 1l-5.24 3a.74.74 0 0 1-.37.09m6.62 3.85a.73.73 0 0 1-.37-1.36l5.24-3a.73.73 0 0 1 1 .27.74.74 0 0 1-.26 1l-5.24 3a.84.84 0 0 1-.37.09m6.62 3.82a.74.74 0 0 1-.37-1.37l5.24-3a.73.73 0 0 1 1 .27.74.74 0 0 1-.26 1l-5.24 3a.74.74 0 0 1-.37.1m6.63 3.81a.73.73 0 0 1-.37-1.37l5.24-3a.73.73 0 0 1 .73 1.27l-5.23 3a.74.74 0 0 1-.37.1m6.61 3.81a.73.73 0 0 1-.37-1.37l5.24-3a.73.73 0 0 1 .73 1.27l-5.23 3a.74.74 0 0 1-.37.1m6.62 3.81a.73.73 0 0 1-.37-1.37l5.24-3a.72.72 0 0 1 1 .26.73.73 0 0 1-.27 1l-5.24 3a.7.7 0 0 1-.36.11m6.62 3.81a.73.73 0 0 1-.37-1.37l5.24-3a.73.73 0 1 1 .73 1.26l-5.24 3a.7.7 0 0 1-.36.11m6.62 3.81a.73.73 0 0 1-.37-1.37l5.24-3a.73.73 0 1 1 .73 1.26l-5.24 3a.7.7 0 0 1-.36.11m6.62 3.81a.74.74 0 0 1-.64-.36.73.73 0 0 1 .27-1l5.24-3a.72.72 0 0 1 1 .27.73.73 0 0 1-.27 1l-5.24 3a.7.7 0 0 1-.36.09m6.62 3.81a.74.74 0 0 1-.64-.36.73.73 0 0 1 .27-1l5.24-3a.73.73 0 0 1 .73 1.27l-5.24 3a.7.7 0 0 1-.36.09m6.62 3.81a.74.74 0 0 1-.64-.36.73.73 0 0 1 .27-1l5.24-3a.73.73 0 0 1 1 .27.74.74 0 0 1-.27 1l-5.24 3a.7.7 0 0 1-.36.09M43.49 401.53a.73.73 0 0 1-.37-1.36l5.24-3a.73.73 0 0 1 .74 1.27l-5.24 3a.8.8 0 0 1-.37.09m6.62 3.82a.74.74 0 0 1-.37-1.37L55 401a.73.73 0 0 1 .74 1.27l-5.24 3a.7.7 0 0 1-.39.08m6.62 3.81a.71.71 0 0 1-.63-.37.73.73 0 0 1 .26-1l5.24-3a.73.73 0 0 1 1 .27.74.74 0 0 1-.26 1l-5.24 3a.7.7 0 0 1-.37.1m6.62 3.84a.74.74 0 0 1-.35-1.4l5.24-3a.73.73 0 0 1 1 .27.74.74 0 0 1-.26 1l-5.24 3a.7.7 0 0 1-.39.13m6.65 3.78a.74.74 0 0 1-.63-.37.72.72 0 0 1 .26-1l5.24-3a.72.72 0 0 1 1 .26.73.73 0 0 1-.27 1l-5.23 3a.74.74 0 0 1-.37.11m6.59 3.81a.73.73 0 0 1-.37-1.37l5.24-3a.73.73 0 1 1 .73 1.26l-5.23 3a.74.74 0 0 1-.37.11m6.62 3.81a.73.73 0 0 1-.37-1.37l5.24-3a.73.73 0 1 1 .73 1.26l-5.24 3a.7.7 0 0 1-.36.11m6.62 3.81a.74.74 0 0 1-.64-.36.73.73 0 0 1 .27-1l5.24-3a.73.73 0 1 1 .73 1.26l-5.24 3a.7.7 0 0 1-.36.1m6.62 3.79a.74.74 0 0 1-.64-.36.73.73 0 0 1 .27-1l5.24-3a.73.73 0 1 1 .73 1.26l-5.24 3a.7.7 0 0 1-.36.1m6.62 3.83a.74.74 0 0 1-.64-.36.73.73 0 0 1 .27-1l5.24-3a.72.72 0 0 1 1 .27.74.74 0 0 1-.27 1l-5.24 3a.7.7 0 0 1-.36.09m6.62 3.81a.74.74 0 0 1-.64-.36.73.73 0 0 1 .27-1l5.24-3a.73.73 0 1 1 .73 1.27l-5.24 3a.7.7 0 0 1-.36.09m6.62 3.81a.74.74 0 0 1-.64-.36.73.73 0 0 1 .27-1l5.24-3a.73.73 0 1 1 .73 1.27l-5.24 3a.7.7 0 0 1-.36.09m6.62 3.81a.74.74 0 0 1-.64-.36.73.73 0 0 1 .27-1l5.24-3a.73.73 0 0 1 .73 1.27l-5.24 3a.8.8 0 0 1-.36.09m6.62 3.82a.75.75 0 0 1-.64-.37.73.73 0 0 1 .27-1l5.24-3a.73.73 0 1 1 .73 1.27l-5.24 3a.7.7 0 0 1-.36.1m6.62 3.81a.73.73 0 0 1-.37-1.37l5.24-3a.73.73 0 1 1 .73 1.27l-5.24 3a.7.7 0 0 1-.36.1m6.61 3.81a.73.73 0 0 1-.63-.37.74.74 0 0 1 .27-1l5.24-3a.73.73 0 0 1 .73 1.27l-5.24 3a.7.7 0 0 1-.37.1m6.62 3.81a.73.73 0 0 1-.63-.37.74.74 0 0 1 .27-1l5.24-3a.72.72 0 0 1 1 .26.73.73 0 0 1-.27 1l-5.24 3a.7.7 0 0 1-.37.11m6.6 3.81a.73.73 0 0 1-.63-.37.73.73 0 0 1 .27-1l5.24-3a.73.73 0 1 1 .73 1.26l-5.24 3a.7.7 0 0 1-.37.11m6.64 3.81a.73.73 0 0 1-.63-.37.73.73 0 0 1 .27-1l5.24-3a.73.73 0 1 1 .73 1.26L163 470a.7.7 0 0 1-.36.13m28.94-16.71a.7.7 0 0 1-.37-.1l-119-68.69a.73.73 0 0 1-.27-1 .73.73 0 0 1 1-.27l119 68.7a.73.73 0 0 1-.36 1.36m23.79-13.74a.74.74 0 0 1-.37-.1L96 370.89a.73.73 0 0 1 .74-1.27l119 68.7a.73.73 0 0 1-.37 1.36m23.8-13.74a.7.7 0 0 1-.37-.1l-119-68.69a.73.73 0 0 1-.27-1 .73.73 0 0 1 1-.27l119 68.7a.73.73 0 0 1-.36 1.36M263 412.2a.74.74 0 0 1-.37-.1l-119-68.69a.73.73 0 0 1 .74-1.27l119 68.7a.73.73 0 0 1-.37 1.36m23.76-13.74a.7.7 0 0 1-.37-.1l-119-68.69a.73.73 0 0 1 .73-1.27l119 68.7a.73.73 0 0 1-.36 1.36m23.79-13.74a.74.74 0 0 1-.37-.1l-119-68.69a.72.72 0 0 1-.26-1 .73.73 0 0 1 1-.27l119 68.7a.73.73 0 0 1-.37 1.36M334.34 371a.7.7 0 0 1-.36-.1L215 302.19a.73.73 0 0 1 .73-1.27l119 68.7a.73.73 0 0 1 .27 1 .74.74 0 0 1-.66.38" style="fill:#fff"/><path d="M144 453.42a.72.72 0 0 1-.52-.21.73.73 0 0 1-.22-.52V426.1l-34.8 6.69a.73.73 0 0 1-.61-.15.74.74 0 0 1-.27-.57V405.5l-34.82 6.7a.76.76 0 0 1-.6-.16.72.72 0 0 1-.27-.56V384a.74.74 0 0 1 1.47 0v26.6l34.82-6.7a.76.76 0 0 1 .6.16.72.72 0 0 1 .27.56v26.58l34.8-6.7a.77.77 0 0 1 .61.15.73.73 0 0 1 .26.57V452h46.86a.73.73 0 1 1 0 1.46l-47.59.05Zm47.58-27.48a.7.7 0 0 1-.51-.21.73.73 0 0 1-.22-.52v-26.59l-34.85 6.7a.75.75 0 0 1-.6-.16.72.72 0 0 1-.27-.56v-26.58l-34.82 6.7a.73.73 0 0 1-.87-.72v-27.49a.73.73 0 0 1 1.46 0v26.61l34.82-6.7a.7.7 0 0 1 .61.15.71.71 0 0 1 .26.56v26.58l34.8-6.7a.74.74 0 0 1 .61.16.7.7 0 0 1 .26.56v26.75l46.86-.05a.74.74 0 0 1 0 1.47h-47.6Zm47.6-27.47a.75.75 0 0 1-.73-.73v-26.6l-34.8 6.7a.74.74 0 0 1-.6-.16.72.72 0 0 1-.27-.56v-26.58l-34.82 6.7a.7.7 0 0 1-.6-.15.74.74 0 0 1-.27-.57V329a.73.73 0 1 1 1.46 0v26.61l34.82-6.7a.72.72 0 0 1 .87.72v26.57l34.81-6.7a.76.76 0 0 1 .6.16.74.74 0 0 1 .27.56V397l46.86-.05a.74.74 0 0 1 0 1.47zm47.6-27.47a.74.74 0 0 1-.51-.21.74.74 0 0 1-.22-.52v-26.6l-34.8 6.7a.74.74 0 0 1-.6-.16.71.71 0 0 1-.27-.56v-26.58l-34.82 6.71a.77.77 0 0 1-.61-.16.73.73 0 0 1-.26-.56v-27.5a.73.73 0 1 1 1.46 0v26.6l34.82-6.7a.77.77 0 0 1 .61.15.73.73 0 0 1 .26.57v26.57l34.81-6.69a.72.72 0 0 1 .6.15.74.74 0 0 1 .27.56v26.75h46.86a.73.73 0 1 1 0 1.46l-47.59.05Z" style="fill:#fff"/><path d="M239.54 287.19a.73.73 0 0 0-.73 0l-130.34 75.25L228.92 432l129.6-74.83a.72.72 0 0 0 .37-.63.74.74 0 0 0-.37-.64Z" style="fill:#10b981;opacity:.4"/><g style="opacity:.4"><path d="M185.07 403.06c6 2.89 4.65 7 0 10.86s-11.9 5.89-15.26 9.61-8.16 10.71-19.17 10.71-20.27-4.28-15.47-9.71 10-7 18.11-10.46 12.8-7.43 18-10.12c4.45-2.27 8.72-3.37 13.79-.89m-31.61-10.95c-5-3.45-12.09-2.69-18.8 0S124.45 399 118 400.92s-13.74 3.51-15.9 10.68c-1.84 6.08 6.19 11.79 14 10.09 6.78-1.46 12.35-6.57 18.26-11.23s12.87-7.39 17.54-10.41c3.96-2.55 5.86-4.99 1.56-7.94" style="fill:#10b981"/></g><path d="M135.17 418.35c4.81-5.43 10-7.05 18.11-10.47s12.8-7.43 18-10.12c4.42-2.27 8.64-3.37 13.76-.89 2.79 1.35 4 3 4 4.7v3.12c-.07 1.92-1.57 4-4 6-4.65 3.88-11.9 5.9-15.26 9.62S161.65 431 150.64 431c-8.94 0-16.73-2.82-16.76-6.78v-3a4.4 4.4 0 0 1 1.29-2.87" style="fill:#37474f"/><path d="M185.07 396.87c6 2.89 4.65 7 0 10.86s-11.9 5.89-15.26 9.62-8.16 10.7-19.17 10.7-20.27-4.27-15.47-9.7 10-7.05 18.11-10.47 12.8-7.43 18-10.12c4.45-2.27 8.72-3.37 13.79-.89" style="fill:#455a64"/><path d="M144.84 421.12a1.23 1.23 0 0 0 1.12-.71 9.61 9.61 0 0 1 6.9-5.23c5.39-.79 21-.73 21.15-.73a1.22 1.22 0 0 0 0-2.44c-.65 0-16-.05-21.51.75-6.12.89-8.67 6.41-8.78 6.64a1.24 1.24 0 0 0 .61 1.62 1.3 1.3 0 0 0 .51.1" style="fill:#10b981"/><path d="M146.19 419a1.22 1.22 0 0 0 1.2-1.23 11 11 0 0 0-.15-1.58c-.2-1.56-.42-3.19.68-4.57 1.42-1.8 4.86-3 10.2-3.52a1.22 1.22 0 1 0-.24-2.42c-6.11.61-10 2.06-11.87 4.43-1.74 2.19-1.42 4.62-1.18 6.4a12 12 0 0 1 .12 1.29 1.22 1.22 0 0 0 1.24 1.2" style="fill:#10b981"/><path d="M102.1 405.41c2.16-7.17 9.45-8.75 15.9-10.68s9.94-6.12 16.66-8.81 13.79-3.44 18.8 0c1.78 1.22 2.5 2.36 2.44 3.45v2.91c-.05 1.56-1.66 3-4 4.53-4.67 3-11.63 5.75-17.54 10.41s-11.48 9.77-18.26 11.23c-7.09 1.53-14.32-3-14.27-8.38v-3.16a5.7 5.7 0 0 1 .27-1.5" style="fill:#37474f"/><path d="M153.46 385.92c-5-3.44-12.09-2.69-18.8 0s-10.21 6.87-16.66 8.81-13.74 3.51-15.9 10.68c-1.84 6.08 6.19 11.79 14 10.1 6.78-1.46 12.35-6.58 18.26-11.23s12.87-7.39 17.54-10.42c3.96-2.55 5.86-4.99 1.56-7.94" style="fill:#455a64"/><path d="M114.22 409.65a1.24 1.24 0 0 0 1.18-.9c.21-.76 2.95-5.15 9.89-6.37a102 102 0 0 1 12.61-1.45 1.22 1.22 0 0 0 0-2.44 102 102 0 0 0-13.03 1.51c-7.7 1.35-11.36 6.43-11.82 8.13a1.21 1.21 0 0 0 .85 1.49 1.2 1.2 0 0 0 .32.03" style="fill:#10b981"/><path d="M115.63 407.44a1.21 1.21 0 0 0 1.15-1.64c0-.05-1.94-5.44-1-9.81.68-3 7.64-2.61 10-2.24a1.22 1.22 0 0 0 1.39-1 1.21 1.21 0 0 0-1-1.39c-1.17-.19-11.47-1.62-12.78 4.11-1.15 5.08 1 10.94 1 11.19a1.22 1.22 0 0 0 1.24.78" style="fill:#10b981"/><path d="m257.81 270.34-41.3-23.85V146.35l41.3 23.85z" style="fill:#263238"/><path d="m257.81 170.2 59.01-34.07v100.14l-59.01 34.07z" style="fill:#37474f"/><path d="m316.82 136.13-59.01 34.07-41.3-23.85 59-34.06z" style="fill:#455a64"/><path d="m263.71 234.56 47.21-27.26v23.04l1.08.63-47.2 27.25-1.09-.63z" style="fill:#263238"/><path d="m264.8 235.18 47.2-27.25v23.04l-47.2 27.25z" style="fill:#455a64"/><path d="m264.8 235.18 47.2-27.25v23.04l-47.2 27.25z" style="opacity:.05"/><path d="m283.3 230.06 8-4.63c1-.61 1.89-.33 1.89.61a3.78 3.78 0 0 1-1.89 2.79l-8 4.64c-1 .6-1.88.32-1.88-.62a3.77 3.77 0 0 1 1.88-2.79m-19.59-25.34 47.21-27.26v23.04l1.08.62-47.2 27.26-1.09-.63z" style="fill:#263238"/><path d="m264.8 205.34 47.2-27.25v23.03l-47.2 27.26z" style="fill:#455a64"/><path d="m264.8 205.34 47.2-27.25v23.03l-47.2 27.26z" style="opacity:.05"/><path d="m283.3 200.22 8-4.64c1-.6 1.89-.32 1.89.62a3.78 3.78 0 0 1-1.89 2.79l-8 4.64c-1 .6-1.88.32-1.88-.62a3.77 3.77 0 0 1 1.88-2.79m-19.59-25.35 47.21-27.25v23.03l1.08.63-47.2 27.25-1.09-.62z" style="fill:#263238"/><path d="m264.8 175.5 47.2-27.25v23.03l-47.2 27.25z" style="fill:#455a64"/><path d="m264.8 175.5 47.2-27.25v23.03l-47.2 27.25z" style="opacity:.05"/><path d="m283.3 170.38 8-4.64c1-.6 1.89-.33 1.89.62a3.78 3.78 0 0 1-1.89 2.79l-8 4.63c-1 .61-1.88.33-1.88-.61a3.77 3.77 0 0 1 1.88-2.79" style="fill:#263238"/><path d="m266.88 142.16-15.32-8.85 25.53-14.74 15.32 8.84z" style="fill:#37474f"/><path d="m267.37 136.69 1.05.51 19.49-11.25-1.06-.51z" style="fill:#10b981"/><path d="m267.37 136.69 1.05.51 19.49-11.25-1.06-.51z" style="opacity:.2"/><path d="m286.85 125.44-18.53 10.7-2.7-27.72 18.54-10.7z" style="fill:#10b981"/><g style="opacity:.8"><path d="m286.85 125.44-18.53 10.7-2.7-27.72 18.54-10.7z" style="fill:#fff"/></g><path d="m286.71 94.17-23.07 13.32 3.18 32.7 23.07-13.32Zm1.2 31.78-19.49 11.25-2.8-28.79 19.49-11.25Z" style="fill:#10b981"/><path d="m286.71 94.17-23.07 13.32 3.18 32.7 23.07-13.32Zm1.2 31.78-19.49 11.25-2.8-28.79 19.49-11.25Z" style="fill:#10b981"/><path d="m287.91 125.95-1.06-.51-2.69-27.72.95-.56z" style="fill:#10b981"/><path d="m287.91 125.95-1.06-.51-2.69-27.72.95-.56z" style="opacity:.35000000000000003"/><path d="m286.71 94.17-1.07-.49L262.57 107l1.07.49z" style="fill:#10b981"/><path d="m286.71 94.17-1.07-.49L262.57 107l1.07.49z" style="fill:#fff;opacity:.6000000000000001"/><path d="m262.57 107 1.07.49 3.18 32.7-1.07-.49z" style="fill:#10b981"/><path d="m262.57 107 1.07.49 3.18 32.7-1.07-.49z" style="opacity:.35000000000000003"/><path d="m286.04 124.92-17.09 9.86-.46-4.67 3.18-13.72 3.03 4.68-.63 3.95 5.06-14.56 6.45 9.78zm-14.63-14.31a2.41 2.41 0 0 0-1.13 2.11c.07.77.7 1.06 1.4.66a2.43 2.43 0 0 0 1.13-2.12c-.08-.76-.7-1.05-1.4-.65" style="fill:#10b981"/><path d="M254.93 152.66c-5.47 3.16-14.35 3.16-19.82 0s-5.47-8.28 0-11.44 14.35-3.16 19.82 0 5.47 8.28 0 11.44" style="fill:#37474f"/><path d="m237.14 147.21-1.78 3.1a.85.85 0 0 0 .29 1.16.86.86 0 0 0 1.16-.3l1.79-3.11a.88.88 0 0 0-1.46-.85m14.2-5.47 3.1 1.78a.85.85 0 1 0 .87-1.45l-3.12-1.79a.88.88 0 0 0-.85 1.46" style="fill:#263238"/><path d="m254.78 127.77-7.55-4.36c-1.66-1-3.94-.8-6.46.65-5.07 2.92-9.17 10-9.17 15.88 0 2.92 1 5 2.67 5.93l7.55 4.36c1.66.94 3.94.8 6.47-.65 5.06-2.93 9.17-10 9.17-15.89-.01-2.91-1.03-4.96-2.68-5.92" style="fill:#10b981"/><path d="m254.78 127.77-7.55-4.36c-1.66-1-3.94-.8-6.46.65-5.07 2.92-9.17 10-9.17 15.88 0 2.92 1 5 2.67 5.93l7.55 4.36c1.66.94 3.94.8 6.47-.65 5.06-2.93 9.17-10 9.17-15.89-.01-2.91-1.03-4.96-2.68-5.92" style="fill:#fff;opacity:.2"/><path d="m241.67 150.15-7.43-4.29c-1.65-1-2.67-3-2.67-5.93a18.3 18.3 0 0 1 2.17-8.09l7.55 4.36a18.1 18.1 0 0 0-2.17 8.09c-.01 2.84.96 4.87 2.55 5.86" style="opacity:.1"/><path d="M248.28 149.58c5.06-2.93 9.17-10 9.17-15.89s-4.11-8.21-9.17-5.29-9.17 10-9.17 15.88 4.1 8.22 9.17 5.3" style="fill:#fff;opacity:.4"/><path d="M244.18 149c-2.9 0-3.21-3.28-3.21-4.69 0-5.16 3.77-11.69 8.24-14.27a6.5 6.5 0 0 1 3.16-1c2.9 0 3.22 3.28 3.22 4.68 0 5.16-3.78 11.7-8.24 14.28a6.64 6.64 0 0 1-3.17 1" style="fill:#fafafa"/><path d="M251.42 142.64a.13.13 0 0 1-.19 0l-3.37-4.09a.13.13 0 0 1 0-.18.14.14 0 0 1 .19 0l3.37 4.09a.14.14 0 0 1 0 .18" style="fill:#10b981"/><path d="M248.28 132.93a.4.4 0 0 0-.4.4v6l.8-.52v-5.44a.4.4 0 0 0-.4-.44m-.58 6.42-1.19 3.38a.3.3 0 0 0 0 .16.41.41 0 0 0 .26.35.4.4 0 0 0 .51-.25l1-2.88Z" style="fill:#37474f"/><path d="M248.28 137.74c.59-.34 1.08-.06 1.08.63a2.39 2.39 0 0 1-1.08 1.86c-.6.35-1.08.07-1.08-.62a2.38 2.38 0 0 1 1.08-1.87" style="fill:#10b981"/><path d="M239.5 133.47c-1.3 2.25-3.75 3.27-5.59 2.2a4.71 4.71 0 0 1 4.71-8.15c1.84 1.07 2.19 3.69.88 5.95" style="fill:#37474f"/><path d="M233.91 135.67c1.84 1.07 4.29.05 5.59-2.2a5.6 5.6 0 0 0 .64-1.62c-.07.1-2.24 2.86-4.93 2.09a4 4 0 0 1-3-4.7 4.71 4.71 0 0 0 1.7 6.43" style="fill:#263238"/><path d="m233.15 128.78-1.39-.81a.85.85 0 1 0-.87 1.45l1.41.82a.77.77 0 0 0 1-.42.76.76 0 0 0-.15-1.04" style="fill:#10b981"/><path d="m233.15 128.78-1.39-.81a.85.85 0 1 0-.87 1.45l1.41.82a.77.77 0 0 0 1-.42.76.76 0 0 0-.15-1.04" style="fill:#fff;opacity:.4"/><path d="m254 122 .81-1.39a.85.85 0 0 0-.3-1.16.83.83 0 0 0-1.15.29l-.82 1.42a.75.75 0 0 0 .41 1A.77.77 0 0 0 254 122" style="fill:#10b981"/><path d="m254 122 .81-1.39a.85.85 0 0 0-.3-1.16.83.83 0 0 0-1.15.29l-.82 1.42a.75.75 0 0 0 .41 1A.77.77 0 0 0 254 122" style="fill:#fff;opacity:.4"/><path d="M247.24 122.62a4.71 4.71 0 0 1 8.15 4.71Z" style="fill:#37474f"/><path d="M254.37 121.39c.27.56 1 2.91 0 3.49s-5.55-1.35-5.55-1.35l6.57 3.8a4.7 4.7 0 0 0-1.02-5.94" style="fill:#263238"/><path d="M67.35 331 52 322.13a6.12 6.12 0 0 1-2.78-4.81v-90a6.15 6.15 0 0 1 2.78-4.8l135.27-78.09a6.12 6.12 0 0 1 5.56 0l15.31 8.84a6.14 6.14 0 0 1 2.78 4.81v90a6.18 6.18 0 0 1-2.78 4.82L72.91 331a6.12 6.12 0 0 1-5.56 0" style="fill:#455a64"/><path d="M211 158.08v90a6.18 6.18 0 0 1-2.78 4.82L72.91 331c-1.54.89-2.78.17-2.78-1.6v-90a6.15 6.15 0 0 1 2.78-4.82l135.27-78.09c1.53-.9 2.82-.18 2.82 1.59" style="fill:#263238"/><path d="M72.26 331.27a6.26 6.26 0 0 1-4.92-.3L52 322.13a6.13 6.13 0 0 1-2.77-4.81v-90a5.7 5.7 0 0 1 .81-2.74l20.87 12.05a5.7 5.7 0 0 0-.81 2.74v90c.03 1.51.9 2.26 2.16 1.9" style="fill:#37474f"/><path d="m293.1 419.14-12.87-7.43a3 3 0 0 0-2.78 0l-12.88 7.43a2.86 2.86 0 0 0-1 1c0 .09-.07.18-.12.27a2.7 2.7 0 0 0-.29 1.1v20.89a3.07 3.07 0 0 0 1.29 2.33 1 1 0 0 1 .1.08l12.88 7.43.16.07a2.6 2.6 0 0 0 .49.18 3 3 0 0 0 .74.09 2.8 2.8 0 0 0 1.39-.34l12.87-7.43a3.06 3.06 0 0 0 1.39-2.41v-20.86a3.06 3.06 0 0 0-1.37-2.4" style="fill:#455a64"/><path d="m280.23 452.27 12.87-7.43a3.06 3.06 0 0 0 1.39-2.41v-20.89c0-.88-.62-1.24-1.39-.8l-12.87 7.43a3.08 3.08 0 0 0-1.39 2.41v20.89c0 .89.62 1.25 1.39.8" style="fill:#37474f"/><path d="m413.06 349.88-12.87-7.43a3 3 0 0 0-2.78 0l-12.87 7.43a2.76 2.76 0 0 0-1 1 2 2 0 0 0-.11.26 2.8 2.8 0 0 0-.3 1.11v20.88a3.09 3.09 0 0 0 1.28 2.32l.11.08 12.89 7.47.17.06a2.3 2.3 0 0 0 .48.18 3 3 0 0 0 .74.09 2.86 2.86 0 0 0 1.39-.33l12.87-7.44a3.06 3.06 0 0 0 1.39-2.4v-20.87a3.06 3.06 0 0 0-1.39-2.41" style="fill:#455a64"/><path d="m400.19 383 12.87-7.44a3.06 3.06 0 0 0 1.39-2.4v-20.87c0-.89-.62-1.25-1.39-.81l-12.87 7.43a3.09 3.09 0 0 0-1.39 2.41v20.89c0 .89.62 1.25 1.39.79" style="fill:#37474f"/><path d="M204.89 226 74.38 301.32a10.74 10.74 0 0 0-4.85 8.41v4.62a10.74 10.74 0 0 0 4.85 8.41L274 438a10.74 10.74 0 0 0 9.72 0l130.51-75.33a10.74 10.74 0 0 0 4.86-8.41v-4.61a10.76 10.76 0 0 0-4.86-8.42L214.61 226a10.74 10.74 0 0 0-9.72 0" style="fill:#455a64"/><path d="M419.07 349.65v4.61a10.76 10.76 0 0 1-4.86 8.42L283.7 438a9.83 9.83 0 0 1-4.85 1.16v-15.83a9.83 9.83 0 0 0 4.85-1.16l130.51-75.32c2.5-1.46 2.67-3.74.49-5.3a10.85 10.85 0 0 1 4.37 8.1" style="fill:#263238"/><path d="M74.39 306.93c-2.55-1.47-2.68-3.81-.37-5.36a10.8 10.8 0 0 0-4.49 8.16v4.62a10.74 10.74 0 0 0 4.85 8.41L274 438a9.93 9.93 0 0 0 4.87 1.16v-15.83a9.84 9.84 0 0 1-4.86-1.16Z" style="fill:#37474f"/><path d="M204.89 199.72 74.38 275.05a10.73 10.73 0 0 0-4.85 8.41v9.83a10.75 10.75 0 0 0 4.85 8.42L274 417a10.74 10.74 0 0 0 9.72 0l130.51-75.33a10.74 10.74 0 0 0 4.86-8.41v-9.83a10.76 10.76 0 0 0-4.86-8.42L214.61 199.72a10.74 10.74 0 0 0-9.72 0" style="fill:#10b981"/><path d="M74.38 280.66 274 395.9a10.74 10.74 0 0 0 9.72 0l130.51-75.33c2.68-1.55 2.68-4.06 0-5.61L214.61 199.72a10.74 10.74 0 0 0-9.72 0L74.38 275.05c-2.68 1.55-2.68 4.06 0 5.61" style="fill:#fff;opacity:.8"/><path d="M419.07 323.38v9.83a10.76 10.76 0 0 1-4.86 8.42L283.7 417a9.83 9.83 0 0 1-4.85 1.16v-21.1a9.83 9.83 0 0 0 4.85-1.16l130.51-75.32c2.5-1.46 2.67-3.74.49-5.3a10.83 10.83 0 0 1 4.37 8.1" style="fill:#fff;opacity:.5"/><path d="M74.39 280.66c-2.55-1.47-2.68-3.81-.37-5.36a10.8 10.8 0 0 0-4.49 8.16v9.83a10.75 10.75 0 0 0 4.85 8.42L274 417a10 10 0 0 0 4.87 1.16v-21.1a9.84 9.84 0 0 1-4.87-1.16Z" style="fill:#fff;opacity:.6000000000000001"/><path d="M121.42 307.82v36.84l157.43 90.88v-38.48a10.06 10.06 0 0 1-4.85-1.16Z" style="fill:#10b981"/><path d="M121.42 307.82v36.84l157.43 90.88v-38.48a10.06 10.06 0 0 1-4.85-1.16Z" style="opacity:.45"/><path d="M414.21 320.58c2.5-1.46 2.67-3.74.49-5.3a10.83 10.83 0 0 1 4.37 8.1v31.23l-140.22 80.93v-38.48a10 10 0 0 0 4.85-1.16Z" style="fill:#10b981"/><path d="M414.21 320.58c2.5-1.46 2.72-3.81.49-5.3a10.82 10.82 0 0 1 4.37 8.1v31.23l-140.22 80.93v-38.48a10 10 0 0 0 4.85-1.16Z" style="opacity:.30000000000000004"/><path d="m414.21 315-152.58-88.13-140.21 80.95L274 395.9a10.74 10.74 0 0 0 9.72 0l130.51-75.33c2.66-1.57 2.66-4.06-.02-5.57" style="fill:#10b981"/><path d="M132.63 314.29v36.91l2.28 1.24-.01-36.84z" style="opacity:.2"/><path d="M274.71 234.42 134.9 315.6l-2.27-1.31 139.8-81.19z" style="opacity:.2"/><path d="M237.43 221.92c1.57-5.77-.75-8.78-3.94-14.14s-10.57-15.73-13.61-20.17-6.4-8.81-8.22-9.42-3-1.34-7.84.4-14.77 7.65-27.11 14.45-28.78 16.47-29.55 23.13c-.47 4.12 21.26 40.38 26.54 40.92 11.76 1.21 24.14-7.56 30.69-11.5 10.91-6.59 18.72-11.45 26.28-16.59 3.42-2.3 6.02-4.4 6.76-7.08" style="fill:#f0f0f0"/><path d="M152.88 230.72c2.87 4.66 11.25 17.32 14.16 21.07s8 8 9.14 3.2-3.32-10.87-6.38-15.63-11.59-16-14.36-19.67-7.37-7.25-8.46-3 3.02 9.36 5.9 14.03" style="fill:#e0e0e0"/><path d="M171.58 260.35c1.58-5.77-.75-8.78-3.94-14.14S157.07 230.48 154 226s-6.4-8.81-8.22-9.42-3-1.34-7.84.4-14.77 7.65-27.11 14.45-28.75 16.51-29.51 23.17c-.47 4.12 21.26 40.38 26.54 40.92C119.61 296.73 132 288 138.55 284c10.91-6.59 18.72-11.45 26.28-16.57 3.42-2.3 6.02-4.43 6.75-7.08" style="fill:#f0f0f0"/><path d="M87 269.15c2.88 4.66 11.25 17.32 14.16 21.07s8 8 9.15 3.2-3.31-10.87-6.31-15.63-11.59-16-14.36-19.67-7.38-7.25-8.46-3 2.98 9.36 5.82 14.03" style="fill:#e0e0e0"/><path d="m318.99 313.28 46.15-26.65-103.51-59.76-41.81 24.05z" style="fill:#10b981"/><path d="m272.79 233.28-28.16 16.26 2.35 1.38 28.16-16.26z" style="opacity:.2"/><path d="M218 163.19c-1.36-3.76-1-5.42-3.86-5.66s-4.67-.22-7.61-.48c-2.64-.24-3.23-.35-5.64-3.6s-3.62-5.57-2.92-6.67 1.81-1.37 3.92-.89c0-2.22-.57-3.86.4-4.23a2.56 2.56 0 0 1 2 .22 12 12 0 0 0 .71-1.53c.5-1.2 2.31-.4 2.31-.4a10 10 0 0 1 1.21-1.07c.7-.54 2.21.56 3.21 1.47a8.6 8.6 0 0 1 1.52 1.8 17.6 17.6 0 0 1 7.56 2.52c3.27 2.21 2.88 4.12 4.38 6.53s12.15 21.17 14.45 26 4.12 12.61 0 15.12l-18.74-14.86c-.9-4.15-.67-8.17-2.9-14.27" style="fill:#ffa8a7"/><path d="M220.54 175.45c.1.69.22 1.37.36 2l13 10.61c2.35.12 3.29-1.56 2.77-3.06-2.27-6.34-9.11-9.41-16.13-9.55m-17.47-25.39c-.73-1.2-.69-2.74-1.16-4.17 0 .75 0 1.48.06 2.23a5 5 0 0 0 .62 2.21 11.5 11.5 0 0 0 1.34 1.81 2.2 2.2 0 0 1 .56.85.58.58 0 0 1-.48.74.7.7 0 0 0 .74-.78 2.35 2.35 0 0 0-.49-1.07c-.41-.62-.85-1.2-1.19-1.82m10.57-6.88a2.8 2.8 0 0 0-.37-1c0 .73-.08 1.41-.05 2.11a1 1 0 0 1-.23.77 1.7 1.7 0 0 1-.68.34 3 3 0 0 0 .12-.32 2.27 2.27 0 0 0-.07-1.36 4.2 4.2 0 0 0-.75-1.11 8.57 8.57 0 0 0-4.28-2.63 14.6 14.6 0 0 1 2.09 1.34 14 14 0 0 1 1.78 1.68 3.6 3.6 0 0 1 .68.93A2.1 2.1 0 0 1 212 145a3.7 3.7 0 0 1-.39 1.12 2.4 2.4 0 0 1-.51.77 1.1 1.1 0 0 0-.09-.3 6 6 0 0 0-1.15-1.25 26 26 0 0 0-2.56-2 9.1 9.1 0 0 0-2.93-1.41 14.5 14.5 0 0 1 2.68 1.74c.82.68 1.65 1.36 2.44 2.07a6.7 6.7 0 0 1 1.06 1.08c.18.32-.06.82-.37 1.2a2.91 2.91 0 0 1-2.36 1.25l-.13-.19c-.14-.19-.29-.37-.44-.55a11 11 0 0 0-.89-.92 10.4 10.4 0 0 0-.42-3 5.84 5.84 0 0 0-1.65-2.67 7.7 7.7 0 0 1 1.23 2.78 14.6 14.6 0 0 1 .3 3v.12l.09.08c.33.3.66.62 1 .94s.54.65.89 1a3.92 3.92 0 0 0 2.56 1.11 4.6 4.6 0 0 1-2.26-1.37 2.4 2.4 0 0 1-.21-.31 1.83 1.83 0 0 0 1.26-.08 5 5 0 0 0 1.37-1 2.3 2.3 0 0 0 .5-.72 1.36 1.36 0 0 0 .11-.61 2.4 2.4 0 0 0 .74-.71 7 7 0 0 0 .41-.75 1.3 1.3 0 0 0 1-.12 1.17 1.17 0 0 0 .52-1.11 6.4 6.4 0 0 0-.16-1.01" style="fill:#f28f8f"/><path d="M217.73 148.39a4.73 4.73 0 0 0-2.84-1.3 8.2 8.2 0 0 0-3.33.32 6 6 0 0 0-2.51 1.8s0 .1 0 .08a15 15 0 0 1 2.78-.9 8.3 8.3 0 0 1 2.67-.34 6.5 6.5 0 0 1 2.74.72 5.75 5.75 0 0 1 1.86 2.23c.05.1.1-.05.09-.1a4.93 4.93 0 0 0-1.46-2.51" style="fill:#f28f8f"/><path d="M186.88 174.31c5.58-.64 9.5.05 19.23 1.66 10.73 1.78 14.79 1.49 14.79 1.49s8.93 0 14.13 5.58a20.7 20.7 0 0 1 4.63 9.23c-2.69 1.45-7.2 3.59-21.09 4.5s-26 1.24-26 1.24Z" style="fill:#ffa8a7"/><path d="M187.28 173.39c5.49-.15 8 .45 12.84 1.21s16 2.31 16 2.31 2.64 1.51 3.79 8.13a24 24 0 0 1-1.62 12.63L192.54 199Z" style="fill:#10b981"/><path d="M157.06 265.47c-4.39-6.55-10.67-34.35-11-44.22-.65-17.14-2.16-37.3-2.39-40.34 9.92-3.26 11.78-3.51 23.12-5.07l.56-.08c13.5-1.85 19.9-1.87 20-1.87 14.22 2.74 16.14 15.93 18 28.69l.15 1a59.5 59.5 0 0 1 .57 11.23v.28l.23.16c4.22 3 4.79 11.29 4.87 13.4-22.81.61-47.07 25.63-54.11 36.82" style="fill:#fafafa"/><path d="M187.18 174.39c13.88 2.73 15.78 15.71 17.61 28.27l.15 1a61.6 61.6 0 0 1 .57 11.13v.56l.46.32c3.76 2.64 4.5 9.87 4.64 12.5-22.33.93-46 24.88-53.5 36.35-4.32-7.46-10.19-33.78-10.55-43.31-.62-16.53-2.06-35.88-2.37-40 9.56-3.13 11.51-3.39 22.67-4.92l.56-.08a174 174 0 0 1 19.8-1.87m.1-1s-6.34 0-20 1.88c-12 1.64-13.69 1.84-24.14 5.28 0 0 1.71 22 2.42 40.72.38 10.09 6.95 39.53 11.58 45.09 7.12-11.9 32.14-37 54.5-37.19 0 0 0-10.72-5.1-14.3a61 61 0 0 0-.57-11.34c-1.9-12.95-3.59-27.25-18.65-30.14Z" style="fill:#e0e0e0"/><path d="M184 137.31a5.89 5.89 0 0 1 5.6 3.63c1.74 3.5-.77 9.66-3.23 16.13a50.7 50.7 0 0 1-5.92 11.58 5.1 5.1 0 0 1-3.24 2l1.16-7.89.56-5s-3.85-1.32-3.49-9.83a24.2 24.2 0 0 1 1.61-8.23Zm-14.27 5.74a11.28 11.28 0 1 1-9.79-12.59 11.29 11.29 0 0 1 9.79 12.59" style="fill:#263238"/><path d="M161.53 172s-5-.08-7.05-.87c-3.79-1.44-5.65-4.08-6-10.62-.44-7.75 1.95-20.36 5-25.09 4.45-2.65 16.74-2.12 24.62 4.33-4 9.14.16 11.82-.17 14.44-.27 2-.12 2.62.81 2.89 1.46.42 2.1-2 4.4-3.23 1.44-.76 5.65-1.42 7 2.63s-2.33 8.4-5.21 9.34c-3.24 1.06-4.77-.58-4.77-.58l-.29 9.85c9.27 10-12.47 14.11-18.27 2.78Z" style="fill:#ffa8a7"/><path d="M161.53 172c4.85.15 10.05-1 12.38-3.39a20.6 20.6 0 0 0 3.76-6.5s-1.08 5.69-3.12 8.27-7 4.06-13 3.71c0-.26-.02-2.09-.02-2.09" style="fill:#f28f8f"/><path d="M168.61 152.14c.06 1-.77-.22-1.76-.16s-1.78 1.36-1.83.37a1.8 1.8 0 1 1 3.59-.21m-12.61-.85c-.35.93-.61-.52-1.54-.88s-2.18.52-1.82-.41a1.8 1.8 0 1 1 3.36 1.29m-3.95-26.91a.36.36 0 0 1 .25 0 .85.85 0 0 1 .37.38 4.55 4.55 0 0 0 2.08 1.7c.06-1.8.4-3.76 1.76-4.93a1.46 1.46 0 0 1 1.15-.42 1.88 1.88 0 0 1 1 .75 7.37 7.37 0 0 0 3.75 2.54 5 5 0 0 1-.4-1.64 1.76 1.76 0 0 1 .32-1.17 19.6 19.6 0 0 0 5.91 3c2.06.73 4.35.78 6.46 1.38 4.34 1.24 9.16 4.35 10.07 9.1.41 2.17.05 4.26-2.08 5.15-1.81.76-4-.14-5.94-.29-9.08-.68-20.45 4.16-24.84-5.58-1-2.18-1.57-7.3-.42-9.42a1.1 1.1 0 0 1 .56-.55m14.86 21.77 3.57 2.57a2.3 2.3 0 0 0-.53-3.15 2.14 2.14 0 0 0-3.04.58m-14.31-.73 4.39-.62a2.13 2.13 0 0 0-2.43-1.91 2.32 2.32 0 0 0-1.96 2.53" style="fill:#263238"/><path d="m161.9 147.46-2.45 11.17-5.34-2.77z" style="fill:#f28f8f"/><path d="M164.85 160.81c-.74-.78-1.47 0-3.13.27s-2.62-.47-3 .52c-.5 1.24.87 2.8 3.44 2.44s3.53-2.35 2.69-3.23" style="fill:#b16668"/><path d="M160.57 164a4.26 4.26 0 0 1 4.42-2.57h.12c.06 1-1 2.31-3 2.58a4.8 4.8 0 0 1-1.54-.01" style="fill:#f28f8f"/><path d="M93.61 223.86c3.72 1.87 7.14 3.68 18.09-1.29s29.62-16.77 33.57-16.83c5.63-18.89-1.6-24.78-1.6-24.78-4.53 1.11-7.51 2-15.14 7.24-8.56 5.83-28.29 18.38-28.29 18.38Z" style="fill:#ffa8a7"/><path d="m100.24 206.58-3.65 9.53 7.67 3.7c7.4-3.07 10.66-9.21 12.95-15.49a86 86 0 0 0 3-10.59c-9.12 5.95-19.97 12.85-19.97 12.85" style="fill:#f28f8f"/><path d="M109.06 180.23a159 159 0 0 1-9.87 15c-5.62 7.88-7.84 14.31-8.59 18.62-.5 2.91-2.21 7.25 3 10 6-1.73 14.31-4.12 18.46-11.66s4.08-10.55 5.4-15.54c1.92-7.29 2.29-8.82 3.86-11.13a29.6 29.6 0 0 1 7-7.19c3-2.16 4.19-3.66 4.08-6.91a38 38 0 0 0-.82-6.34c-.15-.89-1.3-.63-2.64-2.79s-1.52-3.13-2.58-2.24a2.39 2.39 0 0 0-.92 2 2 2 0 0 0-2.43.28c-1-1.19-1.69-.78-3.65.59-.8-1.26-.83-1.78-3.24-.44a18 18 0 0 0-4.72 3.5c-.89 1-1.21 3.89-1.08 6a18.3 18.3 0 0 1-1.26 8.25" style="fill:#ffa8a7"/><path d="M127.69 166.51a6.8 6.8 0 0 1-1.43-2 9 9 0 0 1-.85-2.43 5.5 5.5 0 0 0 .4 2.63 5.6 5.6 0 0 0 1.42 2.12 7.7 7.7 0 0 0-.22 1.59v.33c-.41.22-.8.48-1.18.73s-.85.6-1.27.89a3.3 3.3 0 0 1-1.25.67 1 1 0 0 1-.95-.5 3.2 3.2 0 0 0 1.15-.82 2.87 2.87 0 0 0 .73-1.89l-.16-1.88a9 9 0 0 0-1.11-3.59 12.3 12.3 0 0 1 .67 3.62c0 .61 0 1.28.06 1.85a2.35 2.35 0 0 1-.63 1.51 2.17 2.17 0 0 1-1.39.81c-.61 0-1.23.07-1.84.07a4.25 4.25 0 0 1-1.74-.28.9.9 0 0 1-.29-1.15c.34-.17.68-.33 1-.52a2.88 2.88 0 0 0 1.4-1.51 3 3 0 0 0-.15-2c-.25-.6-.49-1.21-.76-1.79.15.63.33 1.25.5 1.87a2.7 2.7 0 0 1 0 1.78c-.48 1.09-1.87 1.44-3 2l-.87.43-.43.22-.22.1a.4.4 0 0 1-.14.05c-.38.07-.74-.6-.7-1.15a2.83 2.83 0 0 1 .78-1.61 3.9 3.9 0 0 0 .61-1.86 3.4 3.4 0 0 1-.32.9 5 5 0 0 1-.25.41l-.07.12a3.3 3.3 0 0 1-.94-1 3.6 3.6 0 0 0 .78 1.24 3.1 3.1 0 0 0-1 1.76 1.75 1.75 0 0 0 .18 1.07 1.06 1.06 0 0 0 1 .65 1.2 1.2 0 0 0 .33-.09l.21-.11.44-.21.88-.42.61-.31a1.4 1.4 0 0 0-.13.4 1 1 0 0 0 .37.93 4.3 4.3 0 0 0 1.88.49 15 15 0 0 0 1.9 0 2 2 0 0 0 .55-.11 1.8 1.8 0 0 0 .24.5 1.16 1.16 0 0 0 .81.39 2.8 2.8 0 0 0 1.57-.63 11 11 0 0 0 1.22-1 11 11 0 0 0 .9-1 1.8 1.8 0 0 0 .06.47 1.5 1.5 0 0 0 .37.81 1.8 1.8 0 0 1-.15-.83 8 8 0 0 1 .09-.84 13 13 0 0 1 .41-1.65v-.17Z" style="fill:#f28f8f"/><path d="M128.66 170.91a4.82 4.82 0 0 0-3.19-.74 12.2 12.2 0 0 0-3.64 1c-1.91.86-4.9 2.23-5.21 4.58 0 0 0 .13.07.09a13.4 13.4 0 0 1 2.36-2.09 23 23 0 0 1 2.92-1.5 13.4 13.4 0 0 1 3.19-1c.46-.07.92-.1 1.39-.14s.67-.07 1-.08a11 11 0 0 0 1.11.06c.12.02.05-.09 0-.18m-17.35 7.8a5.15 5.15 0 0 0 2 .77c.23 0-.08-.25-.18-.29a6 6 0 0 1-.86-.47 3.7 3.7 0 0 1-.71-.59 8.7 8.7 0 0 1-1.28-1.55 3 3 0 0 1-.16-.29c-.06.41-.13.81-.21 1.22a5 5 0 0 0 1.4 1.2" style="fill:#f28f8f"/><path d="M147.15 179.21c-4.16.38-7.37 1.35-13.58 5.42-6 4-12.81 8.73-12.81 8.73a24.3 24.3 0 0 1 3.92 10.76c.7 6.37-1.55 12.4-3.46 13.94l15.71-8c4.08-2.1 7.14-3.24 8-1.45 1.19.69 3.66-.65 5.41-5.55s3.77-19.32-3.19-23.85m-25.73 128.61c8.35-4.94 17.39-10.13 22-12.73 3.59-2 5.66-4.65 7.67-8.7 4.3-8.7 9.17-37.4 17.65-47.8s35.78-20.77 42.71-22.26c4.85-1 10.31 1 10.31 1a69.4 69.4 0 0 1 14-1.66c5.93 0 10.37 1.46 18.12 17.67 7.86 16.42 15.7 34.74 19.85 38.35s16.37 9.14 18.74 13.26S319 313.28 319 313.28l-94.22 54.39Z" style="fill:#10b981"/><path d="M162.84 285.17c6.26-22 9.32-37.15 22.47-47.49s27.83-15.56 32.21-15.45l.41 2.87a82.7 82.7 0 0 0-24.11 10.81c-11.55 7.55-16.82 11.27-30.98 49.26" style="opacity:.2"/><path d="M213 230.53c10.87-5.85 21-9.15 25.16-4 .1.13.2.25.29.38 3.44 4.83 5.14 10.51 6.59 16.18 1.11 4.3 12.91 41.5 13.46 46.25.26 2.22 0 4.2-2.08 2.21s-3.7-4.95-5.11-7.55c-4.46-8.21-16.72-35.51-22.5-42.62s-7.91-10.02-15.81-10.85m33.82 82.75c-1.63-6.14-4.5-7.8-11.23-14.31s-14.09-45.27-24.77-53.25-29.52-2.56-25.54-5.87L181 229.14c-5.12 3-9.6 6.21-12.24 9.45-8.48 10.4-13.35 39.1-17.65 47.8-2 4.05-4.08 6.7-7.67 8.7-4.66 2.6-13.7 7.79-22 12.73l103.35 59.85Z" style="opacity:.1"/><path d="M132.63 314.31c15.79-8.83 23.86-16.31 26.05-19.22-5.22 10.27-23.78 20.53-23.78 20.53Z" style="opacity:.2"/><path d="M243.11 217.6c5 5.27 10.1 17.86 16.89 33.32s7.95 20.6 14.78 24.34 15.45 7.79 17.08 14.63 8.41 8.16 8.41 8.16-4.51-1.4-5.41-5-.48-6.65-4.73-11.17c-4.47-4.72-14.87-8.59-17.29-11.86-2.8-3.79-11.07-20.34-15.81-30.19s-8.62-19.18-13.92-22.23" style="fill:#fff;opacity:.2"/><path d="M201.81 233.35c8-3.82 18.45-4.41 24.23 2S251.32 284 251.32 284s-13-24.77-18.93-34.28-8.07-14.35-13.27-16.33c-6.27-2.39-11.88-1.66-17.31-.04" style="fill:#10b981"/><path d="M201.81 233.35c8-3.82 18.45-4.41 24.23 2S251.32 284 251.32 284s-13-24.77-18.93-34.28-8.07-14.35-13.27-16.33c-6.27-2.39-11.88-1.66-17.31-.04" style="fill:#fff;opacity:.2"/></svg>