<svg xmlns="http://www.w3.org/2000/svg" viewBox="0 0 500 500"><path d="M409 250.09c-88.37-51.09-231.24-51.09-319.08 0S2.55 383.89 91 434.93s231.28 51.05 319.12 0 87.33-133.8-1.12-184.84" style="fill:#f5f5f5"/><path d="m134.09 366.56 83.46-48.2 47.8 27.54a43.5 43.5 0 0 1 11.88-9.67c23.76-13.72 62.15-13.72 85.76 0s23.48 35.95-.28 49.67a71.6 71.6 0 0 1-16.26 6.71l6.7 3.86a3 3 0 0 1 0 5.24l-77.4 44.71a12.11 12.11 0 0 1-12.1 0L134.1 371.81a3 3 0 0 1-.01-5.25m-74.42-35.49 16.49 9.52a15 15 0 0 0 15 0l109.66-63.37-27.21-15.45L59.67 327.6a2 2 0 0 0 0 3.47m369.96 50.41c-6.54-3.78-17.11-3.78-23.61 0s-6.46 9.89.08 13.67 17.11 3.78 23.61 0 6.46-9.9-.08-13.67" style="fill:#e0e0e0"/><path d="m433.7 359.75-15.83.46-15.87-.46c-.68 10.69 1.41 21.59 4.29 26.91a7.16 7.16 0 0 0 3.13 3.19c4.67 2.7 12.22 2.7 16.86 0a7 7 0 0 0 3.14-3.27c2.89-5.35 4.96-16.19 4.28-26.83" style="fill:#fff"/><path d="M429 353.27c6.21 3.58 6.24 9.39.08 13s-16.19 3.58-22.39 0-6.24-9.39-.08-13 16.21-3.58 22.39 0" style="fill:#ebebeb"/><path d="M426.57 354.69c4.84 2.8 4.87 7.33.06 10.12s-12.63 2.8-17.47 0-4.87-7.32-.06-10.12 12.63-2.79 17.47 0" style="fill:#e0e0e0"/><path d="M426.57 354.69c4.84 2.8 4.87 7.33.06 10.12s-12.63 2.8-17.47 0-4.87-7.32-.06-10.12 12.63-2.79 17.47 0" style="opacity:.15"/><path d="M443.9 292.19c-35.68 11.68-36 35.55-28 52.55 2 3.44 8.17 5.29 13.51-15.85l-9.37 1.2 10.96-5.54 2.84-8.48-9.11.68 11.56-4.86a171 171 0 0 1 7.61-19.7" style="fill:#10b981"/><path d="M443.9 292.19c-35.68 11.68-36 35.55-28 52.55 2 3.44 8.17 5.29 13.51-15.85l-9.37 1.2 10.96-5.54 2.84-8.48-9.11.68 11.56-4.86a171 171 0 0 1 7.61-19.7" style="opacity:.2"/><path d="M443.9 292.19c-35.68 11.68-36 35.55-28 52.55 2 3.44 8.17 5.29 13.51-15.85l-9.37 1.2 10.96-5.54 2.84-8.48-9.11.68 11.56-4.86a171 171 0 0 1 7.61-19.7" style="fill:#fff;opacity:.2"/><path d="M433.81 298.16c-18.82 14.28-20.52 30.65-15.2 47.74-1.88-15.05-3.92-30.26 15.2-47.74" style="fill:#fff"/><path d="M383.46 316.44c35.17 4.95 39.44 27.13 34.77 44.29-1.31 3.55-6.72 6.29-15.21-12.51l8.92-.44-11.09-3.34-4.05-7.44 8.6-.88-11.58-2.61a160 160 0 0 0-10.36-17.07" style="fill:#10b981"/><path d="M383.46 316.44c35.17 4.95 39.44 27.13 34.77 44.29-1.31 3.55-6.72 6.29-15.21-12.51l8.92-.44-11.09-3.34-4.05-7.44 8.6-.88-11.58-2.61a160 160 0 0 0-10.36-17.07" style="fill:#fff;opacity:.2"/><path d="M383.46 316.44c35.17 4.95 39.44 27.13 34.77 44.29-1.31 3.55-6.72 6.29-15.21-12.51l8.92-.44-11.09-3.34-4.05-7.44 8.6-.88-11.58-2.61a160 160 0 0 0-10.36-17.07" style="opacity:.1"/><path d="M393.85 320.32c19.9 10.17 24.2 25.14 22.09 41.94-.75-14.33-1.38-28.84-22.09-41.94" style="fill:#fff"/><path d="M454.19 324.75c-32.25.52-38.58 20-36.3 36 .79 3.34 5.36 6.42 15.12-9.58l-8-1.39 10.37-1.78 4.49-6.24-7.65-1.76 10.72-1a147 147 0 0 1 11.25-14.25" style="fill:#10b981"/><path d="M444.39 327.08c-19.07 6.95-24.62 19.95-24.6 35.33 2.28-12.83 4.48-25.83 24.6-35.33" style="fill:#fff"/><path d="M454.19 324.75c-32.25.52-38.58 20-36.3 36 .79 3.34 5.36 6.42 15.12-9.58l-8-1.39 10.37-1.78 4.49-6.24-7.65-1.76 10.72-1a147 147 0 0 1 11.25-14.25" style="fill:#fff;opacity:.2"/><path d="M66.67 147.59c-2.1 1.22-2.11 3.19 0 4.41l12.78 7.42a8.35 8.35 0 0 0 7.6 0l105-60.64L171.7 87Z" style="fill:#f0f0f0"/><path d="M91.1 156.48c-4.37 2.52-11.45 2.52-15.79 0l-12.77-7.42c-2.23-1.3-3.3-3-3.23-4.7v181.42c-.06 1.69 1 3.39 3.23 4.67l12.77 7.42c4.34 2.53 11.42 2.53 15.79 0L201.76 274V92.59Z" style="fill:#10b981"/><path d="M91.1 156.48c-4.37 2.52-11.45 2.52-15.79 0l-12.77-7.42c-2.23-1.3-3.3-3-3.23-4.7v181.42c-.06 1.69 1 3.39 3.23 4.67l12.77 7.42c4.34 2.53 11.42 2.53 15.79 0L201.76 274V92.59Z" style="opacity:.25"/><path d="m66.64 146.68.8.47L171.7 87l5.63 3.27V78.39L66.67 142.28c-2.1 1.21-2.11 3.19-.03 4.4" style="fill:#10b981"/><path d="m66.64 146.68.8.47L171.7 87l5.63 3.27V78.39L66.67 142.28c-2.1 1.21-2.11 3.19-.03 4.4" style="opacity:.25"/><path d="m197.68 90.22-5.62 3.25L87 154.11a8.41 8.41 0 0 1-7.6 0l-12-7-.8-.47c-2.08-1.21-2.07-3.19 0-4.4l110.73-63.85-4.08-2.39-110.66 63.91c-2.13 1.23-3.22 2.83-3.28 4.45s1 3.4 3.23 4.7l12.77 7.42c4.34 2.52 11.42 2.52 15.79 0l110.66-63.89Z" style="fill:#10b981"/><path d="m197.68 90.22-5.62 3.25L87 154.11a8.41 8.41 0 0 1-7.6 0l-12-7-.8-.47c-2.08-1.21-2.07-3.19 0-4.4l110.73-63.85-4.08-2.39-110.66 63.91c-2.13 1.23-3.22 2.83-3.28 4.45s1 3.4 3.23 4.7l12.77 7.42c4.34 2.52 11.42 2.52 15.79 0l110.66-63.89Z" style="opacity:.25"/><path d="m197.68 90.22-5.62 3.25L87 154.11a8.41 8.41 0 0 1-7.6 0l-12-7-.8-.47c-2.08-1.21-2.07-3.19 0-4.4l110.73-63.85-4.08-2.39-110.66 63.91c-2.13 1.23-3.22 2.83-3.28 4.45s1 3.4 3.23 4.7l12.77 7.42c4.34 2.52 11.42 2.52 15.79 0l110.66-63.89Z" style="fill:#fff;opacity:.25"/><path d="m75.31 156.48-12.77-7.42c-2.23-1.3-3.3-3-3.23-4.7v181.42c-.06 1.69 1 3.39 3.23 4.67l12.77 7.42a16.2 16.2 0 0 0 8.69 1.87V158.35a16.4 16.4 0 0 1-8.69-1.87" style="fill:#fff;opacity:.15"/><path d="M119.52 170.76a.44.44 0 0 1 .5 0 .77.77 0 0 1 .3.47 1.9 1.9 0 0 1-.21.89 2.4 2.4 0 0 1-.5.67 6.3 6.3 0 0 0-1.43 1.74 11.5 11.5 0 0 0-1.1 2.31c-.5 1.4-1 2.91-1.36 4.53s-1 3.85-1.6 6.66q-1.58 6.78-2.87 11.2a40 40 0 0 1-3.48 8.28 14.65 14.65 0 0 1-5.37 5.71q-2.62 1.52-4.36.72c-1.15-.53-1.73-1.75-1.73-3.66a12.4 12.4 0 0 1 .82-4.35 16.7 16.7 0 0 1 2.21-4.2 10.1 10.1 0 0 1 2.93-2.8 4.5 4.5 0 0 1 1.21-.5.43.43 0 0 1 .45.09.7.7 0 0 1 .17.51 1.67 1.67 0 0 1-.33 1 1.7 1.7 0 0 1-.58.58l-.21.1a3.2 3.2 0 0 0-.66.29 6.75 6.75 0 0 0-2.1 2.05 13 13 0 0 0-1.57 3.08 9 9 0 0 0-.6 3.08c0 1.43.42 2.31 1.24 2.63a3.56 3.56 0 0 0 3.06-.57 12.4 12.4 0 0 0 4.59-5.17 38 38 0 0 0 3-7.48q1.09-3.88 2.54-10.17c.57-2.64 1.1-4.86 1.56-6.67s1-3.47 1.49-5a15.4 15.4 0 0 1 1.6-3.26 10.8 10.8 0 0 1 2.18-2.55Z" style="fill:#10b981"/><path d="M118.48 168.49q5.56-2.93 8.28-.21t2.74 9.79a47.2 47.2 0 0 1-1.51 11.4 44.3 44.3 0 0 1-4.42 11.27 19.14 19.14 0 0 1-6.82 7.38q-3 1.75-5 1.17c-1.29-.38-1.94-1.53-2-3.44a9 9 0 0 1 1.26-4.51 8.4 8.4 0 0 1 3-3.23 2.51 2.51 0 0 1 4.05 1.5.8.8 0 0 1 0 .27 2.1 2.1 0 0 1-.22.87 1.6 1.6 0 0 1-.61.65c-.42.24-.69.18-.83-.18a2.33 2.33 0 0 0-1-1.22 1.4 1.4 0 0 0-1.41.12 4.9 4.9 0 0 0-1.79 2 5.7 5.7 0 0 0-.74 2.73c0 1.37.51 2.12 1.52 2.28a5.94 5.94 0 0 0 3.65-1 16.25 16.25 0 0 0 5.91-6.65 41.6 41.6 0 0 0 3.81-10.24 44 44 0 0 0 1.28-10.15c0-4.17-.77-7.06-2.27-8.64s-3.84-1.57-7 .06a21.1 21.1 0 0 0-6.38 5.74 27.8 27.8 0 0 0-4.1 8 30.3 30.3 0 0 0-1.45 9.1 1.73 1.73 0 0 1-.25.87 1.66 1.66 0 0 1-.62.64.6.6 0 0 1-.6.06.56.56 0 0 1-.28-.56 32.7 32.7 0 0 1 1.7-10.31 31.6 31.6 0 0 1 4.74-9.11 24.2 24.2 0 0 1 7.36-6.45m19.19-4.04a1 1 0 0 1 1-.1 1 1 0 0 1 .42.91 2.9 2.9 0 0 1-.41 1.39 2.8 2.8 0 0 1-1 1 1 1 0 0 1-1 .11.91.91 0 0 1-.44-.89 2.8 2.8 0 0 1 .43-1.41 3 3 0 0 1 1-1.01m52-13.03q.54 0 .54.6a2.6 2.6 0 0 1-.08.48 53.8 53.8 0 0 1-4.83 11.5 37.4 37.4 0 0 1-7.24 8.94 43.8 43.8 0 0 1-3.45 9.49 12 12 0 0 1-4.17 4.92c-1.22.7-2.2.85-2.94.43s-1.11-1.33-1.11-2.73q0-4.78 7-10.33c1.25-.94 2.34-1.83 3.29-2.66l1-4a9.4 9.4 0 0 1-3.16 3.45c-1.61.93-2.76 1.09-3.48.5a3 3 0 0 1-.92-1.7c-.32.73-.63 1.38-.93 2a10.9 10.9 0 0 1-3.82 4.53c-1 .57-1.72.62-2.23.18a3.12 3.12 0 0 1-.78-2.47 17 17 0 0 1 .41-3.35c.17-.83.58-2.59 1.24-5.31s1.08-4.41 1.27-5.09c-1.28.26-2.24.44-2.89.55a10 10 0 0 1-1.65.15q-.12.56-1.65 5.22l-1.45 4.51c-.81 2.6-1.5 4.64-2.12 6.31a28 28 0 0 1-2.34 4.82 9.24 9.24 0 0 1-3.12 3.32c-1 .56-1.71.62-2.23.18a3.2 3.2 0 0 1-.77-2.48c-1.66 3.64-3.39 6-5.19 7-1.11.65-2 .65-2.54 0a4.17 4.17 0 0 1-.86-2.66c-.38 1-.76 1.85-1.15 2.65a10.84 10.84 0 0 1-4.06 5c-.91.52-1.64.59-2.19.18a2.67 2.67 0 0 1-.82-2.23 37.3 37.3 0 0 1 1.34-7.74q1.34-5.39 3.52-13.26a1.8 1.8 0 0 1 .31-.68 1.8 1.8 0 0 1 .48-.45.8.8 0 0 1 .64-.12c.19 0 .28.22.28.51l-.09.43-1.07 4.11q-2.47 9.57-3.07 12.09A18 18 0 0 0 132 192a2.1 2.1 0 0 0 .3 1.36c.19.2.51.18.95-.07a8.35 8.35 0 0 0 3-4.08c.87-2 1.84-4.73 2.93-8.11.15-.68.32-1.39.52-2.14a46 46 0 0 1 3.4-9.07c1.42-2.78 2.89-4.62 4.45-5.51q2.7-1.56 3.79.34l.7-2.56a1.7 1.7 0 0 1 .31-.63 1.6 1.6 0 0 1 .52-.46c.33-.19.57-.19.73 0a.94.94 0 0 1 .06.85l-2.06 7.6-.45 1.75q-1.24 4.78-1.81 7.27a17 17 0 0 0-.57 3.72 2.2 2.2 0 0 0 .29 1.37c.2.2.51.18 1-.08a8.4 8.4 0 0 0 3.05-4.13c.89-2.1 1.85-4.76 2.87-8l.13-.37 2.6-8 .49-1.72a2.56 2.56 0 0 1-2.13-2.79 5.14 5.14 0 0 1 .74-2.7 5 5 0 0 1 1.79-1.87c.74-.43 1.33-.48 1.77-.16a2.29 2.29 0 0 1 .65 1.92 5.6 5.6 0 0 1-.11 1c-.07.37-.15.78-.26 1.22s-.2.86-.29 1.22a22.5 22.5 0 0 0 3.79-.5l1.58-.35c.36 0 .55.18.55.7a2.3 2.3 0 0 1 0 .4q-.42 1.47-1.51 5.87c-.73 2.93-1.14 4.71-1.26 5.35a18.4 18.4 0 0 0-.36 2.84c0 1.34.42 1.77 1.25 1.29a8.1 8.1 0 0 0 2.82-3.67 66 66 0 0 0 2.95-8c.28-1 .6-2.19 1-3.54l.5-1.78 2.3-8.6a1.9 1.9 0 0 1 .31-.64 1.8 1.8 0 0 1 .48-.44c.34-.19.58-.19.75 0a.87.87 0 0 1 .09.86l-2.27 8.58-1.23 4.64c-.5 1.79-.84 3.06-1 3.82a8.2 8.2 0 0 0-.27 2c0 2.07.92 2.58 2.76 1.52 1.05-.6 2.18-2.28 3.37-5a60 60 0 0 0 3.12-9.3q.38-1.5 1.2-4.56c.5-1.73 1.11-4 1.85-6.68a2.2 2.2 0 0 1 .31-.66 1.7 1.7 0 0 1 .48-.46.58.58 0 0 1 .73 0q.31.24.15.87-1.82 6.45-3.09 11.22l-3.3 12.82-.61 2.45a31.2 31.2 0 0 0 5.74-7.67 53 53 0 0 0 4-9.87 2 2 0 0 1 .78-1.08 1.4 1.4 0 0 1 .35-.18m-42.54 27.77q1-3 2.19-7.2l1-3.63a2.46 2.46 0 0 0-.8-2.1 1.69 1.69 0 0 0-1.87.15q-1.78 1.08-3.48 4.74a45 45 0 0 0-2.8 7.91 30.7 30.7 0 0 0-1.12 6.74 5.34 5.34 0 0 0 .38 2.37c.25.46.67.53 1.25.19a8.37 8.37 0 0 0 2.91-3.52 39 39 0 0 0 2.36-5.65m26.44 2.47a31 31 0 0 0 2.46-6.95c-1.17 1-1.93 1.58-2.29 1.85a22.5 22.5 0 0 0-4.17 4 6.46 6.46 0 0 0-1.43 3.48 1.7 1.7 0 0 0 .62 1.57 1.59 1.59 0 0 0 1.67-.22 8.9 8.9 0 0 0 3.14-3.7M159.86 159a12.3 12.3 0 0 0 .45-2.28 1 1 0 0 0-.19-.73.4.4 0 0 0-.48 0 1.49 1.49 0 0 0-.79 1.37 2 2 0 0 0 .28 1 1.4 1.4 0 0 0 .73.61" style="fill:#10b981"/><g style="opacity:.30000000000000004"><path d="M119.52 170.76a.44.44 0 0 1 .5 0 .77.77 0 0 1 .3.47 1.9 1.9 0 0 1-.21.89 2.4 2.4 0 0 1-.5.67 6.3 6.3 0 0 0-1.43 1.74 11.5 11.5 0 0 0-1.1 2.31c-.5 1.4-1 2.91-1.36 4.53s-1 3.85-1.6 6.66q-1.58 6.78-2.87 11.2a40 40 0 0 1-3.48 8.28 14.65 14.65 0 0 1-5.37 5.71q-2.62 1.52-4.36.72c-1.15-.53-1.73-1.75-1.73-3.66a12.4 12.4 0 0 1 .82-4.35 16.7 16.7 0 0 1 2.21-4.2 10.1 10.1 0 0 1 2.93-2.8 4.5 4.5 0 0 1 1.21-.5.43.43 0 0 1 .45.09.7.7 0 0 1 .17.51 1.67 1.67 0 0 1-.33 1 1.7 1.7 0 0 1-.58.58l-.21.1a3.2 3.2 0 0 0-.66.29 6.75 6.75 0 0 0-2.1 2.05 13 13 0 0 0-1.57 3.08 9 9 0 0 0-.6 3.08c0 1.43.42 2.31 1.24 2.63a3.56 3.56 0 0 0 3.06-.57 12.4 12.4 0 0 0 4.59-5.17 38 38 0 0 0 3-7.48q1.09-3.88 2.54-10.17c.57-2.64 1.1-4.86 1.56-6.67s1-3.47 1.49-5a15.4 15.4 0 0 1 1.6-3.26 10.8 10.8 0 0 1 2.18-2.55Z" style="fill:#fff"/><path d="M118.48 168.49q5.56-2.93 8.28-.21t2.74 9.79a47.2 47.2 0 0 1-1.51 11.4 44.3 44.3 0 0 1-4.42 11.27 19.14 19.14 0 0 1-6.82 7.38q-3 1.75-5 1.17c-1.29-.38-1.94-1.53-2-3.44a9 9 0 0 1 1.26-4.51 8.4 8.4 0 0 1 3-3.23 2.51 2.51 0 0 1 4.05 1.5.8.8 0 0 1 0 .27 2.1 2.1 0 0 1-.22.87 1.6 1.6 0 0 1-.61.65c-.42.24-.69.18-.83-.18a2.33 2.33 0 0 0-1-1.22 1.4 1.4 0 0 0-1.41.12 4.9 4.9 0 0 0-1.79 2 5.7 5.7 0 0 0-.74 2.73c0 1.37.51 2.12 1.52 2.28a5.94 5.94 0 0 0 3.65-1 16.25 16.25 0 0 0 5.91-6.65 41.6 41.6 0 0 0 3.81-10.24 44 44 0 0 0 1.28-10.15c0-4.17-.77-7.06-2.27-8.64s-3.84-1.57-7 .06a21.1 21.1 0 0 0-6.38 5.74 27.8 27.8 0 0 0-4.1 8 30.3 30.3 0 0 0-1.45 9.1 1.73 1.73 0 0 1-.25.87 1.66 1.66 0 0 1-.62.64.6.6 0 0 1-.6.06.56.56 0 0 1-.28-.56 32.7 32.7 0 0 1 1.7-10.31 31.6 31.6 0 0 1 4.74-9.11 24.2 24.2 0 0 1 7.36-6.45m19.19-4.04a1 1 0 0 1 1-.1 1 1 0 0 1 .42.91 2.9 2.9 0 0 1-.41 1.39 2.8 2.8 0 0 1-1 1 1 1 0 0 1-1 .11.91.91 0 0 1-.44-.89 2.8 2.8 0 0 1 .43-1.41 3 3 0 0 1 1-1.01m52-13.03q.54 0 .54.6a2.6 2.6 0 0 1-.08.48 53.8 53.8 0 0 1-4.83 11.5 37.4 37.4 0 0 1-7.24 8.94 43.8 43.8 0 0 1-3.45 9.49 12 12 0 0 1-4.17 4.92c-1.22.7-2.2.85-2.94.43s-1.11-1.33-1.11-2.73q0-4.78 7-10.33c1.25-.94 2.34-1.83 3.29-2.66l1-4a9.4 9.4 0 0 1-3.16 3.45c-1.61.93-2.76 1.09-3.48.5a3 3 0 0 1-.92-1.7c-.32.73-.63 1.38-.93 2a10.9 10.9 0 0 1-3.82 4.53c-1 .57-1.72.62-2.23.18a3.12 3.12 0 0 1-.78-2.47 17 17 0 0 1 .41-3.35c.17-.83.58-2.59 1.24-5.31s1.08-4.41 1.27-5.09c-1.28.26-2.24.44-2.89.55a10 10 0 0 1-1.65.15q-.12.56-1.65 5.22l-1.45 4.51c-.81 2.6-1.5 4.64-2.12 6.31a28 28 0 0 1-2.34 4.82 9.24 9.24 0 0 1-3.12 3.32c-1 .56-1.71.62-2.23.18a3.2 3.2 0 0 1-.77-2.48c-1.66 3.64-3.39 6-5.19 7-1.11.65-2 .65-2.54 0a4.17 4.17 0 0 1-.86-2.66c-.38 1-.76 1.85-1.15 2.65a10.84 10.84 0 0 1-4.06 5c-.91.52-1.64.59-2.19.18a2.67 2.67 0 0 1-.82-2.23 37.3 37.3 0 0 1 1.34-7.74q1.34-5.39 3.52-13.26a1.8 1.8 0 0 1 .31-.68 1.8 1.8 0 0 1 .48-.45.8.8 0 0 1 .64-.12c.19 0 .28.22.28.51l-.09.43-1.07 4.11q-2.47 9.57-3.07 12.09A18 18 0 0 0 132 192a2.1 2.1 0 0 0 .3 1.36c.19.2.51.18.95-.07a8.35 8.35 0 0 0 3-4.08c.87-2 1.84-4.73 2.93-8.11.15-.68.32-1.39.52-2.14a46 46 0 0 1 3.4-9.07c1.42-2.78 2.89-4.62 4.45-5.51q2.7-1.56 3.79.34l.7-2.56a1.7 1.7 0 0 1 .31-.63 1.6 1.6 0 0 1 .52-.46c.33-.19.57-.19.73 0a.94.94 0 0 1 .06.85l-2.06 7.6-.45 1.75q-1.24 4.78-1.81 7.27a17 17 0 0 0-.57 3.72 2.2 2.2 0 0 0 .29 1.37c.2.2.51.18 1-.08a8.4 8.4 0 0 0 3.05-4.13c.89-2.1 1.85-4.76 2.87-8l.13-.37 2.6-8 .49-1.72a2.56 2.56 0 0 1-2.13-2.79 5.14 5.14 0 0 1 .74-2.7 5 5 0 0 1 1.79-1.87c.74-.43 1.33-.48 1.77-.16a2.29 2.29 0 0 1 .65 1.92 5.6 5.6 0 0 1-.11 1c-.07.37-.15.78-.26 1.22s-.2.86-.29 1.22a22.5 22.5 0 0 0 3.79-.5l1.58-.35c.36 0 .55.18.55.7a2.3 2.3 0 0 1 0 .4q-.42 1.47-1.51 5.87c-.73 2.93-1.14 4.71-1.26 5.35a18.4 18.4 0 0 0-.36 2.84c0 1.34.42 1.77 1.25 1.29a8.1 8.1 0 0 0 2.82-3.67 66 66 0 0 0 2.95-8c.28-1 .6-2.19 1-3.54l.5-1.78 2.3-8.6a1.9 1.9 0 0 1 .31-.64 1.8 1.8 0 0 1 .48-.44c.34-.19.58-.19.75 0a.87.87 0 0 1 .09.86l-2.27 8.58-1.23 4.64c-.5 1.79-.84 3.06-1 3.82a8.2 8.2 0 0 0-.27 2c0 2.07.92 2.58 2.76 1.52 1.05-.6 2.18-2.28 3.37-5a60 60 0 0 0 3.12-9.3q.38-1.5 1.2-4.56c.5-1.73 1.11-4 1.85-6.68a2.2 2.2 0 0 1 .31-.66 1.7 1.7 0 0 1 .48-.46.58.58 0 0 1 .73 0q.31.24.15.87-1.82 6.45-3.09 11.22l-3.3 12.82-.61 2.45a31.2 31.2 0 0 0 5.74-7.67 53 53 0 0 0 4-9.87 2 2 0 0 1 .78-1.08 1.4 1.4 0 0 1 .35-.18m-42.54 27.77q1-3 2.19-7.2l1-3.63a2.46 2.46 0 0 0-.8-2.1 1.69 1.69 0 0 0-1.87.15q-1.78 1.08-3.48 4.74a45 45 0 0 0-2.8 7.91 30.7 30.7 0 0 0-1.12 6.74 5.34 5.34 0 0 0 .38 2.37c.25.46.67.53 1.25.19a8.37 8.37 0 0 0 2.91-3.52 39 39 0 0 0 2.36-5.65m26.44 2.47a31 31 0 0 0 2.46-6.95c-1.17 1-1.93 1.58-2.29 1.85a22.5 22.5 0 0 0-4.17 4 6.46 6.46 0 0 0-1.43 3.48 1.7 1.7 0 0 0 .62 1.57 1.59 1.59 0 0 0 1.67-.22 8.9 8.9 0 0 0 3.14-3.7M159.86 159a12.3 12.3 0 0 0 .45-2.28 1 1 0 0 0-.19-.73.4.4 0 0 0-.48 0 1.49 1.49 0 0 0-.79 1.37 2 2 0 0 0 .28 1 1.4 1.4 0 0 0 .73.61" style="fill:#fff"/></g><circle cx="283.67" cy="99.53" r="18.73" style="fill:#10b981" transform="rotate(-85.79 283.649 99.534)"/><circle cx="283.67" cy="99.53" r="18.73" style="fill:#fff;opacity:.5" transform="rotate(-85.79 283.649 99.534)"/><path d="M276.45 93.41a.86.86 0 0 1-.58 1.08l-5.59 1.71a.86.86 0 0 1-1.08-.58.87.87 0 0 1 .58-1.09l5.58-1.7a.87.87 0 0 1 1.09.58m16.09-4.91a.87.87 0 0 1-.58 1.09l-5.59 1.7a.86.86 0 0 1-1.08-.58.88.88 0 0 1 .58-1.09l5.58-1.7a.87.87 0 0 1 1.09.58" style="fill:#10b981"/><path d="M276.45 93.41a.86.86 0 0 1-.58 1.08l-5.59 1.71a.86.86 0 0 1-1.08-.58.87.87 0 0 1 .58-1.09l5.58-1.7a.87.87 0 0 1 1.09.58m16.09-4.91a.87.87 0 0 1-.58 1.09l-5.59 1.7a.86.86 0 0 1-1.08-.58.88.88 0 0 1 .58-1.09l5.58-1.7a.87.87 0 0 1 1.09.58" style="opacity:.2"/><path d="M277.17 99.92a.76.76 0 0 1-.57 0 2.89 2.89 0 0 0-3.92 1.19.75.75 0 1 1-1.32-.7 4.39 4.39 0 0 1 5.94-1.81.74.74 0 0 1-.13 1.37ZM293.26 95a.76.76 0 0 1-.57-.06 2.9 2.9 0 0 0-3.92 1.2.74.74 0 0 1-1 .3.73.73 0 0 1-.31-1 4.4 4.4 0 0 1 5.94-1.82.75.75 0 0 1 .31 1 .8.8 0 0 1-.45.38m-.26 6-16.2 5a8.45 8.45 0 0 0 16.2-5" style="fill:#10b981"/><path d="m293 101-16.2 5a8.45 8.45 0 0 0 16.2-5" style="opacity:.2"/><circle cx="341.35" cy="111.61" r="18.73" style="fill:#10b981" transform="rotate(-58.08 341.32 111.62)"/><circle cx="341.35" cy="111.61" r="18.73" style="fill:#fff;opacity:.5" transform="rotate(-58.08 341.32 111.62)"/><path d="M336.16 106.71a1.39 1.39 0 1 1-.85-1.77 1.39 1.39 0 0 1 .85 1.77m14.99 5.29a1.39 1.39 0 1 1-.85-1.77 1.39 1.39 0 0 1 .85 1.77m-10.09-11.69a1 1 0 0 1-1 1h-6.46a1 1 0 0 1-1-1 1 1 0 0 1 1-1h6.46a1 1 0 0 1 1 1m14.1 7.99a1 1 0 0 0-.16-1.3l-5-4.09a1 1 0 0 0-1.36.14 1 1 0 0 0 .14 1.35l5 4.09a1 1 0 0 0 1.35-.14Z" style="fill:#10b981"/><path d="M341.06 100.31a1 1 0 0 1-1 1h-6.46a1 1 0 0 1-1-1 1 1 0 0 1 1-1h6.46a1 1 0 0 1 1 1m14.1 7.99a1 1 0 0 0-.16-1.3l-5-4.09a1 1 0 0 0-1.36.14 1 1 0 0 0 .14 1.35l5 4.09a1 1 0 0 0 1.35-.14Z" style="opacity:.2"/><path d="m352.48 117.41-.16-4.54-2.95 3.46c-1.28 1.5-.56 3 .57 3.36a2.08 2.08 0 0 0 2.54-2.28" style="fill:#fff"/><path d="M345.74 123.17a.78.78 0 0 1-.42-.38 10.56 10.56 0 0 0-14.08-5 .74.74 0 0 1-.64-1.34 12.05 12.05 0 0 1 16.06 5.67.74.74 0 0 1-.35 1 .75.75 0 0 1-.57.05" style="fill:#10b981"/><path d="M345.74 123.17a.78.78 0 0 1-.42-.38 10.56 10.56 0 0 0-14.08-5 .74.74 0 0 1-.64-1.34 12.05 12.05 0 0 1 16.06 5.67.74.74 0 0 1-.35 1 .75.75 0 0 1-.57.05" style="opacity:.2"/><circle cx="378.39" cy="155.19" r="18.73" style="fill:#10b981" transform="rotate(-3.1 378.21 155.023)"/><circle cx="378.39" cy="155.19" r="18.73" style="fill:#fff;opacity:.5" transform="rotate(-3.1 378.21 155.023)"/><path d="M377.84 148.31a1 1 0 0 0 .19-1.44l-4.16-5.46a1 1 0 0 0-1.63 1.24l4.16 5.46a1 1 0 0 0 1.44.2m-5.69 2.17a1.48 1.48 0 1 0-.82-1.93 1.49 1.49 0 0 0 .82 1.93m20.22-1.23a1 1 0 0 0-1.16-.86l-6.79 1.06a1 1 0 0 0 .31 2l6.79-1.05a1 1 0 0 0 .85-1.15m-5.11 4.12a1.48 1.48 0 1 0 .82 1.93 1.49 1.49 0 0 0-.82-1.93m-9.88 3.97a8.47 8.47 0 0 0-11 4.7l15.72 6.33a8.47 8.47 0 0 0-4.72-11.03" style="fill:#10b981"/><path d="M377.84 148.31a1 1 0 0 0 .19-1.44l-4.16-5.46a1 1 0 0 0-1.63 1.24l4.16 5.46a1 1 0 0 0 1.44.2m14.53.94a1 1 0 0 0-1.16-.86l-6.79 1.06a1 1 0 0 0 .31 2l6.79-1.05a1 1 0 0 0 .85-1.15m-14.99 8.09a8.47 8.47 0 0 0-11 4.7l15.72 6.33a8.47 8.47 0 0 0-4.72-11.03" style="opacity:.2"/><path d="m292.94 379.33 2.75 1.75h.06a3.13 3.13 0 0 0 3.1-.33 9.65 9.65 0 0 0 4.39-7.59 3.12 3.12 0 0 0-1.24-2.79l-.81-.51 26.35-10.71a1.93 1.93 0 0 0 1 1.54l-2.38 20.72v2.81a9.76 9.76 0 0 0-3.62 7.07 3 3 0 0 0 1.37 2.85l2.76 1.75h.05a3.11 3.11 0 0 0 3.09-.32 9.67 9.67 0 0 0 4.39-7.6 3.08 3.08 0 0 0-1.23-2.78l-2.97-1.77a2.3 2.3 0 0 0-1.46-.32l3-21.6a6.4 6.4 0 0 0 1.93-.3l25 13.48-1.43.91a3.09 3.09 0 0 0-1.23 2.78 9.66 9.66 0 0 0 4.39 7.6 3.12 3.12 0 0 0 3.09.33l2.76-1.75a3 3 0 0 0 1.37-2.86 9.78 9.78 0 0 0-3.57-7v-4.35l-23.23-13.8 12.25-3.08a8.9 8.9 0 0 0-1.31 4.35 3 3 0 0 0 1.38 2.86l2.76 1.76a3.09 3.09 0 0 0 3.09-.32 9.66 9.66 0 0 0 4.39-7.6 3.09 3.09 0 0 0-1.24-2.78l-2.79-1.77a2.56 2.56 0 0 0-2.08-.2V349l-1.49-.51-19.9 1.05v-3.52a6 6 0 0 0 .62-.29 3.38 3.38 0 0 0 2-2.74V320h-13.43v23a3.29 3.29 0 0 0 1.94 2.74 7 7 0 0 0 .66.31v3l-14.39-3.11-.69.27v2.65l-2.79 1.76a3.12 3.12 0 0 0-1.24 2.79 9.58 9.58 0 0 0 2.17 5.6l-13.9 6.26v3.29c-.18.08-.37.17-.57.28a9.68 9.68 0 0 0-4.39 7.59 3 3 0 0 0 1.27 2.9m8.29-14.85L311.3 360l-13.61 6.07ZM319 353.16l2 1.09-1.41.64a9.5 9.5 0 0 0-.59-1.73m8.43-.37-7.58 3.38Z" style="fill:#e0e0e0"/><path d="m359.76 355.52 2.21-3.78-2.87-1.82a3 3 0 0 0-3.18.27 9.68 9.68 0 0 0-4.39 7.59 3 3 0 0 0 1.38 2.86l2.81 1.8 2.33-4a10.7 10.7 0 0 0 1.71-2.92" style="fill:#37474f"/><path d="M358.78 352c2.43-1.4 4.41-.28 4.42 2.51a9.66 9.66 0 0 1-4.39 7.6c-2.43 1.4-4.4.28-4.41-2.52a9.67 9.67 0 0 1 4.38-7.59" style="fill:#455a64"/><path d="m311.7 354.44-2.2-3.78 2.86-1.81a3.06 3.06 0 0 1 3.18.27 9.65 9.65 0 0 1 4.39 7.59 3 3 0 0 1-1.37 2.86l-2.81 1.79-2.32-4a10.6 10.6 0 0 1-1.73-2.92" style="fill:#37474f"/><path d="M312.68 350.93c-2.43-1.4-4.41-.27-4.42 2.52a9.68 9.68 0 0 0 4.39 7.59c2.43 1.41 4.41.28 4.42-2.51a9.71 9.71 0 0 0-4.39-7.6" style="fill:#455a64"/><path d="M327.47 345.09h8.16v14.06a2 2 0 0 1-1.21 1.67 6.35 6.35 0 0 1-5.77 0 2 2 0 0 1-1.18-1.68Z" style="fill:#ebebeb"/><path d="M357.02 349.03v3.35l-21.39 5.39v-7.1z" style="fill:#e0e0e0"/><path d="m357.02 349.03-1.49-.51-19.9 1.05v1.1z" style="fill:#f5f5f5"/><path d="m359.17 379.43-2.17-3.78 2.86-1.82a3.06 3.06 0 0 1 3.18.27 9.64 9.64 0 0 1 4.38 7.59 3 3 0 0 1-1.37 2.86l-2.82 1.79-2.32-4a10.5 10.5 0 0 1-1.74-2.91" style="fill:#37474f"/><path d="M360.14 375.92c-2.42-1.4-4.4-.28-4.41 2.51a9.66 9.66 0 0 0 4.39 7.6c2.42 1.4 4.4.28 4.41-2.51a9.69 9.69 0 0 0-4.39-7.6" style="fill:#455a64"/><path d="m330.68 389 2.21-3.78-2.89-1.8a3.06 3.06 0 0 0-3.18.26 9.66 9.66 0 0 0-4.38 7.6 3 3 0 0 0 1.37 2.85l2.82 1.79 2.32-4a10.5 10.5 0 0 0 1.73-2.92" style="fill:#37474f"/><path d="M329.71 385.51c2.42-1.4 4.4-.28 4.41 2.51a9.67 9.67 0 0 1-4.39 7.6c-2.42 1.4-4.4.28-4.41-2.52a9.65 9.65 0 0 1 4.39-7.59" style="fill:#455a64"/><path d="m299.8 374.2 2.2-3.78-2.86-1.81a3.06 3.06 0 0 0-3.18.27 9.68 9.68 0 0 0-4.39 7.59 3 3 0 0 0 1.37 2.86l2.81 1.79 2.33-4a10.5 10.5 0 0 0 1.72-2.92" style="fill:#37474f"/><path d="M298.82 370.69c2.43-1.4 4.41-.27 4.42 2.52a9.65 9.65 0 0 1-4.39 7.59c-2.43 1.41-4.41.28-4.41-2.51a9.68 9.68 0 0 1 4.38-7.6" style="fill:#455a64"/><path d="M362.16 371.25v5.44l-28.64-15.48v-7.49z" style="fill:#e0e0e0"/><path d="m363.82 370.32-28.66-17.02-1.64.42 28.64 17.53z" style="fill:#f5f5f5"/><path d="m363.82 375.75-1.66.94v-5.44l1.66-.93z" style="fill:#f0f0f0"/><path d="m331.6 353.72-3.5 27.69v4.95l3.5-24.85z" style="fill:#e0e0e0"/><path d="M326.08 381.41h2.02v4.95h-2.02z" style="fill:#f0f0f0"/><path d="m326.08 381.41 3.18-27.69h2.34l-3.5 27.69z" style="fill:#f5f5f5"/><path d="M297.69 366.06v5.19l29.78-12.1v-6.36z" style="fill:#e0e0e0"/><path d="m296.54 370.49 1.15.76v-5.19l-1.15-.75z" style="fill:#f0f0f0"/><path d="m301.23 364.48-3.54 1.58-1.15-.75 30.93-13.94v1.42z" style="fill:#f5f5f5"/><path d="M312.39 346.19v3.41l8.68 4.65 6.4-2.88v-1.39z" style="fill:#e0e0e0"/><path d="m312.39 346.19.69-.27 14.39 3.11v.95z" style="fill:#f5f5f5"/><path d="M324.87 320h13.36v23a3.38 3.38 0 0 1-2 2.74 10.4 10.4 0 0 1-9.44 0 3.29 3.29 0 0 1-1.94-2.74Z" style="fill:#e0e0e0"/><path d="M272.26 283a7.64 7.64 0 0 1 2.54-2.46l5-2.56c0-17.8-2.63-16.06-7.54-23s2.62-11.33 8.28-8.22 31.66 9.31 40 1.08c10.41-10.22 6.05-36 4.81-46.08s0-17.07 2.79-20 6.83-7.3 19.94-1.86c0 0 35.33 15.3 52.63 23.85a23.15 23.15 0 0 1 10.89 5.53 7.2 7.2 0 0 1 2 2.63 3.14 3.14 0 0 1-.39 3.15 3.1 3.1 0 0 1-2.08.93l-21.83 80.65a19.3 19.3 0 0 1-9.91 12.18l-38.09 19.26a12.73 12.73 0 0 1-11.72-.11l-54.43-28.91c-5.43-3.06-5.94-11.41-2.89-16.06" style="fill:#37474f"/><path d="M272.26 283a8.7 8.7 0 0 0 2.89 2.73l54.43 28.91a12.73 12.73 0 0 0 11.72.11l38.13-19.31a19.3 19.3 0 0 0 9.91-12.18l18.4-68c.31.09.61.2.92.28a7.6 7.6 0 0 0 2.41.37h.1l-21.83 80.65a19.3 19.3 0 0 1-9.91 12.18l-38.13 19.34a12.73 12.73 0 0 1-11.72-.11l-54.43-28.91c-5.43-3.06-5.94-11.41-2.89-16.06" style="fill:#37474f"/><path d="m274.8 280.55 39.44-20.23L366.17 287c-1.69.41-3.4.75-5.1 1.09-4.47.9-9 1.89-12.9 4.28s-7 6.47-7.05 11l1.39 10.72-1.21.61a12.73 12.73 0 0 1-11.72-.11l-54.43-28.91a8.7 8.7 0 0 1-2.89-2.73 7.64 7.64 0 0 1 2.54-2.4" style="fill:#455a64"/><path d="m274.8 280.55 39.44-20.23L366.17 287c-1.69.41-3.4.75-5.1 1.09-4.47.9-9 1.89-12.9 4.28s-7 6.47-7.05 11l1.39 10.72-1.21.61a12.73 12.73 0 0 1-11.72-.11l-54.43-28.91a8.7 8.7 0 0 1-2.89-2.73 7.64 7.64 0 0 1 2.54-2.4" style="opacity:.1"/><path d="M280.54 246.73s31.66 9.31 40 1.08c10.41-10.22 6.05-36 4.81-46.08s0-17.07 2.79-20 6.83-7.3 19.94-1.86c-13.27 6.82-15 39.27-10.78 52.3-10.4 10.7-9.69 27.28-9.89 35 0 0-27.05 6.61-41.17 14.37Z" style="fill:#455a64"/><path d="M280.54 246.73s31.66 9.31 40 1.08c10.41-10.22 6.05-36 4.81-46.08s0-17.07 2.79-20 6.83-7.3 19.94-1.86c-13.27 6.82-15 39.27-10.78 52.3-10.4 10.7-9.69 27.28-9.89 35 0 0-27.05 6.61-41.17 14.37Z" style="fill:#fff;opacity:.1"/><path d="M286.28 281.49 279.8 278c0-17.8-2.63-16.06-7.54-23s2.62-11.33 8.28-8.22 7.95 12.39 5.74 34.71" style="fill:#455a64"/><path d="M286.28 281.49 279.8 278c0-17.8-2.63-16.06-7.54-23s2.62-11.33 8.28-8.22 7.95 12.39 5.74 34.71" style="fill:#fff;opacity:.2"/><path d="M348.12 179.85s35.46 15.36 52.72 23.89l-1.25 6.3L343 184.36a14.94 14.94 0 0 1 5.12-4.51" style="fill:#455a64"/><path d="M348.12 179.85s35.46 15.36 52.72 23.89l-1.25 6.3L343 184.36a14.94 14.94 0 0 1 5.12-4.51" style="fill:#fff;opacity:.1"/><path d="M337.34 232.15c-3.58-11.12-2.85-36.39 5.69-47.79L399.59 210l-12.93 64.79L366.17 287l-38.72-19.92c.2-7.65-.51-24.23 9.89-34.93" style="fill:#455a64"/><path d="M372.34 245.14c-1-.55-1.74-.11-1.74 1a3.78 3.78 0 0 0 1.73 3c1 .56 1.74.11 1.74-1a3.82 3.82 0 0 0-1.73-3m-8.75-5.14c-1-.56-1.74-.11-1.75 1a3.85 3.85 0 0 0 1.74 3c.95.55 1.74.11 1.74-1a3.8 3.8 0 0 0-1.73-3m-8.76-5.15c-.95-.55-1.74-.11-1.74 1a3.84 3.84 0 0 0 1.73 3c1 .55 1.74.11 1.75-1a3.85 3.85 0 0 0-1.74-3m-8.75-5.14c-1-.55-1.74-.11-1.74 1a3.81 3.81 0 0 0 1.73 3c1 .56 1.74.11 1.74-1a3.79 3.79 0 0 0-1.73-3" style="fill:#455a64"/><g style="opacity:.2"><path d="M372.34 245.14c-1-.55-1.74-.11-1.74 1a3.78 3.78 0 0 0 1.73 3c1 .56 1.74.11 1.74-1a3.82 3.82 0 0 0-1.73-3m-8.75-5.14c-1-.56-1.74-.11-1.75 1a3.85 3.85 0 0 0 1.74 3c.95.55 1.74.11 1.74-1a3.8 3.8 0 0 0-1.73-3m-8.76-5.15c-.95-.55-1.74-.11-1.74 1a3.84 3.84 0 0 0 1.73 3c1 .55 1.74.11 1.75-1a3.85 3.85 0 0 0-1.74-3m-8.75-5.14c-1-.55-1.74-.11-1.74 1a3.81 3.81 0 0 0 1.73 3c1 .56 1.74.11 1.74-1a3.79 3.79 0 0 0-1.73-3" style="fill:#fff"/></g><path d="M348.17 292.41c3.88-2.39 8.43-3.38 12.9-4.28 1.7-.34 3.41-.68 5.1-1.09a32 32 0 0 0 7.91-2.88c6.25-3.46 10.45-9.91 12.47-16.77s2.06-14.14 1.63-21.27-1.31-14.26-1.09-21.41c.12-4.15.75-8.6 3.57-11.66s7.58-4.14 11.82-3.56a24 24 0 0 1 4.1 1l1.88 2.2-.72 2.66-18.4 68a19.28 19.28 0 0 1-8.45 11.34c-.47.3-1 .58-1.46.84l-36.92 18.7-1.39-10.72c.03-4.63 3.17-8.72 7.05-11.1" style="fill:#37474f"/><path d="M348.12 285.1c13.5-3.85 26.77-4.35 31.66-14.05s5.22-23.05 2.79-46.36a35.5 35.5 0 0 1 .21-9c1.44-8.71 6.68-12.43 12.71-12.52a23.42 23.42 0 0 1 16.15 6.07 7.2 7.2 0 0 1 2 2.63 3.14 3.14 0 0 1-.39 3.15 3.1 3.1 0 0 1-2.08.93h-.1a7.6 7.6 0 0 1-2.41-.37c-.31-.08-.61-.19-.92-.28-1.65-.52-3.28-1.14-5-1.55a10.8 10.8 0 0 0-6.07 0 6.45 6.45 0 0 0-3.91 4.36c-5.69 18.59 1.52 38.58-4.88 53.94-5.23 14-23.34 19.76-36.11 23.9a7.8 7.8 0 0 0 3.19-2.32 5.37 5.37 0 0 0-.5-6.47 7.06 7.06 0 0 0-6.34-2.06" style="fill:#455a64"/><path d="M348.12 285.1c13.5-3.85 26.77-4.35 31.66-14.05s5.22-23.05 2.79-46.36a35.5 35.5 0 0 1 .21-9c1.44-8.71 6.68-12.43 12.71-12.52a23.42 23.42 0 0 1 16.15 6.07 7.2 7.2 0 0 1 2 2.63 3.14 3.14 0 0 1-.39 3.15 3.1 3.1 0 0 1-2.08.93h-.1a7.6 7.6 0 0 1-2.41-.37c-.31-.08-.61-.19-.92-.28-1.65-.52-3.28-1.14-5-1.55a10.8 10.8 0 0 0-6.07 0 6.45 6.45 0 0 0-3.91 4.36c-5.69 18.59 1.52 38.58-4.88 53.94-5.23 14-23.34 19.76-36.11 23.9a7.8 7.8 0 0 0 3.19-2.32 5.37 5.37 0 0 0-.5-6.47 7.06 7.06 0 0 0-6.34-2.06" style="fill:#fff;opacity:.1"/><path d="M338.75 294.66a20 20 0 0 1 3.46-6.06 10.36 10.36 0 0 1 5.91-3.5 7.06 7.06 0 0 1 6.38 2.07 5.37 5.37 0 0 1 .5 6.47 7.8 7.8 0 0 1-3.19 2.32 30 30 0 0 0-3 1.47 12.54 12.54 0 0 0-5.1 7.21 37 37 0 0 0-1.18 8.93l-.05.58-6.32-3.51a38.7 38.7 0 0 1 2.59-15.98" style="fill:#455a64"/><path d="M338.75 294.66a20 20 0 0 1 3.46-6.06 10.36 10.36 0 0 1 5.91-3.5 7.06 7.06 0 0 1 6.38 2.07 5.37 5.37 0 0 1 .5 6.47 7.8 7.8 0 0 1-3.19 2.32 30 30 0 0 0-3 1.47 12.54 12.54 0 0 0-5.1 7.21 37 37 0 0 0-1.18 8.93l-.05.58-6.32-3.51a38.7 38.7 0 0 1 2.59-15.98" style="fill:#fff;opacity:.2"/><path d="M293 211.23h-2.41a18.73 18.73 0 0 0-15.22 7.21l-18.65 23.92 10.83 6.22 21.2-23.58Z" style="fill:#7d4444"/><path d="M320 307.28c6.24-2.69 34.5-16.76 15.79-44.07l-46.36-6.66c-1.52 14.55-14.89 24.08-14.89 24.08Z" style="fill:#37474f"/><path d="M266.7 364.66c0 3.94.13 9.7.13 9.7l2.64.14a6.4 6.4 0 0 1 5.64 4.2l.06.17a2.5 2.5 0 0 0 3.08 1.53 2.5 2.5 0 0 0 1.5-1.3l1.25-12.9Z" style="fill:#945d5d"/><path d="M263 404c-6.9 2.95-17.47 3.53-21.85-3.52v1.91c4.38 7 14.95 6.47 21.85 3.52s5.39-7.76 11.57-10.35a16.8 16.8 0 0 0 6-3.81c0-.56.12-1.27.21-2.08a20.7 20.7 0 0 1-6.25 4c-6.17 2.54-4.66 7.33-11.53 10.33" style="fill:#37474f"/><path d="M280.79 383.38a10 10 0 0 1 0-4.07 2.17 2.17 0 0 0-.31-1.8L280 377l-.21 2.15a2.48 2.48 0 0 1-4.58-.23l-.06-.17a6.4 6.4 0 0 0-5.64-4.2l-2.68-.14a1.93 1.93 0 0 0-1.89 1.18c-2.75 6.64-9.68 14-15 17.4-3.91-.09-8.76 3.16-8.76 7.12v.39c4.38 7.05 14.95 6.47 21.85 3.52s5.39-7.76 11.57-10.35a20.7 20.7 0 0 0 6.25-4 22 22 0 0 0-.06-6.29" style="fill:#10b981"/><path d="M267.43 388.83a.88.88 0 0 0 1.37-1.1 10 10 0 0 0-9-4c-.37.46-.75.91-1.13 1.35a9.62 9.62 0 0 1 8.76 3.75m2.73-3.05a.87.87 0 0 0 1.36-1.1 10.5 10.5 0 0 0-9.4-4.05c-.33.49-.68 1-1 1.47 3.33-.24 6.34.4 9.04 3.68m-5.55 6.03a.87.87 0 0 0 1.36-1.1 10 10 0 0 0-8.77-4c-.45.47-.9.93-1.35 1.37a9.66 9.66 0 0 1 8.76 3.73m-14.73 1.13c-3.91-.09-8.76 3.16-8.76 7.12v.39c4.32 6.94 14.63 6.48 21.53 3.65-.53-9.48-9.65-11.19-12.77-11.16m11.82 1.71a.87.87 0 0 0 1.36-1.1 10 10 0 0 0-8.8-4c-.55.49-1.1.95-1.64 1.38 3.38-.2 6.38.44 9.08 3.72" style="fill:#fff"/><path d="M287.22 340.63c-.54 8.72-2.77 15-4.48 26.93 0 0-10.44 3.11-16.94-1.44l-.27-18.31Z" style="fill:#37474f"/><path d="M229.69 351.33c-.88 3.82-2.62 8.9-2.62 8.9l2.63.15a6.37 6.37 0 0 1 5.65 4.19l.06.17a2.49 2.49 0 0 0 3.08 1.53A2.5 2.5 0 0 0 240 365l4-10.41Z" style="fill:#945d5d"/><path d="M223.21 389.84c-6.9 3-17.47 3.53-21.86-3.52v1.91c4.39 7 15 6.47 21.86 3.52s5.39-7.76 11.57-10.35a16.8 16.8 0 0 0 6-3.81c0-.56.12-1.27.21-2.08a20.8 20.8 0 0 1-6.25 4c-6.14 2.57-4.63 7.39-11.53 10.33" style="fill:#37474f"/><path d="M241 369.25a10 10 0 0 1 0-4.07 2.14 2.14 0 0 0-.32-1.8l-.1-.15L240 365a2.48 2.48 0 0 1-4.58-.23l-.06-.17a6.37 6.37 0 0 0-5.65-4.19l-2.67-.15a1.92 1.92 0 0 0-1.89 1.18c-2.75 6.65-9.68 14-15 17.4-3.91-.09-8.77 3.17-8.77 7.12v.39c4.39 7.05 15 6.47 21.86 3.52s5.39-7.76 11.57-10.35a20.8 20.8 0 0 0 6.25-4 22.4 22.4 0 0 0-.06-6.27" style="fill:#10b981"/><path d="M227.67 374.7a.88.88 0 0 0 1.37-1.1 10 10 0 0 0-9-4c-.37.46-.75.91-1.13 1.35a9.64 9.64 0 0 1 8.76 3.75m2.73-3.05a.87.87 0 0 0 1.36-1.09 10.49 10.49 0 0 0-9.4-4.06c-.33.49-.68 1-1 1.47 3.33-.24 6.34.4 9.04 3.68m-5.55 6.03a.87.87 0 0 0 1.36-1.1 10 10 0 0 0-8.78-4c-.44.47-.89.92-1.34 1.36a9.67 9.67 0 0 1 8.76 3.74m-14.73 1.13c-3.91-.09-8.77 3.17-8.77 7.12v.39c4.32 6.94 14.64 6.48 21.54 3.65-.53-9.48-9.63-11.19-12.77-11.16m11.81 1.71a.88.88 0 0 0 1.37-1.1 10 10 0 0 0-8.8-4c-.55.49-1.1.95-1.64 1.39 3.37-.21 6.38.43 9.07 3.71" style="fill:#fff"/><path d="M253.83 330.84c-2 8.5-5.28 14.35-9 25.78 0 0-10.82 1.3-16.46-4.28l4.85-29.85Z" style="fill:#37474f"/><path d="M310.75 271.66a50.37 50.37 0 0 0 25.08-8.45 64 64 0 0 0-7.16-10.29l-41.39 3.72c-.41 3.43-.71 6.82-.93 10.17a50.5 50.5 0 0 0 24.4 4.85" style="fill:#7d4444"/><path d="M284.79 199.06a8.6 8.6 0 0 1 .09-3.28c.21-.94 2.83-6.45 2.48-6.81a13.77 13.77 0 0 1-1.66-17.29 4.65 4.65 0 0 1 .83-8.9c1.68-.29 3.35.35 5 .71a24.2 24.2 0 0 0 8.62 0c2.86-.42 5.7-1 8.58-1.25a17.5 17.5 0 0 1 8.49 1.21 9.51 9.51 0 0 1 5.49 6.3c4.27-.83 9.22 2.65 10 6.93s-1.67 8.32-1.29 12.53a14 14 0 0 0 3.66 7.6c1.86 2.17 4.07 4 6 6.11a34.37 34.37 0 0 1 9 21.12c.26 4.4-.4 9-2.86 12.65-4.82 7.18-17.75 9-25.69 8.68a42.47 42.47 0 0 1-22.7-7.68c-4.58-3.24-8.77-8-8.61-13.65.07-2.63 1.11-5.13 1.81-7.67s1-5.38-.18-7.72-4-3.78-5.61-6a8.25 8.25 0 0 1-1.45-3.59" style="fill:#263238"/><path d="M296.12 220.31a6.86 6.86 0 0 0 4.42 1.18 24.78 24.78 0 0 0 19.76-9.8l-4.39-.38v-14.13l-15.26 5.89v8.16h-3.9a11.5 11.5 0 0 0-1.88 3.31c-.65 1.99-.36 4.46 1.25 5.77" style="fill:#945d5d"/><path d="M314.84 197.6c-2.48 5.59-7.42 10.39-14.19 11.18v-5.71Z" style="opacity:.2"/><path d="M313.19 186.31a14.3 14.3 0 0 0-.16 3.58 4.24 4.24 0 0 0 1.18 2.39 2.69 2.69 0 0 0 2.41.71 4.66 4.66 0 0 1 9.05-2.22 5.85 5.85 0 0 1-1 4.86 10.9 10.9 0 0 1-3.89 3.24 3.94 3.94 0 0 1-4.7-1.84c-4.54 5.75-12.45 10.06-19.86 9.44a10.66 10.66 0 0 1-5.63-2c-2.8-2.17-3-5.45-3.37-8.68a45.8 45.8 0 0 1 .1-12.32c.91-5.63 3.41-11.16 7.79-14.83 2.56 12.27 13.79 16.77 18.08 17.67" style="fill:#945d5d"/><path d="m297.77 184.92-5.08 6.25 4.72 1.63zm3.97 10.92-3.95 1.25a2.44 2.44 0 0 0 2.68 1.21 2.2 2.2 0 0 0 1.27-2.46" style="fill:#7d4444"/><path d="m301.74 195.84-3.95 1.25a2.44 2.44 0 0 0 2.68 1.21 2.2 2.2 0 0 0 1.27-2.46" style="opacity:.30000000000000004"/><path d="M299.17 198.23a2.33 2.33 0 0 0 1.3.07 2 2 0 0 0 1.27-1.8 2.4 2.4 0 0 0-1.53.29 2.38 2.38 0 0 0-1.04 1.44" style="fill:#7d4444"/><path d="M304.75 186.22a1.41 1.41 0 1 1-1.34-1.47 1.41 1.41 0 0 1 1.34 1.47m-11.75-.99a1.41 1.41 0 1 1-1.34-1.47 1.41 1.41 0 0 1 1.34 1.47m-1.16-5.66-3.21 2a2 2 0 0 1 .71-2.18 2.36 2.36 0 0 1 2.5.18m12.06.43 3 2.29a2 2 0 0 0-.51-2.23 2.36 2.36 0 0 0-2.49-.06" style="fill:#263238"/><path d="M331.15 254.78c-2.49-4.85-1.93-11.06 2-18.05 1.2-2.13 1-10.69.66-17a8 8 0 0 0-7.3-7.54l-6.21-.54a24.78 24.78 0 0 1-19.76 9.8c-2.31 0-4.85-.41-5.77-3.24a5.3 5.3 0 0 1-.2-2.43 9.74 9.74 0 0 1 2.18-4.59H293c-4.56 4.05-13.17 20.45-13.71 29.27-.27 4.43 3.15 6.6 5.51 8a51 51 0 0 1 .56 7.65 30.5 30.5 0 0 0 11.42 3.39c12.83 1.68 22.51.58 34.37-4.72" style="fill:#10b981"/><path d="M318.26 240.43a16.38 16.38 0 0 1-19.71 5.79 12.16 12.16 0 0 0 11.25 3.14c3.93-1.01 7.29-5.05 8.46-8.93" style="opacity:.2"/><path d="M139.69 279.33v90.06l3.18-1.84v-90.07z" style="fill:#455a64"/><path d="M139.69 279.33v90.06l-3.19-1.84v-90.07z" style="fill:#37474f"/><path d="m142.87 303.34 74.54-43.03v-3.43l-74.54 43.04z" style="fill:#455a64"/><path d="m142.87 296.31 71.36-41.26 3.18 1.83-74.54 43.04z" style="fill:#37474f"/><path d="M347.59 309.67v90.06l3.19-1.84v-90.07z" style="fill:#455a64"/><path d="M347.59 309.67v90.06l-3.18-1.84v-90.07z" style="fill:#37474f"/><path d="M269.87 354.56v90.07l3.18-1.85v-90.07z" style="fill:#455a64"/><path d="M269.87 354.56v90.07l-3.19-1.85v-90.07z" style="fill:#37474f"/><path d="m273.05 378.57 74.54-43.03v-3.42l-74.54 43.03z" style="fill:#455a64"/><path d="m273.05 371.54 71.36-41.26 3.18 1.84-74.54 43.03z" style="fill:#37474f"/><g style="opacity:.2"><path d="M347.59 309.67v90.06l3.19-1.84v-90.07zm0 0v90.06l-3.18-1.84v-90.07zm-77.72 44.89v90.07l3.18-1.85v-90.07zm0 0v90.07l-3.19-1.85v-90.07z" style="fill:#fff"/><path d="m273.05 378.57 74.54-43.03v-3.42l-74.54 43.03z" style="fill:#fff"/><path d="m273.05 371.54 71.36-41.26 3.18 1.84-74.54 43.03z" style="fill:#fff"/></g><g style="opacity:.2"><path d="M139.69 279.33v90.06l3.18-1.84v-90.07zm0 0v90.06l-3.19-1.84v-90.07zm3.18 24.01 74.54-43.03v-3.43l-74.54 43.04z" style="fill:#fff"/><path d="m142.87 296.31 71.36-41.26 3.18 1.83-74.54 43.04z" style="fill:#fff"/></g><path d="M269.87 345.86 136.5 269.05l80.91-46.74 133.37 76.82z" style="fill:#10b981"/><path d="M269.87 354.56 136.5 277.49v-8.44l133.37 76.81zm0-8.71 80.91-46.73v8.7l-80.91 46.74z" style="fill:#10b981"/><path d="M269.87 345.86 136.5 269.05l80.91-46.74 133.37 76.82z" style="fill:#fff;opacity:.30000000000000004"/><path d="m269.87 345.85 80.91-46.73v8.7l-80.91 46.74z" style="fill:#fff;opacity:.1"/><path d="M269.87 354.56 136.5 277.49v-8.44l133.37 76.81z" style="fill:#fff;opacity:.2"/><path d="m217.41 222.31 133.36 76.81h.01v8.7l-80.91 46.74-133.37-77.07v-8.44z" style="fill:#fff;opacity:.32"/><path d="m238.13 282.87 39.11-22.73-4.04-2.33-39.11 22.73z" style="fill:#10b981"/><path d="m277.24 260.14-39.11 22.73-4.04-2.33 39.11-22.73-27.42-15.83-39.11 22.73v1.19l27.42 15.83 4.04 2.33 27.42 15.83 39.11-22.72v-1.19z" style="fill:#10b981"/><path d="m277.24 260.14-4.04-2.33-27.42-15.83-39.11 22.73v1.19l27.42 15.83 4.04 2.33 27.42 15.83 39.11-22.72v-1.19z" style="opacity:.2"/><path d="M206.67 264.71v1.19l27.42 15.83v-1.19zm27.42 15.83v1.19l4.04 2.33v-1.19z" style="fill:#fff;opacity:.2"/><path d="M265.55 298.7v1.19l39.11-22.72v-1.19z" style="fill:#fff;opacity:.30000000000000004"/><path d="M238.13 282.87v1.19l27.42 15.83v-1.19z" style="fill:#fff;opacity:.2"/><path d="m244.84 241.9-33.73 19.64 27.45 18.51 33.73-19.64.76-1.85c-6.97-13.48-24.05-16.84-28.21-16.66" style="fill:#fff"/><path d="M243.08 271.9a6.71 6.71 0 0 1-7.81-.88c-7.76-7-18.28-9.74-24.16-9.48l27.45 18.51 33.73-19.64.76-1.85a23 23 0 0 0-1.68-2.77Z" style="fill:#ebebeb"/><path d="m211.11 264 27.45 16v-1.8c-7-13.49-23.28-16.84-27.45-16.66Z" style="fill:#e0e0e0"/><path d="m265.72 295.89 36.1-20.55v-4.17l-36.1 20.55z" style="fill:#ebebeb"/><path d="M238.56 278.2v1.85l27.16 15.84v-4.17c-3.05-4.89-16.08-15.26-27.16-13.52" style="fill:#e0e0e0"/><path d="m273.05 258.56-34.49 19.64c11.08-1.74 24.11 8.63 27.16 13.52l36.1-20.55c-3.06-4.89-17.69-14.35-28.77-12.61" style="fill:#fff"/><path d="m265.29 269.35-5.82 2.54a1.47 1.47 0 0 0-.88 1.47 1.47 1.47 0 0 0 1.46 1.34h5.48Z" style="fill:#7d4444"/><path d="M261.67 267.61h1.87v10.57h-1.87z" style="fill:#37474f" transform="rotate(16.08 262.567 272.863)"/><path d="M264.32 257.46h2.43v10.57h-2.43z" style="fill:#455a64" transform="rotate(16.08 265.5 262.7)"/><path d="m267.65 257.85-1.3-.37.64-2.24a.69.69 0 0 1 .84-.47.67.67 0 0 1 .46.84Zm-7.4 19.86 1.79.52-1.87 3.14z" style="fill:#e0e0e0"/><path d="m321.32 218.36-8.65 37.7-39 14.16-5.19-2.41a3.47 3.47 0 0 0-3.86.64l-3.69 3.55a2.93 2.93 0 0 0-.87 1.8l-.36 3.77a1.35 1.35 0 0 0 1 1.45 1.37 1.37 0 0 0 1.69-1.18l.33-3.31 1.93-2.14-1.05 1.61a2.56 2.56 0 0 0-.41 1.47l.09 2.84a2.43 2.43 0 0 0 1.38 2.11l4.49 2.14a2.41 2.41 0 0 0 2.39-.17 20 20 0 0 0 2-1.5 1.24 1.24 0 0 0 .17-1.3l2.06-1.49 41.46-7.1a15.07 15.07 0 0 0 12.24-12l7.24-37.44a7.84 7.84 0 0 0-7.14-9.32 7.86 7.86 0 0 0-8.25 6.12" style="fill:#945d5d"/><path d="M273.67 279.62a4.66 4.66 0 0 1-2.86.48 8.5 8.5 0 0 0 .11-2.81 4 4 0 0 1 .83 2.13 2.73 2.73 0 0 0 1.92.2m39-23.56a10.83 10.83 0 0 1 6.24 2l2.19 1.55-1.54-2.66a5.23 5.23 0 0 0-6.59-2.18Z" style="fill:#7d4444"/><path d="m279.21 220.94-11.71 27.59a8.13 8.13 0 0 1-10.38 4.41 8.13 8.13 0 0 1-3.43-12.67l19.14-23.85a11.2 11.2 0 0 1 2.3-2.16l5.83-4.12a12.45 12.45 0 0 1 5.54-2.14l2.84-2.09a2.87 2.87 0 0 1 2.71-.37l4.38 1.69a2.86 2.86 0 0 1-3.29 1.59l-1.75-.42-2 1.5 2.65 3.7a2.29 2.29 0 0 1-.46 3.17l-5 3.86a1.8 1.8 0 0 1-1.62.29 1.79 1.79 0 0 1-1.23-2.08 6.37 6.37 0 0 1-4.52 2.1" style="fill:#945d5d"/><path d="M289.35 209.87a6.8 6.8 0 0 0-1.83-1.51l3.52.26Z" style="opacity:.2"/><path d="M179.59 268.66a15.32 15.32 0 0 0-13.92 0c-3.83 2.22-3.81 5.83.05 8.06a15.32 15.32 0 0 0 13.92 0c3.83-2.23 3.81-5.84-.05-8.06" style="opacity:.05"/><path d="m182.94 254.64-10.59.31-10.58-.31c-.45 7.15.94 14.43 2.87 18a4.85 4.85 0 0 0 2.1 2.13 12.44 12.44 0 0 0 11.27 0 4.76 4.76 0 0 0 2.09-2.19c1.9-3.58 3.29-10.83 2.84-17.94" style="fill:#fff"/><path d="M179.81 250.31c4.15 2.39 4.17 6.27.05 8.67a16.5 16.5 0 0 1-15 0c-4.15-2.4-4.17-6.28-.05-8.67a16.5 16.5 0 0 1 15 0" style="fill:#ebebeb"/><path d="M178.17 251.26c3.24 1.87 3.25 4.9 0 6.76a12.84 12.84 0 0 1-11.67 0c-3.24-1.86-3.25-4.89 0-6.76a12.9 12.9 0 0 1 11.67 0" style="fill:#e0e0e0"/><path d="M178.17 251.26c3.24 1.87 3.25 4.9 0 6.76a12.84 12.84 0 0 1-11.67 0c-3.24-1.86-3.25-4.89 0-6.76a12.9 12.9 0 0 1 11.67 0" style="opacity:.15"/><path d="M171.47 254.94a7 7 0 0 0 6.21 1.41A6.49 6.49 0 0 0 182 252a12.8 12.8 0 0 1-3.4-2.36 8.67 8.67 0 0 1 4.81.17 4.9 4.9 0 0 0 .36-4.59 8.36 8.36 0 0 0-5.73-.39 7.57 7.57 0 0 1 5.8-1.83 22.2 22.2 0 0 0-1.4-8.91c-3.94.2-7.77 1.9-9.06 3.13a14.4 14.4 0 0 0 .44 4.19 3.39 3.39 0 0 1-1.83-2.71c-2.47.61-3.53 1.85-3.91 2.79a10.4 10.4 0 0 0 2.33 4.73 5.72 5.72 0 0 1-3.25-3.28c-2.25 5.36-1.82 11.48 4.31 12" style="fill:#10b981"/><path d="M171.47 254.94a7 7 0 0 0 6.21 1.41A6.49 6.49 0 0 0 182 252a12.8 12.8 0 0 1-3.4-2.36 8.67 8.67 0 0 1 4.81.17 4.9 4.9 0 0 0 .36-4.59 8.36 8.36 0 0 0-5.73-.39 7.57 7.57 0 0 1 5.8-1.83 22.2 22.2 0 0 0-1.4-8.91c-3.94.2-7.77 1.9-9.06 3.13a14.4 14.4 0 0 0 .44 4.19 3.39 3.39 0 0 1-1.83-2.71c-2.47.61-3.53 1.85-3.91 2.79a10.4 10.4 0 0 0 2.33 4.73 5.72 5.72 0 0 1-3.25-3.28c-2.25 5.36-1.82 11.48 4.31 12" style="opacity:.2"/><path d="M171.47 254.94a7 7 0 0 0 6.21 1.41A6.49 6.49 0 0 0 182 252a12.8 12.8 0 0 1-3.4-2.36 8.67 8.67 0 0 1 4.81.17 4.9 4.9 0 0 0 .36-4.59 8.36 8.36 0 0 0-5.73-.39 7.57 7.57 0 0 1 5.8-1.83 22.2 22.2 0 0 0-1.4-8.91c-3.94.2-7.77 1.9-9.06 3.13a14.4 14.4 0 0 0 .44 4.19 3.39 3.39 0 0 1-1.83-2.71c-2.47.61-3.53 1.85-3.91 2.79a10.4 10.4 0 0 0 2.33 4.73 5.72 5.72 0 0 1-3.25-3.28c-2.25 5.36-1.82 11.48 4.31 12" style="fill:#fff;opacity:.30000000000000004"/><path d="M171.33 255.53a.23.23 0 0 1-.21-.25c.37-5 3.22-13.2 10-20a.23.23 0 0 1 .32 0 .24.24 0 0 1 0 .33c-6.71 6.69-9.52 14.79-9.89 19.7a.23.23 0 0 1-.22.22" style="fill:#f5f5f5"/><path d="M173.2 257.61a6.48 6.48 0 0 1-10.13-2.67 10.8 10.8 0 0 0 3.06-2.08 8.74 8.74 0 0 0-4.54.13 4.26 4.26 0 0 1-.64-4.09 8.4 8.4 0 0 1 5.42-.32 8 8 0 0 0-5.62-1.66 18.2 18.2 0 0 1 .76-8c3.76.23 7.48 1.79 8.77 2.89a11.7 11.7 0 0 1-.15 3.72 2.73 2.73 0 0 0 1.56-2.39c2.35.57 3.42 1.67 3.83 2.5a8.13 8.13 0 0 1-1.9 4.18 4.66 4.66 0 0 0 2.85-2.88c2.45 4.82 2.42 10.21-3.27 10.67" style="fill:#10b981"/><path d="M173.2 257.61a6.48 6.48 0 0 1-10.13-2.67 10.8 10.8 0 0 0 3.06-2.08 8.74 8.74 0 0 0-4.54.13 4.26 4.26 0 0 1-.64-4.09 8.4 8.4 0 0 1 5.42-.32 8 8 0 0 0-5.62-1.66 18.2 18.2 0 0 1 .76-8c3.76.23 7.48 1.79 8.77 2.89a11.7 11.7 0 0 1-.15 3.72 2.73 2.73 0 0 0 1.56-2.39c2.35.57 3.42 1.67 3.83 2.5a8.13 8.13 0 0 1-1.9 4.18 4.66 4.66 0 0 0 2.85-2.88c2.45 4.82 2.42 10.21-3.27 10.67" style="fill:#fff;opacity:.30000000000000004"/><path d="M173.35 258.15a.24.24 0 0 1-.23-.19c-.64-4.34-3.8-11.54-10.55-17.56a.23.23 0 0 1 0-.32.25.25 0 0 1 .33 0c6.84 6.1 10 13.42 10.69 17.83a.22.22 0 0 1-.19.26Z" style="fill:#fff"/><path d="M261.74 305.05a14.43 14.43 0 0 0 13.11 0c1.8-1.05 2.7-2.42 2.69-3.79s-.92-2.75-2.74-3.8a14.47 14.47 0 0 0-13.1 0c-1.8 1.05-2.7 2.42-2.69 3.8s.92 2.74 2.73 3.79" style="fill:#e0e0e0"/><path d="M262.64 308.59a12.46 12.46 0 0 0 11.31 0 4 4 0 0 0 2.32-3.28 4 4 0 0 0-2.36-3.27 12.46 12.46 0 0 0-11.31 0 3.93 3.93 0 0 0-2.32 3.27 4 4 0 0 0 2.36 3.28" style="fill:#7d4444"/><path d="M262.64 308.59a12.46 12.46 0 0 0 11.31 0 4 4 0 0 0 2.32-3.28 4 4 0 0 0-2.36-3.27 12.46 12.46 0 0 0-11.31 0 3.93 3.93 0 0 0-2.32 3.27 4 4 0 0 0 2.36 3.28" style="opacity:.30000000000000004"/><path d="M262.64 308.59a12.46 12.46 0 0 0 11.31 0 4 4 0 0 0 2.32-3.28 4 4 0 0 0-2.36-3.27 12.46 12.46 0 0 0-11.31 0 3.93 3.93 0 0 0-2.32 3.27 4 4 0 0 0 2.36 3.28" style="fill:#fff;opacity:.30000000000000004"/><path d="M277.54 301.26c0 1.37-.89 2.74-2.69 3.79a14.43 14.43 0 0 1-13.11 0c-1.81-1.05-2.72-2.42-2.73-3.79V324c0 1.37.92 2.74 2.73 3.79a14.43 14.43 0 0 0 13.11 0c1.8-1.05 2.7-2.42 2.69-3.79z" style="fill:#f5f5f5"/><path d="m229 112.2 40.9 23.66a5.39 5.39 0 0 1 2.68 4.63v35.28a5.27 5.27 0 0 1-8.06 4.34l-7.46-4.37.12 2.73s-.05 0-.07.06h-.05c-.79.51-2.16 1.25-2.47 1.41a.3.3 0 0 1-.37-.18L246 169.41l-22.34-12.9a5.34 5.34 0 0 1-2.69-4.63v-35.34c-.04-3.85 5.64-5.71 8.03-4.34" style="fill:#10b981"/><path d="m257.06 175.74-3.16-1.86.69 6.1 2.59-1.51z" style="fill:#fff;opacity:.2"/><path d="M266.58 140.89a5.6 5.6 0 0 0-1.43-1.79 5 5 0 0 0-.64-.44L223.6 115a1.78 1.78 0 0 0-2.67 1.54c0-3.85 5.68-5.71 8.07-4.34l40.9 23.66a5.36 5.36 0 0 1 2 2Z" style="fill:#fff;opacity:.4"/><path d="M267.18 178.56v-35.9a6 6 0 0 0-.56-1.77l5.31-3a5.33 5.33 0 0 1 .69 2.61v35.28a5.27 5.27 0 0 1-8.06 4.34 1.78 1.78 0 0 0 2.62-1.56" style="fill:#fff;opacity:.2"/><g style="opacity:.6000000000000001"><path d="m231.71 128.41.14.15.08.23-.06.17h-.14a.5.5 0 0 0-.39 0 .63.63 0 0 0-.31.29 4.5 4.5 0 0 0-.38.82c-.12.31-.27.75-.45 1.31-.3.91-.57 1.64-.81 2.18a2.46 2.46 0 0 1-1 1.16 1.38 1.38 0 0 1-1.49-.14 3.3 3.3 0 0 1-1.2-1.18 2.9 2.9 0 0 1-.47-1.56 1.8 1.8 0 0 1 .23-.94.91.91 0 0 1 .62-.45 1.1 1.1 0 0 1 .81.16 3 3 0 0 1 .33.24l.13.17v.2l-.09.17-.22-.07-.18-.13a.7.7 0 0 0-.58-.1.68.68 0 0 0-.44.35 1.2 1.2 0 0 0-.17.65 2 2 0 0 0 .34 1.12 2.3 2.3 0 0 0 .84.81 1.07 1.07 0 0 0 1.27 0A2.5 2.5 0 0 0 229 133c.21-.49.44-1.16.71-2 .17-.54.32-1 .45-1.34a5 5 0 0 1 .42-.89.87.87 0 0 1 .44-.39.83.83 0 0 1 .6 0Z" style="fill:#fff"/><path d="M231.43 127.44a6 6 0 0 1 2.28 2.59 8.3 8.3 0 0 1 .74 3.56 7.9 7.9 0 0 1-.43 2.67 3.12 3.12 0 0 1-1.24 1.69 1.78 1.78 0 0 1-1.89-.15 4 4 0 0 1-1.37-1.25A2.77 2.77 0 0 1 229 135a.89.89 0 0 1 .36-.84.76.76 0 0 1 .82.07 2 2 0 0 1 .69.68 3.3 3.3 0 0 1 .43 1v.09l-.06.17h-.17a.46.46 0 0 1-.23-.32 3 3 0 0 0-.27-.64 1.2 1.2 0 0 0-.4-.43.42.42 0 0 0-.49 0 .56.56 0 0 0-.21.51 1.86 1.86 0 0 0 .42 1.12 3.5 3.5 0 0 0 1 .88 1.43 1.43 0 0 0 1.64 0 3 3 0 0 0 1.07-1.6 8 8 0 0 0 .37-2.39 7.4 7.4 0 0 0-.62-3.1 5 5 0 0 0-1.92-2.2 2.64 2.64 0 0 0-1.77-.46 1.59 1.59 0 0 0-1.14.91 4.8 4.8 0 0 0-.42 2l-.07.16h-.17l-.16-.17-.08-.25a5 5 0 0 1 .48-2.3 1.81 1.81 0 0 1 1.33-1 3 3 0 0 1 2 .55m6.7 18.48.14.14.09.23-.06.18h-.14a.55.55 0 0 0-.4 0 .67.67 0 0 0-.3.3 3.7 3.7 0 0 0-.38.82c-.12.3-.27.75-.46 1.31a21 21 0 0 1-.8 2.17 2.6 2.6 0 0 1-1 1.18 1.41 1.41 0 0 1-1.49-.15 3.3 3.3 0 0 1-1.19-1.18 2.94 2.94 0 0 1-.48-1.57 2 2 0 0 1 .23-.94 1 1 0 0 1 .62-.44 1.2 1.2 0 0 1 .82.16 1.3 1.3 0 0 1 .32.25l.13.17v.19l-.08.16-.23-.07-.18-.12a.78.78 0 0 0-.58-.11.83.83 0 0 0-.44.35 1.3 1.3 0 0 0-.16.66 2.06 2.06 0 0 0 .33 1.12 2.4 2.4 0 0 0 .84.81 1.07 1.07 0 0 0 1.27 0 2.47 2.47 0 0 0 .84-1.11c.2-.48.44-1.15.71-2 .16-.54.31-1 .44-1.35a5.3 5.3 0 0 1 .42-.89 1 1 0 0 1 .44-.39.9.9 0 0 1 .61 0Z" style="fill:#fff"/><path d="M237.85 145a5.86 5.86 0 0 1 2.28 2.58 8.2 8.2 0 0 1 .74 3.57 7.8 7.8 0 0 1-.43 2.66 3 3 0 0 1-1.24 1.69 1.76 1.76 0 0 1-1.89-.14 4.24 4.24 0 0 1-1.37-1.26 2.8 2.8 0 0 1-.53-1.57.92.92 0 0 1 .36-.84.77.77 0 0 1 .83.07 2 2 0 0 1 .69.68 3.6 3.6 0 0 1 .43 1v.09l-.06.17h-.17a.48.48 0 0 1-.22-.31 2.4 2.4 0 0 0-.28-.65 1.2 1.2 0 0 0-.39-.43.42.42 0 0 0-.49 0 .59.59 0 0 0-.21.52 1.75 1.75 0 0 0 .42 1.11 3.4 3.4 0 0 0 1 .89 1.43 1.43 0 0 0 1.64 0 3 3 0 0 0 1.06-1.6 8.1 8.1 0 0 0-.24-5.5 5.1 5.1 0 0 0-1.93-2.21 2.68 2.68 0 0 0-1.77-.45 1.61 1.61 0 0 0-1.14.91 4.64 4.64 0 0 0-.41 2l-.07.16h-.17l-.17-.18-.07-.24a5 5 0 0 1 .48-2.3 1.8 1.8 0 0 1 1.32-1 3 3 0 0 1 2 .58m10-1.44a.44.44 0 0 1 .15.33v.11a4.2 4.2 0 0 1-1.06 1.52.87.87 0 0 1-1 0 1.6 1.6 0 0 1-.62-.66 2 2 0 0 1-.2-.93 2.8 2.8 0 0 1 .11-.79c0-.18.17-.53.35-1.07s.3-.87.36-1c-.36-.33-.61-.59-.8-.76a6 6 0 0 1-.45-.49c0 .07-.18.38-.46.91l-.41.79c-.06.11-.1.2-.15.3-.17.29-.31.54-.44.72a1.6 1.6 0 0 1-.65.59.87.87 0 0 1-.86-.08 1.5 1.5 0 0 1-.61-.66 1.9 1.9 0 0 1-.22-.93 1.08 1.08 0 0 1-1.44.28 1.7 1.7 0 0 1-.69-.8 2.7 2.7 0 0 1-.24-1.15 1.8 1.8 0 0 1-.57.41 1.68 1.68 0 0 1-1.54-.22 3 3 0 0 1-1.5-2.68 4.3 4.3 0 0 1 .42-1.68 2.9 2.9 0 0 1 1-1.22 1.1 1.1 0 0 1 1.24 0 2 2 0 0 1 .71.66 1.6 1.6 0 0 1 .27.88 1 1 0 0 1-.91 1.09 4.9 4.9 0 0 1-2.09-.21 2.8 2.8 0 0 0-.13.86 1.9 1.9 0 0 0 .28 1 2.2 2.2 0 0 0 .8.78 1.26 1.26 0 0 0 1.24.13 2.5 2.5 0 0 0 1-1.26c.06-.14.08-.27.13-.4a3.44 3.44 0 0 1 1-1.41 1 1 0 0 1 1.23-.1 2.23 2.23 0 0 1 1 1.3l.2-.48.09-.08h.14a.52.52 0 0 1 .2.24v.26l-.58 1.44-.13.33c-.23.61-.4 1.09-.51 1.42a2.8 2.8 0 0 0-.16.85 1.2 1.2 0 0 0 .07.46.7.7 0 0 0 .27.29.62.62 0 0 0 .85-.16 6.2 6.2 0 0 0 .8-1.29l.76-1.41.14-.32a2.5 2.5 0 0 1-.59-1.44q0-.41.21-.51a.49.49 0 0 1 .49.05 1.23 1.23 0 0 1 .49.52 1.56 1.56 0 0 1 .18.74v.24a1.4 1.4 0 0 1-.08.25c0 .08-.05.17-.08.24.17.21.53.56 1 1.07l.44.41a.47.47 0 0 1 .15.36v.1c-.08.19-.22.57-.43 1.14s-.32.93-.35 1.08a4 4 0 0 0-.1.66.81.81 0 0 0 .34.76.59.59 0 0 0 .78-.12 4.9 4.9 0 0 0 .88-1.37.15.15 0 0 1 .22-.05Zm-7-3.16c.19-.34.39-.77.61-1.28l.28-.69a1.7 1.7 0 0 0-.21-.83 1.4 1.4 0 0 0-.53-.6.75.75 0 0 0-1 .2 3.3 3.3 0 0 0-.78 1.28 4.6 4.6 0 0 0-.32 1.51 2.4 2.4 0 0 0 .1.77.77.77 0 0 0 .35.45.67.67 0 0 0 .8 0 2.5 2.5 0 0 0 .66-.81m-4.37-5.26a3.8 3.8 0 0 0-.84 1.2 5.7 5.7 0 0 0 1.64.12.71.71 0 0 0 .7-.75.63.63 0 0 0-.14-.4 1.2 1.2 0 0 0-.36-.31.77.77 0 0 0-1 .14m7.91 3.74a1.7 1.7 0 0 0 .12-.47.54.54 0 0 0-.05-.27l-.13-.14q-.21-.13-.21.12a1.4 1.4 0 0 0 .06.37 2 2 0 0 0 .21.39m-1.2 11.12a.7.7 0 0 1 .27.29.7.7 0 0 1 .11.38c0 .13 0 .21-.11.25a.25.25 0 0 1-.27 0 .85.85 0 0 1-.41-.68.26.26 0 0 1 .12-.24.28.28 0 0 1 .29 0m14.37 15.28a.8.8 0 0 1 .29.31.7.7 0 0 1 .11.38.25.25 0 0 1-.12.25.27.27 0 0 1-.28 0 .9.9 0 0 1-.28-.29.86.86 0 0 1-.11-.39.3.3 0 0 1 .11-.25.26.26 0 0 1 .28-.01m-.04-2.35a.45.45 0 0 1 .15.33v.11a3.46 3.46 0 0 1-1.35 1.64 2.6 2.6 0 0 1-2 .15 3.3 3.3 0 0 1-1 1.52 1 1 0 0 1-1.16 0 2.17 2.17 0 0 1-.81-.81 2.2 2.2 0 0 1-.3-1.11c0-.88.65-1.08 1.95-.61a8 8 0 0 0 .91.32l.29-.79a.88.88 0 0 1-.87 0 2.34 2.34 0 0 1-1-1 2.6 2.6 0 0 1-.24-.77 1 1 0 0 1-.27.25.87.87 0 0 1-1.06 0 1.45 1.45 0 0 1-.61-.66 2 2 0 0 1-.21-.92 3 3 0 0 1 .12-.8c0-.17.16-.53.35-1.06s.3-.87.36-1c-.36-.33-.62-.59-.8-.77l-.45-.47c0 .07-.18.37-.47.9l-.4.79-.17.32c-.17.3-.3.55-.43.73a1.6 1.6 0 0 1-.65.59.93.93 0 0 1-.86-.08 1.55 1.55 0 0 1-.62-.67 2 2 0 0 1-.21-.92 1.09 1.09 0 0 1-1.44.28 1.77 1.77 0 0 1-.7-.8 2.7 2.7 0 0 1-.22-1 3 3 0 0 1-.33.37.86.86 0 0 1-1.13.07 1.55 1.55 0 0 1-.6-.64 1.84 1.84 0 0 1-.22-.87 5.7 5.7 0 0 1 .37-1.71c.26-.71.59-1.55 1-2.53l.09-.09h.13l.17.17.08.23v.08l-.29.8c-.47 1.23-.76 2-.87 2.35a3 3 0 0 0-.17.88 1.06 1.06 0 0 0 .09.47.57.57 0 0 0 .25.28.6.6 0 0 0 .84-.16 6 6 0 0 0 .83-1.33 3 3 0 0 0 .14-.39 3.33 3.33 0 0 1 1-1.42 1 1 0 0 1 1.22-.1 2.3 2.3 0 0 1 1.05 1.31l.19-.49.09-.08.15.05a.45.45 0 0 1 .2.23v.26l-.57 1.44-.13.34c-.24.61-.4 1.08-.52 1.42a3 3 0 0 0-.15.85 1.2 1.2 0 0 0 .07.47.67.67 0 0 0 1.12.11 5.8 5.8 0 0 0 .79-1.29l.77-1.44.14-.32a2.6 2.6 0 0 1-.59-1.45c0-.27.07-.43.21-.51a.52.52 0 0 1 .5.06 1.27 1.27 0 0 1 .49.51 1.47 1.47 0 0 1 .17.74v.25l-.08.25-.08.24c.17.21.53.57 1 1.07l.44.41a.5.5 0 0 1 .15.36v.13c-.08.18-.22.55-.43 1.13s-.32.93-.35 1.07a3 3 0 0 0-.11.67.81.81 0 0 0 .34.75.61.61 0 0 0 .79-.11 5 5 0 0 0 .83-1.29c.08-.18.17-.4.27-.65l.14-.32.64-1.64.09-.08h.14a.57.57 0 0 1 .2.23v.26l-.63 1.65-.35.88c-.14.34-.24.58-.29.73a1.8 1.8 0 0 0-.07.46 1.4 1.4 0 0 0 .76 1.3c.29.17.6.06.93-.31a4.8 4.8 0 0 0 .88-1.57c.07-.2.18-.49.34-.88l.52-1.24.08-.08h.13l.2.24v.28c-.34.81-.62 1.5-.87 2.11l-.93 2.48-.17.48a2 2 0 0 0 1.6-.29 3.63 3.63 0 0 0 1.12-1.44.14.14 0 0 1 .21 0ZM245.73 157c.18-.34.39-.76.61-1.28l.28-.68a1.9 1.9 0 0 0-.22-.84 1.4 1.4 0 0 0-.52-.56.77.77 0 0 0-1 .2 3.6 3.6 0 0 0-.79 1.29 4.8 4.8 0 0 0-.31 1.51 2.5 2.5 0 0 0 .1.77.8.8 0 0 0 .34.45.67.67 0 0 0 .81 0 2.4 2.4 0 0 0 .66-.81m7.27 9.11a2.27 2.27 0 0 0 .69-1.14l-.63-.21a2.7 2.7 0 0 0-1.16-.24.49.49 0 0 0-.4.5 1.2 1.2 0 0 0 .18.64 1.2 1.2 0 0 0 .45.47.73.73 0 0 0 .87 0m-3.74-10.62a1.5 1.5 0 0 0 .13-.48.53.53 0 0 0 0-.26l-.13-.15c-.14-.08-.22 0-.22.12a1.1 1.1 0 0 0 .07.37 2.5 2.5 0 0 0 .2.4m11.04 11.33a.73.73 0 0 1 .29.31.9.9 0 0 1 .12.38.27.27 0 0 1-.12.25.28.28 0 0 1-.29 0 .8.8 0 0 1-.27-.3.73.73 0 0 1-.12-.38.29.29 0 0 1 .12-.26.27.27 0 0 1 .27 0m2.8 1.62a.74.74 0 0 1 .28.3.77.77 0 0 1 .12.39.23.23 0 0 1-.12.24.28.28 0 0 1-.29 0 .9.9 0 0 1-.27-.3.7.7 0 0 1-.11-.38c0-.12 0-.21.11-.25s.17-.06.28 0" style="fill:#fff"/></g></svg>