<svg xmlns="http://www.w3.org/2000/svg" viewBox="0 0 500 500"><path d="M404.91 269.55c86.12 48.8 86.58 127.91 1 176.7s-224.71 48.75-310.83 0-86.57-127.9-1-176.69 224.72-48.8 310.83-.01" style="fill:#f5f5f5"/><path d="m321.69 49.23 4.41-2.56-.26 91.13-4.4 2.57z" style="fill:#f0f0f0"/><path d="m321.44 140.37 4.4-2.57 127.14 73.4-4.41 2.56z" style="fill:#f5f5f5"/><path d="m316.64 40.48 137.27 79.25-.29 102.79-137.27-79.26Zm131.93 173.28.26-91.13-127.14-73.4-.25 91.13z" style="fill:#e0e0e0"/><path d="m316.64 40.48 4.41-2.57 137.27 79.26-4.41 2.56z" style="fill:#f5f5f5"/><path d="m453.91 119.73 4.41-2.56-.29 102.79-4.41 2.56z" style="fill:#f0f0f0"/><path d="m382.72 84.47-.26 91.13 5.07 2.93.26-91.14z" style="fill:#e0e0e0"/><path d="m387.79 87.39-.26 91.14 4.41-2.56.25-86.04z" style="fill:#f0f0f0"/><rect height="5.86" x="385.26" y="83" style="fill:#e0e0e0" transform="rotate(-60 385.259 85.932)"/><path d="m387.79 91.49.01-4.1-5.07-2.92-.02 4.09z" style="opacity:.2"/><path d="m387.78 91.49 3.56-2.05-3.55-2.05z" style="opacity:.2"/><path d="M108.35 327c-2.83 1.64-2.85 4.29 0 5.92l10.13 5.89a11.28 11.28 0 0 0 10.23 0l122.13-70.95c2.83-1.63 2.86-4.29 0-5.93l-10.14-5.89a11.28 11.28 0 0 0-10.23 0Zm17.14 73 90.27 52.45a8.25 8.25 0 0 0 8.29 0L388 357.83a2.07 2.07 0 0 0 0-3.58l-89-51.72a8.27 8.27 0 0 0-8.24 0l-165.25 93.9a2.07 2.07 0 0 0-.02 3.57" style="fill:#e6e6e6"/><path d="m86.85 87.43-28.8 16.63.07 22.01 28.8-16.63z" style="fill:none"/><path d="m86.85 87.43.07 22.01 2.66 1.55-.07-25.09z" style="fill:#f0f0f0"/><path d="m58.12 126.07.01 3.08 31.45-18.16-2.66-1.55z" style="fill:#f5f5f5"/><path d="m92.72 80.34-37.9 21.88.09 32.5 37.91-21.88Zm-34.6 48.81v-3.08l-.07-22 28.8-16.63 2.66-1.53.07 25.09Z" style="fill:#e0e0e0"/><path d="m92.72 80.34-2.66-1.55-37.91 21.88 2.67 1.55z" style="fill:#f5f5f5"/><path d="m52.15 100.67.09 32.5 2.67 1.55-.09-32.5z" style="fill:#f0f0f0"/><path d="m86.85 133.3-28.8 16.63.07 22.01 28.8-16.63z" style="fill:none"/><path d="m86.85 133.3.07 22.01 2.66 1.55-.07-25.1z" style="fill:#f0f0f0"/><path d="m58.12 171.94.01 3.08 31.45-18.16-2.66-1.55z" style="fill:#f5f5f5"/><path d="m92.72 126.2-37.9 21.89.09 32.5 37.91-21.89ZM58.12 175v-3.09l-.07-22 28.8-16.62 2.66-1.54.07 25.1Z" style="fill:#e0e0e0"/><path d="m92.72 126.2-2.66-1.55-37.91 21.89 2.67 1.55z" style="fill:#f5f5f5"/><path d="m52.15 146.54.09 32.49 2.67 1.56-.09-32.5z" style="fill:#f0f0f0"/><path d="m77.7 95.79 7.86 6.18.01 6.04-26.12 15.08-.02-6.04 4.98-9.88 4.47 3.47-1.58 4.91 2.3-4.36z" style="fill:#e0e0e0"/><path d="M69.12 98.83c1.23-.71 2.23-.14 2.24 1.28a4.9 4.9 0 0 1-2.22 3.89c-1.23.71-2.23.14-2.24-1.27a4.9 4.9 0 0 1 2.22-3.9m8.58 42.83 7.86 6.18.01 6.04-26.12 15.08-.02-6.04 4.98-9.89 4.47 3.47-1.58 4.91 2.3-4.36z" style="fill:#e0e0e0"/><path d="M69.12 144.7c1.23-.71 2.23-.14 2.24 1.27a4.9 4.9 0 0 1-2.22 3.85c-1.23.71-2.23.14-2.24-1.28a4.9 4.9 0 0 1 2.22-3.84" style="fill:#e0e0e0"/><path d="m397.11 279.36-.01 3.41-56.14-32.42.01-3.41zm-20-6.12-.01 3.41-36.16-20.88.01-3.41zm-16.4-47.31a5.4 5.4 0 0 1 1.53 1.32c1.78 2.13 2.22 5 2.46 7.49.34 3.45.69 6.9 1 10.35a23.7 23.7 0 0 0 1 5.34 10.56 10.56 0 0 0 3.15 4.86 4 4 0 0 0 .54.36 3.14 3.14 0 0 0 3.49 0 9.3 9.3 0 0 0 2.3-3.23 7.9 7.9 0 0 1 3.07-3.49 4.55 4.55 0 0 1 4.29.36 7 7 0 0 1 .76.52c2.91 2.23 4.63 6.61 6 10.41s3.12 8.21 6.05 10.34a7 7 0 0 0 .6.4 4.93 4.93 0 0 0 5.75-.47c1.61-1.23 2.91-3 4.92-3.54a4.87 4.87 0 0 1 3.14.44v16.6L341 243.74l.08-27.59a23.7 23.7 0 0 1 2.74 7.29c.6 3.32.46 6.93 2.7 9.86a6.8 6.8 0 0 0 2 1.76 4 4 0 0 0 2.83.56c1.38-.36 2.25-1.65 2.82-3.17.77-2 1.12-4.5 2.34-6a3.23 3.23 0 0 1 4.2-.52" style="fill:#10b981"/><path d="M360.71 225.93a5.4 5.4 0 0 1 1.53 1.32c1.78 2.13 2.22 5 2.46 7.49.34 3.45.69 6.9 1 10.35a23.7 23.7 0 0 0 1 5.34 10.56 10.56 0 0 0 3.15 4.86 4 4 0 0 0 .54.36 3.14 3.14 0 0 0 3.49 0 9.3 9.3 0 0 0 2.3-3.23 7.9 7.9 0 0 1 3.07-3.49 4.55 4.55 0 0 1 4.29.36 7 7 0 0 1 .76.52c2.91 2.23 4.63 6.61 6 10.41s3.12 8.21 6.05 10.34a7 7 0 0 0 .6.4 4.93 4.93 0 0 0 5.75-.47c1.61-1.23 2.91-3 4.92-3.54a4.87 4.87 0 0 1 3.14.44v16.6L341 243.74l.08-27.59a23.7 23.7 0 0 1 2.74 7.29c.6 3.32.46 6.93 2.7 9.86a6.8 6.8 0 0 0 2 1.76 4 4 0 0 0 2.83.56c1.38-.36 2.25-1.65 2.82-3.17.77-2 1.12-4.5 2.34-6a3.23 3.23 0 0 1 4.2-.52" style="fill:#fff;opacity:.4"/><path d="m421.8 138.77-78.65-45.41a2.26 2.26 0 0 0-2.06-.26h-.06l-.12.07-3.18 1.83h-.12a2.23 2.23 0 0 0-.83 1.93l-.06 21.2a6.78 6.78 0 0 0 3.08 5.34L418.45 169a2.18 2.18 0 0 0 2.21.21l3.24-1.87a2.23 2.23 0 0 0 .87-2l.06-21.2a6.83 6.83 0 0 0-3.03-5.37" style="fill:#10b981"/><path d="m421.8 138.77-78.65-45.41a2.26 2.26 0 0 0-2.06-.26h-.06l-.12.07-3.18 1.83a2.2 2.2 0 0 1 2.15.23l78.65 45.41a6.8 6.8 0 0 1 2.73 3.51l3.28-1.87a6.77 6.77 0 0 0-2.74-3.51" style="fill:#fff;opacity:.30000000000000004"/><path d="M421.26 144.17a5.3 5.3 0 0 1 .35 1.83l-.06 21.21a2.17 2.17 0 0 1-.89 2l3.24-1.87a2.23 2.23 0 0 0 .87-2l.06-21.2a5.4 5.4 0 0 0-.35-1.82Z" style="opacity:.2"/><path d="M358.76 114.41c1.71 3 1.85 6.15.43 7.51l-5.62-3.24-.39-3.4a.73.73 0 0 0-.3-.49c-.16-.09-.29 0-.31.13l-.82 5-1.06-8a.73.73 0 0 0-.31-.48.18.18 0 0 0-.3.13l-.77 5.49-.77-4.12a.73.73 0 0 0-.3-.45c-.15-.08-.27 0-.3.09l-.7 2.43-4.59-2.65c-1.41-3-1.25-6 .48-7a3.44 3.44 0 0 1 3.43.35 9.83 9.83 0 0 1 3.41 3.6l1 1.68 1-.56a3.45 3.45 0 0 1 3.42.35 9.85 9.85 0 0 1 3.37 3.63m-5.91 3-.8 4.92c0 .15-.15.2-.3.11a.66.66 0 0 1-.31-.47l-1-7.88-.71 5.08c0 .16-.15.21-.31.14a.68.68 0 0 1-.3-.46l-.87-4.63-.43 1.53c0 .13-.16.17-.3.09l-4.28-2.47.88 1.53 6.82 11.81 6.86-3.92.88-.5-5.33-3.08a.7.7 0 0 1-.31-.48Z" style="fill:#10b981"/><path d="M350.38 111.45a.73.73 0 0 1 .31.48l1.06 8 .82-5c0-.16.15-.22.31-.13a.73.73 0 0 1 .3.49l.39 3.4 5.62 3.24 3.19 1.84a.69.69 0 0 1 .31.54c0 .19-.14.27-.32.17l-3.73-2.15-5.33-3.08a.7.7 0 0 1-.31-.48l-.15-1.32-.8 4.92c0 .15-.15.2-.3.11a.66.66 0 0 1-.31-.47l-1-7.88-.71 5.08a.18.18 0 0 1-.29.14.64.64 0 0 1-.32-.46l-.87-4.63-.43 1.53c0 .13-.16.17-.3.09l-4.28-2.47-3.73-2.16a.66.66 0 0 1-.31-.52c0-.2.14-.28.31-.19l3.18 1.84 4.59 2.65.7-2.43c0-.13.15-.17.28-.1a.73.73 0 0 1 .32.46l.77 4.12.77-5.49a.18.18 0 0 1 .26-.14" style="fill:#fff"/><path d="M358.76 114.41c1.71 3 1.85 6.15.43 7.51l-5.62-3.24-.39-3.4a.73.73 0 0 0-.3-.49c-.16-.09-.29 0-.31.13l-.82 5-1.06-8a.73.73 0 0 0-.31-.48.18.18 0 0 0-.3.13l-.77 5.49-.77-4.12a.73.73 0 0 0-.3-.45c-.15-.08-.27 0-.3.09l-.7 2.43-4.59-2.65c-1.41-3-1.25-6 .48-7a3.44 3.44 0 0 1 3.43.35 9.83 9.83 0 0 1 3.41 3.6l1 1.68 1-.56a3.45 3.45 0 0 1 3.42.35 9.85 9.85 0 0 1 3.37 3.63m-5.91 3-.8 4.92c0 .15-.15.2-.3.11a.66.66 0 0 1-.31-.47l-1-7.88-.71 5.08c0 .16-.15.21-.31.14a.68.68 0 0 1-.3-.46l-.87-4.63-.43 1.53c0 .13-.16.17-.3.09l-4.28-2.47.88 1.53 6.82 11.81 6.86-3.92.88-.5-5.33-3.08a.7.7 0 0 1-.31-.48Z" style="fill:#fff;opacity:.4"/><path d="m405.6 153.57-.01 3.5-40.77-23.54.01-3.5zm7.85-2.34-.01 3.51-48.6-28.06.01-3.51zm-31.88-25.28-.01 3.5-16.7-9.64.01-3.5z" style="fill:#fff"/><path d="m421.8 180.11-78.65-45.41a2.26 2.26 0 0 0-2.06-.26h-.06l-.12.07-3.18 1.83h-.12a2.23 2.23 0 0 0-.83 1.93l-.06 21.2a6.78 6.78 0 0 0 3.08 5.34l78.65 45.41a2.18 2.18 0 0 0 2.21.21l3.24-1.87a2.2 2.2 0 0 0 .87-2l.06-21.21a6.82 6.82 0 0 0-3.03-5.24" style="fill:#10b981"/><path d="m421.8 180.11-78.65-45.41a2.26 2.26 0 0 0-2.06-.26h-.06l-.12.07-3.18 1.83a2.2 2.2 0 0 1 2.15.23L418.53 182a6.8 6.8 0 0 1 2.73 3.51l3.28-1.87a6.77 6.77 0 0 0-2.74-3.53" style="fill:#fff;opacity:.30000000000000004"/><path d="M421.26 185.51a5.3 5.3 0 0 1 .35 1.83l-.06 21.21a2.17 2.17 0 0 1-.89 2l3.24-1.87a2.2 2.2 0 0 0 .87-2l.06-21.21a5.4 5.4 0 0 0-.35-1.81Z" style="opacity:.2"/><path d="m409.7 197.19-.01 3.5-22.26-12.85.01-3.51zm2.81-5.26-.01 3.51-25.06-14.47.01-3.5zm-13.9-14.89-.01 3.5-11.14-6.43.01-3.5zm-45.49-20.25a2.72 2.72 0 0 1 1.24 2.14v2.37c0 .78-.57 1.1-1.25.71l-2.06-1.19a2.75 2.75 0 0 1-1.23-2.14v-2.37c0-.79.56-1.1 1.24-.71Z" style="fill:#fff"/><path d="m352.12 147.73.3.19v2.85a3 3 0 0 0-.31-.2c-3.95-2.28-7.17-.45-7.19 4.1a13.8 13.8 0 0 0 1.46 5.83l-2.12.27a18.4 18.4 0 0 1-1.81-7.53c.01-6.11 4.35-8.58 9.67-5.51" style="fill:#fff;opacity:.4"/><path d="M352.42 147.92c5.18 3.18 9.33 10.46 9.31 16.45s-4.36 8.58-9.67 5.51a20.6 20.6 0 0 1-7.8-9.11l2.12-.27a15.3 15.3 0 0 0 5.68 6.54c4 2.28 7.18.44 7.19-4.1a15.83 15.83 0 0 0-6.83-12.17Z" style="fill:#fff"/><path d="m373.56 160.11.31.19v2.85a3 3 0 0 0-.31-.2c-3.95-2.28-7.17-.45-7.18 4.1a13.8 13.8 0 0 0 1.45 5.83l-2.11.27a18.2 18.2 0 0 1-1.82-7.53c.01-6.11 4.35-8.62 9.66-5.51" style="fill:#fff;opacity:.4"/><path d="M374.57 169.17a2.74 2.74 0 0 1 1.23 2.14v2.36c0 .79-.55 1.11-1.24.72l-2.06-1.19a2.73 2.73 0 0 1-1.23-2.14v-2.37c0-.79.56-1.1 1.25-.71Z" style="fill:#fff"/><path d="M373.87 160.3c5.17 3.18 9.32 10.46 9.3 16.45s-4.35 8.58-9.67 5.51a20.5 20.5 0 0 1-7.79-9.11l2.11-.27a15.3 15.3 0 0 0 5.69 6.54c3.95 2.28 7.17.44 7.19-4.1a15.82 15.82 0 0 0-6.84-12.17Z" style="fill:#fff"/><path d="M346.44 181.29a3.77 3.77 0 0 1 1.72 3v3.29c0 1.09-.77 1.53-1.73 1l-2.86-1.65a3.81 3.81 0 0 1-1.71-3v-3.29c0-1.09.78-1.53 1.72-1Zm-.02 9.26a3.76 3.76 0 0 1 1.71 3v3.29c0 1.09-.77 1.53-1.72 1l-2.86-1.65a3.76 3.76 0 0 1-1.71-3v-3.3c0-1.09.77-1.53 1.72-1Zm-.03 9.27a3.78 3.78 0 0 1 1.72 3v3.29c0 1.09-.78 1.53-1.73 1l-2.86-1.65a3.77 3.77 0 0 1-1.71-3v-3.29c0-1.08.77-1.52 1.72-1Zm48.13 29.77-.01 3.27-43.46-25.1.01-3.27zm17.33.72-.01 3.28-60.77-35.08.01-3.28zm-8.02-13.9-.01 3.27-52.72-30.43.01-3.28zM244.3 71.51c0-8.43-3-14.35-7.81-17.14L225.7 48l-.15-.08a11 11 0 0 0-1.34-.66 3 3 0 0 0-.26-.09l-.46-.16c-.23-.08-.45-.18-.69-.25s-.52-.12-.77-.18l-.48-.1a2 2 0 0 0-.25-.06 14 14 0 0 0-1.62-.19h-1.77l-.44.05-.8.08c-.25 0-.5 0-.75.07l-.67.15c-.36.06-.72.14-1.09.23-.2 0-.39.07-.59.13-.45.12-.9.26-1.36.41h-.14c-.55.18-1.09.39-1.65.62l-.66.3-.63.29c-.81.38-1.62.79-2.45 1.27L127.8 95.38q-1.29.75-2.55 1.62l-.8.58c-.57.41-1.13.83-1.69 1.27l-.91.76c-.51.43-1 .87-1.51 1.32l-.9.84-.57.53c-.19.19-.38.41-.57.61-.6.61-1.2 1.24-1.78 1.89-.18.21-.38.4-.57.61l-.45.55c-.35.41-.69.84-1 1.26s-.46.55-.68.83-.35.48-.52.72-.5.66-.74 1l-.52.69c-.28.4-.54.81-.81 1.22l-.52.77-.21.32c-.48.75-.94 1.5-1.39 2.27l-.08.15-.26.46c-.31.54-.62 1.09-.91 1.64-.14.25-.26.51-.39.77l-.41.8c-.11.24-.24.47-.35.7-.31.63-.59 1.26-.87 1.9l-.15.33-.05.09c-.34.8-.67 1.6-1 2.4-.05.15-.1.3-.16.45s-.2.58-.31.87-.3.8-.43 1.21-.19.62-.29.94-.23.73-.33 1.09-.15.46-.21.69c-.12.41-.2.82-.3 1.23s-.24.91-.34 1.36c0 .16-.08.32-.12.48-.07.33-.1.65-.16 1-.14.71-.27 1.42-.37 2.13 0 .2-.08.4-.1.59-.06.45-.09.89-.13 1.34s-.07.63-.09.94c-.08 1-.13 2-.12 2.95l.34 152.21c0 8.43 3 14.36 7.81 17.15l10.8 6.39a11 11 0 0 1-.88-.61c4.92 3.43 12 3.31 19.89-1.25L218 269.88c14.76-8.52 26.7-29.19 26.65-46.17Z" style="fill:#10b981"/><path d="M244.3 71.51c0-8.43-3-14.35-7.81-17.14L225.7 48l-.15-.08a11 11 0 0 0-1.34-.66 3 3 0 0 0-.26-.09l-.46-.16c-.23-.08-.45-.18-.69-.25s-.52-.12-.77-.18l-.48-.1a2 2 0 0 0-.25-.06 14 14 0 0 0-1.62-.19h-1.77l-.44.05-.8.08c-.25 0-.5 0-.75.07l-.67.15c-.36.06-.72.14-1.09.23-.2 0-.39.07-.59.13-.45.12-.9.26-1.36.41h-.14c-.55.18-1.09.39-1.65.62l-.66.3-.63.29c-.81.38-1.62.79-2.45 1.27L127.8 95.38q-1.29.75-2.55 1.62l-.8.58c-.57.41-1.13.83-1.69 1.27l-.91.76c-.51.43-1 .87-1.51 1.32l-.9.84-.57.53c-.19.19-.38.41-.57.61-.6.61-1.2 1.24-1.78 1.89-.18.21-.38.4-.57.61l-.45.55c-.35.41-.69.84-1 1.26s-.46.55-.68.83-.35.48-.52.72-.5.66-.74 1l-.52.69c-.28.4-.54.81-.81 1.22l-.52.77-.21.32c-.48.75-.94 1.5-1.39 2.27l-.08.15-.26.46c-.31.54-.62 1.09-.91 1.64-.14.25-.26.51-.39.77l-.41.8c-.11.24-.24.47-.35.7-.31.63-.59 1.26-.87 1.9l-.15.33-.05.09c-.34.8-.67 1.6-1 2.4-.05.15-.1.3-.16.45s-.2.58-.31.87-.3.8-.43 1.21-.19.62-.29.94-.23.73-.33 1.09-.15.46-.21.69c-.12.41-.2.82-.3 1.23s-.24.91-.34 1.36c0 .16-.08.32-.12.48-.07.33-.1.65-.16 1-.14.71-.27 1.42-.37 2.13 0 .2-.08.4-.1.59-.06.45-.09.89-.13 1.34s-.07.63-.09.94c-.08 1-.13 2-.12 2.95l.34 152.21c0 8.43 3 14.36 7.81 17.15l10.8 6.39a11 11 0 0 1-.88-.61c4.92 3.43 12 3.31 19.89-1.25L218 269.88c14.76-8.52 26.7-29.19 26.65-46.17Z" style="fill:#fff;opacity:.6000000000000001"/><path d="m112.3 300.12-.3-152.2-10.8-6.39.34 152.21c0 8.43 3 14.36 7.81 17.15l10.8 6.39c-4.84-2.79-7.82-8.72-7.85-17.16" style="opacity:.1"/><path d="M220.56 54.67a24 24 0 0 1 2.31-.92h.14c.66-.22 1.31-.39 2-.54l1.09-.24c.48-.09.95-.16 1.42-.21l.8-.09a17 17 0 0 1 1.72 0h.39a16 16 0 0 1 2 .25l.48.11a14 14 0 0 1 1.46.43l.46.15a13 13 0 0 1 1.75.84L225.7 48l-.15-.08a11 11 0 0 0-1.34-.66 3 3 0 0 0-.26-.09l-.46-.16c-.23-.08-.45-.18-.69-.25s-.52-.12-.77-.18l-.48-.1a2 2 0 0 0-.25-.06 14 14 0 0 0-1.62-.19h-1.77l-.44.05-.8.08c-.25 0-.5 0-.75.07l-.67.15c-.36.06-.72.14-1.09.23-.2 0-.39.07-.59.13-.45.12-.9.26-1.36.41h-.14c-.55.18-1.09.39-1.65.62l-.66.3-.63.29c-.81.38-1.62.79-2.45 1.27L127.8 95.38q-1.29.75-2.55 1.62l-.8.59c-.57.4-1.13.82-1.69 1.26l-.91.76c-.51.43-1 .87-1.51 1.32l-.9.84-.57.53c-.19.19-.38.41-.57.61-.6.61-1.2 1.24-1.78 1.89-.18.21-.38.4-.57.61l-.45.55c-.35.41-.69.84-1 1.26s-.46.55-.68.83-.35.48-.52.72-.5.66-.74 1l-.52.69c-.28.4-.54.81-.81 1.22l-.52.77-.21.32c-.48.75-.94 1.5-1.39 2.27l-.08.15-.26.46c-.31.55-.62 1.09-.91 1.64-.14.25-.26.51-.39.77l-.41.8c-.11.24-.24.47-.35.7-.31.63-.59 1.26-.87 1.9l-.15.33-.05.09c-.34.8-.67 1.6-1 2.4-.05.15-.1.3-.16.45s-.2.58-.31.87-.3.8-.43 1.21-.19.62-.29.94-.23.73-.33 1.09-.15.46-.21.69c-.12.41-.2.82-.3 1.23s-.24.91-.34 1.36c0 .16-.08.32-.12.48-.07.33-.1.65-.16 1-.14.71-.27 1.42-.37 2.13 0 .2-.08.4-.1.59-.06.45-.09.89-.13 1.34s-.07.63-.09.94c-.08 1-.13 2-.12 2.95l10.8 6.39c0-1 0-2 .11-2.95 0-.32.07-.63.1-.95.06-.64.14-1.28.23-1.92s.23-1.42.37-2.13c.09-.49.17-1 .28-1.46s.22-.91.34-1.37c.16-.63.32-1.27.5-1.91.11-.36.23-.73.34-1.1.23-.71.47-1.43.72-2.14.1-.29.2-.59.31-.88.37-1 .76-2 1.19-2.93l.15-.34c.39-.87.79-1.73 1.22-2.59.13-.27.27-.54.41-.8.41-.81.85-1.61 1.3-2.41l.26-.46c.54-.93 1.1-1.84 1.68-2.74l.52-.78c.43-.64.87-1.27 1.32-1.9l.75-1c.39-.52.8-1 1.2-1.54l1-1.27 1-1.15c.58-.65 1.18-1.28 1.78-1.89.38-.39.75-.77 1.14-1.14s.6-.57.9-.84c.5-.46 1-.9 1.51-1.32l.91-.76c.56-.44 1.12-.86 1.69-1.27.27-.19.53-.4.8-.58q1.26-.87 2.55-1.62l78.88-45.54c.83-.48 1.64-.89 2.45-1.27Z" style="fill:#fff;opacity:.30000000000000004"/><path d="M125.75 300.08c0 3.31.73 5 1.1 5.52a2 2 0 0 0 .34 0c.61 0 2.33-.18 5.21-1.84l78.88-45.54c10.65-6.15 20-22.26 19.92-34.49l-.08-39.1-105.5 61.57Z" style="fill:#10b981"/><path d="M230.86 71.55c0-3.35-.76-5-1.12-5.52h-.76l-.44.07-.42.09c-.26.06-.63.16-.9.25h-.13c-.27.1-.63.24-1 .43l-.37.17c-.6.28-1.07.52-1.48.76l-78.88 45.54c-.49.29-1 .63-1.61 1l-.6.43c-.39.29-.78.58-1.16.88l-.54.44-.11.1c-.38.31-.74.63-1.1.95l-.67.63-.72.73-.13.13c-.46.46-.91.94-1.34 1.43l-.15.16-.64.72-.81 1c-.32.4-.64.8-.94 1.21l-.59.78c-.35.5-.7 1-1 1.51l-.42.62c-.48.75-.93 1.48-1.32 2.15l-.22.39c-.36.63-.7 1.27-1 1.91l-.32.63c-.34.68-.66 1.36-1 2-.06.13-.11.26-.18.4-.28.66-.57 1.38-.88 2.19l-.24.68c-.2.55-.38 1.1-.55 1.65-.09.28-.18.56-.26.83-.14.48-.26.95-.38 1.45l-.07.27-.18.72-.12.62-.08.44c-.1.51-.19 1-.26 1.52s-.12.88-.16 1.32l-.07.64c-.06.75-.08 1.37-.08 1.92l.21 93.85 105.5-61.57Z" style="fill:#455a64"/><path d="m125.61 241.74.01 4.48 105.5-61.57-.02-4.48z" style="fill:#fff"/><path d="M214.05 124.46 204 130.27l-10.78 6.23 10.78-6.23c3.62-8 3.12-16-1.5-18.6-2.58-1.47-6-1-9.32 1a26.74 26.74 0 0 0-9.3 9.8l-2.75 4.76-.47-6.08c0-.51-.42-.71-.93-.45a2.1 2.1 0 0 0-.92 1.4l-.86 5.61-1.58-.9c-2.58-1.47-6-1-9.33.95a26.65 26.65 0 0 0-9.29 9.8c-4.6 8-5.05 16.46-1.39 20.27l-10.07 5.81a2 2 0 0 0-.93 1.61c0 .59.42.83.93.54L158 159l3.61 2.06 18.69 10.64 2.13-3.69.09 1.15c0 .52.44.72.93.45a2.11 2.11 0 0 0 .93-1.49l.37-4.13 14.11-24.44 3.59-6.21 11.66-6.73A2.07 2.07 0 0 0 215 125c0-.6-.43-.84-.95-.54" style="fill:#10b981"/><path d="M179.72 120.65c.51-.26.89-.06.93.45l.47 6.08 2.39 30.36 2.89-31.63a2 2 0 0 1 .88-1.46c.48-.28.87-.15.95.32l3.42 18.48.64-5.31a2.06 2.06 0 0 1 .92-1.44l10.79-6.23 10.06-5.81c.52-.3.94-.06.94.54a2.07 2.07 0 0 1-.93 1.61l-11.66 6.73-8.41 4.84-1.33 11a2.05 2.05 0 0 1-.9 1.43c-.47.27-.85.13-.94-.33l-3.27-17.75L184.7 164l-.37 4.13a2.11 2.11 0 0 1-.93 1.49c-.49.27-.89.07-.93-.45l-.09-1.15-3-38.32-5 32.49a2.12 2.12 0 0 1-.91 1.39c-.52.27-.89.07-.93-.44l-2-23-2.27 12.13a2.1 2.1 0 0 1-.91 1.34L158 159l-11.67 6.74c-.51.29-.93 0-.93-.54a2 2 0 0 1 .93-1.61l10.07-5.81 10.26-5.93 3.4-18.13a2.08 2.08 0 0 1 .91-1.35c.52-.26.88-.05.93.44l1.94 22 4.15-27.17.86-5.61a2.1 2.1 0 0 1 .87-1.38m-12.56 70.54.03 13.05-3.83 2.21-.03-9.73-1.95 1.12v-3.31zm5.63-3.55c2.69-1.55 4.59-1 4.6 1.44 0 1.28-.28 2.6-1.94 5.28l-1.61 2.64 3.82-2.2v3.41l-9.1 5.26v-2.7l4.1-6.74a4.4 4.4 0 0 0 .89-2.31c0-.62-.38-.8-1.11-.38a4.06 4.06 0 0 0-1.67 2.17h-2.89a11.16 11.16 0 0 1 4.91-5.87m10.77-6.22c3-1.72 5.15-.47 5.16 3.85a11.21 11.21 0 0 1-5.12 9.79c-3 1.74-5.16.48-5.17-3.85a11.23 11.23 0 0 1 5.13-9.79m0 10.12c.74-.43 1.29-1.53 1.28-4s-.56-3-1.3-2.54-1.3 1.53-1.29 4 .57 3 1.31 2.55m10.11-6.78c.93-.54 1.73-.19 1.73 1.12a3.79 3.79 0 0 1-1.72 3.13c-.44.25-.76.31-1 .16v.33l-1.4.81v-5.57l1.47-.85v1.75a2.3 2.3 0 0 1 .92-.88m-.35 3.14a1.31 1.31 0 0 0 .58-1.15c0-.53-.26-.65-.58-.46a1.26 1.26 0 0 0-.57 1.13c0 .53.25.66.57.48m4.92-5.79c.93-.53 1.72-.17 1.72 1.15a3.72 3.72 0 0 1-1.71 3.11c-.39.22-.69.29-.91.17v1.74l-1.47.85v-5.55l1.4-.81v.33a2.5 2.5 0 0 1 .97-.99m-.34 3.15a1.29 1.29 0 0 0 .58-1.14c0-.53-.26-.66-.59-.47a1.3 1.3 0 0 0-.58 1.15c0 .53.26.65.59.46m7.25-7.14c.81-.46 1.42-.25 1.42 1v2.34l-1.47.85v-2c0-.52-.16-.62-.39-.49a1.08 1.08 0 0 0-.46 1v2l-1.47.85v-2c0-.52-.16-.62-.41-.48a1.08 1.08 0 0 0-.46 1v2l-1.48.85v-4.1l1.4-.8v.37a2.8 2.8 0 0 1 1-1c.47-.27.87-.3 1.12 0a3.25 3.25 0 0 1 1.2-1.39M144.09 247c3.54-2.05 6.42-.4 6.44 3.66a14.07 14.07 0 0 1-6.4 11.08c-3.55 2.05-6.43.41-6.44-3.67a14.08 14.08 0 0 1 6.4-11.07m77.25-38.65.01 2.77-63.86 36.87-.01-2.76zm.07 21.51v2.77l-63.86 36.87-.01-2.77zm-29.61 22.28.01 2.76-34.25 19.77v-2.76zm-9.13-5.1v2.77l-25.14 14.52v-2.77zm31.72-29.49.01 2.76-56.9 32.85v-2.76zm-17.7-.14.01 2.76-39.23 22.65v-2.77zm-52.54 51.06c3.54-2.05 6.43-.41 6.44 3.66a14.1 14.1 0 0 1-6.4 11.08c-3.54 2.05-6.43.4-6.44-3.67a14.08 14.08 0 0 1 6.4-11.07" style="fill:#fff"/><path d="m303.94 297.61-10.93-6.35-145.65 72.53 10.96 6.33zm70.65 41.06-145.37 72.38 11.76 6.79 145.32-72.37z" style="fill:#455a64"/><path d="m303.94 297.61-10.93-6.35-145.65 72.53 10.96 6.33z" style="fill:#fff;opacity:.30000000000000004"/><path d="m229.22 411.05-70.9-40.93-10.96-6.33-20.38-2.68 93.3 54.22 20.7 2.51z" style="fill:#455a64"/><path d="m229.22 411.05-70.9-40.93-10.96-6.33-20.38-2.68 93.3 54.22 20.7 2.51z" style="fill:#fff;opacity:.5"/><path d="m374.59 338.67-145.37 72.38 11.76 6.79 145.32-72.37z" style="fill:#fff;opacity:.30000000000000004"/><path d="m220.28 415.33-93.3-54.22.02 24.6.02 10.84 93.29 54.22z" style="fill:#455a64"/><path d="M136 388.47v-8.18a2 2 0 0 1 3-1.74l69.72 40.52a5 5 0 0 1 2.5 4.33v8.18a2 2 0 0 1-3 1.74l-69.69-40.52a5 5 0 0 1-2.53-4.33" style="fill:#37474f"/><path d="m220.28 415.33.03 35.44 166.03-95.86-.04-9.44-145.32 72.37z" style="fill:#455a64"/><path d="m220.28 415.33.03 35.44 166.03-95.86-.04-9.44-145.32 72.37z" style="fill:#fff;opacity:.1"/><path d="m303.94 297.61-.01 4.47h-8.97z" style="fill:#455a64"/><path d="m296.41 301.36-138.09 68.76 70.9 40.93 141.22-70.32-67.38-39.16a7 7 0 0 0-6.65-.21" style="fill:#37474f"/><path d="M222.11 307.19a3 3 0 0 0-3 3v99.69a13.5 13.5 0 0 0 6 2V310.2a3 3 0 0 0-3-3.01" style="fill:#e0e0e0"/><path d="M222.11 307.19a3 3 0 0 0-3 3v99.69a13.5 13.5 0 0 0 6 2V310.2a3 3 0 0 0-3-3.01" style="opacity:.2"/><path d="M222.11 307.19a3 3 0 0 0-3 3v8.63a31 31 0 0 0 5.37.48h.64v-9.1a3 3 0 0 0-3.01-3.01" style="opacity:.30000000000000004"/><path d="M143.14 264.55a3 3 0 0 0-3 3v97.72a13.7 13.7 0 0 0 6 1.76v-99.47a3 3 0 0 0-3-3.01" style="fill:#e0e0e0"/><path d="M143.14 264.55a3 3 0 0 0-3 3v97.72a13.7 13.7 0 0 0 6 1.76v-99.47a3 3 0 0 0-3-3.01" style="opacity:.2"/><path d="M143.14 264.55a3 3 0 0 0-3 3v7.83l6 3.48v-11.3a3 3 0 0 0-3-3.01" style="opacity:.30000000000000004"/><path d="M165.94 244.24a2.07 2.07 0 0 0-1.78-.86l-19.32 4.4a2 2 0 0 1 1.85.86 6.33 6.33 0 0 1 1 5.67 2 2 0 0 1-1.4 1.48l19.23-4.4a2 2 0 0 0 1.42-1.48 6.4 6.4 0 0 0-1-5.67m-21.23 3.57.12-.05Zm1.57 7.99h.01z" style="fill:#455a64"/><path d="M147.73 254.31a6.33 6.33 0 0 0-1-5.67 2 2 0 0 0-1.85-.86l-.12.05a2.09 2.09 0 0 0-1.3 1.43 6.35 6.35 0 0 0 1 5.67 2 2 0 0 0 1.83.87h.05a2 2 0 0 0 1.39-1.49" style="fill:#263238"/><path d="M240.12 311h.01zm19.65-11.55a2.05 2.05 0 0 0-1.77-.87L238.68 303a2 2 0 0 1 1.85.87 6.34 6.34 0 0 1 1 5.66 2.06 2.06 0 0 1-1.41 1.48l19.23-4.39a2.07 2.07 0 0 0 1.42-1.48 6.35 6.35 0 0 0-1-5.69M238.54 303a.6.6 0 0 1 .12 0Z" style="fill:#455a64"/><path d="M241.57 309.51a6.34 6.34 0 0 0-1-5.66 2 2 0 0 0-1.85-.87.6.6 0 0 0-.12 0 2.08 2.08 0 0 0-1.29 1.44 6.31 6.31 0 0 0 1 5.66 2 2 0 0 0 1.83.87 2.06 2.06 0 0 0 1.43-1.44" style="fill:#263238"/><g style="opacity:.4"><path d="M165.94 244.24a2.07 2.07 0 0 0-1.78-.86l-19.32 4.4a2 2 0 0 1 1.85.86 6.33 6.33 0 0 1 1 5.67 2 2 0 0 1-1.4 1.48l19.23-4.4a2 2 0 0 0 1.42-1.48 6.4 6.4 0 0 0-1-5.67m-21.23 3.57.12-.05Zm1.57 7.99h.01z" style="fill:#fff"/></g><g style="opacity:.4"><path d="M240.12 311h.01zm19.65-11.55a2.05 2.05 0 0 0-1.77-.87L238.68 303a2 2 0 0 1 1.85.87 6.34 6.34 0 0 1 1 5.66 2.06 2.06 0 0 1-1.41 1.48l19.23-4.39a2.07 2.07 0 0 0 1.42-1.48 6.35 6.35 0 0 0-1-5.69M238.54 303a.6.6 0 0 1 .12 0Z" style="fill:#fff"/></g><path d="m238.28 304.52-7.68 1.92a24.93 24.93 0 0 1-18.6-2.61l-70.36-40.62a4 4 0 0 1 1-7.36l3.08-.76c1.06-.86.94-5.53-1.31-5.87l-3.23.79a10 10 0 0 0-2.58 18.41L209 309a30.93 30.93 0 0 0 15.5 4.18 31.3 31.3 0 0 0 7.6-1l7.52-1.87c1.03-.77.91-5.44-1.34-5.79" style="fill:#e0e0e0"/><path d="M149.91 275.38v-20.85l45.12 26.06v20.84zm45.12 5.21 27.08 13.21v7.63h-27.08z" style="fill:#455a64"/><path d="m149.91 254.53 45.12 26.06 27.08 13.21-45.13-26.05z" style="fill:#455a64"/><path d="m195.03 280.59 27.08 13.21v7.63h-27.08z" style="fill:#fff;opacity:.1"/><path d="m149.91 254.53 45.12 26.06 27.08 13.21-45.13-26.05z" style="fill:#fff;opacity:.30000000000000004"/><path d="M300.55 337.2c17.27 10 17.36 26.13.21 36.1s-45.06 10-62.33 0-17.35-26.13-.2-36.1 45.06-9.97 62.32 0" style="opacity:.2"/><path d="m267.87 224.53 3.79-16.53a29.76 29.76 0 0 0-14.17 6l-19.84 15.6 13.65 4.21Z" style="fill:#ffa8a7"/><path d="m277.14 298.86 2.77 6.25a9 9 0 0 0 9.28 5.31l23.4-2.67a15.9 15.9 0 0 1 5.87.43l5.12 1.36v-12l-1.4.41a15.83 15.83 0 0 1-8.28.2l-8.53-2.1a23.36 23.36 0 0 0-12.25.3l-.87-7.08Z" style="fill:#f28f8f"/><path d="M340.73 314.66a11.12 11.12 0 0 0-3.39-7.66c-1.54-1.46-3.48-2.44-4.94-4-1.69-1.81-2.39-3.8-3.83-5.85a2.27 2.27 0 0 0-1-.77 2 2 0 0 0-.44 0 3.8 3.8 0 0 0-1.46.42 2.27 2.27 0 0 1 1.45.9c1.45 2 2.47 4.4 4.17 6.17 1.45 1.51 3.39 2.47 4.93 3.9a10.74 10.74 0 0 1 3.39 7.48c.08 2.81-.95 7.66-3 7.66a2.53 2.53 0 0 0 1.9-.29c1.78-1.77 2.27-5.87 2.22-7.96" style="fill:#ebebeb"/><path d="M328.57 297.15c1.44 2.05 2.14 4 3.83 5.85 1.46 1.56 3.4 2.54 4.94 4a11.12 11.12 0 0 1 3.39 7.66c0 2.09-.44 6.19-2.15 7.93 2.18-1.31 2.78-5.94 2.71-8.2a10.78 10.78 0 0 0-3.38-7.48c-1.54-1.43-3.49-2.39-4.94-3.91-1.7-1.77-2.39-3.72-3.84-5.71a2.27 2.27 0 0 0-1.53-.91 2.27 2.27 0 0 1 .97.77" style="fill:#455a64"/><path d="M321.66 297.64a3 3 0 0 1-1.58.23s-1.58-.16-2.1-.26c-1-.19-1.1.94-1.1.94a8.5 8.5 0 0 0 1.79 0 1.76 1.76 0 0 0 1.21.78 7.3 7.3 0 0 1 1.46.45 1.3 1.3 0 0 1 .76 1.22c-.09.56-.64.89-1 1.36a1.89 1.89 0 0 0-.08 1.83 1.51 1.51 0 0 0-1.84.53 4.5 4.5 0 0 0-.66 2 5 5 0 0 0-.1 1.44 1.8 1.8 0 0 0 .65 1.26 1.09 1.09 0 0 0 1.34 0c1.28 2.08 7.13 2.87 10.06 6.8s3.57 6.72 6.17 6.72c2 0 3-4.85 3-7.66a10.74 10.74 0 0 0-3.39-7.48c-1.54-1.43-3.48-2.39-4.93-3.9-1.7-1.77-2.72-4.17-4.17-6.17a2.27 2.27 0 0 0-1.45-.9 2.3 2.3 0 0 0-.53 0 9.7 9.7 0 0 0-3.51.81" style="fill:#10b981"/><path d="m335.88 322.21.66-1.81a.69.69 0 0 1 .56-.44c2-.24 2.63-.54 3.5-1.46a8 8 0 0 1-1.06 3.18 2.6 2.6 0 0 1-3.47 1 .37.37 0 0 1-.19-.47" style="fill:#455a64"/><path d="M323.22 305.37a.52.52 0 0 1-.17.38 3.93 3.93 0 0 0-.95 4.74.5.5 0 0 1-.89.45 5 5 0 0 1-.43-3.18 4.9 4.9 0 0 1 1.61-2.77.51.51 0 0 1 .71.05.5.5 0 0 1 .12.33m3.07 1.41a.5.5 0 0 1-.15.36 5.18 5.18 0 0 0-1.39 4.89.5.5 0 1 1-1 .24 6.23 6.23 0 0 1 1.66-5.85.5.5 0 0 1 .71 0 .5.5 0 0 1 .17.36M329 309a.49.49 0 0 1-.19.39 4.21 4.21 0 0 0-1.49 3.89.51.51 0 0 1-.41.58.51.51 0 0 1-.58-.41 5.2 5.2 0 0 1 1.86-4.85.5.5 0 0 1 .7.08.5.5 0 0 1 .11.32m2.23 2.15a.5.5 0 0 1-.17.37 4.15 4.15 0 0 0-1.31 3.53.5.5 0 0 1-.43.56.49.49 0 0 1-.56-.43 5.14 5.14 0 0 1 1.63-4.4.5.5 0 0 1 .71 0 .55.55 0 0 1 .13.37" style="fill:#37474f"/><path d="M267 256.06c-.75 10.62 2.09 23 3 26.66l-1.57 3.76c-.39 9.65 13.83 14.92 20.35 11.16 10.22-16.34 15.4-25.2 13.39-35.48Z" style="fill:#263238"/><path d="m270.85 281.08 6.29-12.52c-5.26-1.57-9.27-7.84-9.27-7.84.81 5.33 5.89 8.71 5.89 8.71a18.58 18.58 0 0 0-2.91 11.65" style="opacity:.30000000000000004"/><path d="M289 294.08c-1.34-6-10.45-12.53-18.22-10.44l-7.26 16.05a25.4 25.4 0 0 0-2.18 8.56L258.45 347a37.8 37.8 0 0 1-1.46 8l-.09.3L267 358a37.5 37.5 0 0 1 2.48-13.09l7.72-20.14a30.9 30.9 0 0 0 2-12.3l-.12-3.17Z" style="fill:#ffa8a7"/><path d="M251.22 375a11.12 11.12 0 0 0 7.65-3.39c1.47-1.54 2.45-3.48 4-4.93 1.81-1.7 3.81-2.4 5.85-3.84a2.27 2.27 0 0 0 .77-1 2 2 0 0 0 0-.44 3.9 3.9 0 0 0-.41-1.46 2.23 2.23 0 0 1-.9 1.45c-2 1.45-4.39 2.47-6.16 4.17-1.52 1.45-2.48 3.4-3.91 4.93a10.74 10.74 0 0 1-7.48 3.39c-2.8.08-7.66-.94-7.66-3a2.53 2.53 0 0 0 .29 1.9c1.74 1.74 5.86 2.22 7.96 2.22" style="fill:#ebebeb"/><path d="M268.72 362.8c-2 1.44-4 2.14-5.85 3.84-1.55 1.45-2.53 3.39-4 4.93a11.12 11.12 0 0 1-7.65 3.39c-2.1.06-6.19-.44-7.94-2.15 1.31 2.18 5.95 2.78 8.2 2.71a10.73 10.73 0 0 0 7.48-3.38c1.43-1.54 2.39-3.48 3.91-4.94 1.77-1.69 3.72-2.39 5.72-3.84a2.2 2.2 0 0 0 .9-1.53 2.27 2.27 0 0 1-.77.97" style="fill:#455a64"/><path d="M268.24 355.89a2.9 2.9 0 0 1-.23-1.57s.15-1.59.25-2.1c.19-1-.58-1.05-.58-1.05s-.15.79-.28 1.72a1.94 1.94 0 0 0-.85 1.22 7.3 7.3 0 0 1-.45 1.46 1.29 1.29 0 0 1-1.22.76c-.55-.08-.89-.64-1.35-1a1.91 1.91 0 0 0-1.84-.08 1.48 1.48 0 0 0-.53-1.83 4.45 4.45 0 0 0-2-.67 5.5 5.5 0 0 0-1.45-.1 1.75 1.75 0 0 0-1.25.65 1.08 1.08 0 0 0 0 1.34c-2.09 1.28-2.88 7.13-6.81 10.06s-6.72 3.58-6.72 6.17c0 2 4.86 3 7.66 3a10.74 10.74 0 0 0 7.48-3.39c1.43-1.53 2.39-3.48 3.91-4.93 1.77-1.7 4.16-2.72 6.16-4.17a2.37 2.37 0 0 0 .94-2 10.1 10.1 0 0 0-.84-3.49" style="fill:#10b981"/><path d="m243.66 370.11 1.81.66a.68.68 0 0 1 .45.57c.23 2 .53 2.63 1.45 3.49a7.9 7.9 0 0 1-3.17-1.05 2.61 2.61 0 0 1-1-3.48.38.38 0 0 1 .46-.19" style="fill:#455a64"/><path d="M260.51 357.46a.49.49 0 0 1-.38-.18 4 4 0 0 0-2.21-1.29 3.92 3.92 0 0 0-2.54.35.5.5 0 0 1-.45-.9 4.94 4.94 0 0 1 6 1.19.5.5 0 0 1-.05.7.5.5 0 0 1-.37.13m-1.42 3.06a.5.5 0 0 1-.36-.15 5.17 5.17 0 0 0-4.88-1.39.5.5 0 0 1-.61-.37.49.49 0 0 1 .36-.6 6.21 6.21 0 0 1 5.85 1.66.5.5 0 0 1-.36.85m-2.18 2.67a.53.53 0 0 1-.4-.19 4.2 4.2 0 0 0-3.89-1.5.5.5 0 0 1-.16-1 5.19 5.19 0 0 1 4.84 1.86.5.5 0 0 1-.39.82Zm-2.18 2.27a.48.48 0 0 1-.37-.17 4.17 4.17 0 0 0-3.54-1.3.52.52 0 0 1-.56-.44.5.5 0 0 1 .44-.56 5.15 5.15 0 0 1 4.4 1.63.51.51 0 0 1-.37.84" style="fill:#37474f"/><path d="M293.5 207.13a116 116 0 0 0-16.45-.12 16.7 16.7 0 0 0-7.09 1.7 12.5 12.5 0 0 0-5.52 8 37 37 0 0 0-.62 9.93c.29 10.86 1.1 20.13 2.27 30.93 10.79 6.23 25 9.18 37 5.76.17-14-.52-28.81-3.34-42.53-1-4.96-2.45-10.32-6.25-13.67" style="fill:#455a64"/><path d="M293.5 207.13a116 116 0 0 0-16.45-.12 16.7 16.7 0 0 0-7.09 1.7 12.5 12.5 0 0 0-5.52 8 37 37 0 0 0-.62 9.93c.29 10.86 1.1 20.13 2.27 30.93 10.79 6.23 25 9.18 37 5.76.17-14-.52-28.81-3.34-42.53-1-4.96-2.45-10.32-6.25-13.67" style="fill:#fff;opacity:.30000000000000004"/><path d="M326.11 235a9 9 0 0 0-3.32-7.84l-19.9-16.07a18.6 18.6 0 0 0-9.39-4l-1.95-.15c-1.78 1.65-2.56 13.4 5.46 18.17l17.3 10.1-.17 22.23-5.92 6.76a1 1 0 0 0 .34 1.59 2 2 0 0 0 2.11-.26l1.92-1.57c-1.19 2.24-2.23 4.79-3.42 7a2.43 2.43 0 0 0-.42 1.48 1.52 1.52 0 0 0 .76 1.06 3.15 3.15 0 0 0 1.27.4 8 8 0 0 0 4.55-.81 11.3 11.3 0 0 0 3.63-2.92 14.3 14.3 0 0 0 3.26-8.08 252 252 0 0 0 3.89-27.09m-52.64-32.12v1.8a13.2 13.2 0 0 1-.72 3.87 2.5 2.5 0 0 0 0 1.62 3.18 3.18 0 0 0 2.07 1.83 6.15 6.15 0 0 0 2.8.09 12 12 0 0 0 7.12-4.05l-.41-12.31Z" style="fill:#ffa8a7"/><path d="M282.15 201.08a13.3 13.3 0 0 0 1.66-5l-10.34 6.79v1.8a10 10 0 0 1-.15 1.57 17.8 17.8 0 0 0 4.23-1.29 10.5 10.5 0 0 0 4.6-3.87" style="opacity:.2"/><path d="M262 182.91a6.46 6.46 0 0 1-5.84-3.29.88.88 0 0 1 1-1.27 7.1 7.1 0 0 0 2.47 0 11.65 11.65 0 0 1-2.3-8.71 1.1 1.1 0 0 1 1.57-.82 21.6 21.6 0 0 0 10.94 2.21c2-.14 4-.57 6-.72a11 11 0 0 1 5.9.9A5.61 5.61 0 0 1 285 176a2.76 2.76 0 0 1 2-1.16 3.06 3.06 0 0 1 2.33.69l-3.46 1.92a3 3 0 0 1 3.28 1.62 7.9 7.9 0 0 1 .64 3.7 30 30 0 0 1-.22 5 9.77 9.77 0 0 1-1.91 4.61 7.3 7.3 0 0 1-3.46 2.34 9.4 9.4 0 0 1-5.62-.18 22.4 22.4 0 0 1-5.09-2.54 80 80 0 0 1-11.49-9.09" style="fill:#263238"/><path d="M261.78 179.56a38.67 38.67 0 0 0 2.22 20.66 7.33 7.33 0 0 0 2.81 3.88c1.48.85 3.32.67 5 .42a25.4 25.4 0 0 0 7.91-2.23 10.8 10.8 0 0 0 5.48-5.9 4.73 4.73 0 0 0 4.79-1.88 8.93 8.93 0 0 0 1.56-5.24c0-1.18-.22-2.58-1.28-3.1a3 3 0 0 0-3 .75 9.1 9.1 0 0 0-3 4.44c-.78-2.89-2-5.68-2.78-8.56a4.86 4.86 0 0 0-1.68-3c-1.21-.78-2.79-.33-4.19 0a27.5 27.5 0 0 1-13.84-.24" style="fill:#ffa8a7"/><path d="m270.19 188.32-3.37 5.69 4.02.75zm4.53 8.4-3.06 1.49a2 2 0 0 0 2.32.66 1.79 1.79 0 0 0 .74-2.15" style="fill:#f28f8f"/><path d="m274.72 196.72-3.06 1.49a2 2 0 0 0 2.32.66 1.79 1.79 0 0 0 .74-2.15" style="opacity:.30000000000000004"/><path d="M272.92 199a1.9 1.9 0 0 0 1.06-.1 1.63 1.63 0 0 0 .82-1.61 1.87 1.87 0 0 0-1.2.42 1.9 1.9 0 0 0-.68 1.29" style="fill:#f28f8f"/><path d="M276 188.55a1.16 1.16 0 1 1-1.26-1 1.14 1.14 0 0 1 1.26 1m-9.67.6a1.16 1.16 0 1 1-2.3.23 1.16 1.16 0 0 1 2.3-.23m-1.58-4.46-2.38 2a1.66 1.66 0 0 1 .32-1.86 1.94 1.94 0 0 1 2.06-.14m9.83-1.14 2.73 1.51a1.64 1.64 0 0 0-.68-1.75 2 2 0 0 0-2.05.24" style="fill:#263238"/><path d="M275.34 251.08c0-.28 0-.55-.07-.82a12.1 12.1 0 0 0-8.65-9.89l-14.88-9-10-5-4.12 3.25a6 6 0 0 0-2 2.81 6 6 0 0 0 3.68 7.51l24 8.46a10.52 10.52 0 0 1 2.84 6 9.8 9.8 0 0 0 .39 1.95 3.82 3.82 0 0 0 4 2.23 5.26 5.26 0 0 0 3.85-2.73 8.6 8.6 0 0 0 .96-4.77" style="fill:#ffa8a7"/><path d="M267.32 240.37v-1.45h-1.06v.53l-2.26-1.32a1.54 1.54 0 0 0-1.55 0l-3.77 2.18v-.63l-1 .09v1.43a.51.51 0 0 0 .26.44l3.1 1.8a1.58 1.58 0 0 0 1.55 0l4.55-2.63a.49.49 0 0 0 .25-.42Z" style="fill:#10b981"/><path d="m262.41 236.94-3.85 2.23a.43.43 0 0 0 0 .76l2.64 1.52a1.3 1.3 0 0 0 1.32 0l3.86-2.23a.44.44 0 0 0 0-.76l-2.65-1.52a1.3 1.3 0 0 0-1.32 0" style="fill:#10b981"/><path d="M267.32 240.37v-1.45h-1.06v.53l-2.26-1.32a1.54 1.54 0 0 0-1.55 0l-3.77 2.18v-.63l-1 .09v1.43a.51.51 0 0 0 .26.44l3.1 1.8a1.58 1.58 0 0 0 1.55 0l4.55-2.63a.49.49 0 0 0 .25-.42Z" style="opacity:.30000000000000004"/><path d="m262.4 236.7-4.53 2.62a.51.51 0 0 0 0 .89L261 242a1.58 1.58 0 0 0 1.55 0l4.55-2.63a.52.52 0 0 0 0-.89l-3.1-1.78a1.54 1.54 0 0 0-1.6 0" style="fill:#10b981"/><path d="m262.41 236.94-3.85 2.23a.43.43 0 0 0 0 .76l2.64 1.52a1.3 1.3 0 0 0 1.32 0l3.86-2.23a.44.44 0 0 0 0-.76l-2.65-1.52a1.3 1.3 0 0 0-1.32 0" style="fill:#fff;opacity:.5"/><path d="M260.7 247.46c-.61-.57-.94-3.68.27-4.69l-3.1-1.79c-1 1.27-.75 4-.19 5.38a1.18 1.18 0 0 0 .73.67c.6.2 1.61.55 2 .68a.86.86 0 0 0 .73-.07Z" style="fill:#455a64"/></svg>