<svg xmlns="http://www.w3.org/2000/svg" viewBox="0 0 500 500"><ellipse cx="249" cy="353.38" rx="238.26" ry="136.52" style="fill:#f5f5f5"/><ellipse cx="367.54" cy="394.46" rx="65.74" ry="37.96" style="fill:#e0e0e0"/><ellipse cx="123.26" cy="386.58" rx="43.9" ry="25.35" style="fill:#e0e0e0"/><path d="m395.55 341.07-193.78 111.8a3.62 3.62 0 0 1-3.27 0l-63.18-36.48a1 1 0 0 1 0-1.89l193.77-111.8a3.62 3.62 0 0 1 3.27 0l63.19 36.48a1 1 0 0 1 0 1.89" style="fill:#e0e0e0"/><path d="m69.99 126.96 1.78 1.06 36.46-21.05-1.78-1.06z" style="fill:#fafafa"/><path d="m106.45 105.91-34.68 20.02V89.61l34.68-20.01z" style="fill:#fff"/><path d="M111.58 62.75 68.42 87.67v46.16l43.16-24.93ZM108.23 107l-36.46 21V89.61l36.46-21Z" style="fill:#f0f0f0"/><path d="m108.23 106.97-1.78-1.06V69.6l1.78-1.04z" style="fill:#e0e0e0"/><path d="m111.58 62.75-1.8-1.03-43.17 24.92 1.81 1.03z" style="fill:#fafafa"/><path d="m66.61 86.64 1.81 1.03v46.16l-1.81-1.04z" style="fill:#e0e0e0"/><path d="m105.1 104.82-31.98 18.47v-9.23l8-18.47 4.98 4.62-1.79 7.74 11.04-23.62 9.75 11.26z" style="fill:#f0f0f0"/><path d="M85.8 86.68a5.22 5.22 0 0 0-2.37 4.1c0 1.5 1.06 2.12 2.37 1.36A5.24 5.24 0 0 0 88.16 88c0-1.46-1.06-2.07-2.36-1.32" style="fill:#f0f0f0"/><path d="m136.03 111.94 1.77 1.06 36.46-21.05-1.77-1.06z" style="fill:#fafafa"/><path d="m172.49 90.89-34.68 20.02V74.59l34.68-20.01z" style="fill:#fff"/><path d="m177.62 47.73-43.17 24.92v46.16l43.17-24.93ZM174.27 92l-36.47 21V74.59l36.46-21.05Z" style="fill:#f0f0f0"/><path d="m174.26 91.95-1.77-1.06V54.58l1.78-1.04z" style="fill:#e0e0e0"/><path d="m177.62 47.73-1.81-1.03-43.16 24.92 1.8 1.03z" style="fill:#fafafa"/><path d="m132.65 71.62 1.8 1.03v46.16l-1.8-1.04z" style="fill:#e0e0e0"/><path d="m171.13 89.8-31.97 18.46v-9.23l7.99-18.46 4.98 4.62-1.79 7.73 11.04-23.61 9.75 11.26z" style="fill:#f0f0f0"/><path d="M151.83 71.66a5.23 5.23 0 0 0-2.36 4.09c0 1.51 1.06 2.12 2.36 1.37A5.22 5.22 0 0 0 154.2 73c0-1.49-1.06-2.1-2.37-1.34" style="fill:#f0f0f0"/><path d="M121.22 403.28V278.83h4.09v124.45a1 1 0 0 1-.59.94 3.22 3.22 0 0 1-2.9 0 1 1 0 0 1-.6-.94M92.17 389.3V270h4.09v119.3a1 1 0 0 1-.58.94 3.22 3.22 0 0 1-2.9 0 1 1 0 0 1-.61-.94m62.32 0V270h-4.1v119.3a1 1 0 0 0 .58.94 3.22 3.22 0 0 0 2.9 0 1 1 0 0 0 .62-.94" style="fill:#37474f"/><path d="M96.28 242.05c14.68-8.47 38.47-8.47 53.15 0 7.34 4.24 11 9.79 11 15.34v6.82c0 5.56-3.66 11.11-11 15.35-14.68 8.47-38.47 8.47-53.15 0-7.34-4.24-11-9.79-11-15.35v-6.82c0-5.55 3.66-11.1 11-15.34" style="fill:#455a64"/><path d="M96.28 238.74c14.68-8.47 38.47-8.47 53.15 0 7.34 4.24 11 9.79 11 15.34v6.82c0 5.55-3.66 11.11-11 15.34-14.68 8.48-38.47 8.48-53.15 0-7.34-4.23-11-9.79-11-15.34v-6.82c0-5.55 3.66-11.08 11-15.34" style="fill:#10b981"/><path d="M96.28 238.74c14.68-8.47 38.47-8.47 53.15 0 7.34 4.24 11 9.79 11 15.34v6.82c0 5.55-3.66 11.11-11 15.34-14.68 8.48-38.47 8.48-53.15 0-7.34-4.23-11-9.79-11-15.34v-6.82c0-5.55 3.66-11.08 11-15.34" style="opacity:.4"/><ellipse cx="122.86" cy="254.08" rx="37.58" ry="21.7" style="fill:#10b981;opacity:.5"/><path d="M123.26 377c-9 0-18.07-2-24.94-6s-10.62-9.27-10.62-15 3.77-11 10.62-15c13.75-7.94 36.13-7.94 49.88 0 6.84 3.95 10.61 9.27 10.61 15s-3.77 11-10.61 15-15.91 6-24.94 6m0-39.91c-8.68 0-17.36 1.9-24 5.72-6.22 3.59-9.65 8.31-9.65 13.28s3.43 9.69 9.65 13.28c13.21 7.63 34.72 7.63 47.94 0 6.22-3.59 9.64-8.31 9.64-13.28s-3.42-9.69-9.64-13.28c-6.58-3.81-15.26-5.75-23.94-5.75Z" style="fill:#37474f"/><path d="M119.51 235.08c.74 0 1.54-.36 1.61-1.11 3.1-34.79-4.9-66.27-8-73.25a1.61 1.61 0 0 0-2.07-.69 1.47 1.47 0 0 0-.74 1.92c3.48 7.81 10.64 39.62 7.75 72 0 .63.52 1.1 1.32 1.17Z" style="fill:#455a64"/><path d="m73.73 191.38 39.13-22.59 1.6.93a186 186 0 0 1 4.49 24 1 1 0 0 1-.47.94l-35.73 20.61-1.59-.93c-2.06-8.75-7.43-22.96-7.43-22.96" style="fill:#10b981"/><path d="m73.73 191.38 39.13-22.59 1.6.93a186 186 0 0 1 4.49 24 1 1 0 0 1-.47.94l-35.73 20.61-1.59-.93c-2.06-8.75-7.43-22.96-7.43-22.96" style="opacity:.4"/><path d="m114.46 169.72-1.6-.93-39.13 22.59 1.59.93z" style="fill:#10b981;opacity:.5"/><path d="M88 253.92c.8 0 1.45-.29 1.45-.83 0-30.58-12.14-60.27-15.86-68.64a1.45 1.45 0 1 0-2.59 1.18c3.66 8.24 15.63 37.45 15.61 67.46-.02.31.63.83 1.39.83" style="fill:#455a64"/><path d="M147.24 413.16a2.3 2.3 0 0 0 1 1.8l51.43 29.69a2.31 2.31 0 0 0 2.08 0L380 341.8a2.3 2.3 0 0 0 1-1.8V189.54l-53.5-30.89-180.27 104Z" style="fill:#37474f"/><path d="M147.24 413.16a2.3 2.3 0 0 0 1 1.8l51.43 29.69a2.1 2.1 0 0 0 1 .25V283.57l-49.28-23.27-4.15 2.4Z" style="fill:#263238"/><path d="m199.19 303.93-60.12-34.71a3.46 3.46 0 0 1-1.56-2.7v-2a3.46 3.46 0 0 1 1.56-2.7L326 153.93a3.47 3.47 0 0 1 3.11 0l60.13 34.72a3.42 3.42 0 0 1 1.55 2.69v2a3.43 3.43 0 0 1-1.55 2.69L202.3 303.93a3.41 3.41 0 0 1-3.11 0" style="fill:#263238"/><path d="M389.19 190.44 202.3 298.31a3.41 3.41 0 0 1-3.11 0l-60.12-34.71a1 1 0 0 1 0-1.8L326 153.93a3.47 3.47 0 0 1 3.11 0l60.13 34.72a.94.94 0 0 1-.05 1.79" style="fill:#455a64"/><path d="M200.75 298.68v5.62a3.2 3.2 0 0 1-1.56-.37l-60.12-34.72a3.43 3.43 0 0 1-1.56-2.69v-2a3.48 3.48 0 0 1 1.27-2.5c-.56.5-.47 1.17.29 1.6l60.12 34.71a3.3 3.3 0 0 0 1.56.35" style="fill:#37474f"/><ellipse cx="207.45" cy="264.57" rx="29.98" ry="17.31" style="fill:#37474f"/><path d="M185.26 235.76c-12.24 6.8-12.22 17.81 0 24.57s32.12 6.74 44.36-.06 12.22-17.8 0-24.57-32.12-6.7-44.36.06" style="fill:#10b981"/><path d="M176.09 248.06c0-4.45 3-8.9 9.17-12.3 12.24-6.8 32.1-6.83 44.35-.06 6.13 3.38 9.2 7.83 9.21 12.27h2.81c0-5.05-3.35-10.1-10-13.94-13.36-7.69-35-7.66-48.33.07-6.67 3.86-10 8.92-10 14h2.82Z" style="fill:#fafafa"/><path d="M229.61 235.7c-12.25-6.77-32.11-6.74-44.35.06-6.12 3.4-9.18 7.85-9.17 12.3s3.07 8.89 9.2 12.27c12.26 6.77 32.12 6.74 44.36-.06 6.12-3.4 9.17-7.85 9.17-12.3s-3.08-8.89-9.21-12.27" style="fill:#e0e0e0"/><path d="M185.26 235.76c-12.24 6.8-12.22 17.81 0 24.57q1.41.78 3 1.44a20.24 20.24 0 0 1 0-16.4 26.74 26.74 0 0 1 18.88-14.72c-7.95.05-15.84 1.75-21.88 5.11" style="opacity:.1"/><path d="M204.28 237.72a7.06 7.06 0 0 1-2.74-3.78 8.7 8.7 0 0 0-.72-1.89 9.1 9.1 0 0 0-16.86 6.55c.06.21.12.41.19.61a7.1 7.1 0 0 1-.12 4.62 7 7 0 0 0-.21.69c-1.4 5.24 2.09 10.74 6.14 12.56 5.1 2.28 12.16 1.11 15.57-3.47 3.74-5.08 2.55-13.05-1.25-15.89" style="fill:#10b981"/><path d="M204.28 237.72a7.06 7.06 0 0 1-2.74-3.78 8.7 8.7 0 0 0-.72-1.89 9.1 9.1 0 0 0-16.86 6.55c.06.21.12.41.19.61a7.1 7.1 0 0 1-.12 4.62 7 7 0 0 0-.21.69c-1.4 5.24 2.09 10.74 6.14 12.56 5.1 2.28 12.16 1.11 15.57-3.47 3.74-5.08 2.55-13.05-1.25-15.89" style="fill:#fff;opacity:.6000000000000001"/><path d="M202.72 253.12a15.36 15.36 0 0 1-15.82 1.77 10.2 10.2 0 0 0 3 2.17c5.1 2.28 12.16 1.11 15.57-3.47a13.11 13.11 0 0 0 1-13c.47 1.03 1.05 8.56-3.75 12.53" style="opacity:.1"/><g style="opacity:.2"><path d="M189.38 234.06c-.41-.48-1-.51-1.31-1.1a2.62 2.62 0 0 1-.16-1.7 1.5 1.5 0 0 0 .07-.46.45.45 0 0 0-.25-.38.6.6 0 0 0-.5.15 6.76 6.76 0 0 0-2.59 5.9c.09 2 1.11 3.71 1 5.72a21 21 0 0 1-.54 2.85 11.18 11.18 0 0 0 1.29 7.13c1.91 4 6.57 5 6.86 4.52s-3.43-2.34-3-6.95a23 23 0 0 0 .15-5.67 11 11 0 0 0-.64-2c-.12-.31-.3-.61-.44-.92a2.3 2.3 0 0 1-.14-.44 8.64 8.64 0 0 1 .22-3.78 9.4 9.4 0 0 0 .35-1.48 1.9 1.9 0 0 0-.37-1.39" style="fill:#fff"/></g><g style="opacity:.2"><path d="M186.52 234.44a4.92 4.92 0 0 0-.86 3.68c.21 1.11.66 1.72.85 1.77s1.27-2.48 1.47-3.52c.29-1.48-.29-3.07-1.46-1.93" style="fill:#fff"/></g><path d="M190.07 231.73c-.76-.39-1.44-.54-1.61.32s1.82 1.76 3.66.81 2.27-2.35 2.1-3a3.63 3.63 0 0 1-1.88 2 3.3 3.3 0 0 1-2.27-.13" style="fill:#10b981"/><path d="M192.05 232.47a18.4 18.4 0 0 0-1.91-5.16 10.1 10.1 0 0 0-3.73-3.88 5.25 5.25 0 0 0-2.19.09c-1 .21-2.06 1.11-1.66 1.43s1.9.33 4 1.63 4.35 4.14 4.72 6a.79.79 0 0 0 .77-.11" style="fill:#37474f"/><path d="M186.34 223.41h-.11a5.9 5.9 0 0 0-2 .13 2.77 2.77 0 0 0-1.7 1.08c0 .16.22.31 1.14.26a5.54 5.54 0 0 0 2.58-.75c.35-.24.43-.61.09-.72" style="fill:#455a64"/><path d="M190.14 229.57c-1.22-2.1-4-3.51-5.77-4a10 10 0 0 1 2.16 1c2.06 1.29 4.35 4.14 4.72 6a.78.78 0 0 0 .8-.16s-.13-.68-.42-1.64c.13.97-.36.73-1.49-1.2" style="opacity:.1"/><path d="M190.82 228.63a4.38 4.38 0 0 0 3.7-6.81 4.47 4.47 0 0 0-3.61 2 5.25 5.25 0 0 0-.09 4.81" style="fill:#10b981"/><path d="M190.82 228.63a4.38 4.38 0 0 0 3.7-6.81 4.47 4.47 0 0 0-3.61 2 5.25 5.25 0 0 0-.09 4.81" style="opacity:.30000000000000004"/><path d="M194.52 221.82a4.47 4.47 0 0 0-3.61 2 5.25 5.25 0 0 0-.09 4.86c.44-3.75 3.7-6.86 3.7-6.86" style="fill:#10b981"/><path d="M211.3 226.83c-2-.32-5.56-.82-8.7 3.17-3.58 4.53-2.49 11.39.71 14.88 4 4.39 11.44 6.22 16.7 3.18 5.83-3.37 8-11.67 5.51-16.07s-7.84-4.46-9.3-4.19c-2.22.41-3.35-.72-4.92-.97" style="fill:#f28f8f"/><path d="M217.49 246.42a16.42 16.42 0 0 1-16.24-4.94 11 11 0 0 0 2.06 3.4c4 4.39 11.44 6.22 16.7 3.18a14 14 0 0 0 6.51-12.32c-.05 1.2-2.66 8.82-9.03 10.68" style="opacity:.1"/><g style="opacity:.2"><path d="M208.83 228.15c-1.26-.39-3.38.34-4.75 1.89a12.6 12.6 0 0 0-2.63 7.28c-.22 4.68 3.63 8 4.13 7.71s-2-3.93.71-8 4.62-8.23 2.54-8.88" style="fill:#fff"/></g><g style="opacity:.2"><path d="M207.68 228.66c-1.41.16-3.39 1.93-4.11 3.33s-.75 2.45-.59 2.67c.3.39 3.53-1.63 4.66-2.61 1.59-1.39 2.36-3.64.04-3.39" style="fill:#fff"/></g><path d="M212.53 231.15c-.58-.71-1.18-1.14-1.71-.38s1 2.5 3.24 2.35 3.21-1.35 3.32-2a3.9 3.9 0 0 1-2.68 1.14 3.53 3.53 0 0 1-2.17-1.11" style="fill:#b16668"/><path d="M214.18 232.59a19.9 19.9 0 0 0 .3-5.86 10.74 10.74 0 0 0-2-5.37 5.7 5.7 0 0 0-2.19-.84c-1.06-.22-2.48.22-2.22.71s1.72 1.12 3.19 3.26 2.52 5.9 2.08 7.91a.84.84 0 0 0 .84.19" style="fill:#37474f"/><path d="m212.4 221.31-.09-.07a6.2 6.2 0 0 0-2-.72 3 3 0 0 0-2.12.35c-.1.13.09.39 1 .73a6.1 6.1 0 0 0 2.81.4c.46-.11.7-.44.4-.69" style="fill:#455a64"/><path d="M213.53 228.94c-.31-2.57-2.41-5.11-4-6.37a10.6 10.6 0 0 1 1.68 1.92c1.48 2.14 2.52 5.9 2.08 7.91a.84.84 0 0 0 .85.19s.16-.73.28-1.8c-.23.96-.6.53-.89-1.85" style="opacity:.1"/><path d="M214.59 228.31a4.67 4.67 0 0 0 6.49-5.11 4.74 4.74 0 0 0-4.35.39 5.59 5.59 0 0 0-2.14 4.72" style="fill:#10b981"/><path d="M214.59 228.31a4.67 4.67 0 0 0 6.49-5.11 4.74 4.74 0 0 0-4.35.39 5.59 5.59 0 0 0-2.14 4.72" style="opacity:.30000000000000004"/><path d="M221.08 223.2a4.74 4.74 0 0 0-4.35.39 5.59 5.59 0 0 0-2.14 4.72c1.99-3.44 6.49-5.11 6.49-5.11" style="fill:#10b981"/><path d="M180.87 246.38c-1.92.71-5.24 2-6 7-.89 5.7 3.4 11.13 7.9 12.61 5.65 1.85 13-.18 16.1-5.41 3.42-5.77 1.27-14.07-3.07-16.67s-9 0-10.14.89c-1.73 1.44-3.3 1.03-4.79 1.58" style="fill:#f28f8f"/><path d="M195.84 260.41a16.37 16.37 0 0 1-16.55 3.59 10.6 10.6 0 0 0 3.45 2c5.65 1.85 13-.18 16.1-5.41a14 14 0 0 0-.36-13.9c.52 1.07 2 8.97-2.64 13.72" style="opacity:.1"/><g style="opacity:.2"><path d="M179.37 248.74c-1.29.27-2.78 1.95-3.22 4a12.6 12.6 0 0 0 1.28 7.62c2.09 4.19 7.07 5.2 7.37 4.7s-3.69-2.44-3.32-7.35.01-9.43-2.11-8.97" style="fill:#fff"/></g><g style="opacity:.2"><path d="M178.61 249.75c-1.15.82-2 3.33-2 4.9s.55 2.5.8 2.61c.45.2 2.27-3.15 2.77-4.55.76-1.99.29-4.3-1.57-2.96" style="fill:#fff"/></g><path d="M184.05 249.54c-.85-.34-1.58-.42-1.67.51s2.13 1.66 4 .45 2.14-2.74 1.89-3.4a3.88 3.88 0 0 1-1.77 2.31 3.62 3.62 0 0 1-2.45.13" style="fill:#b16668"/><path d="M186.19 250a19.7 19.7 0 0 0-2.6-5.25 10.8 10.8 0 0 0-4.38-3.69 5.6 5.6 0 0 0-2.31.34c-1 .33-2.06 1.41-1.59 1.7s2 .14 4.37 1.28 5.08 3.91 5.68 5.88a.85.85 0 0 0 .83-.26" style="fill:#37474f"/><path d="M179.13 241H179a6.3 6.3 0 0 0-2.1.36 3 3 0 0 0-1.68 1.34c0 .17.27.3 1.23.15a5.86 5.86 0 0 0 2.65-1.09c.36-.25.41-.66.03-.76" style="fill:#455a64"/><path d="M183.84 247.13c-1.53-2.09-4.6-3.28-6.56-3.62a10.8 10.8 0 0 1 2.4.85c2.34 1.14 5.08 3.91 5.68 5.87a.83.83 0 0 0 .83-.25 18 18 0 0 0-.63-1.7c.24.97-.3.77-1.72-1.15" style="opacity:.1"/><path d="M184.46 246.06a4.67 4.67 0 0 0 3.15-7.63 4.76 4.76 0 0 0-3.6 2.47 5.62 5.62 0 0 0 .45 5.16" style="fill:#10b981"/><path d="M184.46 246.06a4.67 4.67 0 0 0 3.15-7.63 4.76 4.76 0 0 0-3.6 2.47 5.62 5.62 0 0 0 .45 5.16" style="opacity:.2"/><path d="M187.61 238.43a4.76 4.76 0 0 0-3.6 2.47 5.62 5.62 0 0 0 .45 5.16c.05-3.97 3.15-7.63 3.15-7.63" style="fill:#10b981"/><path d="M218.27 245.31a7 7 0 0 0 2.79-3.74 9.5 9.5 0 0 1 .75-1.87 9.09 9.09 0 0 1 16.75 6.81 6 6 0 0 1-.2.61 7.1 7.1 0 0 0 .06 4.62c.07.22.13.45.19.7 1.32 5.25-2.25 10.7-6.33 12.45-5.13 2.21-12.18.92-15.51-3.71-3.66-5.13-2.34-13.08 1.5-15.87" style="fill:#ffbda7"/><path d="M219.59 260.74a15.4 15.4 0 0 0 15.79 2 10.3 10.3 0 0 1-3.07 2.11c-5.13 2.21-12.18.92-15.51-3.71a13.07 13.07 0 0 1-.83-13c-.42 1.04-1.12 8.55 3.62 12.6" style="opacity:.1"/><g style="opacity:.2"><path d="M233.23 241.88c.41-.46 1-.49 1.32-1.08a2.6 2.6 0 0 0 .19-1.69 1.8 1.8 0 0 1-.06-.47.45.45 0 0 1 .25-.37.57.57 0 0 1 .5.16 6.77 6.77 0 0 1 2.5 5.94c-.12 2-1.17 3.69-1.1 5.7a23 23 0 0 0 .5 2.86 11.24 11.24 0 0 1-1.41 7.11c-2 3.94-6.64 4.89-6.92 4.42s3.46-2.29 3.12-6.91a22.5 22.5 0 0 1-.07-5.68 11.4 11.4 0 0 1 .67-1.94c.12-.31.31-.61.45-.91a2.6 2.6 0 0 0 .16-.44 8.8 8.8 0 0 0-.17-3.78 11 11 0 0 1-.33-1.49 1.9 1.9 0 0 1 .4-1.43" style="fill:#fff"/></g><g style="opacity:.2"><path d="M236.08 242.31a4.9 4.9 0 0 1 .8 3.7c-.22 1.1-.68 1.7-.87 1.75-.34.08-1.23-2.5-1.42-3.54-.26-1.49.34-3.07 1.49-1.91" style="fill:#fff"/></g><path d="M232.57 239.55c.77-.39 1.45-.52 1.61.34s-1.85 1.73-3.68.75-2.22-2.38-2.05-3a3.64 3.64 0 0 0 1.86 2 3.32 3.32 0 0 0 2.26-.09" style="fill:#f0997a"/><path d="M230.58 240.25a18.8 18.8 0 0 1 2-5.13 10.16 10.16 0 0 1 3.79-3.82 5.25 5.25 0 0 1 2.19.13c1 .22 2 1.14 1.64 1.46s-1.91.3-4 1.56-4.42 4.08-4.82 6a.8.8 0 0 1-.8-.2" style="fill:#37474f"/><path d="M236.44 231.29h.1a5.6 5.6 0 0 1 2 .16 2.7 2.7 0 0 1 1.68 1.11c0 .15-.22.3-1.14.24a5.6 5.6 0 0 1-2.57-.8c-.34-.24-.42-.61-.07-.71" style="fill:#455a64"/><path d="M232.54 237.38c1.25-2.08 4-3.45 5.83-3.93a10.5 10.5 0 0 0-2.17 1c-2.09 1.26-4.42 4.08-4.82 6a.8.8 0 0 1-.8-.17s.14-.68.45-1.64c-.14.89.35.66 1.51-1.26" style="opacity:.1"/><path d="M231.87 236.44a4.39 4.39 0 0 1-3.59-6.87 4.46 4.46 0 0 1 3.58 2 5.27 5.27 0 0 1 .01 4.87" style="fill:#10b981"/><path d="M231.87 236.44a4.39 4.39 0 0 1-3.59-6.87 4.46 4.46 0 0 1 3.58 2 5.27 5.27 0 0 1 .01 4.87" style="opacity:.30000000000000004"/><path d="M228.28 229.57a4.46 4.46 0 0 1 3.58 2 5.27 5.27 0 0 1 0 4.87c-.37-3.71-3.58-6.87-3.58-6.87m-17.86 17.54c2-.23 5.59-.56 8.54 3.57 3.36 4.69 2 11.49-1.41 14.83-4.22 4.19-11.71 5.68-16.83 2.39-5.66-3.62-7.46-12-4.75-16.3s8-4.09 9.48-3.75c2.16.51 3.38-.57 4.97-.74" style="fill:#10b981"/><path d="M203.32 266.39a16.41 16.41 0 0 0 16.45-4.18 10.9 10.9 0 0 1-2.22 3.3c-4.22 4.19-11.71 5.68-16.83 2.39a14 14 0 0 1-5.93-12.6c0 1.2 2.21 8.93 8.53 11.09" style="opacity:.1"/><g style="opacity:.2"><path d="M212.82 248.54c1.28-.33 3.36.5 4.65 2.11a12.5 12.5 0 0 1 2.29 7.39c0 4.69-4 7.83-4.48 7.52s2.2-3.84-.34-8.08-4.22-8.39-2.12-8.94" style="fill:#fff"/></g><g style="opacity:.2"><path d="M214 249.11c1.4.22 3.29 2.08 4 3.51s.63 2.48.46 2.69c-.32.38-3.45-1.79-4.53-2.82-1.62-1.49-2.24-3.74.07-3.38" style="fill:#fff"/></g><path d="M209 251.36c.62-.68 1.23-1.08 1.73-.29s-1.16 2.44-3.35 2.19-3.14-1.49-3.22-2.19a3.88 3.88 0 0 0 2.63 1.26 3.48 3.48 0 0 0 2.21-.97" style="opacity:.2"/><path d="M207.27 252.72a19.8 19.8 0 0 1 0-5.86 10.74 10.74 0 0 1 2.26-5.27 5.5 5.5 0 0 1 2.22-.74c1.08-.17 2.47.34 2.19.81s-1.77 1-3.34 3.11-2.79 5.77-2.44 7.81a.84.84 0 0 1-.89.14" style="fill:#37474f"/><path d="m209.57 241.54.1-.06a6.1 6.1 0 0 1 2-.63 2.94 2.94 0 0 1 2.1.45c.1.14-.1.39-1 .68a6 6 0 0 1-2.86.22c-.42-.08-.65-.42-.34-.66" style="fill:#455a64"/><path d="M208.09 249.12c.43-2.56 2.64-5 4.24-6.19a11 11 0 0 0-1.76 1.84c-1.58 2.07-2.79 5.77-2.44 7.81a.84.84 0 0 1-.86.14 18 18 0 0 1-.2-1.8c.22.97.62.55 1.02-1.8" style="opacity:.1"/><path d="M207.06 248.44a4.68 4.68 0 0 1-6.25-5.41 4.75 4.75 0 0 1 4.33.59 5.61 5.61 0 0 1 1.92 4.82" style="fill:#10b981"/><path d="M207.06 248.44a4.68 4.68 0 0 1-6.25-5.41 4.75 4.75 0 0 1 4.33.59 5.61 5.61 0 0 1 1.92 4.82" style="opacity:.30000000000000004"/><path d="M200.81 243a4.75 4.75 0 0 1 4.33.59 5.61 5.61 0 0 1 1.92 4.82c-1.84-3.5-6.25-5.41-6.25-5.41" style="fill:#10b981"/><path d="M241.63 248c0 5.05-3.32 10.1-10 14-13.34 7.72-35 7.75-48.34.06-6.67-3.84-10-8.88-10-13.93 0 18.87 15.35 28.93 34.23 28.9s34.16-10.12 34.13-29Z" style="fill:#ebebeb"/><path d="M183.3 262c13.36 7.69 35 7.66 48.34-.06 6.67-3.87 10-8.92 10-14h-2.81c0 4.45-3 8.9-9.17 12.3-12.24 6.8-32.1 6.83-44.36.06-6.13-3.38-9.19-7.82-9.2-12.27h-2.82c0 5.09 3.35 10.13 10.02 13.97" style="fill:#fafafa"/><path d="M263.21 214.13c5.47 3.16 5.47 8.28 0 11.43s-14.33 3.16-19.79 0-5.47-8.27 0-11.43 14.33-3.13 19.79 0" style="fill:#37474f"/><path d="M265 171.05c0-4.38-4-8.56-5.78-10.21-.93-.88-1.51-1.3-1.76-1.85a3.33 3.33 0 0 1-.2-1.68h-7.81a3.33 3.33 0 0 1-.2 1.68 8.1 8.1 0 0 1-1.76 1.85c-1.76 1.65-5.78 5.83-5.78 10.21a4 4 0 0 0 .18 1.18 4 4 0 0 0-.18 1.19v1.89a3.9 3.9 0 0 0 .16 1.11 3.9 3.9 0 0 0-.15 1.26V180a3.9 3.9 0 0 0 .68 2.2l.51.74a3.94 3.94 0 0 1 .68 2.2 3.86 3.86 0 0 1-.44 1.8l-1 1.89a3.9 3.9 0 0 0-.44 1.8v27.62c0 1.72 1.14 3.44 3.41 4.76 4.55 2.62 11.92 2.62 16.47 0 2.27-1.32 3.41-3 3.41-4.76v-27.58a3.9 3.9 0 0 0-.44-1.8l-1-1.89a3.86 3.86 0 0 1-.44-1.8 3.94 3.94 0 0 1 .68-2.2l.51-.74A3.9 3.9 0 0 0 265 180v-2.36a3.9 3.9 0 0 0-.15-1.26 4.3 4.3 0 0 0 .16-1.11v-1.89a4 4 0 0 0-.18-1.19 4 4 0 0 0 .18-1.18Z" style="fill:#10b981"/><path d="M265 171.05c0-4.38-4-8.56-5.78-10.21-.93-.88-1.51-1.3-1.76-1.85a3.33 3.33 0 0 1-.2-1.68h-7.81a3.33 3.33 0 0 1-.2 1.68 8.1 8.1 0 0 1-1.76 1.85c-1.76 1.65-5.78 5.83-5.78 10.21a4 4 0 0 0 .18 1.18 4 4 0 0 0-.18 1.19v1.89a3.9 3.9 0 0 0 .16 1.11 3.9 3.9 0 0 0-.15 1.26V180a3.9 3.9 0 0 0 .68 2.2l.51.74a3.94 3.94 0 0 1 .68 2.2 3.86 3.86 0 0 1-.44 1.8l-1 1.89a3.9 3.9 0 0 0-.44 1.8v27.62c0 1.72 1.14 3.44 3.41 4.76 4.55 2.62 11.92 2.62 16.47 0 2.27-1.32 3.41-3 3.41-4.76v-27.58a3.9 3.9 0 0 0-.44-1.8l-1-1.89a3.86 3.86 0 0 1-.44-1.8 3.94 3.94 0 0 1 .68-2.2l.51-.74A3.9 3.9 0 0 0 265 180v-2.36a3.9 3.9 0 0 0-.15-1.26 4.3 4.3 0 0 0 .16-1.11v-1.89a4 4 0 0 0-.18-1.19 4 4 0 0 0 .18-1.18Z" style="fill:#fff;opacity:.5"/><path d="M241.67 175.31c0 1.72 1.14 3.44 3.41 4.75 4.55 2.63 11.92 2.63 16.47 0 2.27-1.31 3.41-3 3.41-4.75v-1.89c0 1.72-1.14 3.44-3.41 4.75-4.55 2.62-11.92 2.62-16.47 0-2.27-1.31-3.41-3-3.41-4.75Z" style="fill:#10b981"/><path d="M241.67 180.09c0 1.72 1.14 3.44 3.41 4.75 4.55 2.63 11.92 2.63 16.47 0 2.27-1.31 3.41-3 3.41-4.75v-2.56c0 1.72-1.14 3.44-3.41 4.75-4.55 2.63-11.92 2.63-16.47 0-2.27-1.31-3.41-3-3.41-4.75Z" style="fill:#10b981"/><path d="M265 171a4 4 0 0 1 0 .6v.14c0 .05-.07.3-.11.45a6.62 6.62 0 0 1-3.23 3.57c-4.55 2.62-11.92 2.62-16.47 0a6.62 6.62 0 0 1-3.23-3.57.14.14 0 0 0 0-.06v-.16a4 4 0 0 1-.12-1c0-4.38 4-8.56 5.78-10.21a7.9 7.9 0 0 0 1.76-1.85 3.33 3.33 0 0 0 .2-1.68h7.81a3.33 3.33 0 0 0 .2 1.68 7.9 7.9 0 0 0 1.76 1.85c1.58 1.72 5.65 5.9 5.65 10.24m-4.17 22a16.65 16.65 0 0 1-15 0c-2.83-1.64-3.73-4-2.69-6l-1 1.89a3.9 3.9 0 0 0-.44 1.8v27.62c0 1.72 1.14 3.44 3.41 4.76 4.55 2.62 11.92 2.62 16.47 0 2.27-1.32 3.41-3 3.41-4.76v-27.64a3.9 3.9 0 0 0-.44-1.8l-1-1.89c1.01 2.02.11 4.39-2.72 6.02" style="fill:#10b981"/><g style="opacity:.7000000000000001"><path d="M241.67 175.31c0 1.72 1.14 3.44 3.41 4.75 4.55 2.63 11.92 2.63 16.47 0 2.27-1.31 3.41-3 3.41-4.75v-1.89c0 1.72-1.14 3.44-3.41 4.75-4.55 2.62-11.92 2.62-16.47 0-2.27-1.31-3.41-3-3.41-4.75Z" style="fill:#fff"/><path d="M241.67 180.09c0 1.72 1.14 3.44 3.41 4.75 4.55 2.63 11.92 2.63 16.47 0 2.27-1.31 3.41-3 3.41-4.75v-2.56c0 1.72-1.14 3.44-3.41 4.75-4.55 2.63-11.92 2.63-16.47 0-2.27-1.31-3.41-3-3.41-4.75Z" style="fill:#fff"/><path d="M265 171a4 4 0 0 1 0 .6v.14c0 .05-.07.3-.11.45a6.62 6.62 0 0 1-3.23 3.57c-4.55 2.62-11.92 2.62-16.47 0a6.62 6.62 0 0 1-3.23-3.57.14.14 0 0 0 0-.06v-.16a4 4 0 0 1-.12-1c0-4.38 4-8.56 5.78-10.21a7.9 7.9 0 0 0 1.76-1.85 3.33 3.33 0 0 0 .2-1.68h7.81a3.33 3.33 0 0 0 .2 1.68 7.9 7.9 0 0 0 1.76 1.85c1.58 1.72 5.65 5.9 5.65 10.24m-4.17 22a16.65 16.65 0 0 1-15 0c-2.83-1.64-3.73-4-2.69-6l-1 1.89a3.9 3.9 0 0 0-.44 1.8v27.62c0 1.72 1.14 3.44 3.41 4.76 4.55 2.62 11.92 2.62 16.47 0 2.27-1.32 3.41-3 3.41-4.76v-27.64a3.9 3.9 0 0 0-.44-1.8l-1-1.89c1.01 2.02.11 4.39-2.72 6.02" style="fill:#fff"/></g><path d="M263.57 172.6a3 3 0 0 1 .12.82v1.89a2.5 2.5 0 0 1-.11.76l-.1.35.1.35a2.8 2.8 0 0 1 .11.86l-.06 1.32h.06V180a2.65 2.65 0 0 1-.46 1.49l-.5.74a5.12 5.12 0 0 0-.32 5.3l1 1.89a2.55 2.55 0 0 1 .3 1.21v27.62c0 1.33-1 2.63-2.78 3.66a16.92 16.92 0 0 1-15.19 0c-1.8-1-2.78-2.33-2.78-3.66v-27.58a2.66 2.66 0 0 1 .29-1.21l1-1.89a5.12 5.12 0 0 0-.32-5.3l-.5-.74a2.65 2.65 0 0 1-.46-1.49V179h.03l-.05-1.32a2.8 2.8 0 0 1 .11-.86l.1-.35-.1-.35a2.5 2.5 0 0 1-.11-.76v-1.89a2.9 2.9 0 0 1 .12-.82l.12-.37-.12-.37a3 3 0 0 1-.12-.82 9.1 9.1 0 0 1 1.42-4.49l.09-.15v-.07a6.2 6.2 0 0 1 2.15-1.92 14.72 14.72 0 0 1 13.31 0 6.3 6.3 0 0 1 2.15 1.92l.05.07.09.15a9.1 9.1 0 0 1 1.42 4.49 2.9 2.9 0 0 1-.12.82l-.12.37Z" style="fill:#10b981"/><path d="M263.57 172.6a3 3 0 0 1 .12.82v1.89a2.5 2.5 0 0 1-.11.76l-.1.35.1.35a2.8 2.8 0 0 1 .11.86l-.06 1.32h.06V180a2.65 2.65 0 0 1-.46 1.49l-.5.74a5.12 5.12 0 0 0-.32 5.3l1 1.89a2.55 2.55 0 0 1 .3 1.21v27.62c0 1.33-1 2.63-2.78 3.66a16.92 16.92 0 0 1-15.19 0c-1.8-1-2.78-2.33-2.78-3.66v-27.58a2.66 2.66 0 0 1 .29-1.21l1-1.89a5.12 5.12 0 0 0-.32-5.3l-.5-.74a2.65 2.65 0 0 1-.46-1.49V179h.03l-.05-1.32a2.8 2.8 0 0 1 .11-.86l.1-.35-.1-.35a2.5 2.5 0 0 1-.11-.76v-1.89a2.9 2.9 0 0 1 .12-.82l.12-.37-.12-.37a3 3 0 0 1-.12-.82 9.1 9.1 0 0 1 1.42-4.49l.09-.15v-.07a6.2 6.2 0 0 1 2.15-1.92 14.72 14.72 0 0 1 13.31 0 6.3 6.3 0 0 1 2.15 1.92l.05.07.09.15a9.1 9.1 0 0 1 1.42 4.49 2.9 2.9 0 0 1-.12.82l-.12.37Z" style="fill:#fff;opacity:.85"/><path d="M260 172.06a14.72 14.72 0 0 1-13.31 0c-2.58-1.49-3.35-3.64-2.3-5.51l.09-.15v-.07a6.2 6.2 0 0 1 2.15-1.92 14.72 14.72 0 0 1 13.31 0 6.3 6.3 0 0 1 2.15 1.92l.05.07.09.15c1.09 1.87.32 4.02-2.23 5.51" style="fill:#fff;opacity:.7000000000000001"/><path d="M263.66 178.4a8.5 8.5 0 0 1-2.11 1.66c-4.55 2.63-11.92 2.63-16.47 0a8.6 8.6 0 0 1-2.11-1.67v.56h-.05V180a2.7 2.7 0 0 0 .07.63 8.8 8.8 0 0 0 2.07 1.61c4.55 2.63 11.92 2.63 16.47 0a8.7 8.7 0 0 0 2.06-1.61 2.7 2.7 0 0 0 .08-.63v-1h-.06Zm-1.25 9.17a5.1 5.1 0 0 1-.59-2.39 5 5 0 0 1 0-.52l-.3.18c-4.55 2.63-11.92 2.63-16.47 0l-.3-.18v.52a5.1 5.1 0 0 1-.59 2.39l-1 1.89a2.6 2.6 0 0 0-.23.68 6.32 6.32 0 0 0 2.8 2.87 16.65 16.65 0 0 0 15 0 6.37 6.37 0 0 0 2.8-2.87 2.6 2.6 0 0 0-.24-.68Zm-.86-11.77c-4.55 2.62-11.92 2.62-16.47 0a8.7 8.7 0 0 1-2.14-1.7v1.21a2.5 2.5 0 0 0 .11.76l.1.35-.06.21a8.8 8.8 0 0 0 2 1.54c4.55 2.62 11.92 2.62 16.47 0a8.8 8.8 0 0 0 2-1.54l-.06-.21.1-.35a2.5 2.5 0 0 0 .11-.76v-1.21a8.4 8.4 0 0 1-2.16 1.7" style="fill:#10b981"/><path d="M263.66 178.4a8.5 8.5 0 0 1-2.11 1.66c-4.55 2.63-11.92 2.63-16.47 0a8.6 8.6 0 0 1-2.11-1.67v.56h-.05V180a2.7 2.7 0 0 0 .07.63 8.8 8.8 0 0 0 2.07 1.61c4.55 2.63 11.92 2.63 16.47 0a8.7 8.7 0 0 0 2.06-1.61 2.7 2.7 0 0 0 .08-.63v-1h-.06Zm-1.25 9.17a5.1 5.1 0 0 1-.59-2.39 5 5 0 0 1 0-.52l-.3.18c-4.55 2.63-11.92 2.63-16.47 0l-.3-.18v.52a5.1 5.1 0 0 1-.59 2.39l-1 1.89a2.6 2.6 0 0 0-.23.68 6.32 6.32 0 0 0 2.8 2.87 16.65 16.65 0 0 0 15 0 6.37 6.37 0 0 0 2.8-2.87 2.6 2.6 0 0 0-.24-.68Zm-.86-11.77c-4.55 2.62-11.92 2.62-16.47 0a8.7 8.7 0 0 1-2.14-1.7v1.21a2.5 2.5 0 0 0 .11.76l.1.35-.06.21a8.8 8.8 0 0 0 2 1.54c4.55 2.62 11.92 2.62 16.47 0a8.8 8.8 0 0 0 2-1.54l-.06-.21.1-.35a2.5 2.5 0 0 0 .11-.76v-1.21a8.4 8.4 0 0 1-2.16 1.7" style="fill:#fff;opacity:.7000000000000001"/><path d="M260.08 213.79a15.52 15.52 0 0 0-13.53 0c-1.86 1-2.8 2.38-2.8 3.73v.48c0 1.17.91 2.31 2.56 3.23a16.32 16.32 0 0 0 14 0c1.65-.92 2.56-2.06 2.56-3.23v-.47c.01-1.36-.93-2.71-2.79-3.74" style="fill:#10b981"/><path d="M260.08 213.79a15.52 15.52 0 0 0-13.53 0c-1.86 1-2.8 2.38-2.8 3.73v.48c0 1.17.91 2.31 2.56 3.23a16.32 16.32 0 0 0 14 0c1.65-.92 2.56-2.06 2.56-3.23v-.47c.01-1.36-.93-2.71-2.79-3.74" style="fill:#fff;opacity:.75"/><g style="opacity:.1"><path d="M247.43 218.2v-27.62a3.9 3.9 0 0 1 .44-1.8l1-1.89a3.86 3.86 0 0 0 .44-1.8 3.94 3.94 0 0 0-.68-2.2l-.51-.74a3.9 3.9 0 0 1-.68-2.2v-2.36a3.9 3.9 0 0 1 .15-1.26 3.9 3.9 0 0 1-.16-1.11v-1.89a4 4 0 0 1 .18-1.19 4 4 0 0 1-.18-1.19c0-4.38 3-8.56 4.75-10.21a8.1 8.1 0 0 0 1.76-1.85 3.15 3.15 0 0 0 .2-1.59h-4.73a3.33 3.33 0 0 1-.2 1.68 8.1 8.1 0 0 1-1.76 1.85c-1.76 1.65-5.78 5.83-5.78 10.21a4 4 0 0 0 .18 1.18 4 4 0 0 0-.18 1.19v1.89a3.9 3.9 0 0 0 .16 1.11 3.9 3.9 0 0 0-.15 1.26V180a3.9 3.9 0 0 0 .68 2.2l.51.74a3.94 3.94 0 0 1 .68 2.2 3.86 3.86 0 0 1-.44 1.8l-1 1.89a3.9 3.9 0 0 0-.44 1.8v27.62c0 1.72 1.14 3.44 3.41 4.76a18.1 18.1 0 0 0 11.42 1.71 15.5 15.5 0 0 1-5.66-1.8c-2.27-1.28-3.41-3-3.41-4.72"/><path d="M261.55 198.08c-4.55 2.63-11.92 2.63-16.47 0-2.27-1.31-3.41-3-3.41-4.75v12.83c0 1.72 1.14 3.44 3.41 4.75 4.55 2.63 11.92 2.63 16.47 0 2.27-1.31 3.41-3 3.41-4.75v-12.83c.04 1.72-1.14 3.44-3.41 4.75"/></g><path d="M256.74 154.79a7.58 7.58 0 0 0-6.85 0 2.41 2.41 0 0 0-1.41 2v.78a2.41 2.41 0 0 0 1.41 2 7.58 7.58 0 0 0 6.85 0 2.41 2.41 0 0 0 1.41-2v-.77a2.41 2.41 0 0 0-1.41-2.01" style="fill:#10b981"/><path d="M256.74 154.79a7.58 7.58 0 0 0-6.85 0 2.41 2.41 0 0 0-1.41 2v.78a2.41 2.41 0 0 0 1.41 2 7.58 7.58 0 0 0 6.85 0 2.41 2.41 0 0 0 1.41-2v-.77a2.41 2.41 0 0 0-1.41-2.01" style="fill:#fff;opacity:.5"/><path d="M249.89 158.74c-1.89-1.09-1.89-2.86 0-4a7.58 7.58 0 0 1 6.85 0c1.89 1.09 1.89 2.86 0 4a7.58 7.58 0 0 1-6.85 0" style="fill:#10b981"/><path d="M249.89 158.74c-1.89-1.09-1.89-2.86 0-4a7.58 7.58 0 0 1 6.85 0c1.89 1.09 1.89 2.86 0 4a7.58 7.58 0 0 1-6.85 0" style="fill:#fff;opacity:.5"/><path d="M249.89 158.74c-1.89-1.09-1.89-2.86 0-4a7.58 7.58 0 0 1 6.85 0c1.89 1.09 1.89 2.86 0 4a7.58 7.58 0 0 1-6.85 0" style="opacity:.1"/><path d="M256.64 153.78a7.35 7.35 0 0 0-6.65 0 2.32 2.32 0 0 0-1.37 1.91v.76a2.3 2.3 0 0 0 1.37 1.92 7.35 7.35 0 0 0 6.65 0 2.32 2.32 0 0 0 1.37-1.92v-.75a2.33 2.33 0 0 0-1.37-1.92" style="fill:#10b981"/><path d="M256.64 153.78a7.35 7.35 0 0 0-6.65 0 2.32 2.32 0 0 0-1.37 1.91v.76a2.3 2.3 0 0 0 1.37 1.92 7.35 7.35 0 0 0 6.65 0 2.32 2.32 0 0 0 1.37-1.92v-.75a2.33 2.33 0 0 0-1.37-1.92" style="opacity:.30000000000000004"/><path d="M250 157.62c-1.84-1.06-1.84-2.78 0-3.84a7.35 7.35 0 0 1 6.65 0c1.84 1.06 1.84 2.78 0 3.84a7.35 7.35 0 0 1-6.65 0" style="fill:#10b981"/><path d="M250 157.62c-1.84-1.06-1.84-2.78 0-3.84a7.35 7.35 0 0 1 6.65 0c1.84 1.06 1.84 2.78 0 3.84a7.35 7.35 0 0 1-6.65 0" style="opacity:.5"/><path d="M256.74 149.78a7.58 7.58 0 0 0-6.85 0 2.4 2.4 0 0 0-1.41 2v3.72a2.4 2.4 0 0 0 1.41 2 7.52 7.52 0 0 0 6.85 0 2.4 2.4 0 0 0 1.41-2v-3.71a2.41 2.41 0 0 0-1.41-2.01" style="fill:#10b981"/><path d="M256.74 149.78a7.58 7.58 0 0 0-6.85 0 2.4 2.4 0 0 0-1.41 2v3.72a2.4 2.4 0 0 0 1.41 2 7.52 7.52 0 0 0 6.85 0 2.4 2.4 0 0 0 1.41-2v-3.71a2.41 2.41 0 0 0-1.41-2.01" style="opacity:.2"/><path d="M250.25 153.52c-1.69-1-1.69-2.56 0-3.53a6.76 6.76 0 0 1 6.13 0c1.69 1 1.69 2.56 0 3.53a6.76 6.76 0 0 1-6.13 0" style="fill:#10b981;opacity:.5"/><g style="opacity:.15"><rect width=".31" height="2.59" x="253.16" y="155.11" rx=".12"/><path d="M252.68 155.21v2.35a.11.11 0 0 1-.12.1h-.06a.15.15 0 0 1-.12-.13v-2.35a.11.11 0 0 1 .12-.11h.06a.13.13 0 0 1 .12.14m-.8-.11v2.36a.1.1 0 0 1-.12.09.15.15 0 0 1-.11-.14v-2.35c0-.07.05-.11.11-.09a.15.15 0 0 1 .12.13m-.79-.18v2.35a.08.08 0 0 1-.11.08.18.18 0 0 1-.11-.16v-2.35a.08.08 0 0 1 .11-.08.16.16 0 0 1 .11.16m-.76-.29V157c0 .06-.05.09-.11.06a.18.18 0 0 1-.1-.17v-2.35c0-.06 0-.09.1-.06a.2.2 0 0 1 .11.15m-.71-.39v2.35c0 .07 0 .09-.09 0h-.05a.28.28 0 0 1-.09-.19v-2.36c0-.06 0-.08.09 0h.05a.24.24 0 0 1 .09.2m-.62-.56V156c0 .07 0 .08-.07 0a1 1 0 0 1-.08-.11.4.4 0 0 1-.07-.21v-2.36c0-.06 0-.07.07 0a1 1 0 0 0 .08.12.37.37 0 0 1 .07.24m5 1.53v2.35a.1.1 0 0 0 .11.1h.06a.14.14 0 0 0 .12-.13v-2.35a.11.11 0 0 0-.12-.11h-.06a.12.12 0 0 0-.11.14m.76-.11v2.36a.09.09 0 0 0 .11.09.16.16 0 0 0 .12-.14v-2.35a.09.09 0 0 0-.12-.09.14.14 0 0 0-.11.13m.79-.18v2.35a.08.08 0 0 0 .11.08.18.18 0 0 0 .11-.16v-2.35a.08.08 0 0 0-.11-.08.16.16 0 0 0-.11.16m.76-.29V157c0 .06 0 .09.1.06a.19.19 0 0 0 .11-.17v-2.35c0-.06-.05-.09-.11-.06a.19.19 0 0 0-.1.15m.69-.39v2.35c0 .07.05.09.1 0h.05a.28.28 0 0 0 .09-.19v-2.36c0-.06 0-.08-.09 0h-.05a.25.25 0 0 0-.1.2m.65-.56V156c0 .07 0 .08.07 0l.09-.11a.5.5 0 0 0 .06-.21v-2.36c0-.06 0-.07-.06 0l-.09.12a.37.37 0 0 0-.07.24"/></g><path d="M248.48 151.78v3.69a1.8 1.8 0 0 0 .13.64 1.8 1.8 0 0 0-.13.72v.71a2.41 2.41 0 0 0 1.41 2 6.6 6.6 0 0 0 2.46.76v-.77l.57-.35v-.75l.19-.15h-.19v-3.71a6.9 6.9 0 0 1-3-.81 2.41 2.41 0 0 1-1.44-1.98" style="opacity:.15"/><path d="M261.55 198.93c-4.55 2.62-11.92 2.62-16.47 0-2.27-1.31-3.41-3-3.41-4.76V207c0 1.72 1.14 3.44 3.41 4.76 4.55 2.62 11.92 2.62 16.47 0 2.27-1.32 3.41-3 3.41-4.76v-12.83c.04 1.72-1.14 3.45-3.41 4.76" style="fill:#10b981"/><path d="M265 202.84v-.7c-.52.48-1 1-1.48 1.52-.61.66-1.24 1.33-1.91 1.93a9.46 9.46 0 0 1-8.87 2.27c-2.44-.55-4.61-2.65-6.4-4.63-.38-.41-.74-.84-1.1-1.25a15.7 15.7 0 0 0-3.53-3.38v.6a16.8 16.8 0 0 1 3.15 3.11c.35.41.72.84 1.1 1.26 1.85 2 4.09 4.21 6.67 4.79a11.8 11.8 0 0 0 2.58.3 9.86 9.86 0 0 0 6.69-2.66c.7-.61 1.33-1.3 2-2 .32-.39.68-.78 1.1-1.16" style="fill:#fafafa"/><path d="M261.74 207.69a9.93 9.93 0 0 1-9 2 13.75 13.75 0 0 1-6.63-4.38c-1.5-1.65-2.73-3.39-4.44-4.5v5.35c0 1.72 1.14 3.44 3.41 4.75 4.55 2.63 11.92 2.63 16.47 0 2.27-1.31 3.41-3 3.41-4.75v-1.76c-1.08 1.05-2.04 2.31-3.22 3.29" style="fill:#fafafa"/><path d="M246.57 199.65a12 12 0 0 1-1.49-.72c-2.27-1.31-3.41-3-3.41-4.76V207c0 1.72 1.14 3.44 3.41 4.76a12 12 0 0 0 1.49.72Z" style="opacity:.1"/><path d="m382 301.3-9.94 40.15a54 54 0 0 0-.43 19.87s-7.87 2.13-13.23-.32c-4.54-2.09-6.13-4.27-6.13-4.27l.93-10.42 3.5-45.58Z" style="fill:#ffa8a7"/><path d="m352.29 356.73.93-10.42 3.5-45.58 9.42.32c-.41 13-3.1 46.24-3.82 55.09 0 0-.2 2.34-.43 5.84a13 13 0 0 1-3.5-1c-4.51-2.07-6.1-4.25-6.1-4.25" style="fill:#f28f8f"/><path d="M366.08 192.76c9.12 27.65 22.24 82.47 19 97.41-2.44 11.2-8.21 34.29-8.21 34.29-4.81.88-19 2.3-23.16-6-1.52-13.72-53.41-124.67-53.41-124.67Z" style="fill:#10b981"/><path d="M364.76 324.86c.84-11.8 1.57-23.71 1.45-27.63-.28-9.41-16.82-67.7-16.82-67.7 8.78-9.49 9.64-17.08 9.64-17.08a141 141 0 0 1-14.73 16.89l10.89 91.27c2.44 3.33 6.81 4.12 9.57 4.25" style="opacity:.25"/><path d="M349 361.49a9.1 9.1 0 0 0 .13 3.6c.23 1.24 3.95 4.71 5.12 6.87s1.24 3 2.5 5.87c1.4 3.21 1.85 7 9.61 11.15s13.48 3.74 17.52 3.12 5.52-2.38 5.52-2.38 2.08-4.49-.34-5.94S349 361.49 349 361.49" style="fill:#263238"/><path d="M371.67 353.74c.52.71.59 2.51.73 3.36.49 2.86 2.2 5.7 3.76 8.11 7.39 11.42 15.91 12.55 14.3 21.14-.57 2.39-5.66 5.28-16.22 3.88-5.4-.72-12.94-5.68-14.81-9.45s-2.41-6.87-4-9.66-5.88-6.56-6.52-9.63a12.4 12.4 0 0 1 .47-5.47c.36-1.45 1.64-4.12 2.05-5.56s.33-2.53 1.58-2.44l.23 2.37c.6 3.95 1.4 3.83 2.64 5a27.2 27.2 0 0 1 3.23 4.52c-.29-2.66-1.08-4.44.44-5.48s3.37-1.39 6.94-1.47 4.73.15 5.18.78" style="fill:#10b981"/><path d="M371.67 353.74c.52.71.59 2.51.73 3.36.49 2.86 2.2 5.7 3.76 8.11 7.39 11.42 15.91 12.55 14.3 21.14-.57 2.39-5.66 5.28-16.22 3.88-5.4-.72-12.94-5.68-14.81-9.45s-2.41-6.87-4-9.66-5.88-6.56-6.52-9.63a12.4 12.4 0 0 1 .47-5.47c.36-1.45 1.64-4.12 2.05-5.56s.33-2.53 1.58-2.44l.23 2.37c.6 3.95 1.4 3.83 2.64 5a27.2 27.2 0 0 1 3.23 4.52c-.29-2.66-1.08-4.44.44-5.48s3.37-1.39 6.94-1.47 4.73.15 5.18.78" style="opacity:.4"/><path d="M374.24 390.23c-5.4-.72-12.94-5.68-14.81-9.45a38 38 0 0 1-1.61-3.84c.15.23.28.49.42.68.3.42.62.84.95 1.25a11.9 11.9 0 0 0 4.71 3.85c1.7.66 5.86 2.41 7.52.91.95-.85.84-2.49.2-3.85-.28-.57-1.16-2-1.16-2a19.8 19.8 0 0 1 5.82-2.39 19.6 19.6 0 0 1 5.84-.45 8.5 8.5 0 0 0 1.93 2.11 7.2 7.2 0 0 0 2.85 1.19 4.5 4.5 0 0 0 1.06-.11c2.06 2.29 3.17 4.58 2.5 8.18-.57 2.43-5.66 5.32-16.22 3.92" style="opacity:.30000000000000004"/><path d="M376.16 365.21a45 45 0 0 0 6.84 8.19c1.51 3.29.68 4-.67 2.81s-4.8-8-7.79-13.6c.54.9 1.09 1.78 1.62 2.6m-22.52-9.44a7.42 7.42 0 0 1-2.48-4.39c.12-.34.23-.65.31-.92.44-1.55.33-2.53 1.58-2.44l.23 2.37c.6 3.95 1.4 3.83 2.64 5a27.2 27.2 0 0 1 3.23 4.52c3.08 5.09 3.55 7.33 6.92 11.68s6.72 6.21 6.39 7-1.88 1.41-5.15-1.52-7.05-9.53-8.52-13-3.31-6.83-5.15-8.3" style="fill:#37474f"/><path d="M370.46 378.36a.54.54 0 0 1-.46-.25.54.54 0 0 1 .16-.75 18.94 18.94 0 0 1 12.27-2.77.55.55 0 0 1 .5.59.56.56 0 0 1-.59.5 17.9 17.9 0 0 0-11.59 2.59.5.5 0 0 1-.29.09m-2.7-3.74a.55.55 0 0 1-.48-.26.56.56 0 0 1 .18-.77 20.8 20.8 0 0 1 12.93-2.75.55.55 0 0 1 .51.6.57.57 0 0 1-.61.51 19.75 19.75 0 0 0-12.24 2.59.5.5 0 0 1-.29.08m-3.59-3.51a.61.61 0 0 1-.52-.3.6.6 0 0 1 .2-.84 23 23 0 0 1 14.25-3 .62.62 0 0 1-.1 1.23 21.8 21.8 0 0 0-13.51 2.8.6.6 0 0 1-.32.11m-2.48-3.57a.6.6 0 0 1-.32-1.12 22.48 22.48 0 0 1 14-3 .61.61 0 0 1 .55.66.6.6 0 0 1-.66.55 21.28 21.28 0 0 0-13.24 2.8.56.56 0 0 1-.33.11m-1.8-4.08a.63.63 0 0 1-.52-.29.61.61 0 0 1 .2-.83 22.48 22.48 0 0 1 14-3 .61.61 0 1 1-.11 1.21 21.28 21.28 0 0 0-13.24 2.8.6.6 0 0 1-.33.11" style="fill:#ebebeb"/><path d="M361.16 319.51c.07 3.46-1.43 56.11-1.38 57.67a44 44 0 0 0 1 8.11 18.3 18.3 0 0 0 1.12 3.35c.5 1.23 1.47 2.92.86 4.1a4.9 4.9 0 0 1-1.2 1.43 11 11 0 0 1-7.76 2.47 8.24 8.24 0 0 1-4.17-1.28c-2.45-1.68-3.37-4.66-4.65-7.18-1.39-2.74-.52-4.14-.7-7.1-.2-3.31-9.94-54.05-10.58-57.3 5.39-6 20.78-6.1 27.46-4.27" style="fill:#ffa8a7"/><path d="M344.3 229.34c11.08-9.41 19.43-20.94 21.78-36.58l-66.72-.69c-1.95 9-5.37 18.61-3.53 31.08.46 3.1 1.42 10.67 3.75 15.52 8.94 18.66 21.77 41.18 32.32 60-.15 3.62-2.51 6.48-.13 21.24 1.15 7.1 3.85 17.65 6.15 26.19 5.66 4 20.73 1.34 22.78-1.58.37-12.78 1.82-30.89.91-46.31-.61-11.33-17.31-68.87-17.31-68.87" style="fill:#10b981"/><path d="M340.8 393.7a9 9 0 0 0 .33 3.58c.3 1.23 4.22 4.49 5.51 6.57s1.41 2.89 2.84 5.71c1.59 3.13 2.25 6.85 10.24 10.58s13.68 2.95 17.67 2.09 5.38-2.69 5.38-2.69 1.81-4.6-.69-5.92-41.28-19.92-41.28-19.92" style="fill:#263238"/><path d="M363 384.65c.56.67.73 2.47.92 3.31.65 2.83 2.53 5.56 4.22 7.87 8 11 16.62 11.61 15.5 20.28-.42 2.42-5.34 5.6-16 4.81-5.43-.4-13.25-4.92-15.33-8.57s-2.81-6.72-4.52-9.41-6.25-6.21-7.06-9.24a12.4 12.4 0 0 1 .14-5.49c.28-1.46 1.4-4.2 1.73-5.66s.18-2.55 1.44-2.54l.36 2.36c.83 3.9 1.62 3.74 2.93 4.86a26.3 26.3 0 0 1 3.48 4.33c-.43-2.65-1.34-4.38.12-5.51s3.29-1.58 6.85-1.87 4.75-.18 5.22.47" style="fill:#10b981"/><path d="M363 384.65c.56.67.73 2.47.92 3.31.65 2.83 2.53 5.56 4.22 7.87 8 11 16.62 11.61 15.5 20.28-.42 2.42-5.34 5.6-16 4.81-5.43-.4-13.25-4.92-15.33-8.57s-2.81-6.72-4.52-9.41-6.25-6.21-7.06-9.24a12.4 12.4 0 0 1 .14-5.49c.28-1.46 1.4-4.2 1.73-5.66s.18-2.55 1.44-2.54l.36 2.36c.83 3.9 1.62 3.74 2.93 4.86a26.3 26.3 0 0 1 3.48 4.33c-.43-2.65-1.34-4.38.12-5.51s3.29-1.58 6.85-1.87 4.75-.18 5.22.47" style="opacity:.4"/><path d="M367.71 420.92c-5.43-.4-13.25-4.92-15.33-8.57a35 35 0 0 1-1.83-3.74c.16.23.31.47.45.65q.5.62 1 1.2a12.13 12.13 0 0 0 5 3.54c1.74.56 6 2.07 7.57.47.89-.91.69-2.54 0-3.85-.31-.56-1.28-1.9-1.28-1.9a19.6 19.6 0 0 1 11.48-3.51 8.7 8.7 0 0 0 2.05 2 7 7 0 0 0 2.92 1 4.4 4.4 0 0 0 1-.16c2.18 2.16 3.43 4.38 3 8-.49 2.48-5.41 5.66-16.03 4.87" style="opacity:.30000000000000004"/><path d="M368.17 395.83a44.7 44.7 0 0 0 7.34 7.78c1.7 3.2.9 3.92-.5 2.85s-5.27-7.76-8.58-13.13c.57.87 1.16 1.67 1.74 2.5m-23.02-8.11a7.4 7.4 0 0 1-2.74-4.24c.1-.34.2-.66.26-.93.35-1.58.18-2.55 1.44-2.54l.36 2.36c.83 3.9 1.62 3.74 2.93 4.86a26.3 26.3 0 0 1 3.48 4.33c3.38 4.89 4 7.11 7.59 11.25s7.08 5.81 6.79 6.59-1.8 1.51-5.23-1.22-7.59-9.11-9.26-12.46-3.71-6.64-5.62-8" style="fill:#37474f"/><path d="M363.23 409.3a.55.55 0 0 0 .3-.11 17.93 17.93 0 0 1 11.47-3.27.54.54 0 0 0 .56-.52.56.56 0 0 0-.53-.57 18.92 18.92 0 0 0-12.09 3.48.54.54 0 0 0-.12.76.55.55 0 0 0 .41.23m-2.91-3.58a.5.5 0 0 0 .3-.1 19.75 19.75 0 0 1 12.07-3.3.54.54 0 0 0 .58-.54.57.57 0 0 0-.55-.58 20.87 20.87 0 0 0-12.72 3.5.56.56 0 0 0 .34 1Zm-3.78-3.3a.6.6 0 0 0 .33-.11 21.7 21.7 0 0 1 13.31-3.63.62.62 0 0 0 0-1.24 23 23 0 0 0-14 3.86.61.61 0 0 0-.15.86.6.6 0 0 0 .51.26m-2.69-3.42a.56.56 0 0 0 .32-.11 21.28 21.28 0 0 1 13.06-3.56.62.62 0 0 0 .62-.59.61.61 0 0 0-.59-.62 22.47 22.47 0 0 0-13.78 3.78.61.61 0 0 0-.15.84.59.59 0 0 0 .52.26m-2.03-4a.56.56 0 0 0 .32-.11 21.25 21.25 0 0 1 13.05-3.56.61.61 0 0 0 .62-.59.6.6 0 0 0-.59-.62 22.5 22.5 0 0 0-13.77 3.78.6.6 0 0 0-.16.84.61.61 0 0 0 .53.26" style="fill:#ebebeb"/><path d="M309.25 66.08c-6.45 2.17-8.79 9.72-9.82 22.84-.8 10.23-5.39 46.72-8.09 58.22s23.32 13.79 41.45 13.79 27.69-5.19 25.25-17.7-14.62-75.82-14.62-75.82Z" style="fill:#37474f"/><path d="M393.3 123.45c.68-1.48.43-5.32.44-8.4s.45-6.38-.18-8.39c-.78-2.48-1.56-4.48 1.25-3.31s3.74 5.23 4.55 7.21c.46 1.13.85 2.13 1.95 1.16a30 30 0 0 0 4.52-6.56c1.33-2.52 1.25-5.33 2.35-6.65s1.46-1.07 1.75-.81.88 3.57.22 6.67-2.46 5.24-2 5.43a1.2 1.2 0 0 0 .77 0c.6-.17 2.57-4.12 3.75-6.5C414 100.46 415 97.81 416 97s2.27-1.18 2.27-.24a32 32 0 0 1-1.57 6.63c-.68 1.78-3.94 6.46-3.5 6.69a1 1 0 0 0 .83-.13c1-.74 2.4-3.32 3.52-4.77 1.41-1.82 2.41-3.57 3.27-4.49 1.25-1.35 2-.29 1.9.25-.27 2.48-2.52 6.71-4.45 9.32-1.62 2.18-1.21 3-.67 3.2s-6.75 4.69-6.75 4.69Z" style="fill:#f28f8f"/><path d="M425.37 104.63c-2.18.63-5.63 7.1-9.1 8.78-4 1.39-13 .86-17.76 3.15s-4.45 4-6.09 8.43c-2.06 5.13-7.32 15.18-11.25 23.5s-21.25-24.11-25.57-27.81-8.14-5.31-13.39-4.39l7.08 33.2s14.44 11.88 26.62 21.26c10.27 7.91 15.35 6.15 19.26-2.87a29 29 0 0 0 1.05-2.69c3.57-10.43 5.63-21.14 8.88-33.91 0 0 1.08-5.14 2.87-7.17 2-2.29 10.32-5.3 12.21-7.06s3.56-4.68 5.43-7.86c1.05-1.79 2-3.06 2-4.07-.05-.62-1.28-.76-2.24-.49" style="fill:#ffa8a7"/><path d="M381.17 148.49a46.7 46.7 0 0 0-3.17 14.16s-1.89-5.37 1.36-16.15Z" style="fill:#f28f8f"/><path d="M387.83 87.38c0-3.19 2.19-6.37 6.57-8.81 8.77-4.88 23-4.89 31.78 0 4.39 2.42 6.59 5.6 6.6 8.79h2c0-3.62-2.4-7.24-7.18-10-9.57-5.51-25.08-5.49-34.64 0-4.78 2.76-7.16 6.39-7.16 10h2Z" style="fill:#fafafa"/><path d="M426.18 78.53c-8.78-4.85-23-4.84-31.78 0-4.38 2.44-6.57 5.62-6.57 8.81s2.2 6.37 6.6 8.8c8.78 4.84 23 4.83 31.78-.05 4.38-2.44 6.57-5.62 6.57-8.81s-2.21-6.28-6.6-8.75" style="fill:#e0e0e0"/><path d="M422.07 80.62c4.53.13 3.58-4.62 6.16-6.43 0 0-1.88-.84-4.43.84a4.25 4.25 0 0 0-1.73 5.59" style="fill:#10b981"/><path d="M422.07 80.62c4.53.13 3.58-4.62 6.16-6.43 0 0-1.88-.84-4.43.84a4.25 4.25 0 0 0-1.73 5.59" style="opacity:.4"/><path d="M422.31 80.86c2.68-3.66-1.77-5.57-1.8-8.73 0 0-1.75 1.08-1.82 4.13a4.26 4.26 0 0 0 3.62 4.6" style="fill:#10b981"/><path d="M422.31 80.86c2.68-3.66-1.77-5.57-1.8-8.73 0 0-1.75 1.08-1.82 4.13a4.26 4.26 0 0 0 3.62 4.6" style="opacity:.30000000000000004"/><path d="M434.6 83.67a3.05 3.05 0 0 1 .3 1.79 2.34 2.34 0 0 1-1.12 1.16 5.5 5.5 0 0 0-1.64 1.16c-.64.84-.49 2-.73 3a3.89 3.89 0 0 1-3 2.82 8.8 8.8 0 0 1-2.45.26c-1 0-1.89.21-2.84.31a1.85 1.85 0 0 0-1.66 1.16c0-.09-.82-1-.9-1.24a4.06 4.06 0 0 1-.46-2.16 8.4 8.4 0 0 0 .22-2.28c-.12-.74-.59-1.4-.71-2.14a2.49 2.49 0 0 1 1.09-2.46c.62-.39 1.41-.51 1.91-1a2.75 2.75 0 0 0 .54-2 5.4 5.4 0 0 1 .15-2.09 3.2 3.2 0 0 1 2-1.71c.84-.31 1.74-.42 2.61-.66a4.24 4.24 0 0 0 2.09-1.2 3.85 3.85 0 0 1 1.66-1.39 2.37 2.37 0 0 1 3 1.62 3.9 3.9 0 0 1-.11 2.52 4.75 4.75 0 0 0-.71 2 6.7 6.7 0 0 0 .76 2.53" style="fill:#10b981"/><path d="M434.6 83.67a3.05 3.05 0 0 1 .3 1.79 2.34 2.34 0 0 1-1.12 1.16 5.5 5.5 0 0 0-1.64 1.16c-.64.84-.49 2-.73 3a3.89 3.89 0 0 1-3 2.82 8.8 8.8 0 0 1-2.45.26c-1 0-1.89.21-2.84.31a1.85 1.85 0 0 0-1.66 1.16c0-.09-.82-1-.9-1.24a4.06 4.06 0 0 1-.46-2.16 8.4 8.4 0 0 0 .22-2.28c-.12-.74-.59-1.4-.71-2.14a2.49 2.49 0 0 1 1.09-2.46c.62-.39 1.41-.51 1.91-1a2.75 2.75 0 0 0 .54-2 5.4 5.4 0 0 1 .15-2.09 3.2 3.2 0 0 1 2-1.71c.84-.31 1.74-.42 2.61-.66a4.24 4.24 0 0 0 2.09-1.2 3.85 3.85 0 0 1 1.66-1.39 2.37 2.37 0 0 1 3 1.62 3.9 3.9 0 0 1-.11 2.52 4.75 4.75 0 0 0-.71 2 6.7 6.7 0 0 0 .76 2.53" style="opacity:.15"/><path d="M432.32 77.17c-1.64 1.75-11.18 13.51-10.81 18.19 0 0-1-2.55 3.19-8.92a60.4 60.4 0 0 1 7.62-9.27" style="fill:#fafafa"/><path d="M424 94.71c1.72-1.45 1.57-4.19.37-5.94a5.7 5.7 0 0 1-1.37-2.26c-.14-1 .57-1.93.83-2.92a3.57 3.57 0 0 0-2.54-4.2c-1-.22-2.08-.07-2.81-.71s-.72-1.41-1.06-2.13a3.45 3.45 0 0 0-6.29.07 9.6 9.6 0 0 0-.49 3 5 5 0 0 1-1.18 2.87 3.12 3.12 0 0 0-1 2.38 3.83 3.83 0 0 0 1.32 2.44c.8.69 1.9.87 2.61 1.72s.89 2.17 1.67 3a4.19 4.19 0 0 0 3.38 1 26 26 0 0 1 3.64-.28 3.21 3.21 0 0 1 2.92 1.96" style="fill:#10b981"/><path d="M413.91 76.5c2.08 2.49 1.63 6.12 2.93 9.11s7.52 5.33 7.12 9.1c1-4.53-4.53-5.64-6.43-9.58-1.24-2.56-1.21-6.57-3.62-8.63" style="fill:#fafafa"/><path d="M412.63 99.06c-.72-2.12.82-4.4 2.75-5.28a5.75 5.75 0 0 0 2.29-1.26c.64-.8.51-2 .8-2.93a3.55 3.55 0 0 1 4.34-2.29c.93.3 1.81 1 2.77.83.79-.14 1.34-.84 2-1.28a3.46 3.46 0 0 1 5.36 3.3A9.6 9.6 0 0 1 431.8 93a5.1 5.1 0 0 0-.47 3.07 3.06 3.06 0 0 1-.34 2.57 3.82 3.82 0 0 1-2.39 1.41c-1 .18-2.08-.23-3.12.13s-1.88 1.4-3 1.73a4.18 4.18 0 0 1-3.44-.84 25.5 25.5 0 0 0-3-2.11 3.23 3.23 0 0 0-3.41.1" style="fill:#10b981"/><path d="M412.63 99.06c-.72-2.12.82-4.4 2.75-5.28a5.75 5.75 0 0 0 2.29-1.26c.64-.8.51-2 .8-2.93a3.55 3.55 0 0 1 4.34-2.29c.93.3 1.81 1 2.77.83.79-.14 1.34-.84 2-1.28a3.46 3.46 0 0 1 5.36 3.3A9.6 9.6 0 0 1 431.8 93a5.1 5.1 0 0 0-.47 3.07 3.06 3.06 0 0 1-.34 2.57 3.82 3.82 0 0 1-2.39 1.41c-1 .18-2.08-.23-3.12.13s-1.88 1.4-3 1.73a4.18 4.18 0 0 1-3.44-.84 25.5 25.5 0 0 0-3-2.11 3.23 3.23 0 0 0-3.41.1" style="fill:#10b981"/><path d="M412.63 99.06c-.72-2.12.82-4.4 2.75-5.28a5.75 5.75 0 0 0 2.29-1.26c.64-.8.51-2 .8-2.93a3.55 3.55 0 0 1 4.34-2.29c.93.3 1.81 1 2.77.83.79-.14 1.34-.84 2-1.28a3.46 3.46 0 0 1 5.36 3.3A9.6 9.6 0 0 1 431.8 93a5.1 5.1 0 0 0-.47 3.07 3.06 3.06 0 0 1-.34 2.57 3.82 3.82 0 0 1-2.39 1.41c-1 .18-2.08-.23-3.12.13s-1.88 1.4-3 1.73a4.18 4.18 0 0 1-3.44-.84 25.5 25.5 0 0 0-3-2.11 3.23 3.23 0 0 0-3.41.1" style="fill:#fff;opacity:.35000000000000003"/><path d="M430.63 88.62c-3.07 1.06-4.55 4.41-7.2 6.3s-9.19.7-10.8 4.14c1.45-4.42 6.8-2.51 10.45-4.9 2.38-1.56 4.42-5.01 7.55-5.54" style="fill:#fafafa"/><path d="M404.06 91.56c1.17-.31 2.51-.13 3.51-.91a3.24 3.24 0 0 0 1.12-1.9 9.5 9.5 0 0 1 .32-2.2c.36-.75 1.15-.88 1.77-1.33a4.5 4.5 0 0 0 1.43-1.73 5.14 5.14 0 0 0-.43-4.43 4.74 4.74 0 0 1-.54-2.65 15 15 0 0 0 .12-2.33c-.2-2.31-2.71-3.36-4.78-3a5 5 0 0 0-3.78 3.44 5.45 5.45 0 0 1-.89 2.39c-.57.6-1.49.71-2.22 1.13a3 3 0 0 0-1.3 3.56c.4 1.07 1.42 1.93 1.45 3.07a5.2 5.2 0 0 1-.71 2.1c-.56 1.25-.06 2.31.56 3.43A12.7 12.7 0 0 0 402 93a3.07 3.07 0 0 1 2.06-1.44" style="fill:#10b981"/><path d="M404.06 91.56c1.17-.31 2.51-.13 3.51-.91a3.24 3.24 0 0 0 1.12-1.9 9.5 9.5 0 0 1 .32-2.2c.36-.75 1.15-.88 1.77-1.33a4.5 4.5 0 0 0 1.43-1.73 5.14 5.14 0 0 0-.43-4.43 4.74 4.74 0 0 1-.54-2.65 15 15 0 0 0 .12-2.33c-.2-2.31-2.71-3.36-4.78-3a5 5 0 0 0-3.78 3.44 5.45 5.45 0 0 1-.89 2.39c-.57.6-1.49.71-2.22 1.13a3 3 0 0 0-1.3 3.56c.4 1.07 1.42 1.93 1.45 3.07a5.2 5.2 0 0 1-.71 2.1c-.56 1.25-.06 2.31.56 3.43A12.7 12.7 0 0 0 402 93a3.07 3.07 0 0 1 2.06-1.44" style="opacity:.2"/><path d="M407.74 72.71c-3.19 2.57-7.48 13-5.77 20.27-.35-4.09.7-13.33 5.77-20.27" style="fill:#fafafa"/><path d="M386.13 83.59a3 3 0 0 0-.2 1.8 2.3 2.3 0 0 0 1.18 1.1 5.5 5.5 0 0 1 1.7 1.07c.68.8.59 2 .89 3a3.9 3.9 0 0 0 3.09 2.67 9.3 9.3 0 0 0 2.47.12c1 0 1.89.11 2.85.16a1.84 1.84 0 0 1 1.72 1.07c0-.09.76-1.09.83-1.29a4.1 4.1 0 0 0 .35-2.18 8 8 0 0 1-.34-2.26c.08-.75.5-1.43.59-2.18a2.49 2.49 0 0 0-1.23-2.4c-.63-.36-1.43-.43-2-.94a2.76 2.76 0 0 1-.64-2 5.5 5.5 0 0 0-.26-2.07 3.2 3.2 0 0 0-2.07-1.6c-.85-.26-1.76-.32-2.63-.52a4.17 4.17 0 0 1-2.13-1.1 4 4 0 0 0-1.73-1.26 2.39 2.39 0 0 0-2.95 1.78 3.87 3.87 0 0 0 .25 2.51 5 5 0 0 1 .82 2 6.8 6.8 0 0 1-.56 2.52" style="fill:#10b981"/><path d="M386.13 83.59a3 3 0 0 0-.2 1.8 2.3 2.3 0 0 0 1.18 1.1 5.5 5.5 0 0 1 1.7 1.07c.68.8.59 2 .89 3a3.9 3.9 0 0 0 3.09 2.67 9.3 9.3 0 0 0 2.47.12c1 0 1.89.11 2.85.16a1.84 1.84 0 0 1 1.72 1.07c0-.09.76-1.09.83-1.29a4.1 4.1 0 0 0 .35-2.18 8 8 0 0 1-.34-2.26c.08-.75.5-1.43.59-2.18a2.49 2.49 0 0 0-1.23-2.4c-.63-.36-1.43-.43-2-.94a2.76 2.76 0 0 1-.64-2 5.5 5.5 0 0 0-.26-2.07 3.2 3.2 0 0 0-2.07-1.6c-.85-.26-1.76-.32-2.63-.52a4.17 4.17 0 0 1-2.13-1.1 4 4 0 0 0-1.73-1.26 2.39 2.39 0 0 0-2.95 1.78 3.87 3.87 0 0 0 .25 2.51 5 5 0 0 1 .82 2 6.8 6.8 0 0 1-.56 2.52" style="fill:#fff;opacity:.35000000000000003"/><path d="M388.06 77c1.8 1.51 11.89 12.9 11.77 17.59 0 0 .82-2.6-3.66-8.73a61 61 0 0 0-8.11-8.86" style="fill:#fafafa"/><path d="M389.6 96.53c.74.56 1.21 1.41 2 2a3.12 3.12 0 0 0 2.63.47 9 9 0 0 1 2-.62c1.1 0 2 .89 2.93 1.4a4.21 4.21 0 0 0 3.57.15c.51-.22 1-.54 1.49-.8a2.83 2.83 0 0 1 1.62-.39 1.53 1.53 0 0 1 1 .52c0 .05.58.79.57.81a4.3 4.3 0 0 0-1.73-5.53 7.4 7.4 0 0 1-1.34-.7 3.5 3.5 0 0 1-.92-1.3 24 24 0 0 0-1-2.48 2.32 2.32 0 0 0-2.17-1.29c-.87.14-1.47 1-2.3 1.23a2.92 2.92 0 0 1-2.17-.32c-.66-.34-1.26-.8-1.93-1.14a2.9 2.9 0 0 0-2.17-.28c-1 .35-1.49 1.39-2.29 2.06s-1.57.85-2.11 1.55a2.28 2.28 0 0 0 .07 2.73 8.8 8.8 0 0 0 2.25 1.93" style="fill:#10b981"/><path d="M391.61 93.25c3.4-1.34 14.67.57 15.72 6.77.56-5.72-12.03-9.25-15.72-6.77" style="fill:#fafafa"/><path d="M415.13 100.63c-1.68 1.09-4.25 1.05-5.23 3-1-1.61-2.88-2.1-4.23-3.31a2.46 2.46 0 0 1-.93-1.47c-.12-1.16 1.21-2.09 1.1-3.25s-1.49-1.75-1.72-2.86a2.15 2.15 0 0 1 .6-1.8 8.8 8.8 0 0 1 1.54-1.21 4.2 4.2 0 0 0 1.36-1.38 20 20 0 0 0 .63-2.31c.73-2 4.44-3.4 5.66-1.07.6 1.12-.2 2.6 1.12 3.25a7.5 7.5 0 0 1 1.55.71 2.63 2.63 0 0 1 .67 2.54 6 6 0 0 1-1.25 2.76c-.37.46-.83 1-.67 1.54.11.38.47.62.74.91 1.18 1.24.29 3.15-.94 3.95" style="fill:#10b981"/><path d="M415.13 100.63c-1.68 1.09-4.25 1.05-5.23 3-1-1.61-2.88-2.1-4.23-3.31a2.46 2.46 0 0 1-.93-1.47c-.12-1.16 1.21-2.09 1.1-3.25s-1.49-1.75-1.72-2.86a2.15 2.15 0 0 1 .6-1.8 8.8 8.8 0 0 1 1.54-1.21 4.2 4.2 0 0 0 1.36-1.38 20 20 0 0 0 .63-2.31c.73-2 4.44-3.4 5.66-1.07.6 1.12-.2 2.6 1.12 3.25a7.5 7.5 0 0 1 1.55.71 2.63 2.63 0 0 1 .67 2.54 6 6 0 0 1-1.25 2.76c-.37.46-.83 1-.67 1.54.11.38.47.62.74.91 1.18 1.24.29 3.15-.94 3.95" style="opacity:.1"/><path d="M411.6 84.64c-1.35 2.11-4.32 13.45-1.7 19-.84-5.23-.48-11.54 1.7-19" style="fill:#fafafa"/><path d="M434.79 87.32c0 3.61-2.38 7.24-7.16 10-9.55 5.54-25.06 5.56-34.63.05-4.78-2.75-7.18-6.37-7.19-10 0 13.52 11 21.29 24.53 21.27s24.47-7.82 24.45-21.34Z" style="fill:#ebebeb"/><path d="M393 97.37c9.57 5.51 25.08 5.49 34.63-.05 4.78-2.76 7.17-6.39 7.16-10h-2c0 3.19-2.19 6.37-6.57 8.81-8.77 4.88-23 4.89-31.78.05-4.4-2.43-6.59-5.61-6.6-8.8h-2c-.02 3.62 2.38 7.24 7.16 9.99" style="fill:#fafafa"/><path d="M406.59 91a2.12 2.12 0 1 1-2.95-1.19 2.27 2.27 0 0 1 2.95 1.19" style="fill:#455a64"/><path d="M405.79 94.06a2.15 2.15 0 0 0 1-2.34 1.54 1.54 0 0 1-1.68 1.66 2.68 2.68 0 0 1-2.56-2.13 2.6 2.6 0 0 0 .24 1.62 2.27 2.27 0 0 0 3 1.19" style="fill:#37474f"/><path d="M403.91 90a.52.52 0 0 0-.29.34.47.47 0 0 0 .22.44 2.6 2.6 0 0 0 .49.19 4 4 0 0 1 1.45.79.4.4 0 0 0 .28.13c.15 0 .19-.23.18-.38a2.06 2.06 0 0 0-.84-1.51 1.39 1.39 0 0 0-1.49 0" style="fill:#fff;opacity:.1"/><path d="M403.9 90.34c0 .07.08.11.14.14a2 2 0 0 0 .84.21.24.24 0 0 0 .27-.34.65.65 0 0 0-.62-.38c-.17.03-.67.13-.63.37" style="fill:#fff;opacity:.15"/><path d="M424.84 86.51a2.12 2.12 0 1 1-1.12-3 2.27 2.27 0 0 1 1.12 3" style="fill:#455a64"/><path d="M422 88a2.14 2.14 0 0 0 2.43-.81 1.54 1.54 0 0 1-2.36-.11 2.66 2.66 0 0 1-.15-3.33 2.6 2.6 0 0 0-1 1.27A2.27 2.27 0 0 0 422 88" style="fill:#37474f"/><path d="M423.77 83.86a.52.52 0 0 0-.44 0 .47.47 0 0 0-.18.46 1.7 1.7 0 0 0 .19.48 4.1 4.1 0 0 1 .39 1.62.4.4 0 0 0 .1.28c.12.1.29 0 .4-.12a2.07 2.07 0 0 0 .49-1.59 1.39 1.39 0 0 0-.95-1.13" style="fill:#fff;opacity:.1"/><path d="M423.49 84.09a.26.26 0 0 0 0 .21 2 2 0 0 0 .41.76.4.4 0 0 0 .14.11.25.25 0 0 0 .29-.15.63.63 0 0 0-.13-.71c-.12-.13-.56-.41-.71-.22" style="fill:#fff;opacity:.15"/><path d="M391.07 90.52c-4.31 1.4-4.74-3.42-7.73-4.44 0 0 1.57-1.33 4.49-.44a4.26 4.26 0 0 1 3.24 4.88" style="fill:#10b981"/><path d="M391.07 90.52c-4.31 1.4-4.74-3.42-7.73-4.44 0 0 1.57-1.33 4.49-.44a4.26 4.26 0 0 1 3.24 4.88" style="opacity:.30000000000000004"/><path d="M431.4 91.44c4.47.75 4.19-4.08 7-5.52 0 0-1.75-1.09-4.51.22a4.26 4.26 0 0 0-2.49 5.3" style="fill:#10b981"/><path d="M431.4 91.44c4.47.75 4.19-4.08 7-5.52 0 0-1.75-1.09-4.51.22a4.26 4.26 0 0 0-2.49 5.3" style="opacity:.30000000000000004"/><path d="M416.85 91.92c-3.66-.47-2.29-4.17-4.14-6a4 4 0 0 1 3.46 1.24 3.47 3.47 0 0 1 .68 4.76" style="fill:#10b981"/><path d="M416.85 91.92c-3.66-.47-2.29-4.17-4.14-6a4 4 0 0 1 3.46 1.24 3.47 3.47 0 0 1 .68 4.76" style="opacity:.30000000000000004"/><path d="M398.36 81.88c-3.73-1.44-1.34-5-2.83-7.33a4.29 4.29 0 0 1 3.32 2.19 3.75 3.75 0 0 1-.49 5.14" style="fill:#10b981"/><path d="M398.36 81.88c-3.73-1.44-1.34-5-2.83-7.33a4.29 4.29 0 0 1 3.32 2.19 3.75 3.75 0 0 1-.49 5.14" style="opacity:.30000000000000004"/><path d="M406.17 98.65c-2.4 3.85-5.83.44-8.77 1.6 0 0 .34-2 3.15-3.24a4.27 4.27 0 0 1 5.62 1.64" style="fill:#10b981"/><path d="M406.17 98.65c-2.4 3.85-5.83.44-8.77 1.6 0 0 .34-2 3.15-3.24a4.27 4.27 0 0 1 5.62 1.64" style="opacity:.4"/><path d="M406.45 99.62c-4.53.21-3.68-4.55-6.29-6.32 0 0 1.86-.87 4.45.76a4.27 4.27 0 0 1 1.84 5.56" style="fill:#10b981"/><path d="M406.45 99.62c-4.53.21-3.68-4.55-6.29-6.32 0 0 1.86-.87 4.45.76a4.27 4.27 0 0 1 1.84 5.56" style="opacity:.30000000000000004"/><path d="M419.21 92.74a1.62 1.62 0 1 1-.86-2.29 1.74 1.74 0 0 1 .86 2.29" style="fill:#455a64"/><path d="M417.05 93.88a1.65 1.65 0 0 0 1.86-.62 1.18 1.18 0 0 1-1.8-.09 2 2 0 0 1-.12-2.55 2 2 0 0 0-.79 1 1.74 1.74 0 0 0 .85 2.26" style="fill:#37474f"/><path d="M418.39 90.71a.37.37 0 0 0-.34 0 .35.35 0 0 0-.13.35 1.3 1.3 0 0 0 .14.37 3.1 3.1 0 0 1 .3 1.23c0 .08 0 .18.08.22s.22 0 .3-.09a1.58 1.58 0 0 0 .38-1.22 1.07 1.07 0 0 0-.73-.86" style="fill:#fff;opacity:.1"/><path d="M418.18 90.89a.14.14 0 0 0 0 .15 1.6 1.6 0 0 0 .31.59.3.3 0 0 0 .11.08.21.21 0 0 0 .23-.11.5.5 0 0 0-.11-.55c-.1-.05-.43-.31-.54-.16" style="fill:#fff;opacity:.15"/><path d="M399.53 81.31A1.74 1.74 0 1 1 397 82a1.85 1.85 0 0 1 2.53-.69" style="fill:#455a64"/><path d="M400.48 83.74a1.76 1.76 0 0 0-.43-2 1.27 1.27 0 0 1-.32 1.91 2.18 2.18 0 0 1-2.72-.18 2.17 2.17 0 0 0 .94 1 1.86 1.86 0 0 0 2.53-.73" style="fill:#37474f"/><path d="M397.27 81.93a.48.48 0 0 0 0 .37.37.37 0 0 0 .36.18 1.5 1.5 0 0 0 .41-.1 3.4 3.4 0 0 1 1.35-.18.3.3 0 0 0 .24 0c.09-.09 0-.24-.06-.33a1.7 1.7 0 0 0-1.25-.55 1.13 1.13 0 0 0-1.05.61" style="fill:#fff;opacity:.1"/><path d="M397.44 82.19a.18.18 0 0 0 .16 0 1.7 1.7 0 0 0 .66-.26.27.27 0 0 0 .1-.11.22.22 0 0 0-.09-.25.51.51 0 0 0-.59 0c-.12.15-.38.48-.24.62" style="fill:#fff;opacity:.15"/><path d="m305.36 119.82 16.19-3 20.66-.55c3-.13 13.93 8.52 21.48 19 4.19 5.84 5.19 14.73-3.3 24 .21 2.2-.93 15.07-1.24 17.5l8.64 20.12c-6.14 15.51-54.09 21.6-72.47 8.33 1.81-10.21 9-24.23 11.54-31.49-.7-3-3.21-12.6-4.4-16.75-2.55-8.92-3.49-24.85-3.06-27.53.95-5.92 5.96-9.63 5.96-9.63" style="fill:#10b981"/><path d="m305.36 119.82 16.19-3 20.66-.55c3-.13 13.93 8.52 21.48 19 4.19 5.84 5.19 14.73-3.3 24 .21 2.2-.93 15.07-1.24 17.5l8.64 20.12c-6.14 15.51-54.09 21.6-72.47 8.33 1.81-10.21 9-24.23 11.54-31.49-.7-3-3.21-12.6-4.4-16.75-2.55-8.92-3.49-24.85-3.06-27.53.95-5.92 5.96-9.63 5.96-9.63" style="fill:#fff;opacity:.65"/><path d="M317.75 107.28c.32-1.38-2.34-6.6-3.88-8.74-4.6-6.37-6.92-8.12-8.7-16.06a18.63 18.63 0 0 1 4.07-16.4c3.46-12.2 17.47-13.44 28.16-11.26 8.79 1.8 18.63 9.12 17.57 20Z" style="fill:#37474f"/><path d="M344.69 64.2c5.12 2.58 9.65 6.28 9.31 24.9-.26 14.35-4.49 18-6.8 19.11s-6 1.47-10.44.86v8.75s13.12 12.25 8.68 20.73c-21.66-6.75-27.3-20.41-27.3-20.41l-.73-21a4.91 4.91 0 0 1-5.8.18c-5-3-5.06-9.39-2.33-12.32a5.24 5.24 0 0 1 8.71 1.2s-2.08-13.68 5.56-19.34c8.95-6.65 15.14-5.69 21.14-2.66" style="fill:#ffa8a7"/><path d="M335.8 97a3.61 3.61 0 0 0 7.1 1.26Z" style="fill:#b16668"/><path d="M339.82 101.15a3.06 3.06 0 0 0-3.06-3 3 3 0 0 0-.94.17 3.59 3.59 0 0 0 2.9 2.84 3.4 3.4 0 0 0 1.1-.01" style="fill:#f28f8f"/><circle cx="333.68" cy="84.77" r="1.93" style="fill:#263238"/><path d="M349.89 83.82A1.93 1.93 0 1 1 348 81.9a1.92 1.92 0 0 1 1.89 1.92" style="fill:#263238"/><path d="m340.75 81.9 1.1 11.2 6.69-1.56zm-3.99 27.17c-4-.69-12.84-2.83-16.63-9.68a14.46 14.46 0 0 0 3.22 6.89c3.83 4 13.41 6.16 13.41 6.16Z" style="fill:#f28f8f"/><path d="m333.6 78.05-4.2 3.27a2.8 2.8 0 0 1 .5-3.83 2.59 2.59 0 0 1 3.7.56m17.34 1.08-5-2a2.57 2.57 0 0 1 3.4-1.55 2.81 2.81 0 0 1 1.6 3.55" style="fill:#263238"/><path d="M339.89 69.6c-2.25.39-4.91-3.34-9.39-1.75-4.82 1.71-3.29 7.13-6.75 10.11-2.62 2.26 0 8.5-2.83 9.76-1.26.56-2.94-1.53-2.94-1.53s-2.42-3.63-1.84-12S327.82 60.32 335.83 60s15 6.75 16.31 12.45c0 0-2-4.62-5.76-5.2s-4.47 2-6.49 2.35" style="fill:#37474f"/><path d="M339.89 69.6c-3.23-4-10.91-5.12-15.91 2.06s-3.45 16.16-6.54 26.47-11.18 11.49-11.18 11.49 7.8-5.09 7.61-16.7-.16-20.7 7.41-26.84 17.4-4.08 18.61 3.52" style="fill:#455a64"/><path d="M339.89 69.6c.13-2.3 2.89-8 8.65-6.88 6.51 1.22 11.13 14.07 5.34 22.1 0 0 .58-13.13-5.92-17.63-4.54-3.19-8.07 2.41-8.07 2.41" style="fill:#455a64"/><path d="M305.36 119.82c-6.89.59-12.26 1.34-15.4 11.48s-11.38 43.95-10.85 51.56 22.12-11.36 22.12-11.36 7.7-27.55 7.7-27.93 1.97-15.27-3.57-23.75" style="fill:#f28f8f"/><path d="M313.45 143.93c1.27-1.93.89-12.44.25-14.63a32.3 32.3 0 0 1-1.11-7.43c-.08-2.41-1.11-4.53-2.23-4.78s-2-.07-2.17 1.57a19.1 19.1 0 0 1-1.67 6.78c-1.44 3.33-3 6.76-1.07 10.79s8 7.7 8 7.7" style="fill:#f28f8f"/><path d="m327.55 127.75 1.77 3.11a17 17 0 0 0 3.35-.54c5-1 5.3-1.76 5.3-1.76-2.88.67-8.24 1.32-10.42-.81" style="fill:#ebebeb"/><path d="m326.39 126.89 1.78 3.11a16.8 16.8 0 0 0 3.34-.54c5-1 5.31-1.76 5.31-1.76-2.88.67-8.25 1.3-10.43-.81" style="fill:#ebebeb"/><path d="m325.24 126 1.77 3.11a16 16 0 0 0 3.34-.54c5-1 5.31-1.76 5.31-1.76-2.88.7-8.24 1.35-10.42-.81" style="fill:#ebebeb"/><path d="M292 122.74c6.18-.41 28.3.78 31.32 1.65s3.36 2.11 5.48 4.17 7.54 1.47 10.42.8c0 0-.19 1-5.22 2-4.65.88-5.69-.08-7.3-1.63s-1.86-3.59-4.68-4.18-26.79-1.72-30.26-1.6-1.89-1.14.24-1.21" style="fill:#fafafa"/><path d="M307 131.22s3.49-3.3 5-4.44 4.83-1.72 6-2.73 1.4-2.74 0-3.21-6.19.51-7.66 1.09a17.5 17.5 0 0 0-5.26 3.25c-2.11 1.82-4.66 3.75-5 4.83-.48 1.32.19 3.6.54 4.84s1.32 5.61 1.84 8.09c.42 2 .71 3.05-.6 5.07-1.59 2.42-8.3 11.92-12.83 17.68-3.36 4.28-9.27 9.83-10.59 16.5s1.33 12.48 4.09 14.2 11.67 1.85 16.46-4.8c7-9.77 7.55-16.47 10.09-22.91s5.13-14 6.22-15.45c1.53-2 3.27-4.48 3-7.25-.32-3.6.27-5 2.17-7.72a26 26 0 0 0 2.75-4.09c.69-1.55.67-2.89 0-3.45s-1.47.22-1.47.22a1.94 1.94 0 0 0-.43-.9 5.2 5.2 0 0 0-1-1 4.2 4.2 0 0 0 .91-.9c.41-.56-.07-1.82-.48-2.37s-2.48-.53-3.4-.2-3.81 1.23-4.58 1.63-5.77 4.02-5.77 4.02" style="fill:#ffa8a7"/><path d="M321.24 128.18a1.3 1.3 0 0 0 .1-1 3.7 3.7 0 0 1-1.36 1.36c-1.13.78-4.63 2.29-6.36 3.75s-3.46 3.29-4.49 3.59c.77-.1 2.85-1.5 4.94-3.14a44.6 44.6 0 0 1 6.26-3.65 4.2 4.2 0 0 0 .91-.91m-1.16 4.94c-.54.66-3.53 3.08-4.6 4s-3 2.27-3 2.27a15 15 0 0 0 2.7-1.55 66 66 0 0 0 5-4.34 5.14 5.14 0 0 0 1.47-2.56 1.94 1.94 0 0 0-.43-.9c.32 1.16-.6 2.43-1.14 3.08" style="fill:#f28f8f"/><path d="M269.19 46.76a5.7 5.7 0 0 0-.84-.62c-1.07-.63-5.87-3.38-6.11-3.54-2.54-1.61-6.56-1.26-10.15.56-5.12 2.58-9.39 8.06-12.65 17.16 0 0-3.3-2.37-4.38-3-2.65-1.45-5.74-.74-9.23 1.53-3.94 2.55-6.62 5.87-9.06 10.9v.09a32.6 32.6 0 0 0-3.4 13.69c0 10.54 4.32 15.56 9.92 19.33 1.6 1.07 5.84 3.34 6.26 3.63a35.4 35.4 0 0 0 11.07 4.84l5.52 1.29 5.53-7.68a179 179 0 0 0 11.07-17.62c5.61-10.24 10-20.29 9.92-30.78-.1-4.54-1.38-7.87-3.47-9.78" style="fill:#10b981"/><path d="M269.19 46.76a5.7 5.7 0 0 0-.84-.62c-1.07-.63-5.87-3.38-6.11-3.54-2.54-1.61-6.56-1.26-10.15.56-5.12 2.58-9.39 8.06-12.65 17.16 0 0-3.3-2.37-4.38-3-2.65-1.45-5.74-.74-9.23 1.53-3.94 2.55-6.62 5.87-9.06 10.9v.09a32.6 32.6 0 0 0-3.4 13.69c0 10.54 4.32 15.56 9.92 19.33 1.6 1.07 5.84 3.34 6.26 3.63a35.4 35.4 0 0 0 11.07 4.84l5.52 1.29 5.53-7.68a179 179 0 0 0 11.07-17.62c5.61-10.24 10-20.29 9.92-30.78-.1-4.54-1.38-7.87-3.47-9.78" style="opacity:.30000000000000004"/><path d="M269.19 46.76a5.7 5.7 0 0 0-.84-.62c-1.07-.63-5.87-3.38-6.11-3.54-2.54-1.61-6.56-1.26-10.15.56-5.12 2.58-9.39 8.06-12.65 17.16 0 0-3.3-2.37-4.38-3-2.65-1.45-5.74-.74-9.23 1.53-3.94 2.55-6.62 5.87-9.06 10.9v.09l-.3.65 42 24.22c1.48-2.41 2.93-4.86 4.31-7.39 5.61-10.24 10-20.29 9.92-30.78-.14-4.54-1.42-7.87-3.51-9.78" style="fill:#10b981"/><path d="M269.19 46.76a5.7 5.7 0 0 0-.84-.62c-1.07-.63-5.87-3.38-6.11-3.54-2.54-1.61-6.56-1.26-10.15.56-5.12 2.58-9.39 8.06-12.65 17.16 0 0-3.3-2.37-4.38-3-2.65-1.45-5.74-.74-9.23 1.53-3.94 2.55-6.62 5.87-9.06 10.9v.09l-.3.65 42 24.22c1.48-2.41 2.93-4.86 4.31-7.39 5.61-10.24 10-20.29 9.92-30.78-.14-4.54-1.42-7.87-3.51-9.78" style="opacity:.15"/><path d="m239.4 60.26 5.6 7.33 9.06-10.71L243.84 51a45 45 0 0 0-4.44 9.26" style="fill:#10b981"/><path d="m239.4 60.26 5.6 7.33 9.06-10.71L243.84 51a45 45 0 0 0-4.44 9.26" style="opacity:.30000000000000004"/><path d="M269.19 46.76c-2.45-2.2-6.91-2-10.84 0-5.38 2.72-9.82 8.6-13.14 18.53-3.31-6.1-7.75-6.29-13.13-2.8-3.93 2.56-6.61 5.88-9.06 10.9v.1a32.5 32.5 0 0 0-3.39 13.7c0 10.54 4.31 15.56 9.92 19.33a35.4 35.4 0 0 0 11.07 4.84l5.52 1.29 5.53-7.68a179 179 0 0 0 11.07-17.62c5.61-10.24 10-20.29 9.92-30.78-.1-4.57-1.38-7.9-3.47-9.81" style="fill:#10b981"/><path d="M254.08 98.71c3.78 2.74 14.32 3.88 18.93-4.25-2.79 2.21-10.19 1.73-11.81-6.56Z" style="fill:#10b981"/><path d="m268.59 75.07-10.78 6.22-4-14.54a1 1 0 0 0-2 0l-6.24 28.45-5.24-14.33a1 1 0 0 0-1.94.07l-3.49 12.63-11.84 6.83a17 17 0 0 0 1.27 1.64l12-6.91a1 1 0 0 0 .47-.61l2.8-9.93 5.36 14.67a1 1 0 0 0 1 .67 1 1 0 0 0 .93-.8L253 71.31l3.22 11.8a1 1 0 0 0 .6.68 1 1 0 0 0 .9-.06l9.55-5.52c.44-1.04.91-2.08 1.32-3.14" style="fill:#fff"/></svg>