<svg xmlns="http://www.w3.org/2000/svg" viewBox="0 0 500 500"><path d="M77.66 246.66c-95.18 55-95.17 144 0 199s249.49 55 344.67 0 95.17-144 0-199-249.49-54.95-344.67 0" style="fill:#fafafa"/><path d="M128.67 363.19c-22.47 13-58.89 13-81.35 0s-22.47-34 0-47 58.88-13 81.35 0 22.46 34.03 0 47m244.96-9.84c23 12.75 60.29 12.75 83.3 0s23-33.46 0-46.22-60.29-12.76-83.3 0-22.99 33.45 0 46.22" style="fill:#e0e0e0"/><path d="m364.2 187 4.55 119.38a15.4 15.4 0 0 0 1.38 5.76c2 4.43 6.05 8.61 12.24 12.08 18.17 10.16 47.63 10.16 65.81 0 6.18-3.47 10.25-7.65 12.22-12.08a15.6 15.6 0 0 0 1.34-5v-.06a9.4 9.4 0 0 0 .05-1.5v-.07l4.49-118.44a20.73 20.73 0 0 0 3.84-10.92l-5.47 147.3v1.62c-.55 6.85-5.35 13.61-14.41 18.84-19.28 11.14-50.55 11.14-69.84 0-9.41-5.43-14.23-12.52-14.45-19.64v-.52l-5.47-147.6A20.6 20.6 0 0 0 364.2 187" style="fill:#f0f0f0"/><path d="M376.47 197.81c21.43 12.37 56.18 12.37 77.6 0a36.85 36.85 0 0 0 12.21-10.72l-4.49 118.44v.07l-.05 1.5v.06a15.6 15.6 0 0 1-1.34 5c-2 4.43-6 8.61-12.22 12.08-18.18 10.16-47.64 10.16-65.81 0-6.19-3.47-10.26-7.65-12.24-12.08a15.4 15.4 0 0 1-1.38-5.76L364.2 187a36.9 36.9 0 0 0 12.27 10.81" style="fill:#e6e6e6"/><path d="M461.78 306.79c-.41 6.35-4.94 12.63-13.6 17.48-18.18 10.16-47.64 10.16-65.81 0-8.67-4.85-13.2-11.13-13.6-17.48l-3.85-100c-.42-7.44 4.49-15 14.73-20.64 19.67-10.91 51.57-10.91 71.24 0 10.24 5.68 15.15 13.2 14.73 20.64Z" style="fill:#10b981"/><path d="M461.78 306.79c-.41 6.35-4.94 12.63-13.6 17.48-18.18 10.16-47.64 10.16-65.81 0-8.67-4.85-13.2-11.13-13.6-17.48l-3.85-100c-.42-7.44 4.49-15 14.73-20.64 19.67-10.91 51.57-10.91 71.24 0 10.24 5.68 15.15 13.2 14.73 20.64Z" style="fill:#fff;opacity:.45"/><path d="M446.19 322.19c-17.07 9-44.76 9-61.84 0s-17.08-23.65 0-32.67 44.77-9 61.84 0 17.08 23.65 0 32.67" style="fill:#10b981;opacity:.30000000000000004"/><path d="M450.89 225.65c-19.67 10.91-51.57 10.91-71.24 0s-19.67-28.61 0-39.53 51.57-10.91 71.24 0 19.68 28.61 0 39.53" style="fill:#fff;opacity:.7000000000000001"/><path d="m416.4 224.84-21.71-6.11a9.44 9.44 0 0 0-8.29 2.11l-16.15 15.74a9.43 9.43 0 0 0-2.31 8.23l5.55 21.85a9.48 9.48 0 0 0 6 6.13l21.71 6.11a9.44 9.44 0 0 0 8.29-2.11l16.15-15.74a9.46 9.46 0 0 0 2.32-8.23L422.37 231a9.45 9.45 0 0 0-5.97-6.16" style="fill:#10b981"/><path d="m416.4 224.84-21.71-6.11a9.44 9.44 0 0 0-8.29 2.11l-16.15 15.74a9.43 9.43 0 0 0-2.31 8.23l5.55 21.85a9.48 9.48 0 0 0 6 6.13l21.71 6.11a9.44 9.44 0 0 0 8.29-2.11l16.15-15.74a9.46 9.46 0 0 0 2.32-8.23L422.37 231a9.45 9.45 0 0 0-5.97-6.16" style="fill:#fff;opacity:.8"/><path d="M405.31 277.83a8.2 8.2 0 0 1-4.07.07l-21.31-6a8.73 8.73 0 0 1-5.53-5.67l-5.46-21.46a8.78 8.78 0 0 1 2.15-7.62L387 221.69a8 8 0 0 1 3.6-1.89 8.2 8.2 0 0 1 4.07-.07l21.31 6a8.73 8.73 0 0 1 5.53 5.67l5.46 21.46a8.75 8.75 0 0 1-2.15 7.62l-15.86 15.45a7.94 7.94 0 0 1-3.65 1.9" style="fill:#10b981"/><path d="M405.31 277.83a8.2 8.2 0 0 1-4.07.07l-21.31-6a8.73 8.73 0 0 1-5.53-5.67l-5.46-21.46a8.78 8.78 0 0 1 2.15-7.62L387 221.69a8 8 0 0 1 3.6-1.89 8.2 8.2 0 0 1 4.07-.07l21.31 6a8.73 8.73 0 0 1 5.53 5.67l5.46 21.46a8.75 8.75 0 0 1-2.15 7.62l-15.86 15.45a7.94 7.94 0 0 1-3.65 1.9" style="fill:#fff;opacity:.6000000000000001"/><path d="M397.34 246.5a7.7 7.7 0 0 1-3.81.07l-21.32-6a1.63 1.63 0 0 1-.78-3.07l15.86-15.5a7.66 7.66 0 0 1 3.38-1.76 7.76 7.76 0 0 1 3.82-.07l21.31 6c.89.25 1.47.69 1.61 1.22a2.11 2.11 0 0 1-.83 1.85l-15.85 15.46a7.8 7.8 0 0 1-3.39 1.8" style="fill:#10b981"/><path d="M397.34 246.5a7.7 7.7 0 0 1-3.81.07l-21.32-6a1.63 1.63 0 0 1-.78-3.07l15.86-15.5a7.66 7.66 0 0 1 3.38-1.76 7.76 7.76 0 0 1 3.82-.07l21.31 6c.89.25 1.47.69 1.61 1.22a2.11 2.11 0 0 1-.83 1.85l-15.85 15.46a7.8 7.8 0 0 1-3.39 1.8" style="fill:#fff;opacity:.85"/><path d="M407.34 276.37c-1.19.3-1.67-1-1.82-1.63l-5.45-21.46a8.36 8.36 0 0 1 2-7.16l15.86-15.45a2.8 2.8 0 0 1 1.24-.78c1.18-.3 1.66 1.05 1.81 1.64l5.47 21.47a8.34 8.34 0 0 1-2 7.15l-15.88 15.45a2.9 2.9 0 0 1-1.23.77" style="fill:#10b981"/><path d="M407.34 276.37c-1.19.3-1.67-1-1.82-1.63l-5.45-21.46a8.36 8.36 0 0 1 2-7.16l15.86-15.45a2.8 2.8 0 0 1 1.24-.78c1.18-.3 1.66 1.05 1.81 1.64l5.47 21.47a8.34 8.34 0 0 1-2 7.15l-15.88 15.45a2.9 2.9 0 0 1-1.23.77" style="fill:#fff;opacity:.75"/><path d="M402.83 277.52a2.9 2.9 0 0 1-1.46-.09l-21.31-6a8.35 8.35 0 0 1-5.19-5.32l-5.46-21.46c-.15-.59-.37-2 .82-2.3a2.84 2.84 0 0 1 1.45.09l21.32 6a8.4 8.4 0 0 1 5.19 5.32l5.45 21.47c.15.58.36 1.98-.81 2.29" style="fill:#10b981"/><path d="M402.83 277.52a2.9 2.9 0 0 1-1.46-.09l-21.31-6a8.35 8.35 0 0 1-5.19-5.32l-5.46-21.46c-.15-.59-.37-2 .82-2.3a2.84 2.84 0 0 1 1.45.09l21.32 6a8.4 8.4 0 0 1 5.19 5.32l5.45 21.47c.15.58.36 1.98-.81 2.29" style="fill:#fff;opacity:.65"/><path d="M405.24 277.32a7.76 7.76 0 0 1-3.82.07l-21.31-6c-.89-.25-1.48-.69-1.61-1.22a2.09 2.09 0 0 1 .83-1.85l15.85-15.46a7.8 7.8 0 0 1 3.39-1.76 7.7 7.7 0 0 1 3.81-.07l21.32 6c.88.25 1.47.69 1.61 1.22a2.11 2.11 0 0 1-.83 1.85l-15.86 15.46a7.66 7.66 0 0 1-3.38 1.76" style="fill:#10b981;opacity:.2"/><path d="M392.87 221.46a1.5 1.5 0 0 0-.67.25c-.46.35-.26 1.16-.18 1.64.19 1.16 3.27 13.42 3.48 14.57a.44.44 0 0 1 0 .32.3.3 0 0 1-.43 0c-.26-.21-.3-.65-.38-1s-3-11.88-3.13-12.26c-.19-.75-.38-1.5-.58-2.25a1.1 1.1 0 0 0-.24-.53c-.8-.76-2.24.3-2.79.55a.5.5 0 0 1-.2.08.23.23 0 0 1-.21-.07.31.31 0 0 1 0-.32 5.6 5.6 0 0 1 1.31-1.1 6.5 6.5 0 0 1 2-.78 7.2 7.2 0 0 1 3.32 0c.75.14 1.5.3 2.23.49s1.4.36 2.08.59c.14.05.27.19.1.28s-.49 0-.65 0c-.51-.06-1-.16-1.5-.26a9.2 9.2 0 0 0-3.56-.2m6.13.54c-.18.28.51.33.63.31s.17-.21 0-.29a.8.8 0 0 0-.48-.09c-.03.01-.09.07-.15.07m1.88 40.66.32 1.23c.07.26.19.57.46.59a.45.45 0 0 0 .43-.37 1.4 1.4 0 0 0-.06-.6c-.09-.4-.25-1.4-.67-1.61s-.59.36-.48.76m3.23 13.39a.86.86 0 0 1-.47.87 2.1 2.1 0 0 1-.87.19l-1.73.15c-.07 0-.16 0-.18.09s.09.15.17.17a8.7 8.7 0 0 0 4 .13 9.5 9.5 0 0 0 3.95-2c1.07-.9 2.07-2 3.05-3 .13-.12.45-.73.15-.57a8 8 0 0 0-.88.75 30 30 0 0 1-2.32 2 7.5 7.5 0 0 1-2.74 1.38c-.57.14-.88-.2-1.05-.72-.83-2.6-1.44-5.27-2.19-7.89-.08-.3-.28-1-.76-.88s-.09.91 0 1.24c.3 1.28.61 2.55.91 3.83.23 1 .47 2 .7 2.93a7.5 7.5 0 0 1 .26 1.33" style="fill:#10b981;opacity:.30000000000000004"/><path d="M369.48 243a6.6 6.6 0 0 0 .2 1.16c.45 1.85.81 3.75 1.39 5.57a.8.8 0 0 0 .11.22.2.2 0 0 0 .21.07c.13 0 .16-.19.16-.32a9.4 9.4 0 0 0-.33-1.74c-.11-.66-.23-1.31-.35-2a4.4 4.4 0 0 1-.07-1.61c.29-1.39 1.86-1.52 3-1.35 1.62.25 3.18.79 4.79 1.08a.75.75 0 0 0 .67-.1c0-.16-.18-.27-.33-.34a36.3 36.3 0 0 0-7.11-2.18 2.6 2.6 0 0 0-1.7.12 1.28 1.28 0 0 0-.65 1.27Zm44.01-14.23a1.33 1.33 0 0 0-.78.12 18 18 0 0 0-3.79 2.09c-1.85 1.22-3.69 2.45-5.54 3.66a61 61 0 0 1-5.27 3.26 13.6 13.6 0 0 1-4.27 1.48 15.4 15.4 0 0 1-5.32-.43c-1.36-.3-2.71-.64-4-1a6.1 6.1 0 0 1-2-.88 3.86 3.86 0 0 1-1.41-2.89 6.1 6.1 0 0 1 .82-3.17c.21-.38.59-1 .13-1.4s-1.44.65-1.77 1c-.72.72-1.43 1.44-2.14 2.17q-2.13 2.17-4.21 4.39c-.58.61-1.17 1.59-.6 2.21a1.8 1.8 0 0 0 .77.4q9.72 3 19.63 5.46a6.15 6.15 0 0 0 3.34.18 6 6 0 0 0 2-1.25c1-.81 1.93-1.63 2.89-2.47 2.06-1.82 4.07-3.7 6-5.66s3.86-3.74 5.64-5.76a1.7 1.7 0 0 0 .39-.6.68.68 0 0 0-.51-.91m2.14-1.43a.7.7 0 0 0-.21-.24.88.88 0 0 0-.59-.16.75.75 0 0 0-.63.42.62.62 0 0 0 .07.59 1 1 0 0 0 .61.3.83.83 0 0 0 .67-.15.62.62 0 0 0 .08-.76M422 248c.22 1.29.42 2.58.61 3.87a8.27 8.27 0 0 1-.73 5.67 36.7 36.7 0 0 1-3.89 5.2c-2.17 2.51-3.94 4.41-6.32 7.4a1.29 1.29 0 0 0-.37 1.17c.78.27 1.73-.9 2.21-1.39l8.68-8.84a10.9 10.9 0 0 0 2.76-3.77c.68-1.92.25-4-.19-6-.67-3-1.33-6-2-9.06-.34-1.53-.68-3.06-1-4.59-.14-.6-.6-2.5-.79-3.1-.42-1.32-1.07.54-.93 1.46.22 1.43.59 4.32 1.11 6.84.27 1.33.6 3.68.85 5.14m-30.89 25.36c1.9.53 3.82 1 5.77 1.39s4.72.56 4.57-2.19a20.6 20.6 0 0 0-.74-4q-1.8-7.1-3.61-14.19a2.9 2.9 0 0 0-.6-1.34 1 1 0 0 0-1.33-.19 1.5 1.5 0 0 0-.37 1c-.21 2.13-.19 4.5-.39 6.63-.17 1.82-.26 3.4-1.83 4.65a6.4 6.4 0 0 1-1.72.89 21 21 0 0 1-5.82 1.17 42 42 0 0 1-4.18-.06c-.76 0-3.11-.56-3.55.3-.24.47.2.92.47 1.26a3 3 0 0 0 1.34.82c1.81.74 3.73 1.27 5.59 1.85 2.13.73 4.29 1.41 6.4 2.01" style="fill:#fff;opacity:.65"/><path d="m411.16 266.06 21.7-6.11a9.45 9.45 0 0 1 8.29 2.1l16.15 15.75a9.42 9.42 0 0 1 2.32 8.23l-5.56 21.85a9.43 9.43 0 0 1-6 6.13l-21.7 6.11a9.43 9.43 0 0 1-8.26-2.12L402 302.27a9.46 9.46 0 0 1-2.32-8.23l5.56-21.85a9.43 9.43 0 0 1 5.92-6.13" style="fill:#10b981"/><path d="m411.16 266.06 21.7-6.11a9.45 9.45 0 0 1 8.29 2.1l16.15 15.75a9.42 9.42 0 0 1 2.32 8.23l-5.56 21.85a9.43 9.43 0 0 1-6 6.13l-21.7 6.11a9.43 9.43 0 0 1-8.26-2.12L402 302.27a9.46 9.46 0 0 1-2.32-8.23l5.56-21.85a9.43 9.43 0 0 1 5.92-6.13" style="fill:#fff;opacity:.8"/><path d="M422.25 319.05a8 8 0 0 0 4.07.06l21.31-6a8.74 8.74 0 0 0 5.52-5.67l5.46-21.44a8.78 8.78 0 0 0-2.14-7.62l-15.86-15.48a8.86 8.86 0 0 0-7.67-1.95l-21.32 6a8.74 8.74 0 0 0-5.52 5.67l-5.46 21.46a8.75 8.75 0 0 0 2.15 7.62l15.85 15.45a8 8 0 0 0 3.61 1.9" style="fill:#10b981"/><path d="M422.25 319.05a8 8 0 0 0 4.07.06l21.31-6a8.74 8.74 0 0 0 5.52-5.67l5.46-21.44a8.78 8.78 0 0 0-2.14-7.62l-15.86-15.48a8.86 8.86 0 0 0-7.67-1.95l-21.32 6a8.74 8.74 0 0 0-5.52 5.67l-5.46 21.46a8.75 8.75 0 0 0 2.15 7.62l15.85 15.45a8 8 0 0 0 3.61 1.9" style="fill:#fff;opacity:.6000000000000001"/><path d="M430.22 287.72a7.7 7.7 0 0 0 3.81.07l21.32-6c.88-.25 1.47-.7 1.6-1.23a2.06 2.06 0 0 0-.82-1.84l-15.86-15.46a8.34 8.34 0 0 0-7.2-1.83l-21.32 6c-.88.25-1.47.69-1.6 1.22a2.08 2.08 0 0 0 .82 1.85l15.86 15.5a7.7 7.7 0 0 0 3.39 1.72" style="fill:#10b981"/><path d="M430.22 287.72a7.7 7.7 0 0 0 3.81.07l21.32-6c.88-.25 1.47-.7 1.6-1.23a2.06 2.06 0 0 0-.82-1.84l-15.86-15.46a8.34 8.34 0 0 0-7.2-1.83l-21.32 6c-.88.25-1.47.69-1.6 1.22a2.08 2.08 0 0 0 .82 1.85l15.86 15.5a7.7 7.7 0 0 0 3.39 1.72" style="fill:#fff;opacity:.85"/><path d="M420.22 317.59c1.19.3 1.66-1 1.81-1.63l5.46-21.47a8.38 8.38 0 0 0-2-7.15l-15.86-15.45a2.9 2.9 0 0 0-1.24-.78c-1.18-.3-1.66 1-1.81 1.64l-5.46 21.46a8.37 8.37 0 0 0 2 7.15L419 316.82a3 3 0 0 0 1.24.77Z" style="fill:#10b981"/><path d="M420.22 317.59c1.19.3 1.66-1 1.81-1.63l5.46-21.47a8.38 8.38 0 0 0-2-7.15l-15.86-15.45a2.9 2.9 0 0 0-1.24-.78c-1.18-.3-1.66 1-1.81 1.64l-5.46 21.46a8.37 8.37 0 0 0 2 7.15L419 316.82a3 3 0 0 0 1.24.77Z" style="fill:#fff;opacity:.75"/><path d="M424.73 318.73a2.73 2.73 0 0 0 1.45-.08l21.32-6a8.31 8.31 0 0 0 5.18-5.32l5.46-21.46c.15-.59.37-2-.81-2.3a2.9 2.9 0 0 0-1.46.09l-21.31 6a8.35 8.35 0 0 0-5.19 5.32l-5.46 21.47c-.15.55-.37 1.98.82 2.28" style="fill:#10b981"/><path d="M424.73 318.73a2.73 2.73 0 0 0 1.45-.08l21.32-6a8.31 8.31 0 0 0 5.18-5.32l5.46-21.46c.15-.59.37-2-.81-2.3a2.9 2.9 0 0 0-1.46.09l-21.31 6a8.35 8.35 0 0 0-5.19 5.32l-5.46 21.47c-.15.55-.37 1.98.82 2.28" style="fill:#fff;opacity:.65"/><path d="M422.32 318.54a7.76 7.76 0 0 0 3.82.07l21.31-6a1.63 1.63 0 0 0 .78-3.07l-15.86-15.46a7.66 7.66 0 0 0-3.38-1.76 7.76 7.76 0 0 0-3.82-.07l-21.31 6c-.89.25-1.47.69-1.61 1.22a2.11 2.11 0 0 0 .83 1.85l15.85 15.46a7.8 7.8 0 0 0 3.39 1.76" style="fill:#10b981;opacity:.2"/><path d="M434.68 262.68a1.5 1.5 0 0 1 .68.25c.45.35.25 1.16.18 1.64-.19 1.16-3.27 13.42-3.48 14.57a.44.44 0 0 0 0 .32.29.29 0 0 0 .42 0c.27-.21.31-.66.39-1s3-11.88 3.12-12.26c.2-.75.39-1.5.59-2.25a1 1 0 0 1 .24-.53c.8-.76 2.24.3 2.78.55a.6.6 0 0 0 .21.08.2.2 0 0 0 .2-.07.31.31 0 0 0 0-.32 5.8 5.8 0 0 0-1.31-1.1 6.5 6.5 0 0 0-2-.78 7.2 7.2 0 0 0-3.33-.05c-.74.14-1.49.3-2.22.49s-1.4.36-2.08.59c-.14.05-.27.18-.1.27s.49 0 .65 0c.5-.06 1-.16 1.49-.26a9.3 9.3 0 0 1 3.57-.14m-6.16.55c.18.28-.52.33-.63.31s-.17-.21 0-.29a.9.9 0 0 1 .48-.1.23.23 0 0 1 .15.08m-1.84 40.65c-.11.41-.21.82-.32 1.23-.07.26-.19.57-.46.59a.45.45 0 0 1-.43-.37 1.2 1.2 0 0 1 0-.6c.1-.4.26-1.4.67-1.61s.64.36.54.76m-3.23 13.39a.85.85 0 0 0 .46.87 2.2 2.2 0 0 0 .87.19l1.74.15c.07 0 .15 0 .17.09s-.08.14-.17.17a8.7 8.7 0 0 1-4 .13 9.54 9.54 0 0 1-3.95-2.05c-1.06-.9-2.06-2-3.05-3-.12-.12-.44-.73-.15-.57a6 6 0 0 1 .88.75 30 30 0 0 0 2.33 2 7.5 7.5 0 0 0 2.74 1.38c.57.14.88-.2 1-.72.83-2.6 1.45-5.27 2.19-7.89.09-.3.29-1 .77-.89s.09.92 0 1.25c-.31 1.28-.61 2.55-.91 3.82-.23 1-.47 2-.7 2.94a7.5 7.5 0 0 0-.22 1.38" style="fill:#10b981;opacity:.30000000000000004"/><path d="M458.07 284.22a5 5 0 0 1-.2 1.16c-.44 1.85-.8 3.75-1.39 5.57a.6.6 0 0 1-.1.21.19.19 0 0 1-.22.08c-.12 0-.15-.19-.15-.32a9.4 9.4 0 0 1 .33-1.74c.11-.66.23-1.31.34-2a4.2 4.2 0 0 0 .08-1.61c-.29-1.39-1.86-1.52-3-1.35-1.62.24-3.18.79-4.79 1.08a.75.75 0 0 1-.67-.1c0-.16.17-.27.32-.34a36.6 36.6 0 0 1 7.12-2.18 2.58 2.58 0 0 1 1.69.12 1.25 1.25 0 0 1 .65 1.27Zm-44.47-13.36a1.8 1.8 0 0 0 .39.6c1.79 2 3.76 3.85 5.65 5.76s3.95 3.84 6 5.66c1 .84 1.91 1.66 2.89 2.47a4.66 4.66 0 0 0 5.3 1.07q9.92-2.42 19.64-5.47a1.7 1.7 0 0 0 .77-.39c.57-.62 0-1.6-.6-2.21-1.39-1.48-2.8-2.94-4.21-4.39-.71-.73-1.42-1.45-2.14-2.17-.33-.34-1.2-1.43-1.78-1s-.07 1 .14 1.39a6.26 6.26 0 0 1 .82 3.18 3.86 3.86 0 0 1-1.41 2.89 6 6 0 0 1-2 .87c-1.33.4-2.67.74-4 1a15.4 15.4 0 0 1-5.32.43 13.6 13.6 0 0 1-4.27-1.48 59 59 0 0 1-5.27-3.27c-1.85-1.2-3.69-2.43-5.54-3.65a18.7 18.7 0 0 0-3.79-2.1 1.4 1.4 0 0 0-.78-.11.68.68 0 0 0-.49.92m-1.6-1.54a.82.82 0 0 0 .68.14.9.9 0 0 0 .6-.29.59.59 0 0 0 .07-.59.74.74 0 0 0-.62-.42.88.88 0 0 0-.59.16.6.6 0 0 0-.21.24.62.62 0 0 0 .07.76m-6.44 19.85c-.22 1.29-.42 2.58-.61 3.87a8.33 8.33 0 0 0 .72 5.67 37.5 37.5 0 0 0 3.9 5.2c2.17 2.5 3.94 4.41 6.32 7.4a1.31 1.31 0 0 1 .37 1.17c-.78.27-1.74-.9-2.21-1.39l-8.68-8.84a10.9 10.9 0 0 1-2.76-3.77c-.69-1.92-.25-4 .18-6l2-9.07c.33-1.52.67-3.05 1-4.58.13-.6.6-2.5.79-3.1.41-1.32 1.07.54.93 1.46-.22 1.43-.6 4.32-1.11 6.84-.27 1.38-.6 3.73-.84 5.14m30.89 25.41c-1.91.53-3.82 1-5.77 1.38s-4.72.57-4.57-2.18a20.5 20.5 0 0 1 .73-4q1.8-7.1 3.62-14.19a3 3 0 0 1 .59-1.34 1 1 0 0 1 1.33-.19 1.5 1.5 0 0 1 .38 1c.2 2.13.18 4.49.39 6.63.17 1.82.25 3.4 1.83 4.65a6.3 6.3 0 0 0 1.71.89 21.4 21.4 0 0 0 5.82 1.17 42 42 0 0 0 4.18-.06c.77 0 3.12-.56 3.56.3.24.47-.2.92-.48 1.26a3.1 3.1 0 0 1-1.34.82c-1.8.74-3.72 1.27-5.58 1.85-2.14.73-4.26 1.43-6.4 2.01" style="fill:#fff;opacity:.65"/><path d="m457.3 277.8-16.15-15.75a9.45 9.45 0 0 0-8.29-2.1l-8.61 2.42 1.36-1.32a9.46 9.46 0 0 0 2.32-8.23L422.37 231a9.45 9.45 0 0 0-6-6.13l-21.71-6.11a9.44 9.44 0 0 0-8.29 2.11l-16.14 15.74a9.4 9.4 0 0 0-2.32 8.23l5.55 21.85a9.48 9.48 0 0 0 6 6.13l21.71 6.11a7.2 7.2 0 0 0 2.25.24L399.63 294a9.46 9.46 0 0 0 2.32 8.23L418.1 318a9.43 9.43 0 0 0 8.29 2.11l21.7-6.11a9.43 9.43 0 0 0 6-6.13l5.53-21.87a9.42 9.42 0 0 0-2.32-8.2" style="fill:#10b981;opacity:.15"/><path d="M422.37 231a9.45 9.45 0 0 0-6-6.13l-21.71-6.11a9.44 9.44 0 0 0-8.29 2.11l-5.57 5.43c11.7 6.09 27.35 8.5 42.18 7.23Z" style="fill:#fff;opacity:.8"/><path d="M379.65 225.65c17.05 9.45 43.28 10.71 62.78 3.77-27.16 4.73-52.66-7.93-50.43-24.24a9 9 0 0 1 .18-1 65.2 65.2 0 0 1-15.71-6.34 46 46 0 0 1-6.31-4.36c-9.38 10.42-6.22 23.46 9.49 32.17" style="fill:#10b981;opacity:.2"/><path d="M360.41 176v.21A20.6 20.6 0 0 0 364.2 187a36.9 36.9 0 0 0 12.27 10.8c21.43 12.37 56.18 12.37 77.6 0a36.85 36.85 0 0 0 12.21-10.72 20.73 20.73 0 0 0 3.84-10.92c.35-8.36-5-16.78-16.05-23.16-21.42-12.38-56.17-12.38-77.6 0-10.95 6.33-16.31 14.67-16.06 23m18.52-20.71c20.08-11.14 52.61-11.14 72.69 0s20.06 29.19 0 40.32-52.61 11.13-72.69 0-20.07-29.23 0-40.36Z" style="fill:#fafafa"/><path d="M378.93 195.57c20.08 11.13 52.61 11.13 72.69 0s20.06-29.19 0-40.32-52.61-11.14-72.69 0-20.07 29.19 0 40.32" style="fill:#e6e6e6"/><path d="M458.1 191.18a42 42 0 0 1-6.48 4.39c-20.08 11.13-52.61 11.13-72.69 0a41.7 41.7 0 0 1-6.49-4.39 39.5 39.5 0 0 1 7.21-5.06c19.67-10.91 51.57-10.91 71.24 0a39 39 0 0 1 7.21 5.06" style="fill:#10b981"/><path d="M458.1 191.18a42 42 0 0 1-6.48 4.39c-20.08 11.13-52.61 11.13-72.69 0a41.7 41.7 0 0 1-6.49-4.39 39.5 39.5 0 0 1 7.21-5.06c19.67-10.91 51.57-10.91 71.24 0a39 39 0 0 1 7.21 5.06" style="fill:#fff;opacity:.65"/><path d="M450.89 186.12c-.61-.34-1.24-.68-1.87-1h-.1c-1-.48-2-1-3.06-1.39a72.6 72.6 0 0 0-18.25-4.9c-1.73-.24-3.49-.44-5.27-.57q-2.26-.19-4.56-.24h-2.51q-2.41 0-4.83.12a83.4 83.4 0 0 0-16.38 2.47 61.4 61.4 0 0 0-14.41 5.59c-.67.38-1.32.76-1.94 1.15l-.37.23c-.51.33-1 .66-1.51 1l-.24.17c-.53.39-1 .76-1.53 1.15l-.09.07q-.8.63-1.53 1.29a42.4 42.4 0 0 0 6.49 4.39 62 62 0 0 0 14.24 5.59c6.3-14 34.41-22.08 57.72-15.12" style="fill:#10b981;opacity:.2"/><path d="m369 313.4.3 9.13v.65c.62 13.56 21 24.45 46 24.45s45.23-10.82 46-24.33v-.8l.29-9.2c-2.48 12.76-22.28 22.7-46.32 22.7s-43.73-9.89-46.27-22.6" style="fill:#fafafa"/><path d="M446.35 325.2c-18.27 9.18-46.4 8.91-64-.94-8.64-4.86-13.19-11.12-13.59-17.47l-3.79-98 .19.05c.8 4.28 3.37 8.46 7.74 12.24 1.7 36.86 2 72.51 12.42 84.8 9.97 11.74 36.05 28.59 61.03 19.32" style="fill:#10b981;opacity:.2"/><path d="M136 147.5c0-18.07-16.58-35.29-23.81-42.1-3.85-3.62-6.21-5.38-7.28-7.63-.94-2-.81-3.09-.81-6.92H71.89c0 3.83.13 4.93-.81 6.92-1.07 2.25-3.43 4-7.27 7.63-7.23 6.81-23.82 24-23.82 42.1a16.5 16.5 0 0 0 .75 4.89 16.6 16.6 0 0 0-.75 4.9v7.79a16.3 16.3 0 0 0 .66 4.58 16.2 16.2 0 0 0-.63 5.2v9.74a16 16 0 0 0 2.81 9.06l2.09 3.05a16 16 0 0 1 1 16.49l-4.11 7.8a16 16 0 0 0-1.81 7.41v108.66c0 7.09 4.69 14.18 14.06 19.59 18.75 10.83 49.14 10.83 67.88 0 9.38-5.42 14.06-12.51 14.06-19.6V228.41a16 16 0 0 0-1.82-7.42l-4.06-7.79a16.07 16.07 0 0 1 1-16.49l2.09-3.05a16 16 0 0 0 2.79-9.06v-9.74a16.5 16.5 0 0 0-.64-5.2 16.3 16.3 0 0 0 .66-4.58v-7.79a16.6 16.6 0 0 0-.75-4.9 16.5 16.5 0 0 0 .75-4.89Z" style="fill:#10b981"/><path d="M136 147.5c0-18.07-16.58-35.29-23.81-42.1-3.85-3.62-6.21-5.38-7.28-7.63-.94-2-.81-3.09-.81-6.92H71.89c0 3.83.13 4.93-.81 6.92-1.07 2.25-3.43 4-7.27 7.63-7.23 6.81-23.82 24-23.82 42.1a16.5 16.5 0 0 0 .75 4.89 16.6 16.6 0 0 0-.75 4.9v7.79a16.3 16.3 0 0 0 .66 4.58 16.2 16.2 0 0 0-.63 5.2v9.74a16 16 0 0 0 2.81 9.06l2.09 3.05a16 16 0 0 1 1 16.49l-4.11 7.8a16 16 0 0 0-1.81 7.41v108.66c0 7.09 4.69 14.18 14.06 19.59 18.75 10.83 49.14 10.83 67.88 0 9.38-5.42 14.06-12.51 14.06-19.6V228.41a16 16 0 0 0-1.82-7.42l-4.06-7.79a16.07 16.07 0 0 1 1-16.49l2.09-3.05a16 16 0 0 0 2.79-9.06v-9.74a16.5 16.5 0 0 0-.64-5.2 16.3 16.3 0 0 0 .66-4.58v-7.79a16.6 16.6 0 0 0-.75-4.9 16.5 16.5 0 0 0 .75-4.89Z" style="fill:#fff;opacity:.5"/><path d="M40 165.08c0 7.09 4.69 14.19 14.06 19.6 18.75 10.82 49.14 10.82 67.88 0 9.38-5.41 14.06-12.51 14.06-19.6v-7.8c0 7.09-4.68 14.18-14.06 19.59-18.74 10.83-49.13 10.83-67.88 0-9.38-5.41-14.06-12.5-14.06-19.59Z" style="fill:#10b981"/><path d="M40 184.79c0 7.09 4.69 14.18 14.06 19.59 18.75 10.83 49.14 10.83 67.88 0 9.37-5.38 14.06-12.5 14.06-19.59v-10.55c0 7.1-4.68 14.19-14.06 19.6-18.74 10.82-49.13 10.82-67.88 0-9.38-5.41-14.06-12.5-14.06-19.6Z" style="fill:#10b981"/><path d="M136 147.49a16 16 0 0 1-.19 2.48c0 .19-.06.37-.1.56a16 16 0 0 1-.45 1.86c-1.66 5.4-6.1 10.55-13.32 14.71-18.75 10.83-49.13 10.82-67.88 0-7.22-4.17-11.64-9.32-13.32-14.71a2 2 0 0 0-.07-.25l-.18-.66a16.8 16.8 0 0 1-.49-4c0-18.08 16.59-35.29 23.82-42.1 3.84-3.61 6.2-5.38 7.28-7.63.94-2 .8-3.09.8-6.92h32.2c0 3.83-.13 4.93.81 6.92 1.07 2.25 3.43 4 7.28 7.63 7.21 6.83 23.81 24.04 23.81 42.11m-17 90.56c-17.1 9.87-44.83 9.87-61.94 0-11.69-6.74-15.39-16.35-11.11-24.91a.3.3 0 0 1 0 .07L41.81 221a16 16 0 0 0-1.81 7.41v108.66c0 7.09 4.69 14.18 14.06 19.59 18.75 10.83 49.14 10.83 67.88 0 9.38-5.42 14.06-12.51 14.06-19.6V228.41a16 16 0 0 0-1.82-7.42l-4.06-7.79v-.07c4.23 8.56.53 18.17-11.12 24.92" style="fill:#10b981"/><g style="opacity:.7000000000000001"><path d="M40 165.08c0 7.09 4.69 14.19 14.06 19.6 18.75 10.82 49.14 10.82 67.88 0 9.38-5.41 14.06-12.51 14.06-19.6v-7.8c0 7.09-4.68 14.18-14.06 19.59-18.74 10.83-49.13 10.83-67.88 0-9.38-5.41-14.06-12.5-14.06-19.59Z" style="fill:#fff"/><path d="M40 184.79c0 7.09 4.69 14.18 14.06 19.59 18.75 10.83 49.14 10.83 67.88 0 9.37-5.38 14.06-12.5 14.06-19.59v-10.55c0 7.1-4.68 14.19-14.06 19.6-18.74 10.82-49.13 10.82-67.88 0-9.38-5.41-14.06-12.5-14.06-19.6Z" style="fill:#fff"/><path d="M136 147.49a16 16 0 0 1-.19 2.48c0 .19-.06.37-.1.56a16 16 0 0 1-.45 1.86c-1.66 5.4-6.1 10.55-13.32 14.71-18.75 10.83-49.13 10.82-67.88 0-7.22-4.17-11.64-9.32-13.32-14.71a2 2 0 0 0-.07-.25l-.18-.66a16.8 16.8 0 0 1-.49-4c0-18.08 16.59-35.29 23.82-42.1 3.84-3.61 6.2-5.38 7.28-7.63.94-2 .8-3.09.8-6.92h32.2c0 3.83-.13 4.93.81 6.92 1.07 2.25 3.43 4 7.28 7.63 7.21 6.83 23.81 24.04 23.81 42.11m-17 90.56c-17.1 9.87-44.83 9.87-61.94 0-11.69-6.74-15.39-16.35-11.11-24.91a.3.3 0 0 1 0 .07L41.81 221a16 16 0 0 0-1.81 7.41v108.66c0 7.09 4.69 14.18 14.06 19.59 18.75 10.83 49.14 10.83 67.88 0 9.38-5.42 14.06-12.51 14.06-19.6V228.41a16 16 0 0 0-1.82-7.42l-4.06-7.79v-.07c4.23 8.56.53 18.17-11.12 24.92" style="fill:#fff"/></g><path d="M130.26 153.93a11.5 11.5 0 0 1 .51 3.35v7.8a11.2 11.2 0 0 1-.45 3.13l-.42 1.46.42 1.44a11.2 11.2 0 0 1 .43 3.56l-.21 5.42h.23v4.5a10.84 10.84 0 0 1-1.89 6.12l-2.09 3a21.22 21.22 0 0 0-1.31 21.86l4.07 7.78a11 11 0 0 1 1.22 5v108.72c0 5.46-4.07 10.81-11.45 15.08-8.28 4.78-19.41 7.41-31.33 7.41s-23-2.63-31.33-7.41c-7.38-4.27-11.44-9.62-11.44-15.08V228.42a10.8 10.8 0 0 1 1.22-5l4.06-7.78a21.29 21.29 0 0 0-1.31-21.86l-2.08-3a10.7 10.7 0 0 1-1.89-6.12v-4.5h.19l-.17-5.43a10.9 10.9 0 0 1 .42-3.55l.42-1.44-.42-1.46a11.2 11.2 0 0 1-.44-3.13v-7.79a11 11 0 0 1 .51-3.36l.48-1.54-.48-1.53a11.2 11.2 0 0 1-.51-3.36c0-6.34 2.42-12.71 5.85-18.54l.06-.09.37-.63a3 3 0 0 1 .19-.3 26 26 0 0 1 8.87-8.01c15.15-8.75 39.71-8.75 54.87 0a25.9 25.9 0 0 1 8.86 7.92l.19.3.38.63a.4.4 0 0 1 0 .09c3.42 5.83 5.86 12.2 5.86 18.54a11.8 11.8 0 0 1-.51 3.36l-.48 1.53Z" style="fill:#10b981"/><path d="M130.26 153.93a11.5 11.5 0 0 1 .51 3.35v7.8a11.2 11.2 0 0 1-.45 3.13l-.42 1.46.42 1.44a11.2 11.2 0 0 1 .43 3.56l-.21 5.42h.23v4.5a10.84 10.84 0 0 1-1.89 6.12l-2.09 3a21.22 21.22 0 0 0-1.31 21.86l4.07 7.78a11 11 0 0 1 1.22 5v108.72c0 5.46-4.07 10.81-11.45 15.08-8.28 4.78-19.41 7.41-31.33 7.41s-23-2.63-31.33-7.41c-7.38-4.27-11.44-9.62-11.44-15.08V228.42a10.8 10.8 0 0 1 1.22-5l4.06-7.78a21.29 21.29 0 0 0-1.31-21.86l-2.08-3a10.7 10.7 0 0 1-1.89-6.12v-4.5h.19l-.17-5.43a10.9 10.9 0 0 1 .42-3.55l.42-1.44-.42-1.46a11.2 11.2 0 0 1-.44-3.13v-7.79a11 11 0 0 1 .51-3.36l.48-1.54-.48-1.53a11.2 11.2 0 0 1-.51-3.36c0-6.34 2.42-12.71 5.85-18.54l.06-.09.37-.63a3 3 0 0 1 .19-.3 26 26 0 0 1 8.87-8.01c15.15-8.75 39.71-8.75 54.87 0a25.9 25.9 0 0 1 8.86 7.92l.19.3.38.63a.4.4 0 0 1 0 .09c3.42 5.83 5.86 12.2 5.86 18.54a11.8 11.8 0 0 1-.51 3.36l-.48 1.53Z" style="fill:#fff;opacity:.85"/><path d="M115.43 151.7c-15.16 8.74-39.72 8.74-54.87 0-10.66-6.15-13.82-15-9.49-22.74l.06-.09.37-.63a3 3 0 0 1 .19-.3 26 26 0 0 1 8.87-7.94c15.15-8.75 39.71-8.75 54.87 0a25.9 25.9 0 0 1 8.86 7.92l.19.3.38.63a.4.4 0 0 1 0 .09c4.37 7.76 1.22 16.61-9.43 22.76" style="fill:#fff;opacity:.7000000000000001"/><path d="M130.63 177.82a35.6 35.6 0 0 1-8.7 6.86c-18.75 10.83-49.13 10.83-67.88 0a35.4 35.4 0 0 1-8.71-6.88l.07 2.29h-.19v4.5a10.6 10.6 0 0 0 .31 2.58 35.1 35.1 0 0 0 8.52 6.66c18.75 10.84 49.13 10.84 67.88 0a35.1 35.1 0 0 0 8.52-6.66 10.6 10.6 0 0 0 .32-2.58v-4.5h-.23Zm-5.15 37.8a21.2 21.2 0 0 1-2.42-9.84c0-.72 0-1.43.12-2.15-.41.26-.82.51-1.25.75-18.75 10.83-49.13 10.83-67.88 0q-.64-.36-1.26-.75c.07.71.12 1.43.12 2.15a21.2 21.2 0 0 1-2.41 9.84l-4.06 7.78a11 11 0 0 0-1 2.81c1.84 4.34 5.69 8.45 11.56 11.84 17.11 9.87 44.84 9.87 62 0 5.86-3.39 9.71-7.5 11.56-11.83a11.6 11.6 0 0 0-1-2.82Zm-3.55-48.52c-18.75 10.83-49.13 10.82-67.88 0a35.4 35.4 0 0 1-8.83-7v5a11.2 11.2 0 0 0 .44 3.13l.42 1.46-.25.86a35.6 35.6 0 0 0 8.22 6.34c18.75 10.82 49.13 10.82 67.88 0a35.9 35.9 0 0 0 8.22-6.34l-.25-.86.42-1.46a11.2 11.2 0 0 0 .45-3.13v-5a35.2 35.2 0 0 1-8.84 7" style="fill:#10b981"/><path d="M130.63 177.82a35.6 35.6 0 0 1-8.7 6.86c-18.75 10.83-49.13 10.83-67.88 0a35.4 35.4 0 0 1-8.71-6.88l.07 2.29h-.19v4.5a10.6 10.6 0 0 0 .31 2.58 35.1 35.1 0 0 0 8.52 6.66c18.75 10.84 49.13 10.84 67.88 0a35.1 35.1 0 0 0 8.52-6.66 10.6 10.6 0 0 0 .32-2.58v-4.5h-.23Zm-5.15 37.8a21.2 21.2 0 0 1-2.42-9.84c0-.72 0-1.43.12-2.15-.41.26-.82.51-1.25.75-18.75 10.83-49.13 10.83-67.88 0q-.64-.36-1.26-.75c.07.71.12 1.43.12 2.15a21.2 21.2 0 0 1-2.41 9.84l-4.06 7.78a11 11 0 0 0-1 2.81c1.84 4.34 5.69 8.45 11.56 11.84 17.11 9.87 44.84 9.87 62 0 5.86-3.39 9.71-7.5 11.56-11.83a11.6 11.6 0 0 0-1-2.82Zm-3.55-48.52c-18.75 10.83-49.13 10.82-67.88 0a35.4 35.4 0 0 1-8.83-7v5a11.2 11.2 0 0 0 .44 3.13l.42 1.46-.25.86a35.6 35.6 0 0 0 8.22 6.34c18.75 10.82 49.13 10.82 67.88 0a35.9 35.9 0 0 0 8.22-6.34l-.25-.86.42-1.46a11.2 11.2 0 0 0 .45-3.13v-5a35.2 35.2 0 0 1-8.84 7" style="fill:#fff;opacity:.7000000000000001"/><path d="M115.87 318.49c-15.4-8.52-40.36-8.52-55.76 0-7.68 4.25-11.53 9.82-11.54 15.39v2c0 4.82 3.74 9.55 10.55 13.31C66.75 353.38 77 355.7 88 355.7s21.24-2.32 28.87-6.54c6.81-3.76 10.55-8.49 10.55-13.31v-2c-.01-5.53-3.86-11.11-11.55-15.36" style="fill:#10b981"/><path d="M115.87 318.49c-15.4-8.52-40.36-8.52-55.76 0-7.68 4.25-11.53 9.82-11.54 15.39v2c0 4.82 3.74 9.55 10.55 13.31C66.75 353.38 77 355.7 88 355.7s21.24-2.32 28.87-6.54c6.81-3.76 10.55-8.49 10.55-13.31v-2c-.01-5.53-3.86-11.11-11.55-15.36" style="fill:#fff;opacity:.75"/><g style="opacity:.1"><path d="M63.74 336.7V228a16 16 0 0 1 1.82-7.42l4.06-7.79a16 16 0 0 0-1-16.49l-2.09-3.05a16 16 0 0 1-2.8-9.06v-9.74a16.2 16.2 0 0 1 .63-5.2 16.4 16.4 0 0 1-.65-4.58v-7.8a16.2 16.2 0 0 1 .74-4.89 16.5 16.5 0 0 1-.74-4.89c0-18.08 12.34-35.3 19.57-42.1 3.84-3.62 6.2-5.39 7.27-7.64.91-1.91.82-3 .81-6.54H71.89c0 3.83.13 4.93-.81 6.92-1.07 2.25-3.43 4-7.27 7.63-7.23 6.81-23.82 24-23.82 42.1a16.5 16.5 0 0 0 .75 4.89 16.6 16.6 0 0 0-.75 4.9v7.79a16.3 16.3 0 0 0 .66 4.58 16.2 16.2 0 0 0-.63 5.2v9.74a16 16 0 0 0 2.81 9.06l2.09 3.05a16 16 0 0 1 1 16.49L41.81 221a16 16 0 0 0-1.81 7.41v108.66c0 7.09 4.69 14.18 14.06 19.59 12.75 7.37 30.89 9.72 47.09 7.06a63.3 63.3 0 0 1-23.35-7.43c-9.38-5.41-14.06-12.5-14.06-19.59"/><path d="M121.93 259c-18.74 10.82-49.13 10.82-67.88 0C44.68 253.56 40 246.46 40 239.37V287c0 7.1 4.69 14.19 14.06 19.6 18.75 10.82 49.14 10.82 67.88 0 9.38-5.41 14.06-12.5 14.06-19.6v-47.63c0 7.09-4.69 14.19-14.07 19.63"/></g><path d="M102.1 80.5c-7.79-4.5-20.42-4.5-28.22 0-3.88 2.24-5.81 5.17-5.82 8.11v3.23c0 2.94 1.93 5.89 5.82 8.14 7.8 4.5 20.43 4.5 28.22 0 3.89-2.25 5.83-5.2 5.82-8.14v-3.2c.01-2.95-1.92-5.89-5.82-8.14" style="fill:#10b981"/><path d="M73.88 96.79c-7.79-4.5-7.79-11.79 0-16.29s20.43-4.5 28.22 0 7.79 11.79 0 16.29-20.42 4.5-28.22 0" style="fill:#10b981"/><path d="M73.88 96.79c-7.79-4.5-7.79-11.79 0-16.29s20.43-4.5 28.22 0 7.79 11.79 0 16.29-20.42 4.5-28.22 0" style="opacity:.1"/><path d="M101.7 76.33c-7.57-4.33-19.85-4.33-27.42 0-3.78 2.18-5.65 5-5.66 7.88v3.14c0 2.86 1.87 5.73 5.66 7.91 7.57 4.38 19.85 4.38 27.42 0 3.79-2.18 5.67-5.05 5.66-7.91v-3.11c.01-2.86-1.87-5.73-5.66-7.91" style="fill:#10b981"/><path d="M101.7 76.33c-7.57-4.33-19.85-4.33-27.42 0-3.78 2.18-5.65 5-5.66 7.88v3.14c0 2.86 1.87 5.73 5.66 7.91 7.57 4.38 19.85 4.38 27.42 0 3.79-2.18 5.67-5.05 5.66-7.91v-3.11c.01-2.86-1.87-5.73-5.66-7.91" style="opacity:.30000000000000004"/><path d="M74.28 92.16c-7.57-4.37-7.57-11.46 0-15.83s19.85-4.38 27.42 0 7.58 11.46 0 15.83-19.85 4.37-27.42 0" style="fill:#10b981"/><path d="M74.28 92.16c-7.57-4.37-7.57-11.46 0-15.83s19.85-4.38 27.42 0 7.58 11.46 0 15.83-19.85 4.37-27.42 0" style="opacity:.5"/><path d="M102.11 59.84c-7.79-4.5-20.42-4.5-28.22 0C70 62.08 68.08 65 68.07 68v15.29c0 2.95 1.93 5.9 5.82 8.15 7.8 4.49 20.43 4.49 28.22 0 3.89-2.25 5.83-5.2 5.82-8.15V68c.01-3-1.93-5.91-5.82-8.16" style="fill:#10b981"/><path d="M73.9 76.12c-7.79-4.49-7.79-11.78 0-16.28s20.41-4.5 28.2 0 7.79 11.79 0 16.28-20.41 4.5-28.2 0" style="fill:#fff;opacity:.2"/><path d="M68.06 68.1v15.19a7.1 7.1 0 0 0 .55 2.71 7 7 0 0 0-.55 2.94v3c0 2.94 1.93 5.89 5.82 8.14A26.8 26.8 0 0 0 84 103.12v-3.19l2.35-1.43v-3.1l.8-.6h-.8V79.45a28 28 0 0 1-12.46-3.33c-3.84-2.22-5.78-5.12-5.83-8.02" style="opacity:.15"/><path d="M121.93 262.45c-18.74 10.83-49.13 10.83-67.88 0C44.68 257 40 250 40 242.86v47.66c0 7.09 4.69 14.18 14.06 19.6 18.75 10.82 49.14 10.82 67.88 0 9.38-5.42 14.06-12.51 14.06-19.6v-47.66c0 7.14-4.69 14.14-14.07 19.59" style="fill:#10b981"/><path d="M136 278.59v-2.91c-2.12 2-4.12 4.16-6.1 6.29-2.5 2.7-5.09 5.49-7.87 7.95-10.68 9.43-22.63 12.49-36.56 9.36-10.06-2.26-19-10.91-26.39-19.08-1.56-1.72-3.06-3.48-4.52-5.18-4.56-5.35-8.93-10.4-14.56-13.91v2.46c4.87 3.31 8.82 7.94 13 12.81 1.46 1.71 3 3.48 4.55 5.22 7.59 8.4 16.82 17.34 27.45 19.72a48.4 48.4 0 0 0 10.66 1.24c10.2 0 19.35-3.67 27.74-11.08a111 111 0 0 0 8-8.09c1.6-1.64 3.05-3.25 4.6-4.8" style="fill:#fafafa"/><path d="M122.71 298.58c-12.16 10.09-25.13 10.92-37.07 8.24-10.59-2.38-20.27-10.23-27.35-18C52.11 282 47 274.77 40 270.2V287c0 7.1 4.69 14.19 14.06 19.6 18.75 10.82 49.14 10.82 67.88 0 9.38-5.41 14.06-12.5 14.06-19.6v-2c-4.46 4.35-8.4 9.52-13.29 13.58" style="fill:#fafafa"/><path d="M60.18 265.44a50 50 0 0 1-6.13-3C44.68 257 40 250 40 242.86v47.66c0 7.09 4.69 14.18 14.06 19.6a51 51 0 0 0 6.13 3Z" style="opacity:.1"/><path d="M178.93 370c2.55.9 5.31 1.7 5.68 4.37.38 2.83-1.45 4.39-2.8 7-1.54 3-3.65 5.69-5.38 8.57a26 26 0 0 0-1.81 3.49v23.78h5.51a25 25 0 0 0 1.66-3.78c3.09-7.6 10-13 17.18-16.95a90.5 90.5 0 0 1 42.52-11.36 143 143 0 0 1 15.62.81c13.26 1.28 26.63 3.44 38.73 9a73.4 73.4 0 0 1 27.6 22.26h7.43a45 45 0 0 0 2.27-5.36c.09-.28.19-.63.28-1v-8.73a10.93 10.93 0 0 1-7-3.79c-4.4-5.35-1.73-15.05 1.05-20.64.88-1.78 1.88-4.08.55-5.55a3.62 3.62 0 0 0-2.5-1c-6.44-.28-11.73 7.87-17.86 5.89-3.91-1.25-5.46-6.2-4.67-10.23s3.24-7.5 5-11.21a34.3 34.3 0 0 0 3.23-15.87c-.15-4-1.14-8.21-4-11.06s-7.85-3.73-10.83-1.06c-4.66 4.18-1.05 11.63-.16 17.82a18.43 18.43 0 0 1-30.49 16.4c-3.86-3.44-6.14-8.35-9.89-11.91s-9.93-5.25-14.11-1.64-3.74 10.48-7.06 14.87c-8.15 10.76-19 3.79-23.89-5.65-2.95-5.68-5.69-12.41-3.1-18.26 1.39-3.13 4.26-5.88 4-9.29-.23-2.69-2.57-4.89-5.19-5.55a10.4 10.4 0 0 0-9.77 3.26 17.33 17.33 0 0 0-4.18 9.76 18.5 18.5 0 0 0 .74 8.59c1.07 2.94 3.07 5.44 4.45 8.24a21.2 21.2 0 0 1 2.12 8.53 9.75 9.75 0 0 1-1.73 6.53 6.32 6.32 0 0 1-6.62 1.95 7 7 0 0 1-3.61-2.88c-.91-1.28-1.63-2.7-2.61-3.92a8.58 8.58 0 0 0-4.74-3.12 5.92 5.92 0 0 0-5.37 1.42 3.45 3.45 0 0 0-1.1 2.64 4.08 4.08 0 0 0 1.39 2.46 9.6 9.6 0 0 0 3.46 2.17" style="fill:#10b981"/><path d="M178.93 370c2.55.9 5.31 1.7 5.68 4.37.38 2.83-1.45 4.39-2.8 7-1.54 3-3.65 5.69-5.38 8.57a26 26 0 0 0-1.81 3.49v23.78h5.51a25 25 0 0 0 1.66-3.78c3.09-7.6 10-13 17.18-16.95a90.5 90.5 0 0 1 42.52-11.36 143 143 0 0 1 15.62.81c13.26 1.28 26.63 3.44 38.73 9a73.4 73.4 0 0 1 27.6 22.26h7.43a45 45 0 0 0 2.27-5.36c.09-.28.19-.63.28-1v-8.73a10.93 10.93 0 0 1-7-3.79c-4.4-5.35-1.73-15.05 1.05-20.64.88-1.78 1.88-4.08.55-5.55a3.62 3.62 0 0 0-2.5-1c-6.44-.28-11.73 7.87-17.86 5.89-3.91-1.25-5.46-6.2-4.67-10.23s3.24-7.5 5-11.21a34.3 34.3 0 0 0 3.23-15.87c-.15-4-1.14-8.21-4-11.06s-7.85-3.73-10.83-1.06c-4.66 4.18-1.05 11.63-.16 17.82a18.43 18.43 0 0 1-30.49 16.4c-3.86-3.44-6.14-8.35-9.89-11.91s-9.93-5.25-14.11-1.64-3.74 10.48-7.06 14.87c-8.15 10.76-19 3.79-23.89-5.65-2.95-5.68-5.69-12.41-3.1-18.26 1.39-3.13 4.26-5.88 4-9.29-.23-2.69-2.57-4.89-5.19-5.55a10.4 10.4 0 0 0-9.77 3.26 17.33 17.33 0 0 0-4.18 9.76 18.5 18.5 0 0 0 .74 8.59c1.07 2.94 3.07 5.44 4.45 8.24a21.2 21.2 0 0 1 2.12 8.53 9.75 9.75 0 0 1-1.73 6.53 6.32 6.32 0 0 1-6.62 1.95 7 7 0 0 1-3.61-2.88c-.91-1.28-1.63-2.7-2.61-3.92a8.58 8.58 0 0 0-4.74-3.12 5.92 5.92 0 0 0-5.37 1.42 3.45 3.45 0 0 0-1.1 2.64 4.08 4.08 0 0 0 1.39 2.46 9.6 9.6 0 0 0 3.46 2.17" style="fill:#fff;opacity:.2"/><path d="M198 369.47a4.9 4.9 0 0 0 1.47-.79c2.06-1.63 2.42-4.6 2.24-7.22a27 27 0 0 0-1.59-7.43c-.73-2-1.72-4-1.62-6.16a7.36 7.36 0 0 1 2.17-4.71c.9-.92 2.11-2 1.83-3.21-.38-1.66-2.71-1.63-4.3-2.23-2.66-1-3.54-4.57-2.59-7.25a11.9 11.9 0 0 1 2.9-4.32 12 12 0 0 0-1.76 1.51 17.33 17.33 0 0 0-4.18 9.76 18.5 18.5 0 0 0 .74 8.59c1.07 2.94 3.07 5.44 4.45 8.24a21.2 21.2 0 0 1 2.12 8.53 9.75 9.75 0 0 1-1.73 6.53Z" style="fill:#10b981"/><path d="M178.93 370c2.55.9 5.31 1.7 5.68 4.37.38 2.83-1.45 4.39-2.8 7-1.54 3-3.65 5.69-5.38 8.57a26 26 0 0 0-1.81 3.49v23.78h5.51a25 25 0 0 0 1.66-3.78c3.09-7.6 10-13 17.18-16.95a90.5 90.5 0 0 1 42.52-11.36 143 143 0 0 1 15.62.81c13.26 1.28 26.63 3.44 38.73 9a73.4 73.4 0 0 1 27.6 22.26h7.43a45 45 0 0 0 2.27-5.36c.09-.28.19-.63.28-1v-8.73a8 8 0 0 1-.85-.13 15.5 15.5 0 0 1-6.7 3.84c-5.3 1.28-9.38-2.43-13.65-5.82-11.1-8.82-24.62-14-38.46-16.53-13.21-2.45-27.16-3.13-40.46-1-14.62 2.33-28.55 7.83-41.77 14.36-2.61 1.29-5.64 2.64-8.31 1.48-2.88-1.26-3.89-5-3.19-8.08s2.66-5.65 4.31-8.32 3.08-5.76 2.54-8.85a7.64 7.64 0 0 0-4.1-5.44c-1.69-.82-3.7-1-5.15-2.23a3.23 3.23 0 0 1-.81-3.69 5 5 0 0 0-1.65 1.08 3.45 3.45 0 0 0-1.1 2.64 4.08 4.08 0 0 0 1.39 2.46 9.6 9.6 0 0 0 3.47 2.13m72.36-22.47a5.7 5.7 0 0 1 1 0c-3.42-1.61-7.53-1.83-10.54.77-4 3.5-3.74 10.48-7.06 14.87-4.08 5.39-8.84 6.33-13.19 4.74a5 5 0 0 0 .48.35 7.4 7.4 0 0 0 5 .73c5.67-.84 10.36-5.08 13.34-10a81 81 0 0 1 4.23-7.11c1.64-2.21 4-4.09 6.74-4.35m52.49-1.53a3.35 3.35 0 0 0-.19-3.57c-.85-1-2.32-1.12-3.56-1.57a7.7 7.7 0 0 1-4.48-4.72 11.86 11.86 0 0 1-.22-6.63 9 9 0 0 1 .36-1.15c-3.52 4.28-.28 11.23.56 17.06a18.92 18.92 0 0 1-9.51 18.86l-.81.39a9 9 0 0 0 1-.23c3.45-1 6.15-3.75 8.28-6.65s3.85-6.12 6.25-8.82a13.5 13.5 0 0 0 2.32-2.97m22.64 52.31c-4.4-5.35-1.73-15.05 1.05-20.64.88-1.78 1.88-4.08.55-5.55a3.62 3.62 0 0 0-2.5-1 7 7 0 0 0-.78 0c1.58 1.73.64 4.53-.41 6.66a36.6 36.6 0 0 0-3.51 9c-.62 3.18-.27 6.69 1.68 9.26a7.72 7.72 0 0 0 4.51 2.84 3.5 3.5 0 0 1-.59-.57" style="fill:#10b981"/><path d="M200.84 327.59a1.83 1.83 0 0 0-.7 1.68c.29 1.15 2 1.18 2.8 2s.72 2.5 1.74 3.18c.87.58 2.07.08 2.84-.63a5.2 5.2 0 0 0 1.53-5.18c-1.16-3.74-5.79-3.22-8.21-1.05m12.28 40.55c4.66 4.38 10.7 6.92 16.9 4.3.54-.22 1.15-.82.78-1.27 0 0-3.82.47-4.26.44-8.7-.59-15.94-8.87-18.76-16.62-.44-1.24-.82-3.7-1.84-4.6-1.25-1.08-.94.72-.81 1.56a29.4 29.4 0 0 0 1.25 5.63 27.3 27.3 0 0 0 6.72 10.54Zm34.6-16.73a3.1 3.1 0 0 0-.66 1.55 3 3 0 0 0 1.27 2.44 11 11 0 0 0 2.55 1.28 29.4 29.4 0 0 1 8.92 5.74 1.46 1.46 0 0 0 .86.49.93.93 0 0 0 .85-.85 2.5 2.5 0 0 0-.26-1.28 31.2 31.2 0 0 0-5.92-9.42c-2.12-2.36-5.51-2.68-7.61.05m50.49-22.48a2.41 2.41 0 0 0-.64 2.42 4.7 4.7 0 0 0 1.57 2.2 22.6 22.6 0 0 0 4.66 2.94 7.8 7.8 0 0 1 3.13 4.64c.09.39.23.88.63.91a.6.6 0 0 0 .39-.11 2.39 2.39 0 0 0 .85-1.82c.47-3.46.09-7-2.4-9.63a7.65 7.65 0 0 0-5.39-2.63 4.16 4.16 0 0 0-2.8 1.08m18.63 47.12a29 29 0 0 1-3.37 1.72 13.35 13.35 0 0 1-9.26.18 10.82 10.82 0 0 0 7.4 3.27 19.3 19.3 0 0 0 8.08-1.53c1.94-.77 5.11-2.62 4.22-5.2-1.07-3.1-5.52.67-7.07 1.56M178.12 362.9a1.12 1.12 0 0 0 .58.9 3.5 3.5 0 0 0 1 .36 8.5 8.5 0 0 1 1.94.81 12.6 12.6 0 0 0 1.61.88.54.54 0 0 0 .35 0 .41.41 0 0 0 .23-.28 1.87 1.87 0 0 0-.31-1.54 4.59 4.59 0 0 0-3.69-2.06 2 2 0 0 0-1.56.55.56.56 0 0 0-.15.38" style="fill:#fff;opacity:.2"/><path d="M301 332.61a18 18 0 0 0 2.5.84l2.14.6a1.15 1.15 0 0 0 .48.07.79.79 0 0 0 .6-.69c.39-2.88-4.44-6.07-6.85-4.4a1.83 1.83 0 0 0-.67 2.24 2.5 2.5 0 0 0 1 .94 8 8 0 0 0 .8.4m-96.13-2.76a2.9 2.9 0 0 1 .27 1.09c0 .55-.06 1.2.36 1.57a1 1 0 0 0 1.27 0 2.47 2.47 0 0 0 .76-1.13 4.3 4.3 0 0 0 .29-2.94 2.08 2.08 0 0 0-2.56-1.39c-1.64.49-.89 1.69-.39 2.8m44.67 22.93a1.6 1.6 0 0 0 .71.63l5.55 3.32a.54.54 0 0 0 .36.12c.21 0 .32-.26.38-.47a4 4 0 0 0-1.72-4.06c-1-.85-2.34-1.71-3.71-1.39-.85.2-2.11.77-1.57 1.85" style="fill:#fff;opacity:.2"/><circle cx="334.32" cy="325.9" r="9.71" style="fill:#10b981" transform="rotate(-85.27 334.31 325.892)"/><circle cx="334.32" cy="325.9" r="9.71" style="fill:#fff;opacity:.4" transform="rotate(-85.27 334.31 325.892)"/><path d="M334.32 316.18a9.72 9.72 0 1 0 9.68 9.72 9.4 9.4 0 0 0-.17-1.78c.57 2.87-4.05 7-9.54 4.16s-4.49-10.28.03-12.1" style="fill:#10b981"/><path d="M334.32 316.18a9.72 9.72 0 1 0 9.68 9.72 9.4 9.4 0 0 0-.17-1.78c.57 2.87-4.05 7-9.54 4.16s-4.49-10.28.03-12.1" style="fill:#fff;opacity:.2"/><path d="M342.55 331.05c-.19.24-3.57 4.33-10.05 2.19-6.69-2.21-7.12-11.37-3.5-15.47a9.71 9.71 0 1 0 13.55 13.28" style="fill:#10b981"/><path d="M335.77 322.87a15 15 0 0 1 1.33 1.44 9.63 9.63 0 0 1 1.45 5.28c.07 1.18.89 2.06 2 1.26a4 4 0 0 0 1.39-2.37 9.64 9.64 0 0 0-.46-6.57 7.67 7.67 0 0 0-3.82-3.65 2.66 2.66 0 0 0-2.95.48c-1 1.16-.41 2.56.49 3.58.21.19.39.37.57.55m.72 10.29a1 1 0 0 0 .44.72 1.2 1.2 0 0 0 .32.11 1.65 1.65 0 0 0 2-1.11 1 1 0 0 0-.95-1.32 1.83 1.83 0 0 0-1.41.62 1.34 1.34 0 0 0-.37.88s-.03.07-.03.1" style="fill:#fff;opacity:.30000000000000004"/><path d="M171.52 341.36a7.17 7.17 0 1 1-10.13.52 7.17 7.17 0 0 1 10.13-.52" style="fill:#10b981"/><path d="M171.52 341.36a7.17 7.17 0 1 1-10.13.52 7.17 7.17 0 0 1 10.13-.52" style="fill:#fff;opacity:.4"/><path d="M161.39 341.88a7.17 7.17 0 1 0 10.13-.52 6.6 6.6 0 0 0-1.06-.79c1.86 1.11 1.84 5.69-2.44 7.3s-7.88-2.62-6.63-5.99" style="fill:#10b981"/><path d="M161.39 341.88a7.17 7.17 0 1 0 10.13-.52 6.6 6.6 0 0 0-1.06-.79c1.86 1.11 1.84 5.69-2.44 7.3s-7.88-2.62-6.63-5.99" style="fill:#fff;opacity:.2"/><path d="M173.61 344.72c0 .22.61 4.1-3.77 6.6s-9.75-1.72-10.21-5.74a7.17 7.17 0 1 0 14-.86Z" style="fill:#10b981"/><path d="M165.77 344.4a9 9 0 0 1 1.45 0 7.1 7.1 0 0 1 3.62 1.81c.68.54 1.56.53 1.7-.49a3 3 0 0 0-.62-1.94 7 7 0 0 0-3.83-3 5.6 5.6 0 0 0-3.89.29 2 2 0 0 0-1.2 1.85c.13 1.13 1.21 1.49 2.21 1.5Zm6.01 4.69a.7.7 0 0 0 .61.11 1 1 0 0 0 .22-.12 1.23 1.23 0 0 0 .36-1.63.77.77 0 0 0-1.2-.13 1.4 1.4 0 0 0-.35 1.09 1 1 0 0 0 .3.63Z" style="fill:#fff;opacity:.30000000000000004"/><path d="M175.6 323.49a3.66 3.66 0 1 1-5.17.27 3.67 3.67 0 0 1 5.17-.27" style="fill:#10b981"/><path d="M175.6 323.49a3.66 3.66 0 1 1-5.17.27 3.67 3.67 0 0 1 5.17-.27" style="fill:#fff;opacity:.4"/><path d="M170.43 323.76a3.66 3.66 0 1 0 5.17-.27 3.5 3.5 0 0 0-.54-.41c.95.57.94 2.91-1.24 3.73a2.54 2.54 0 0 1-3.39-3.05" style="fill:#10b981"/><path d="M170.43 323.76a3.66 3.66 0 1 0 5.17-.27 3.5 3.5 0 0 0-.54-.41c.95.57.94 2.91-1.24 3.73a2.54 2.54 0 0 1-3.39-3.05" style="fill:#fff;opacity:.2"/><path d="M176.67 325.2a3.37 3.37 0 0 1-1.93 3.37c-2.3 1.32-5-.88-5.21-2.93a3.66 3.66 0 1 0 7.14-.44" style="fill:#10b981"/><path d="M172.67 325a6 6 0 0 1 .74 0 3.7 3.7 0 0 1 1.84.92c.35.28.8.27.87-.25a1.47 1.47 0 0 0-.31-1 3.62 3.62 0 0 0-2-1.53 2.84 2.84 0 0 0-2 .14 1 1 0 0 0-.61.95c.07.58.62.76 1.13.77Zm3.06 2.43a.32.32 0 0 0 .31.06l.12-.06a.62.62 0 0 0 .18-.83.39.39 0 0 0-.61-.07.71.71 0 0 0-.18.56.48.48 0 0 0 .15.32Z" style="fill:#fff;opacity:.30000000000000004"/><path d="M376.83 368.93a3.66 3.66 0 1 1-4.5-2.57 3.67 3.67 0 0 1 4.5 2.57" style="fill:#10b981"/><path d="M376.83 368.93a3.66 3.66 0 1 1-4.5-2.57 3.67 3.67 0 0 1 4.5 2.57" style="fill:#fff;opacity:.4"/><path d="M372.33 366.36a3.66 3.66 0 1 0 4.5 2.57 3.4 3.4 0 0 0-.24-.63c.49 1-.78 2.95-3.06 2.46a2.54 2.54 0 0 1-1.2-4.4" style="fill:#10b981"/><path d="M372.33 366.36a3.66 3.66 0 1 0 4.5 2.57 3.4 3.4 0 0 0-.24-.63c.49 1-.78 2.95-3.06 2.46a2.54 2.54 0 0 1-1.2-4.4" style="fill:#fff;opacity:.2"/><path d="M376.8 371a3.38 3.38 0 0 1-3.44 1.8c-2.65-.15-3.72-3.44-2.81-5.29a3.66 3.66 0 1 0 6.25 3.49" style="fill:#10b981"/><path d="M373.52 368.65a6 6 0 0 1 .63.39 3.75 3.75 0 0 1 1.05 1.78c.14.42.53.66.87.26a1.58 1.58 0 0 0 .27-1 3.62 3.62 0 0 0-.82-2.35 2.93 2.93 0 0 0-1.75-1 1 1 0 0 0-1 .47c-.26.52.11 1 .53 1.25Zm1.28 3.67a.36.36 0 0 0 .23.22h.13a.62.62 0 0 0 .6-.6.38.38 0 0 0-.47-.39.77.77 0 0 0-.46.37.56.56 0 0 0 0 .36Z" style="fill:#fff;opacity:.30000000000000004"/><path d="M215.34 369.73c.72-.87 2.59-4.21 3.67-5.91s6.06-11 11.82-24.81c7.4-17.81 19.39-30.81 23.16-37.47 2.24-4 4.52-8.31 6.56-12.69l37.67.78c-.09 2.74-1.29 6.22-3.33 10.22l-.06.12c-.2.39-.42.8-.64 1.2-4.45 8.32-11.95 18.33-20.31 28.43l-.2.24-.29.36c-8.05 9.76-37.69 43.75-40.1 47.52-7 11-8.38 22.94-8.55 28.89-.1 3.72-3 4.37-6.84 1-7.8-6.77-7.15-14-7.27-16.52-.63-12.71.6-16.35 4.71-21.36" style="fill:#c8856a"/><path d="M234.25 326.19c4.5-11.24 12.54-17.46 15.76-22.67s9.11-15.64 9.11-15.64l2.69.07-1.21 58.45-21.94 25.53a56.7 56.7 0 0 1-10.47-6.61 17.15 17.15 0 0 1-5.77-8.75s7.34-19.14 11.83-30.38" style="fill:#37474f"/><path d="M207.62 374.38a10 10 0 0 0-1.88 3.51c-.48 1.31 1.14 6.69 1 9.39s-.47 3.52-.87 7c-.45 3.84-2.11 7.67 3 16s10.77 11.06 15 12.71 6.59.81 6.59.81 4.47-3.13 3-5.86-25.84-43.56-25.84-43.56" style="fill:#263238"/><path d="M233.58 379.63c.1 1-.84 2.72-1.17 3.61-1.13 3-1.08 6.65-.93 9.82.69 15 8.19 20.81 1.87 28.1-1.86 2-8.33 1.89-17.61-5.32-4.74-3.69-9.18-12.61-8.86-17.24s1.52-7.89 1.59-11.41-1.95-9.52-.85-12.81a13.6 13.6 0 0 1 3.48-4.95c1.15-1.17 3.85-3 5-4.16s1.73-2.23 2.87-1.45l-1.1 2.39c-1.62 4.1-.8 4.43-.27 6.25a30.2 30.2 0 0 1 .56 6.11c1.21-2.69 1.44-4.84 3.47-5s4 .56 7.43 2.46 4.43 2.75 4.52 3.6" style="fill:#455a64"/><path d="M215.74 415.84c-4.74-3.69-9.18-12.61-8.86-17.24a40 40 0 0 1 .59-4.55v.87c.05.58.12 1.15.21 1.72a13.1 13.1 0 0 0 2.35 6.29c1.25 1.57 4.24 5.56 6.67 5.05 1.37-.29 2.18-1.91 2.32-3.56.06-.69 0-2.52 0-2.52a21.8 21.8 0 0 1 6.88 1 21.3 21.3 0 0 1 5.82 2.82 9.5 9.5 0 0 0 .66 3.08 7.75 7.75 0 0 0 2.07 2.71 5 5 0 0 0 1.06.49c.69 3.32.49 6.13-2.17 9.19-1.85 1.93-8.34 1.86-17.6-5.35" style="fill:#37474f"/><path d="M231.48 393.06a50 50 0 0 0 2 11.62c-.39 4-1.57 4.16-2.2 2.31s-.1-10.34.13-17.3c-.01 1.15.02 2.31.07 3.37m-16.22-21.52a8.2 8.2 0 0 1 .08-5.57c.3-.25.58-.49.8-.7 1.29-1.23 1.73-2.23 2.87-1.45l-1.1 2.39c-1.62 4.1-.8 4.43-.27 6.26a30 30 0 0 1 .56 6.1c.11 6.56-.69 9 .1 15s3 9.66 2.22 10.2-2.58.29-4.07-4.32-1.41-13-.9-17.1.64-8.35-.29-10.81" style="fill:#37474f"/><path d="M231.9 406.58a.63.63 0 0 1-.35-.11 19.67 19.67 0 0 0-12.49-4 .59.59 0 0 1-.63-.57.62.62 0 0 1 .58-.63 21 21 0 0 1 13.24 4.19.61.61 0 0 1 .14.84.63.63 0 0 1-.49.28m.1-4.68a.6.6 0 0 1-.36-.12 21.64 21.64 0 0 0-13.11-4.34.62.62 0 1 1 0-1.23 22.94 22.94 0 0 1 13.85 4.56.63.63 0 0 1-.36 1.13Zm0-4.9a.65.65 0 0 1-.39-.13 24 24 0 0 0-14.46-4.78.68.68 0 0 1 0-1.36 25.4 25.4 0 0 1 15.27 5A.68.68 0 0 1 232 397m-.7-4.87a.6.6 0 0 1-.38-.12 23.6 23.6 0 0 0-14.18-4.69.67.67 0 0 1 0-1.33 24.82 24.82 0 0 1 15 4.93.67.67 0 0 1 .16.93.66.66 0 0 1-.6.28m.55-4.89a.7.7 0 0 1-.38-.12 23.46 23.46 0 0 0-14.18-4.69.67.67 0 1 1 0-1.33 24.86 24.86 0 0 1 15 4.93.67.67 0 0 1 .16.93.66.66 0 0 1-.6.28" style="fill:#ebebeb"/><path d="M267.15 401.78c.33-25 8.36-89.56 6-109.39l-37.8-.45a164 164 0 0 1 3.9 26.72c.62 8.23-2 27 1.83 47.4 3 15.81 4.35 29.42 4.46 36.8.11 7 .39 10.86 8 21.88 1.48 2.13 5 9 15.28 10.35 5 .66 7.09-1.68 5.09-5.06-3.16-5.41-6.97-12.78-6.76-28.25" style="fill:#c8856a"/><path d="M242.64 419.45a11 11 0 0 0 .67 4.26c.45 1.44 5.37 5 7.07 7.42s1.9 3.35 3.82 6.62c2.14 3.61 3.21 8 13 11.85s16.56 2.5 21.27 1.17 6.21-3.62 6.21-3.62 1.82-5.63-1.26-7-50.78-20.7-50.78-20.7" style="fill:#263238"/><path d="M268.51 407c.72.77 1.06 2.9 1.35 3.89 1 3.33 3.44 6.45 5.64 9.09 10.43 12.5 20.72 12.61 20 23.05-.33 2.92-6 7.1-18.71 6.95-6.51-.07-16.19-4.88-18.95-9.08S254 433 251.77 430s-7.93-6.95-9.13-10.51a14.7 14.7 0 0 1-.24-6.57c.23-1.76 1.35-5.12 1.63-6.89s0-3.06 1.53-3.13l.62 2.78c1.28 4.6 2.21 4.35 3.86 5.58s3.05 3.27 4.48 4.91c-.72-3.12-1.92-5.13-.27-6.58s3.81-2.14 8-2.75 5.63-.56 6.26.16" style="fill:#455a64"/><path d="M276.83 449.94c-6.51-.07-16.19-4.88-18.95-9.08a45 45 0 0 1-2.48-4.33c.21.25.41.54.6.74.42.46.86.92 1.31 1.35a14.26 14.26 0 0 0 6.15 3.9c2.12.53 7.31 2 9.07 0 1-1.15.64-3.08-.32-4.6-.41-.64-1.67-2.17-1.67-2.17a23.6 23.6 0 0 1 6.58-3.67 23.1 23.1 0 0 1 6.87-1.38 10.6 10.6 0 0 0 2.6 2.23 8.36 8.36 0 0 0 3.56 1 5.4 5.4 0 0 0 1.24-.28c2.77 2.42 4.43 5 4.15 9.36-.33 2.9-5.96 7.08-18.71 6.93" style="fill:#37474f"/><path d="M275.5 419.94a53.8 53.8 0 0 0 9.34 8.73c2.28 3.7 1.38 4.63-.38 3.44s-6.87-8.86-11.23-15c.77.97 1.52 1.89 2.27 2.83M247.38 412a8.87 8.87 0 0 1-3.58-4.86c.09-.41.18-.8.23-1.13.3-1.91 0-3.06 1.53-3.13l.62 2.78c1.28 4.6 2.21 4.35 3.86 5.58s3.05 3.27 4.48 4.91c4.4 5.59 5.28 8.2 9.92 12.88s8.88 6.4 8.6 7.35-2 1.95-6.35-1.06S257 425 254.7 421.11s-4.93-7.64-7.32-9.11" style="fill:#37474f"/><path d="M270.61 436.39a.6.6 0 0 0 .35-.15 21.43 21.43 0 0 1 13.39-4.76.65.65 0 1 0 0-1.3 22.64 22.64 0 0 0-14.18 5.06.65.65 0 0 0-.09.92.67.67 0 0 0 .53.23m-3.75-4.05a.64.64 0 0 0 .35-.14 23.63 23.63 0 0 1 14.17-4.85.65.65 0 0 0 .65-.69.67.67 0 0 0-.69-.65 24.92 24.92 0 0 0-15 5.14.67.67 0 0 0-.11.94.66.66 0 0 0 .63.25m-4.76-3.66a.73.73 0 0 0 .38-.15 26 26 0 0 1 15.63-5.35.74.74 0 1 0-.05-1.47 27.45 27.45 0 0 0-16.5 5.66.74.74 0 0 0-.12 1 .73.73 0 0 0 .66.31m-3.47-3.88a.67.67 0 0 0 .37-.15 25.5 25.5 0 0 1 15.33-5.24.73.73 0 0 0 .69-.75.72.72 0 0 0-.74-.7 26.92 26.92 0 0 0-16.17 5.55.72.72 0 0 0-.12 1 .71.71 0 0 0 .64.29m-2.73-4.59a.67.67 0 0 0 .37-.15 25.46 25.46 0 0 1 15.33-5.24.73.73 0 1 0-.05-1.45 27 27 0 0 0-16.17 5.55.72.72 0 0 0-.12 1 .71.71 0 0 0 .64.29" style="fill:#ebebeb"/><path d="M303.23 276c.28-10.19.81-22.69-.45-45.1-1.54-27.62-6.5-38.8-7.49-43.8-11 7.32-44.53 4-61.43-1.76-2.11 3.3-5 8.94-7.92 21-2.89 11.69-5 22.19-2.19 39.1 1.92 11.45 6.68 40.49 10.17 56.18s1.45 28.19 1.45 36.64c0 14 4.79 29.85 9 53.3 0 0 3.64 2.91 10.94 2.91a33.1 33.1 0 0 0 12.79-2.57l5.61-57.9s9.09-10.61 15.62-19 13.37-19.77 13.9-39" style="fill:#455a64"/><path d="M273.71 334c2.12-20.24 2.32-28.22 2.32-41 0-14.89-4.17-61.75-4.17-61.75s12.09-4.63 18-15.09c-4 13.4-13.43 18.06-13.43 18.06s2.11 43.56 1.52 66-4.24 33.78-4.24 33.78" style="fill:#37474f"/><path d="M181.56 164v-.57a1.24 1.24 0 0 0 0 .57m89.5-36a37.7 37.7 0 0 0-.65-23.34c-2.21-6.12-6-11.55-8.57-17.51s-4-13-1.25-18.88c.87-1.87 2.14-3.65 2.21-5.71s-1.94-4.31-3.82-3.47l-30.16 2.26c-10.11 4.83-12 16-11.5 26.62.44 9.93-.2 20.08-3.06 29.6a22.3 22.3 0 0 1-4 8.06c-5.29 6.26-14.6 7.19-22.75 6.26A35.3 35.3 0 0 0 200.3 135c-11.65 3.83-19.79 16.25-18.77 28.45.15-1 1.51-1.72 2.66-1.86 6.12-.73 11.71 3.16 17 6.34 20.65 12.42 47.63 15.71 69.06 4.69a32.35 32.35 0 0 1-5.69-27.24c1.51-6.03 4.73-11.47 6.5-17.38" style="fill:#263238"/><path d="M272.74 114.74c11.93-2 15.63-1.14 24.74 1 5.94 1.41 22 5.72 22.22 5.82-2.65-9.66-5.85-17.55-7.78-20.45l-2.74-11.3a2.27 2.27 0 0 0 .47-1.93c-.25-1-.35-2.07-.51-3.11a64 64 0 0 0-1.42-6.86 41 41 0 0 0-2.24-6c-.74-1.65-1.22-4.23 1.25-4.52a8.8 8.8 0 0 1 1.84.25c1.21.1 2.15-.76 3.22-1.06s2.18.59 3.14 1a11.3 11.3 0 0 0 2.78.41 8.4 8.4 0 0 1 2.49 1.4 10.34 10.34 0 0 1 3.29 3.45 22 22 0 0 1 1.51 2.84 32 32 0 0 1 1.94 5.64 60 60 0 0 1 1.52 8.83c.19 2 0 4 .31 6s.7 3.3 2.41 6.55c1.27 2.43 4.84 9.5 9 17.23 2.79 5.19 9.48 15.14 7.29 22.19s-8.5 6.48-19.65 5.34-42.2-6.5-42.2-6.5Z" style="fill:#c8856a"/><path d="M319.7 121.59c1.6 5.67 2.6 11.77 6.57 16.91 0 0-7.29-4.32-11-18.13Z" style="fill:#b16668"/><path d="M260.88 203.55c-23.71 0-31.66-7.42-31.74-7.49-1.26-1.18-.13-4 1.19-7.26 1.43-3.55 3.21-8 2.63-12.16s-2.41-7.38-4.75-11.46c-1.18-2.06-2.52-4.41-3.91-7.24-4.45-8.52-5.64-17.6-3.27-24.92A16.5 16.5 0 0 1 229 123l23.57-5.83 20-2c1.87 1.52 19.76 16.19 24.68 27.27 5.13 11.57-3.14 21-3.22 21.07l-.08.08v.11c-1.08 3.59.24 9.57 1.51 15.35 1.24 5.62 2.52 11.43 1 13.31v.12c0 .1-4.61 10-31.38 10.92-1.39.05-2.77.07-4.1.07Z" style="fill:#fafafa"/><path d="M272.43 115.77c2.53 2.06 19.62 16.24 24.37 27 5 11.26-2.8 20.15-3.14 20.52l-.15.17-.06.21c-1.11 3.72.22 9.76 1.5 15.61 1.16 5.25 2.47 11.19 1.1 12.89l-.08.11-.06.12c0 .1-4.59 9.74-30.94 10.62-1.38.05-2.75.07-4.09.07-23.44 0-31.32-7.28-31.4-7.36-1-.94.12-3.74 1.31-6.71 1.45-3.6 3.26-8.09 2.67-12.41s-2.45-7.51-4.81-11.63c-1.18-2.07-2.52-4.4-3.92-7.24-4.38-8.39-5.55-17.33-3.22-24.53a16.07 16.07 0 0 1 7.64-9.66l23.45-5.8 19.83-1.94m.31-1-20.31 2-23.63 5.84c-9.36 4.68-13.17 19.87-5 35.6 4.15 8.46 7.78 12.43 8.62 18.55 1.1 8-6.72 16.86-3.68 19.71 0 0 7.83 7.63 32.09 7.63 1.33 0 2.7 0 4.13-.07 27.51-.92 31.82-11.23 31.82-11.23 3.24-4-4.56-21.71-2.42-28.83 0 0 8.63-9.58 3.31-21.6s-25-27.58-25-27.58Z" style="fill:#e0e0e0"/><path d="M247.33 165.08a18.33 18.33 0 0 0 16.38 7.4 18.1 18.1 0 0 0 14.19-9.28s-1.51 11.44-15.13 12.16-15.44-10.28-15.44-10.28" style="opacity:.1"/><path d="M240.87 107.53a23.7 23.7 0 0 0-5.3-6.4c-5-3.74-10.69-9.94-11.81-15.73-1.88-9.74-.69-17.49 5.06-24.06 6.29-17.42 51.14-16.73 45.76 13.39Z" style="fill:#263238"/><path d="M262 64.57a15.2 15.2 0 0 1 4 .47 11.76 11.76 0 0 1 6.16 3.9c1.23 1.45 1.71 3.57 2.31 5.35a85 85 0 0 1 2.35 8.9c3.23 14.73-.63 19.5-2.76 21.13s-6.69 2.91-11.34 3.25l-.21 10.9s9 7.68 7.64 15.5c-20.7-.88-29.45-12.52-29.45-12.52l.3-21.93a5.16 5.16 0 0 1-5.92 1.46 9 9 0 0 1-6.14-8.53 8 8 0 0 1 .53-3 4.88 4.88 0 0 1 3.74-2.79 5.4 5.4 0 0 1 3.38.66c.85.48 1.55 1.68 2.68 1.33s1.16-1.88 1-2.9a7.3 7.3 0 0 1 .17-4.06 31 31 0 0 1 1.62-2.69 11.35 11.35 0 0 0-.74-12.38 14.5 14.5 0 0 0 6.09.61c1.93-.36 3.88-.79 5.8-1.25a39 39 0 0 1 8.79-1.41" style="fill:#c8856a"/><path d="m260.78 75.67 4.37 13.99 6.54-4.86zm1.91 31.9c-4.24.18-13-.14-18.41-6.33a15.14 15.14 0 0 0 4.83 6.36c4.82 3.27 13.5 4 13.5 4Z" style="fill:#b16668"/><path d="m253.49 74.77-3.59 4.28a2.93 2.93 0 0 1-.34-4 2.73 2.73 0 0 1 3.93-.28m18.03-2.45-5.52-.95a2.7 2.7 0 0 1 3.12-2.37 3 3 0 0 1 2.4 3.32m-12.69 8.8a2.29 2.29 0 0 0-2.08-.72 4.5 4.5 0 0 0-1.78.53 3.43 3.43 0 0 0-1.5 1.75 3.2 3.2 0 0 0-.14 1.37c0 .31.54-.39.6-.47a4.74 4.74 0 0 1 2.07-1.69 3.9 3.9 0 0 1 1.29-.36 9 9 0 0 1 1.27 0c.32-.03.49-.12.27-.41m8.56-2.25a2.3 2.3 0 0 1 1.34-1.74 4.5 4.5 0 0 1 1.79-.52 3.37 3.37 0 0 1 2.21.65 3.1 3.1 0 0 1 .86 1.07c.13.28-.66 0-.76-.07a4.83 4.83 0 0 0-2.66-.29 4.2 4.2 0 0 0-1.27.4 12 12 0 0 0-1.08.67c-.27.18-.46.19-.43-.17" style="fill:#263238"/><path d="M265.29 93.58a1.77 1.77 0 0 0-.61 1.37 1.36 1.36 0 0 0 .85 1.2 1.22 1.22 0 0 0 1.16-.21 1.29 1.29 0 0 0 .12-1.71 1 1 0 0 0-.88-.35.88.88 0 0 1 .6-.74 1.56 1.56 0 0 0-1.24.44" style="fill:#b16668"/><path d="m283.46 89.67-1.38.51a1 1 0 0 1-.25.06 1.94 1.94 0 0 1-1.51-.56 5 5 0 0 1-1.32-1.92 5.37 5.37 0 0 1-.39-2.89 2.4 2.4 0 0 1 .38-1 1.25 1.25 0 0 1 .43-.4.6.6 0 0 1 .22-.11l1.4-.52a1.78 1.78 0 0 1 1.74.5l.17.14a5.69 5.69 0 0 1 1.56 4.67 1.79 1.79 0 0 1-1.05 1.52" style="fill:#10b981"/><path d="m283.46 89.67-1.38.51a1 1 0 0 1-.25.06 1.94 1.94 0 0 1-1.51-.56 5 5 0 0 1-1.32-1.92 5.37 5.37 0 0 1-.39-2.89 2.4 2.4 0 0 1 .38-1 1.25 1.25 0 0 1 .43-.4.6.6 0 0 1 .22-.11l1.4-.52a1.78 1.78 0 0 1 1.74.5l.17.14a5.69 5.69 0 0 1 1.56 4.67 1.79 1.79 0 0 1-1.05 1.52" style="opacity:.2"/><path d="M283.48 89.66c-1.08.39-2.51-.82-3.18-2.7s-.34-3.72.74-4.1 2.5.82 3.17 2.7.35 3.72-.73 4.1" style="fill:#10b981"/><path d="M282.69 87.47c-.38.14-.89-.29-1.13-1s-.12-1.32.26-1.46.89.29 1.13 1 .12 1.32-.26 1.46" style="fill:#10b981;opacity:.5"/><path d="M282.69 87.47c-.38.14-.89-.29-1.13-1s-.12-1.32.26-1.46.89.29 1.13 1 .12 1.32-.26 1.46" style="opacity:.30000000000000004"/><path d="m287.94 87.33-4.08 1.46a.7.7 0 0 1-.2 0 1.56 1.56 0 0 1-1.21-.44 4 4 0 0 1-1.06-1.55 4.23 4.23 0 0 1-.32-2.32 1.85 1.85 0 0 1 .31-.78 1.1 1.1 0 0 1 .34-.33.8.8 0 0 1 .18-.08l4.1-1.42a1.46 1.46 0 0 1 1.4.4l.13.12a4.54 4.54 0 0 1 1.25 3.74 1.4 1.4 0 0 1-.84 1.2" style="fill:#10b981"/><path d="m287.94 87.33-4.08 1.46a.7.7 0 0 1-.2 0 1.56 1.56 0 0 1-1.21-.44 4 4 0 0 1-1.06-1.55 4.23 4.23 0 0 1-.32-2.32 1.85 1.85 0 0 1 .31-.78 1.1 1.1 0 0 1 .34-.33.8.8 0 0 1 .18-.08l4.1-1.42a1.46 1.46 0 0 1 1.4.4l.13.12a4.54 4.54 0 0 1 1.25 3.74 1.4 1.4 0 0 1-.84 1.2" style="opacity:.35000000000000003"/><path d="M288 87.33c-.86.31-2-.66-2.54-2.17s-.28-3 .59-3.29 2 .66 2.54 2.17.23 2.96-.59 3.29" style="fill:#10b981"/><path d="M287.32 85.57c-.31.11-.71-.24-.9-.77s-.1-1.06.21-1.17.71.23.9.77.1 1.06-.21 1.17" style="fill:#10b981;opacity:.5"/><path d="M287.32 85.57c-.31.11-.71-.24-.9-.77s-.1-1.06.21-1.17.71.23.9.77.1 1.06-.21 1.17" style="opacity:.30000000000000004"/><path d="m286 74.88-.93.33c-1.33.46-2.35 1.81-2.75 3.93a14.9 14.9 0 0 0 4.5 12.7 6.4 6.4 0 0 0 2.41 1.36 3.6 3.6 0 0 0 2.18 0l1-.34a2.6 2.6 0 0 0 .58-.29 5.06 5.06 0 0 0 2.16-3.64 1 1 0 0 0 0-.15 15 15 0 0 0-4.52-12.55 5.14 5.14 0 0 0-4-1.48 2.5 2.5 0 0 0-.63.13" style="fill:#37474f"/><path d="m283.71 85 3.3-1.17c1.31-.46-.58-.17.23 2.12.71 2 5.92 2.14 7.85 2.85a1 1 0 0 1 0 .15 5.06 5.06 0 0 1-2.16 3.64 2.6 2.6 0 0 1-.58.29l-1 .34a3.6 3.6 0 0 1-2.18 0 6.4 6.4 0 0 1-2.41-1.36 14.9 14.9 0 0 1-4.5-12.7c-.09 2.84.2 6.23 1.45 5.84" style="fill:#263238"/><path d="M287.73 91.49c3.26 2.79 6.55 1.63 7.33-2.59a14.92 14.92 0 0 0-4.49-12.7c-3.27-2.79-6.55-1.63-7.33 2.6a14.84 14.84 0 0 0 4.49 12.69" style="fill:#10b981"/><path d="m289.06 73.77-1.85.66a3.4 3.4 0 0 0-.61.29 5.16 5.16 0 0 0-2.15 3.65 13.2 13.2 0 0 0 .5 6.14 14.07 14.07 0 0 0 4 6.56 6.5 6.5 0 0 0 2.41 1.36 3.55 3.55 0 0 0 1.54.11 2.6 2.6 0 0 0 .63-.14l1.9-.68c1.34-.47 2.35-1.81 2.75-3.92 0-.19.06-.37.08-.57a15 15 0 0 0-4.58-12.13c-1.68-1.4-3.29-1.81-4.62-1.33" style="fill:#37474f"/><path d="M290.88 90.38c3.27 2.79 6.55 1.63 7.33-2.6a14.84 14.84 0 0 0-4.49-12.69c-3.26-2.79-6.54-1.63-7.33 2.59a14.92 14.92 0 0 0 4.49 12.7" style="fill:#455a64"/><path d="M291.36 92.43a6.5 6.5 0 0 1-2.36-1.36 14.07 14.07 0 0 1-4-6.56c.64-.26 1-.8 2.29 1.39 1.07 1.82 2.9 4.42 5.52 5 2.4.55 4.73-1.08 5.5-3.68 0 .2-.05.38-.08.57-.4 2.11-1.41 3.45-2.75 3.92l-1.9.68a2.6 2.6 0 0 1-.63.14 3.55 3.55 0 0 1-1.59-.1" style="opacity:.2"/><path d="M334.87 81.92 302 93.43c-1.86.65-4.15.07-6.43-1.89a12.6 12.6 0 0 1-1.41-1.42 3.4 3.4 0 0 0-.71-.6 7 7 0 0 1-.94-.67 12.92 12.92 0 0 1-3.9-11 5.6 5.6 0 0 1 .25-1c0-.1.07-.2.1-.29a3.2 3.2 0 0 0 .15-.83 13 13 0 0 1 .22-2c.56-2.95 2-4.84 3.85-5.49L326 56.74c1.86-.66 4.16-.08 6.44 1.88 4.56 3.92 7.35 11.9 6.24 17.81-.52 2.95-1.95 4.83-3.81 5.49" style="fill:#10b981"/><path d="M334.87 81.92 302 93.43c-1.86.65-4.15.07-6.43-1.89a12.6 12.6 0 0 1-1.41-1.42 3.4 3.4 0 0 0-.71-.6 7 7 0 0 1-.94-.67 12.92 12.92 0 0 1-3.9-11 5.6 5.6 0 0 1 .25-1c0-.1.07-.2.1-.29a3.2 3.2 0 0 0 .15-.83 13 13 0 0 1 .22-2c.56-2.95 2-4.84 3.85-5.49L326 56.74c1.86-.66 4.16-.08 6.44 1.88 4.56 3.92 7.35 11.9 6.24 17.81-.52 2.95-1.95 4.83-3.81 5.49" style="opacity:.2"/><path d="M300.48 91.61a5.68 5.68 0 0 1-3.54-1.61 10.4 10.4 0 0 1-1.2-1.19 5 5 0 0 0-1.18-1 4.7 4.7 0 0 1-.7-.5 10.78 10.78 0 0 1-3.2-9.08 3.6 3.6 0 0 1 .16-.65l.13-.34a6 6 0 0 0 .24-1.4 11.5 11.5 0 0 1 .19-1.69c.39-2.06 1.3-3.48 2.5-3.91l7.5-2.63c.74-.26 1.69-.61 2.48-.87a17 17 0 0 1 4.26-1.08 5.78 5.78 0 0 1 3.54.6 18 18 0 0 1 2.2 1.61 12.1 12.1 0 0 0 5.91 2.36 12 12 0 0 1 2.41.36c1.28.43 2.26 1.47 3.45 2.11 2.33 1.26 4.91.64 7.37 1a4.4 4.4 0 0 1 2 .58 3.23 3.23 0 0 1 1.22 3.12 3.2 3.2 0 0 1-2.04 2.6h.13c-.28.07-2.81 1-33 11.53a2.5 2.5 0 0 1-.83.08" style="fill:#fff;opacity:.4"/><path d="M337.63 75.94c-1 5.4-5.16 6.86-9.31 3.27s-6.7-10.89-5.7-16.29 5.16-6.85 9.3-3.26 6.71 10.89 5.71 16.28" style="opacity:.2"/><path d="m302 93.43 11.39-4 21.47-7.53c1.86-.65 3.29-2.53 3.85-5.48a14 14 0 0 0 .19-1.42v-2c0-.52-.07-1.06-.14-1.6v-.29c-.06-.49-.15-1-.25-1.49v-.15a24 24 0 0 0-1.07-3.47 23 23 0 0 0-1.59-3.27c4.28 10 .81 14-2.33 15.08l-32.17 11.3a5 5 0 0 1-1.87.35 5.3 5.3 0 0 1-2.31-.86 13.4 13.4 0 0 0-3.5-1.9 8.8 8.8 0 0 0-3.24-.4 10.4 10.4 0 0 0 2.09 2.55 7 7 0 0 0 .94.67 3.4 3.4 0 0 1 .71.6 12.6 12.6 0 0 0 1.41 1.42c2.28 1.96 4.57 2.54 6.42 1.89" style="opacity:.15"/><path d="M288.61 79.31h-.14a8.7 8.7 0 0 1 .15-1.55 5.6 5.6 0 0 1 .25-1c0-.1.07-.2.1-.29a3.2 3.2 0 0 0 .15-.83 13 13 0 0 1 .22-2c.56-2.95 2-4.84 3.85-5.49L326 56.74c2-.69 4.18-.09 6.46 1.87a15 15 0 0 1 1.92 2c-3.36-3.43-6.88-3.23-9.1-2.45l-25.59 9a57 57 0 0 0-7.3 2.73c-1.2.69-2.26 3.57-2.56 5.24-.07.38-.12.7-.16.93-.14 1.19-.05 2.94-1.06 3.25" style="fill:#fff;opacity:.4"/><path d="M299.46 90a9 9 0 0 1 5.14.65 5.5 5.5 0 0 0 3.6.69c.51-.15 1.31-.49 1.31-.49l2.74 10.88c-2.08-2-5.74-2.77-7.65-4.68s-6-4-6.66-4.65c-1.51-1.4.5-2.28 1.52-2.4" style="fill:#c8856a"/><path d="M221.46 232.56c-1.64-1.5-3.69-2.77-4.51-4.93a3.81 3.81 0 0 1 .24-3.42 1.8 1.8 0 0 0 .35-.65 1.4 1.4 0 0 0-.09-.61 4.13 4.13 0 0 1 0-2.53 2.58 2.58 0 0 1 1.48-1.5 6.07 6.07 0 0 1-.3-3.81c.37-1.48 1.75-2.77 2.87-1.24a13.5 13.5 0 0 1 1.36 2.43 30 30 0 0 1 2 6.61c.46 2.37 1.63 9.07-2 9.72-.35.05-1.17.14-1.4-.07" style="fill:#b16668"/><path d="M228.8 122.56c-14.22 3.39-14.92 7.8-22.37 20.23-7.35 12.27-17.66 28.88-19.8 34.8-2.66 7.33-3.11 10.09 5.08 16.92 4.23 3.53 10.06 7.65 16 12.36 4.71 3.72 10.33 7.61 14.91 11.48a3.86 3.86 0 0 1 1.66 3.77 27 27 0 0 0-.49 2.92 24.4 24.4 0 0 0 .63 3.76 3.31 3.31 0 0 1-1.2 3.39 3.74 3.74 0 0 1-1.79.37 13 13 0 0 0 3.65 1.59 5.3 5.3 0 0 0 3.87-.48c1.11-.66 1.88-1.83 3.08-2.31.65-.26 1.37-.29 2-.53a3.35 3.35 0 0 0 1.66-1.3c.63-.95.81-2.25 1.75-2.88A14 14 0 0 1 239 226a3.43 3.43 0 0 0 1.68-2.71 9.5 9.5 0 0 0-.37-3.3 83 83 0 0 0-2.57-8.56 8.7 8.7 0 0 0-1.64-2.56c-.76-.9-1.48-1.84-2.28-2.69C228.36 200.38 211 181 211 181l19.85-26s8.98-12.94-2.05-32.44" style="fill:#c8856a"/><path d="M221.46 232.56c2.64 1.65 6.42 2.66 8.72-.05a5.6 5.6 0 0 1 2-1.4c1.59-.33 3.12-.73 3.7-2.4a5.6 5.6 0 0 1 1.28-2.15c.75-.58 1.61-.58 2.12-1.1a3.33 3.33 0 0 0 1-1.93c.19-3.78-1.66-7.89-2.75-11.53-.77-2.28-2.7-3.85-4.14-5.73l-3.23-3.6C224 195.72 217.11 188 211 181c6.37 6.76 13.37 14.4 19.66 21.31l3.25 3.58c1.49 1.89 3.54 3.57 4.28 5.94s1.5 4.62 2.1 7a12.05 12.05 0 0 1 .61 4.88 3.83 3.83 0 0 1-1.23 2.23c-.69.62-1.63.64-2.16 1.08a5.1 5.1 0 0 0-1.18 2 3.78 3.78 0 0 1-1.65 1.88 10.5 10.5 0 0 1-2.35.68c-1.53.48-2.41 2.13-4 2.64-2.4.85-4.89-.29-6.9-1.54Z" style="fill:#b16668"/><path d="M211 181c-3.95 4.63-10.64 5.56-13.13 5.63a14.23 14.23 0 0 0 14.7-3.88Z" style="fill:#b16668"/><path d="M184.57 445.93c-8.6-7.52-11.92-14.86-14.08-25.75-1.13-5.69-7-8.79-6.35-14.76.37-3.58 2.16-6.83 3.24-10.26a26.5 26.5 0 0 0 1-10.84 11.2 11.2 0 0 0-1.29-4.43c-2.83-4.78-8.45-2.78-13.1-2.66-3.92.1-9-.24-11.17-4a8.34 8.34 0 0 1 .71-9.1c1.94-2.41 5.37-3 8.46-2.86 17.24.93 25.37 17.27 26.07 33 .22 5.12-.16 10.46 1.94 15.13 4.54 10.06 16.91 2.35 20.74 12.57 1 2.7 1.25 5.63 2 8.43a21 21 0 0 0 9.75 13 6.46 6.46 0 0 0 6.19.43 6.68 6.68 0 0 0 2.7-3.07c2.21-4.59.9-10 .11-15s-.62-11 3.4-14.14c4.45-3.46 9.5-2 12.93 2.08 3.82 4.55 1.8 7.77-.14 13.09a39.4 39.4 0 0 0-2.1 8.78c-.44 3.64 0 8 3.19 9.87 3.39 2 7.7-.26 10.49-3 1.63-1.62 3.31-6.67 5.88-7.16 4.33-.83 6.23 10.42 9.15 13.21 2.72 2.6 7 4 10.33 2.31 2.36-1.17 3.85-3.54 5.15-5.84a144.3 144.3 0 0 0 10.8-23.96c.77-2.23 1.56-4.59 3.33-6.14s4.87-1.86 6.28 0c.43.56.66 1.26 1.11 1.8 1.28 1.54 3.88 1.19 5.38-.14s2.19-3.31 2.95-5.17a51.1 51.1 0 0 1 14.64-20c1.55-1.28 4.72-1.87 4.85.14a3.06 3.06 0 0 1-.8 1.85 24.6 24.6 0 0 0-4.44 11.46c-.11 1-.09 2.12.71 2.68 1 .68 2.27 0 3.2-.74a35.8 35.8 0 0 0 12.39-18.67c1.81-6.64 1.95-14.31 6.83-19.17 5.36-5.33 15.58-4.2 19.66 2.16 1.51 2.35 2.18 5.47.92 8-1.63 3.23-5.64 4.25-9 5.54-7.95 3.05-14.36 9.36-18.74 16.67s-6.88 15.58-8.69 23.91a31.7 31.7 0 0 1-5.1 12.42c-12.42 16.7-33 30.63-72.81 30.63s-63.48-17.76-68.67-22.3" style="fill:#10b981"/><path d="M184.57 445.93c-8.6-7.52-11.92-14.86-14.08-25.75-1.13-5.69-7-8.79-6.35-14.76.37-3.58 2.16-6.83 3.24-10.26a26.5 26.5 0 0 0 1-10.84 11.2 11.2 0 0 0-1.29-4.43c-2.83-4.78-8.45-2.78-13.1-2.66-3.92.1-9-.24-11.17-4a8.34 8.34 0 0 1 .71-9.1c1.94-2.41 5.37-3 8.46-2.86 17.24.93 25.37 17.27 26.07 33 .22 5.12-.16 10.46 1.94 15.13 4.54 10.06 16.91 2.35 20.74 12.57 1 2.7 1.25 5.63 2 8.43a21 21 0 0 0 9.75 13 6.46 6.46 0 0 0 6.19.43 6.68 6.68 0 0 0 2.7-3.07c2.21-4.59.9-10 .11-15s-.62-11 3.4-14.14c4.45-3.46 9.5-2 12.93 2.08 3.82 4.55 1.8 7.77-.14 13.09a39.4 39.4 0 0 0-2.1 8.78c-.44 3.64 0 8 3.19 9.87 3.39 2 7.7-.26 10.49-3 1.63-1.62 3.31-6.67 5.88-7.16 4.33-.83 6.23 10.42 9.15 13.21 2.72 2.6 7 4 10.33 2.31 2.36-1.17 3.85-3.54 5.15-5.84a144.3 144.3 0 0 0 10.8-23.96c.77-2.23 1.56-4.59 3.33-6.14s4.87-1.86 6.28 0c.43.56.66 1.26 1.11 1.8 1.28 1.54 3.88 1.19 5.38-.14s2.19-3.31 2.95-5.17a51.1 51.1 0 0 1 14.64-20c1.55-1.28 4.72-1.87 4.85.14a3.06 3.06 0 0 1-.8 1.85 24.6 24.6 0 0 0-4.44 11.46c-.11 1-.09 2.12.71 2.68 1 .68 2.27 0 3.2-.74a35.8 35.8 0 0 0 12.39-18.67c1.81-6.64 1.95-14.31 6.83-19.17 5.36-5.33 15.58-4.2 19.66 2.16 1.51 2.35 2.18 5.47.92 8-1.63 3.23-5.64 4.25-9 5.54-7.95 3.05-14.36 9.36-18.74 16.67s-6.88 15.58-8.69 23.91a31.7 31.7 0 0 1-5.1 12.42c-12.42 16.7-33 30.63-72.81 30.63s-63.48-17.76-68.67-22.3" style="fill:#fff;opacity:.4"/><path d="M253.05 465.81c-20.46-1.19-43.44-8.32-60.07-20.29a40.18 40.18 0 0 1-14.69-20.16c-1.58-4.72-.69-8.07-4.08-11.72-2.12-2.27-5.73-3.77-7.37-6.48-1.37-2.28-1.23-5.43-.91-8.08a25 25 0 0 0-1.79 6.34c-.61 6 5.22 9.07 6.35 14.76 2.16 10.89 5.48 18.23 14.08 25.75 5.19 4.54 28.83 22.28 68.64 22.28 15.27 0 27.7-2 37.94-5.53-12.61 2.32-25.33 3.87-38.1 3.13m-15-16.65c2.77 1.15 6.08.07 8.25-2a14.6 14.6 0 0 0 3.37-5.3 4 4 0 0 1-.41.49c-2.79 2.76-7.1 5-10.5 3-3.17-1.83-3.62-6.23-3.18-9.87.07-.58.16-1.16.26-1.74a19 19 0 0 0-2.19 6.85c-.28 3.41 1.24 7.26 4.41 8.57Zm-35.55-5.57a19.43 19.43 0 0 0 12.1 4 13.4 13.4 0 0 0 5.4-.92c4.28-1.83 6.51-6.48 8.37-10.76a19.5 19.5 0 0 0 1.79-5.54 6.65 6.65 0 0 0-1.55-5.43 26 26 0 0 0-3.55-2.42 8.12 8.12 0 0 1-3.13-6.68 21 21 0 0 0-.44 9.84c.79 5 2.1 10.44-.11 15a6.68 6.68 0 0 1-2.7 3.07 6.46 6.46 0 0 1-6.19-.43 21 21 0 0 1-9.75-13c-.72-2.8-1-5.73-2-8.43a9.7 9.7 0 0 0-1.45-2.62 10.3 10.3 0 0 1 .06 3.54c-.49 3.18-2 6.17-2.17 9.38a13.92 13.92 0 0 0 5.33 11.4Zm-35.38-63.7a11.2 11.2 0 0 1 1.29 4.43 28 28 0 0 1 .16 3 9.2 9.2 0 0 0 1.45-4.91c-.09-3.55-2.91-6.53-6.08-8.14s-6.76-2.18-10.16-3.23a10.6 10.6 0 0 1-4.39-2.27 4.47 4.47 0 0 1-1.33-4.54c.61-1.66 2.39-2.57 4.11-3h-.15c-3.09-.16-6.52.45-8.46 2.86a8.34 8.34 0 0 0-.71 9.1c2.2 3.79 7.25 4.13 11.17 4 4.66-.08 10.28-2.08 13.11 2.7Zm199.53-8.82c-2.91-4.54-9-6.4-14.12-5.16a23 23 0 0 1 3.16.74 12.67 12.67 0 0 1 5.67 3.13c4.93 5.29-1.72 9.84-5.88 12.34-6.79 4.08-13 10.1-14.82 17.75 4.34-6.71 10.43-12.43 17.88-15.29 3.39-1.29 7.4-2.31 9-5.54 1.3-2.5.63-5.62-.88-7.97Zm-60 45.45c-1.46 1.3-3.94 1.64-5.26.25 1 2.36 2.84 4.94 4.69 5.45 2.66.74 4-2.1 4.8-4.16 1.65-4.24 3.26-8.51 4.82-12.78 1.48-4 3.15-8.34 5.87-11.52a51.2 51.2 0 0 0-12 17.59c-.71 1.86-1.41 3.84-2.9 5.17ZM290.57 421a144.3 144.3 0 0 1-10.79 23.91c-1.3 2.3-2.79 4.67-5.15 5.84-3.37 1.67-7.61.29-10.33-2.31-1.72-1.64-3.09-6.21-4.8-9.53 1.28 5.19 1 11.1 4.76 14.75a10.2 10.2 0 0 0 9.77 2.18c6.69-1.92 10.55-10.21 13-16.17 3-7.32 4.63-15.13 7.35-22.57a8.3 8.3 0 0 1 1.68-3.09 4 4 0 0 1 .38-.34 5.23 5.23 0 0 0-2.55 1.19c-1.76 1.52-2.55 3.88-3.32 6.14" style="fill:#10b981;opacity:.30000000000000004"/><path d="M145.61 364.62c-1 .87-1.75 2.42-1 3.58.83 1.35 2.8 1.17 4.38.95a40.5 40.5 0 0 1 12.29.14c.79.13 3.82 1 4.43.31 1-1.17-2.81-3.27-3.51-3.68-4.74-2.71-11.8-5.3-16.59-1.3m20.7 36.51c-.29.86-.56 1.73-.8 2.62a8 8 0 0 0 .66 5.76c.47.88 1.65 2.4 2.83 1.95s1.44-2.28 1.43-3.35c0-1.45-.14-2.91-.15-4.35 0-1.63.12-3.28.13-4.92a7.3 7.3 0 0 0-.86-4.26c-.1-.15-.26-.32-.45-.3s-.31.24-.38.43c-.82 2.14-1.72 4.29-2.41 6.42m24.17 16.41a3.17 3.17 0 0 0-2.33 1.15c-1 1.27-.37 3.17.76 4.27a17.4 17.4 0 0 0 4 2.44 15.9 15.9 0 0 1 4.78 4c.59.74 1.69 3.57 2.87 3.22a.46.46 0 0 0 .29-.19.7.7 0 0 0 .09-.4v-2.22c0-3.37-.61-6.5-2.88-9.1a9.18 9.18 0 0 0-7.58-3.17m36.01-1.64a5.1 5.1 0 0 0 1.75 3.25 11.9 11.9 0 0 1 2.45 2.85c.64 1.27.85 3 2.18 3.52s2.45-.48 3.2-1.49c1.61-2.19 2.59-5.67 1.29-8.21-.89-1.74-3.68-4-5.72-4.07s-5.22 1.75-5.15 4.15m27.86 22.15a2.48 2.48 0 0 0-.27 2.13 8.3 8.3 0 0 0 1 2 48.6 48.6 0 0 1 4.08 8.4 6.8 6.8 0 0 0 1.07 2.13 4.3 4.3 0 0 0 .86-2.39 15.65 15.65 0 0 0-1.54-8.7c-.68-1.39-3.34-6.08-5.2-3.57m40.27-20.88a2.52 2.52 0 0 0 1 1.84 19 19 0 0 0 1.79 1.19 8.5 8.5 0 0 1 2.83 3.2 4 4 0 0 0 .79 1.25 1 1 0 0 0 1.34.1 1.5 1.5 0 0 0 .3-1 11 11 0 0 0-.31-3.71 7.8 7.8 0 0 0-3.48-4.59c-1.56-.81-4.22-.45-4.26 1.72m54.51-46.97a13.25 13.25 0 0 0-4.41 9.3 1.45 1.45 0 0 0 .19.92 1.17 1.17 0 0 0 .66.39c1.81.52 3.58-.78 5.19-1.77a19.1 19.1 0 0 1 7.84-2.72c1.89-.22 4.07-.27 5.28-1.74 2.77-3.39-1.88-6.6-4.68-7.42-3.38-.98-7.55.84-10.07 3.04" style="fill:#fff;opacity:.30000000000000004"/><path d="M353.6 370.88a2.46 2.46 0 0 0 1.44 2.28 10.1 10.1 0 0 0 4.66 1c1.88.07 3.72-1.53 2.75-3.42a4.79 4.79 0 0 0-4.23-2.28c-1.75-.09-4.22.32-4.62 2.42m-57.31 46.58a.9.9 0 0 0 .4.37l2.26 1.3a1.15 1.15 0 0 0 1 .22c.38-.18.44-.7.36-1.12a3 3 0 0 0-2.14-2.23c-.76-.25-2.46.23-1.88 1.46m-65.84-2.91a2.14 2.14 0 0 0 0 1.85 8.2 8.2 0 0 0 1 1.62 19.6 19.6 0 0 1 1.44 2.4 2.67 2.67 0 0 0 1 1.29A1.91 1.91 0 0 0 236 421a4.55 4.55 0 0 0 .34-5.15 7.2 7.2 0 0 0-1.66-1.69c-1.11-.86-3.36-1.05-4.23.39m-83.4-49.81a3.47 3.47 0 0 0-1.11 2.18.86.86 0 0 0 .12.63.84.84 0 0 0 .65.26c1.37 0 2.48-1.05 3.77-1.51.66-.23 1.37-.3 2-.49.51-.14 1.08-.45 1.1-1a.9.9 0 0 0-.39-.72 2 2 0 0 0-.77-.33c-1.61-.4-4.05-.23-5.37.98" style="fill:#fff;opacity:.30000000000000004"/><path d="M320.24 166.36c0 3-.07 5.85-4.38 6.52 4.55-.06 4.21 2.81 4.43 6.4.12-3.59.44-6.17 4-6.34-3.68-.61-3.59-2.31-4.05-6.58m38.92-77.59c0 4.39-.11 8.61-6.44 9.6 6.69-.09 6.19 4.13 6.51 9.41.18-5.28.65-9.07 5.86-9.32-5.39-.9-5.25-3.4-5.93-9.69" style="fill:#455a64"/><path d="M334.77 177.23c.07 5.94-.15 11.67-8.74 13 9.08-.12 8.39 5.6 8.84 12.77.24-7.17.87-12.31 7.94-12.65-7.31-1.21-7.12-4.6-8.04-13.12" style="fill:#10b981"/><path d="M158.25 88.85c.05 5.13-.13 10.07-7.54 11.22 7.82-.1 7.23 4.83 7.62 11 .2-6.18.75-10.61 6.85-10.91-6.31-1.03-6.18-3.96-6.93-11.31" style="fill:#455a64"/><path d="M185.25 60c.06 5.84-.15 11.46-8.58 12.77 8.91-.12 8.24 5.5 8.67 12.53.24-7 .86-12.08 7.8-12.41-7.14-1.16-6.99-4.49-7.89-12.89m-15.57 128c0 3.32-.08 6.51-4.88 7.26 5.07-.07 4.68 3.12 4.93 7.12.14-4 .49-6.86 4.43-7.05-4.08-.66-3.97-2.55-4.48-7.33" style="fill:#10b981"/><path d="M188.67 223.11c.07 6.48-.16 12.72-9.52 14.17 9.89-.13 9.14 6.1 9.62 13.91.27-7.81.95-13.41 8.66-13.78-7.97-1.32-7.76-5.01-8.76-14.3" style="fill:#e0e0e0"/><path d="M375.14 115.85c0 2.45-.06 4.81-3.6 5.36 3.74 0 3.45 2.31 3.64 5.26.1-3 .36-5.07 3.27-5.21-3.01-.5-2.93-1.89-3.31-5.41m-198.76-8.91c0 2.94-.07 5.77-4.32 6.43 4.49-.06 4.15 2.77 4.37 6.31.12-3.54.43-6.09 3.93-6.25-3.62-.6-3.52-2.28-3.98-6.49" style="fill:#ebebeb"/><path d="M451.38 81a30.33 30.33 0 0 1-8.16 20.77l-2.52 2.39a30.36 30.36 0 0 1-42.89-42.7L400.2 59a30.36 30.36 0 0 1 51.18 22" style="fill:#fff"/><path d="M420.92 48.13a33 33 0 0 0-5.34 65.47l3.72 9.54a1.92 1.92 0 0 0 3.58 0l3.67-9.56a33 33 0 0 0-5.63-65.45M451.38 81a30.33 30.33 0 0 1-8.16 20.77l-2.52 2.39a30.36 30.36 0 0 1-42.9-42.7l2.4-2.46a30.36 30.36 0 0 1 51.18 22" style="fill:#455a64"/><path d="M427.1 64.19C420.36 72 415 79.76 415 86.18a12.09 12.09 0 0 0 24.16 0c.02-6.42-5.32-14.18-12.06-21.99" style="fill:#10b981"/><path d="M427.1 64.19C420.36 72 415 79.76 415 86.18a12.09 12.09 0 0 0 24.16 0c.02-6.42-5.32-14.18-12.06-21.99" style="fill:#fff;opacity:.5"/><path d="M410.87 78.36h-4.29v-4.28a1.17 1.17 0 1 0-2.33 0v4.28H400a1.17 1.17 0 0 0 0 2.33h4.29V85a1.17 1.17 0 1 0 2.33 0v-4.31h4.29a1.17 1.17 0 1 0 0-2.33Z" style="fill:#10b981"/></svg>