<svg xmlns="http://www.w3.org/2000/svg" viewBox="0 0 500 500"><path d="M96.13 427.52c86.06 45 225.6 45 311.66 0s86.06-117.85 0-162.81-225.6-45-311.66 0-86.06 117.85 0 162.81" style="fill:#f0f0f0"/><path d="m297.07 66.46 9.22 5.33c0-.42-.07-.82-.07-1.22v-2.68c0-4.75 3.33-6.68 7.45-4.3a14.4 14.4 0 0 1 4.44 4.27c.68-6 5.37-8.2 11.06-4.91 6.16 3.55 11.15 12.2 11.15 19.31v4a10.6 10.6 0 0 1-.94 4.63l7.62 4.42a9.14 9.14 0 0 1 4.13 7.16c0 2.64-1.85 3.71-4.13 2.39L297.07 76a9.14 9.14 0 0 1-4.13-7.16c0-2.63 1.85-3.7 4.13-2.38m-39.46 26.87 7 4c0-.32-.06-.62-.06-.93v-2c0-3.59 2.52-5 5.63-3.25a10.9 10.9 0 0 1 3.35 3.22c.51-4.51 4.05-6.19 8.35-3.71 4.65 2.69 8.42 9.21 8.42 14.58v3a7.85 7.85 0 0 1-.72 3.49l5.78 3.34a6.86 6.86 0 0 1 3.12 5.4c0 2-1.39 2.8-3.12 1.81l-37.71-21.78a6.89 6.89 0 0 1-3.12-5.4c-.04-1.96 1.36-2.77 3.08-1.77" style="fill:#ebebeb"/><path d="M300.52 391.68c-5.56.75-15-2.46-15.7-11.72s-4.51-11.77-11.52-13.27-9.07-3.95-9.85-8.35 4.53-9.67 3-16.29-6.48-6.61-11.39-14.13c-3.15-4.83 3.29-12.18 14-9s9.84 10.09 20.61 11 17.47 7.41 17.67 15.49-6.82 46.27-6.82 46.27" style="fill:#10b981"/><path d="M302.55 373.92a.71.71 0 0 1-.69-.56c-5.09-25.15-32.75-48.15-39.49-50.49a.72.72 0 0 1-.44-.9.7.7 0 0 1 .9-.43c6.91 2.4 35.22 25.89 40.41 51.54a.7.7 0 0 1-.55.83Z" style="fill:#fff"/><path d="M275.53 353.55a.71.71 0 0 1-.19-1.39c.42-.11 10.35-2.75 18.42-.43a.71.71 0 0 1-.39 1.36c-7.7-2.22-17.56.41-17.66.43a.6.6 0 0 1-.18.03m20.82 4.22a.7.7 0 0 1-.32-.08.69.69 0 0 1-.31-.94c3.45-6.93 2.8-19.67 2.79-19.8a.7.7 0 0 1 .66-.74.72.72 0 0 1 .75.67c0 .53.68 13.24-2.94 20.5a.73.73 0 0 1-.63.39" style="fill:#fff"/><path d="M99.88 336.84c-.7.38-13.5 4-18.24-2.25s3.13-16-1.32-19.63-16.92.04-19.92-7.56 5.9-10.83.9-18.46c-3.15-4.81-12-7.46-11.56-11.94.59-6.54 12.63-8.3 23.15-1.3s15.42 1.27 18.76.8 10.54.57 10.3 12.29-2.07 48.05-2.07 48.05" style="fill:#455a64"/><path d="M100.72 320.17a.69.69 0 0 1-.68-.58c-3.67-22.25-29.52-40.35-43-44.23a.7.7 0 0 1-.47-.87.68.68 0 0 1 .86-.47c13.75 4 40.19 22.52 43.95 45.34a.69.69 0 0 1-.57.8Z" style="fill:#fff"/><path d="M70.24 301.55a.69.69 0 0 1-.36-1.29c.42-.25 10.37-6.07 20.17-3.35a.7.7 0 0 1-.37 1.35c-9.22-2.56-19 3.14-19.09 3.2a.73.73 0 0 1-.35.09" style="fill:#fff"/><path d="M408.57 302.25c-3.16-6.81-4.79-23.19-1.84-35.32s11.06-23.75 20.2-24.72c8.52-.9 12.21 9.11 6.26 19.64s-15.62 24.79-14.4 37.66l-1.93 17.37Z" style="fill:#10b981"/><path d="M408.57 302.25c-3.16-6.81-4.79-23.19-1.84-35.32s11.06-23.75 20.2-24.72c8.52-.9 12.21 9.11 6.26 19.64s-15.62 24.79-14.4 37.66l-1.93 17.37Z" style="opacity:.2"/><path d="M412.4 311.8a.57.57 0 0 0 .27-.61c-6.25-25.35 3.77-53 13.08-62.39a.55.55 0 0 0-.75-.8c-9.49 9.58-19.71 37.68-13.37 63.43a.55.55 0 0 0 .66.4.6.6 0 0 0 .11-.03" style="fill:#fff"/><path d="M422.78 325.06c-.68-4.33 1.06-12.82 6.19-21.55 5.68-9.66 15-17.23 15.38-22.86.43-6.75-6.49-9.74-14.59-4.68s-17.75 23.8-12 42.57Z" style="fill:#10b981"/><path d="M419.25 321.82a.53.53 0 0 0 .28-.53c-2.13-23.22 9.81-37.29 16.47-41.45a.55.55 0 0 0-.58-.93c-7.31 4.63-19.11 18.78-16.93 42.48a.54.54 0 0 0 .59.5.5.5 0 0 0 .17-.07" style="fill:#fff"/><path d="M200.53 263.11c-5-6.68-11.22-19.45-12.6-35.62-1.47-17.3 2.22-32.2 11.95-35.37 9.07-3 14.58 8.29 11.2 27.17-2.37 13.25-3.37 28.65.92 42.37l3.91 18.84Z" style="fill:#10b981"/><path d="M200.53 263.11c-5-6.68-11.22-19.45-12.6-35.62-1.47-17.3 2.22-32.2 11.95-35.37 9.07-3 14.58 8.29 11.2 27.17-2.37 13.25-3.37 28.65.92 42.37l3.91 18.84Z" style="fill:#37474f"/><path d="M205.37 267.31a.58.58 0 0 0 .16-.66c-9-22.85-11.42-51.92-5.59-67.62a.58.58 0 0 0-.35-.76.59.59 0 0 0-.76.34c-5.92 15.95-3.51 45.38 5.6 68.47a.59.59 0 0 0 .77.34Z" style="fill:#fff"/><path d="M218 263.86a35.24 35.24 0 0 0 18.18.37c10.38-2.4 12.8-8.81 12.8-8.81s-7.55-7.6-14.13-7.93c0 0 10.17-1.88 19.75.1 0 0 6-2.32 4.69-12.38 0 0-5.75-4-18.79-2.21 0 0 6.47-4.73 17.93-6.28.91 0-.53-13.11-1.72-18.94s-3.35-4.89-8-4.31-19.37 5.7-21.08 9.1.17 11.89.17 11.89-4.36-3.47-5.38-7.74a16.3 16.3 0 0 0-8.91 3.86c-4.08 3.58-2.84 5.77-1.44 9.23a39.2 39.2 0 0 0 5.59 9.72s-4.43-1.51-8.78-11.93c0 0-4.2 8.09-4.87 13.86s4.92 17.86 13.99 22.4" style="fill:#455a64"/><path d="M218.2 264.41a.57.57 0 0 0 .36-.51c1.26-19.55 22.85-50.41 32.51-56.69a.59.59 0 1 0-.65-1c-9.82 6.38-31.76 37.75-33 57.61a.59.59 0 0 0 .56.62.5.5 0 0 0 .22-.03" style="fill:#fff"/><path d="M319.86 314.56c-5 10-10.82 28.9-17.33 46.1-7.11 18.76-8 31.91-1.71 36.64 6.14 4.6 24.44 1.85 35.91-22.57 3.59-7.63 17.1-31.21 17.1-31.21s10-3.61 13.44-6.31c0 0 33.35 1 49.54-2.34S439 311 432.36 309.07c-11.93-3.51-23.93-5.31-50.83-7Z" style="fill:#37474f"/><path d="M399 318.45c-10.14 2.36-23.61 10.82-27.67 12.88s-15.44 8.16-17.51 6.37a28.6 28.6 0 0 0-9-5.18c3.48 2.35 10.36 6.46 6.77 14.85l2.2-3.85s10-3.61 13.44-6.31c0 0 18.65.54 34.82-.57l11.82-18.19s-4.71-2.36-14.87 0m-52.85 38.67s-11.41 3.25-26.29 13.29c0 0 11.57-12 27.8-16.05Z" style="fill:#263238"/><path d="M367.54 336.3c-4.25 2-10.09 2.85-13.44 1s-8.38-3.76-12.58 2.76c-4.76 7.41-13.65 10.09-19.12 13.28s-6.19 10.28-5.48 15.54c1.19 8.88 4.74 1.91 9.16-2.14s17.65-8.33 23.11-10.38 4.82-2.73 19.43-6.91Z" style="fill:#b16668"/><path d="M428.7 308.18c20.58 4.1 17.25 16.4 9.58 23.06-8.28 7.17-32.72 11.65-44.68 13.76s-28.43 5.61-28.43 5.61a19 19 0 0 1-2.27-13.38c13.8-4.44 34.32-20.23 51-18.76Z" style="fill:#37474f"/><path d="M370.72 348.94c3.63-1.51 9-3.68 10.81-7s6.15-7 13.19-3.7c8 3.7 16.93 1.21 23.25 1s10.73 5.38 12.95 10.2c3.74 8.14-3 4.15-8.88 3.1s-19.91.14-25.33 1.7-18.85 8.2-18.85 8.2Z" style="fill:#b16668"/><path d="M300.82 397.3c4.55 3.27 10.67 7 27.79.89s51.54-35.91 51.54-35.91.5-12.78-9.55-14.07c0 0-8.55 2.89-22.41 8.13a190 190 0 0 0-18.33 8.12c-7.76 14.43-18.61 10.68-21.56 15.79a90.5 90.5 0 0 0-7.48 17.05" style="fill:#37474f"/><path d="M372.85 331.57s3.27-4.72 3.67-9.69c0 0 1.2 4.52-.33 8.3Z" style="fill:#263238"/><path d="M357.8 214.47c6.41-1 14.14 1 20.37 7.6s29.09 34.4 33.58 40.09l-15.35 7.77-27.17-24.18Z" style="fill:#b16668"/><path d="M328.31 222.07a11.8 11.8 0 0 0-6.2 6.45 30.2 30.2 0 0 0-1.89 11.13s.93 12.21.93 26.28-1.29 48.63-1.29 48.63c18.47 9.74 48.29 3 61.67-12.53 0 0-1.1-54.84-1.1-64.87v-1.38c-.72-14.32-14.82-24.15-28.7-20.57l-11.67 3-11.71 3.86Z" style="fill:#10b981"/><path d="M363.11 285.93c3.58-.72 14.41-.25 18.1-.06-.06-3.16-.13-6.6-.19-10.15l-17.6-10.17L327.67 289l-2.07-21.84c4.55-7.32 6.29-21.07 5.72-31.45 0 0-5.33-3.65-9.38-6.74a30.5 30.5 0 0 0-1.72 10.67s.93 12.21.93 26.28-1.29 48.63-1.29 48.63c13.94 7.35 34.34 5.3 49.26-2.81-9.05 4.94-27.66 4.6-32.94 2.33s-4.83-11.56-1.63-14.56 24.21-12.69 28.56-13.58" style="opacity:.2"/><circle cx="361.36" cy="175.16" r="17.69" style="fill:#263238" transform="rotate(-67.5 361.36 175.156)"/><path d="M330.78 187.74s2.87 13.46 4 15.68a6.1 6.1 0 0 0 3.52 2.84l-.2-9.48Zm3.6-19.3a6.61 6.61 0 0 0-5.49 1.94c-2.36 2.41-1 10 1.89 17.36l5.4.62Z" style="fill:#263238"/><path d="M337.8 188.36c-1.08.65-2.63-1.43-4-2.83s-5.69-3.31-7.87 1.28 1.92 10.83 5.35 11.91c5.92 1.86 6.8-1.94 6.8-1.94l.44 22c7.35 9.42 27.76 8.63 19.25-1.22v-6.49s5.36.81 8 .41c4.35-.67 7.09-4.11 8.4-8.81 2.12-7.56 2.93-13.67 1.13-28.54-2-16.3-20.93-16.47-31.16-10s-6.34 24.23-6.34 24.23" style="fill:#b16668"/><path d="M337.8 190.18c-.54 0-2.61-3.42-4-4.65-1.87-1.7.54-17.09.54-17.09s-1.79-3.82 1.8-7.78c2.56-2.81 6.84-3.13 14.14-4.27 3.83-.61 9.63-1.68 13.46-2.39 4.56-.85 8.34-1.75 11.57 1.05a8.12 8.12 0 0 1 2.24 9.08 7.6 7.6 0 0 1-1.3 1.93 7.5 7.5 0 0 1-3.29 2.27s-2 1.76-8.92 2.61-17.71-.16-19.19-.37c-2-.27-2.44 1.68-3.52 7-.91 4.66-1.7 12.58-3.53 12.61" style="fill:#263238"/><path d="m334.39 169.64-6.54-3.51a3.6 3.6 0 0 1 4.95-1.64 3.9 3.9 0 0 1 1.59 5.15" style="fill:#263238"/><path d="M357.8 211.06s-9.71-2-13.1-3.76a11.2 11.2 0 0 1-4.7-4.64 15.3 15.3 0 0 0 2.67 5.47c2.48 3.18 15.13 5.51 15.13 5.51Z" style="fill:#9a4a4d"/><path d="M358 185.74a3.17 3.17 0 0 1-6.13.63 4.6 4.6 0 0 0 3.18.85 4.66 4.66 0 0 0 2.95-1.48m15.74-.29a3.17 3.17 0 0 1-6.16-.3 4.64 4.64 0 0 0 6.16.3M354.55 179l-4.17 2.3a2.51 2.51 0 0 1 1-3.32 2.33 2.33 0 0 1 3.17 1.02" style="fill:#263238"/><path d="m356.92 199.37 4.44 1.67a2.33 2.33 0 0 1-3 1.47 2.49 2.49 0 0 1-1.44-3.14" style="fill:#9a4a4d"/><path d="m375 180.33-3.8-2.92a2.3 2.3 0 0 1 3.3-.51 2.52 2.52 0 0 1 .5 3.43" style="fill:#263238"/><path d="m363.03 183.53.64 11.7 6.1-2.08z" style="fill:#9a4a4d"/><path d="M328.31 222.07a24.56 24.56 0 0 0-10.46 4.42c-4.8 3.66-6.71 8.23-9.55 16.91-2.12 6.47-13.78 46.83-11.71 51.6 3.14 7.23 15.77 3.44 23.89 1.1 9.17-2.65 39.56-14 41.27-17.52.95-2 1.36-3.23 1.36-16 0-5.49-.14-11-.4-14-.57-6.85-4.94-7.09-6.93-2.14s-5 23.13-5 23.13l-34.65 9 12.44-28.87s6.7-17.3-.26-27.63" style="fill:#b16668"/><path d="M411.75 262.16c3.47 4.5 5.27 9.14 0 13s-41.84 5.77-46.58 3.18c-2.06-1.12-2.05-5.61-2.06-10.31s0-16.67 0-19.39 1.54-8.75 4.4-7.56 6.23 23.71 6.23 23.71c12.26.45 29.69-5.64 38.01-2.63" style="fill:#b16668"/><path d="M156.28 173.9a51 51 0 0 1 7.44 0c6.65.6 9.81 5 13.55 9 5.88 6.26 21.22 24.42 25.46 29.79l-12.93 6.89-27.22-22.39Z" style="fill:#ffa8a7"/><path d="M117.86 248.6c-4.74 9.57-16.42 38.32-21 58.2-4.34 18.63-6 31.53 0 36 5.86 4.39 23.3 1.76 34.23-21.51 3.42-7.28 16.3-29.76 16.3-29.76s9.53-3.44 12.82-6c0 0 31.79.92 47.23-2.24s21.14-22.73 14.82-24.59c-11.37-3.35-22.82-5.06-48.46-6.71Z" style="fill:#10b981"/><path d="M190.42 267.67c-7 1.62-15.54 6.24-21.26 9.44a15.4 15.4 0 0 0-.19-6.17 20.1 20.1 0 0 1-2.58 7.73c-.95.54-1.76 1-2.35 1.28-3.86 2-14.47 7.4-16.44 5.69a20.75 20.75 0 0 0-11.89-7.54c3.32 2.24 13 9.14 9.54 17.14l2.09-3.67s9.53-3.44 12.82-6c0 0 17.77.52 33.19-.55l11.27-17.34s-4.53-2.26-14.2-.01" style="opacity:.2"/><path d="M140 304.54s-10.85 3.09-25 12.66c0 0 11-11.47 26.5-15.3Z" style="fill:#263238"/><path d="M160.41 284.69c-4 1.89-9.62 2.71-12.81.95s-8-3.58-12 2.64c-4.54 7.05-13 9.61-18.22 12.65s-5.91 9.8-5.23 14.81c1.14 8.47 4.52 1.82 8.73-2s16.83-7.95 22-9.9 4.59-2.6 18.52-6.58Z" style="fill:#ffa8a7"/><path d="M218.72 257.89c19.61 3.9 16.44 15.62 9.13 22C220 286.7 196.66 291 185.26 293s-27.11 5.35-27.11 5.35a18.17 18.17 0 0 1-2.15-12.79c13.16-4.23 32.72-19.29 48.63-17.89Z" style="fill:#10b981"/><path d="M163.45 296.74c3.46-1.44 8.54-3.51 10.3-6.71s5.86-6.65 12.57-3.53c7.62 3.53 16.14 1.16 22.17.94s10.23 5.12 12.34 9.71c3.57 7.77-2.85 4-8.47 3s-19 .13-24.14 1.62-18 7.82-18 7.82Z" style="fill:#ffa8a7"/><path d="M96.81 342.84c4.33 3.12 10.17 6.7 26.49.85s49.13-34.24 49.13-34.24.48-12.18-9.1-13.41c0 0-8.15 2.75-21.36 7.75a181 181 0 0 0-17.48 7.75c-7.39 13.75-17.74 10.17-20.55 15a86.4 86.4 0 0 0-7.13 16.3" style="fill:#10b981"/><path d="M171.18 218.1c.78 7.23 2.57 33.92 2.57 33.92-5.62 18.92-49.21 15.12-57.63.27 4.66-10.87 9.82-17.37 13.2-21l-7.74-21.6s-.93-2.21-.91-2.23c.52-.88 11.32-13.06 1.07-32.4l13.94-1.27 20.42-.59c4.45.25 7.62.68 7.62.68 2.85 2.66 7.35 10 10.26 17.45 1.88 4.84 3.91 12.52-2.8 26.77" style="fill:#f5f5f5"/><path d="M134.62 245.5c4.68-2.94 18-9.31 23.62-10.14 3.8-.55 10.49.49 14.43 1.23-.3-4.15-.62-8.46-.92-12l-6.12-.67s-3.63-10.63-7.39-12-6.4 6.55-9.75 11.24-15.42 4-15.42 4l-7.78-18.76s2.8-14.38 1.78-22.31l-1.3.68a49 49 0 0 1-5.1 20.77s.91 2.23.91 2.23l7.74 21.6c-3.38 3.6-8.54 10.1-13.2 21 5.68 10 27.39 15 42.63 11.36-13.58 1.12-25.94-2.45-28.1-6.35s-.71-8.94 3.97-11.88" style="fill:#e0e0e0"/><path d="M152.52 162.8h-8.07a25.35 25.35 0 0 1-25.36-25.36 29.4 29.4 0 0 1 29.4-29.4 29.4 29.4 0 0 1 29.4 29.4 25.36 25.36 0 0 1-25.37 25.36" style="fill:#10b981"/><path d="M152.52 162.8h-8.07a25.35 25.35 0 0 1-25.36-25.36 29.4 29.4 0 0 1 29.4-29.4 29.4 29.4 0 0 1 29.4 29.4 25.36 25.36 0 0 1-25.37 25.36" style="opacity:.5"/><circle cx="128.9" cy="110.04" r="10.76" style="fill:#10b981" transform="rotate(-76.72 128.9 110.033)"/><circle cx="128.9" cy="110.04" r="10.76" style="opacity:.5" transform="rotate(-76.72 128.9 110.033)"/><path d="M167.39 120.84c3.1 1.84 6.94 9.65 6.56 26-.32 13.88-4.82 17.31-7.08 18.3s-6.61.39-10.85-.32v8.33s5.86 6.8 5.49 10.62-8.45 4.72-13.93 1-10.09-11-10.09-11l.1-19.15s-2.5 2.42-6.72-1.27c-3.49-3-4.67-8.2-2-11a6.08 6.08 0 0 1 9.67 1.93s6.76.25 15.75-4.69a25.31 25.31 0 0 0 13.1-18.75" style="fill:#ffa8a7"/><path d="M156 164.84c-4.46-.59-13.64-3.22-15.07-6.85a9.4 9.4 0 0 0 3.22 4.63c2.74 2.35 11.85 5 11.85 5Z" style="fill:#f28f8f"/><path d="m126.25 120.26-7.07 3.15a3.75 3.75 0 0 1 1.81-5.12 4.07 4.07 0 0 1 5.26 1.97" style="fill:#10b981"/><path d="m126.25 120.26-7.07 3.15a3.75 3.75 0 0 1 1.81-5.12 4.07 4.07 0 0 1 5.26 1.97" style="opacity:.5"/><path d="M158.24 141.64a3 3 0 0 1-5.84.6 4.36 4.36 0 0 0 3 .81 4.45 4.45 0 0 0 2.84-1.41m14.97-.27a3 3 0 0 1-5.87-.29 4.44 4.44 0 0 0 2.88 1.26 4.5 4.5 0 0 0 2.99-.97m-18.28-6.11-4 2.18a2.36 2.36 0 0 1 .92-3.15 2.2 2.2 0 0 1 3.08.97" style="fill:#263238"/><path d="m157.19 154.62 4.23 1.59a2.22 2.22 0 0 1-2.87 1.4 2.37 2.37 0 0 1-1.36-2.99" style="fill:#f28f8f"/><path d="m173.87 135.56-4.3-1.52a2.19 2.19 0 0 1 2.84-1.44 2.4 2.4 0 0 1 1.46 2.96" style="fill:#263238"/><path d="m162.42 139.54.61 11.14 5.82-1.98z" style="fill:#f28f8f"/><path d="M124.13 174.87a15.1 15.1 0 0 0-10.47 4c-4.06 4-5.92 7.93-8.6 16.13-2 6.11-13 44.21-11.06 48.71 3 6.83 14.89 3.26 22.56 1 8.66-2.5 37.35-13.2 39-16.54.9-1.86 1.29-3.05 1.28-15.06 0-5.19-.13-10.38-.37-13.23-.54-6.47-4.66-6.69-6.55-2s-4.68 21.84-4.68 21.84l-32.71 8.47 11.74-27.26s6.43-16.3-.14-26.06" style="fill:#ffa8a7"/><path d="M202.73 212.68c3.28 4.25 5 8.63 0 12.25s-39.51 5.45-44 3c-1.94-1.06-1.93-5.3-1.94-9.73s0-15.75 0-18.32 1.45-8.26 4.15-7.14 5.88 22.39 5.88 22.39c11.59.46 28.06-5.29 35.91-2.45" style="fill:#ffa8a7"/></svg>