<svg xmlns="http://www.w3.org/2000/svg" viewBox="0 0 500 500"><path d="M77.66 254.15c-95.18 55-95.17 144 0 199s249.49 54.95 344.67 0 95.17-144 0-199-249.49-54.95-344.67 0m320.1-67.41 54.52 31.48v-66.63l-54.52-31.48z" style="fill:#fafafa"/><path d="M452.78 219.08 397.26 187v-67.76l55.52 32.06Zm-54.52-32.63 53.52 30.9v-65.47L398.26 121Z" style="fill:#e0e0e0"/><path d="m405.75 135.76 38.54 22.26v-4.61l-38.54-22.25z" style="fill:#10b981"/><path d="M424.52 125.44h1v53.73h-1z" style="fill:#e0e0e0" transform="rotate(-60 425.02 152.305)"/><path d="m443.78 173.71 4.51 2.6v-6.01l-4.51-2.6z" style="fill:#455a64"/><path d="m436.77 169.66 4.51 2.6v-6.01l-4.51-2.6zm-7-4.04 4.51 2.6v-6.01l-4.51-2.6zm-7-4.05 4.5 2.61v-6.01l-4.5-2.61zm-7.01-4.04 4.51 2.6v-6.01l-4.51-2.6zm-7-4.04 4.5 2.6v-6.01l-4.5-2.6zm-7.01-4.05 4.51 2.6v-6.01l-4.51-2.6z" style="fill:#e0e0e0"/><path d="m443.78 182.47 4.51 2.6v-6.01l-4.51-2.6z" style="fill:#455a64"/><path d="m436.77 178.43 4.51 2.6v-6.01l-4.51-2.6zm-7-4.05 4.51 2.61v-6.02l-4.51-2.6zm-7-4.04 4.5 2.6v-6.01l-4.5-2.6zm-7.01-4.05 4.51 2.61v-6.01l-4.51-2.61z" style="fill:#e0e0e0"/><path d="m408.76 162.25 4.5 2.6v-6.01l-4.5-2.6z" style="fill:#10b981"/><path d="m401.75 158.21 4.51 2.6v-6.01l-4.51-2.6z" style="fill:#e0e0e0"/><path d="m443.78 191.23 4.51 2.61v-6.01l-4.51-2.61z" style="fill:#455a64"/><path d="m436.77 187.19 4.51 2.6v-6.01l-4.51-2.6zm-7-4.04 4.51 2.6v-6.01l-4.51-2.6zm-7-4.05 4.5 2.61v-6.02l-4.5-2.6zm-7.01-4.04 4.51 2.6v-6.01l-4.51-2.6zm-7-4.05 4.5 2.61v-6.01l-4.5-2.61zm-7.01-4.04 4.51 2.6v-6.01l-4.51-2.6z" style="fill:#e0e0e0"/><path d="m443.78 200 4.51 2.6v-6.01l-4.51-2.6z" style="fill:#455a64"/><path d="m436.77 195.95 4.51 2.61v-6.01l-4.51-2.61z" style="fill:#e0e0e0"/><path d="m429.77 191.91 4.51 2.6v-6.01l-4.51-2.6z" style="fill:#10b981"/><path d="m422.77 187.87 4.5 2.6v-6.01l-4.5-2.6zm-7.01-4.05 4.51 2.61v-6.02l-4.51-2.6zm-7-4.04 4.5 2.6v-6.01l-4.5-2.6zm-7.01-4.04 4.51 2.6v-6.01l-4.51-2.61z" style="fill:#e0e0e0"/><path d="m443.78 208.76 4.51 2.61v-6.02l-4.51-2.6z" style="fill:#455a64"/><path d="m436.77 204.72 4.51 2.6v-6.01l-4.51-2.6zm-7-4.04 4.51 2.6v-6.01l-4.51-2.61zm-7-4.05 4.5 2.6v-6.01l-4.5-2.6zm-7.01-4.04 4.51 2.6v-6.01l-4.51-2.6zm-7-4.05 4.5 2.61v-6.01l-4.5-2.61zm-7.01-4.04 4.51 2.6v-6.01l-4.51-2.6zM41.77 247.2l-9.82 5.67v-15.13l9.82-5.67zm13.38-7.72-9.82 5.67v-15.13l9.82-5.67zm13.38-7.73-9.83 5.68V222.3l9.83-5.68zm13.38-7.72-9.83 5.67v-15.13l9.83-5.67zm13.38-7.73-9.83 5.68v-15.13l9.83-5.68zm13.38-7.72-9.83 5.67v-15.13l9.83-5.67zm13.38-7.73-9.83 5.68V191.4l9.83-5.67zm13.37-7.72-9.82 5.67v-15.12l9.82-5.68zm13.38-7.72-9.82 5.67v-15.13l9.82-5.67zm13.38-7.73-9.83 5.68v-15.13l9.83-5.68zm13.38-7.72-9.83 5.67V160.5l9.83-5.67zm13.38-7.73-9.83 5.68v-15.13l9.83-5.68zM41.77 267.47l-9.82 5.67v-15.13l9.82-5.67zm13.38-7.73-9.82 5.68v-15.13l9.82-5.68zm13.38-7.72-9.83 5.67v-15.13l9.83-5.67zm13.38-7.73-9.83 5.68v-15.13l9.83-5.68zm13.38-7.72-9.83 5.67v-15.12l9.83-5.68zm13.38-7.72-9.83 5.67v-15.13l9.83-5.67zm13.38-7.73-9.83 5.68v-15.13l9.83-5.68zm13.37-7.72-9.82 5.67v-15.13l9.82-5.67zm13.38-7.73-9.82 5.68v-15.13l9.82-5.68zm13.38-7.72-9.83 5.67v-15.13l9.83-5.67zm13.38-7.72-9.83 5.67v-15.13l9.83-5.67zm13.38-7.73-9.83 5.68v-15.13l9.83-5.68zM25.55 403.47l149.58-86.57 53.09 30.66-149.57 86.58z" style="fill:#e0e0e0"/><ellipse cx="376.34" cy="409.17" rx="38.46" ry="22.2" style="fill:#e0e0e0"/><ellipse cx="262.18" cy="414.27" rx="67.48" ry="38.96" style="fill:#e0e0e0"/><path d="M462 351.47c10.37 6.06 10.37 15.88 0 21.93s-27.18 6.05-37.55 0-10.37-15.87 0-21.93 27.17-6.05 37.55 0" style="fill:#e0e0e0"/><path d="M427.28 366c-8.52-8.79-13.53-31-5.21-38h42.3c8.31 7 3.31 29.18-5.21 38-.07.09-.16.17-.23.25l-.3.29c-.24.23-.49.46-.77.69l-.2.16-.64.49c-.37.26-.74.51-1.11.72-7 4.09-18.38 4.09-25.39 0-.37-.21-.74-.46-1.11-.72-.21-.15-.4-.31-.6-.46l-.25-.2c-.26-.22-.51-.44-.74-.67l-.34-.33Z" style="fill:#ebebeb"/><path d="M460.69 325.22c9.66 5.63 9.66 14.77 0 20.41s-25.3 5.63-34.95 0-9.65-14.78 0-20.41 25.26-5.64 34.95 0" style="fill:#fafafa"/><path d="M456.05 327.93c7.09 4.14 7.09 10.85 0 15s-18.58 4.14-25.67 0-7.08-10.84 0-15 18.62-4.14 25.67 0" style="fill:#ebebeb"/><path d="M430.39 335c7.08-4.14 18.57-4.14 25.66 0a11.85 11.85 0 0 1 4.25 4 11.8 11.8 0 0 1-4.25 3.93c-7.09 4.14-18.58 4.14-25.66 0a11.75 11.75 0 0 1-4.25-3.93 11.8 11.8 0 0 1 4.25-4" style="fill:#fff"/><path d="M437.43 294.38c-2.86 3.61-11.43 5.19-15.71-3.64-4-8.29-8.25-16.11-9.52-19.17a3.23 3.23 0 0 1 1.74-4.33s-.11-4.71 8.09-2.14 14.18 7 18.24 14.52 2.4 13.3-2.84 14.76" style="fill:#f0f0f0"/><path d="M441.79 306.16a42 42 0 0 0-1.05-4.7 66 66 0 0 0-3.34-9 67.5 67.5 0 0 0-10.52-16.32 58 58 0 0 0-7.87-7.66c-.09-.07-.14.11-.08.17a70.53 70.53 0 0 1 20.47 32.09c.52 1.7 1 3.41 1.48 5.13s.78 3.53 1.21 5.29c0 .17.33.26.32 0a32 32 0 0 0-.62-5" style="fill:#e0e0e0"/><path d="M441.79 306.16a42 42 0 0 0-1.05-4.7 66 66 0 0 0-3.34-9 67.5 67.5 0 0 0-10.52-16.32 58 58 0 0 0-7.87-7.66c-.09-.07-.14.11-.08.17a70.53 70.53 0 0 1 20.47 32.09c.52 1.7 1 3.41 1.48 5.13s.78 3.53 1.21 5.29c0 .17.33.26.32 0a32 32 0 0 0-.62-5" style="opacity:.1"/><path d="M446.73 288.05c-7.44 2.3-13-3.51-11.06-12.62s11.49-19.23 15.1-16.51c2.26-2.26 7.23-1.45 9.57 5.95s.21 26.4-13.61 23.18" style="fill:#e0e0e0"/><path d="M451.1 264.46a99.3 99.3 0 0 0-5 16.37 161 161 0 0 0-2.83 17.17c-1.33 11.14-1.56 10.52-1.49 21.72 0 3.1.07 6.2.13 9.3s0 6.41.28 9.59c.1 1.22 1.84.89 1.86-.22.11-5.58-.2-11.18-.25-16.77s0 .84.1-4.67a231 231 0 0 1 3-33.55c.53-3.09 1.12-6.18 1.84-9.23.76-3.21 1.69-6.37 2.53-9.56.04-.15-.1-.32-.17-.15" style="fill:#e0e0e0"/><path d="M451.1 264.46a99.3 99.3 0 0 0-5 16.37 161 161 0 0 0-2.83 17.17c-1.33 11.14-1.56 10.52-1.49 21.72 0 3.1.07 6.2.13 9.3s0 6.41.28 9.59c.1 1.22 1.84.89 1.86-.22.11-5.58-.2-11.18-.25-16.77s0 .84.1-4.67a231 231 0 0 1 3-33.55c.53-3.09 1.12-6.18 1.84-9.23.76-3.21 1.69-6.37 2.53-9.56.04-.15-.1-.32-.17-.15" style="opacity:.1"/><path d="M429.5 312.67c-.95 4.82-7.55 8.3-15.18 5.14s-22.67-23-15.8-25.16c-.37-3.6 20.4-6.56 30.68 6.11 7.47 9.24.3 13.91.3 13.91" style="fill:#e0e0e0"/><path d="M440.41 319.83a36 36 0 0 0-3.1-3.41q-3.35-3.32-7-6.26a94.2 94.2 0 0 0-16.09-10.35 84 84 0 0 0-9.72-4.42c-.09 0-.05.15 0 .18 2.78 1.31 5.56 2.58 8.24 4.08a95 95 0 0 1 8.08 5.1A118 118 0 0 1 435 316.37c1.26 1.21 2.45 2.47 3.72 3.66s2.73 2.38 4 3.68c.18.19.51.1.31-.17-.88-1.23-1.69-2.54-2.62-3.71" style="fill:#e0e0e0"/><path d="M440.41 319.83a36 36 0 0 0-3.1-3.41q-3.35-3.32-7-6.26a94.2 94.2 0 0 0-16.09-10.35 84 84 0 0 0-9.72-4.42c-.09 0-.05.15 0 .18 2.78 1.31 5.56 2.58 8.24 4.08a95 95 0 0 1 8.08 5.1A118 118 0 0 1 435 316.37c1.26 1.21 2.45 2.47 3.72 3.66s2.73 2.38 4 3.68c.18.19.51.1.31-.17-.88-1.23-1.69-2.54-2.62-3.71" style="opacity:.1"/><path d="M448.34 321.41c-4-1.76-3.24-6.82 3.17-12s20.08-5.29 20.21-2.58c2.92.57 1.16 9.73-6.94 16.89s-17.14 3.42-16.44-2.31" style="fill:#e0e0e0"/><path d="M458.25 314a33.5 33.5 0 0 0-15.1 13.28c-.21.33.31 1 .53.61a39.2 39.2 0 0 1 14.58-13.8s.05-.09-.01-.09" style="fill:#e0e0e0"/><path d="M458.25 314a33.5 33.5 0 0 0-15.1 13.28c-.21.33.31 1 .53.61a39.2 39.2 0 0 1 14.58-13.8s.05-.09-.01-.09" style="opacity:.1"/><path d="M449.16 330.22c-4.63 4.55.48 10.18 8 13a26.84 26.84 0 0 0 19.44-.9c3.62-1.81 4.37-2.71 4.37-2.71s-1.77-6-3.83-9.2a19.26 19.26 0 0 0-18.94-8.7c-9.63 1.2-10.41 5.2-9.04 8.51" style="fill:#f0f0f0"/><path d="M468.59 333.64a48.3 48.3 0 0 0-11.77-4.36c-4-.78-9-.81-12.24 2.06-1.27 1.11-2.95 3.52-1.92 5.23.1.17.61.48.72.14a16.7 16.7 0 0 1 1-3.16 6.46 6.46 0 0 1 2.52-2.37 14.9 14.9 0 0 1 8.53-1.44c4.58.44 8.89 2.27 13.11 4 .09.02.09-.09.05-.1" style="fill:#e0e0e0"/><path d="M468.59 333.64a48.3 48.3 0 0 0-11.77-4.36c-4-.78-9-.81-12.24 2.06-1.27 1.11-2.95 3.52-1.92 5.23.1.17.61.48.72.14a16.7 16.7 0 0 1 1-3.16 6.46 6.46 0 0 1 2.52-2.37 14.9 14.9 0 0 1 8.53-1.44c4.58.44 8.89 2.27 13.11 4 .09.02.09-.09.05-.1" style="opacity:.1"/><path d="M450.43 301.56c-1.16 4.07 4 7.87 10.49 5.69s13.17-4.19 18.67-4.26 9-3.69 7.87-6.14S485 288.61 471 287s-20.36 3.29-23.29 7.17.38 8.07 2.72 7.39" style="fill:#f0f0f0"/><path d="M476.49 293a17 17 0 0 0-4.52-.41 28 28 0 0 0-4.38.36 33.7 33.7 0 0 0-8.24 2.56c-4.93 2.19-9.82 5-13 9.48a31.8 31.8 0 0 0-4.13 7.73c-.18.53.83.82 1.06.35a57 57 0 0 1 3.51-6.72 20.7 20.7 0 0 1 5.37-5.6A42.6 42.6 0 0 1 467 294a29 29 0 0 1 4.75-.7 42 42 0 0 1 4.77.18c.22-.04.12-.43-.03-.48" style="fill:#e0e0e0"/><path d="M476.49 293a17 17 0 0 0-4.52-.41 28 28 0 0 0-4.38.36 33.7 33.7 0 0 0-8.24 2.56c-4.93 2.19-9.82 5-13 9.48a31.8 31.8 0 0 0-4.13 7.73c-.18.53.83.82 1.06.35a57 57 0 0 1 3.51-6.72 20.7 20.7 0 0 1 5.37-5.6A42.6 42.6 0 0 1 467 294a29 29 0 0 1 4.75-.7 42 42 0 0 1 4.77.18c.22-.04.12-.43-.03-.48" style="opacity:.1"/><path d="M438.92 324.49c-1.09-4.18-6.39-6.53-13.33-7.05a18.14 18.14 0 0 0-17.24 8.85c-3.62 6.2-5.13 11.14-2.93 11.95s11.52 2.1 17.53 2.63 13.52-.55 18.43-5.11 3.28-10.3-2.46-11.27" style="fill:#e0e0e0"/><path d="M439.18 323.94a18.3 18.3 0 0 0-7.48-.35 33.6 33.6 0 0 0-7.07 1.63 45 45 0 0 0-7 3.15c-1.17.64-2.33 1.32-3.45 2a27 27 0 0 0-3.11 2.14s0 .18 0 .15c1.14-.51 2.21-1.23 3.29-1.84s2.36-1.31 3.56-1.91a50 50 0 0 1 6.93-2.95 33.8 33.8 0 0 1 7.36-1.57 45.6 45.6 0 0 1 7 .18c.54.07.26-.57-.03-.63" style="fill:#e0e0e0"/><path d="M439.18 323.94a18.3 18.3 0 0 0-7.48-.35 33.6 33.6 0 0 0-7.07 1.63 45 45 0 0 0-7 3.15c-1.17.64-2.33 1.32-3.45 2a27 27 0 0 0-3.11 2.14s0 .18 0 .15c1.14-.51 2.21-1.23 3.29-1.84s2.36-1.31 3.56-1.91a50 50 0 0 1 6.93-2.95 33.8 33.8 0 0 1 7.36-1.57 45.6 45.6 0 0 1 7 .18c.54.07.26-.57-.03-.63" style="opacity:.1"/><path d="m380.03 77.9 27.19-15.7 71.63 41.31v2.98l-27.2 15.7-71.62-41.3z" style="fill:#ebebeb"/><path d="M451.65 119.21 380.03 77.9l27.19-15.7 71.63 41.31z" style="fill:#fafafa"/><path d="M451.65 119.21v2.98l27.2-15.7v-2.98z" style="fill:#e6e6e6"/><path d="m399.05 36.32-15.96 9.21v30.36l15.96-9.22z" style="fill:#ebebeb"/><path d="m383.6 46 15.45-8.86a6.52 6.52 0 0 0 3.53 1.93l-15.32 8.82A15.6 15.6 0 0 1 383.6 46" style="fill:#fff"/><path d="M388.75 47.88a3.3 3.3 0 0 1-3 0l-2.6-1.49c-.82-.48-.82-1.24 0-1.71L398.4 36l.65.37-15 8.64c-.5.28-.49.74 0 1l2.41 1.37a2 2 0 0 0 1.78 0l15-8.63.73.42Z" style="fill:#fafafa"/><path d="M404 39.14V69.5l-15.22 8.73a3.3 3.3 0 0 1-3 0l-2.6-1.49a1 1 0 0 1-.61-.85V45.53a1 1 0 0 0 .61.85l2.6 1.5a3.3 3.3 0 0 0 3 0Z" style="fill:#e0e0e0"/><path d="M387.26 48.23a3.1 3.1 0 0 1-1.48-.35l-2.6-1.5a1 1 0 0 1-.61-.85v30.36a1 1 0 0 0 .61.85l2.6 1.49a3 3 0 0 0 1.48.35Z" style="fill:#f0f0f0"/><path d="m405.74 40.91-15.96 9.22 4.96 31.27 15.95-9.21z" style="fill:#ebebeb"/><path d="m390.41 50.57 15.45-8.87a8.6 8.6 0 0 0 4.14 1.6l-15.31 8.82a20.2 20.2 0 0 1-4.28-1.55" style="fill:#fff"/><path d="M396.26 52a4.16 4.16 0 0 1-3.22.15l-3-1.24c-.95-.4-1.06-1.09-.24-1.56l15.2-8.74.76.3-15 8.65c-.49.28-.43.7.15.93l2.82 1.14a2.48 2.48 0 0 0 1.93-.09l15-8.63.86.35Z" style="fill:#fafafa"/><path d="m411.48 43.26 5 31.28-15.23 8.73a4.14 4.14 0 0 1-3.21.15l-3-1.24c-.48-.2-.74-.47-.79-.75l-5-31.28c.05.29.32.56.79.75l3 1.25a4.16 4.16 0 0 0 3.22-.15Z" style="fill:#e0e0e0"/><path d="M394.7 52.4a4.3 4.3 0 0 1-1.66-.25l-3-1.25c-.47-.19-.74-.46-.79-.75l5 31.28c.05.28.31.55.79.75l3 1.24a4.2 4.2 0 0 0 1.66.25Z" style="fill:#f0f0f0"/><path d="M411.56 80.89c-3.76 2.17-3.76 5.68 0 7.85a15 15 0 0 0 13.59 0c3.76-2.17 3.76-5.68 0-7.85a15 15 0 0 0-13.59 0" style="opacity:.05"/><path d="M424.47 86.36c3.27-3.34 5.19-11.67 2-14.31h-16.23c-3.18 2.64-1.27 11 2 14.31l.09.09a.6.6 0 0 1 .11.11l.3.26.08.06.24.19a4 4 0 0 0 .43.27 10.78 10.78 0 0 0 9.74 0 5 5 0 0 0 .42-.27l.23-.18.1-.07.28-.26.13-.12Z" style="fill:#f5f5f5"/><path d="M411.65 70.78c-3.7 2.14-3.7 5.6 0 7.74a14.81 14.81 0 0 0 13.41 0c3.7-2.14 3.7-5.6 0-7.74a14.81 14.81 0 0 0-13.41 0" style="fill:#fff"/><path d="M414.28 72.29c-2.25 1.3-2.25 3.41 0 4.71a9 9 0 0 0 8.15 0c2.26-1.3 2.26-3.41 0-4.71a9 9 0 0 0-8.15 0" style="fill:#ebebeb"/><path d="M422.43 74.53a9 9 0 0 0-8.15 0 3.65 3.65 0 0 0-1.35 1.24 3.7 3.7 0 0 0 1.35 1.23 9 9 0 0 0 8.15 0 3.63 3.63 0 0 0 1.35-1.23 3.57 3.57 0 0 0-1.35-1.24" style="fill:#e0e0e0"/><path d="M414.77 75.77a19 19 0 0 1-2.95-3.93c-1.36-2.41-1.61-5.63-.9-6s3.57 2.82 3.57 2.82a17.2 17.2 0 0 1-.31-4.11c.13-2.15.65-4.1 1.26-4.49s2 2.31 2.58 4.27.94 3.58.94 3.58a31.4 31.4 0 0 1 1.04-4.55c.72-2 1.36-2.49 1.87-2.29s.83 1.15 1 3.86a27.4 27.4 0 0 1-.12 3.88s1-1.11 2.13-2.19 1.76-1.34 2.11-1.12.45 2.07-1.46 5.52a19.2 19.2 0 0 1-3.6 4.75s-2.64 1.7-7.16 0" style="fill:#ebebeb"/><path d="m443.67 59.34-15.95 9.22v30.36l15.95-9.22z" style="fill:#e0e0e0"/><path d="m428.23 69.07 15.44-8.87a6.53 6.53 0 0 0 3.53 1.93L431.89 71a15.4 15.4 0 0 1-3.66-1.93" style="fill:#fff"/><path d="M433.38 70.9a3.24 3.24 0 0 1-3 0l-2.6-1.49a.89.89 0 0 1 0-1.7L443 59l.64.36L428.7 68a.54.54 0 0 0 0 1l2.42 1.37a2 2 0 0 0 1.78 0l15-8.63.73.42Z" style="fill:#fafafa"/><path d="M448.59 62.17v30.36l-15.21 8.73a3.3 3.3 0 0 1-3 0l-2.6-1.49a1 1 0 0 1-.62-.85V68.56a1 1 0 0 0 .62.85l2.6 1.5a3.3 3.3 0 0 0 3 0Z" style="fill:#e0e0e0"/><path d="M431.89 71.26a3.1 3.1 0 0 1-1.48-.35l-2.6-1.5a1 1 0 0 1-.62-.85v30.36a1 1 0 0 0 .62.85l2.6 1.49a3.1 3.1 0 0 0 1.48.35Z" style="fill:#f0f0f0"/><path d="m450.2 63.09-15.96 9.22v30.35l15.96-9.21z" style="fill:#ebebeb"/><path d="M434.76 72.81 450.2 64a6.46 6.46 0 0 0 3.53 1.93l-15.31 8.77a15.4 15.4 0 0 1-3.66-1.89" style="fill:#fff"/><path d="M439.9 74.65a3.3 3.3 0 0 1-3 0l-2.6-1.49a.89.89 0 0 1 0-1.7l15.22-8.74.65.37-15 8.64a.54.54 0 0 0 0 1l2.42 1.37a2 2 0 0 0 1.78 0l15-8.63.73.42Z" style="fill:#fafafa"/><path d="M455.12 65.92v30.35L439.9 105a3.3 3.3 0 0 1-3 0l-2.6-1.49a1 1 0 0 1-.61-.85V72.31a1.05 1.05 0 0 0 .61.85l2.6 1.49a3.3 3.3 0 0 0 3 0Z" style="fill:#e0e0e0"/><path d="M438.42 75a3 3 0 0 1-1.49-.35l-2.6-1.49a1.05 1.05 0 0 1-.61-.85v30.35a1 1 0 0 0 .61.85l2.6 1.49a3 3 0 0 0 1.49.36Z" style="fill:#f0f0f0"/><path d="m456.64 69.53-15.95 9.22 4.95 31.27 15.96-9.22z" style="fill:#ebebeb"/><path d="m441.32 79.18 15.45-8.86a8.45 8.45 0 0 0 4.11 1.59l-15.32 8.83a21 21 0 0 1-4.24-1.56" style="fill:#fff"/><path d="M447.16 80.62a4.14 4.14 0 0 1-3.21.14l-3-1.24c-1-.39-1.07-1.09-.25-1.56l15.23-8.74.75.31-15 8.64c-.49.29-.42.7.15.94l2.82 1.14a2.52 2.52 0 0 0 1.93-.09l15-8.63.85.35Z" style="fill:#fafafa"/><path d="m462.39 71.88 5 31.27-15.23 8.74a4.16 4.16 0 0 1-3.22.14l-3-1.24c-.48-.19-.75-.46-.79-.75l-5-31.27c.05.28.31.55.79.75l3 1.24a4.14 4.14 0 0 0 3.21-.14Z" style="fill:#e0e0e0"/><path d="M445.61 81a3.9 3.9 0 0 1-1.66-.25l-3-1.24c-.48-.2-.74-.47-.79-.75l5 31.27c0 .29.31.56.79.75l3 1.24a3.9 3.9 0 0 0 1.66.25Z" style="fill:#f0f0f0"/><path d="M126 87.81v-3.87a1.34 1.34 0 0 0-.78-1l-23.47-13.48a3.94 3.94 0 0 0-3.6 0l-67.36 38.65a1.34 1.34 0 0 0-.78 1V113a1.34 1.34 0 0 0 .78 1l23.43 13.5a4 4 0 0 0 3.6 0l67.36-38.65a1.34 1.34 0 0 0 .78-1Z" style="fill:#ebebeb"/><path d="m30.79 110.18 23.43 13.44a3.94 3.94 0 0 0 3.6 0L125.18 85a1.09 1.09 0 0 0 0-2.07l-23.43-13.47a3.94 3.94 0 0 0-3.6 0l-67.36 38.65a1.09 1.09 0 0 0 0 2.07" style="fill:#fafafa"/><path d="M56 124.06v3.87a3.8 3.8 0 0 1-1.8-.43l-23.41-13.44a1.32 1.32 0 0 1-.78-1v-3.88a1 1 0 0 1 .15-.44c-.27.5-.07 1.07.63 1.47l23.43 13.45a3.63 3.63 0 0 0 1.78.4" style="fill:#e0e0e0"/><path d="m66.17 91.88 19.85 11.31 32.79-18.82-19.85-11.31z" style="fill:#10b981"/><path d="m66.17 91.88 19.85 11.31 32.79-18.82-19.85-11.31z" style="opacity:.5"/><path d="m86.24 102.33-19.14-11a7.9 7.9 0 0 0-.11-5L86 97.25a19 19 0 0 1 .24 5.08" style="fill:#fff"/><path d="M85 95.7a4 4 0 0 1 1.84 3.17v3.7c0 1.16-.82 1.64-1.84 1.05L66.17 92.79v-.91l18.62 10.61c.61.35 1.1.07 1.1-.63v-3.43a2.42 2.42 0 0 0-1.1-1.9L66.17 85.91v-1Z" style="fill:#10b981"/><path d="M85 95.7a4 4 0 0 1 1.84 3.17v3.7c0 1.16-.82 1.64-1.84 1.05L66.17 92.79v-.91l18.62 10.61c.61.35 1.1.07 1.1-.63v-3.43a2.42 2.42 0 0 0-1.1-1.9L66.17 85.91v-1Z" style="opacity:.30000000000000004"/><path d="M66.17 84.87 99 66.05l18.88 10.83a4 4 0 0 1 1.84 3.17v3.7a1.31 1.31 0 0 1-.54 1.18l-32.8 18.82a1.26 1.26 0 0 0 .54-1.18v-3.7A4 4 0 0 0 85 95.7Z" style="fill:#10b981"/><path d="M66.17 84.87 99 66.05l18.88 10.83a4 4 0 0 1 1.84 3.17v3.7a1.31 1.31 0 0 1-.54 1.18l-32.8 18.82a1.26 1.26 0 0 0 .54-1.18v-3.7A4 4 0 0 0 85 95.7Z" style="opacity:.1"/><path d="M86.34 97.06a3.7 3.7 0 0 1 .54 1.81v3.7a1.26 1.26 0 0 1-.54 1.18l32.8-18.82a1.31 1.31 0 0 0 .54-1.18v-3.7a3.8 3.8 0 0 0-.54-1.81Z" style="opacity:.1"/><path d="m66.17 82.59 19.85 11.32 32.79-18.83-19.84-11.31z" style="fill:#10b981"/><path d="m86.25 93.05-19.15-11a7.93 7.93 0 0 0-.11-5L86 88a19.2 19.2 0 0 1 .25 5.05" style="fill:#fff"/><path d="M85 86.41a4 4 0 0 1 1.84 3.17v3.7c0 1.17-.82 1.64-1.84 1.06L66.17 83.51v-.92l18.62 10.62c.61.35 1.1.06 1.1-.64v-3.43a2.42 2.42 0 0 0-1.1-1.9L66.17 76.62v-1Z" style="fill:#10b981"/><path d="M85 86.41a4 4 0 0 1 1.84 3.17v3.7c0 1.17-.82 1.64-1.84 1.06L66.17 83.51v-.92l18.62 10.62c.61.35 1.1.06 1.1-.64v-3.43a2.42 2.42 0 0 0-1.1-1.9L66.17 76.62v-1Z" style="fill:#fff;opacity:.15"/><path d="M66.17 75.58 99 56.76l18.87 10.83a4 4 0 0 1 1.84 3.17v3.7a1.28 1.28 0 0 1-.54 1.18L86.34 94.46a1.26 1.26 0 0 0 .54-1.18v-3.7A4 4 0 0 0 85 86.41Z" style="fill:#10b981"/><path d="M66.17 75.58 99 56.76l18.87 10.83a4 4 0 0 1 1.84 3.17v3.7a1.28 1.28 0 0 1-.54 1.18L86.34 94.46a1.26 1.26 0 0 0 .54-1.18v-3.7A4 4 0 0 0 85 86.41Z" style="fill:#fff;opacity:.35000000000000003"/><path d="M86.35 87.78a3.73 3.73 0 0 1 .53 1.8v3.7a1.26 1.26 0 0 1-.54 1.18l32.8-18.82a1.28 1.28 0 0 0 .54-1.18v-3.7a3.75 3.75 0 0 0-.54-1.8Z" style="fill:#10b981"/><path d="M86.35 87.78a3.73 3.73 0 0 1 .53 1.8v3.7a1.26 1.26 0 0 1-.54 1.18l32.8-18.82a1.28 1.28 0 0 0 .54-1.18v-3.7a3.75 3.75 0 0 0-.54-1.8Z" style="fill:#fff;opacity:.25"/><path d="M66.18 104c5.3 3.07 5.3 8 0 11.09s-13.89 3.06-19.19 0-5.3-8 0-11.08S60.88 101 66.18 104" style="fill:#e0e0e0"/><path d="M64.32 110c4.29-4.37 6.8-15.27 2.62-18.74H45.7c-4.17 3.46-1.7 14.36 2.62 18.74l.11.12.15.14a4 4 0 0 0 .39.34l.1.08a4 4 0 0 0 .32.25 6 6 0 0 0 .56.35 14 14 0 0 0 12.75 0 6 6 0 0 0 .56-.35l.3-.23.12-.1c.14-.11.26-.22.38-.33s.11-.11.17-.17Z" style="fill:#ebebeb"/><path d="M47.54 89.87c-4.84 2.79-4.84 7.33 0 10.13s12.7 2.8 17.55 0 4.85-7.34 0-10.13-12.7-2.8-17.55 0" style="fill:#fafafa"/><path d="M49.09 90.76c-4 2.3-4 6 0 8.35a16 16 0 0 0 14.46 0c4-2.31 4-6 0-8.35a16 16 0 0 0-14.46 0" style="fill:#ebebeb"/><path d="M63.55 94.72a16 16 0 0 0-14.46 0 6.6 6.6 0 0 0-2.39 2.19 6.6 6.6 0 0 0 2.39 2.2 16 16 0 0 0 14.46 0 6.6 6.6 0 0 0 2.39-2.2 6.6 6.6 0 0 0-2.39-2.19" style="fill:#455a64"/><path d="M66.55 85.67a10.25 10.25 0 0 0-12.62-10 10 10 0 0 0-7.63 7.87 10.23 10.23 0 0 0 5 11 3.19 3.19 0 0 1 1.65 2.74v.12c0 2.28 6.83 2.28 6.83 0v-.14a3.12 3.12 0 0 1 1.61-2.7 10.23 10.23 0 0 0 5.16-8.89" style="fill:#10b981"/><g style="opacity:.30000000000000004"><path d="M66.55 85.67a10.25 10.25 0 0 0-12.62-10 10 10 0 0 0-7.63 7.87 10.23 10.23 0 0 0 5 11 3.19 3.19 0 0 1 1.65 2.74v.12c0 2.28 6.83 2.28 6.83 0v-.14a3.12 3.12 0 0 1 1.61-2.7 10.23 10.23 0 0 0 5.16-8.89" style="fill:#fff"/></g><path d="M56.32 75.62v-.18a11 11 0 0 0-2.4.27 10 10 0 0 0-7.63 7.87 10.23 10.23 0 0 0 5 11 3.19 3.19 0 0 1 1.65 2.74v.12a1.14 1.14 0 0 0 .4.85c0-2-.18-3.1-2.22-5.31a10.76 10.76 0 0 1-2.75-7.43c0-4.15 2.99-9.93 7.95-9.93m0 0c6.28 4.38 4 13 2.81 15.71-.93 2-1 4-1 7.55.63.21 1 0 1.18-.61 0-2 .18-3.1 2.21-5.31a10.76 10.76 0 0 0 2.75-7.43c0-4.13-2.99-9.91-7.95-9.91" style="fill:#fff;opacity:.25"/><path d="M53.52 91.33c.93 2 1 4 1 7.55l1.8.24V75.44c-6.27 4.38-4.01 13.21-2.8 15.89" style="fill:#fff;opacity:.25"/><path d="M56.32 86.55a.17.17 0 0 0-.17.17V88a.17.17 0 0 0 .34 0v-1.3a.17.17 0 0 0-.17-.15m0-3.91a.17.17 0 0 0-.17.17v1.3a.17.17 0 0 0 .34 0v-1.3a.17.17 0 0 0-.17-.17m0 7.82a.18.18 0 0 0-.17.17v1.3a.17.17 0 0 0 .34 0v-1.3a.18.18 0 0 0-.17-.17m0 3.91a.18.18 0 0 0-.17.17v1.3a.17.17 0 1 0 .34 0v-1.3a.18.18 0 0 0-.17-.17m0 3.91a.18.18 0 0 0-.17.17v.67a.17.17 0 0 0 .34 0v-.67a.18.18 0 0 0-.17-.17m0-19.55a.17.17 0 0 0-.17.17v1.3a.17.17 0 0 0 .34 0v-1.3a.17.17 0 0 0-.17-.17m.1-3.25h-.19c-.24.17-.47.34-.68.52a.16.16 0 0 0 0 .23.2.2 0 0 0 .13.07.2.2 0 0 0 .11 0l.39-.3v.33a.17.17 0 0 0 .34 0V76c.13.1.27.19.39.3a.25.25 0 0 0 .11 0 .17.17 0 0 0 .13-.07.16.16 0 0 0 0-.23c-.27-.18-.5-.35-.73-.52m1.71 21.9a.16.16 0 0 0-.16.16v1.34a.16.16 0 0 0 .17.17.16.16 0 0 0 .16-.17v-1.33a.16.16 0 0 0-.17-.17m2.36-11.74a.16.16 0 0 0-.18.15c0 .44-.09.88-.16 1.32a.17.17 0 0 0 .14.19.16.16 0 0 0 .16-.14c.07-.44.13-.89.16-1.34a.17.17 0 0 0-.12-.18m-2 7.74a.16.16 0 0 0-.19.13c-.08.42-.14.86-.19 1.34a.17.17 0 0 0 .15.19.17.17 0 0 0 .16-.15c.05-.48.11-.91.18-1.31a.17.17 0 0 0-.14-.2Zm2-10.08a.17.17 0 0 0 .15-.19 12 12 0 0 0-.19-1.34.17.17 0 0 0-.2-.13.17.17 0 0 0-.13.2c.08.42.15.86.19 1.3a.17.17 0 0 0 .16.16Zm-.71 6.28a.18.18 0 0 0-.21.12c-.14.45-.29.87-.44 1.24a.17.17 0 0 0 .09.22h.06a.17.17 0 0 0 .16-.11 13 13 0 0 0 .45-1.28.17.17 0 0 0-.13-.19Zm-.31-10.15h.07a.18.18 0 0 0 .08-.23 10 10 0 0 0-.7-1.2.17.17 0 1 0-.27.19 9 9 0 0 1 .65 1.14.16.16 0 0 0 .15.1Zm4.61 4.27a.17.17 0 0 0 .13-.2 12 12 0 0 0-.35-1.31.16.16 0 0 0-.21-.11.17.17 0 0 0-.1.21c.13.42.24.85.33 1.28a.15.15 0 0 0 .18.13Zm-.86 6.3a9 9 0 0 1-.6 1.18.18.18 0 0 0 .06.23h.09a.17.17 0 0 0 .14-.08 12 12 0 0 0 .62-1.21.17.17 0 0 0-.09-.22.16.16 0 0 0-.22.1m1-4a.16.16 0 0 0-.17.16c0 .45-.07.89-.14 1.31a.16.16 0 0 0 .14.2.18.18 0 0 0 .17-.14 12 12 0 0 0 .14-1.35.17.17 0 0 0-.1-.18Zm-1.53-6.09a.18.18 0 0 0 .06-.23 11 11 0 0 0-.75-1.11.17.17 0 0 0-.23 0 .16.16 0 0 0 0 .24 12 12 0 0 1 .73 1.09.16.16 0 0 0 .14.09Zm-3.31 16.85a.17.17 0 0 0-.19.15 13 13 0 0 0 0 1.36.16.16 0 0 0 .17.16.16.16 0 0 0 .16-.16 12 12 0 0 1 .01-1.27.18.18 0 0 0-.15-.24m.71-20.09A7.4 7.4 0 0 0 58.9 76a.17.17 0 1 0-.14.3 7 7 0 0 1 1.14.7.14.14 0 0 0 .1 0 .2.2 0 0 0 .14-.07.19.19 0 0 0-.05-.26M61 93.29a12 12 0 0 0-.84 1.07.18.18 0 0 0 .05.24h.09a.16.16 0 0 0 .14-.07c.22-.32.49-.66.81-1a.16.16 0 0 0 0-.23.17.17 0 0 0-.25-.01m-8.67-6a.16.16 0 0 0 .14-.19c-.07-.44-.12-.88-.16-1.32a.15.15 0 0 0-.18-.15.17.17 0 0 0-.15.18c0 .45.09.9.16 1.34a.18.18 0 0 0 .19.15Zm.55 2.28a.17.17 0 0 0-.11.21c.14.47.3.9.45 1.28a.17.17 0 0 0 .16.11h.06a.16.16 0 0 0 .09-.22c-.15-.37-.3-.79-.44-1.24a.17.17 0 0 0-.21-.13Zm-.49-7.94a.17.17 0 0 0-.2.13c-.08.44-.15.89-.19 1.34a.17.17 0 0 0 .15.19.18.18 0 0 0 .17-.16c0-.44.1-.88.18-1.3a.17.17 0 0 0-.11-.19Zm2.12 15.74a.17.17 0 0 0-.17.17v1.33a.17.17 0 0 0 .17.17.16.16 0 0 0 .16-.17v-1.33a.17.17 0 0 0-.16-.16Zm-.1-2.37a.16.16 0 0 0 .15-.19 13 13 0 0 0-.18-1.34.17.17 0 0 0-.33.07 12 12 0 0 1 .18 1.31.17.17 0 0 0 .17.15Zm-.69-17a10 10 0 0 0-.72 1.19.18.18 0 0 0 .08.23h.08a.16.16 0 0 0 .15-.09A9 9 0 0 1 54 78.2a.16.16 0 0 0 0-.2.16.16 0 0 0-.28 0m.28-1.92a.17.17 0 0 0-.22-.08 7.4 7.4 0 0 0-1.19.67.17.17 0 0 0 0 .24.17.17 0 0 0 .13.07.17.17 0 0 0 .1 0 6.7 6.7 0 0 1 1.13-.65.16.16 0 0 0 .05-.25M49.42 90a.17.17 0 1 0-.3.14 11 11 0 0 0 .61 1.21.19.19 0 0 0 .15.08h.08a.17.17 0 0 0 .06-.23 12 12 0 0 1-.6-1.2m-1-4a.18.18 0 0 0-.16.18q0 .69.15 1.35a.16.16 0 0 0 .16.14.18.18 0 0 0 .14-.2 11 11 0 0 1-.14-1.31.17.17 0 0 0-.18-.16Zm.58-4a.16.16 0 0 0-.21.11 12 12 0 0 0-.34 1.31.17.17 0 0 0 .13.2.17.17 0 0 0 .17-.13 10 10 0 0 1 .33-1.28.16.16 0 0 0-.08-.13Zm4.29 14.68a.17.17 0 0 0-.14.19c0 .43.05.91.05 1.32a.17.17 0 0 0 .34 0 13 13 0 0 0-.06-1.36.17.17 0 0 0-.22-.07Zm-2.68-18.11a11 11 0 0 0-.75 1.14.17.17 0 0 0 .06.23L50 80a.18.18 0 0 0 .15-.09 10 10 0 0 1 .73-1.09.17.17 0 1 0-.27-.21Zm1 14.72a.17.17 0 0 0-.24 0 .16.16 0 0 0 0 .23 12 12 0 0 1 .81 1 .17.17 0 0 0 .14.07h.1a.19.19 0 0 0 0-.24c-.17-.35-.42-.67-.77-1.06Z" style="fill:#fff;opacity:.4"/><path d="M50.54 72.19a.68.68 0 0 0-.7.15 1.2 1.2 0 0 0-.22.64 7 7 0 0 0 .13 1.8 3.26 3.26 0 0 0-3-1 .34.34 0 0 0-.23.1.4.4 0 0 0-.1.22 3.29 3.29 0 0 0 1 3 6.6 6.6 0 0 0-1.81-.14 1.27 1.27 0 0 0-.63.22.72.72 0 0 0-.16.71 1.6 1.6 0 0 0 .4.62 4.66 4.66 0 0 0 3.46 1.36 3.94 3.94 0 0 0 3.76-3.76 4.63 4.63 0 0 0-1.35-3.46 1.4 1.4 0 0 0-.55-.46" style="fill:#455a64"/><path d="M106.34 72.13a4.4 4.4 0 0 1-.7 1.63 7.7 7.7 0 0 1-2.64 2.33c-4.54 2.62-11.91 2.62-16.45 0a7.66 7.66 0 0 1-2.62-2.33 4.4 4.4 0 0 1-.7-1.63c-.41-2 .7-4 3.32-5.54C91.1 64 98.47 64 103 66.59c2.63 1.52 3.74 3.57 3.34 5.54" style="opacity:.1"/><path d="M105.25 62.23H84.32l2.17 9a4.4 4.4 0 0 0 2.41 3 13.07 13.07 0 0 0 11.78 0 4.27 4.27 0 0 0 2.43-3.23Z" style="fill:#e0e0e0"/><path d="M102.7 68.4a8.6 8.6 0 0 0 1.25-.87l1.18-4.82a8.2 8.2 0 0 1-2.13 1.68c-4.4 2.55-11.48 2.61-16 .21l.53-2.15-.16-.22h-3l2.17 9a4.4 4.4 0 0 0 2.41 3 13 13 0 0 0 8.56 1.14c-5.21.39-8.79-1.89-9.32-4-.22-.84-.59-2.69-.59-2.69 4.3 2.21 10.94 2.12 15.1-.28" style="opacity:.05"/><path d="M106.34 59.56a4.45 4.45 0 0 1-.7 1.63 7.8 7.8 0 0 1-2.64 2.33c-4.54 2.62-11.91 2.62-16.45 0a7.76 7.76 0 0 1-2.62-2.33 4.45 4.45 0 0 1-.7-1.63c-.41-2 .7-4 3.32-5.54C91.1 51.4 98.47 51.4 103 54c2.63 1.53 3.74 3.59 3.34 5.56" style="fill:#fafafa"/><path d="M105.64 61.19a7.8 7.8 0 0 1-2.64 2.33c-4.54 2.62-11.91 2.62-16.45 0a7.76 7.76 0 0 1-2.62-2.33 4.45 4.45 0 0 1-.7-1.63l.51 3.55A5.93 5.93 0 0 0 87 67a17.37 17.37 0 0 0 15.67 0 6 6 0 0 0 3.19-3.86v-.18l.5-3.42a4.45 4.45 0 0 1-.72 1.65" style="fill:#ebebeb"/><path d="M101.64 54.81a15.17 15.17 0 0 0-13.7 0c-2.15 1.24-3.08 2.91-2.8 4.52a5.2 5.2 0 0 0 2.8 3.4 15.17 15.17 0 0 0 13.7 0 5.22 5.22 0 0 0 2.79-3.39c.28-1.62-.64-3.29-2.79-4.53" style="fill:#e0e0e0"/><path d="M85.78 60.83a6.6 6.6 0 0 0 2.16 1.9 15.17 15.17 0 0 0 13.7 0 6.45 6.45 0 0 0 2.15-1.9c0-1.31-.9-2.61-2.63-3.61a14.09 14.09 0 0 0-12.74 0c-1.73 1-2.61 2.3-2.64 3.61" style="fill:#455a64"/><path d="M84.21 54.44c.2-6.19 6.92-8.66 10.58-8.66s10.37 2.47 10.57 8.66c.19 5.78-4.87 8-10.57 8s-10.79-2.22-10.58-8" style="fill:#10b981"/><path d="M84.21 54.44c.2-6.19 6.92-8.66 10.58-8.66s10.37 2.47 10.57 8.66c.19 5.78-4.87 8-10.57 8s-10.79-2.22-10.58-8" style="fill:#fff;opacity:.2"/><path d="M84.21 54.44c.2-6.19 6.92-8.66 10.58-8.66v16.61c-5.71 0-10.79-2.17-10.58-7.95" style="fill:#10b981"/><path d="M84.21 54.44c.2-6.19 6.92-8.66 10.58-8.66v16.61c-5.71 0-10.79-2.17-10.58-7.95" style="fill:#fff;opacity:.4"/><path d="M94.79 45.78c.94 0 2.61 5.19 2.61 8.19s-1 8.42-2.61 8.42c0 0 4.54-.64 4.54-8.42s-4.54-8.19-4.54-8.19" style="fill:#10b981"/><path d="M94.79 45.78c2.75 0 6.88 3.14 6.88 7.73s-3.5 8.88-6.52 8.88c4.95 0 8.56-3.65 8.56-8.83s-5.63-7.78-8.92-7.78m0 0c-1 0-2.62 5.19-2.62 8.19s1 8.42 2.62 8.42c0 0-4.54-.64-4.54-8.42s4.54-8.19 4.54-8.19" style="fill:#10b981"/><path d="M94.79 45.78c-1 0-2.62 5.19-2.62 8.19s1 8.42 2.62 8.42c0 0-4.54-.64-4.54-8.42s4.54-8.19 4.54-8.19" style="fill:#fff;opacity:.2"/><path d="M94.79 45.78c-2.75 0-6.89 3.14-6.89 7.73s3.51 8.88 6.53 8.88c-5 0-8.56-3.65-8.56-8.83s5.62-7.78 8.92-7.78" style="fill:#10b981"/><path d="M94.79 45.78c-2.75 0-6.89 3.14-6.89 7.73s3.51 8.88 6.53 8.88c-5 0-8.56-3.65-8.56-8.83s5.62-7.78 8.92-7.78" style="fill:#fff;opacity:.2"/><path d="M94.64 60.24v.14a.15.15 0 0 0 .3 0v-.14a.15.15 0 0 0-.3 0m0-1.93a.15.15 0 0 0 .3 0v-.14a.15.15 0 0 0-.3 0Zm0-10.38a.15.15 0 0 0 .15.14.14.14 0 0 0 .14-.14v-.14a.15.15 0 0 0-.14-.15.15.15 0 0 0-.15.15Zm0 2.07a.15.15 0 0 0 .15.15.15.15 0 0 0 .14-.15v-.14a.14.14 0 0 0-.14-.14.15.15 0 0 0-.15.14Zm0 6.23a.15.15 0 0 0 .15.15.15.15 0 0 0 .14-.15v-.14a.14.14 0 0 0-.14-.14.15.15 0 0 0-.15.14Zm0-4.15a.15.15 0 0 0 .15.14.14.14 0 0 0 .14-.14v-.14a.15.15 0 0 0-.14-.15.15.15 0 0 0-.15.15Zm0 2.07a.15.15 0 0 0 .15.15.14.14 0 0 0 .14-.15V54a.15.15 0 0 0-.14-.15.15.15 0 0 0-.15.15ZM99.45 53v-.15a.15.15 0 0 0-.16-.14.15.15 0 0 0-.13.16V53a.15.15 0 0 0 .15.14.15.15 0 0 0 .14-.14M98 59.57a.14.14 0 0 0 .06.19.08.08 0 0 0 .07 0 .14.14 0 0 0 .12-.07l.08-.14a.15.15 0 0 0-.07-.2.14.14 0 0 0-.19.06 1 1 0 0 0-.07.16m.93-9.12a.14.14 0 0 0-.11.17v.15a.15.15 0 0 0 .15.11.14.14 0 0 0 .11-.17v-.15a.15.15 0 0 0-.14-.11Zm.21 4.66v.15a.15.15 0 0 0 .14.15.15.15 0 0 0 .15-.13v-.16a.15.15 0 0 0-.13-.12.13.13 0 0 0-.15.11ZM96.89 47a.16.16 0 0 0 .11-.1.15.15 0 0 0 0-.21l-.12-.1a.14.14 0 0 0-.2 0 .16.16 0 0 0 0 .21l.11.09a.18.18 0 0 0 .1.11m1.44 1.78a.15.15 0 0 0 .06-.2c0-.05 0-.09-.07-.14a.15.15 0 1 0-.26.14 1 1 0 0 1 .07.13.16.16 0 0 0 .13.08Zm.61 8.93a.16.16 0 0 0 .14-.11v-.15a.15.15 0 1 0-.29-.07v.15a.14.14 0 0 0 .1.18Zm-3.08-10.1.06.14a.14.14 0 0 0 .14.09.15.15 0 0 0 .08-.19v-.14a.15.15 0 0 0-.2-.08.15.15 0 0 0-.08.13Zm.71 2.12v.15a.16.16 0 0 0 .14.11.14.14 0 0 0 .1-.18v-.14a.16.16 0 0 0-.18-.11.15.15 0 0 0-.06.12Zm-.51 11.14a.14.14 0 0 0 .08.19.14.14 0 0 0 .14-.09l.06-.14a.15.15 0 0 0-.27-.11ZM97.37 52v-.15a.14.14 0 0 0-.16-.12.15.15 0 0 0-.12.17v.15a.14.14 0 0 0 .14.12.15.15 0 0 0 .14-.17m.17 2.28v-.16a.15.15 0 0 0-.14-.12.14.14 0 0 0-.15.14v.15a.15.15 0 0 0 .14.15.14.14 0 0 0 .15-.19Zm-.44 2.08v.14a.16.16 0 0 0 .13.17.13.13 0 0 0 .14-.13v-.15a.15.15 0 0 0-.13-.16.15.15 0 0 0-.14.1Zm-.19 2.1a.14.14 0 0 0-.17.11v.15a.14.14 0 0 0 .11.17.13.13 0 0 0 .14-.11v-.15a.15.15 0 0 0-.08-.2ZM99.29 47a.16.16 0 0 0-.07-.2l-.13-.06a.15.15 0 0 0-.2.06.16.16 0 0 0 .11.2l.13.07h.07a.16.16 0 0 0 .09-.07m3.1 11.21a.15.15 0 0 0 .06.2h.07a.17.17 0 0 0 .13-.07c0-.05 0-.09.07-.14a.14.14 0 0 0-.06-.19.15.15 0 0 0-.2 0 .5.5 0 0 1-.07.19Zm-5.17-12.06a.16.16 0 0 0-.1-.18h-.15a.14.14 0 0 0-.18.1.16.16 0 0 0-.15.09.15.15 0 0 0 .07.19l.13.06h.06a.13.13 0 0 0 .13-.09.08.08 0 0 0 0-.08.15.15 0 0 0 .19-.09m6.4 5.61-.05-.15a.15.15 0 0 0-.28.08v.15a.15.15 0 0 0 .14.1.15.15 0 0 0 .19-.18m-2.56 8.18a.13.13 0 0 0 0 .2.14.14 0 0 0 .1 0 .12.12 0 0 0 .1 0l.11-.1a.15.15 0 0 0-.21-.21Zm2.5-6.08V54a.16.16 0 0 0 .14.16.14.14 0 0 0 .14-.14v-.16a.15.15 0 0 0-.14-.15.15.15 0 0 0-.14.15m-.34 2.32a.14.14 0 0 0 .11.17.15.15 0 0 0 .15-.11v-.14a.15.15 0 0 0-.28-.08Zm-.86-6.64a.16.16 0 0 0 0 .21 1 1 0 0 1 .08.12.16.16 0 0 0 .12.06.16.16 0 0 0 .09 0 .14.14 0 0 0 0-.2l-.08-.12a.15.15 0 0 0-.21-.07m-3.12 11.89a.16.16 0 0 0 .13.08h.07l.13-.07a.15.15 0 0 0-.14-.26l-.13.07a.15.15 0 0 0-.06.18M100.79 48a.14.14 0 0 0 0 .2l.11.1a.16.16 0 0 0 .09 0 .17.17 0 0 0 .12 0 .16.16 0 0 0 0-.21l-.12-.09a.16.16 0 0 0-.2 0M95 45.79a.14.14 0 0 0-.14-.12h-.15a.15.15 0 0 0-.14.12.12.12 0 0 0 0 .07.14.14 0 0 0 .13.08.13.13 0 0 0 .12-.08.2.2 0 0 0 0-.07ZM100.88 57a.14.14 0 0 0 .08.18h.04a.13.13 0 0 0 .13-.09v-.13a.14.14 0 0 0-.09-.19.13.13 0 0 0-.18.09Zm.42-6.21-.06-.14a.15.15 0 0 0-.19-.08.15.15 0 0 0-.08.19v.13a.16.16 0 0 0 .14.1.15.15 0 0 0 .19-.25Zm-1.3 8.03a.14.14 0 0 0 0 .2h.08a.12.12 0 0 0 .12-.07l.08-.12a.15.15 0 1 0-.25-.15Zm1.65-5.82a.15.15 0 0 0 .14-.16v-.14a.15.15 0 1 0-.29 0v.14a.14.14 0 0 0 .14.13Zm-.24 1.94a.15.15 0 0 0 .12.17.14.14 0 0 0 .14-.12v-.15a.14.14 0 0 0-.12-.16.15.15 0 0 0-.17.12Zm-2.74 5.53a.14.14 0 0 0 0 .2.12.12 0 0 0 .1 0 .13.13 0 0 0 .1 0l.1-.1a.15.15 0 0 0 0-.21.15.15 0 0 0-.21 0ZM97 61.92a.13.13 0 0 0 .13.07h.07l.12-.08a.15.15 0 0 0 .06-.2.15.15 0 0 0-.2-.05l-.12.07a.15.15 0 0 0-.06.19m1.49-14.69a.13.13 0 0 0 0 .2l.11.09a.14.14 0 0 0 .09 0 .13.13 0 0 0 .11 0 .16.16 0 0 0 0-.21l-.11-.09a.14.14 0 0 0-.22.01Zm1.5 1.48a.15.15 0 0 0 0 .21.4.4 0 0 1 .01.08.16.16 0 0 0 .12.06h.09a.16.16 0 0 0 0-.21l-.09-.11a.14.14 0 0 0-.12-.03Zm-9.55 2a.15.15 0 0 0 .12.17.15.15 0 0 0 .14-.12v-.14a.15.15 0 0 0-.11-.18.14.14 0 0 0-.17.11 1 1 0 0 1 0 .16Zm-.13 2a.13.13 0 0 0-.15.13V53a.14.14 0 0 0 .14.15.15.15 0 0 0 .15-.14v-.15a.15.15 0 0 0-.16-.16Zm.17 4.7v.15a.13.13 0 0 0 .14.11.15.15 0 0 0 .11-.18v-.15a.14.14 0 0 0-.17-.11.15.15 0 0 0-.1.17Zm2.42-10.59a.15.15 0 1 0-.19-.23l-.12.1a.14.14 0 0 0 0 .21.16.16 0 0 0 .11.05.15.15 0 0 0 .09 0Zm-2.59 8.59a.13.13 0 0 0 .13-.15v-.15a.14.14 0 0 0-.16-.14.14.14 0 0 0-.13.16v.15a.13.13 0 0 0 .14.13Zm.93 4.16s.05.09.07.14a.15.15 0 0 0 .13.07h.07a.15.15 0 0 0 .06-.2l-.07-.13a.15.15 0 0 0-.2-.07.15.15 0 0 0-.06.19m-.06-11a.16.16 0 0 0 .07.2h.06a.13.13 0 0 0 .13-.08 1 1 0 0 0 .07-.13.15.15 0 1 0-.26-.14Zm2 12.26.06.14a.14.14 0 0 0 .13.09h.06a.15.15 0 0 0 .08-.19l-.06-.14a.15.15 0 0 0-.19-.08.15.15 0 0 0-.07.14Zm.33-13a.15.15 0 0 0 .14-.09v-.14a.15.15 0 1 0-.27-.11l-.06.14a.14.14 0 0 0 .09.19Zm-1.34 6.6a.14.14 0 0 0 .14-.15v-.15H92v.15a.15.15 0 0 0 .15.14Zm.83-4.6v-.15a.14.14 0 0 0-.1-.18.15.15 0 0 0-.18.11v.14a.15.15 0 0 0 .1.18.14.14 0 0 0 .18-.1m-.6 1.87a.15.15 0 0 0-.17.12v.15a.14.14 0 0 0 .12.17.14.14 0 0 0 .14-.12v-.15a.15.15 0 0 0-.09-.17m.15 6.9v.15a.15.15 0 0 0 .15.11.14.14 0 0 0 .11-.17v-.15a.15.15 0 0 0-.18-.11.14.14 0 0 0-.08.17m-.24-2.4a.15.15 0 0 0-.13.16v.15a.14.14 0 0 0 .15.13.15.15 0 0 0 .13-.16v-.15a.15.15 0 0 0-.15-.13m-6-4.5a.16.16 0 0 0-.1-.19.16.16 0 0 0-.18.1v.15a.14.14 0 0 0 .1.18.15.15 0 0 0 .14-.1Zm4.4-4.91a.14.14 0 0 0-.19-.06l-.14.07a.14.14 0 0 0 .07.27h.06l.14-.07a.15.15 0 0 0 .03-.21Zm-3.52 3.08a1 1 0 0 0 .08-.12.14.14 0 1 0-.23-.17l-.09.12a.14.14 0 0 0 0 .2.1.1 0 0 0 .08 0 .14.14 0 0 0 .13-.03Zm-.3 8.35s0 .08.07.13a.15.15 0 0 0 .13.07.1.1 0 0 0 .07 0 .15.15 0 0 0 .06-.2l-.08-.12a.13.13 0 0 0-.19-.06.14.14 0 0 0-.09.18Zm1.35 1.61a.14.14 0 0 0 0 .21l.1.11a.2.2 0 0 0 .11 0 .16.16 0 0 0 .1 0 .13.13 0 0 0 0-.2l-.1-.11a.15.15 0 0 0-.24-.01ZM86 56.11v.14a.15.15 0 0 0 .14.11.15.15 0 0 0 .1-.18v-.15a.15.15 0 0 0-.18-.1.15.15 0 0 0-.06.18m-.3-2.25V54a.15.15 0 0 0 .15.14A.15.15 0 0 0 86 54v-.14a.15.15 0 0 0-.15-.14.13.13 0 0 0-.12.14Zm2.91-5.6.12-.09a.16.16 0 0 0 0-.21.15.15 0 0 0-.21 0l-.11.09a.15.15 0 0 0 0 .21.16.16 0 0 0 .11 0 .14.14 0 0 0 .12 0Zm1.31 13a.14.14 0 0 0 .06.2l.13.07h.07a.16.16 0 0 0 .13-.08.15.15 0 0 0-.06-.2l-.13-.07a.15.15 0 0 0-.12.04Zm.65-.87a.15.15 0 0 0 0 .21l.1.1a.12.12 0 0 0 .1.05.14.14 0 0 0 .1-.05.13.13 0 0 0 0-.2l-.09-.1a.15.15 0 0 0-.18-.05Zm-1.3-1.5.07.12a.15.15 0 0 0 .13.07h.08a.15.15 0 0 0 0-.2l-.07-.12a.15.15 0 0 0-.25.15Zm1.59-11.3h.09l.11-.09a.14.14 0 0 0 0-.2.15.15 0 0 0-.21 0l-.11.09a.16.16 0 0 0 0 .21.13.13 0 0 0 .15-.05Zm-2.33 9.6a.15.15 0 0 0 .17-.19v-.13a.14.14 0 0 0-.19-.09.16.16 0 0 0-.09.19v.13a.15.15 0 0 0 .14.05ZM92.4 62h.07a.15.15 0 0 0 .13-.07.15.15 0 0 0-.06-.2l-.12-.07a.14.14 0 1 0-.14.25Zm-4.07-11.4v.14a.15.15 0 0 0 .08.19.15.15 0 0 0 .14-.1v-.13a.14.14 0 0 0-.08-.19.15.15 0 0 0-.14.09m-.53 2.09v.14a.15.15 0 0 0 .13.16.15.15 0 0 0 .15-.13v-.14a.15.15 0 0 0-.29 0Zm5.14-6.52a.16.16 0 0 0-.15-.09.14.14 0 0 0-.17-.1h-.15a.15.15 0 0 0-.1.18.14.14 0 0 0 .14.11.2.2 0 0 0 0 .08.14.14 0 0 0 .13.09h.06l.13-.06a.15.15 0 0 0 .11-.21m-3.31 2.75a.15.15 0 1 0-.23-.18l-.09.11a.16.16 0 0 0 0 .21.1.1 0 0 0 .08 0 .14.14 0 0 0 .12-.06Zm-1.78 5.92v.14a.15.15 0 0 0 .15.12.14.14 0 0 0 .12-.17v-.14a.14.14 0 0 0-.16-.12.16.16 0 0 0-.11.17" style="fill:#fafafa"/><path d="M97.37 47.26c.48.8 3.62 1.47 4.94.75s-1.77-1.54-1.77-1.54 2.68-.35 2.28-1.26-3-.3-3.4.07c0 0 2-2.22 1.45-2.86s-3.25 3.02-3.5 4.84" style="fill:#37474f"/><path d="M97.37 47.26c-.89.28-3.68-1.32-4.19-2.74s2.35 0 2.35 0-1.76-2-.85-2.45 2.47 1.81 2.48 2.32c0 0 0-3 .83-3.1s.4 4.45-.62 5.97" style="fill:#37474f"/><path d="M97.37 47.26c1 .46 4.13-2.38 3.84-3s-1.93-.18-2.43.58c0 0 1.47-2.34.58-2.75S98 44.54 98 44.54s-.24-1.95-1-1.85-.91 3.94.37 4.57" style="fill:#455a64"/><path d="m97.66 47.84-.07-.05-.19-.15-.1-.07s-.07-.07-.08-.06h-.11a4 4 0 0 1-.91.09 3.4 3.4 0 0 1-.46 0h-.08a1.8 1.8 0 0 1-.4-.11 3.1 3.1 0 0 1-.87-.5c-.22-.18-.42-.46-.32-.72a.6.6 0 0 1 .31-.32 1.63 1.63 0 0 1 1.24-.11.89.89 0 0 1 1.24-.95 1.15 1.15 0 0 1 .56.57 2.6 2.6 0 0 1 .22.77 1.7 1.7 0 0 1 1.43 0 .35.35 0 0 1 .19.15.3.3 0 0 1 0 .34A1.2 1.2 0 0 1 99 47a1.14 1.14 0 0 1 .63.49.57.57 0 0 1 0 .7.6.6 0 0 1-.29.15 1.8 1.8 0 0 1-.8 0 1.7 1.7 0 0 1-.38-.11 1.3 1.3 0 0 1-.34-.19l-.08-.1a.3.3 0 0 0-.08-.1m-25.3 98.93 2.06 1.23a.82.82 0 0 1 .31.73v10.07a2.42 2.42 0 0 1-1.1 1.9l-40.95 23.59a.78.78 0 0 1-.78.09l-2-1.19a.79.79 0 0 1-.31-.73V172.4a2.43 2.43 0 0 1 1.09-1.9l41-23.64a.79.79 0 0 1 .78-.09Z" style="fill:#37474f"/><path d="M31.59 183.66v-10.07a2.43 2.43 0 0 1 1.09-1.9l40.95-23.64c.61-.35 1.1-.07 1.1.63v10.07a2.42 2.42 0 0 1-1.1 1.9l-40.95 23.64c-.6.35-1.09.07-1.09-.63" style="fill:#455a64"/><path d="m31.91 172.51-2.06-1.19a2.3 2.3 0 0 0-.31 1.08v10.07a.82.82 0 0 0 .32.73l2.06 1.19a.5.5 0 0 0 .28.06c-.35 0-.59-.29-.59-.78v-10.09a2.2 2.2 0 0 1 .3-1.07m6.71 5.2a1.24 1.24 0 0 0 .64-.18 1.27 1.27 0 0 0 .64-1.11v-1a.51.51 0 1 0-1 0v1a.26.26 0 0 1-.14.23.25.25 0 0 1-.27 0l-3-1.7a.51.51 0 1 0-.5.88l2.95 1.7a1.25 1.25 0 0 0 .68.18m8.24-4.71a1.3 1.3 0 0 0 .65-.18 1.27 1.27 0 0 0 .64-1.11v-1a.51.51 0 0 0-.51-.51.5.5 0 0 0-.5.51v1a.26.26 0 0 1-.14.23.28.28 0 0 1-.27 0l-3-1.7a.5.5 0 0 0-.69.18.51.51 0 0 0 .18.69l3 1.71a1.24 1.24 0 0 0 .64.18m8.25-4.82a1.23 1.23 0 0 0 .64-.17 1.27 1.27 0 0 0 .65-1.12v-1a.51.51 0 0 0-1 0v1a.26.26 0 0 1-.13.24.28.28 0 0 1-.27 0l-3-1.71a.51.51 0 0 0-.51.88l3 1.71a1.23 1.23 0 0 0 .62.17m8.25-4.76a1.3 1.3 0 0 0 .64-.17 1.27 1.27 0 0 0 .65-1.12v-1a.51.51 0 0 0-1 0v1a.29.29 0 0 1-.13.24.3.3 0 0 1-.28 0l-2.95-1.71a.51.51 0 0 0-.51.88l3 1.71a1.3 1.3 0 0 0 .58.17m8.25-4.76a1.3 1.3 0 0 0 .64-.17 1.29 1.29 0 0 0 .64-1.12v-1a.5.5 0 0 0-.5-.51.51.51 0 0 0-.51.51v1a.29.29 0 0 1-.14.24.28.28 0 0 1-.27 0l-3-1.71a.51.51 0 1 0-.51.88l3.04 1.71a1.4 1.4 0 0 0 .61.17" style="fill:#263238"/><path d="M71.12 177.85a.29.29 0 0 0-.28.28v24.44a.27.27 0 0 0 .27.27.28.28 0 0 0 .28-.27v-24.44a.28.28 0 0 0-.27-.28" style="fill:#455a64"/><path d="M71.75 177.89a.27.27 0 0 0-.27.28c0 8.65 1.18 11.24 2.22 13.53a13.9 13.9 0 0 1 1.28 4c.38 2.3.07 4.1-.89 5.23a3.87 3.87 0 0 1-3 1.29.27.27 0 0 0 0 .54 4.39 4.39 0 0 0 3.39-1.48c1.08-1.27 1.42-3.17 1-5.67a14.9 14.9 0 0 0-1.33-4.09c-1-2.23-2.17-4.77-2.18-13.3a.27.27 0 0 0-.22-.33" style="fill:#455a64"/><path d="M71.75 178.59a.27.27 0 0 0-.27.27 77.4 77.4 0 0 0 1.13 15c.08.44.15.86.22 1.28.46 2.9-.13 5.13-.92 6.06a1.13 1.13 0 0 1-.79.46.28.28 0 0 0 0 .55 1.61 1.61 0 0 0 1.2-.65c.81-.95 1.57-3.23 1.05-6.51-.07-.42-.14-.84-.22-1.28A76.7 76.7 0 0 1 72 178.86a.27.27 0 0 0-.25-.27" style="fill:#455a64"/><path d="M71.78 180.53a.27.27 0 0 0-.28.27 17.7 17.7 0 0 0 3 9.77c1.16 2 2.16 3.74 2.16 6.17 0 3-1.62 5-4.35 5.27a.28.28 0 0 0-.25.3.27.27 0 0 0 .3.24c3-.3 4.85-2.47 4.85-5.81 0-2.58-1.09-4.45-2.24-6.44a17.27 17.27 0 0 1-2.92-9.5.27.27 0 0 0-.27-.27m-1.3-2.64a.27.27 0 0 0-.27.28c0 8.53-1.15 11.07-2.17 13.31a14.4 14.4 0 0 0-1.32 4.09c-.4 2.49-.06 4.4 1 5.66a4.39 4.39 0 0 0 3.38 1.48.27.27 0 1 0 0-.54 3.84 3.84 0 0 1-3-1.29c-1-1.13-1.27-2.93-.9-5.23a14.3 14.3 0 0 1 1.28-4c1-2.29 2.22-4.88 2.22-13.53a.28.28 0 0 0-.22-.23" style="fill:#455a64"/><path d="M70.48 178.59a.27.27 0 0 0-.27.27 76.7 76.7 0 0 1-1.12 14.95c-.08.44-.15.86-.22 1.29-.52 3.28.24 5.55 1 6.5a1.63 1.63 0 0 0 1.2.65.28.28 0 1 0 0-.55 1.13 1.13 0 0 1-.78-.46c-.79-.93-1.39-3.16-.92-6.06.06-.42.14-.84.21-1.27a77 77 0 0 0 1.12-15 .27.27 0 0 0-.22-.32" style="fill:#455a64"/><path d="M70.46 180.53a.27.27 0 0 0-.27.27 17.35 17.35 0 0 1-2.92 9.5c-1.15 2-2.24 3.87-2.24 6.44 0 3.34 1.82 5.51 4.86 5.81a.27.27 0 0 0 .3-.24.28.28 0 0 0-.25-.3c-2.73-.27-4.36-2.24-4.36-5.27 0-2.43 1-4.16 2.16-6.16a17.8 17.8 0 0 0 3-9.78.27.27 0 0 0-.28-.27" style="fill:#455a64"/><path d="M68.22 159.2a2.9 2.9 0 1 1 5.79 0c0 3.31-.92 14.19-.92 18.93a1 1 0 0 1-.58.8 3.05 3.05 0 0 1-2.79 0 1 1 0 0 1-.58-.8c0-4.74-.92-15.62-.92-18.93" style="fill:#10b981"/><path d="M58.39 199.12c0-.42-.28-.62-.57-.45l-2.82 1.6V168.8l-.92.53v31.48l-2.78 1.61a1.46 1.46 0 0 0-.57 1.09l-1.11 16c0 .54.22.84.56.64l8.72-5a1.51 1.51 0 0 0 .56-1.3ZM52 206.66l-.53 9a3.6 3.6 0 0 1-.43 1.87c-.18.1-.29-.56-.23-1.49l.52-9a3.8 3.8 0 0 1 .43-1.87c.24-.1.31.56.24 1.49m1.45-.83-.27 8.8a3.4 3.4 0 0 1-.38 1.84c-.18.11-.31-.55-.28-1.46l.26-8.8a3.5 3.5 0 0 1 .38-1.84c.21-.11.33.54.31 1.46Zm1.44 7.81a3.33 3.33 0 0 1-.33 1.82c-.18.1-.33-.54-.33-1.44v-8.64a3.3 3.3 0 0 1 .33-1.82c.18-.11.33.53.33 1.43Zm1.43.8c-.18.11-.35-.52-.38-1.4l-.26-8.5a3.1 3.1 0 0 1 .28-1.79c.18-.11.35.52.38 1.4l.26 8.5a3.1 3.1 0 0 1-.26 1.79Zm1.76-1c-.18.11-.38-.5-.43-1.37l-.53-8.35c0-.87 0-1.65.24-1.76s.37.51.43 1.37l.52 8.36a2.87 2.87 0 0 1-.21 1.73Z" style="fill:#455a64"/><path d="M53.48 181.74c0 1 2.21-.26 2.21-1.27v-13c0-.94-.5-1.41-1.11-1.06a2.92 2.92 0 0 0-1.11 2.34Z" style="fill:#10b981"/><path d="m42.56 215.93-.31-4c-.22-2.93-1.81-4.38-3.76-3.54V178.2l-.93.54V209c-1.9 1.46-3.42 4.65-3.64 7.77l-.31 4.37c-.28 4 1.67 6.22 4.17 4.77l.61-.35c2.5-1.49 4.44-5.96 4.17-9.63" style="fill:#455a64"/><path d="M36.92 191.15c0 1 2.21-.27 2.21-1.28v-13c0-.94-.49-1.42-1.1-1.06a2.89 2.89 0 0 0-1.11 2.34Z" style="fill:#10b981"/><path d="M38 177.53a1.25 1.25 0 0 0 1.29 0 1.27 1.27 0 0 0 .64-1.11v-1a.51.51 0 1 0-1 0v1a.26.26 0 0 1-.14.23.25.25 0 0 1-.27 0c-.24-.09-.77.35-.52.88M54.47 168a1.23 1.23 0 0 0 .64.17 1.3 1.3 0 0 0 .65-.17 1.28 1.28 0 0 0 .64-1.12v-1a.51.51 0 0 0-1 0v1a.26.26 0 0 1-.13.24.28.28 0 0 1-.27 0c-.22-.12-.76.38-.53.88M71 158.49a1.4 1.4 0 0 0 .65.17 1.3 1.3 0 0 0 .64-.17 1.29 1.29 0 0 0 .64-1.12v-1a.5.5 0 0 0-.5-.51.51.51 0 0 0-.51.51v1a.29.29 0 0 1-.14.24.28.28 0 0 1-.27 0c-.24-.09-.77.39-.51.88" style="fill:#263238"/><path d="M168.19 313.65 87.87 360v11l42.8 24.71 85.07-49.07v-5.54Z"/><path d="M130.65 289v103.92l87.46-50.44V238.55Z" style="fill:#f0f0f0"/><path d="M130.66 288.99v103.93l-45.17-26.08V262.92z"/><path d="m172.94 212.48-87.45 50.44L130.65 289l87.46-50.44Z" style="fill:#455a64"/><path d="M220.87 235.45a1.88 1.88 0 0 0-1.11-1.54l-42.37-24.46a5.85 5.85 0 0 0-5.34 0l-86.44 49.83a1.86 1.86 0 0 0-1.11 1.54v3.55a1.89 1.89 0 0 0 1.11 1.54L128 290.38a5.93 5.93 0 0 0 5.35 0l86.43-49.89a1.88 1.88 0 0 0 1.11-1.54Z" style="fill:#10b981"/><path d="M220.87 235.45a1.88 1.88 0 0 0-1.11-1.54l-42.37-24.46a5.85 5.85 0 0 0-5.34 0l-86.44 49.83a1.86 1.86 0 0 0-1.11 1.54v3.55a1.89 1.89 0 0 0 1.11 1.54L128 290.38a5.93 5.93 0 0 0 5.35 0l86.43-49.89a1.88 1.88 0 0 0 1.11-1.54Z" style="fill:#fff;opacity:.4"/><path d="M128 286.84a5.54 5.54 0 0 0 2.67.63V291a5.4 5.4 0 0 1-2.67-.64l-42.38-24.45a1.89 1.89 0 0 1-1.12-1.55v-3.55a1.89 1.89 0 0 0 1.12 1.55Z" style="fill:#263238"/><path d="m172.05 209.45-86.44 49.83c-1.47.85-1.47 2.23 0 3.08L128 286.83a5.87 5.87 0 0 0 5.35 0L219.76 237c1.47-.86 1.47-2.24 0-3.09l-42.37-24.46a5.85 5.85 0 0 0-5.34 0" style="fill:#10b981"/><path d="m172.05 209.45-86.44 49.83c-1.47.85-1.47 2.23 0 3.08L128 286.83a5.87 5.87 0 0 0 5.35 0L219.76 237c1.47-.86 1.47-2.24 0-3.09l-42.37-24.46a5.85 5.85 0 0 0-5.34 0" style="fill:#fff;opacity:.85"/><path d="m141.86 299.84 67.41-38.92c1.33-.76 2.41-.14 2.41 1.39v55.23a5.34 5.34 0 0 1-2.41 4.17l-67.41 38.92c-1.32.76-2.4.14-2.4-1.39V304a5.32 5.32 0 0 1 2.4-4.16" style="fill:#455a64"/><g style="opacity:.05"><path d="m177.09 279.5-37.63 67.41v12.33c0 1.53 1.08 2.15 2.4 1.39l3.49-2 50.09-89.7Zm-37.63 53.6 26.26-47.03-9.31 5.37-16.95 30.37zm72.22-69.67v-1.12c0-1.53-1.08-2.15-2.41-1.39l-3 1.73-50.08 89.7 8.61-5Zm0 36.76v-22.26l-34.92 62.55 18.34-10.59z" style="fill:#fff"/></g><path d="M145.3 353.69a1.85 1.85 0 0 1-.9-.23 2.19 2.19 0 0 1-1-2v-44.8a5.84 5.84 0 0 1 2.7-4.66l58.38-33.71a2 2 0 0 1 3.24 1.87v44.8a5.86 5.86 0 0 1-2.68 4.65l-58.39 33.71a2.7 2.7 0 0 1-1.35.37m1.36-50.76a4.77 4.77 0 0 0-2.13 3.69v44.8a1.19 1.19 0 0 0 .42 1.07 1.2 1.2 0 0 0 1.15-.16l58.38-33.71a4.78 4.78 0 0 0 2.13-3.69v-44.8a1.19 1.19 0 0 0-.43-1.08 1.22 1.22 0 0 0-1.14.17Z" style="fill:#37474f"/><path d="m141.86 365.84 67.41-38.92c1.33-.77 2.41-.15 2.41 1.39v10.08a5.35 5.35 0 0 1-2.4 4.17l-67.37 38.94c-1.32.77-2.4.15-2.41-1.38v-10.11a5.3 5.3 0 0 1 2.36-4.17" style="fill:#e0e0e0"/><path d="m167.5 273.73 14.27-8.24v8.02l-14.27 8.24zm-9.35 6.27a1.66 1.66 0 0 0-1.68.17 5.25 5.25 0 0 0-2.38 4.11 1.67 1.67 0 0 0 .7 1.54l1.52.88a1.66 1.66 0 0 0 1.68-.17 5.27 5.27 0 0 0 2.38-4.12 1.69 1.69 0 0 0-.7-1.54Z" style="fill:#263238"/><path d="M158 286.54a1.45 1.45 0 0 1-2.38-1.37 5.24 5.24 0 0 1 2.38-4.12 1.45 1.45 0 0 1 2.38 1.37 5.27 5.27 0 0 1-2.38 4.12" style="fill:#37474f"/><path d="M148.65 285.5a1.68 1.68 0 0 0-1.69.17 5.24 5.24 0 0 0-2.37 4.11 1.66 1.66 0 0 0 .69 1.54l1.52.88a1.66 1.66 0 0 0 1.68-.17 5.27 5.27 0 0 0 2.38-4.12 1.66 1.66 0 0 0-.7-1.53Z" style="fill:#263238"/><path d="M148.48 292a1.45 1.45 0 0 1-2.38-1.37 5.27 5.27 0 0 1 2.38-4.12 1.45 1.45 0 0 1 2.38 1.37 5.27 5.27 0 0 1-2.38 4.12" style="fill:#37474f"/><path d="M201 255.31a1.66 1.66 0 0 0-1.68.16 5.26 5.26 0 0 0-2.37 4.12 1.67 1.67 0 0 0 .69 1.54l1.52.88a1.69 1.69 0 0 0 1.68-.17 5.27 5.27 0 0 0 2.38-4.12 1.67 1.67 0 0 0-.7-1.54Z" style="fill:#263238"/><path d="M200.79 261.84a1.45 1.45 0 0 1-2.38-1.37 5.27 5.27 0 0 1 2.38-4.12 1.45 1.45 0 0 1 2.38 1.37 5.27 5.27 0 0 1-2.38 4.12" style="fill:#37474f"/><path d="M191.45 260.8a1.68 1.68 0 0 0-1.69.16 5.27 5.27 0 0 0-2.37 4.12 1.67 1.67 0 0 0 .69 1.54l1.52.88a1.69 1.69 0 0 0 1.68-.17 5.27 5.27 0 0 0 2.38-4.12 1.67 1.67 0 0 0-.7-1.54Z" style="fill:#263238"/><path d="M191.28 267.33a1.45 1.45 0 0 1-2.38-1.33 5.27 5.27 0 0 1 2.38-4.12 1.45 1.45 0 0 1 2.38 1.37 5.27 5.27 0 0 1-2.38 4.08" style="fill:#37474f"/><path d="M150.34 261.67a17.2 17.2 0 0 0-15.53 0c-2.13 1.23-3.3 2.88-3.3 4.65s1.17 3.43 3.3 4.66a17.22 17.22 0 0 0 15.53 0c2.13-1.23 3.3-2.89 3.3-4.66s-1.17-3.42-3.3-4.65m-.29 8.8a16.61 16.61 0 0 1-15 0c-1.94-1.12-3-2.6-3-4.15s1.06-3 3-4.14a16.5 16.5 0 0 1 15 0c1.94 1.12 3 2.59 3 4.14s-1.05 3.03-3 4.15m-21.36-21.3a17.2 17.2 0 0 0-15.53 0c-2.13 1.23-3.31 2.88-3.31 4.65s1.18 3.43 3.31 4.66a17.22 17.22 0 0 0 15.53 0c2.13-1.23 3.3-2.89 3.3-4.66s-1.17-3.42-3.3-4.65m-.3 8.8a16.59 16.59 0 0 1-14.94 0c-1.94-1.12-3-2.6-3-4.15s1.07-3 3-4.14a16.48 16.48 0 0 1 14.94 0c2 1.12 3 2.59 3 4.14s-1.05 3.03-3 4.18Zm25.78-23.51c-4.28-2.47-11.25-2.48-15.53 0-2.13 1.23-3.3 2.88-3.3 4.65s1.17 3.42 3.3 4.66a17.18 17.18 0 0 0 15.53 0c2.13-1.23 3.3-2.88 3.3-4.65s-1.17-3.43-3.3-4.66m-.29 8.79a16.58 16.58 0 0 1-14.95 0c-1.94-1.13-3-2.6-3-4.15s1.07-3 3-4.14a16.5 16.5 0 0 1 14.95 0c1.94 1.12 3 2.59 3 4.14s-1.06 3.03-3 4.15m21.94 3.75c-4.28-2.47-11.25-2.48-15.53 0-2.13 1.23-3.3 2.88-3.3 4.65s1.17 3.42 3.3 4.65a17.14 17.14 0 0 0 15.53 0c2.13-1.23 3.3-2.88 3.3-4.65s-1.12-3.46-3.3-4.65m-.29 8.79a16.52 16.52 0 0 1-14.94 0c-1.94-1.12-3-2.59-3-4.14s1.07-3 3-4.14a16.48 16.48 0 0 1 14.94 0c1.94 1.12 3 2.59 3 4.14s-1.06 2.98-3 4.1Zm25.77-23.5c-4.28-2.47-11.25-2.48-15.53 0-2.13 1.23-3.3 2.88-3.3 4.65s1.17 3.42 3.3 4.65a17.14 17.14 0 0 0 15.53 0c2.13-1.23 3.3-2.88 3.3-4.65s-1.17-3.46-3.3-4.69ZM201 241a16.52 16.52 0 0 1-14.94 0c-1.94-1.12-3-2.59-3-4.14s1.07-3 3-4.14a16.48 16.48 0 0 1 14.94 0c1.94 1.12 3 2.59 3 4.14s-1 3.06-3 4.14m-21.36-21.29c-4.28-2.47-11.25-2.48-15.53 0-2.13 1.23-3.3 2.88-3.3 4.65s1.17 3.42 3.3 4.65a17.14 17.14 0 0 0 15.53 0c2.13-1.23 3.3-2.88 3.3-4.65s-1.16-3.36-3.29-4.61Zm-.29 8.79a16.54 16.54 0 0 1-15 0c-1.94-1.12-3-2.59-3-4.14s1.07-3 3-4.14a16.5 16.5 0 0 1 15 0c1.94 1.12 3 2.59 3 4.14s-1.05 3.06-2.99 4.18Z" style="fill:#455a64"/><path d="m85.49 361.35-49.29 28.5v11L79 425.54l54-31.24v-5.49Z"/><path d="M79 318.87V422.8l54-31.26V287.62Z" style="fill:#10b981"/><path d="M79 318.87V422.8l54-31.26V287.62Z" style="fill:#fff;opacity:.8"/><path d="M78.98 318.87V422.8l-45.16-26.08V292.79z" style="fill:#10b981"/><path d="M78.98 318.87V422.8l-45.16-26.08V292.79z" style="fill:#fff;opacity:.6000000000000001"/><g style="opacity:.30000000000000004"><path d="M128.36 299.23v89.6L86.59 413v-89.6l41.77-24.12m1.17-2-44.11 25.39V415l44.11-25.46v-92.3Z" style="fill:#10b981"/></g><path d="m89.32 370.98 2.04-1.18v-13.41l-2.04 1.18z" style="fill:#455a64"/><path d="m87.82 258-56.55 32.7L79 318.25l56.58-32.67Z" style="fill:#10b981"/><path d="m87.82 258-56.55 32.7L79 318.25l56.58-32.67Z" style="fill:#fff;opacity:.4"/><path d="m79 318.25 53.52-30.91 3.05-1.76v3.53l-53.92 31.15-2.65 1.55Z" style="fill:#10b981"/><path d="m79 318.25 53.52-30.91 3.05-1.76v3.53l-53.92 31.15-2.65 1.55Z" style="fill:#fff;opacity:.2"/><path d="M31.27 290.7v3.55L79 321.81v-3.56Z" style="fill:#10b981"/><path d="m62.15 275.35 15.24-8.8a3 3 0 0 1 2.74 0l38.4 22.16a.83.83 0 0 1 0 1.58l-15.24 8.8a3 3 0 0 1-2.74 0l-38.4-22.16a.83.83 0 0 1 0-1.58" style="opacity:.15"/><path d="M75 274.23c0 2.37-1.92 5-4.29 5s-4.29-2.67-4.29-5a4.29 4.29 0 0 1 8.58 0" style="fill:#10b981"/><path d="M75 274.23c0 2.37-1.92 5-4.29 5s-4.29-2.67-4.29-5a4.29 4.29 0 0 1 8.58 0" style="opacity:.6000000000000001"/><path d="M82.72 278.67c0 2.37-1.92 5-4.29 5s-4.29-2.67-4.29-5a4.29 4.29 0 1 1 8.58 0" style="fill:#10b981"/><path d="M82.72 278.67c0 2.37-1.92 5-4.29 5s-4.29-2.67-4.29-5a4.29 4.29 0 1 1 8.58 0" style="opacity:.6000000000000001"/><path d="M90.41 283.11c0 2.37-1.92 5-4.29 5s-4.29-2.67-4.29-5a4.29 4.29 0 1 1 8.58 0" style="fill:#10b981"/><path d="M90.41 283.11c0 2.37-1.92 5-4.29 5s-4.29-2.67-4.29-5a4.29 4.29 0 1 1 8.58 0" style="opacity:.6000000000000001"/><path d="M98.1 287.56c0 2.37-1.92 5-4.29 5s-4.29-2.67-4.29-5a4.29 4.29 0 1 1 8.58 0" style="fill:#10b981"/><path d="M98.1 287.56c0 2.37-1.92 5-4.29 5s-4.29-2.67-4.29-5a4.29 4.29 0 1 1 8.58 0" style="opacity:.6000000000000001"/><path d="M105.79 292c0 2.37-1.92 5-4.29 5s-4.29-2.67-4.29-5a4.29 4.29 0 0 1 8.58 0" style="fill:#10b981"/><path d="M105.79 292c0 2.37-1.92 5-4.29 5s-4.29-2.67-4.29-5a4.29 4.29 0 0 1 8.58 0" style="opacity:.6000000000000001"/><path d="M114.27 287c0 2.36-1.92 5-4.28 5s-4.29-2.68-4.29-5a4.29 4.29 0 1 1 8.57 0" style="fill:#10b981"/><path d="M114.27 287c0 2.36-1.92 5-4.28 5s-4.29-2.68-4.29-5a4.29 4.29 0 1 1 8.57 0" style="opacity:.6000000000000001"/><path d="M119.1 284.43a1 1 0 0 0-.57-.79l-38.4-22.16a3.07 3.07 0 0 0-2.74 0l-15.24 8.8a1 1 0 0 0-.57.8v1.48a1 1 0 0 0 .57.79l38.4 22.16a3 3 0 0 0 2.74 0l15.24-8.8a1 1 0 0 0 .57-.79Z" style="fill:#10b981"/><path d="M119.1 284.43a1 1 0 0 0-.57-.79l-38.4-22.16a3.07 3.07 0 0 0-2.74 0l-15.24 8.8a1 1 0 0 0-.57.8v1.48a1 1 0 0 0 .57.79l38.4 22.16a3 3 0 0 0 2.74 0l15.24-8.8a1 1 0 0 0 .57-.79Z" style="opacity:.2"/><path d="M101.94 294.36v1.48a2.9 2.9 0 0 1-1.39-.33l-38.4-22.16a1 1 0 0 1-.57-.79v-1.48a1 1 0 0 0 .57.79l38.4 22.13a2.9 2.9 0 0 0 1.39.36" style="opacity:.1"/><path d="m62.15 270.28 15.24-8.8a3.07 3.07 0 0 1 2.74 0l38.4 22.16a.84.84 0 0 1 0 1.59L103.29 294a3.07 3.07 0 0 1-2.74 0l-38.4-22.16a.84.84 0 0 1 0-1.56" style="fill:#10b981"/><path d="M104.46 290.8c1.64-.94 1.65-2.47 0-3.42a6.58 6.58 0 0 0-5.94 0c-1.65.94-1.65 2.47 0 3.41a6.53 6.53 0 0 0 5.94.01m8.54-4.9c1.64-.95 1.65-2.48 0-3.42a6.58 6.58 0 0 0-5.94 0c-1.65.94-1.66 2.47 0 3.41a6.58 6.58 0 0 0 5.94.01m-16.23.46c1.64-.95 1.65-2.48 0-3.42a6.61 6.61 0 0 0-5.94 0c-1.65.95-1.65 2.48 0 3.42a6.59 6.59 0 0 0 5.94 0m8.49-4.91c1.64-.94 1.64-2.47 0-3.41a6.59 6.59 0 0 0-5.93 0c-1.65.94-1.66 2.47 0 3.42a6.58 6.58 0 0 0 5.93-.01m-16.18.46c1.64-.94 1.65-2.47 0-3.41a6.58 6.58 0 0 0-5.94 0c-1.65.94-1.66 2.47 0 3.42a6.56 6.56 0 0 0 5.94-.01m8.49-4.91c1.64-.95 1.64-2.48 0-3.42a6.56 6.56 0 0 0-5.93 0c-1.65.94-1.66 2.47 0 3.41a6.58 6.58 0 0 0 5.93.01m-16.18.47c1.64-1 1.65-2.48 0-3.42a6.61 6.61 0 0 0-5.94 0c-1.65.95-1.66 2.48 0 3.42a6.59 6.59 0 0 0 5.94 0m8.49-4.91c1.64-.94 1.64-2.47 0-3.41a6.59 6.59 0 0 0-5.93 0c-1.65 1-1.66 2.48 0 3.42a6.58 6.58 0 0 0 5.93-.01M73.7 273c1.64-.94 1.65-2.47 0-3.41a6.61 6.61 0 0 0-5.94 0c-1.65.94-1.66 2.47 0 3.42a6.56 6.56 0 0 0 5.94-.01m8.49-4.88c1.64-.95 1.64-2.47 0-3.42a6.56 6.56 0 0 0-5.93 0c-1.65.94-1.66 2.47 0 3.41a6.55 6.55 0 0 0 5.93.01" style="opacity:.1"/><path d="M114 284.12a1.3 1.3 0 0 1 0 .2 3.8 3.8 0 0 1-.13.83 3 3 0 0 1-.88.75 6.59 6.59 0 0 1-5.93 0 3 3 0 0 1-.88-.73 4.7 4.7 0 0 1-.14-.85v-.93a8 8 0 0 1 2.29-4.91 2.35 2.35 0 0 1 1.65-.68 2.3 2.3 0 0 1 1.65.68 7.9 7.9 0 0 1 2.29 4.87v.57a1.3 1.3 0 0 1 .08.2m-7.72-4.45a1.3 1.3 0 0 1 0 .2 3.8 3.8 0 0 1-.13.83 2.9 2.9 0 0 1-.88.75 6.53 6.53 0 0 1-5.93 0 3 3 0 0 1-.88-.73 4.7 4.7 0 0 1-.14-.85v-.93a8 8 0 0 1 2.29-4.91 2.35 2.35 0 0 1 1.65-.68 2.3 2.3 0 0 1 1.65.68 7.93 7.93 0 0 1 2.29 4.87v.57a1.3 1.3 0 0 1 .08.2m-.8 9.33a1.3 1.3 0 0 1 0 .2 3.2 3.2 0 0 1-.13.83 2.8 2.8 0 0 1-.88.75 6.53 6.53 0 0 1-5.93 0 2.7 2.7 0 0 1-.87-.73 3.4 3.4 0 0 1-.14-.85v-.4a5 5 0 0 1 0-.53 8 8 0 0 1 2.29-4.9 2.33 2.33 0 0 1 1.66-.69 2.3 2.3 0 0 1 1.65.69 7.93 7.93 0 0 1 2.29 4.86v.57a1.3 1.3 0 0 1 .06.2m-7.69-4.43a1.3 1.3 0 0 1 0 .2 3.2 3.2 0 0 1-.13.83 2.8 2.8 0 0 1-.88.75 6.56 6.56 0 0 1-5.93 0 2.8 2.8 0 0 1-.87-.74 3.4 3.4 0 0 1-.14-.85v-.4a5 5 0 0 1 0-.53 8 8 0 0 1 2.29-4.9 2.33 2.33 0 0 1 1.66-.69 2.3 2.3 0 0 1 1.65.69 7.93 7.93 0 0 1 2.29 4.86v.57a1.3 1.3 0 0 1 .06.21m.8-9.35a1.3 1.3 0 0 1 0 .2 3.7 3.7 0 0 1-.13.83 2.9 2.9 0 0 1-.88.75 6.53 6.53 0 0 1-5.93 0 2.8 2.8 0 0 1-.88-.73 4.7 4.7 0 0 1-.14-.85v-.95a8 8 0 0 1 2.37-4.89 2.35 2.35 0 0 1 1.65-.68 2.3 2.3 0 0 1 1.65.68 7.93 7.93 0 0 1 2.29 4.87v.57a1.3 1.3 0 0 1 0 .2m-7.69-4.45a1.3 1.3 0 0 1 0 .2 3.7 3.7 0 0 1-.13.83 2.9 2.9 0 0 1-.88.75 6.53 6.53 0 0 1-5.93 0 2.8 2.8 0 0 1-.88-.73 4.7 4.7 0 0 1-.14-.85v-.93a7.9 7.9 0 0 1 2.29-4.9 2.32 2.32 0 0 1 1.65-.69 2.27 2.27 0 0 1 1.65.69 7.87 7.87 0 0 1 2.32 4.86v.57a1.3 1.3 0 0 1 .05.2" style="fill:#fff"/><path d="M399 390.07c-12.53-7.23-32.84-7.23-45.37 0-6.27 3.62-9.4 8.36-9.39 13.1v4c.09 4.67 3.22 9.31 9.39 12.87 12.53 7.24 32.84 7.24 45.37 0 6.2-3.57 9.32-8.25 9.39-12.94v-4c-.02-4.72-3.15-9.43-9.39-13.03" style="fill:#37474f"/><path d="M353.64 416.27c-12.54-7.23-12.54-19 0-26.2s32.84-7.23 45.37 0 12.53 19 0 26.2-32.84 7.24-45.37 0" style="fill:#455a64"/><path d="M378.11 404.21V246.39h-3.59v157.82a.84.84 0 0 0 .51.83 2.84 2.84 0 0 0 2.54 0 .85.85 0 0 0 .54-.83" style="fill:#37474f"/><path d="M334.82 228c22.94-13.25 60.12-13.25 83.06 0 11.47 6.62 17.2 18.53 17.19 27.21v1.68c0 8.68-5.72 17.36-17.19 24-22.94 13.24-60.13 13.24-83.06 0-11.47-6.62-17.2-15.3-17.19-24v-1.68c-.01-8.65 5.72-20.56 17.19-27.21" style="fill:#10b981"/><path d="M334.82 228c22.94-13.25 60.12-13.25 83.06 0 11.47 6.62 17.2 18.53 17.19 27.21v1.68c0 8.68-5.72 17.36-17.19 24-22.94 13.24-60.13 13.24-83.06 0-11.47-6.62-17.2-15.3-17.19-24v-1.68c-.01-8.65 5.72-20.56 17.19-27.21" style="opacity:.2"/><path d="M334.77 223.62c22.93-13.24 60.12-13.24 83.06 0 11.62 6.71 17.34 15.54 17.19 24.33v2.23c.14 8.7-5.58 20.82-17.19 27.53-22.94 13.24-60.13 13.24-83.06 0-11.47-6.63-17.2-19.74-17.19-28.42v-1.69c-.01-8.68 5.72-17.35 17.19-23.98" style="fill:#10b981"/><path d="M334.77 223.62c22.93-13.24 60.12-13.24 83.06 0 11.62 6.71 17.34 15.54 17.19 24.33v2.23c.14 8.7-5.58 20.82-17.19 27.53-22.94 13.24-60.13 13.24-83.06 0-11.47-6.63-17.2-19.74-17.19-28.42v-1.69c-.01-8.68 5.72-17.35 17.19-23.98" style="fill:#fff;opacity:.4"/><ellipse cx="376.3" cy="247.6" rx="58.75" ry="33.9" style="fill:#10b981"/><path d="M418.67 271.12c21.16-12.69 21.16-34.34 0-47-23.12-13.86-61.52-13.86-84.65 0-21.15 12.69-21.15 34.34 0 47 23.13 13.88 61.53 13.88 84.65 0" style="fill:#fff;opacity:.85"/><path d="M424.12 239.46 389 219.16a2 2 0 0 0-2 0l-61 35.22a.45.45 0 0 0 0 .78l35.49 20.49Z" style="opacity:.2"/><path d="M419.14 236.49v.76a3.12 3.12 0 0 1-1.56 2.7L363.1 271.4a3.1 3.1 0 0 1-1.55.41 3.15 3.15 0 0 1-1.57-.41l-29.69-17.09a3.12 3.12 0 0 1-1.56-2.7v-1.05a.4.4 0 0 0 .2.35l32.61 18.83Z" style="fill:#37474f"/><path d="m419.14 236.49-32.3-18.65a1.87 1.87 0 0 0-1.86 0l-56 32.36a.41.41 0 0 0 0 .72l32.61 18.83Z" style="fill:#455a64"/><path d="m361.25 267-17.43-10.05 50.95-29.41 17.52 10z" style="fill:#37474f"/><path d="m412.28 237.54-.66.38-16.85-9.61-50.28 29.03-.66-.39 50.94-29.41zm-59.59 1.51.32.18 8.54 4.93 15.18-8.76.32-.18-8.86-5.12z" style="fill:#263238"/><path d="m353.01 239.23 8.54 4.93 15.18-8.76-8.54-4.93z" style="fill:#37474f"/><path d="M361.55 269.74v2.08a3.1 3.1 0 0 0 1.55-.42l54.48-31.4a3.12 3.12 0 0 0 1.56-2.7v-.76Z" style="fill:#263238"/><path d="M362.42 270.2a3.67 3.67 0 0 0 3.18-.24l54.24-31.32a3.68 3.68 0 0 0 1.8-2.58l5.94-35.41a4 4 0 0 0 .05-.6 3.7 3.7 0 0 0-1.1-2.63L370.17 230a2.74 2.74 0 0 0-1.33 1.91Z" style="fill:#37474f"/><path d="m361.55 269.75.37.21a5 5 0 0 0 .5.24l6.42-38.32a2.74 2.74 0 0 1 1.33-1.91l56.36-32.55a3.3 3.3 0 0 0-.75-.57l-56.48 32.61a2.73 2.73 0 0 0-1.32 1.91Z" style="fill:#455a64"/><path d="m369.37 230.69-.88-.5a2.6 2.6 0 0 0-.51 1.18l-6.43 38.38.37.21a5 5 0 0 0 .5.24l6.42-38.32a2.7 2.7 0 0 1 .53-1.19" style="fill:#263238"/><path d="M393 237.51c.4-2.37 2.85-5.52 5.47-7s4.42-.82 4 1.55-2.85 5.52-5.47 7-4.42.82-4-1.55" style="fill:#10b981"/><path d="m281.61 403.33 3.61-2.23-3.85-.68z" style="fill:#263238"/><path d="M320 406.68s-46.81-15.86-47.07-12.8a4.4 4.4 0 0 0 .2 1.81l-.14-.15 1.38 5.54a13.5 13.5 0 0 0 7.27 2.25c0-.27-.16-1.95-.24-2.91a23.6 23.6 0 0 1 4.16 1.71c3.06 1.62 5.23 4.76 8.66 8.32 2.5 2.6 6.59 3.53 12.54 3.79 6.41.29 11.85-1.45 13.26-3.3 1.09-1.47.22-3.89-.02-4.26" style="fill:#263238"/><path d="M318.63 405.76c-.47-.41-2.25-2-4.6-3.72-2-1.49-4.47-3.39-7-4.88a26 26 0 0 1-3.47-2.33c-.86-.76-1.7-1.56-2.48-2.4a49.4 49.4 0 0 1-6.31-8.63c-.86-1.46-2-3.61-2-9.92.07-9.13 1.44-19 2.25-27.88l-24.94 5c1 3.34 3.48 15.43 4.19 19.26 1.07 5.84 1.84 9.43 1.22 12.17-.41 1.81-3.06 6.93-3 8.79.16 3 2.78 5.39 5.58 6.61 2.31 1 4.89 1.29 7.15 2.39a22.1 22.1 0 0 1 6.12 4.93c1.7 1.78 3.13 3.93 5.38 5.08a19.8 19.8 0 0 0 7.55 1.82 40 40 0 0 0 9.86-.45c4.66-.84 7.96-2.86 4.5-5.84" style="fill:#ffa8a7"/><path d="M315.74 402.72c-2.09-1.43-5.06-3.49-8.62-5.78a8.44 8.44 0 0 0-6.89 1.3c-6.32 4.13-7 9.19-7 9.19a9.66 9.66 0 0 0 5.9 4.22c8 2.61 21.69.22 21.48-3.33-.11-2.26-2.33-3.86-4.87-5.6m-40.34-21.23s-1.64 4.18-2.59 6.56a6.39 6.39 0 0 0 .74 6.81 10.26 10.26 0 0 0 7.19 3.92c1.48-6.91-2.52-16.1-5.34-17.29" style="fill:#37474f"/><path d="M227.81 391.59c1.18 2.09-.84 9.66-.81 15.12 0 5 .95 13.66-.81 18.47-2.1 5.71-6.87 11-13.81 5.67-3.44-2.64-5.83-7.51-5.83-14.66 0-5 2.49-11.4 4.49-17.4 2.34-7 3.28-10.76 3.28-10.76Z" style="fill:#263238"/><path d="M215.44 354.41c-1 11.53-.07 19.7-.34 27.1a51.3 51.3 0 0 1-1.54 9.93c-1.2 4.67-3.17 11.16-4 14.18-1.18 4.23-2 6.89-.78 11.75a5.2 5.2 0 0 0 .44 1.1c1.89 4 7 7.28 8.75 6.88a2.93 2.93 0 0 0 2.93 1.17 4 4 0 0 0 .57-.11 4 4 0 0 0 .57-.2 5.74 5.74 0 0 0 3-3.5 9 9 0 0 0 .32-1c1.52-5.89.8-9.78.8-12.11 0-2.69.31-6.1.76-10.42s2.13-17.88 4-24.31c1.34-4.48 3-10.11 4.78-16.11Z" style="fill:#ffa8a7"/><path d="M208.25 411.14c4.26-1.63 16.36-1.32 18 4.6-.21 5.5-.73 11-4.08 13.84-6 5.07-10.7-.88-12.83-5.27s-1.8-10.24-1.09-13.17m27.08-203.32c-6.39 10.19-9.49 16.75-12.34 44.33-3.21 31.13-2.55 41.59-2.88 45.35s-3.1 10.56-6.06 29-2.91 63.5-2.91 63.5 1.33 3.1 8.45 4.12c6.57.94 10.55-1.18 10.55-1.18s13.3-58.55 16.41-69.59c2-7.26 6.78-25.48 9.77-37.1 1.85-7.67 3.21-12 3.21-12L265 307.7s-1.28 8.23 1.57 25.68c2.64 16.21 8.41 44 8.41 44s2 2.45 7.68 2.37c7.67-.1 11.15-2.53 11.15-2.53s2.78-59.64 2.52-78.11-1.43-64.43-7.67-91.69Z" style="fill:#37474f"/><path d="m266.2 242.32-6.67 31.95L265 307.7l-2-34 5.15-25.4c4.48-1.13 14.62-6.61 17.33-14.28-6.84 7.25-19.28 8.3-19.28 8.3m-33.84 92.4Q229 349 225.92 363.34q4.17-14.08 7.94-28.25c2.55-9.44 5-18.87 7.4-28.38s4-19.19 5.51-28.86 2.75-19.36 3.88-29.07c-1.89 9.6-3.64 19.21-5.4 28.82s-3.6 19.19-5.92 28.64-4.73 18.97-6.97 28.48m56-45.69c.33 4.23.71 8.48.77 12.67s-.09 8.48-.18 12.72l-.26 12.76q-.27 12.76-.24 25.54 1.13-12.74 1.79-25.49c.44-8.51.84-17 .87-25.56-.29-8.6-1.28-17-2.31-25.5s-2.34-16.89-3.92-25.26l2.39 25.42c.33 4.24.73 8.47 1.06 12.67ZM241.1 102.87c-5.64 3.54-5.52 8.57-5.63 20.77s.48 45.49.48 45.49h43.69v-50.71s4-5.66 3.54-11.48-4-13.39-14.45-15.61c-8.73-1.86-25.44-.01-27.63 11.54" style="fill:#263238"/><path d="M336.76 199.67c-6.69-2.6-23.49-10-23.49-10s-15.15-25.41-18.47-30.74c-4-6.38-9.6-11.15-18.81-10.42l1.63 26.62s16.33 23.43 19.25 27.3c2.22 2.93 2.08 3.76 8 5l27.8 5.8 1.12.33a3.74 3.74 0 0 1 1.93 1.33 10.4 10.4 0 0 1 1.23 2c1.16 2.48 1.07 3.32 2.26 6s1.77 2.44 3.65 4.49c1.73 1.9 2.49 3.2 3.34 3s1.28-2.36.66-4.21-2.42-3.48-2.71-4.25-.22-1.86 1.87-1.42 6.64 4.5 8.67 6.23a64 64 0 0 1 4.88 5.36 3.42 3.42 0 0 0 3.2 1.28c1.86-.51.64-2.17.07-3.16-.78-1.36-1.54-2.74-2.29-4.12-.52-1-.18-2-.36-3.07a1.84 1.84 0 0 1 0-.87 6 6 0 0 1 .3-.56c.38-.8-.23-1.72-.22-2.61a5.5 5.5 0 0 1 .2-1.13 5.89 5.89 0 0 0-2.09-5.77c-2.64-2.1-7.72-5.74-9.06-6.53a76.6 76.6 0 0 0-12.56-5.88" style="fill:#ffa8a7"/><path d="M276 147.89c9.62.51 32.33 11.41 37.74 14.41 5.87 3.26 17.42 18.62 17.42 18.62s-1.05 5-12.64 3.13c-9.73-1.57-28.32-6.46-28.32-6.46Z" style="fill:#ffa8a7"/><path d="M314.71 181.51c-4.14-1-9.88-5.38-19.94-25Z" style="fill:#f28f8f"/><path d="M230.41 218c-1.67-2.91 5.59-13.11 4.34-18.79-1.22-5.53-4.08-18.12-4.08-18.12s8.4-8.46 5.77-30.21l12.21-2.73 10.18-.6 9.55-.78 7.62 1.13c2.73 2.45 8.88 8.1 12.86 14 5.73 8.48 6.51 19 .32 25.78-.1 1.34-1.13 13.64.32 18.7.58 2 3 11.33 1.59 14-6.02 9.38-41.41 18.85-60.68-2.38" style="fill:#e0e0e0"/><path d="m155.48 126.58 29.14 16.5 11.1 13.74-2.04.89-29.13-16.5-11.1-13.74z" style="fill:#37474f"/><path d="m153.45 127.47 11.1 13.74 29.13 16.5-11.1-13.74z" style="fill:#263238"/><path d="m156.87 100.92 28.92 15.65-1.17 26.51-2.04.89-29.13-16.5 1.39-25.66z" style="fill:#455a64"/><path d="m183.76 117.46 2.03-.89-1.17 26.51-2.04.89z" style="fill:#263238"/><path d="m182.58 143.97 1.18-26.51-28.92-15.65-1.39 25.66z" style="fill:#37474f"/><path d="M159 125.6c.68-1.6 1.09-3.34 1.8-4.09.36-.37 1.46 1.25 1.43 2.85s-1.21 4.73-1.39 5.39 1.12 4.43 1.12 4.43a39 39 0 0 1 .91-5.54 37.2 37.2 0 0 1 3.84-6.85c1.37-1.79 2-3.56 2.84-3.06s1.31 1.19 1.07 2.91c.7-.8 1.55-.57 2 1a4.7 4.7 0 0 1-.08 2.29s1.05-.6 1.52.85 0 3.15-.22 4.56-.36 3.61-.37 4.24a6.6 6.6 0 0 0 2.27 3.75c2.51 1.8 3.43 2.9 3.77 6.49.43 4.52 9.67 18.56 13.9 25 10-6.7 24.27-15.62 27.31-17.09 4.55-2.19 8.16-2.25 15.75-1.91l-6.72 20.43s-28.79 16.45-35.79 18.59-11.55 3.68-14.83-1.83c-1.58-2.66-4-9.1-5.65-17-1.43-6.74-2.38-11.7-3.53-15.51s-2.64-5.17-5.86-9.07a42.4 42.4 0 0 1-4.39-6.27c-.69-1-2.17-8.35-2.28-9.57a19.7 19.7 0 0 1 1.58-4.99" style="fill:#ffa8a7"/><path d="M193.38 169.86a22.7 22.7 0 0 1 3.14 9.37 21 21 0 0 0-1.14-10.71Zm-22.79-48.22-2 3.21a17.2 17.2 0 0 0-1.77 3.44 19.4 19.4 0 0 0-.52 3.83 37 37 0 0 0 0 3.82l.24-1.9.22-1.88a29 29 0 0 1 .64-3.7 24.6 24.6 0 0 1 1.59-3.38l.88-1.69c.22-.58.5-1.15.72-1.75m1.92 3.3c-.51.86-1 1.74-1.4 2.64-.21.45-.42.91-.61 1.37a7.6 7.6 0 0 0-.46 1.47 28 28 0 0 0-.32 3c-.07 1-.09 2-.07 3 .19-1 .36-2 .5-2.94s.29-2 .46-2.92a8 8 0 0 1 .42-1.37l.52-1.39c.35-.96.68-1.9.96-2.86m-11.22 10.75s-1.65-4.29-1.58-5.55 1-2.66 1.58-4.09a5 5 0 0 0 .59-3.33 4.2 4.2 0 0 1 .32 1.64c0 1.6-1.21 4.73-1.39 5.39s1.12 4.43 1.12 4.43Z" style="fill:#f28f8f"/><path d="M236.44 150.87c-11.92 3.07-16.79 2.17-21.4 17.8l-9.22 31.26-21.88 21c-3.65 4.37 2.68 7.76 8.83 10.55 0 0 20.35-11.11 27-17.51s5.77-7.56 8.71-15.88 5.89-15.89 5.89-15.89 6.25-17.88 2.07-31.33" style="fill:#ffa8a7"/><path d="M236.44 150.87C231.6 152.46 226 153 222 156.29c-3.83 3.52-5.36 8.79-6.8 13.65-1.52 5-3 10-4.56 15-1.36 4.38-3.34 10.67-4.81 15 1.09-4.37 2.86-10.76 4.08-15.17 1.4-5 2.89-10.07 4.33-15.1s3.13-10.41 7.26-14c4.31-3.34 9.86-3.6 14.95-4.83Z" style="fill:#f28f8f"/><path d="M189.58 225.76a6.94 6.94 0 0 0-6.23 0L135 253.66a2.17 2.17 0 0 0-1.29 1.8 1.66 1.66 0 0 0 .27.85 1.6 1.6 0 0 0-.27.85A2.2 2.2 0 0 0 135 259a6.88 6.88 0 0 0 6.22 0l48.32-27.9a2.15 2.15 0 0 0 1.27-1.8v-1.71a2.18 2.18 0 0 0-1.23-1.83m-1.86 2.83h-.05a3.4 3.4 0 0 1-3.06 0 3.39 3.39 0 0 1 3.07 0s.02 0 .04 0" style="fill:#263238"/><path d="M133.75 255.46a2.18 2.18 0 0 0 1.29 1.79 6.85 6.85 0 0 0 6.22 0l48.32-27.89c1.71-1 1.72-2.6 0-3.6a6.94 6.94 0 0 0-6.23 0L135 253.66a2.17 2.17 0 0 0-1.25 1.8m53.93-28.6a.93.93 0 0 1 0 1.77 3.4 3.4 0 0 1-3.06 0 .94.94 0 0 1 0-1.77 3.42 3.42 0 0 1 3.06 0" style="fill:#37474f"/><path d="M163.29 252.21c0-4.12-2.73-8.25-8.18-11.39-10.89-6.29-28.56-6.29-39.46 0-5.45 3.14-8.17 7.27-8.17 11.39v6.66c0 4.12 2.72 8.24 8.17 11.39 10.9 6.29 28.57 6.29 39.47 0 5.44-3.15 8.17-7.27 8.17-11.39Z" style="fill:#263238"/><path d="M115.65 240.82c-5.45 3.14-8.17 7.27-8.17 11.39s2.72 8.25 8.17 11.39c10.9 6.29 28.57 6.29 39.47 0 5.44-3.14 8.17-7.27 8.17-11.39s-2.73-8.25-8.18-11.39c-10.89-6.29-28.56-6.29-39.46 0" style="fill:#455a64"/><path d="M116.8 242c-5.13 2.83-7.7 6.53-7.7 10.23s2.57 7.4 7.7 10.23c10.26 5.64 26.9 5.64 37.17 0 5.13-2.83 7.7-6.53 7.7-10.23s-2.57-7.4-7.7-10.23c-10.27-5.66-26.91-5.66-37.17 0" style="fill:#263238"/><path d="M154 247.79c-10.27-5.65-26.91-5.65-37.17 0-3.78 2.08-6.17 4.64-7.16 7.32 1 2.69 3.38 5.24 7.16 7.33 10.26 5.64 26.9 5.64 37.17 0 3.78-2.09 6.16-4.64 7.16-7.33-1.03-2.68-3.41-5.24-7.16-7.32" style="fill:#37474f"/><path d="M116 257.08a2.25 2.25 0 0 0 1.53 2c.71.33 1.58.52 2.28.85a2.47 2.47 0 0 1 1.65 1.91c0 .56-.27 1.15.09 1.66a2.36 2.36 0 0 0 .86.64 8.17 8.17 0 0 0 4.24.67c2-.2 3.68-1.07 5.69-1.24 1.38-.12 2.79.11 4.18 0 2.58-.16 4.75-1.55 4.78-3a20 20 0 0 0-.4-2c-.08-1 .56-2 .79-3.06a2.31 2.31 0 0 0-1.6-2.79 7.6 7.6 0 0 0-2.9-.34 21.4 21.4 0 0 1-4.73 0c-.83-.16-1.53-.49-2.33-.68a12.3 12.3 0 0 0-6.25.34c-1.07.47-2 1-3 1.51-.73.35-1.59.59-2.32 1-1.29.59-2.45 1.53-2.56 2.53" style="fill:#fafafa"/><path d="M154.25 253.15c.07-.75-.52-1.51-1.53-2-.7-.33-1.57-.53-2.28-.85a2.47 2.47 0 0 1-1.64-1.91c0-.56.27-1.15-.1-1.67a2.2 2.2 0 0 0-.85-.63 8.17 8.17 0 0 0-4.24-.68c-2 .21-3.68 1.08-5.69 1.25-1.39.11-2.8-.11-4.19 0-2.57.17-4.74 1.55-4.77 3.05 0 .66.34 1.31.39 2 .09 1-.56 2-.78 3.05a2.3 2.3 0 0 0 1.59 2.79 7.6 7.6 0 0 0 2.91.35 20.8 20.8 0 0 1 4.73 0c.82.17 1.53.49 2.33.69a12.24 12.24 0 0 0 6.24-.35c1.07-.46 2-1 3-1.5.73-.35 1.59-.6 2.33-1 1.3-.66 2.47-1.59 2.55-2.59" style="fill:#fafafa"/><path d="M133.47 257.42a2.12 2.12 0 0 1-1.26 1.75 6.65 6.65 0 0 1-6.05 0 2.12 2.12 0 0 1-1.26-1.75 4.29 4.29 0 0 1 8.57 0m12.1-6.11a2.1 2.1 0 0 1-1.25 1.75 6.67 6.67 0 0 1-6.06 0 2.12 2.12 0 0 1-1.25-1.75 4.28 4.28 0 0 1 8.56 0" style="fill:#10b981"/><path d="M182.47 231.74c2.48 1.78-1.24 4.14-1.24 4.14l-4.63 2.67 2.52.56c1.7.37 4.09 1.19 6.09-.81s4.79-5.18 7.56-6.78c0 0 2-21-2.83-16.32-1.35 1.29-2.83 3-4.72 3.41a24.8 24.8 0 0 1-5.42.64 13.4 13.4 0 0 0-2.69.17 3.25 3.25 0 0 0-2.18 1.47 4.7 4.7 0 0 0-.41 1.61 3.53 3.53 0 0 0-2.46 1.24 3.5 3.5 0 0 0-.78 2.65 2.65 2.65 0 0 0-3.29 3c0 1 0 2.06-.08 3.14 0 .57 0 2.18-.06 2.19l6.6-3.81s7.1.18 8.02.83M298.43 128c-.82-2-1-4.5-1.41-6.09a17.6 17.6 0 0 0-1.86-4.42c-.84-1.53-1.57-3.57-2.17-3.71s-1.49.6-1.31 1.86c0 0-.85-.85-1.6-1.75s-1.32-2.06-2.25-2.17-1.2 1.37-.77 2.34.74 1.52.74 1.52-.84.5.14 2.22a9 9 0 0 0 1.47 1.88 8.8 8.8 0 0 0 1.38 3.09 17.4 17.4 0 0 0 1.59 3.36 9.7 9.7 0 0 0-.66 3.85c.2 1.65.5 2-1.17 4.2-1.13 1.48-3.14 3.25-4.14 5.23s-1.6 4 .22 6.21 3.23 3.79 5 6.13c1.31 1.76 2.69 4.15 8.29 12.6 4.35 6.56 4.74 7.4 6.76 9.73 2.82 3.26 6.12 7.52 12.58 9.27s13.43.08 11.91-5a37.2 37.2 0 0 0-10.24-16.85c-6.93-6.37-14-12.45-20-18.19-2.77-2.65-2.43-6.27-2-10a9.6 9.6 0 0 0-.5-5.31" style="fill:#ffa8a7"/><path d="M285.62 143.81a12.3 12.3 0 0 0 2.19 3.06c.8 1 1.59 2 2.36 3s1.54 2 2.28 3 1.6 2.55 2.32 3.6c-.81-1-1.72-2.46-2.5-3.45s-1.57-2-2.35-3l-2.33-3-1.17-1.51a4.55 4.55 0 0 1-.8-1.7m6.06-28.15a10 10 0 0 0 .66 1.6c.26.51.54 1 .83 1.48l.05.07v.12a7 7 0 0 0 0 .91 7 7 0 0 0 .17.91 5.8 5.8 0 0 0 .74 1.69l.08.13v.12a4.5 4.5 0 0 0-.18.68c0 .24-.08.48-.1.72s0 .49 0 .74 0 .5.07.75a4.5 4.5 0 0 1-.4-1.48 4 4 0 0 1 0-.79 4.6 4.6 0 0 1 .12-.79v.25a5.2 5.2 0 0 1-.92-1.85 7 7 0 0 1-.18-1 4.6 4.6 0 0 1 0-1v.19a9.7 9.7 0 0 1-.7-1.64 5.8 5.8 0 0 1-.24-1.81m-3.88-.06a5.7 5.7 0 0 0 .7.69 7 7 0 0 0 .79.54h.06v.09a8.3 8.3 0 0 0 1 1.8 5.6 5.6 0 0 0 1.45 1.37l.18.11v.21a6 6 0 0 0 0 1.13 12 12 0 0 0 .18 1.16c.1.38.2.76.33 1.14s.29.75.44 1.13a9 9 0 0 1-.7-1 7 7 0 0 1-.52-1.13 6.2 6.2 0 0 1-.31-1.22 4.6 4.6 0 0 1-.06-1.29l.15.32a4.4 4.4 0 0 1-.9-.7 5 5 0 0 1-.72-.87 6 6 0 0 1-.54-1 6 6 0 0 1-.35-1.06l.09.12a4.6 4.6 0 0 1-.74-.72 3.8 3.8 0 0 1-.53-.82m5.3 12.71a4.8 4.8 0 0 1-.31 2.18 6.9 6.9 0 0 1-1.11 1.91c.12-.35.27-.68.4-1s.28-.67.4-1a15.5 15.5 0 0 0 .62-2.09m-3.66 8.17a9.2 9.2 0 0 0 0 3.91 7 7 0 0 0 .68 1.81 18 18 0 0 0 1.1 1.68 5.4 5.4 0 0 1-1.53-1.41 5 5 0 0 1-.89-1.92 5.38 5.38 0 0 1 .64-4.07" style="fill:#f28f8f"/><path d="m305.26 120.48-24.15-12.22a1.39 1.39 0 0 0-1.37 0c-.31.2-1.59.94-1.94 1.12a1.31 1.31 0 0 0-.65 1.1l-1.15 12.6a3.1 3.1 0 0 0 1.6 2.81l24.15 12.22a1.39 1.39 0 0 0 1.29.08c.36-.19 1.74-1 2.1-1.21a1.33 1.33 0 0 0 .57-1.06c.29-3.17.86-9.45 1.15-12.62a3.13 3.13 0 0 0-1.6-2.82" style="fill:#37474f"/><path d="M303 138.22h.07c.36-.18 1.74-1 2.1-1.21a1.36 1.36 0 0 0 .57-1c.29-3.18.86-9.46 1.15-12.63a3.06 3.06 0 0 0-.79-2.16l-2 1.15a3 3 0 0 1 .79 2.17c-.28 3.17-.85 9.46-1.14 12.63a1.29 1.29 0 0 1-.75 1.05" style="fill:#263238"/><path d="M277.83 109.34a1.45 1.45 0 0 1 1.26.08l24.16 12.23a2.7 2.7 0 0 1 .8.64l2-1.15a2.7 2.7 0 0 0-.82-.66l-24.15-12.22a1.37 1.37 0 0 0-1.36 0Z" style="fill:#455a64"/><path d="M278.76 124a1.72 1.72 0 0 0 .8 1.4l22.81 11.6-.05.56 1.33-13.43a1.7 1.7 0 0 0-.79-1.39l-23.33-11.87.51.27Z" style="fill:#10b981"/><path d="M278.76 124a1.72 1.72 0 0 0 .8 1.4l22.81 11.6-.05.56 1.33-13.43a1.7 1.7 0 0 0-.79-1.39l-23.33-11.87.51.27Z" style="fill:#fff;opacity:.75"/><path d="M278.19 124.27a1.69 1.69 0 0 0 .79 1.4l23.34 11.85.05-.56-22.81-11.58a1.72 1.72 0 0 1-.8-1.4l1.24-12.89-.51-.26Z" style="fill:#263238"/><path d="M277.75 116.63a.93.93 0 0 1 .45.84.36.36 0 0 1-.56.3.92.92 0 0 1-.44-.84.35.35 0 0 1 .55-.3" style="opacity:.35000000000000003"/><path d="M285.44 143.89a10 10 0 0 0 .73 1.08 14.7 14.7 0 0 1 .94-5.58c1-2.47 4.78-6.27 4.78-6.27l-1.57-.86a4 4 0 0 1-.5 0 1.14 1.14 0 0 1-.74-.65 12.8 12.8 0 0 1-1-2.81 8.6 8.6 0 0 0-1.51-3.21 3.09 3.09 0 0 0-2.72-1.21c-1.38.28-.58 1.8-.4 2.78a57 57 0 0 1 .8 8.26 40 40 0 0 0 0 4.92 10.3 10.3 0 0 0 1.19 3.55m-39.22-11.11a6.53 6.53 0 0 1-5.87-2.27c-3.07-3.42-3.35-6.89-1.89-9.19 1.19-1.89 4.12-3.09 6.17-1.8s2.24 2.51 3.06 4.06 2.95.36 2.28-5.88c4.26-2 3.62-9.11 5.93-12 3.62-4.53 9.54-3.32 11.46-2.24a7.76 7.76 0 0 1 8.08-.48c2.85 1.55 4.74 4.78 5.69 15.86 1 11.3-1 18.81-3.64 21.19-1.8 1.64-5.14 2.73-9.11 2.48v4.71s9.78 13.18-4.84 12c-11-.88-14.89-11.09-14.89-11.09V131s-.25 1.38-2.43 1.78" style="fill:#ffa8a7"/><path d="M270.63 131.51a3.26 3.26 0 1 1-6.15-2.19 18 18 0 0 1 6.15 2.19" style="fill:#b16668"/><path d="M264.3 130.37a3.25 3.25 0 0 0 2.16 3.12 3.4 3.4 0 0 0 1.14.18 3.32 3.32 0 0 0-3.3-3.3" style="fill:#f28f8f"/><path d="M263.75 119.72a1.86 1.86 0 1 1-1.19-2.41 1.89 1.89 0 0 1 1.19 2.41m15.05-6.66-3.91-2.13a2.13 2.13 0 0 1 2.95-1 2.35 2.35 0 0 1 .96 3.13m-4.55 6.23a1.86 1.86 0 1 0 1.09-2.46 1.89 1.89 0 0 0-1.09 2.46M261 111.43l-4 2.62a2.29 2.29 0 0 1 .6-3.27 2.5 2.5 0 0 1 3.4.65" style="fill:#263238"/><path d="m283.66 113.64-.84-.06c-2.7-.18-6.21-.12-8.29.58-2.6.89-3.48 1.8-4.94 1.86s-2.62-.78-5.49-1.45c-2.29-.53-6-.3-8.89.09l-.89.13a1.35 1.35 0 0 0-.9 1.47 3.25 3.25 0 0 0 1 1.63 2.1 2.1 0 0 1 .33.66 29 29 0 0 0 1.36 4.54 6 6 0 0 0 1.24 1.61 4.6 4.6 0 0 0 .61.46 3 3 0 0 0 .35.21 6 6 0 0 0 1 .42h.17l.27.06.28.06a8 8 0 0 0 .89.1h.85c3.64-.13 5.06-1.88 5.86-3.65s.42-4.22 2.1-4.28a.4.4 0 0 1 .16 0h.15c1.26.23 1.24 2.49 2.12 4.08a7.1 7.1 0 0 0 1.3 1.73l.3.26.16.13.17.11.15.1.16.1.13.07.09.05a5.3 5.3 0 0 0 1.49.51h.13a8.4 8.4 0 0 0 1.79.1c3.41-.15 4.47-2.13 4.95-3.38a28 28 0 0 0 .76-4.64 1.3 1.3 0 0 1 .28-.61 3.06 3.06 0 0 0 .66-1.73 1.45 1.45 0 0 0-1.02-1.32m-17.09 7.18a5 5 0 0 1-1.12 2.47 5.08 5.08 0 0 1-3.89 1.54 4.59 4.59 0 0 1-3.92-1.62 2 2 0 0 1-.14-.17l-.12-.17a1 1 0 0 1-.1-.15l-.09-.15-.06-.11-.06-.1-.09-.17c-.08-.17-.16-.34-.22-.5l-.11-.3c-.06-.18-.11-.34-.15-.49v-.18c-.35-1.21-.83-3.58-.24-4.14s2.22-1.19 4.95-1h.29a11 11 0 0 1 1.25.16l.49.09a11 11 0 0 1 1.23.34l.38.13.41.17h.08l.15.07a2.4 2.4 0 0 1 .85.61c.52.72.45 2.3.23 3.67m15.79-1.13c-.15 1-.48 3-2.33 4a4.8 4.8 0 0 1-2 .51 4.58 4.58 0 0 1-4.16-1.67 1 1 0 0 0-.08-.11l-.09-.13a.4.4 0 0 1 0-.07l-.12-.18-.12-.23-.06-.1v-.06a.4.4 0 0 0 0-.09v-.07a6.5 6.5 0 0 1-.31-.9c-.37-1.34-.61-2.91-.14-3.68s2.41-1.66 4.33-2c.44-.07.85-.11 1.24-.14h1.44a6 6 0 0 1 .63.09h.59l.3.11h.05a2.6 2.6 0 0 1 .7.38c.5.71.32 3.11.13 4.34" style="fill:#37474f"/><path d="m274.89 124.55-6 2.28-.7-6.38c.24-1.18.45-2.21 1.46-2.31Z" style="fill:#f28f8f"/><path d="m254.2 115-9.57 4.52a11 11 0 0 1 1.47 1.19l8.33-3.72Z" style="fill:#37474f"/><path d="M268.38 142.5c-5.72-.24-13.37-2.32-15.41-6 1.12 4 5.14 6.07 8.35 7a33.2 33.2 0 0 0 7 1.25Z" style="fill:#f28f8f"/><path d="M309.26 183.22a14.9 14.9 0 0 1-2.2 18.65c-7.65 7.83-17.48 14.31-31.89 15S245.3 204.5 247.82 195c3-11.22 15.85-9 21.54-11.22s12.28-9.37 23.06-9a23.65 23.65 0 0 1 16.84 8.44" style="fill:#fafafa"/><path d="M318.11 172.94c0 4.07-3.67 9.34-5.86 9.94-2.3 1.62-3.86 3.07-8.4 3.51-6.16.59-11.34-1.56-13.93-6.55a7.58 7.58 0 0 1-.59-5.47 18.5 18.5 0 0 1 2.37-4.31c.85-1.42 1.2-3 2-4.5a12.5 12.5 0 0 1 2.79-3.48 10.6 10.6 0 0 1 3.66-2.36 13 13 0 0 1 4.25-.65 13.52 13.52 0 0 1 13.71 13.87" style="fill:#ffbda7"/><path d="M306.15 162.42c-.12-.07-.23-.17-.36-.23a2.4 2.4 0 0 0-.47-.15 2.3 2.3 0 0 0-.91 0 2.5 2.5 0 0 0-1.62.89 1.51 1.51 0 0 0-.1 1.69 1.8 1.8 0 0 0 .06 1.66 2 2 0 0 0 1.69 1 1.1 1.1 0 0 0 1.12-1.3c0-.13-.16-.1-.19 0a.92.92 0 0 1-1 .64 1.52 1.52 0 0 1-1.08-.51.94.94 0 0 1-.17-1 2.2 2.2 0 0 0 1.53.34c.57-.07 1.33-.21 1.21-1s-.86-.93-1.47-.88a2.43 2.43 0 0 0-1.29.46 1 1 0 0 1 .34-.64 2.34 2.34 0 0 1 1.15-.66 3.4 3.4 0 0 1 .63-.08 3 3 0 0 1 .53 0 1 1 0 0 1 .31 0c.16.13.18-.17.09-.23m-1.43 1.9a1.6 1.6 0 0 1 .31 0l.17.06s.1.07.13.08a1 1 0 0 1-.22.09 3.3 3.3 0 0 1-.77.06 2.2 2.2 0 0 1-.66-.07 2.3 2.3 0 0 1 .4-.17 1.8 1.8 0 0 1 .64-.05m8.9 12.42a2.59 2.59 0 0 0-3.15.06c-.09.1-.11.48.09.45a8.6 8.6 0 0 1 1.75-.19 2.33 2.33 0 0 1 1.37.61c.88.85.47 2.08-.05 3a4.2 4.2 0 0 1-2.38 2.15 1.94 1.94 0 0 1-2.36-1.08c-.08-.19-.3-.11-.31.08a2.14 2.14 0 0 0 2.18 2 3.54 3.54 0 0 0 2.74-1.4 5.8 5.8 0 0 0 1.39-3 2.94 2.94 0 0 0-1.27-2.68" style="fill:#f0997a"/><path d="M305.58 174.66c0 .24-.33-.45-1.17-1a2.62 2.62 0 0 0-1.72-.4 3 3 0 0 0-.43.09c-.23.06-.21-.25.23-.54a1.83 1.83 0 0 1 .87-.32 2 2 0 0 1 2.21 1.73 2 2 0 0 1 .01.44m-9.11-4.15c-.05.2-.25-.44-.94-1a2.37 2.37 0 0 0-1.88-.51c-.22 0-.16-.24.25-.46a1.9 1.9 0 0 1 .82-.2 1.7 1.7 0 0 1 1.79 1.79 1.7 1.7 0 0 1-.04.38" style="fill:#b16668"/><path d="M297.24 173.84c-.73-.26-1.82.39-1.17.88s2.5 1.49 2.56 1a2.58 2.58 0 0 0-1.39-1.88" style="fill:#f0997a"/><path d="m295.3 177.94 3 .64a1.43 1.43 0 0 1-1.76 1.06 1.44 1.44 0 0 1-1.24-1.7" style="fill:#b16668"/><path d="M307.23 177.94a2.62 2.62 0 1 1-2.56-2.08 2.35 2.35 0 0 1 2.56 2.08m-13.31-5.22a2.61 2.61 0 1 1-.93-3.16 2.36 2.36 0 0 1 .93 3.16" style="fill:#f28f8f;opacity:.5"/><path d="M314.87 211.58c-5 3.74-17.32 7.27-33.53 6.9-9.95-.23-21.81-1.74-26.27-6-1.5-1.95-6-4-6-6.36 0-.93-.89-1.91-1.22-2.86a5.86 5.86 0 0 1 .13-3.13c4.15 4.49 14.54 6.37 16.72 6a2.19 2.19 0 0 0 1.74-1.28 3 3 0 0 0-.29-2.18c-1.1-2.5-3-4.84-2.85-7.68a1.87 1.87 0 0 1 .68-1.49 1.3 1.3 0 0 1 1.59 0 22.7 22.7 0 0 0 3.95 4 19.9 19.9 0 0 1 4.7 5 5.2 5.2 0 0 0 3.28 2.65 44 44 0 0 0 7 .27c6-.11 15.9-3.69 21.73-7.68 1.47-1 4.86-6.8 3.71-13.31l1-.69a3.1 3.1 0 0 0 1.2-.33c1 1.43 4.94 13.29 5.57 15.82 1.71 6.7 2.14 8.6-2.84 12.35" style="fill:#ffa8a7"/><path d="M312.59 183.18a28.4 28.4 0 0 1 1.62 3.88 120 120 0 0 1 4.72 15.71c2.8 10.2-14 13.65-21.26 14.82a95 95 0 0 1-16.33.89 94.3 94.3 0 0 0 16.29-1.14c6.46-1.19 18.28-3.68 20.78-10.52.52-2.59-.55-5.33-1.13-7.86a174 174 0 0 0-4.69-13.46 14 14 0 0 0-.82-1.75z" style="fill:#f28f8f"/><path d="M303.45 199.51c2.66-1.58 9.94-.46 10.79.42-2-2.42-7.55-2.53-7.55-2.53Z" style="fill:#f28f8f"/><circle cx="193.3" cy="75.01" r="22.26" style="fill:#fff" transform="rotate(-76.72 193.298 75.012)"/><path d="M193.3 97.77A22.76 22.76 0 1 1 216.06 75a22.79 22.79 0 0 1-22.76 22.77m0-44.52A21.76 21.76 0 1 0 215.06 75a21.79 21.79 0 0 0-21.76-21.75" style="fill:#e0e0e0"/><path d="M220.75 96.64A4.66 4.66 0 1 1 216.1 92a4.66 4.66 0 0 1 4.65 4.64" style="fill:#fff"/><path d="M216.1 101.67a5 5 0 1 1 5-5 5 5 0 0 1-5 5m0-9.31a4.28 4.28 0 1 0 4.28 4.28 4.29 4.29 0 0 0-4.28-4.28" style="fill:#e0e0e0"/><path d="M229 102.3a2.49 2.49 0 1 1-2.49-2.49 2.5 2.5 0 0 1 2.49 2.49" style="fill:#fff"/><path d="M226.53 105.16a2.87 2.87 0 1 1 2.86-2.86 2.86 2.86 0 0 1-2.86 2.86m0-5a2.12 2.12 0 1 0 2.11 2.12 2.11 2.11 0 0 0-2.11-2.1Z" style="fill:#e0e0e0"/><path d="M193.53 87.38 190 85.45c-8.56-4.6-12.31-10.8-10-16.57a7.12 7.12 0 0 1 13.4.4 7.12 7.12 0 0 1 13.37-.28c2 5.46-1.43 11.24-9.76 16.27Z" style="fill:#10b981"/><circle cx="350.56" cy="112.68" r="22.26" style="fill:#fff" transform="rotate(-13.28 350.644 112.692)"/><path d="M350.56 135.44a22.76 22.76 0 1 1 22.76-22.76 22.79 22.79 0 0 1-22.76 22.76m0-44.52a21.76 21.76 0 1 0 21.76 21.76 21.78 21.78 0 0 0-21.76-21.76" style="fill:#e0e0e0"/><path d="M323.11 134.3a4.66 4.66 0 1 0 4.65-4.65 4.65 4.65 0 0 0-4.65 4.65" style="fill:#fff"/><path d="M327.76 139.34a5 5 0 1 1 5-5 5 5 0 0 1-5 5m0-9.32a4.29 4.29 0 1 0 4.29 4.28 4.28 4.28 0 0 0-4.29-4.3Z" style="fill:#e0e0e0"/><path d="M314.84 140a2.49 2.49 0 1 0 2.49-2.48 2.49 2.49 0 0 0-2.49 2.48" style="fill:#fff"/><path d="M317.33 142.83a2.87 2.87 0 1 1 2.86-2.87 2.87 2.87 0 0 1-2.86 2.87m0-5a2.12 2.12 0 1 0 2.11 2.11 2.11 2.11 0 0 0-2.11-2.09Z" style="fill:#e0e0e0"/><path d="m350.56 97.5-14.14 13.39h3.9v12.85h6.99v-7.91h6.5v7.91h6.98v-12.85h3.91z" style="fill:#10b981"/><circle cx="286.94" cy="45.64" r="22.26" style="fill:#fff" transform="rotate(-13.28 287.012 45.644)"/><path d="M286.94 68.4a22.76 22.76 0 1 1 22.76-22.76 22.79 22.79 0 0 1-22.76 22.76m0-44.52a21.76 21.76 0 1 0 21.76 21.76 21.78 21.78 0 0 0-21.76-21.76" style="fill:#e0e0e0"/><path d="M299.73 37.41h-6V35a2.12 2.12 0 0 0-2.12-2.12h-9.22a2.12 2.12 0 0 0-2.16 2.12v2.46h-6.46a1.06 1.06 0 0 0-1.06 1.07v16.58a1.06 1.06 0 0 0 1.06 1.07h26a1.07 1.07 0 0 0 1.07-1.07V38.48a1.07 1.07 0 0 0-1.11-1.07m-17.24-2.32h8.95v2.32h-8.95Z" style="fill:#10b981"/><path d="M274.2 75.16a4.66 4.66 0 1 0 4.65-4.66 4.66 4.66 0 0 0-4.65 4.66" style="fill:#fff"/><path d="M278.85 80.19a5 5 0 1 1 5-5 5 5 0 0 1-5 5m0-9.31a4.28 4.28 0 1 0 4.29 4.28 4.28 4.28 0 0 0-4.29-4.28" style="fill:#e0e0e0"/><path d="M269.05 85.3a2.49 2.49 0 1 0 2.49-2.49 2.49 2.49 0 0 0-2.49 2.49" style="fill:#fff"/><path d="M271.54 88.17a2.87 2.87 0 1 1 2.87-2.87 2.87 2.87 0 0 1-2.87 2.87m0-5a2.12 2.12 0 1 0 2.12 2.11 2.12 2.12 0 0 0-2.12-2.09Z" style="fill:#e0e0e0"/></svg>