<svg xmlns="http://www.w3.org/2000/svg" viewBox="0 0 500 500"><g style="opacity:.2"><path d="M458.45 350.57c.48 8.75 1.32 17.32-.09 26.06a67.4 67.4 0 0 1-7.36 21.53 97.7 97.7 0 0 1-12.57 18.08A147 147 0 0 1 417.28 436c-7.55 5.65-14.87 9.13-23.43 12.92a138 138 0 0 1-24.12 8.24c-17.15 4-34.29 4-51.84 3.17-7.5-.37-14.81-1.78-22.19-3.12a98.5 98.5 0 0 1-12.59-3.66c-1.79-.59-3.55-1.44-5.21-2.14s-3.06-1.44-4.68-2.08c-.28-.11-.55-.19-.78-.27l-.54-.17c-.17-.05.11 0 .08 0h-.11c-1.8 0-2.79.68-2 2.49 0 .05.22.16.13.06s-.35-.33-.46-.45a9.5 9.5 0 0 0 2.91 2.19c1.53.73 2.92 1.5 4.43 2.06 4.16 1.54 8.24 3.44 12.54 4.37 7.51 1.63 15.11 3.57 22.75 3.85 17.37.62 34.9 2.29 51.8-2 17.77-4.47 33.71-11.19 49.73-20 8.74-4.78 15.33-12.34 22.54-19.37 5.42-5.28 10.09-12.17 14-18.68a65.8 65.8 0 0 0 8.55-20.53c1.79-8.39 1.29-16.89 1-25.38-.09-2.39-.8-4.58-1.09-6.9 0-.21-.28-.33-.27-.07s-.02.1.02.04" style="fill:#10b981"/><path d="M454.88 337.91a26.5 26.5 0 0 1-1.05 9.56c-.95 3.24-2.77 6.12-3.21 9.58a39.3 39.3 0 0 0 2 17.83c1.12 3.4 3.1 6.61 4.74 9.83a.86.86 0 0 0 1 .49c.4-.13.37-.51.21-.84-2.84-5.7-5.48-11.38-6.69-17.64a26.1 26.1 0 0 1 0-9c.52-3.47 2-6.56 2.78-9.92a22.75 22.75 0 0 0 .46-9.88c0-.2-.2-.15-.19 0s-.04.08-.05-.01" style="fill:#10b981"/><path d="M454.48 336.93a17 17 0 0 0 1.08 2.6c.43.87 1 1.71 1.45 2.57 1 1.74 2.15 3.35 3 5.18a48.4 48.4 0 0 1 3.68 9.68 31.7 31.7 0 0 1 .8 10.32 39 39 0 0 1-2.84 10.14c-.7 1.84-1.71 3.66-2.59 5.44-.44.9-1 1.79-1.44 2.67a10.6 10.6 0 0 0-.69 1.39c-.17.45-.32 1-.47 1.37s.22 1.23.63.88a10.4 10.4 0 0 0 1.75-2.37 26 26 0 0 0 1.41-2.45 52 52 0 0 0 2.46-5c1.32-3.38 2.72-6.64 3.22-10.27a30.8 30.8 0 0 0-.45-10.78 42.2 42.2 0 0 0-4-10.1c-1-2-2.36-3.65-3.5-5.51-.59-1-1.23-1.91-1.78-2.9s-1.05-2-1.63-3c-.06-.09-.1.05-.09.1s-.01-.01 0 .04M443 376.44a43.3 43.3 0 0 1-3.58 7.26 27.1 27.1 0 0 0-3.31 7.7 30.7 30.7 0 0 0-.23 8.79 37 37 0 0 0 .8 4.45c.31 1.57.87 3.3 1.07 5a24.5 24.5 0 0 1 0 5.28 18.6 18.6 0 0 1-.51 2.68 20.5 20.5 0 0 0-.71 2.88c0 .29.39.85.65.47a12 12 0 0 0 1.71-4.67 20.2 20.2 0 0 0 .3-4.74c-.23-3.27-1.26-6.51-1.76-9.6a32.3 32.3 0 0 1-.4-8.95c.34-3 1.51-5.3 2.65-7.93.63-1.45 1.52-2.72 2.13-4.14a23 23 0 0 0 1.32-4.33c0-.1-.08-.32-.13-.16s0 .05 0 .01" style="fill:#10b981"/><path d="M442.91 377.64a8.17 8.17 0 0 0-.42 5.14c.47 2.56 1.17 4.9 1.62 7.45a50 50 0 0 1 .92 13.66 29.7 29.7 0 0 1-2.33 7.62c-.13.34.38.95.58.58a24.4 24.4 0 0 0 3.22-12.29c-.07-5-1.37-9.41-2.48-14.11-.33-1.42-.85-2.72-1.16-4.1a6.8 6.8 0 0 1 .14-3.77c0-.07 0-.27-.09-.18s.01-.02 0 0" style="fill:#10b981"/><path d="M440.93 389.89c-.27 3.7.32 7.21.7 10.88a35.4 35.4 0 0 1-.36 10.91 22.8 22.8 0 0 1-2.56 5.68c-.18.34.33.9.57.56a18.5 18.5 0 0 0 3.52-9.27c.34-4.12-.41-7.88-1-11.85a35 35 0 0 1-.71-6.8c0-.09-.11-.23-.12-.11s-.07.03-.04 0" style="fill:#10b981"/><path d="M475.32 388.41a46 46 0 0 0-5.2 7.36c-.82 1.38-1.52 2.8-2.35 4.19a36 36 0 0 1-2.5 4.14c-2.13 2.68-4.21 5.12-7.38 6.67s-6.72 2.11-10.21 2.72c-1.45.25-2.86.14-4.34.47a9.2 9.2 0 0 0-2.41.85 4.66 4.66 0 0 0-2.38 2.27c-.16.46.35.83.76.71a18 18 0 0 0 2.81-1.47 7 7 0 0 1 1.88-.59c1.17-.23 2.37-.16 3.54-.36 3.53-.61 7.19-1.15 10.42-2.7a21.3 21.3 0 0 0 7.77-6.52c1.92-2.47 3-5.32 4.35-8.1a54.4 54.4 0 0 1 5.38-9.3c.09-.12 0-.49-.14-.34s-.06 0 0 0" style="fill:#10b981"/><path d="M474.77 389a32 32 0 0 0-2.77 2.1c-.92.73-1.73 1.58-2.7 2.28a27 27 0 0 1-6.19 3.41 60 60 0 0 0-12.75 6.11 16.4 16.4 0 0 0-2.76 2.64 10.7 10.7 0 0 0-1.14 1.56 9 9 0 0 0-.88 1.71c-.2.56.48 1 .83.62a42 42 0 0 1 5-5.31 27.8 27.8 0 0 1 5.82-3.44c4.3-2 8.54-3.46 12.42-6.19a24.4 24.4 0 0 0 2.56-2.44c.87-.82 1.75-1.82 2.64-2.66.1-.09.07-.48-.1-.37Zm-12.86 13.13a37.7 37.7 0 0 1-8.88 5.29 76 76 0 0 0-9.31 4.48 14.4 14.4 0 0 0-2.08 1.63 7.5 7.5 0 0 0-.81.93 4 4 0 0 0-.46.68 2.2 2.2 0 0 0-.23.79c0 .29.08.74.49.51a5.7 5.7 0 0 0 1.1-.91c.39-.35.61-.65 1.09-1.06a19 19 0 0 1 1.74-1.4 38 38 0 0 1 4.11-2.4c3-1.5 6.11-2.82 9-4.56a23.7 23.7 0 0 0 4.29-3.72c.08-.08.06-.36-.06-.26s-.03.01.01 0M412.23 441a14 14 0 0 0 7.63 5.16 19.4 19.4 0 0 0 10-.18c7.19-2.1 13.6-5.68 20.77-7.8a18.9 18.9 0 0 1 5.5-.66 29.8 29.8 0 0 1 5.89 1c.43.09.3-.49 0-.55-6.6-1.41-12.49-.57-18.77 1.64-4 1.42-7.55 3.36-11.55 4.64a26.4 26.4 0 0 1-10 1.26 12.4 12.4 0 0 1-4.75-1.51 16.2 16.2 0 0 1-3.93-3.26c-.35-.36-1.2-.26-.75.29-.01.03-.21-.03-.04-.03" style="fill:#10b981"/><path d="M422.35 433.58c1.32-.41 2.7-.83 4-1.18s2.6-.82 3.92-1.09A38.5 38.5 0 0 1 438 430a37.6 37.6 0 0 1 15 2.64c3.32 1.37 5.95 3.81 8.91 5.75.25.16.24-.22.11-.34a35 35 0 0 0-7.57-5.61 26.3 26.3 0 0 0-7.74-2.76 45.7 45.7 0 0 0-15.65.51 29 29 0 0 0-4.36 1.35c-1.46.52-3 1.33-4.41 2v.07Z" style="fill:#10b981"/><path d="M415.31 440.1a9 9 0 0 1 2.71-1.44c1.09-.38 2.24-.84 3.42-1.22a63 63 0 0 1 7.05-2 81 81 0 0 1 14-1.48c1.38 0 2.71.19 4.1.24s2.81.27 4.2.46v-.12c-2.37-.41-4.59-.92-7-1.12a50 50 0 0 0-7.48-.26 68 68 0 0 0-14.6 2.84 32 32 0 0 0-3.85 1.53 8 8 0 0 0-3 2c-.22.25.17.76.47.52Zm-19.51-7.91a51.3 51.3 0 0 0-9.93 10.24c-1.56 2.06-2.92 4.18-4.65 6.17a38.3 38.3 0 0 1-5.89 5.38 35 35 0 0 1-3.86 2.43c-1.37.76-3.07 1.48-4.46 2.25a.76.76 0 0 0-.21 1.1c.2.32.46.32.72.44a1 1 0 0 0 .76-.05c.2-.08-.31.07-.15 0a3 3 0 0 0 .48-.11c.22-.08.34-.1.69-.23s.69-.22 1.2-.46 1.39-.61 2-1a38 38 0 0 0 3.55-2.13 39.4 39.4 0 0 0 6.24-5.46 53 53 0 0 0 4.5-6.26c1.41-2.13 2.52-4.2 4-6.23a37.8 37.8 0 0 1 5.15-5.57c.19-.16.07-.76-.18-.58s-.07.05.04.07" style="fill:#10b981"/><path d="M407.84 417.5a36 36 0 0 0-2.89 7 29.2 29.2 0 0 1-3.11 7 36.5 36.5 0 0 1-10.67 10.14c-1.38.91-2.89 1.57-4.26 2.55a18 18 0 0 0-4 3.22c-.51.64.62 1.34 1.19 1 1.35-.8 2.68-1.88 3.94-2.72s2.5-1.5 3.71-2.28a37.6 37.6 0 0 0 6-4.48 27.2 27.2 0 0 0 4.6-5.8 33.8 33.8 0 0 0 2.88-7.06c.44-1.39.7-2.85 1.11-4.26a35 35 0 0 1 1.54-4.1c0-.06 0-.3-.07-.18s-.01-.02.03-.03" style="fill:#10b981"/><path d="M407.8 417.41a24 24 0 0 1-3 2.47c-1.12.74-2.35 1.32-3.52 2-2.54 1.48-5.28 2.55-7.63 4.39A31.77 31.77 0 0 0 383.4 440a18.2 18.2 0 0 0-.91 4.66 15.5 15.5 0 0 1-1.05 4.65c-.24.51.35 1.22.79.75a6.58 6.58 0 0 0 1.42-3.77 32 32 0 0 1 .61-4.23 28.6 28.6 0 0 1 3.37-7.76 26.6 26.6 0 0 1 6-6.37 82 82 0 0 1 7.53-4.77c1.28-.78 2.63-1.5 3.83-2.37a12.8 12.8 0 0 0 3-3.07c.07-.1 0-.47-.17-.32s0-.01-.02.01m-45.36 56.17a20 20 0 0 0-2.67-.18c-.85 0-1.64.08-2.47.13-1.56.11-3.1.42-4.66.45-2.88 0-5.7.29-8.53-.38a35.35 35.35 0 0 1-13.41-6.45c-1.16-.87-1.94-2-3-3s-2.23-2.21-3.72-2.6c-.78-.2-.72.67-.26 1.09s1.15.86 1.67 1.29 1 .93 1.47 1.41c1 .95 1.8 2 2.86 2.9a32 32 0 0 0 6.51 4.4 29.8 29.8 0 0 0 7.57 2.49 35.3 35.3 0 0 0 8.36.28c1.75-.11 3.54-.44 5.29-.62.83-.08 1.67-.19 2.51-.29s1.66-.21 2.49-.32c.25 0 .26-.51 0-.55s.03-.04-.01-.05" style="fill:#10b981"/><path d="M367.29 474.87a17.4 17.4 0 0 1-3.52-1 14 14 0 0 1-2.93-1.73c-1.85-1.43-3.39-3.1-5.16-4.62a26.3 26.3 0 0 0-5.84-4.05 23.6 23.6 0 0 0-6.25-1.91 23.2 23.2 0 0 0-7.66 0c-.91.16-.36 1.23.33 1.35a16 16 0 0 0 2.35.16h1.84a22 22 0 0 1 3.05.23 24 24 0 0 1 5.5 1.7 31 31 0 0 1 5.86 3.72c1.86 1.42 3.63 3 5.53 4.34a16.4 16.4 0 0 0 3.11 1.73 10 10 0 0 0 1.73.49 4.4 4.4 0 0 0 .94 0h1a.23.23 0 0 0 .09-.45c-.17-.01.06.04.03.04m-17.15-3.49a66.4 66.4 0 0 0-8.25-5.59 43 43 0 0 0-4.51-2.19 38 38 0 0 0-3.81-1.32 13 13 0 0 0-1.92-.46 2.43 2.43 0 0 0-1.58.05c-.54.25-.08 1 .24 1.14a13.8 13.8 0 0 0 3 .78c.92.22 1.67.41 2.47.68a41 41 0 0 1 4.8 1.89c3.24 1.61 6.29 3.47 9.51 5.12 0 0 .07-.08 0-.1s.05-.01.05 0" style="fill:#10b981"/><path d="M362.4 437.52a4.6 4.6 0 0 0-1.84.14 7.4 7.4 0 0 0-1.76.82 18.4 18.4 0 0 0-2.95 2.25c-1.93 1.86-3.52 4-5.26 6-3.56 4.16-7 8.2-11.62 11.31-2.5 1.7-5.46 2.12-8.34 2.82-.86.21-.29 1.34.4 1.24a24.88 24.88 0 0 0 14-6.72c4-3.77 6.88-8.3 10.54-12.35a22.3 22.3 0 0 1 3.26-2.95 12 12 0 0 1 1.71-1c.61-.33 1.29-.68 1.88-1.07.14-.09.2-.45 0-.48s0 0-.02-.01m-16.75 6.61a13.6 13.6 0 0 0-2.3 1 16 16 0 0 0-2 1.42c-1.3 1-2.51 2.15-3.7 3.3-2.43 2.34-4.85 4.68-7.47 6.8a24 24 0 0 1-2.34 1.6 13 13 0 0 0-2.48 1.41c-.61.64-.11 1.29.67 1.23a5.6 5.6 0 0 0 2.24-1 17 17 0 0 0 1.94-1.4 44 44 0 0 0 3.65-3.45c2.4-2.53 4.74-5.09 7.33-7.43a20 20 0 0 1 2.22-1.65q1.13-.79 2.28-1.5c.08 0 .11-.3 0-.26s-.02-.08-.04-.07" style="fill:#10b981"/><path d="M362.37 437.48a51.5 51.5 0 0 0-17.75 2.74 35 35 0 0 0-8.51 4.6 66.5 66.5 0 0 0-7.77 6.83c-3 2.9-6 5.9-8.93 8.92-.57.61.37 1.69 1 1.16 2.78-2.39 5.37-5.32 8-7.76s4.86-5 7.75-7a54.4 54.4 0 0 1 16.79-7.75 50.3 50.3 0 0 1 9.39-1.24c.22 0 .28-.48.05-.48s-.07-.07-.02-.02" style="fill:#10b981"/></g><g style="opacity:.2"><path d="M77.13 226.31c-6.75 5.74-12.65 11.45-17.57 18.9a78.6 78.6 0 0 0-9.77 21.15 172 172 0 0 0-5.41 23.72C43 300.43 44 310.8 45.94 320.57a106 106 0 0 0 8.79 26.78c3.73 7.69 8 14.9 13.74 21.14a168.4 168.4 0 0 0 40.64 32.95c6.5 3.67 14 6.2 21 8.77 4.06 1.49 8.32 2.29 12.43 3.35 1.79.46 3.6.76 5.31 1.07s3.14.43 4.74.85l.8.23.52.16h-.13.11c1.67.55 2.37 2.9.25 3.23h-.17l.69-.14a6.9 6.9 0 0 1-3.58.2c-1.63-.24-3-.41-4.53-.75-4.24-.95-8.31-1.61-12.52-3-7.36-2.36-14.92-4.83-21.85-8.49-15.76-8.33-29.11-19.07-41.65-31.84-13.2-13.44-20.83-29.53-25.68-47.72a104.1 104.1 0 0 1-3.64-30.57c.24-8 3.2-18.3 5.22-26.14a82 82 0 0 1 8.67-21.29c4.38-7.57 10.14-13.38 16.5-19.08 1.79-1.6 3.47-2.75 5.28-4.16.17-.13.42 0 .22.16Z" style="fill:#10b981"/><path d="M90.68 217.18a20.2 20.2 0 0 0-5.82 7.54c-1.46 3-2.26 6.21-4.16 9.13-3.36 5.15-8.2 8.76-13.7 11.55a58.3 58.3 0 0 1-9.93 3.69.87.87 0 0 1-1-.34c-.18-.35.08-.65.43-.75 6-1.83 11.73-4.19 16.75-8a26 26 0 0 0 6.18-6.52c1.89-2.91 3-6 4.7-9.05s3.48-5.63 6.48-7.41c.17-.11.25.07.11.18Z" style="fill:#10b981"/><path d="M90.93 216.64a11.5 11.5 0 0 1-2.54 1.12c-.9.32-1.85.57-2.79.83-1.89.54-3.8.95-5.68 1.61a41.4 41.4 0 0 0-9.12 4.32 30.8 30.8 0 0 0-7.7 6.9 35.4 35.4 0 0 0-4.94 9.34c-.7 1.85-1.25 3.78-1.78 5.68q-.41 1.44-.75 2.88a10 10 0 0 1-.39 1.48c-.18.44-.36.92-.52 1.31s-1 .65-1.06.13a14 14 0 0 1 .31-2.91c.18-.93.36-1.81.61-2.72.47-1.75 1-3.5 1.57-5.21a39 39 0 0 1 4.66-9.62 30.2 30.2 0 0 1 7.81-7.53 36.7 36.7 0 0 1 9.63-4.38c2.06-.67 4.15-1 6.23-1.5 1.1-.27 2.18-.52 3.26-.84s2.11-.75 3.19-1c.1 0 0 .1 0 .13Zm-43.82 15.92a40 40 0 0 1-2.89 8.93c-.65 1.54-1.32 3-2 4.59a45 45 0 0 0-1.86 4.67 21 21 0 0 0-1 10.25 31.6 31.6 0 0 0 3.94 9.86 25 25 0 0 1 2.18 3.74 11 11 0 0 1 .64 2.59 5.14 5.14 0 0 1-.54 3.64.62.62 0 0 1-1.09-.14 27 27 0 0 1-.28-3.34 9 9 0 0 0-.58-2 27 27 0 0 0-1.75-3.13 33.2 33.2 0 0 1-4-10.07 21.66 21.66 0 0 1 .62-10.46 45 45 0 0 1 4-8.7 46 46 0 0 0 4.34-10.36c0-.15.39-.3.35-.09Z" style="fill:#10b981"/><path d="M46.94 233.38a32 32 0 0 1-.08 3.53c-.08 1.17-.26 2.41-.29 3.62a22.2 22.2 0 0 0 .91 7.1c1.38 4.61 2.8 9.08 2.76 14a20.6 20.6 0 0 1-.51 3.95 16 16 0 0 1-.58 2 15 15 0 0 1-.85 1.87c-.29.53-1.18.21-1-.32a33 33 0 0 0 1.35-7.48 25 25 0 0 0-.73-6.81c-1.13-4.7-2.66-8.89-2.42-13.77.06-1.21.32-2.37.5-3.61s.46-2.6.6-3.85c0-.14.36-.36.37-.16Zm27.41 13.84A28.6 28.6 0 0 0 71 254.9a27.2 27.2 0 0 1-3.8 7.88 32.4 32.4 0 0 1-6.55 6.41c-1.25.95-2.49 1.76-3.92 2.69s-3.14 1.85-4.61 3a26 26 0 0 0-4 4 26 26 0 0 0-1.81 2.45 33 33 0 0 1-2 3c-.21.26-1 .4-.83-.13a15 15 0 0 1 2.78-5.2 27 27 0 0 1 3.48-3.89c2.64-2.32 5.83-4 8.54-5.84a34.6 34.6 0 0 0 7-6 28.3 28.3 0 0 0 4.42-7.59c.65-1.52 1.12-3 1.82-4.48a18.4 18.4 0 0 1 2.61-4c.07-.09.3-.14.2 0Z" style="fill:#10b981"/><path d="M73.48 248.13c-.65 1.93-2.2 2.92-3.81 3.92-2.32 1.43-4.56 2.57-6.87 4a43.6 43.6 0 0 0-11.16 9.12 29 29 0 0 0-4.13 7.4c-.15.35-1 .38-.87-.05a23.5 23.5 0 0 1 7.2-11.52c3.9-3.52 8.12-5.75 12.63-8.13 1.36-.71 2.65-1.27 3.94-2a6.33 6.33 0 0 0 2.88-2.72c0-.06.22-.17.19-.06Z" style="fill:#10b981"/><path d="M65.14 258.18c-2.57 3-5.7 4.85-8.82 7.23a32.6 32.6 0 0 0-8 8.3 30.8 30.8 0 0 0-2.72 6.36c-.14.39-1 .42-.87 0a22 22 0 0 1 4.88-9.76c2.9-3.36 6.13-5.47 9.7-7.78a29.2 29.2 0 0 0 5.69-4.38c.06-.07.24-.08.15 0Z" style="fill:#10b981"/><path d="M43.93 252.14a28.2 28.2 0 0 0 1.07 10.5 54.7 54.7 0 0 1 2 10.29 14 14 0 0 1-.17 2.87 12 12 0 0 1-.31 1.37 7 7 0 0 1-.28.8 2.6 2.6 0 0 1-.51.73c-.18.21-.73.46-.74 0a11 11 0 0 1 .13-1.53c.08-.54.17-.92.26-1.6a16 16 0 0 0 .19-2.5 30.5 30.5 0 0 0-.57-4.87c-.62-3.38-1.45-6.62-1.77-10.07a21.3 21.3 0 0 1 .46-5.89c0-.11.26-.26.24-.1m3.12 76.42A12.2 12.2 0 0 1 38 327.5a21.4 21.4 0 0 1-7.6-6.52c-4.39-6-7-13-11.44-19a18 18 0 0 0-4-3.75 24.8 24.8 0 0 0-5.27-2.72c-.4-.16 0-.58.34-.48 6.62 2.25 10.36 6.88 13.83 12.65 2.21 3.7 3.86 7.23 6.19 10.74a24.9 24.9 0 0 0 7 7.36 14.2 14.2 0 0 0 4.59 1.93 13.5 13.5 0 0 0 5 0c.5-.06 1.1.63.4.82Z" style="fill:#10b981"/><path d="M43.61 315.62c-.76-1.22-1.61-2.42-2.4-3.58s-1.51-2.3-2.3-3.42a30.8 30.8 0 0 0-5.21-5.78A28.4 28.4 0 0 0 20.24 296c-3.55-.69-6.93-.47-10.47-.54-.29 0-.06-.34.11-.37a32 32 0 0 1 9.31-.05 26.1 26.1 0 0 1 7.88 2.2A33 33 0 0 1 39 307.18a38 38 0 0 1 2.45 3.9c.8 1.36 1.5 3 2.22 4.49v.05Z" style="fill:#10b981"/><path d="M45.18 325.61a7.1 7.1 0 0 0-1.22-3c-.61-1-1.29-2.18-2-3.25-1.31-2.08-2.73-4.19-4.25-6.14a57 57 0 0 0-10-9.81c-1.07-.84-2.2-1.5-3.32-2.31a24 24 0 0 0-3.6-2.11s0-.12.07-.1a43 43 0 0 1 6.18 3.26 56 56 0 0 1 6 4.41 49.6 49.6 0 0 1 9.57 11.46c.77 1.24 1.47 2.53 2.1 3.77a8.16 8.16 0 0 1 1.14 3.69c0 .35-.65.5-.7.1Zm16.21 8.12c1.64 4.73 1.81 9.36 1.79 14.25a61 61 0 0 0 .28 7.63 28.6 28.6 0 0 0 1.94 7.47 35 35 0 0 0 1.87 4c.73 1.34 1.88 2.69 2.7 4a.69.69 0 0 1-.46 1 1.5 1.5 0 0 1-.85 0 1.2 1.2 0 0 1-.64-.43c0-.09.22.21.16.14a3 3 0 0 1-.35-.32c-.13-.16-.22-.22-.44-.49s-.48-.53-.81-1a20 20 0 0 1-1.22-1.84 39 39 0 0 1-1.8-3.6 30.7 30.7 0 0 1-2.23-7.82 41.6 41.6 0 0 1-.13-7.64c.11-2.55.46-4.85.5-7.4a29.2 29.2 0 0 0-.82-7.62c-.06-.24.4-.62.51-.32Z" style="fill:#10b981"/><path d="M60.59 316.25c-.12 2.62-1.05 4.87-1.87 7.3A29.4 29.4 0 0 0 57 331a31.24 31.24 0 0 0 2.45 14.62c.63 1.54 1.3 3 1.88 4.59a23.4 23.4 0 0 1 1.45 4.92c.1.82-1.37.74-1.63.11-.6-1.47-1.07-3.18-1.61-4.61s-1.08-2.67-1.61-4a33 33 0 0 1-2-7.25 27.7 27.7 0 0 1-.25-7.39 31.6 31.6 0 0 1 1.92-7.36c.51-1.36 1.11-2.69 1.64-4a27 27 0 0 0 1.2-4.2c0-.07.18-.23.17-.09Z" style="fill:#10b981"/><path d="M60.67 316.2a18.5 18.5 0 0 0 .9 3.79c.43 1.25 1 2.51 1.58 3.76a81 81 0 0 1 3.42 8.08 27.54 27.54 0 0 1 0 17.17 21.7 21.7 0 0 1-1.93 4.21 10 10 0 0 0-1.7 4.33c0 .56-1 .74-1.13.14a5.85 5.85 0 0 1 1-3.83 33 33 0 0 0 1.92-3.74 27.4 27.4 0 0 0 1.91-8.23 26.2 26.2 0 0 0-1-8.7 79 79 0 0 0-3.08-8.35c-.57-1.39-1.18-2.81-1.61-4.23a10.1 10.1 0 0 1-.52-4.25c0-.13.29-.38.32-.15Zm4.54 70.23c.7.47 1.56 1 2.2 1.54s1.25 1.09 1.87 1.63c1.17 1 2.12 2.25 3.33 3.25a33 33 0 0 0 7 4.89 31.4 31.4 0 0 0 15.1 2.64c1.47-.08 2.76-.44 4.25-.63a10.9 10.9 0 0 1 4.66 0c.76.25.21 1-.42 1.06s-1.5.07-2.18.1a20 20 0 0 0-2 .23c-1.36.2-2.7.51-4.1.61a32.6 32.6 0 0 1-8.08-.29 26.7 26.7 0 0 1-7.78-2.39 33.3 33.3 0 0 1-6.87-4.89c-1.31-1.18-2.49-2.54-3.76-3.76-.61-.58-1.21-1.2-1.81-1.78s-1.17-1.22-1.75-1.8c-.17-.18.12-.57.32-.44Z" style="fill:#10b981"/><path d="M60.75 384.35a13.55 13.55 0 0 0 6.58 2c2.29.08 4.41-.19 6.72-.33a29 29 0 0 1 7.23.35 24 24 0 0 1 6.14 2.06 24.4 24.4 0 0 1 6.34 4.39c.66.66-.45 1.28-1.09 1s-1.52-.89-2.09-1.27-1-.7-1.49-1a26 26 0 0 0-2.63-1.57 24 24 0 0 0-5.46-1.91 33.6 33.6 0 0 0-6.92-.64c-2.33 0-4.61.05-6.92-.11a14.2 14.2 0 0 1-3.44-.66 9.6 9.6 0 0 1-1.63-.74 3.4 3.4 0 0 1-.71-.55c-.26-.21-.62-.45-.81-.63s.06-.49.23-.39Zm16.15 8.15a74 74 0 0 1 10.11.93 45 45 0 0 1 5 1.07 29 29 0 0 1 3.88 1.38 18 18 0 0 1 1.81.87 2.6 2.6 0 0 1 1.22 1c.29.52-.59.82-1 .74a13.3 13.3 0 0 1-2.87-1.35c-.86-.41-1.53-.71-2.33-1a37 37 0 0 0-5.08-1.49c-3.61-.77-7.24-1.12-10.81-2-.05 0 0-.11 0-.11Z" style="fill:#10b981"/><path d="M86 359.14a4.7 4.7 0 0 1 1.37 1.19 9 9 0 0 1 .91 1.72 17.5 17.5 0 0 1 1 3.57 56 56 0 0 1 .69 8c.21 5.43.6 10.74 3 15.72a21.6 21.6 0 0 0 5.65 6.83c.68.58-.48 1.27-1 .86a20.6 20.6 0 0 1-8.17-13.2c-1.06-5.42-.56-10.73-1.15-16.16a22.2 22.2 0 0 0-.9-4.33 11.6 11.6 0 0 0-.78-1.82c-.3-.62-.64-1.32-.89-2-.06-.17.12-.49.3-.38Zm8.66 15.68a13 13 0 0 1 1.25 2.11 19 19 0 0 1 .77 2.3 40 40 0 0 1 .95 4.74 61 61 0 0 0 2.05 9.71 28 28 0 0 0 1 2.64 17 17 0 0 1 1.29 2.6c.17.81-.8 1.06-1.32.57a7 7 0 0 1-1.24-2.17 21 21 0 0 1-.8-2.24 39 39 0 0 1-1-4.85c-.51-3.39-.66-6.77-1.41-10.1a25 25 0 0 0-.78-2.59c-.3-.85-.56-1.7-.91-2.51 0-.08.09-.3.16-.21Z" style="fill:#10b981"/><path d="M104 390.84c.44 2.28.92 4.56 1.43 6.82.26 1.14.54 2.27.8 3.4.13.56.18 1.46-.67 1.09a3.08 3.08 0 0 1-1.55-2.74 18 18 0 0 0-.48-2.29c-.31-1.51-.59-3-.9-4.54-.71-3.44-1.08-6.69-2-10a51.9 51.9 0 0 0-8.47-16.21 43.8 43.8 0 0 0-6.37-6.82c-.17-.14.07-.55.26-.41a42.6 42.6 0 0 1 11.83 13.22 41.3 41.3 0 0 1 4 8.54 83 83 0 0 1 2.12 9.94" style="fill:#10b981"/></g><path d="M50.21 196.71c9.23-9.94 3.66-16.76 1.93-23.14a20.68 20.68 0 0 1 .92-13.1c-5.52 5.31-9.62 14.54-7.65 22.24 1.66 6.46 5.2 9.88 4.8 14m5.15 13.5c7.89-2.77 13.31-8.6 14.51-16.62s4.86-12.42 4.86-12.42c-16.61 7.77-19.73 23.08-19.37 29.04M458.5 323.84c5.54-10.71-.84-15.22-3.84-20.26a18.38 18.38 0 0 1-2.33-11.43c-3.46 5.85-4.78 14.72-1.26 20.85 2.93 5.14 6.8 7.22 7.43 10.84m7.63 10.33c6.09-4.25 9.34-10.53 8.46-17.68a23.8 23.8 0 0 1 1.21-11.78c-12.37 10.6-11.4 24.44-9.67 29.46" style="fill:#e0e0e0"/><path d="M134.44 160.81c4-2 28.61-9 28.61-9 5.87-1 22.6 1.91 22.6 1.91s13 2.61 19.22 4.3c10 2.75 13.58 7.54 24.31 18.37 10.88 11 12.1 17.6 12 28.33-.12 10.24-8.45 17.52-8.45 17.52a137 137 0 0 1-.85 18.16c-16.15 11.89-66.07 14.6-81.34.18-.52-16-8.65-24.88-13.11-39.77-4.61-15.28-10.79-36.14-2.99-40" style="fill:#ffa8a7"/><path d="m149.45 194.49 1.45-6.75 1.82 10.77z" style="fill:#f28f8f"/><path d="M214.87 80.43c-3.62-4.23-6.44-5.9-9.16-8.05-3.55-4.73-10.71-7.38-16.54-7.71-22.4-1.22-29.55 9.86-30.75 14-10.59 1.56-17.62 19.48-8.7 36a2.74 2.74 0 0 0 .71 1.34c3.23 2.37 13.31 4.82 13.31 4.82s12.35 4.5 27.69-1.64 24-10 26.34-13.09c4.48-9.25 1.89-18.55-2.9-25.67" style="fill:#263238"/><path d="M168.85 69.9c-1.68-5.28-7.27-6.68-12.42-6.67-6 0-9.14 3.74-11.15 9-5.32-.73-11.14.29-15.06 4.34-2.77 2.86-3.67 6.48-3.36 10.41.29 3.54 2.14 5.42 4.35 7.88-3.91 1.5-6 6.13-4.69 10.35.75 2.47 10.14 11.57 2.66 12.37 3.43 2.33 9.19.28 8.76-4.39a10.38 10.38 0 0 0 10.17 10.67c8.37.31 15.12-4.35 17-12.46" style="fill:#263238"/><path d="M217.61 95.26a59 59 0 0 1 1.1 7.36 121 121 0 0 1 .52 14.86c-.63 21.14-5 26-10.86 28.43-3.47 1.42-9.18 1.46-16 .28l-.27 12.34s18.39 13.69 3.68 16.33c-7.35 1.33-16.5-1.14-23-5.79-6.68-4.75-9.46-9.14-9.46-9.14l-.78-28.34s-3.61 3.88-10.33-1.41c-5.55-4.37-7.74-12.11-3.82-16.52s11.47-3.84 15.2 2.1c2.66 4.23 5.55.14 5.44-4.9a97 97 0 0 1 .42-11.68c.35-3.88 1.93-10.66 8.2-14.34 3.61-2.12 11.06-4.58 20.22 1.75 6.32-7.65 16.89-3.71 19.74 8.67" style="fill:#ffa8a7"/><path d="M213.57 90.56c-1.67-3.08-3.57-5.56-8.77-5.49-2.6 0-4.53 3-7.45 3-3.39 0-5-2.43-11.84-2.67a13.07 13.07 0 0 0-8.63 3.1c-4.64 4.34-6.2 10.46-6.47 20.29-.21 7.89-2.48 20.77 4 26.83 8.1 7.58 18.85 9.51 25.37 9.51s15.12.4 16.84-18.92-.09-30.21-3.05-35.65m-33.41 12.64c3.42-3.08 9-2.66 11.37-.23a5.34 5.34 0 0 1-1.6 8.56c-3.56 1.8-9.25 2.43-11.53-.21-1.55-1.78-1.4-5.27 1.76-8.12m18.2 28.92c-4.4 4.4-12.71 1.8-13.62-3.42-.47-2.57.35-4.1 2.1-4.34s3.1 1.38 5.9 2.09c3.61.9 4.75 0 6.31 1.3 1.09.85.95 2.75-.69 4.37M215 110.63c-2.17 2.48-7.53 1.84-10.88.14a5.06 5.06 0 0 1-1.49-8.12c2.24-2.27 7.55-2.67 10.79.29 3 2.69 3.1 6.06 1.58 7.69" style="fill:#10b981"/><path d="M213.57 90.56c-1.67-3.08-3.57-5.56-8.77-5.49-2.6 0-4.53 3-7.45 3-3.39 0-5-2.43-11.84-2.67a13.07 13.07 0 0 0-8.63 3.1c-4.64 4.34-6.2 10.46-6.47 20.29-.21 7.89-2.48 20.77 4 26.83 8.1 7.58 18.85 9.51 25.37 9.51s15.12.4 16.84-18.92-.09-30.21-3.05-35.65m-33.41 12.64c3.42-3.08 9-2.66 11.37-.23a5.34 5.34 0 0 1-1.6 8.56c-3.56 1.8-9.25 2.43-11.53-.21-1.55-1.78-1.4-5.27 1.76-8.12m18.2 28.92c-4.4 4.4-12.71 1.8-13.62-3.42-.47-2.57.35-4.1 2.1-4.34s3.1 1.38 5.9 2.09c3.61.9 4.75 0 6.31 1.3 1.09.85.95 2.75-.69 4.37M215 110.63c-2.17 2.48-7.53 1.84-10.88.14a5.06 5.06 0 0 1-1.49-8.12c2.24-2.27 7.55-2.67 10.79.29 3 2.69 3.1 6.06 1.58 7.69" style="fill:#fff;opacity:.8"/><path d="m187.24 126.23 9.71 2.88a5 5 0 0 1-6.19 3.59 5.3 5.3 0 0 1-3.52-6.47" style="fill:#b16668"/><path d="M187.34 129.32a4.26 4.26 0 0 1 6.12 3.38 4.86 4.86 0 0 1-2.7 0 5.16 5.16 0 0 1-3.42-3.38" style="fill:#f28f8f"/><path d="m212.88 103.28-6.16-2.21a3.14 3.14 0 0 1 4.08-2 3.44 3.44 0 0 1 2.08 4.21M185.66 101l-5.9 2.85a3.15 3.15 0 0 1 1.4-4.34 3.44 3.44 0 0 1 4.5 1.49" style="fill:#263238"/><path d="m195.77 104.92 1.38 19.48 9.14-.96-.85-3.39z" style="fill:#10b981"/><g style="opacity:.6000000000000001"><path d="m195.77 104.92 1.38 19.48 9.14-.96-.85-3.39z" style="fill:#fff"/></g><path d="m197.15 124.4 8.29-4.35 1.28 3.64zm-4.79 21.79c-6.84-.54-21.36-7.77-23.82-13.18a14.07 14.07 0 0 0 6.7 10.05c6.55 4.09 17 7.14 17 7.14Z" style="fill:#f28f8f"/><path d="M181.5 109.41c.15 1.61 1.26-.84 3.11-1.14s3.82 1.67 3.6.06-2-2.63-3.82-2.33-3.08 1.5-2.89 3.41m30.8-.93c-.25 1.61-1.21-.9-3.05-1.31s-3.9 1.44-3.59-.15 2.11-2.51 3.94-2.11 2.99 1.68 2.7 3.57" style="fill:#263238"/><path d="M194.05 73.56c-5.79.15-13.84.82-22.38 8.45s-10.29 24.3-9.46 32.65c-3.43-3.49-7.2-4.58-11.37-2.84 0 0-1.37-17.42 8.24-29C171.23 68.11 190.64 69 190.64 69c7.24.14 11.72 1.26 15.07 3.42a20.57 20.57 0 0 1 9.16 8.05c-4.95-5.03-10.14-7.19-20.82-6.91" style="fill:#10b981"/><path d="M188.61 71.65s12 .42 13.26-9.39-.37-10.6-8.13-6.4c-5.2 2.81-8.58 7.91-5.13 15.79" style="fill:#10b981"/><path d="M188.61 71.65s12 .42 13.26-9.39-.37-10.6-8.13-6.4c-5.2 2.81-8.58 7.91-5.13 15.79" style="opacity:.25"/><path d="M188.61 71.65S177.09 75.2 173.36 66s-2.41-10.32 6.17-8.3c5.75 1.4 10.35 5.44 9.08 13.95" style="fill:#10b981"/><path d="M188.61 71.65S177.09 75.2 173.36 66s-2.41-10.32 6.17-8.3c5.75 1.4 10.35 5.44 9.08 13.95" style="opacity:.15"/><path d="M222.73 178.84c-14.89-2.28-54.89 3.26-85.12 22.7 0 0-2-.07 2.1 11.73s2.87 26.93-1.15 37.1c-2.4 6.07-13.06 17.24-14.8 48.4s-2.69 100.75-2.69 100.75 21.14 12.5 47.57 12.33l3.74-44 4.72 54.85s43.65 5.28 72.45-12.89c0 0-6.75-102.86-8.39-130.16s-5-54.3-5-54.3a31.87 31.87 0 0 0 5-28.44c-3.3-10.67-18.43-18.07-18.43-18.07" style="fill:#10b981"/><path d="M222.73 178.84c-14.89-2.28-54.89 3.26-85.12 22.7 0 0-2-.07 2.1 11.73s2.87 26.93-1.15 37.1c-2.4 6.07-13.06 17.24-14.8 48.4s-2.69 100.75-2.69 100.75 21.14 12.5 47.57 12.33l3.74-44 4.72 54.85s43.65 5.28 72.45-12.89c0 0-6.75-102.86-8.39-130.16s-5-54.3-5-54.3a31.87 31.87 0 0 0 5-28.44c-3.3-10.67-18.43-18.07-18.43-18.07" style="fill:#fff;opacity:.2"/><path d="M121.33 383.52c.06-3.64.13-7.74.22-12.18 17.79 10.22 42.23 11.27 49.57 11.34l-1 11.85c-7.5-.09-31.21-1.19-48.79-11.01m54.87 28.76L175 398c11.8.56 45.69.67 72.89-13.88.39 5.91.73 11.09 1 15.25-28.12 14.25-62.62 13.5-72.69 12.91" style="fill:#455a64"/><path d="M168 192.78s-6.44 40.42 19.14 68.08c-.04 0-15.61-31.34-19.14-68.08m32.14 24.97c-14.89-4.94-27.77-16.27-29.75-23.26 1.14 14.31 13.02 22.59 29.75 23.26" style="opacity:.15"/><path d="M157.5 191.09c-2.88 22.17-1.51 33.31-.78 55.92 1 32.53 13.17 149.44 13.17 149.44l2.49-29.28c-3.88-46.43-10.85-153-5.27-179.74-3.86 1.34-5.79 1.98-9.61 3.66" style="opacity:.25"/><path d="M118.45 264.72c-5.09-4.15-5.25-11.25-5.21-22.78 0-11.33 2.1-30.8 3.13-42.78 1.53-17.75 2.95-26.9 8.92-33.18s15.6-8 23-9.82c6.45-1.62 5.25 22.11 1.19 38.33l-7.73 48.93Z" style="fill:#ffa8a7"/><path d="M148.52 200.39c-1.56.9-7.66 6.66-10.76 10-5.33 5.78-12.84 13.31-16.91 26.07 4-5.51 10.61-11.68 15.17-16.26 3.61-3.63 7.41-7.74 11.25-11.93Zm77.57-58.62s-.77-.48-.84-2.23.21-2.94.16-4.89-.55-5.24-2.29-5.75-3 3.48-3.4 6.77-.61 5.23-3.17 8.73-4.86 8.1-3 12.49Z" style="fill:#f28f8f"/><path d="M238.56 136.4c-.66-3.31-.16-7.36-.25-10a27.8 27.8 0 0 0-1.49-7.5c-.81-2.64-1.31-6.06-2.19-6.47s-2.52.46-2.64 2.48c0 0-1.06-1.59-1.93-3.23s-1.39-3.64-2.8-4.11-2.32 1.76-2 3.4.67 2.6.67 2.6-1.47.52-.5 3.51a15 15 0 0 0 1.69 3.41c.27 2.25.26 3.34 1.17 5.26a26.3 26.3 0 0 0 1.39 5.73c-.65 1.48-2 3.17-2.26 5.8s.14 3.29-3.17 6.17c-2.23 1.94-5.94 4.06-8.12 6.82s-3.78 5.73-1.64 9.75 3.82 6.94 5.79 11.15c1.49 3.17 3.82 8.28 9.84 23.25 4.67 11.63 7.15 19 10.79 24.78s8.72 11 18.23 15.81 20.9 4.43 20.14-3.92c-.91-10-2.38-19.08-6.36-24.75s-6.75-7.41-11.58-11.9a222 222 0 0 1-19.19-21.15c-5.29-6.78-9.66-14.58-9.45-16.73.34-3.63 3.41-8.78 4.45-11.41 1.62-3.95 2.25-3.75 1.41-8.75" style="fill:#ffa8a7"/><path d="M213.54 156.89c.29 2 1.55 3.66 2.43 5.49s1.85 3.6 2.72 5.42 1.76 3.64 2.58 5.49 1.67 3.69 2.45 5.55c-1-1.78-1.88-3.58-2.79-5.39s-1.79-3.62-2.7-5.43l-2.66-5.44-1.34-2.72a7.3 7.3 0 0 1-.69-2.97" style="fill:#b16668"/><path d="M232 115a16 16 0 0 0 .52 2.7c.24.88.52 1.75.82 2.58v.31a11 11 0 0 0-.24 1.43 10.5 10.5 0 0 0 0 1.48 9.1 9.1 0 0 0 .61 2.86l.08.23-.1.17a9 9 0 0 0-.5 1 11 11 0 0 0-.38 1.09 11 11 0 0 0-.27 1.15c-.07.39-.09.78-.13 1.19a7.1 7.1 0 0 1-.16-2.44 8 8 0 0 1 .66-2.43v.4a8.2 8.2 0 0 1-.84-3.17 9 9 0 0 1 .05-1.64 8 8 0 0 1 .35-1.63v.3a15.6 15.6 0 0 1-.55-2.77A9.5 9.5 0 0 1 232 115m-6-1.38a8.5 8.5 0 0 0 .87 1.31 10 10 0 0 0 1.03 1.07l.07.07v.15a12 12 0 0 0 1 3.11 8.8 8.8 0 0 0 1.82 2.61l.24.23-.1.32a9.5 9.5 0 0 0-.36 1.76 16 16 0 0 0-.09 1.86c0 .63.06 1.26.15 1.89s.21 1.25.32 1.9a12 12 0 0 1-.77-1.8 10.4 10.4 0 0 1-.45-1.93 10 10 0 0 1-.09-2 7.8 7.8 0 0 1 .32-2l.14.55a7 7 0 0 1-1.19-1.38 8.3 8.3 0 0 1-.84-1.58 11 11 0 0 1-.52-1.7 8.7 8.7 0 0 1-.21-1.77l.1.22a7 7 0 0 1-.92-1.37 5.5 5.5 0 0 1-.52-1.52m4.16 21.51a7.6 7.6 0 0 1-1.19 3.31 11 11 0 0 1-2.33 2.62c.29-.51.63-1 1-1.46s.64-1 .94-1.44a26.5 26.5 0 0 0 1.58-3.03m-11.23 12.3a14.7 14.7 0 0 0-1.3 6.09 11.2 11.2 0 0 0 .5 3 25 25 0 0 0 1.17 3 8.7 8.7 0 0 1-1.94-2.68 8.51 8.51 0 0 1 1.57-9.41m-48.07 24.39a27.2 27.2 0 0 1 .56-7.4c.67-3 1.4-6.18.52-7.79s-2.78-2.09-3.79.4c-.89 2.2-2.37 5.26-2.37 5.26a10.7 10.7 0 0 0 .36 4.91c.86 2.04 3.17 4.31 4.72 4.62" style="fill:#f28f8f"/><path d="M177.18 182.79c-.69-3.12-2.35-5.37-4.33-7.93-2.48-3.21-7.45-13.43-8.24-14.9s-1.36-6.64-1.91-10.06-1.15-5.68-4.59-5.19v-1.84c0-2.66-.8-3.63-2-4.11a4 4 0 0 0-1.74-.23 4.9 4.9 0 0 0-.91-2.67c-1-1.37-2.2-1.51-2.84-1s-.74 2.22-1.3 6.17a60 60 0 0 0-.92 8.92 6.4 6.4 0 0 0-1.11 3.63c0 2.19 2 11.28 3.33 15.12.77 2.26 6.12 13 7.31 16.83 1.52 4.3-2.22 9.55-7.68 15.77-5.64 6.43-11.34 13.18-16.65 18.81a115.3 115.3 0 0 0-11.91 15c-3.8 5.62-6 14.82-5.83 24.36.13 8.22 10.56 8.38 19.8 3.52s14.14-10 17.61-15.79a155 155 0 0 0 11.41-23c6.67-16.06 8.63-21 9.75-24.24 2.14-6.25 3.94-11.96 2.75-17.17" style="fill:#ffa8a7"/><path d="M150.64 168.7c1 2.38 2.16 4.67 3.26 7s2.19 4.66 3.21 7a22.3 22.3 0 0 1 1.3 3.68 8 8 0 0 1-.37 3.91 24.2 24.2 0 0 1-3.89 6.72c-1.58 2.05-3.29 4-5 5.91l-5.09 5.8c-3.41 3.86-6.85 7.69-10.45 11.37 3.46-3.81 6.79-7.73 10.14-11.64l5-5.85c1.69-1.94 3.38-3.87 4.94-5.9a24.2 24.2 0 0 0 3.85-6.56 7.6 7.6 0 0 0 .38-3.68 25 25 0 0 0-1.23-3.61c-1.88-4.74-4.18-9.36-6.05-14.15" style="fill:#b16668"/><path d="M158.08 144.71a1.85 1.85 0 0 0-.43 1.37c0 .5.07 1 .13 1.5l.25 3c.16 2 .25 4 .33 6 0 1 0 2.06.13 3a26 26 0 0 0 .68 2.89l1.68 5.83a43 43 0 0 1-2.46-5.58 20.4 20.4 0 0 1-.88-3 11 11 0 0 1-.12-1.56l-.07-1.52c-.06-2-.12-4.06-.11-6.09 0-1 0-2 .06-3 0-.51 0-1 .11-1.54a1.8 1.8 0 0 1 .7-1.3m-3.69-6.18c-.65.15-.78.82-.79 1.39s0 1.2 0 1.8v3.65c-.06 2.42-.25 4.84-.32 7.22a27.3 27.3 0 0 0 1.12 7c.56 2.33 1.28 4.65 1.9 7a59 59 0 0 1-2.63-6.79 22.1 22.1 0 0 1-1.42-7.22c0-2.46.29-4.86.51-7.26.12-1.21.23-2.4.3-3.61.05-.6.11-1.21.21-1.82a3 3 0 0 1 .29-.9 1 1 0 0 1 .83-.46M148.42 150c.2 1.29.36 2.57.6 3.81s.53 2.47.89 3.69a70 70 0 0 1 2 7.47 36 36 0 0 1-1.67-3.51 33 33 0 0 1-1.32-3.67 18.8 18.8 0 0 1-.7-3.88 16 16 0 0 1 .2-3.91" style="fill:#f28f8f"/><path d="M164.7 224.18c2.75-6.75 5.49-13.5 8.14-20.29 1.3-3.39 2.48-6.85 3.44-10.35a22.66 22.66 0 0 0 .71-10.71l.22.15h-.18v-.18a15 15 0 0 0-2.22-5c-1-1.54-2.25-2.91-3.23-4.52-2-3.16-3.67-6.45-5.37-9.75l-1.26-2.47c-.21-.43-.42-.8-.63-1.26a8 8 0 0 1-.43-1.36c-.43-1.83-.67-3.67-.94-5.5a54 54 0 0 0-.93-5.45 3.9 3.9 0 0 0-1.32-2.21 3.55 3.55 0 0 0-2.52-.41h-.23v-.25a14.4 14.4 0 0 0-.33-4.12 2.54 2.54 0 0 0-1.2-1.5 3.4 3.4 0 0 0-1.94-.36h-.2v-.21a4.7 4.7 0 0 0-.77-2.43 2.72 2.72 0 0 0-2-1.34 1.09 1.09 0 0 0-.95.59 4.4 4.4 0 0 0-.36 1.24c-.15.87-.24 1.77-.36 2.66l-.84 5.45a36 36 0 0 0-.44 5.34v.06a6.48 6.48 0 0 0-1 4.52c.19 1.6.49 3.18.81 4.76a95 95 0 0 0 2.34 9.39 95 95 0 0 1-2.48-9.36c-.34-1.58-.67-3.16-.88-4.76a6.5 6.5 0 0 1 1-4.71v.1a36 36 0 0 1 .41-5.41l.71-5.35c.12-.89.21-1.78.35-2.68a4.9 4.9 0 0 1 .4-1.35 1.42 1.42 0 0 1 1.23-.77 3 3 0 0 1 2.34 1.48 5 5 0 0 1 .85 2.64l-.21-.19a3.8 3.8 0 0 1 2.17.39 3 3 0 0 1 1.39 1.71 7.5 7.5 0 0 1 .35 2.14v2.13l-.25-.21a3.92 3.92 0 0 1 2.83.47 4.3 4.3 0 0 1 1.5 2.45 50 50 0 0 1 1 5.5c.28 1.82.53 3.66 1 5.44a7 7 0 0 0 .4 1.28c.18.39.42.82.62 1.23l1.25 2.48c1.68 3.3 3.37 6.6 5.3 9.74.95 1.57 2.2 2.95 3.21 4.53a15.3 15.3 0 0 1 2.25 5.13l-.22-.15h.18v.18c.8 3.63.19 7.38-.76 10.88s-2.18 7-3.51 10.36c-2.71 6.79-5.61 13.47-8.44 20.19" style="fill:#b16668"/><g style="opacity:.5"><path d="M244.11 94a.8.8 0 0 1-.81-.73l-.07-.78a4.08 4.08 0 0 0-3.81-3.74h-.78a.8.8 0 0 1 0-1.6l.78-.07a4.07 4.07 0 0 0 3.73-3.82l.06-.78a.79.79 0 0 1 .79-.75.8.8 0 0 1 .81.74l.07.77a4.09 4.09 0 0 0 3.8 3.76l.78.05a.8.8 0 0 1 0 1.6l-.78.07A4.07 4.07 0 0 0 245 92.5l-.05.78a.8.8 0 0 1-.79.75ZM242 87.89a5.66 5.66 0 0 1 2.07 2.11 5.64 5.64 0 0 1 2.06-2.11 5.56 5.56 0 0 1-2.1-2.07 5.66 5.66 0 0 1-2.03 2.07" style="fill:#10b981"/></g><path d="M81.53 102.46a.43.43 0 0 1-.43-.39v-.41a2.16 2.16 0 0 0-2-2h-.42a.43.43 0 0 1 0-.86h.42a2.18 2.18 0 0 0 2-2v-.41a.41.41 0 0 1 .42-.4.43.43 0 0 1 .43.39v.41a2.16 2.16 0 0 0 2 2h.42a.44.44 0 0 1 .4.43.43.43 0 0 1-.4.43h-.41a2.18 2.18 0 0 0-2 2v.41a.42.42 0 0 1-.42.4Zm-1.15-3.27a3 3 0 0 1 1.13 1.1 3 3 0 0 1 1.1-1.12 3 3 0 0 1-1.13-1.1 3 3 0 0 1-1.1 1.12" style="fill:#10b981"/><g style="opacity:.5"><path d="M104.42 163.17a.65.65 0 0 1-.65-.59l-.06-.64a3.3 3.3 0 0 0-3.08-3H100a.65.65 0 0 1 0-1.3l.63-.05a3.31 3.31 0 0 0 3-3.09v-.63a.66.66 0 0 1 .65-.61.65.65 0 0 1 .65.59l.06.63a3.3 3.3 0 0 0 3.09 3h.63a.65.65 0 0 1 .61.64.66.66 0 0 1-.6.66l-.63.05a3.31 3.31 0 0 0-3 3.09v.63a.65.65 0 0 1-.64.61Zm-1.74-5a4.64 4.64 0 0 1 1.71 1.67 4.6 4.6 0 0 1 1.67-1.7 4.64 4.64 0 0 1-1.71-1.67 4.54 4.54 0 0 1-1.67 1.73Z" style="fill:#10b981"/></g><g style="opacity:.5"><path d="M104.77 125a2.88 2.88 0 1 1 3.86-1.27 2.89 2.89 0 0 1-3.86 1.27m2.18-4.34a2 2 0 1 0 .88 2.66 2 2 0 0 0-.83-2.69Z" style="fill:#10b981"/></g><g style="opacity:.5"><path d="M250.89 141.1a2.87 2.87 0 1 1 3.86-1.27 2.87 2.87 0 0 1-3.86 1.27m2.19-4.33a2 2 0 1 0 .87 2.66 2 2 0 0 0-.87-2.66" style="fill:#10b981"/></g><g style="opacity:.5"><path d="M259.58 70.43a2.88 2.88 0 1 1 3.87-1.28 2.9 2.9 0 0 1-3.87 1.28m2.19-4.34a2 2 0 1 0 .88 2.66 2 2 0 0 0-.88-2.66" style="fill:#10b981"/></g><path d="M262.82 106.13a.39.39 0 0 1-.39-.38v-1.3a.38.38 0 0 1 .38-.39.39.39 0 0 1 .39.39v1.29a.38.38 0 0 1-.38.39m-.77.78h-1.29a.38.38 0 0 1-.39-.38.39.39 0 0 1 .38-.39h1.3a.39.39 0 1 1 0 .77m.8 2.14a.38.38 0 0 1-.39-.39v-1.29a.39.39 0 0 1 .78 0v1.3a.39.39 0 0 1-.39.38m2.15-2.17h-1.29a.38.38 0 0 1-.39-.39.38.38 0 0 1 .38-.39h1.3a.38.38 0 0 1 .39.38.38.38 0 0 1-.39.4m-137.35 28.56a.37.37 0 0 1-.38-.38v-1.27a.37.37 0 0 1 .37-.38.37.37 0 0 1 .39.37v1.28a.38.38 0 0 1-.38.38m-.75.77h-1.28a.37.37 0 0 1-.38-.38.38.38 0 0 1 .38-.38h1.27a.39.39 0 0 1 .39.38.38.38 0 0 1-.38.38m.78 2.1a.38.38 0 0 1-.39-.37v-1.28a.39.39 0 0 1 .77 0v1.28a.38.38 0 0 1-.38.37m2.09-2.13h-1.27a.38.38 0 0 1-.39-.38.39.39 0 0 1 .38-.39h1.27a.4.4 0 0 1 .39.38.38.38 0 0 1-.38.39m100.61-71.24a.4.4 0 0 1-.41-.4v-1.36a.42.42 0 0 1 .4-.41.41.41 0 0 1 .41.41v1.35a.4.4 0 0 1-.4.41m-.81.82h-1.35a.41.41 0 1 1 0-.81h1.36a.4.4 0 0 1 .41.4.41.41 0 0 1-.42.41m.83 2.24a.4.4 0 0 1-.41-.4v-1.36a.41.41 0 1 1 .81 0v1.35a.41.41 0 0 1-.4.41m2.23-2.27h-1.36a.41.41 0 1 1 0-.81h1.36a.41.41 0 0 1 0 .81m-123.78 12.5a.76.76 0 0 1-.78-.76V74.9a.77.77 0 0 1 .76-.77.78.78 0 0 1 .78.76v2.57a.77.77 0 0 1-.76.77m-1.52 1.55h-2.57a.77.77 0 1 1 0-1.53h2.57a.77.77 0 0 1 .77.76.76.76 0 0 1-.77.77M108.9 84a.77.77 0 0 1-.77-.77v-2.56a.78.78 0 0 1 .77-.78.77.77 0 0 1 .77.76v2.57a.79.79 0 0 1-.77.78m4.21-4.27h-2.56a.77.77 0 0 1 0-1.54h2.57a.77.77 0 1 1 0 1.54Zm255.08-10.02 6-3.48a3.74 3.74 0 0 1 3.77-.37c.7.4 3.31 1.92 4 2.31a3.75 3.75 0 0 1 1.57 3.46v137.66a11.86 11.86 0 0 1-5.35 9.28l-6 3.48a3.76 3.76 0 0 1-3.78.37l-4-2.32a3.75 3.75 0 0 1-1.56-3.45V79a11.83 11.83 0 0 1 5.35-9.29" style="fill:#10b981"/><path d="M383.58 209.29a11.86 11.86 0 0 1-5.35 9.28l-6 3.48a3.76 3.76 0 0 1-3.78.37l-4-2.32a3.75 3.75 0 0 1-1.56-3.45V79a10.1 10.1 0 0 1 .91-4l19.83 11.45Z" style="fill:#fff;opacity:.6000000000000001"/><path d="m368.19 69.71 6-3.48a3.74 3.74 0 0 1 3.77-.37c.7.4 3.31 1.92 4 2.31a3.75 3.75 0 0 1 1.57 3.46v14.82L363.75 75a11.6 11.6 0 0 1 4.44-5.29" style="fill:#fff;opacity:.7000000000000001"/><path d="m378.23 68.54-6 3.48a11.83 11.83 0 0 0-5.35 9.28V219c0 3.41 2.39 4.8 5.35 3.09l6-3.48a11.86 11.86 0 0 0 5.35-9.28V71.63c0-3.41-2.4-4.8-5.35-3.09" style="fill:#10b981"/><path d="m378.23 68.54-6 3.48a11.83 11.83 0 0 0-5.35 9.28V219c0 3.41 2.39 4.8 5.35 3.09l6-3.48a11.86 11.86 0 0 0 5.35-9.28V71.63c0-3.41-2.4-4.8-5.35-3.09" style="fill:#fff;opacity:.4"/><path d="M375.21 42.54a1 1 0 0 1 .22-.11 1.3 1.3 0 0 0 .23-.08h.06a3 3 0 0 1 .37-.08 1.2 1.2 0 0 1 .35-.07 4 4 0 0 1 .85 0 5.6 5.6 0 0 1 1.73.37l21.72 8.14c1.82.68 3.24-.49 3.71-2.8a8 8 0 0 0 .21-1.79v-5.93c0-4.6 1.5-7.92 3.81-9a.8.8 0 0 1 .27-.12l.37-.13a4.1 4.1 0 0 1 1.56-.12v2.05a2 2 0 0 0-1.48.24c-1.11.68-2.43 2.94-2.43 7.07v5.87c0 2.8-.91 5-2.54 6.08l-.31.19a4.47 4.47 0 0 1-3.81.22l-21.6-8.1h-.12a2.75 2.75 0 0 0-2.68.19c-1.48 1-2.41 3.77-2.41 7.15V85l-2.06-1.19v-32c-.08-4.81 1.51-8.18 3.98-9.27" style="fill:#ebebeb"/><path d="M374.8 42.74a5.28 5.28 0 0 1 4.22-.23l21.72 8.14c1.82.69 3.24-.49 3.71-2.8l-21-7.87a4.79 4.79 0 0 0-4.24.23c-.42.24-3.96 2.29-4.41 2.53" style="fill:#f5f5f5"/><path d="M404.14 52.18c.87-.47 3.28-1.83 4.21-2.37a2 2 0 0 0 .28-.19c1.63-1.13 2.54-3.29 2.54-6.1v-5.85a14 14 0 0 1 .62-4.37 4.2 4.2 0 0 0-1.16-.42 2 2 0 0 0-1.48.24c-1.11.68-2.43 2.84-2.43 7.07v5.87c0 2.8-.91 5-2.54 6.08-.02 0-.02.02-.04.04m-30.93-.39V85l4.45-2.53v-33.2a13.7 13.7 0 0 1 .76-4.78h-.12a2.75 2.75 0 0 0-2.68.19c-1.48.99-2.41 3.73-2.41 7.11" style="fill:#e0e0e0"/><path d="m459.49 257.15-83.26-48a1 1 0 0 0-1 .09 3.14 3.14 0 0 0-1.42 2.46 1 1 0 0 0 .43.92l83.26 48a1 1 0 0 0 1-.09 3.17 3.17 0 0 0 1.42-2.46 1 1 0 0 0-.43-.92" style="fill:#455a64"/><path d="m446.49 240.1 12.31-7.1a3.75 3.75 0 0 0 2.2-3.1v-4.62a3.75 3.75 0 0 0-2.21-3.1L385.8 180a11.82 11.82 0 0 0-10.71 0l-12.32 7.11a3.76 3.76 0 0 0-2.21 3.09v4.63a3.71 3.71 0 0 0 2.2 3.08l73 42.15a11.82 11.82 0 0 0 10.73.04" style="fill:#10b981"/><path d="M385.8 180a11.82 11.82 0 0 0-10.71 0l-12.32 7.11a3.76 3.76 0 0 0-2.21 3.09v4.63a3.71 3.71 0 0 0 2.2 3.08l73 42.15a10.2 10.2 0 0 0 3.91 1.2v-30.11Z" style="fill:#fff;opacity:.6000000000000001"/><path d="m446.49 240.1 12.31-7.1a3.75 3.75 0 0 0 2.2-3.1v-4.62a3.75 3.75 0 0 0-2.21-3.1l-19.11-11v30.12a11.5 11.5 0 0 0 6.81-1.2" style="fill:#fff;opacity:.4"/><path d="m458.8 228.37-12.31 7.11a11.82 11.82 0 0 1-10.71 0l-73-42.15c-2.95-1.7-2.95-4.47 0-6.18l12.31-7.15a11.82 11.82 0 0 1 10.71 0l73 42.14c2.96 1.75 2.96 4.52 0 6.23" style="fill:#10b981"/><path d="m458.8 228.37-12.31 7.11a11.82 11.82 0 0 1-10.71 0l-73-42.15c-2.95-1.7-2.95-4.47 0-6.18l12.31-7.15a11.82 11.82 0 0 1 10.71 0l73 42.14c2.96 1.75 2.96 4.52 0 6.23" style="fill:#fff;opacity:.7000000000000001"/><path d="m362.77 174.43 12.32-7.11v3.48l-12.32 7.12a5.2 5.2 0 0 0-1.57 1.35c-1.2-1.6-.69-3.53 1.57-4.84" style="fill:#e0e0e0"/><path d="M399.82 188.16c-6.74-3.89-17.67-3.89-24.41 0-4.69 2.71-6.11 6.58-4.27 10l11.35 6.56c5.93 1.06 12.64.24 17.33-2.47 6.74-3.89 6.74-10.2 0-14.09" style="fill:#10b981;opacity:.2"/><path d="M371.2 178.8c0-2.4 1.59-4.8 4.76-6.63 6.34-3.66 16.63-3.66 23 0 3.17 1.83 4.76 4.23 4.76 6.63V193c0 2.4-1.59 4.8-4.76 6.63-6.34 3.66-16.63 3.66-23 0-3.17-1.83-4.76-4.23-4.76-6.63Z" style="fill:#10b981"/><path d="M371.2 178.8c0-2.4 1.59-4.8 4.76-6.63 6.34-3.66 16.63-3.66 23 0 3.17 1.83 4.76 4.23 4.76 6.63V193c0 2.4-1.59 4.8-4.76 6.63-6.34 3.66-16.63 3.66-23 0-3.17-1.83-4.76-4.23-4.76-6.63Z" style="opacity:.2"/><path d="M377.45 171.42v29a16 16 0 0 1-1.49-.75 12.3 12.3 0 0 1-2.58-2v-23.54a12.3 12.3 0 0 1 2.58-2 16 16 0 0 1 1.49-.71m4.25 30.35a22 22 0 0 1-2.33-.64v-30.45a22 22 0 0 1 2.33-.64Z" style="fill:#fff;opacity:.15"/><path d="M371.48 177.07a11.8 11.8 0 0 1 3.78-3.28c6.26-3.62 16.14-3.86 22.9-.75v-1.27c.26.13.52.26.77.4 3.17 1.83 4.76 4.23 4.76 6.63V193c0 2.4-1.59 4.8-4.76 6.63-6.34 3.66-16.63 3.66-23 0a12.1 12.1 0 0 1-2.9-2.27c3 2.82 10.54 4.38 16.13 3.28s9-4.67 9-7.2v-4.84c-6.76 3.12-16.64 2.87-22.9-.74a11.2 11.2 0 0 1-4.06-3.75v-5.31a5.7 5.7 0 0 1 .28-1.73" style="fill:#10b981;opacity:.2"/><path d="M400.94 194.17v-20.58a7 7 0 0 1 2.75 5.21V193c0 2.4-1.59 4.8-4.76 6.63a20.4 20.4 0 0 1-6.17 2.22c6.1-1.64 8.18-5.85 8.18-7.68" style="opacity:.15"/><path d="M398 198.9c-5.82 2.93-15.27 2.93-21.1 0s-5.82-7.68 0-10.61 15.28-2.92 21.1 0 5.82 7.71 0 10.61" style="fill:#10b981;opacity:.30000000000000004"/><path d="M371.2 176.45c0-2.4 1.59-4.8 4.76-6.63 6.34-3.66 16.63-3.66 23 0 3.17 1.83 4.76 4.23 4.76 6.63v4c0 2.4-1.59 4.8-4.76 6.63-6.34 3.67-16.63 3.67-23 0-3.17-1.83-4.76-4.23-4.76-6.63z" style="fill:#e0e0e0"/><g style="clip-path:url(#a)"><path d="M370.81 175.78h.78v8h-.78zm1.8 3.03h.78v8.06h-.78zm2.71 2.08h.78v8.12h-.78zm3.09 1.29h.78v8.18h-.78zm3.4.87h.78v8.24h-.78zm3.6.43h.78v8.3h-.78zm3.65-.01h.78v8.36h-.78zm3.57-.48h.78v8.43h-.78zm3.34-.96h.78v8.49h-.78zm3.03 7.06.78-1.32v-7.23H399zm2.4-2.02.78-1.31v-7.29h-.78zm1.9-11.95h.78v8.67h-.78z" style="opacity:.2"/><path d="M383.56 189.55c8 0 12.28-2.57 13.56-4.7 1-1.62 1.15-1.41 1.15-4.37 0 0 .91-6.76.73-6.78s1.93-.45 3.49-.78a6.08 6.08 0 0 1 1.2 3.53v4c0 2.4-1.59 4.8-4.76 6.63-4.17 2.41-10.04 3.22-15.37 2.47" style="opacity:.1"/></g><path d="M398.93 183.08c-6.34 3.66-16.63 3.66-23 0s-6.34-9.6 0-13.26 16.63-3.66 23 0 6.34 9.6 0 13.26" style="fill:#ebebeb"/><path d="M395.22 192.21c-6.17 1.94-14.05 1.41-19.26-1.6-3.17-1.83-4.76-4.23-4.76-6.63V190c0 2.4 1.58 4.8 4.76 6.63 5.21 3 13.08 3.53 19.25 1.59Z" style="fill:#10b981"/><path d="M395.22 192.21c-6.17 1.94-14.05 1.41-19.26-1.6-3.17-1.83-4.76-4.23-4.76-6.63V190c0 2.4 1.58 4.8 4.76 6.63 5.21 3 13.08 3.53 19.25 1.59Z" style="fill:#fff;opacity:.6000000000000001"/><path d="M375.09 182.52c-5.45-3.68-5.16-9.22.87-12.7a23.3 23.3 0 0 1 11.17-2.74 18.2 18.2 0 0 1 5.93 2c5.48 3.14 5.48 9.39 0 12.53-4.89 2.82-12.5 3.11-17.97.91" style="fill:#f5f5f5"/><path d="M402.44 180.05s-5.28 5.32-15.48 5-14.29-5.85-14.83-7.58a6.36 6.36 0 0 1 1.38-5.88 6.8 6.8 0 0 0-2.31 4.82v4c0 .61-.31 2.7 3 5.42 0 0-1.93-2.2-1.93-4.31v-1.78s3.61 6 14.71 6 14.91-4.74 15.46-5.69" style="fill:#fff"/><path d="M404.33 204.44c-5.08 2.93-5.08 7.69 0 10.62s13.31 2.93 18.39 0 5.08-7.69 0-10.62-13.31-2.93-18.39 0" style="fill:#10b981;opacity:.2"/><path d="M403.32 195.33c0-1.49 1-3 2.93-4.1a15.68 15.68 0 0 1 14.18 0c2 1.13 2.94 2.61 2.94 4.1v13c0 1.48-1 3-2.94 4.1a15.68 15.68 0 0 1-14.18 0c-1.95-1.13-2.93-2.62-2.93-4.1Z" style="fill:#10b981"/><path d="M419.86 212a16.3 16.3 0 0 1-13 0c-3.6-1.81-3.6-4.74 0-6.55a16.4 16.4 0 0 1 13 0c3.59 1.77 3.59 4.7 0 6.55" style="fill:#10b981;opacity:.30000000000000004"/><path d="M420.43 199.42a15.68 15.68 0 0 1-14.18 0c-3.91-2.26-3.91-5.93 0-8.19a15.68 15.68 0 0 1 14.18 0c3.92 2.26 3.92 5.93 0 8.19" style="fill:#10b981"/><path d="M420.43 199.42a15.68 15.68 0 0 1-14.18 0c-3.91-2.26-3.91-5.93 0-8.19a15.68 15.68 0 0 1 14.18 0c3.92 2.26 3.92 5.93 0 8.19" style="fill:#fff;opacity:.2"/><path d="M419.57 198.92a13.75 13.75 0 0 1-12.46 0c-3.44-2-3.44-5.21 0-7.19a13.75 13.75 0 0 1 12.46 0c3.43 1.98 3.43 5.21 0 7.19" style="opacity:.2"/><path d="M415.87 203.19a.26.26 0 0 1-.23-.29l1.51-14.81a.25.25 0 0 1 .29-.23.27.27 0 0 1 .24.29L416.13 203a.26.26 0 0 1-.26.19" style="fill:#455a64"/><path d="M418 181.78a2 2 0 0 1 1.74 2.58c-.27 1-1.8 2.43-2 3.85 0 .25-.79.17-.76-.08.08-1.43-1.13-3.16-1.2-4.18a2 2 0 0 1 2.22-2.17" style="fill:#f0f0f0"/><path d="M419.84 183.74a2.47 2.47 0 0 0-1.37 2.8 11.4 11.4 0 0 0 1.3-2.18 1.9 1.9 0 0 0 .07-.62" style="fill:#e0e0e0"/><path d="M415.22 209.3a2 2 0 0 1-1.74-2.58c.27-1 1.8-2.43 2-3.85 0-.25.79-.17.76.08-.08 1.43 1.13 3.16 1.2 4.18a2 2 0 0 1-2.22 2.17" style="fill:#fafafa"/><path d="M417.45 207.13c-.07-1-1.28-2.75-1.2-4.18 0-.13-.19-.21-.39-.23.19.06 0 1.75.15 2.21a18 18 0 0 1 .72 2.15 6.7 6.7 0 0 0-.62 1.14 9.7 9.7 0 0 0-.86-1.55 6.6 6.6 0 0 1-.78-1.66 7.2 7.2 0 0 0-1 1.71 2 2 0 0 0 .45 1.93 2 2 0 0 0 .32.28 2.3 2.3 0 0 0 .35.18h.08a2.6 2.6 0 0 0 .5.11 2 2 0 0 0 .5 0 1.7 1.7 0 0 0 .44-.12 2 2 0 0 0 1.34-1.97" style="fill:#e0e0e0"/><path d="M413.42 204.63a.26.26 0 0 1-.26-.25l-1.09-14.84a.28.28 0 0 1 .25-.29c.17 0 .26.1.28.25l1.08 14.84a.28.28 0 0 1-.24.29Z" style="fill:#455a64"/><path d="M411.87 183.16a2 2 0 0 1 2.16 2.23c-.1 1-1.35 2.72-1.31 4.15 0 .25-.75.3-.77.05-.16-1.42-1.65-2.92-1.9-3.91a2 2 0 0 1 1.82-2.52" style="fill:#f0f0f0"/><path d="M411.74 187.92c-.36-.88-.13-1.11-.35-2a1.6 1.6 0 0 0-1.31-1.36 2.1 2.1 0 0 0 0 1.08c.25 1 1.74 2.49 1.9 3.91 0 .1.14.15.29.16a6.4 6.4 0 0 0-.53-1.79" style="fill:#e0e0e0"/><path d="M413.88 210.75a2 2 0 0 1-2.16-2.24c.1-1 1.35-2.71 1.31-4.14 0-.25.75-.31.77-.05.17 1.42 1.65 2.92 1.9 3.9a2 2 0 0 1-1.82 2.53" style="fill:#fafafa"/><path d="M415.76 208.62a7.6 7.6 0 0 0-1.8-1.47 5 5 0 0 1-1.18-1.44 19.6 19.6 0 0 0-1.06 2.8 2 2 0 1 0 4 .11Z" style="fill:#e0e0e0"/><path d="M410.53 206.33a.25.25 0 0 1-.26-.24l-1.08-14.85a.25.25 0 0 1 .24-.28.25.25 0 0 1 .28.24l1.08 14.85a.26.26 0 0 1-.24.28Z" style="fill:#455a64"/><path d="M409 184.86a2 2 0 0 1 2.17 2.24c-.11 1-1.36 2.71-1.32 4.14 0 .25-.75.31-.76.06-.17-1.42-1.66-2.92-1.91-3.91a2 2 0 0 1 1.82-2.53" style="fill:#f0f0f0"/><path d="M409.54 191.45a2.9 2.9 0 0 1-.31-1.42 6.2 6.2 0 0 0-1.31-2.47 2 2 0 0 1 .1-2.38 2.05 2.05 0 0 0-.86 2.21c.25 1 1.74 2.49 1.91 3.91.01.14.26.18.47.15" style="fill:#e0e0e0"/><path d="M411 212.46a2 2 0 0 1-2.17-2.24c.1-1 1.36-2.71 1.32-4.14 0-.25.74-.31.76-.06.17 1.42 1.65 2.92 1.9 3.91a2 2 0 0 1-1.81 2.53" style="fill:#fafafa"/><path d="M411.49 207.57a18.4 18.4 0 0 0-.43 2.8c.05.91.3 1.25-.14 1.57s-1.6-.05-2-.89a2 2 0 0 0 2.08 1.41 2 2 0 0 0 1.81-2.53 13.5 13.5 0 0 0-1.32-2.36" style="fill:#e0e0e0"/><path d="M412 206.53a.28.28 0 0 1-.24-.15l-6.31-13.48a.26.26 0 0 1 .13-.35.25.25 0 0 1 .34.13l6.32 13.48a.27.27 0 0 1-.13.35Z" style="fill:#455a64"/><path d="M403 187a2 2 0 0 1 2.82 1.32c.27 1-.3 3 .25 4.34.11.23-.59.55-.69.32-.67-1.26-2.59-2.13-3.17-3A2 2 0 0 1 403 187" style="fill:#f0f0f0"/><path d="M405.92 192.9c-.09.09-.31 0-.63-.71s-1.78-1.72-2.31-2.25-.83-2.21-.21-2.82a2 2 0 0 0-.61 2.9c.58.84 2.5 1.71 3.17 3 .07.13.4.03.59-.12" style="fill:#e0e0e0"/><path d="M414.69 212.07a2 2 0 0 1-2.82-1.32c-.27-1 .3-3-.25-4.34-.11-.22.58-.55.69-.32.67 1.26 2.59 2.13 3.17 3a2 2 0 0 1-.79 2.98" style="fill:#fafafa"/><path d="M418.8 205.31a.26.26 0 0 1-.24-.29l1.52-14.8a.24.24 0 0 1 .28-.24.27.27 0 0 1 .24.29l-1.52 14.81a.26.26 0 0 1-.28.23" style="fill:#455a64"/><path d="M421 183.9a2 2 0 0 1 1.75 2.58c-.28 1-1.81 2.43-2 3.85 0 .25-.79.17-.76-.08.08-1.43-1.12-3.16-1.2-4.18a2 2 0 0 1 2.21-2.17" style="fill:#f0f0f0"/><path d="M421.41 184a2.24 2.24 0 0 1 .74 2.21 11.5 11.5 0 0 1-1.39 2.48 6.6 6.6 0 0 0-.37 1.8c.16 0 .29 0 .3-.15.21-1.42 1.74-2.87 2-3.85a2 2 0 0 0-1.28-2.49" style="fill:#e0e0e0"/><path d="M418.15 211.42a2 2 0 0 1-1.74-2.58c.28-1 1.8-2.43 2-3.85 0-.25.79-.17.77.08-.09 1.43 1.12 3.16 1.19 4.18a2 2 0 0 1-2.22 2.17" style="fill:#fafafa"/><path d="M419.19 205.07c0-.09-.1-.16-.23-.2.12.19-.27 1.49.1 2.25s.94 2.89-.07 3.57a1.93 1.93 0 0 1-2.4-.29 2 2 0 0 0 1.56 1 2 2 0 0 0 2.23-2.17c-.07-1-1.28-2.73-1.19-4.16" style="fill:#e0e0e0"/><path d="M422.15 195.27c0 1.32-.83 2.64-2.58 3.65a13.73 13.73 0 0 1-12.45 0c-1.75-1-2.61-2.33-2.58-3.65h-1.21v13c0 1.48 1 3 2.95 4.1a15.72 15.72 0 0 0 14.17 0c2-1.13 2.94-2.62 2.94-4.1v-13Z" style="fill:#10b981;opacity:.30000000000000004"/><path d="M406.25 199.42a6.6 6.6 0 0 0 .92.46v13l-.44-.21c-.17-.07-.32-.17-.48-.25s-.3-.18-.45-.29l-.42-.29-.38-.32-.34-.31v-13a7.2 7.2 0 0 0 1.59 1.21m2.11.92a11 11 0 0 0 1.44.39v13l-.61-.14a7 7 0 0 1-.83-.25Z" style="fill:#fff;opacity:.15"/><path d="M423.37 195.32v13c0 1.48-1 3-2.93 4.1a12 12 0 0 1-1.06.52c-.3.13-.6.24-.92.35s-.53.18-.81.26-.68.17-1 .24a17 17 0 0 1-6.82-.07l-.61-.14a7 7 0 0 1-.83-.25 8.4 8.4 0 0 1-1.19-.46l-.44-.21c-.17-.07-.32-.17-.48-.25s-.3-.18-.45-.29l-.42-.29-.38-.32-.34-.31a1.2 1.2 0 0 1-.19-.2l.19.17a8 8 0 0 0 2.51 1.3 12 12 0 0 0 1.19.34 14 14 0 0 0 1.44.28 14.3 14.3 0 0 0 4.63-.06c3.44-.68 5.53-2.89 5.53-4.45v-8.93c.16-.07.32-.16.48-.24a7.4 7.4 0 0 0 1.23-.87 4.31 4.31 0 0 0 1.67-3.22" style="fill:#10b981;opacity:.2"/><path d="M423.37 195.32v13c0 1.48-1 3-2.93 4.1a12 12 0 0 1-1.06.52c-.3.13-.6.24-.92.35s-.53.18-.81.26-.68.17-1 .24c3.77-1 5.05-3.6 5.05-4.75v-10.49a4.31 4.31 0 0 0 1.67-3.23" style="opacity:.15"/><path d="M428.56 222.16c-3.1 1.78-3.1 4.69 0 6.47a12.39 12.39 0 0 0 11.22 0c3.09-1.78 3.09-4.69 0-6.47a12.39 12.39 0 0 0-11.22 0" style="opacity:.2"/><path d="M427.35 224.47v-6.61H441v6.61a3.44 3.44 0 0 1-2 3.1 10.64 10.64 0 0 1-9.67 0 3.48 3.48 0 0 1-1.98-3.1" style="fill:#10b981"/><path d="M441 224.47a3.44 3.44 0 0 1-2 3.1 10.64 10.64 0 0 1-9.67 0 3.48 3.48 0 0 1-2-3.1" style="fill:#10b981"/><path d="M429.33 225.44a10.7 10.7 0 0 0 9.67 0 3.44 3.44 0 0 0 2-3.11v.54a3.44 3.44 0 0 1-2 3.1 10.64 10.64 0 0 1-9.67 0 3.48 3.48 0 0 1-2-3.1v-.54a3.48 3.48 0 0 0 2 3.11" style="opacity:.15"/><path d="M442.84 175.24a2 2 0 0 0-.92-1.6l-15.51-9c-.51-.29-.92-.05-.92.54v3.94l17.35 10Z" style="fill:#37474f"/><path d="m425 217.86.53-48.7 17.35 10 .53 38.68c0 1.36-.9 2.72-2.7 3.75a14.34 14.34 0 0 1-13 0c-1.85-1.01-2.71-2.37-2.71-3.73" style="fill:#455a64"/><path d="M429.4 192.94c-1.49-.86-2.69-.17-2.69 1.55a5.91 5.91 0 0 0 2.69 4.65c1.48.86 2.68.17 2.68-1.55a5.93 5.93 0 0 0-2.68-4.65m5.19 10.65c.59 0 1.07.27 1.07.68s-.48.79-1.07.8a13.3 13.3 0 0 1-6.75-1.52c-1.77-1-2.68-2.35-2.68-3.7v-1.49c0 1.34.9 2.69 2.67 3.71a13.3 13.3 0 0 0 6.76 1.52" style="fill:#10b981"/><path d="m362.77 180.62 73 42.15a11.88 11.88 0 0 0 10.71 0l12.31-7.12v3.48l-12.31 7.12a11.88 11.88 0 0 1-10.71 0l-73-42.15a3.73 3.73 0 0 1-2.2-3.07v-3.44a3.1 3.1 0 0 0 .63 1.68 5.2 5.2 0 0 0 1.57 1.35" style="fill:#f5f5f5"/><path d="m446.49 167.68 12.31-7.12a3.74 3.74 0 0 0 2.21-3.08v-4.63a3.72 3.72 0 0 0-2.21-3.09l-73-42.15a11.82 11.82 0 0 0-10.71 0l-12.32 7.12a3.76 3.76 0 0 0-2.21 3.08v4.63a3.73 3.73 0 0 0 2.2 3.09l73 42.15a11.88 11.88 0 0 0 10.73 0" style="fill:#10b981"/><path d="M385.8 107.61a11.82 11.82 0 0 0-10.71 0l-12.32 7.12a3.76 3.76 0 0 0-2.21 3.08v4.63a3.73 3.73 0 0 0 2.2 3.09l73 42.15a10.2 10.2 0 0 0 3.91 1.2v-30.16Z" style="fill:#fff;opacity:.6000000000000001"/><path d="m446.49 167.68 12.31-7.12a3.74 3.74 0 0 0 2.21-3.08v-4.63a3.72 3.72 0 0 0-2.21-3.09l-19.11-11v30.16a11.67 11.67 0 0 0 6.8-1.24" style="fill:#fff;opacity:.4"/><path d="m458.8 155.94-12.31 7.12a11.88 11.88 0 0 1-10.71 0l-73-42.15c-2.95-1.71-2.95-4.48 0-6.18l12.32-7.12a11.82 11.82 0 0 1 10.71 0l73 42.15c2.95 1.71 2.95 4.47-.01 6.18" style="fill:#10b981"/><path d="m458.8 155.94-12.31 7.12a11.88 11.88 0 0 1-10.71 0l-73-42.15c-2.95-1.71-2.95-4.48 0-6.18l12.32-7.12a11.82 11.82 0 0 1 10.71 0l73 42.15c2.95 1.71 2.95 4.47-.01 6.18" style="fill:#fff;opacity:.7000000000000001"/><path d="M397.87 127.17c-6 3.46-15.72 3.46-21.72 0s-6-9.07 0-12.54 15.72-3.46 21.72 0 5.99 9.08 0 12.54" style="fill:#10b981;opacity:.2"/><path d="M400.91 119.71c0-9.37-3-20.06-6.85-24.81l-.24-.3-.09-.11a8.93 8.93 0 0 0-13.42 0l-.09.11-.24.3c-3.89 4.75-6.85 15.44-6.85 24.82 0 2 1.36 4.1 4.07 5.67 5.43 3.13 14.23 3.13 19.66 0 2.7-1.57 4.05-3.62 4.05-5.68" style="fill:#10b981"/><path d="M388.67 118.16V104.5c-4.15 0-9.44-.42-11.69-4.4a51 51 0 0 0-3.45 13.27c4.19 6.39 15.14 4.79 15.14 4.79" style="fill:#f0f0f0"/><path d="M392 89.9v3.67a2.48 2.48 0 0 1-1.47 2 7.82 7.82 0 0 1-7.08 0 2.46 2.46 0 0 1-1.46-2V89.9Z" style="fill:#37474f"/><path d="M390.55 92a7.82 7.82 0 0 1-7.08 0c-2-1.13-2-3 0-4.09a7.82 7.82 0 0 1 7.08 0c1.96 1.09 1.96 2.91 0 4.09" style="fill:#455a64"/><path d="M388.5 83v7a.73.73 0 0 1-.44.6 2.29 2.29 0 0 1-2.1 0 .73.73 0 0 1-.44-.6v-7Z" style="fill:#37474f"/><path d="M388.5 87.39h-.24a24 24 0 0 0-2.74.34V83h3Z" style="fill:#263238"/><path d="m378 86.74 1-.73a6.17 6.17 0 0 0 2.56-3.81 2.85 2.85 0 0 1 2-1.85 8.8 8.8 0 0 1 5.93.19c3.11 1.24 3.7 3.58 1.51 4.85a6.2 6.2 0 0 1-2.7.73 18.2 18.2 0 0 0-6.52 1.48l-1.27.59a2.51 2.51 0 0 1-2.51-1.45" style="fill:#455a64"/><path d="M399.9 109.69c.67 4.5-.95 12-7.88 14.57a19.87 19.87 0 0 1-17.93-1.58 9.5 9.5 0 0 0 3.09 2.71c5.43 3.13 14.23 3.13 19.66 0 2.71-1.57 4.07-3.62 4.07-5.68a53.4 53.4 0 0 0-1.01-10.02" style="opacity:.2"/><path d="M418.88 141.91a16.48 16.48 0 0 1-14.92 0c-4.12-2.38-4.12-6.24 0-8.61a16.48 16.48 0 0 1 14.92 0c4.12 2.37 4.12 6.23 0 8.61" style="fill:#10b981;opacity:.2"/><path d="M420.19 100.46v35.92c0 1.3-.86 2.59-2.57 3.58a13.71 13.71 0 0 1-12.41 0c-1.71-1-2.57-2.28-2.57-3.58v-35.92Z" style="fill:#10b981"/><path d="M420.19 100.46v35.92c0 1.3-.86 2.59-2.57 3.58a13.71 13.71 0 0 1-12.41 0c-1.71-1-2.57-2.28-2.57-3.58v-35.92Z" style="opacity:.30000000000000004"/><path d="M413.53 141.28a11.5 11.5 0 0 0 4.09-1.32c1.71-1 2.57-2.28 2.57-3.58v-35.92h-6.66Z" style="opacity:.1"/><path d="M417.62 104.05a13.77 13.77 0 0 1-12.41 0c-3.42-2-3.42-5.19 0-7.17a13.71 13.71 0 0 1 12.41 0c3.43 1.98 3.43 5.19 0 7.17" style="fill:#10b981"/><path d="M417.62 104.05a13.77 13.77 0 0 1-12.41 0c-3.42-2-3.42-5.19 0-7.17a13.71 13.71 0 0 1 12.41 0c3.43 1.98 3.43 5.19 0 7.17" style="opacity:.1"/><path d="M417.78 93.5v6.25a3.14 3.14 0 0 1-1.86 2.6 9.91 9.91 0 0 1-9 0 3.14 3.14 0 0 1-1.87-2.6V93.5Z" style="fill:#37474f"/><path d="M413 103.31a8.4 8.4 0 0 0 3-1 3.14 3.14 0 0 0 1.86-2.6V93.5H413Z" style="fill:#263238"/><path d="M415.92 96.09a9.91 9.91 0 0 1-9 0c-2.49-1.43-2.49-3.76 0-5.19a9.91 9.91 0 0 1 9 0c2.48 1.43 2.48 3.76 0 5.19" style="fill:#455a64"/><path d="M416.29 90.11v2.73a2.43 2.43 0 0 1-1.43 2 7.61 7.61 0 0 1-6.89 0 2.42 2.42 0 0 1-1.42-2v-2.73Z" style="fill:#ebebeb"/><path d="M412.59 95.56a6.3 6.3 0 0 0 2.27-.73 2.43 2.43 0 0 0 1.43-2v-2.72h-3.7Z" style="fill:#e0e0e0"/><path d="M414.86 92.1a7.61 7.61 0 0 1-6.89 0c-1.9-1.1-1.9-2.88 0-4a7.61 7.61 0 0 1 6.89 0c1.91 1.12 1.91 2.9 0 4" style="fill:#fafafa"/><path d="M414.7 83.48v6.37a1.64 1.64 0 0 1-1 1.35 5.15 5.15 0 0 1-4.65 0 1.64 1.64 0 0 1-1-1.35v-6.37Z" style="fill:#ebebeb"/><path d="M412.94 91.52a3.8 3.8 0 0 0 .8-.32 1.64 1.64 0 0 0 1-1.35v-6.37h-1.76Z" style="fill:#e0e0e0"/><path d="M413.74 84.82a5.09 5.09 0 0 1-4.65 0c-1.28-.74-1.28-1.94 0-2.68a5.15 5.15 0 0 1 4.65 0c1.26.74 1.26 1.94 0 2.68" style="fill:#fafafa"/><path d="M409.81 87.22a1.55 1.55 0 0 0-.72-1.23c-.39-.23-.71 0-.71.41a1.59 1.59 0 0 0 .71 1.23c.4.23.72.04.72-.41" style="fill:#455a64"/><path d="M417.78 82.78a3.17 3.17 0 0 0-1.86-2.6 10 10 0 0 0-9 0 3.16 3.16 0 0 0-1.87 2.6v10.71a3.15 3.15 0 0 0 1.87 2.6 9.91 9.91 0 0 0 9 0 3.14 3.14 0 0 0 1.86-2.59z" style="fill:#10b981;opacity:.30000000000000004"/><path d="M415.92 85.38a10 10 0 0 1-9 0c-2.49-1.44-2.49-3.76 0-5.2a10 10 0 0 1 9 0c2.48 1.44 2.48 3.76 0 5.2" style="fill:#fff;opacity:.30000000000000004"/><path d="M442.24 154.66c-4.71 2.72-12.34 2.72-17.05 0s-4.7-7.12 0-9.84 12.34-2.71 17.05 0 4.7 7.18 0 9.84" style="fill:#10b981;opacity:.2"/><path d="M444.21 148.38v-41.67a10.5 10.5 0 0 0-21 0v41.67c0 1.55 1 3.1 3.08 4.29a16.44 16.44 0 0 0 14.84 0c2.05-1.19 3.08-2.74 3.08-4.29" style="fill:#10b981"/><path d="M444.21 148.38v-41.67a10.5 10.5 0 0 0-21 0v41.67c0 1.55 1 3.1 3.08 4.29a16.44 16.44 0 0 0 14.84 0c2.05-1.19 3.08-2.74 3.08-4.29" style="fill:#fff;opacity:.8"/><path d="M440.24 118v28.61c0 5.32-9.43 7.83-15.5 4.9a8.2 8.2 0 0 0 1.56 1.16 16.44 16.44 0 0 0 14.84 0c2-1.19 3.07-2.74 3.07-4.29v-41.67a10.49 10.49 0 0 0-10.49-10.49v3c5.57 4 6.52 5.78 6.52 18.78" style="fill:#10b981;opacity:.2"/><path d="M438.72 88.4v10.12a2.46 2.46 0 0 1-1.46 2 7.84 7.84 0 0 1-7.09 0 2.48 2.48 0 0 1-1.46-2V88.4Z" style="fill:#37474f"/><path d="M437.26 90.45a7.84 7.84 0 0 1-7.09 0c-1.95-1.13-1.95-3 0-4.09a7.84 7.84 0 0 1 7.09 0c1.95 1.13 1.95 2.96 0 4.09" style="fill:#455a64"/><path d="M432.19 89.86a3.65 3.65 0 0 0-2.92-.15 3.6 3.6 0 0 0 .9.74 6.7 6.7 0 0 0 2.59.79c.24-.47.08-1.01-.57-1.38" style="fill:#263238"/><path d="M441.14 118a16.44 16.44 0 0 1-14.84 0c-2.05-1.19-3.08-2.74-3.08-4.29v19.93c0 1.55 1 3.1 3.08 4.28a16.38 16.38 0 0 0 14.84 0c2-1.18 3.07-2.73 3.07-4.28v-19.95c0 1.55-1.03 3.1-3.07 4.31" style="fill:#fafafa"/><path d="M441.14 118c-.28.16-.6.28-.9.42v19.92c.3-.14.62-.26.9-.42 2-1.18 3.07-2.73 3.07-4.28v-19.95c0 1.55-1.03 3.1-3.07 4.31" style="fill:#ebebeb"/><path d="m362.77 102.71 73 42.15a11.82 11.82 0 0 0 10.71 0l12.31-7.12v3.49l-12.31 7.11a11.82 11.82 0 0 1-10.71 0l-73-42.15a3.71 3.71 0 0 1-2.2-3.06v-3.44a3.1 3.1 0 0 0 .63 1.67 5.2 5.2 0 0 0 1.57 1.35" style="fill:#f5f5f5"/><path d="m362.77 96.53 12.32-7.12v3.49l-12.32 7.1a5.2 5.2 0 0 0-1.57 1.35c-1.2-1.59-.69-3.51 1.57-4.82" style="fill:#e0e0e0"/><path d="M408.12 31.37a2 2 0 0 1 .35-.17.8.8 0 0 1 .27-.12l.37-.13a4.1 4.1 0 0 1 1.56-.12 5.4 5.4 0 0 1 2.07.66c4.74 2.49 8.61 10.57 8.61 17.8v6.39c0 3.49 1.67 7.4 3.92 9.13L447 81.75c4.49 3.53 7.87 11.38 7.87 18.39v32l4.45-2.57v-32c0-7-3.38-14.86-7.87-18.38L429.72 62.3c-2.25-1.75-3.92-5.67-3.92-9.13v-6.41c0-7.23-3.87-15.29-8.61-17.81a4.49 4.49 0 0 0-4.58-.14Z" style="fill:#f5f5f5"/><path d="M410.67 30.83a5.4 5.4 0 0 1 2.07.66c4.74 2.49 8.61 10.57 8.61 17.8v6.39c0 3.49 1.67 7.4 3.92 9.13L447 81.75c4.49 3.53 7.87 11.38 7.87 18.39v32L452.8 131v-30.86c0-6.31-3.11-13.67-7.09-16.76L424 66.44c-2.72-2.12-4.7-6.63-4.7-10.76v-6.39c0-6.38-3.5-13.86-7.5-16a4.2 4.2 0 0 0-1.16-.42Z" style="fill:#ebebeb"/><path d="m451.84 118.09 6-3.48a3.76 3.76 0 0 1 3.78-.37l4 2.31a3.72 3.72 0 0 1 1.58 3.46v137.66a11.82 11.82 0 0 1-5.36 9.27l-6 3.49a3.76 3.76 0 0 1-3.78.37c-.69-.41-3.31-1.92-4-2.32a3.74 3.74 0 0 1-1.56-3.45V127.36a11.83 11.83 0 0 1 5.34-9.27" style="fill:#10b981"/><path d="M467.23 257.67a11.82 11.82 0 0 1-5.36 9.27l-6 3.49a3.76 3.76 0 0 1-3.78.37c-.69-.41-3.31-1.92-4-2.32a3.74 3.74 0 0 1-1.56-3.45V127.36a10.1 10.1 0 0 1 .91-4l19.83 11.44Z" style="fill:#fff;opacity:.6000000000000001"/><path d="m451.84 118.09 6-3.48a3.76 3.76 0 0 1 3.78-.37l4 2.31a3.72 3.72 0 0 1 1.58 3.46v14.81l-19.8-11.44a11.54 11.54 0 0 1 4.44-5.29" style="fill:#fff;opacity:.7000000000000001"/><path d="m461.87 116.92-6 3.48a11.83 11.83 0 0 0-5.35 9.27v137.67c0 3.41 2.39 4.79 5.35 3.09l6-3.49a11.82 11.82 0 0 0 5.36-9.27V120c0-3.41-2.4-4.79-5.36-3.08" style="fill:#10b981"/><path d="m461.87 116.92-6 3.48a11.83 11.83 0 0 0-5.35 9.27v137.67c0 3.41 2.39 4.79 5.35 3.09l6-3.49a11.82 11.82 0 0 0 5.36-9.27V120c0-3.41-2.4-4.79-5.36-3.08" style="fill:#fff;opacity:.4"/><path d="M379.27 235.51a6.16 6.16 0 0 0 3-.92 13.78 13.78 0 0 0 6.32-11v-4.49a.74.74 0 1 0-1.47 0v4.49a12.35 12.35 0 0 1-5.59 9.68 2.92 2.92 0 0 1-4.86-2.8.73.73 0 0 0-1.46 0c0 2.11.75 3.71 2.11 4.49a3.7 3.7 0 0 0 1.95.55" style="fill:#455a64"/><path d="M373.32 228.68A2.66 2.66 0 1 0 376 226a2.66 2.66 0 0 0-2.68 2.68" style="fill:#37474f"/><path d="M402.58 271.12a.7.7 0 0 0 .37-.1l20.31-11.7a13.78 13.78 0 0 0 6.32-10.95v-4.49a.74.74 0 0 0-1.47 0v4.49a12.37 12.37 0 0 1-5.59 9.69l-19.94 11.48-32-18.49L389.77 240a13.76 13.76 0 0 0 6.33-11v-4.49a.74.74 0 1 0-1.47 0V229a12.38 12.38 0 0 1-5.59 9.68l-20.31 11.7a.72.72 0 0 0-.37.63.74.74 0 0 0 .37.64L402.21 271a.7.7 0 0 0 .37.12" style="fill:#455a64"/><path d="M422.89 259.42a.75.75 0 0 0 .64-.36.73.73 0 0 0-.27-1l-33.49-19.34A.73.73 0 0 0 389 240l33.48 19.33a.74.74 0 0 0 .41.09" style="fill:#455a64"/><path d="M402.58 271.12a.74.74 0 0 0 .37-.1l20.31-11.7a.73.73 0 0 0 .27-1 .75.75 0 0 0-1-.26l-20.31 11.69a.73.73 0 0 0-.27 1 .74.74 0 0 0 .63.37m-5.58-3.23a.8.8 0 0 0 .37-.09l20.31-11.7a.73.73 0 1 0-.73-1.27l-20.31 11.7a.73.73 0 0 0-.27 1 .73.73 0 0 0 .63.36m-5.57-3.22a.7.7 0 0 0 .36-.1l20.31-11.69a.73.73 0 0 0 .27-1 .74.74 0 0 0-1-.26l-20.31 11.68a.73.73 0 0 0 .37 1.37m-5.58-3.22a.9.9 0 0 0 .37-.1l20.31-11.7a.73.73 0 1 0-.73-1.27l-20.32 11.7a.73.73 0 0 0-.27 1 .76.76 0 0 0 .64.37m-5.58-3.23a.7.7 0 0 0 .37-.1L401 246.43a.73.73 0 0 0 .27-1 .73.73 0 0 0-1-.27l-20.31 11.69a.73.73 0 0 0-.27 1 .73.73 0 0 0 .58.37M374.7 255a.8.8 0 0 0 .36-.1l20.31-11.7a.73.73 0 0 0 .27-1 .73.73 0 0 0-1-.27l-20.31 11.7a.73.73 0 0 0-.27 1 .75.75 0 0 0 .64.37m-5.58-3.23a.7.7 0 0 0 .37-.1L389.8 240a.73.73 0 1 0-.73-1.27l-20.32 11.67a.72.72 0 0 0-.26 1 .71.71 0 0 0 .63.37m60.38 12.74a6.1 6.1 0 0 0 3-.92 13.78 13.78 0 0 0 6.33-10.95v-4.49a.74.74 0 1 0-1.47 0v4.49a12.38 12.38 0 0 1-5.59 9.68 3.5 3.5 0 0 1-3.48.42c-.89-.51-1.38-1.66-1.38-3.22a.73.73 0 1 0-1.46 0c0 2.11.75 3.71 2.11 4.49a3.8 3.8 0 0 0 1.94.5" style="fill:#455a64"/><path d="M423.55 257.68a2.66 2.66 0 1 0 2.65-2.68 2.65 2.65 0 0 0-2.65 2.68" style="fill:#37474f"/><path d="M376.53 239.92a9.4 9.4 0 0 1 1.17-1.64 10.1 10.1 0 0 1 2.56-2 18 18 0 0 1 5.67-2s0 0 .08 0c5.21-1 11.25-.29 15.48 2.14l10.11 5.85 1.94 1.12a11.4 11.4 0 0 1 2.74 2.14c.23.27.43.51.62.78a11.54 11.54 0 0 1 2.27 6.91 11.8 11.8 0 0 1-2.1 6.71c-.11.13-.19.27-.29.4s-.27.33-.42.49a7 7 0 0 1-.53.56 13.3 13.3 0 0 1-2.08 1.5 18 18 0 0 1-5.77 2 26 26 0 0 1-4.88.43 19.6 19.6 0 0 1-13.47-6 16 16 0 0 0-2-1.7 9.4 9.4 0 0 0-5.3-2 7 7 0 0 1-5.6-3.29 11.63 11.63 0 0 1-.16-12.33Z" style="fill:#10b981"/><path d="M413.74 255.6c-5.81 3.35-15.31 3.3-21.22-.11l-12.07-7c-5.91-3.41-6-8.9-.19-12.25s15.3-3.3 21.22.11l12.06 7c5.92 3.41 6.01 8.9.2 12.25" style="fill:#10b981"/><path d="M413.74 255.6c-5.81 3.35-15.31 3.3-21.22-.11l-12.07-7c-5.91-3.41-6-8.9-.19-12.25s15.3-3.3 21.22.11l12.06 7c5.92 3.41 6.01 8.9.2 12.25" style="fill:#fff;opacity:.2"/><path d="M390.78 255.94c-.15 2.67 4.07 3 5.76 2.11a2.39 2.39 0 0 0 .9 2.25 3.58 3.58 0 0 0 2.84.61 2.18 2.18 0 0 0 1.6-1.11 3.54 3.54 0 0 0 1.95 1.84 2 2 0 0 0 1.65-.39 2.45 2.45 0 0 0 .87-1.48 1.6 1.6 0 0 0 1.07.76 2.7 2.7 0 0 0 1.32-.1 2.37 2.37 0 0 0 1.62-1.76 2.47 2.47 0 0 0 1.91 1 3.72 3.72 0 0 0 3.69-1.24 3.9 3.9 0 0 0 .3-3.77 2.28 2.28 0 0 0 2.26-2.26 2.49 2.49 0 0 0-3.19-2.43 3.67 3.67 0 0 0-3-2.38 3 3 0 0 0-2.5 1.11 2.5 2.5 0 0 0-.49 1.08 2.49 2.49 0 0 0-2.77-.06 2.91 2.91 0 0 0-1.28 2.51 2.79 2.79 0 0 0-2.74-.77 2.3 2.3 0 0 0-1.62 1 3.4 3.4 0 0 0-.69 2 4.5 4.5 0 0 0-1.12-1.14 3.3 3.3 0 0 0-1.49-.42 3.5 3.5 0 0 0-2.82.83 4.2 4.2 0 0 0-.8 1.34 2.21 2.21 0 0 0-2.18-.69 1.76 1.76 0 0 0-1.05 1.56m-3.78-2.65a2 2 0 0 0 1.41.61 3.1 3.1 0 0 0 1.52-.34 2.2 2.2 0 0 0 .78-.59 1.46 1.46 0 0 0 .25-1.32 2.2 2.2 0 0 0-1.69-1.28 2.46 2.46 0 0 0-2.29.54 1.81 1.81 0 0 0 .02 2.38" style="fill:#10b981"/><path d="M390.78 255.94c-.15 2.67 4.07 3 5.76 2.11a2.39 2.39 0 0 0 .9 2.25 3.58 3.58 0 0 0 2.84.61 2.18 2.18 0 0 0 1.6-1.11 3.54 3.54 0 0 0 1.95 1.84 2 2 0 0 0 1.65-.39 2.45 2.45 0 0 0 .87-1.48 1.6 1.6 0 0 0 1.07.76 2.7 2.7 0 0 0 1.32-.1 2.37 2.37 0 0 0 1.62-1.76 2.47 2.47 0 0 0 1.91 1 3.72 3.72 0 0 0 3.69-1.24 3.9 3.9 0 0 0 .3-3.77 2.28 2.28 0 0 0 2.26-2.26 2.49 2.49 0 0 0-3.19-2.43 3.67 3.67 0 0 0-3-2.38 3 3 0 0 0-2.5 1.11 2.5 2.5 0 0 0-.49 1.08 2.49 2.49 0 0 0-2.77-.06 2.91 2.91 0 0 0-1.28 2.51 2.79 2.79 0 0 0-2.74-.77 2.3 2.3 0 0 0-1.62 1 3.4 3.4 0 0 0-.69 2 4.5 4.5 0 0 0-1.12-1.14 3.3 3.3 0 0 0-1.49-.42 3.5 3.5 0 0 0-2.82.83 4.2 4.2 0 0 0-.8 1.34 2.21 2.21 0 0 0-2.18-.69 1.76 1.76 0 0 0-1.05 1.56m-3.78-2.65a2 2 0 0 0 1.41.61 3.1 3.1 0 0 0 1.52-.34 2.2 2.2 0 0 0 .78-.59 1.46 1.46 0 0 0 .25-1.32 2.2 2.2 0 0 0-1.69-1.28 2.46 2.46 0 0 0-2.29.54 1.81 1.81 0 0 0 .02 2.38" style="fill:#fff;opacity:.8"/><path d="m240.54 406.12 139.56-80.57v77.6l-139.56 80.57z" style="fill:#37474f"/><path d="m240.54 406.12-105.89-61.14v77.6l105.89 61.14z" style="fill:#263238"/><path d="m240.54 440.09 139.56-80.58v-33.96l-139.56 80.57-105.89-61.14v33.97z" style="opacity:.15"/><path d="m111.11 351.77 195.71-113.01 117.67 67.93-195.71 113.02z" style="fill:#10b981"/><path d="m111.11 351.77 195.71-113.01 117.67 67.93-195.71 113.02z" style="fill:#fff;opacity:.9"/><path d="M228.78 426.5v-6.79l-117.67-67.94v6.8z" style="fill:#10b981"/><path d="M228.78 426.5v-6.79l-117.67-67.94v6.8z" style="fill:#fff;opacity:.5"/><path d="M424.49 306.69v6.8L228.78 426.5v-6.79z" style="fill:#10b981"/><path d="M424.49 306.69v6.8L228.78 426.5v-6.79z" style="fill:#fff;opacity:.7000000000000001"/><path d="M323.5 352.67a15.09 15.09 0 0 0-13.41-.09c18.62-13.11 17.33-32.49-3.87-44.73-22.58-13-59.18-13-81.76 0s-22.57 34.17 0 47.2 59.18 13 81.76 0c.86-.49 1.68-1 2.47-1.52-2.49 2.15-2.09 5.09 1.21 7a15 15 0 0 0 13.6 0c3.75-2.17 3.75-5.69 0-7.86" style="fill:#10b981;opacity:.2"/><path d="M292.42 340.25c2.87-2.85 11-11 28.19-23.54h-40.9a52.6 52.6 0 0 0-28.73 0h-40.91c17.17 12.53 25.33 20.69 28.2 23.54a3 3 0 0 0 .23.23l.47.47c5.38 5 15.18 8.4 26.37 8.4s21-3.37 26.37-8.4l.47-.47Z" style="fill:#e0e0e0"/><path d="M292.42 340.25c2.87-2.85 11-11 28.19-23.54h-40.9a52.6 52.6 0 0 0-28.73 0h-40.91c17.17 12.53 25.33 20.69 28.2 23.54a3 3 0 0 0 .23.23l.47.47c5.38 5 15.18 8.4 26.37 8.4s21-3.37 26.37-8.4l.47-.47Z" style="opacity:.15"/><ellipse cx="265.34" cy="292.75" rx="69.75" ry="39.28" style="fill:#fff"/><ellipse cx="265.34" cy="291.49" rx="64.06" ry="34.89" style="fill:#ebebeb"/><path d="M265.34 326.37a110.4 110.4 0 0 0 26.51-3.13c-5.35-5.1-15.22-8.53-26.51-8.53s-21.15 3.43-26.5 8.53a110.3 110.3 0 0 0 26.5 3.13" style="fill:#e0e0e0"/><path d="m312.75 305.81-27.66-15.97 7.91-4.56 27.65 15.97z" style="fill:#455a64"/><path d="m312.75 305.81 7.9-4.56-4.98-2.88-7.9 4.57z" style="opacity:.05"/><path d="m285.09 289.84-11.85 2.29 7.9-4.57 11.86-2.28z" style="fill:#37474f"/><path d="m273.24 296.69 11.85-2.28 27.66 15.96v-4.56l-27.66-15.97-11.85 2.29z" style="fill:#263238"/><path d="m307.77 307.5 4.98 2.87v-4.56l-4.98-2.87z" style="opacity:.1"/><path d="M323.15 356v-68.88h-12.91V356a3.21 3.21 0 0 0 1.89 2.64 10.13 10.13 0 0 0 9.13 0 3.21 3.21 0 0 0 1.89-2.64" style="fill:#37474f"/><path d="M318.64 359.5a8.1 8.1 0 0 0 2.62-.9 3.21 3.21 0 0 0 1.89-2.64v-68.84h-4.51Z" style="opacity:.1"/><path d="M312.13 289.76a10.13 10.13 0 0 0 9.13 0c2.52-1.46 2.52-3.82 0-5.28a10.13 10.13 0 0 0-9.13 0c-2.52 1.46-2.52 3.82 0 5.28" style="fill:#455a64"/><path d="M152.7 343.6c-10.37 6-10.37 15.7 0 21.69s27.19 6 37.56 0 10.38-15.7 0-21.69-27.19-5.99-37.56 0m46.07 30.28c-10.37 6-10.37 15.7 0 21.69s27.2 6 37.57 0 10.37-15.7 0-21.69-27.19-5.99-37.57 0" style="fill:#10b981;opacity:.2"/><path d="M192 339.54a20.4 20.4 0 0 1-3.1 2.17c-7.16 4.13-17.58 5.23-26.48 3.3a32 32 0 0 1-3.6-1 27 27 0 0 1-3-1.14 25 25 0 0 1-2.29-1.17 18.6 18.6 0 0 1-4-3 10.2 10.2 0 0 1-3.35-7.22v19.61a10 10 0 0 0 2.87 6.71c.09.1.18.21.28.31l.63.6c.16.16.33.3.5.45s.36.3.55.45a3 3 0 0 0 .29.21.6.6 0 0 0 .14.12l.13.1.1.06.13.1a24 24 0 0 0 2.8 1.68l1.17.55a26 26 0 0 0 3 1.14 30 30 0 0 0 3.6 1 42.3 42.3 0 0 0 17 .13.3.3 0 0 0 .09 0c.84-.16 1.66-.35 2.47-.57s1.66-.48 2.45-.77c.39-.14.77-.28 1.15-.44h.07c.38-.15.74-.3 1.1-.47s.75-.35 1.1-.54.71-.37 1.06-.57c4.88-2.81 7.32-6.5 7.32-10.19v-19.63c.08 2.8-1.33 5.6-4.18 8.02" style="fill:#10b981"/><path d="M192 339.54a20.4 20.4 0 0 1-3.1 2.17c-7.16 4.13-17.58 5.23-26.48 3.3a32 32 0 0 1-3.6-1 27 27 0 0 1-3-1.14 25 25 0 0 1-2.29-1.17 18.6 18.6 0 0 1-4-3 10.2 10.2 0 0 1-3.35-7.22v19.61a10 10 0 0 0 2.87 6.71c.09.1.18.21.28.31l.63.6c.16.16.33.3.5.45s.36.3.55.45a3 3 0 0 0 .29.21.6.6 0 0 0 .14.12l.13.1.1.06.13.1a24 24 0 0 0 2.8 1.68l1.17.55a26 26 0 0 0 3 1.14 30 30 0 0 0 3.6 1 42.3 42.3 0 0 0 17 .13.3.3 0 0 0 .09 0c.84-.16 1.66-.35 2.47-.57s1.66-.48 2.45-.77c.39-.14.77-.28 1.15-.44h.07c.38-.15.74-.3 1.1-.47s.75-.35 1.1-.54.71-.37 1.06-.57c4.88-2.81 7.32-6.5 7.32-10.19v-19.63c.08 2.8-1.33 5.6-4.18 8.02" style="opacity:.2"/><path d="M153.62 341.71a25 25 0 0 0 2.29 1.17v19.6l-1.17-.55a24 24 0 0 1-2.8-1.68l-.13-.1-.37-.28a17 17 0 0 1-1.78-1.56v-19.57a18.6 18.6 0 0 0 3.96 2.97m8.84 3.29v19.6a37 37 0 0 1-3.6-1V344a32 32 0 0 0 3.6 1" style="fill:#fff;opacity:.15"/><path d="M196.26 331.52v19.61c0 3.69-2.44 7.38-7.32 10.19-.35.2-.69.4-1.06.57s-.72.37-1.1.54-.72.32-1.1.47h-.07c-.38.16-.76.3-1.15.44-.79.29-1.61.55-2.45.77s-1.63.41-2.47.57a.3.3 0 0 1-.09 0 42.3 42.3 0 0 1-17-.13 30 30 0 0 1-3.6-1 26 26 0 0 1-3-1.14l-1.17-.55a24 24 0 0 1-2.8-1.68l-.13-.1-.1-.06-.13-.1c-.15-.11-.3-.22-.43-.33s-.37-.29-.55-.45-.34-.29-.5-.45l-.63-.6c-.1-.1-.19-.21-.28-.31.14.14.3.27.47.41a20 20 0 0 0 6.25 3.25c.94.3 1.93.58 3 .84s2.37.5 3.6.67a35.4 35.4 0 0 0 11.51-.15c8.59-1.69 13.8-7.17 13.8-11.06v-7.45c-7.28 3.35-16.89 4.17-25.31 2.45-1.23-.25-2.43-.55-3.6-.91a31 31 0 0 1-3-1.06 27.5 27.5 0 0 1-3.36-1.64 23 23 0 0 1-2.89-2 14.9 14.9 0 0 1-3.35-3.77v-5.93a10.2 10.2 0 0 0 3.35 7.22 18.6 18.6 0 0 0 4 3 25 25 0 0 0 2.29 1.17 27 27 0 0 0 3 1.14 32 32 0 0 0 3.6 1c8.9 1.93 19.32.83 26.48-3.3a20.4 20.4 0 0 0 3.1-2.17c2.78-2.37 4.19-5.17 4.19-7.97" style="opacity:.1"/><path d="M196.26 331.52v19.61c0 3.69-2.44 7.38-7.32 10.19-.35.2-.69.4-1.06.57s-.72.37-1.1.54-.72.32-1.1.47h-.07c-.38.16-.76.3-1.15.44-.79.29-1.61.54-2.45.77s-1.63.41-2.47.57c9.33-2.55 12.5-8.94 12.5-11.8v-13.34c2.81-2.42 4.22-5.22 4.22-8.02" style="opacity:.15"/><path d="M187.51 360.18c-9 4.51-23.49 4.51-32.45 0s-9-11.8 0-16.3 23.49-4.5 32.45 0 8.96 11.8 0 16.3" style="fill:#10b981;opacity:.30000000000000004"/><path d="M183.23 349.17c-9.47 3-21.59 2.17-29.61-2.46-4.87-2.81-7.31-6.51-7.31-10.2v9.33c0 3.69 2.44 7.38 7.31 10.19 8 4.63 20.13 5.43 29.6 2.45Z" style="fill:#fafafa"/><path d="M188.94 341.72c-9.75 5.63-25.56 5.63-35.32 0s-9.75-14.77 0-20.4 25.57-5.63 35.32 0 9.76 14.76 0 20.4" style="fill:#10b981"/><path d="M189.22 331.12a18.3 18.3 0 0 1-2.68 1.88c-6.19 3.56-15.19 4.51-22.88 2.84a28 28 0 0 1-3.1-.85 23 23 0 0 1-2.56-1c-.68-.31-1.34-.64-2-1a15.8 15.8 0 0 1-3.42-2.58 8.8 8.8 0 0 1-2.89-6.23V330a8.62 8.62 0 0 0 2.47 5.79l.24.27.55.52c.13.14.29.26.43.39l.47.39c.09.06.17.13.26.18a.4.4 0 0 0 .12.1s.08.06.11.09l.08.06.12.08c.45.31.93.62 1.45.92l1 .53 1 .48a24 24 0 0 0 2.56 1 24 24 0 0 0 3.1.85 36.5 36.5 0 0 0 14.68.11h.07c.73-.14 1.44-.3 2.14-.49s1.43-.42 2.12-.66c.34-.13.66-.25 1-.39h.06c.33-.13.64-.26.95-.41s.64-.3 1-.46.62-.33.92-.5c4.21-2.43 6.32-5.61 6.32-8.8v-5.83c-.05 2.39-1.27 4.78-3.69 6.9" style="fill:#10b981"/><path d="M189.22 331.12a18.3 18.3 0 0 1-2.68 1.88c-6.19 3.56-15.19 4.51-22.88 2.84a28 28 0 0 1-3.1-.85 23 23 0 0 1-2.56-1c-.68-.31-1.34-.64-2-1a15.8 15.8 0 0 1-3.42-2.58 8.8 8.8 0 0 1-2.89-6.23V330a8.62 8.62 0 0 0 2.47 5.79l.24.27.55.52c.13.14.29.26.43.39l.47.39c.09.06.17.13.26.18a.4.4 0 0 0 .12.1s.08.06.11.09l.08.06.12.08c.45.31.93.62 1.45.92l1 .53 1 .48a24 24 0 0 0 2.56 1 24 24 0 0 0 3.1.85 36.5 36.5 0 0 0 14.68.11h.07c.73-.14 1.44-.3 2.14-.49s1.43-.42 2.12-.66c.34-.13.66-.25 1-.39h.06c.33-.13.64-.26.95-.41s.64-.3 1-.46.62-.33.92-.5c4.21-2.43 6.32-5.61 6.32-8.8v-5.83c-.05 2.39-1.27 4.78-3.69 6.9" style="opacity:.2"/><path d="M156 333c.63.36 1.29.69 2 1v5.83l-1-.48-1-.53c-.52-.3-1-.61-1.45-.92l-.12-.08-.31-.25a15 15 0 0 1-1.54-1.35v-5.8A15.8 15.8 0 0 0 156 333m7.66 2.84v5.82a31 31 0 0 1-3.1-.85V335a28 28 0 0 0 3.1.84" style="fill:#fff;opacity:.15"/><path d="M192.86 324.19V330c0 3.19-2.11 6.37-6.32 8.8-.3.17-.6.34-.92.5s-.62.32-1 .46-.62.28-.95.41h-.06c-.33.14-.65.26-1 .39-.69.24-1.39.47-2.12.66s-1.41.35-2.14.49h-.07a36.5 36.5 0 0 1-14.68-.11 24 24 0 0 1-3.1-.85 24 24 0 0 1-2.56-1l-1-.48-1-.53c-.52-.3-1-.61-1.45-.92l-.12-.08-.08-.06s-.08-.05-.11-.09l-.38-.28-.47-.39c-.14-.13-.3-.25-.43-.39l-.55-.52-.24-.27a5 5 0 0 0 .41.36A17.4 17.4 0 0 0 158 339c.82.27 1.67.51 2.56.73s2 .43 3.1.58a42.8 42.8 0 0 0 11.33.21c8.24-1.39 10.53-3.62 10.53-5.19v-.51a37 37 0 0 1-21.86 2.6c-1.06-.22-2.1-.48-3.1-.79a24 24 0 0 1-2.56-.92 23 23 0 0 1-2.89-1.41 18 18 0 0 1-2.5-1.71 13 13 0 0 1-2.89-3.26v-5.12a8.8 8.8 0 0 0 2.89 6.23A15.8 15.8 0 0 0 156 333c.63.36 1.29.69 2 1a23 23 0 0 0 2.56 1 28 28 0 0 0 3.1.85c7.69 1.67 16.69.72 22.88-2.84a18.3 18.3 0 0 0 2.68-1.88c2.42-2.13 3.64-4.52 3.64-6.94" style="opacity:.1"/><path d="M192.86 324.19V330c0 3.19-2.11 6.37-6.32 8.8-.3.17-.6.34-.92.5s-.62.32-1 .46-.62.28-.95.41h-.06c-.33.14-.65.26-1 .39-.69.24-1.39.46-2.12.66s-1.41.35-2.14.49c8.06-2.21 10.81-5.57 10.81-8v-2.59c2.48-2.12 3.7-4.51 3.7-6.93" style="opacity:.15"/><path d="M186.54 333c-8.43 4.86-22.08 4.86-30.51 0s-8.42-12.75 0-17.62 22.08-4.86 30.51 0 8.46 12.75 0 17.62" style="fill:#10b981"/><path d="M187.39 326.55A10 10 0 0 1 183 331c-6.48 3.74-17 3.74-23.49 0a10.06 10.06 0 0 1-4.36-4.43c-1.38-3.17.08-6.66 4.36-9.14 6.48-3.75 17-3.75 23.49 0 4.32 2.46 5.77 5.95 4.39 9.12" style="fill:#10b981"/><path d="M187.39 326.55A10 10 0 0 1 183 331c-6.48 3.74-17 3.74-23.49 0a10.06 10.06 0 0 1-4.36-4.43c-1.38-3.17.08-6.66 4.36-9.14 6.48-3.75 17-3.75 23.49 0 4.32 2.46 5.77 5.95 4.39 9.12" style="opacity:.15"/><path d="M187.39 326.55A10 10 0 0 1 183 331c-6.48 3.74-17 3.74-23.49 0a10.06 10.06 0 0 1-4.36-4.43 10 10 0 0 1 4.36-4.43c6.48-3.74 17-3.74 23.49 0a10 10 0 0 1 4.39 4.41" style="fill:#10b981"/><path d="M187.39 326.55A10 10 0 0 1 183 331c-6.48 3.74-17 3.74-23.49 0a10.06 10.06 0 0 1-4.36-4.43.24.24 0 0 1 .06-.09c2.9-3.35 6.54-3.62 10.65-5.46a13.4 13.4 0 0 0 2.68-1.56 4.74 4.74 0 0 0 2-4.3 5.79 5.79 0 0 1 3.48 4.31 7.4 7.4 0 0 1 .18 2.25s8.92.42 13 4.55c.09.08.15.18.19.28" style="fill:#fafafa"/><path d="M177.92 322.19a30 30 0 0 0-3.5-.43c-.6 3.55-4.18 3.55-4.59 5.51s4.44 2.44 5.38 1.36c0 0-3.2.54-3.52-1.14s4.64-1.94 6.23-5.3m14.66 51.56c0-3.69 2.44-7.38 7.32-10.2 9.75-5.63 25.56-5.63 35.32 0 4.87 2.82 7.31 6.51 7.31 10.2v9c0 3.69-2.44 7.38-7.31 10.19-9.76 5.64-25.57 5.64-35.32 0-4.88-2.81-7.32-6.5-7.32-10.19z" style="fill:#e0e0e0"/><path d="m230.67 395 1.2-.46v-12.21h-1.2Zm9.55-6.26v-11.89H239v13.2a15 15 0 0 0 1.22-1.31m-14.69 7.62 1.2-.24V383.8h-1.2Zm-5.53.69c.4 0 .8-.06 1.2-.1v-12.41H220Zm16.52-4.98V380h-1.2v12.8c.42-.21.81-.47 1.2-.73m5.41-6.27a8.6 8.6 0 0 0 .6-3.09v-9a8.4 8.4 0 0 0-.28-2.05h-.32Zm-33.04 10.42 1.2.24v-12.57h-1.2Zm-5.23-1.53c.39.15.8.28 1.2.42v-12.55h-1.2Zm10.77 2.31c.39 0 .79.06 1.19.07v-12.51h-1.19Zm-14.32-4v-12.43h-1.2v11.7c.32.21.64.43 1 .63Zm-4.17-3.1v-12.52h-1.2v11.17a15 15 0 0 0 1.2 1.35m-2.76-17.17h-.51a9 9 0 0 0-.09 1v9a8.8 8.8 0 0 0 .6 3.09Z" style="opacity:.1"/><path d="M211.58 396.69c12.36.07 18.88-6.74 20.86-10 1.51-2.49 1.77-2.17 1.77-6.73 0 0 1.39-10.38 1.12-10.41s3-.7 5.37-1.21a9.4 9.4 0 0 1 1.83 5.43v9c0 3.69-2.44 7.38-7.31 10.19-6.41 3.65-15.44 4.9-23.64 3.73" style="opacity:.1"/><path d="M235.22 384c-9.76 5.63-25.57 5.63-35.32 0s-9.76-14.76 0-20.4 25.56-5.63 35.32 0 9.78 14.72 0 20.4" style="fill:#ebebeb"/><path d="M198.56 383.09c-8.37-5.67-7.94-14.18 1.34-19.54 4.75-2.74 10.95-4.14 17.18-4.21a27.9 27.9 0 0 1 9.11 3.11c8.43 4.82 8.43 14.44 0 19.26-7.52 4.29-19.19 4.76-27.63 1.38" style="fill:#f5f5f5"/><path d="M240.62 379.29s-8.12 8.17-23.81 7.75-22-9-22.8-11.66a9.8 9.8 0 0 1 2.12-9 10.43 10.43 0 0 0-3.55 7.41v9c0 .93-.48 4.15 4.59 8.32 0 0-3-3.37-3-6.62v-5.54s5.55 9.29 22.61 9.29 22.98-7.56 23.84-8.95" style="fill:#fff"/><path d="M338.17 304.55v4.66a2.07 2.07 0 0 0 1 1.78l33.41 19.29a2 2 0 0 0 2 .21L410 310a1.71 1.71 0 0 0 .72-1.57A5.8 5.8 0 0 0 408 304l-34.43-19.88Z" style="fill:#10b981;opacity:.2"/><path d="M339.07 302.44V307a2 2 0 0 0 1 1.73l32.58 18.81a1.91 1.91 0 0 0 1.92.21l34.56-20a1.67 1.67 0 0 0 .71-1.53 5.63 5.63 0 0 0-2.63-4.37l-33.58-19.39Z" style="fill:#10b981"/><g style="opacity:.2"><path d="M339.07 302.44V307a2 2 0 0 0 1 1.73l32.58 18.81a1.91 1.91 0 0 0 1.92.21l34.56-20a1.67 1.67 0 0 0 .71-1.53 5.63 5.63 0 0 0-2.63-4.37l-33.58-19.39Z" style="fill:#fff"/></g><path d="m386.77 290.08-34.56 19.95-6.26-3.62 34.55-19.96z" style="fill:#455a64"/><path d="m372.65 321.83-33.58-19.39V307a2 2 0 0 0 1 1.73l32.58 18.81c1.45.84 2.63.24 2.63-1.33a5.64 5.64 0 0 0-2.63-4.38" style="opacity:.25"/><path d="M371.11 322.84a1.89 1.89 0 0 1 .88 1.46c0 .52-.4.72-.88.44l-32-18.49v-1.9Z" style="opacity:.2"/></svg>