<svg xmlns="http://www.w3.org/2000/svg" viewBox="0 0 500 500"><ellipse cx="250" cy="344.42" rx="239.76" ry="138.42" style="fill:#f5f5f5"/><path d="m330.56 464.79 137.57-79.43c2.39-1.38 2.39-3.62 0-5L220.88 237.61a9.57 9.57 0 0 0-8.66 0L74.66 317.05c-2.39 1.38-2.39 3.62 0 5L321.9 464.79a9.57 9.57 0 0 0 8.66 0" style="fill:#e0e0e0"/><path d="m131.39 353.58-44.51-25.75a4.79 4.79 0 0 0-4.33 0l-50.8 29.33a1.32 1.32 0 0 0 0 2.5l44.51 25.75a4.76 4.76 0 0 0 4.33 0l50.8-29.34a1.32 1.32 0 0 0 0-2.49" style="fill:#e0e0e0"/><path d="m448.09 209.47-4.06 2.34-101.55-58.62 4.06-2.35z" style="fill:#10b981"/><path d="m346.54 150.84 97.49 56.28-.01-89.61-97.48-56.28z" style="fill:#37474f"/><path d="M393.25 85.86v94.3l-4.06-2.35v-94.3z" style="fill:#10b981"/><path d="M393.25 85.86v94.3l-4.06-2.35v-94.3z" style="opacity:.2"/><path d="m395.28 84.68-2.03 1.18v94.3l2.03-1.18z" style="fill:#10b981"/><path d="m395.28 84.68-2.03 1.18v94.3l2.03-1.18z" style="opacity:.30000000000000004"/><path d="m393.25 85.86-4.06-2.35 2.03-1.18 4.06 2.35z" style="fill:#fafafa"/><path d="m338.41 155.53 109.68 63.32V115.17L338.41 51.85Zm4.07-96.65L444 117.51v94.3l-101.52-58.63Z" style="fill:#10b981"/><path d="m338.41 155.53 109.68 63.32V115.17L338.41 51.85Zm4.07-96.65L444 117.51v94.3l-101.52-58.63Z" style="opacity:.2"/><path d="m342.48 153.19 4.06-2.35V61.23l-4.06-2.35z" style="fill:#10b981"/><path d="m342.48 153.19 4.06-2.35V61.23l-4.06-2.35z" style="opacity:.30000000000000004"/><path d="m338.41 51.85 4.07-2.35 109.67 63.32-4.06 2.35z" style="fill:#10b981"/><path d="m452.15 112.82-4.06 2.35v103.68l4.06-2.35z" style="fill:#10b981"/><path d="m452.15 112.82-4.06 2.35v103.68l4.06-2.35z" style="opacity:.30000000000000004"/><path d="m393.25 88.2-4.05-2.34v2.34l4.05 2.34zm0 2.34 2.03-1.17-2.03-1.17z" style="opacity:.1"/><g style="opacity:.6000000000000001"><path d="M431.76 146.28a.55.55 0 0 1 .31.71.55.55 0 0 1-1-.4.55.55 0 0 1 .69-.31m3.52 3.33a1.1 1.1 0 1 1-1.42.62 1.09 1.09 0 0 1 1.42-.62" style="fill:#fff"/></g><g style="opacity:.6000000000000001"><path d="M377.3 99.37a.56.56 0 0 1 .31.72.56.56 0 0 1-.72.31.55.55 0 0 1 .41-1Zm3.52 3.34a1.1 1.1 0 1 1-1.43.62 1.09 1.09 0 0 1 1.43-.62" style="fill:#fff"/></g><path d="M380.82 129.2a1.1 1.1 0 1 1-1.43.62 1.11 1.11 0 0 1 1.43-.62" style="fill:#fff;opacity:.6000000000000001"/><g style="opacity:.30000000000000004"><path d="M366.05 112.46a1.16 1.16 0 1 1-1.16-1.16 1.15 1.15 0 0 1 1.16 1.16m-3.46 3.16a.69.69 0 1 1-.69-.69.69.69 0 0 1 .69.69m-1.96-4.32a.56.56 0 1 1-1.11 0 .56.56 0 0 1 1.11 0" style="fill:#fff"/></g><g style="opacity:.30000000000000004"><path d="M433.83 130.9a1.15 1.15 0 0 1-1.37-.88 1.16 1.16 0 1 1 1.37.88m-3.83-2.7a.69.69 0 1 1-.29-1.35.69.69 0 1 1 .29 1.35m3.81-2.83a.56.56 0 0 1-.66-.43.55.55 0 1 1 .66.43" style="fill:#fff"/></g><g style="opacity:.30000000000000004"><path d="M408.36 107.05a1.16 1.16 0 1 1-1.16-1.16 1.16 1.16 0 0 1 1.16 1.16m-3.46 3.16a.69.69 0 1 1-.69-.69.69.69 0 0 1 .69.69m-1.96-4.32a.55.55 0 0 1-.55.56.56.56 0 1 1 0-1.11.55.55 0 0 1 .55.55" style="fill:#fff"/></g><g style="opacity:.30000000000000004"><path d="M360.39 82a1.16 1.16 0 1 1-1.16-1.16 1.16 1.16 0 0 1 1.16 1.16m-3.46 3.13a.69.69 0 1 1-.69-.69.69.69 0 0 1 .69.69M355 80.81a.55.55 0 0 1-.55.56.56.56 0 1 1 0-1.11.55.55 0 0 1 .55.55" style="fill:#fff"/></g><g style="opacity:.6000000000000001"><path d="M415.59 124.27a1.1 1.1 0 1 1-1.1-1.1 1.1 1.1 0 0 1 1.1 1.1" style="fill:#fff"/></g><path d="M405.3 133.11a.55.55 0 1 1-.72.31.56.56 0 0 1 .72-.31" style="fill:#fff;opacity:.6000000000000001"/><path d="m310.04 249.18-7.68-4.44 7.68-2.22z" style="fill:#10b981"/><path d="m310.04 249.18-7.68-4.44 7.68-2.22z" style="opacity:.6000000000000001"/><path d="M271.55 264.75v7.07l-44.3-25.64v-7.07z" style="fill:#10b981"/><path d="M271.55 264.75v7.07l-44.3-25.64v-7.07z" style="opacity:.6000000000000001"/><path d="m223.41 183.65 44.3 25.64v57.67l-44.3-25.63z" style="fill:#10b981"/><path d="m223.41 183.65 44.3 25.64v57.67l-44.3-25.63z" style="opacity:.55"/><path d="m267.71 209.29 50.02-28.88v57.68l-50.02 28.87z" style="fill:#10b981"/><path d="m267.71 209.29 50.02-28.88v57.68l-50.02 28.87z" style="opacity:.45"/><path d="m317.73 180.41-44.31-25.64-50.01 28.88 44.3 25.64z" style="fill:#10b981"/><path d="m317.73 180.41-44.31-25.64-50.01 28.88 44.3 25.64z" style="opacity:.30000000000000004"/><path d="m271.55 211.51 42.34-24.45v13.31l-42.34 24.45z" style="fill:#10b981"/><path d="m271.55 211.51 42.34-24.45v13.31l-42.34 24.45zm0 17.74 42.34-24.44v31.06l-42.34 24.44z" style="opacity:.2"/><path d="m271.55 271.82 3.85-2.22v-7.07l-3.85 2.22z" style="fill:#10b981"/><path d="m271.55 271.82 3.85-2.22v-7.07l-3.85 2.22z" style="opacity:.55"/><path d="m310.04 249.18 3.84-2.22v-6.66l-3.84 2.22z" style="fill:#10b981"/><path d="m310.04 249.18 3.84-2.22v-6.66l-3.84 2.22z" style="opacity:.55"/><path d="M284.67 206.73c0 .62 1.84.06 4.1-1.25l7.18-4.14c2.26-1.31 4.09-2.87 4.09-3.48v-1.11l-15.37 8.88Z" style="fill:#37474f"/><path d="m313.89 235.87-26.72-15.64-15.62 9.02v31.06z" style="opacity:.2"/><path d="m103.41 330.54-16.07-9.28a6.44 6.44 0 0 1-2.91-5.05V221.8a6.46 6.46 0 0 1 2.91-5.06l131-75.65a6.44 6.44 0 0 1 5.83 0l16.07 9.28a6.45 6.45 0 0 1 2.92 5v94.41a6.45 6.45 0 0 1-2.92 5l-131 75.66a6.44 6.44 0 0 1-5.83.1" style="fill:#455a64"/><path d="M243.2 155.42v94.41a6.44 6.44 0 0 1-2.91 5l-131 75.66c-1.61.93-2.91.17-2.91-1.69v-94.36a6.44 6.44 0 0 1 2.91-5.05l131-75.66c1.6-.93 2.91-.17 2.91 1.69" style="fill:#263238"/><path d="M108.57 330.85a6.6 6.6 0 0 1-5.16-.31l-16.07-9.28a6.47 6.47 0 0 1-2.91-5.05v-94.42a5.93 5.93 0 0 1 .85-2.87l21.9 12.65a5.9 5.9 0 0 0-.85 2.87v94.41c0 1.59.96 2.37 2.24 2" style="fill:#37474f"/><path d="m340.29 423.05-13.51-7.8a3.2 3.2 0 0 0-2.92 0l-13.51 7.8a3.06 3.06 0 0 0-1 1.08c-.05.09-.08.19-.12.28a2.9 2.9 0 0 0-.31 1.16v21.92a3.2 3.2 0 0 0 1.35 2.44l.1.09 13.51 7.8a1 1 0 0 0 .18.06 3 3 0 0 0 .5.2 3 3 0 0 0 .78.08 3 3 0 0 0 1.46-.34l13.51-7.8a3.24 3.24 0 0 0 1.45-2.53v-21.92a3.22 3.22 0 0 0-1.47-2.52" style="fill:#455a64"/><path d="m326.78 457.82 13.51-7.8a3.24 3.24 0 0 0 1.45-2.53v-21.92c0-.93-.66-1.3-1.46-.84l-13.51 7.8a3.22 3.22 0 0 0-1.46 2.52V457c.01.9.69 1.28 1.47.82" style="fill:#37474f"/><path d="m455.26 356.67-13.51-7.8a3.23 3.23 0 0 0-2.92 0l-13.51 7.8a3 3 0 0 0-1 1.09 2 2 0 0 0-.12.27 2.85 2.85 0 0 0-.3 1.16v21.92a3.2 3.2 0 0 0 1.35 2.44 1 1 0 0 0 .11.09l13.5 7.8a1 1 0 0 0 .18.06 2.2 2.2 0 0 0 .5.2 3.4 3.4 0 0 0 .78.09 3 3 0 0 0 1.46-.35l13.51-7.8a3.26 3.26 0 0 0 1.46-2.53v-21.92a3.22 3.22 0 0 0-1.49-2.52" style="fill:#455a64"/><path d="m441.75 391.44 13.51-7.8a3.26 3.26 0 0 0 1.46-2.53v-21.92c0-.93-.66-1.3-1.46-.84l-13.51 7.8a3.22 3.22 0 0 0-1.46 2.53v21.91c0 .93.65 1.31 1.46.85" style="fill:#37474f"/><path d="m237.36 224.91-125.2 72.28a12.92 12.92 0 0 0-5.84 10.11v5.54a12.92 12.92 0 0 0 5.84 10.16l207.32 119.7a12.92 12.92 0 0 0 11.68 0l125.19-72.29a12.87 12.87 0 0 0 5.84-10.11v-5.54a12.91 12.91 0 0 0-5.84-10.11L249 224.91a12.9 12.9 0 0 0-11.64 0" style="fill:#455a64"/><path d="M462.19 354.72v5.54a12.91 12.91 0 0 1-5.83 10.11l-125.2 72.28a12 12 0 0 1-5.84 1.39V425a12 12 0 0 0 5.84-1.39l125.2-72.28c3-1.75 3.2-4.49.59-6.36a13 13 0 0 1 5.24 9.75" style="fill:#263238"/><path d="M112.17 303.93c-3.07-1.76-3.22-4.57-.45-6.43a13 13 0 0 0-5.4 9.8v5.54a12.92 12.92 0 0 0 5.84 10.16l207.32 119.7a12 12 0 0 0 5.84 1.39V425a11.9 11.9 0 0 1-5.83-1.39Z" style="fill:#37474f"/><path d="m237.36 193.35-125.2 72.28a12.92 12.92 0 0 0-5.84 10.11v11.81a12.92 12.92 0 0 0 5.84 10.11l207.32 119.7a12.92 12.92 0 0 0 11.68 0l125.19-72.29a12.87 12.87 0 0 0 5.84-10.1v-11.81a12.87 12.87 0 0 0-5.84-10.11L249 193.35a12.9 12.9 0 0 0-11.64 0" style="fill:#10b981"/><path d="m112.16 272.37 207.32 119.7a12.92 12.92 0 0 0 11.68 0l125.19-72.28c3.23-1.86 3.23-4.88 0-6.74L249 193.35a12.9 12.9 0 0 0-11.67 0l-125.2 72.28c-3.19 1.86-3.19 4.88.03 6.74" style="fill:#fff;opacity:.8"/><path d="m133.7 259.52 27.23 15.81c3.23 1.86 6.48 1.4 11.09 0s19.9-7.48 19.9-7.48 2.48 9.85 13 23.28c4 5.11 11.53 14.7 24.2 21.54l74.3-43.67-60.22-34.77 5.47-3.1c4.07-2.47 3.22-4.58 0-6.44l-33.15-19.08-81.84 47.58c-3.22 1.87-3.2 4.47.02 6.33" style="opacity:.05"/><path d="M462.19 323.16V335a12.91 12.91 0 0 1-5.83 10.11l-125.2 72.28a12 12 0 0 1-5.84 1.39v-25.32a12 12 0 0 0 5.84-1.38l125.2-72.29c3-1.75 3.2-4.48.59-6.36a13 13 0 0 1 5.24 9.73" style="fill:#fff;opacity:.5"/><path d="M112.17 272.38c-3.07-1.77-3.22-4.58-.45-6.44a13 13 0 0 0-5.4 9.8v11.81a12.92 12.92 0 0 0 5.84 10.11l207.32 119.7a12 12 0 0 0 5.84 1.39v-25.29a11.9 11.9 0 0 1-5.83-1.38Z" style="fill:#fff;opacity:.6000000000000001"/><path d="M253 218.76c0-3.5-5.24-9.36-11.7-13.09l-26-15c-3.61-2.09-6.84-3.06-9-2.91-5.59 0-27.94 10.79-38.92 17.12s-34.92 21.6-38.65 28.07c-1.22 2.12 42 33.48 47.25 32.37 11.77-2.46 33-12.57 43.91-19.22 17.81-10.86 27.89-19.9 31.44-23.76 1.67-1.86 1.67-2.84 1.67-3.58" style="fill:#f0f0f0"/><path d="M190.31 212.58c-7.92 4.55-8.45 10.2-4.56 16.89 2.59 4.46 6.59 10.62 13.25 13.54 4 1.76 5.87 3.49 8.76 7.05.06.07.1.14.15.21 3.91-2 7.75-4.05 11.29-6Zm-50.39 35.02 26 15c6.47 3.73 11.7 3.92 11.7.42s-5.23-9.36-11.7-13.09l-26-15c-6.46-3.73-11.7-3.92-11.7-.42s5.24 9.36 11.7 13.09" style="fill:#e0e0e0"/><path d="m273.28 250.06 18.13 10.23-10.66 9.77-14.87-10.23z" style="fill:#b16668"/><path d="M234.48 238.34c9.74-4.09 14-2.83 19.61-.25 6.63 3.06 23.8 14 23.8 14s-5.51 9.14-10.73 9.75c-12.59-7.17-32.68-23.5-32.68-23.5" style="fill:#37474f"/><path d="M210.5 247c-6.28 4.24-11.5 7.79-10.87 13.83S246.75 302 246.75 302L282 272.16s-18.2-19.19-27.94-26.73-13.76-9.57-28.3-5.16c-9.94 3.03-15.26 6.73-15.26 6.73" style="fill:#455a64"/><path d="M221.51 206.35a13.08 13.08 0 0 0-22.6 13.18c.12.2.25.38.38.57l-2.43 7.58-6-8.39a2.88 2.88 0 0 0-2.91-2.53 2.66 2.66 0 0 0-2.55 2.89l3.76-.13a4.8 4.8 0 0 0-1.52 2.46c-.6 2.42 3 6.75 7.68 10.38 0 0 6.85 7.54 8.41 8.52a4.47 4.47 0 0 0 3.31.5l-1.63-16.27a13.07 13.07 0 0 0 16.06-18.76Z" style="fill:#263238"/><path d="M200.08 230.15c-.45.81-2.21.06-3.59-.34s-4.87 0-4.55 3.75 5.26 6.21 7.86 5.62c4.47-1 3.62-3.77 3.62-3.77l8.47 13.88c8.21 3.28 21.72-5.09 12.62-8.22l-2.43-4.14a22.7 22.7 0 0 0 4.47-2.44c2.53-2.05 3-5.26 2.09-8.76-1.46-5.62-3.22-9.82-9.91-18.65-7.33-9.68-19.5-2.72-23.64 5.2s4.99 17.87 4.99 17.87" style="fill:#b16668"/><path d="M200.76 231.31c-.35.21-2.95-1.22-4.27-1.5-1.82-.39-6-11.11-6-11.11a5.39 5.39 0 0 1-1.75-5.65c.67-3.18 4.29-5.68 6.8-7.36 4.53-3 9.59-6.46 11.33-11.86.14-.42.36-.92.8-1a1.1 1.1 0 0 1 .76.3 7 7 0 0 1 2.32 4.31c0 .16.09.35.25.37s.26-.11.34-.23a6.2 6.2 0 0 0 .86-2.14c.21-1.05 2.2 1.3 2.38 1.64A8.88 8.88 0 0 1 215 204c-.8 2.24-2.81 3.82-4.65 5.22a76 76 0 0 1-12.4 6.91c-1.38.57-.93 2 .36 5.78 1.16 3.35 3.6 8.69 2.45 9.4" style="fill:#263238"/><path d="M222.08 236.93s-7.7 2.63-10.54 2.75a8.34 8.34 0 0 1-4.73-1.22 11.3 11.3 0 0 0 3.74 2.5c2.77 1.11 12.49-2.38 12.49-2.38Z" style="fill:#9a4a4d"/><path d="M211.67 221.25a2.35 2.35 0 0 1-3.91 2.36 3.4 3.4 0 0 0 2.4-.43 3.5 3.5 0 0 0 1.51-1.93m10.1-5.72a2.35 2.35 0 0 1-4.05 2.1 3.44 3.44 0 0 0 4.05-2.1m-14.54 2.34-2.06 2.85a1.84 1.84 0 0 1-.4-2.52 1.71 1.71 0 0 1 2.46-.33" style="fill:#263238"/><path d="m216.39 230.06 3.46-.59a1.72 1.72 0 0 1-1.38 2.06 1.83 1.83 0 0 1-2.08-1.47" style="fill:#9a4a4d"/><path d="m219.91 212.19-3.52-.45a1.7 1.7 0 0 1 1.92-1.55 1.86 1.86 0 0 1 1.6 2" style="fill:#263238"/><path d="m213.4 218.43 4.77 7.24 3.13-3.61z" style="fill:#9a4a4d"/><path d="M258 303.84a65 65 0 0 1-9.23-6.61c-2.29-2.09-4.46-4.89-3.51-7.84l-12.94 7.47c2.27 4.8 7.68 7.66 12.29 10.29q3.74 2.13 7.53 4.13l2.86 1.52c14.28 7.3 29.18 13.41 44 19.5 1.81.74 3.77 1.5 5.67 1.05Z" style="opacity:.1"/><path d="M193.92 319.58v44.25l131.4 75.86v-46.23a11.9 11.9 0 0 1-5.84-1.39Z" style="fill:#10b981"/><path d="M193.92 319.58v44.25l131.4 75.86v-46.23a11.9 11.9 0 0 1-5.84-1.39Z" style="opacity:.30000000000000004"/><path d="M456.36 319.79c3-1.75 3.2-4.48.59-6.36a13 13 0 0 1 5.24 9.73v37.51l-136.87 79v-46.21a12.1 12.1 0 0 0 5.84-1.38Z" style="fill:#10b981"/><path d="M456.36 319.79c3-1.75 3.2-4.48.59-6.36a13 13 0 0 1 5.24 9.73v37.51l-136.87 79v-46.21a12.1 12.1 0 0 0 5.84-1.38Z" style="opacity:.45"/><path d="m456.35 313.05-125.56-72.49-41.66 24.05c-16.89-2.46-48.32 18.16-55.61 32.11l-39.6 22.86 125.56 72.49a12.92 12.92 0 0 0 11.68 0l125.19-72.28c3.23-1.86 3.23-4.88 0-6.74" style="fill:#10b981"/><path d="m456.35 313.05-125.56-72.49-41.66 24.05c-16.89-2.46-48.32 18.16-55.61 32.11l-39.6 22.86 125.56 72.49a12.92 12.92 0 0 0 11.68 0l125.19-72.28c3.23-1.86 3.23-4.88 0-6.74" style="opacity:.2"/><path d="m456.35 313.05-125.56-72.49-41.66 24.05c12.73 8.09 25.23 12.74 38.18 20.2 6.25 3.6 13.51 9.48 29.37 20.29 5.2 3.55 11.42 7.67 18 7 5-.49 9.33-3.48 14.12-5a8 8 0 0 1 3.21-.46c4.75.49 4.4 6.2 4.47 9.65a26.55 26.55 0 0 1-4.27 15 8.3 8.3 0 0 0-1.38 3.18c-.6 3.56 1.15 6.27 4.55 7.77s16.75 3 23.24-.78l37.73-21.78c3.21-1.75 3.21-4.78 0-6.63" style="opacity:.1"/><path d="M343.89 355.87q-4-2.44-7.92-5.05c-1-.69-5.61-3.69-6.77-4.72 3.39 1.5 6.73 3 10.07 4.62 3.66 1.74 7.36 3.39 11.13 4.87 5.07 2 13.48 5.74 17.85.4 2.6-3.18 1.9-7.81 2.76-11.83s7.86-17.23-.92-18.14a8.2 8.2 0 0 0-3.21.46c-4.79 1.48-9.14 4.47-14.12 5-6.58.66-13.22-2.92-18-7A121 121 0 0 0 316.52 312c-.52-.3-.48-.08-.91-.51a54 54 0 0 1 8.06 3.87c2 1.15 3.85 2.42 5.82 3.56a115 115 0 0 0 11.38 6 25.45 25.45 0 0 0 12.4 2.45c5-.45 9.57-2.87 14.23-4.72a11.7 11.7 0 0 1 5.72-1.13c3.12.4 5.73 4.31 5.56 7.33a3 3 0 0 1 0 .28c-.59 5.1-1.45 10.16-1.93 15.27a7.9 7.9 0 0 0 .48 4.51 6.32 6.32 0 0 0 4.32 2.77c1.73.39 3.52.45 5.2 1a1.1 1.1 0 0 1 .58.34c.26.37 0 .88-.27 1.24a15.56 15.56 0 0 1-6.07 4.48c-2.32 1.06-4.76 1.81-7.1 2.81a29.5 29.5 0 0 1-5.64 2.12 20 20 0 0 1-3.78.28c-2.19 0-6.46 0-13.06-3.6-2.59-1.47-5.12-2.96-7.62-4.48" style="opacity:.1"/><path d="M215.82 332.23v44.33l2.75 1.5-.01-44.26z" style="opacity:.2"/><path d="m215.82 332.23 36.29-21c8.79-10.66 41.63-36.52 59.76-34.5l40.84-23.58 2.85 1.67-40.63 23.41c-18.17.9-44.36 17.71-59.91 34.53l-36.46 21Z" style="opacity:.1"/><path d="M284.65 322.41c-1.31-.49-3-1.28-4.44-1.88a29.6 29.6 0 0 1-6.58-3.22c1.95 0 2.86.77 5.6.16a4 4 0 0 0 2.42-1.53.9.9 0 0 0 .19-.43c.06-.64-.8-.9-1.44-1-2.62-.31-4.81-1.72-7.31-2.42-3.71-1-8.66-.51-11.46-1.65s-26-18.84-26-18.84a170.4 170.4 0 0 1-17.92-21.56c-6.78-9.81-9.82-13.65-14.7-15.08-5 3.45-4.79 5.82-4.49 10.09s3.78 9.64 6.08 13.42c3.27 5.37 6.28 8.83 11.95 16.19A62.6 62.6 0 0 0 226.77 305c5.48 4.42 27.16 15.45 27.16 15.45s13.77 11.79 23.5 11.17c2.73-.18 4.64-.7 6.67-2.68 1.9-1.86 3.07-5.57.55-6.53" style="fill:#b16668"/><path d="M201.83 253.83c-5 3.32-6.13 9.7-3.61 16.6s16.19 23.86 16.19 23.86 11.33-2.7 14.66-11.32c0 0-11.18-16.12-14.67-20.79-4.05-5.42-9.4-9.83-12.57-8.35" style="fill:#37474f"/><path d="m286.43 257.48-9.3 5.73 2.9 2.16c-3.78 3.89-10.16 10.87-11.7 11.73-2.64 1.47-6.22-.1-9.78 1.39-2.39 1-4.34 2.4-6.89 3-.63.16-1.46.52-1.31 1.15a1 1 0 0 0 .3.47 4 4 0 0 0 2.44 1.15c2.86.29 3.66-.61 5.63-.83a30 30 0 0 1-6.14 4c-1.39.78-2.94 1.76-4.18 2.41-2.38 1.26-.61 3.8 1.64 5.09a12.64 12.64 0 0 0 7.14 1.76c7.3-.43 15.07-7.62 18.5-11.18a27.6 27.6 0 0 1 4.33-3.68c4.73-3.22 14.6-10.16 16.64-13.29 2.69-4.13-4.99-8.48-10.22-11.06" style="fill:#b16668"/><path d="M268.33 277.1a3.33 3.33 0 0 1 3.22 0 13.7 13.7 0 0 1 5 5.28c.73 1.62 0 2.31 0 2.31a7.7 7.7 0 0 0 3.5-2.85 5 5 0 0 0-1-3 13.4 13.4 0 0 0-4.84-4.42 4.5 4.5 0 0 0-2.49-.3 19.5 19.5 0 0 0-3.39 2.98" style="fill:#37474f"/><path d="m274.92 275.68-1.8 1.58a1.27 1.27 0 0 0-.09 1.84l2.08 2.25a1.41 1.41 0 0 0 1.92.12l1.73-1.45a1.29 1.29 0 0 0 .14-1.85l-2.11-2.38a1.33 1.33 0 0 0-1.87-.11" style="fill:#263238"/><path d="m274.92 275.22-1.8 1.58a1.27 1.27 0 0 0-.09 1.84l2.08 2.25a1.41 1.41 0 0 0 1.89.11l1.73-1.46a1.28 1.28 0 0 0 .14-1.84l-2.11-2.38a1.32 1.32 0 0 0-1.84-.1" style="fill:#455a64"/><path d="M276.14 280.83a.87.87 0 0 1-.66-.28l-2.08-2.25a.78.78 0 0 1-.22-.58.8.8 0 0 1 .27-.55l1.8-1.58a.82.82 0 0 1 .54-.2.87.87 0 0 1 .63.27l2.11 2.38a.84.84 0 0 1 .2.58.8.8 0 0 1-.29.55l-1.73 1.46a.9.9 0 0 1-.57.2m-155.1 77.47-7.68-4.44 7.68-2.22z" style="fill:#10b981"/><path d="m121.04 358.3-7.68-4.44 7.68-2.22z" style="opacity:.6000000000000001"/><path d="M82.56 373.87v7.07L38.25 355.3v-7.07z" style="fill:#10b981"/><path d="M82.56 373.87v7.07L38.25 355.3v-7.07z" style="opacity:.6000000000000001"/><path d="m34.41 292.77 44.3 25.64v57.67l-44.3-25.63z" style="fill:#10b981"/><path d="m34.41 292.77 44.3 25.64v57.67l-44.3-25.63z" style="opacity:.55"/><path d="m78.71 318.41 50.02-28.88v57.68l-50.02 28.87z" style="fill:#10b981"/><path d="m78.71 318.41 50.02-28.88v57.68l-50.02 28.87z" style="opacity:.45"/><path d="m128.73 289.53-44.3-25.64-50.02 28.88 44.3 25.64z" style="fill:#10b981"/><path d="m128.73 289.53-44.3-25.64-50.02 28.88 44.3 25.64z" style="opacity:.30000000000000004"/><path d="m82.56 320.63 42.33-24.44v13.31l-42.33 24.44z" style="fill:#10b981"/><path d="m82.56 320.63 42.33-24.44v13.31l-42.33 24.44zm0 17.74 42.33-24.44v31.06l-42.33 24.44z" style="opacity:.2"/><path d="m82.56 380.94 3.84-2.22v-7.07l-3.84 2.22z" style="fill:#10b981"/><path d="m82.56 380.94 3.84-2.22v-7.07l-3.84 2.22z" style="opacity:.55"/><path d="m121.04 358.3 3.85-2.22v-6.66l-3.85 2.22z" style="fill:#10b981"/><path d="m121.04 358.3 3.85-2.22v-6.66l-3.85 2.22z" style="opacity:.55"/><path d="M95.67 315.86c0 .61 1.84.05 4.1-1.26l7.18-4.14c2.26-1.31 4.09-2.86 4.09-3.48v-1.11l-15.37 8.88Z" style="fill:#37474f"/><path d="m124.89 344.99-26.72-15.63-15.61 9.01v31.06z" style="opacity:.2"/><path d="M66.94 293.59a3.7 3.7 0 0 0-.08-.81 12.07 12.07 0 0 0-4.92-7.34H51.65a12 12 0 0 0-4.92 7.34 3.2 3.2 0 0 0-.08.81v.14c.09 1.42 1.07 2.83 3 3.91a15.87 15.87 0 0 0 14.36 0c1.88-1.08 2.86-2.49 3-3.91-.08 0-.07-.1-.07-.14" style="fill:#263238"/><path d="M51.91 285.28c-2.69 1.55-2.69 4.07 0 5.63a10.76 10.76 0 0 0 9.76 0c2.7-1.56 2.7-4.08 0-5.63a10.76 10.76 0 0 0-9.76 0" style="fill:#37474f"/><path d="M58.19 250.94h-2.8V287a.68.68 0 0 0 .4.65 2.22 2.22 0 0 0 2 0 .65.65 0 0 0 .4-.65Z" style="fill:#455a64"/><path d="m76.81 249.73-9.43-24H46.19l-9.42 24c-1.35 3.76.5 7.83 5.55 10.74 8 4.61 20.94 4.61 28.92 0 5.07-2.91 6.91-6.98 5.57-10.74" style="fill:#10b981"/><path d="M49.12 231.45a17 17 0 0 0 15.34 0c4.24-2.45 4.24-6.41 0-8.86a17 17 0 0 0-15.34 0c-4.23 2.41-4.23 6.41 0 8.86" style="fill:#10b981"/><path d="M49.12 231.45a17 17 0 0 0 15.34 0c4.24-2.45 4.24-6.41 0-8.86a17 17 0 0 0-15.34 0c-4.23 2.41-4.23 6.41 0 8.86" style="fill:#fff;opacity:.6000000000000001"/><path d="M56.79 231.74a13.53 13.53 0 0 1-6.64-1.57c-1.55-.89-2.41-2-2.41-3.15s.86-2.25 2.41-3.15a13.53 13.53 0 0 1 6.64-1.57 13.6 13.6 0 0 1 6.65 1.57c1.55.9 2.4 2 2.4 3.15s-.85 2.26-2.4 3.15a13.6 13.6 0 0 1-6.65 1.57" style="fill:#10b981"/><path d="m279.7 193.1 10.3-5.95c.22-.13.22-.33 0-.46l-18.88-10.89a.91.91 0 0 0-.79 0l-10.28 5.95a.25.25 0 0 0 0 .46l18.86 10.89a.91.91 0 0 0 .79 0" style="opacity:.2"/><path d="M289 185.19c.14.1.12.25 0 .35l-9.13 5.27a.7.7 0 0 1-.66 0l-17.45-10.07c-.17-.1-.18-.25 0-.36a.72.72 0 0 0-.29.55v.44a.73.73 0 0 0 .33.58L279.12 192a.79.79 0 0 0 .67 0l9.13-5.27a.76.76 0 0 0 .33-.58v-.44a.72.72 0 0 0-.25-.52" style="fill:#10b981"/><path d="m288.92 185.16-17.45-10.08a.76.76 0 0 0-.66 0l-9.13 5.28c-.18.1-.18.27 0 .38l17.45 10.07a.7.7 0 0 0 .66 0l9.13-5.27a.2.2 0 0 0 0-.38m-2.6-.68c.16.09.16.23 0 .32l-8.07 4.66a.61.61 0 0 1-.57 0l-13.58-7.84a.17.17 0 0 1 0-.33l8.07-4.66a.47.47 0 0 1 .48 0Z" style="fill:#10b981"/><path d="m288.92 185.16-17.45-10.08a.76.76 0 0 0-.66 0l-9.13 5.28c-.18.1-.18.27 0 .38l17.45 10.07a.7.7 0 0 0 .66 0l9.13-5.27a.2.2 0 0 0 0-.38m-2.6-.68c.16.09.16.23 0 .32l-8.07 4.66a.61.61 0 0 1-.57 0l-13.58-7.84a.17.17 0 0 1 0-.33l8.07-4.66a.47.47 0 0 1 .48 0Z" style="fill:#fff;opacity:.8"/><path d="M261.64 180.38a.72.72 0 0 0-.29.55v.44a.73.73 0 0 0 .33.58L279.12 192a.8.8 0 0 0 .34.08v-1.21a.7.7 0 0 1-.33-.08l-17.45-10.07c-.17-.08-.18-.23-.04-.34" style="fill:#10b981"/><path d="M261.64 180.38a.72.72 0 0 0-.29.55v.44a.73.73 0 0 0 .33.58L279.12 192a.8.8 0 0 0 .34.08v-1.21a.7.7 0 0 1-.33-.08l-17.45-10.07c-.17-.08-.18-.23-.04-.34" style="fill:#fff;opacity:.6000000000000001"/><path d="M267.12 178.24a.14.14 0 0 0 0-.26.51.51 0 0 0-.45 0 .14.14 0 0 0 0 .26.51.51 0 0 0 .45 0m16.37 9.81a1.24 1.24 0 0 1-.55-.13.37.37 0 0 1 0-.69 1.25 1.25 0 0 1 1.1 0 .37.37 0 0 1 0 .69 1.2 1.2 0 0 1-.55.13m0-.86a1 1 0 0 0-.5.12.28.28 0 0 0 0 .53 1.1 1.1 0 0 0 1 0 .28.28 0 0 0 0-.53 1 1 0 0 0-.5-.12m-16.59-8.1 1.72-1c.1-.06.1-.15 0-.21a.38.38 0 0 0-.36 0l-1.72 1c-.1.06-.11.15 0 .21a.41.41 0 0 0 .36 0" style="fill:#455a64"/><path d="M272.65 176.58a.47.47 0 0 0-.48 0l-8.07 4.66a.17.17 0 0 0 0 .33l13.58 7.84a.61.61 0 0 0 .57 0l8.07-4.66c.16-.09.16-.23 0-.32Z" style="fill:#10b981"/><path d="M272.65 176.58a.47.47 0 0 0-.48 0l-8.07 4.66a.17.17 0 0 0 0 .33l13.58 7.84a.61.61 0 0 0 .57 0l8.07-4.66c.16-.09.16-.23 0-.32Z" style="fill:#455a64;opacity:.85"/><path d="M268 182.2h-.07v-.05l.14-.66v-.05l.23-.13h.16l1.89 1.09v.05l-.24.13a.17.17 0 0 1-.16 0l-1.44-.83-.09.43h-.09Zm1.67-1.08h.08a.08.08 0 0 1 .07 0l.29.16a.05.05 0 0 1 0 .05l-.27.16h-.16l-.29-.17Zm1 .59a.17.17 0 0 1 .16 0l.29.16-.28.16h-.15l-.29-.16v-.05c0-.05 0 0 0 0Zm1.19-1.65.12.07.14.08.14.08.12.07a1.2 1.2 0 0 1 .26.22.37.37 0 0 1 .12.22.35.35 0 0 1-.07.23 1 1 0 0 1-.3.25 1.7 1.7 0 0 1-.43.17 1.1 1.1 0 0 1-.4 0 1.2 1.2 0 0 1-.39-.06 1.7 1.7 0 0 1-.37-.16l-.26-.14-.24-.15a1.6 1.6 0 0 1-.27-.21.43.43 0 0 1-.12-.23.3.3 0 0 1 .07-.23.8.8 0 0 1 .3-.25 1.5 1.5 0 0 1 .42-.17 1.4 1.4 0 0 1 .4 0 1.6 1.6 0 0 1 .39.07 2.4 2.4 0 0 1 .37.14m-.68 1a1.3 1.3 0 0 0 .43.13.7.7 0 0 0 .41-.1c.13-.08.19-.16.17-.24a.5.5 0 0 0-.22-.25l-.24-.14-.25-.14a1.3 1.3 0 0 0-.43-.13.7.7 0 0 0-.41.1c-.14.08-.19.16-.17.24a.47.47 0 0 0 .22.24l.24.15Zm2.59-2.06.12.07.14.08.14.08.12.07a1.5 1.5 0 0 1 .26.21.43.43 0 0 1 .12.23.36.36 0 0 1-.07.23 1.2 1.2 0 0 1-.3.25 1.7 1.7 0 0 1-.43.17 1.4 1.4 0 0 1-.4 0 1.2 1.2 0 0 1-.39-.07 2.4 2.4 0 0 1-.37-.15l-.26-.14-.24-.15a1.6 1.6 0 0 1-.27-.21.43.43 0 0 1-.12-.23.32.32 0 0 1 .07-.24.8.8 0 0 1 .3-.24 2 2 0 0 1 .42-.18 1.4 1.4 0 0 1 .4 0 1.6 1.6 0 0 1 .39.07 2.4 2.4 0 0 1 .37.15m-.68 1a1.6 1.6 0 0 0 .43.13.7.7 0 0 0 .41-.11c.14-.07.19-.15.17-.23a.5.5 0 0 0-.22-.25l-.24-.14-.25-.14a1.1 1.1 0 0 0-.43-.13.7.7 0 0 0-.41.1c-.14.08-.19.16-.17.23a.5.5 0 0 0 .22.25l.24.15a3 3 0 0 1 .25.08Zm-8.04 1.72-.08-.05h.03l.09.05h-.08Zm.16-.09-.15-.09h.08l.15.09zm.16-.09-.22-.12h.08l.22.13a.09.09 0 0 1-.08-.01m.16-.09-.38-.22h.08l.37.21a.1.1 0 0 1-.07.01m.47-.23-.18.1V181h.08l.19.11Zm-.11-.07-.14-.08v.15Z" style="fill:#fff"/><path d="M266.16 181.08a.34.34 0 0 1-.18 0c-.06 0-.08-.07-.08-.11s0-.07.1-.11h.16-.11c-.05 0-.07 0-.07.08s0 .05.06.07a.2.2 0 0 0 .13 0 .3.3 0 0 0 .12 0l-.09-.05h-.07l.12-.06.13.08a.27.27 0 0 1-.11.1.4.4 0 0 1-.11 0m2.45-1.72.21.12h.05l.21-.12-.21-.12h-.05zm.14-.17h-.18v.09h.13-.07v-.07h.19Zm3.8-2.19a.17.17 0 0 0-.1 0l-.53.3a.06.06 0 0 0 0 .1l.2.11h.15l.53-.31v-.09l-.19-.11a.2.2 0 0 0-.06 0m-.33.54-.2-.11v-.08l.53-.3h.09l.19.11v.07l-.53.31Z" style="fill:#fff"/><path d="m272.23 177.49-.18-.1v-.06l.48-.27.17.1v.05l-.48.28Zm.45-.49a.16.16 0 0 1 .11 0s.05.06 0 .07l-.18-.11Z" style="fill:#fff"/><path d="m270.36 184.16 7-4a.64.64 0 0 1 .54 0l1.78 1c.15.08.15.22 0 .31l-7 4a.57.57 0 0 1-.54 0l-1.78-1c-.15-.09-.15-.23 0-.31" style="fill:#10b981"/><path d="M273.68 183.85a.44.44 0 0 1 0 .64 1.71 1.71 0 0 1-1.59.28c-.57-.18-.78-.59-.47-.92l.1-.09c-.06.23.13.47.51.59a1.42 1.42 0 0 0 1.33-.23.4.4 0 0 0 .12-.27" style="fill:#fff"/><path d="m273.77 182.72 1.8-1a.33.33 0 0 1 .29 0c.08 0 .08.12 0 .17l-1.8 1a.33.33 0 0 1-.29 0c-.09-.05-.08-.12 0-.17m.55.28 3.65-2.11a.3.3 0 0 1 .29 0 .08.08 0 0 1 0 .16l-3.65 2.11a.33.33 0 0 1-.29 0c-.08 0-.08-.07 0-.16m.56.36 3.65-2.11a.3.3 0 0 1 .29 0c.08 0 .07.12 0 .16l-3.65 2.11a.33.33 0 0 1-.29 0c-.09-.04-.08-.11 0-.16" style="fill:#fafafa"/><path d="M134.43 170.28c-.37-.22-3.3-1.87-4.05-2.34a1.43 1.43 0 0 1-.58-.67L124.93 156l2.44-1.41 6.49 15a1.46 1.46 0 0 0 .57.69" style="fill:#10b981"/><g style="opacity:.2"><path d="M134.43 170.28c-.37-.22-3.3-1.87-4.05-2.34a1.43 1.43 0 0 1-.58-.67L124.93 156l2.44-1.41 6.49 15a1.46 1.46 0 0 0 .57.69" style="fill:#fff"/></g><path d="m143.62 145.24-7 24.19a1.48 1.48 0 0 1-2.21.85 1.46 1.46 0 0 1-.57-.67l-6.49-15Z" style="fill:#10b981"/><g style="opacity:.7000000000000001"><path d="m143.62 145.24-7 24.19a1.48 1.48 0 0 1-2.21.85 1.46 1.46 0 0 1-.57-.67l-6.49-15Z" style="fill:#fff"/></g><path d="M223.08 27.27A1.3 1.3 0 0 0 223 27a.07.07 0 0 0 0-.06 1 1 0 0 0-.08-.28 1.4 1.4 0 0 0-.18-.39.5.5 0 0 0-.1-.16 1 1 0 0 0-.09-.12 1 1 0 0 0-.2-.2 1.2 1.2 0 0 0-.27-.15c-.65-.34-3.21-1.81-3.77-2.14a2.13 2.13 0 0 0-2.24.18L88.69 97.13a4 4 0 0 0-.65.45l-.1.09a6 6 0 0 0-.51.5 7.3 7.3 0 0 0-1 1.4 6.2 6.2 0 0 0-.81 2.85v67.4a3.8 3.8 0 0 0 .35 1.63 2.4 2.4 0 0 0 .42.63 1.9 1.9 0 0 0 .52.42l3.94 2.23.15.09a1 1 0 0 0 .27.09 1.7 1.7 0 0 0 .39.05 2 2 0 0 0 1-.29L220 101.15a6.82 6.82 0 0 0 3.09-5.34V27.65c.01-.13 0-.26-.01-.38m-133.32 76v.19c0 .07-.01-.13.01-.19Zm-.17.71a6 6 0 0 0 0 .7 6 6 0 0 1 .01-.68Zm1.09 70.69.09.06Zm1.94-75.32L220 25.87Z" style="fill:#10b981"/><g style="opacity:.7000000000000001"><path d="M223.1 27.65v68.16a6.82 6.82 0 0 1-3.09 5.34L92.63 174.68a2 2 0 0 1-1 .29 1.7 1.7 0 0 1-.39-.05 1 1 0 0 1-.27-.09l-.16-.09-.18-.12a1.2 1.2 0 0 1-.17-.15 2.4 2.4 0 0 1-.57-.81 3.9 3.9 0 0 1-.32-1.56v-67.4a6.83 6.83 0 0 1 3.08-5.35L220 25.87a2.25 2.25 0 0 1 2.07-.26 1.2 1.2 0 0 1 .27.15 1 1 0 0 1 .2.2 1 1 0 0 1 .09.12.5.5 0 0 1 .1.16 1.4 1.4 0 0 1 .18.39 1 1 0 0 1 .08.28.07.07 0 0 1 0 .06 1.3 1.3 0 0 1 .05.28c.05.14.06.27.06.4" style="fill:#fff"/></g><g style="opacity:.2"><path d="M85.61 102.46v67.4a3.8 3.8 0 0 0 .35 1.63 2.4 2.4 0 0 0 .42.63 1.9 1.9 0 0 0 .52.42l3.94 2.23a2 2 0 0 1-.4-.3 2.4 2.4 0 0 1-.57-.81 4.7 4.7 0 0 1-.32-1.56v-67.4a6.2 6.2 0 0 1 .79-2.83l-3.92-2.26a6.2 6.2 0 0 0-.81 2.85" style="fill:#fff"/></g><g style="opacity:.8"><path d="M218.31 23.47a2.13 2.13 0 0 0-2.24.18L88.69 97.13a4 4 0 0 0-.65.45l-.1.09a6 6 0 0 0-.51.5 7.3 7.3 0 0 0-1 1.4l3.92 2.26a7.4 7.4 0 0 1 1-1.41l.05-.06a6 6 0 0 1 .51-.49l.1-.1a4.5 4.5 0 0 1 .65-.45L220 25.87a2.25 2.25 0 0 1 2.07-.26c-.64-.34-3.2-1.81-3.76-2.14" style="fill:#fff"/></g><g style="opacity:.5"><path d="m96.87 158.18 10-5.79c1.19-.69 2.16-.48 2.16.46a4.21 4.21 0 0 1-2.16 3l-10 5.78c-1.19.69-2.16.49-2.16-.46a4.19 4.19 0 0 1 2.16-2.99M115 147.7l10-5.78c1.2-.69 2.17-.49 2.17.45a4.18 4.18 0 0 1-2.17 3l-10 5.78c-1.2.69-2.17.49-2.17-.46a4.18 4.18 0 0 1 2.17-2.99m18.16-10.48 10-5.78c1.19-.69 2.16-.49 2.16.46a4.19 4.19 0 0 1-2.16 2.95l-10 5.78c-1.19.69-2.16.49-2.16-.45a4.19 4.19 0 0 1 2.16-2.96m18.15-10.48 10-5.78c1.2-.69 2.17-.48 2.17.46a4.2 4.2 0 0 1-2.17 3l-10 5.78c-1.2.69-2.16.48-2.16-.46a4.18 4.18 0 0 1 2.16-3m18.15-10.47 10-5.79c1.19-.69 2.16-.48 2.16.46a4.21 4.21 0 0 1-2.16 3l-10 5.78c-1.2.69-2.17.49-2.17-.46a4.18 4.18 0 0 1 2.17-2.99m18.14-10.48 10-5.78c1.2-.69 2.17-.49 2.17.45a4.18 4.18 0 0 1-2.17 3l-10 5.78c-1.19.69-2.16.49-2.16-.46a4.19 4.19 0 0 1 2.16-2.99m18.15-10.48 10-5.78c1.19-.69 2.16-.49 2.16.46a4.19 4.19 0 0 1-2.16 3l-10 5.78c-1.2.69-2.17.49-2.17-.45a4.18 4.18 0 0 1 2.17-3.01" style="fill:#455a64"/></g><g style="opacity:.30000000000000004"><path d="M110.89 150.37a.35.35 0 0 1-.35-.35v-1.42a.35.35 0 1 1 .7 0v1.4a.35.35 0 0 1-.35.37m0-4.28a.35.35 0 0 1-.35-.36v-2.87a.35.35 0 0 1 .7 0v2.87a.35.35 0 0 1-.35.36m0-5.74a.35.35 0 0 1-.35-.36v-2.86a.35.35 0 1 1 .7 0V140a.35.35 0 0 1-.35.35m0-5.74a.35.35 0 0 1-.35-.35v-2.87a.35.35 0 1 1 .7 0v2.87a.35.35 0 0 1-.35.35m0-5.73a.35.35 0 0 1-.35-.36v-2.87a.35.35 0 1 1 .7 0v2.87a.35.35 0 0 1-.35.36m0-5.74a.35.35 0 0 1-.35-.36v-2.86a.35.35 0 1 1 .7 0v2.86a.35.35 0 0 1-.35.36m0-5.74a.35.35 0 0 1-.35-.35v-2.87a.35.35 0 1 1 .7 0v2.87a.35.35 0 0 1-.35.35m0-5.73a.35.35 0 0 1-.35-.36v-2.87a.35.35 0 0 1 .7 0v2.87a.35.35 0 0 1-.35.36m0-5.74a.35.35 0 0 1-.35-.36v-2.86a.35.35 0 1 1 .7 0v2.86a.35.35 0 0 1-.35.36m0-5.74a.35.35 0 0 1-.35-.35v-1.42a.35.35 0 1 1 .7 0v1.42a.35.35 0 0 1-.35.35M129 139.94a.36.36 0 0 1-.36-.35v-1.42a.36.36 0 0 1 .71 0v1.42a.35.35 0 0 1-.35.35m0-4.28a.36.36 0 0 1-.36-.36v-2.87a.36.36 0 0 1 .71 0v2.87a.36.36 0 0 1-.35.36m0-5.74a.36.36 0 0 1-.36-.35v-2.87a.36.36 0 1 1 .71 0v2.87a.35.35 0 0 1-.35.35m0-5.74a.35.35 0 0 1-.36-.35V121a.36.36 0 0 1 .71 0v2.87a.35.35 0 0 1-.35.31m0-5.73a.36.36 0 0 1-.36-.36v-2.86a.36.36 0 1 1 .71 0v2.86a.36.36 0 0 1-.35.36m0-5.74a.36.36 0 0 1-.36-.35v-2.87a.36.36 0 1 1 .71 0v2.87a.35.35 0 0 1-.35.35m0-5.74a.35.35 0 0 1-.36-.35v-2.87a.36.36 0 0 1 .71 0v2.87a.35.35 0 0 1-.35.38Zm0-5.73a.36.36 0 0 1-.36-.36V98a.36.36 0 1 1 .71 0v2.86a.36.36 0 0 1-.35.38m0-5.74a.36.36 0 0 1-.36-.35v-2.87a.36.36 0 1 1 .71 0v2.87a.35.35 0 0 1-.35.35m0-5.73a.36.36 0 0 1-.36-.36V88a.36.36 0 0 1 .71 0v1.42a.36.36 0 0 1-.35.35m18.05 39.75a.36.36 0 0 1-.36-.36v-1.42a.36.36 0 0 1 .71 0v1.42a.36.36 0 0 1-.35.36m0-4.29a.36.36 0 0 1-.36-.35V122a.36.36 0 1 1 .71 0v2.87a.35.35 0 0 1-.35.36m0-5.74a.36.36 0 0 1-.36-.35v-2.87a.36.36 0 0 1 .71 0v2.87a.35.35 0 0 1-.35.35m0-5.73a.36.36 0 0 1-.36-.36v-2.87a.36.36 0 0 1 .71 0v2.87a.36.36 0 0 1-.35.36m0-5.74a.36.36 0 0 1-.36-.35v-2.87a.36.36 0 1 1 .71 0v2.87a.35.35 0 0 1-.35.33Zm0-5.74a.36.36 0 0 1-.36-.35v-2.87a.36.36 0 0 1 .71 0v2.87a.35.35 0 0 1-.35.35m0-5.73a.36.36 0 0 1-.36-.36v-2.87a.36.36 0 0 1 .71 0v2.87a.36.36 0 0 1-.35.36m0-5.74a.36.36 0 0 1-.36-.35v-2.87a.36.36 0 1 1 .71 0v2.87a.35.35 0 0 1-.35.35m0-5.74a.35.35 0 0 1-.36-.35v-2.87a.36.36 0 0 1 .71 0v2.87a.35.35 0 0 1-.35.35m0-5.73a.36.36 0 0 1-.36-.36v-1.41a.36.36 0 1 1 .71 0V79a.36.36 0 0 1-.35.34m18.07 39.75a.36.36 0 0 1-.35-.36v-1.41a.36.36 0 1 1 .71 0v1.41a.36.36 0 0 1-.36.36m0-4.29a.35.35 0 0 1-.35-.35v-2.87a.36.36 0 1 1 .71 0v2.87a.36.36 0 0 1-.36.35m0-5.73a.36.36 0 0 1-.35-.36v-2.87a.36.36 0 0 1 .71 0v2.87a.36.36 0 0 1-.36.36m0-5.74a.36.36 0 0 1-.35-.36v-2.86a.36.36 0 1 1 .71 0V103a.36.36 0 0 1-.36.33m0-5.74a.35.35 0 0 1-.35-.35v-2.87a.36.36 0 0 1 .71 0v2.87a.36.36 0 0 1-.36.35m0-5.73a.36.36 0 0 1-.35-.36v-2.87a.36.36 0 0 1 .71 0v2.87a.36.36 0 0 1-.36.36m0-5.74a.36.36 0 0 1-.35-.36V82.9a.36.36 0 1 1 .71 0v2.86a.36.36 0 0 1-.36.36m0-5.74a.35.35 0 0 1-.35-.35v-2.87a.36.36 0 0 1 .71 0V80a.36.36 0 0 1-.36.38m0-5.73a.36.36 0 0 1-.35-.36v-2.87a.36.36 0 0 1 .71 0v2.87a.36.36 0 0 1-.36.36m0-5.74a.35.35 0 0 1-.35-.35v-1.42a.36.36 0 1 1 .71 0v1.42a.36.36 0 0 1-.36.35m18.08 39.75a.35.35 0 0 1-.35-.35v-1.42a.36.36 0 1 1 .71 0v1.42a.36.36 0 0 1-.36.35m0-4.29a.35.35 0 0 1-.35-.35v-2.87a.36.36 0 0 1 .71 0V104a.35.35 0 0 1-.36.37m0-5.73a.36.36 0 0 1-.35-.36v-2.87a.36.36 0 0 1 .71 0v2.87a.36.36 0 0 1-.36.36m0-5.74a.35.35 0 0 1-.35-.35v-2.87a.36.36 0 1 1 .71 0v2.87a.36.36 0 0 1-.36.35m0-5.74a.35.35 0 0 1-.35-.35v-2.87a.36.36 0 0 1 .71 0v2.87a.35.35 0 0 1-.36.35m0-5.73a.36.36 0 0 1-.35-.36v-2.86a.36.36 0 1 1 .71 0v2.86a.36.36 0 0 1-.36.36m0-5.74a.35.35 0 0 1-.35-.35v-2.87a.36.36 0 1 1 .71 0v2.87a.36.36 0 0 1-.36.35m0-5.73a.36.36 0 0 1-.35-.36v-2.87a.36.36 0 0 1 .71 0v2.87a.36.36 0 0 1-.36.4Zm0-5.74a.36.36 0 0 1-.35-.36V61a.36.36 0 1 1 .71 0v2.86a.36.36 0 0 1-.36.36m0-5.74a.35.35 0 0 1-.35-.35v-1.42a.36.36 0 0 1 .71 0v1.42a.36.36 0 0 1-.36.35m18.08 39.75a.35.35 0 0 1-.35-.35v-1.42a.35.35 0 0 1 .7 0v1.42a.35.35 0 0 1-.35.35m0-4.23a.35.35 0 0 1-.35-.36v-2.92a.35.35 0 0 1 .7 0v2.87a.35.35 0 0 1-.35.41m0-5.74a.35.35 0 0 1-.35-.35V85a.35.35 0 1 1 .7 0v2.87a.35.35 0 0 1-.35.34Zm0-5.74a.35.35 0 0 1-.35-.35v-2.92a.35.35 0 1 1 .7 0v2.87a.35.35 0 0 1-.35.35Zm0-5.73a.35.35 0 0 1-.35-.36v-2.92a.35.35 0 0 1 .7 0v2.87a.35.35 0 0 1-.35.36Zm0-5.74a.35.35 0 0 1-.35-.35v-2.92a.35.35 0 1 1 .7 0v2.87a.35.35 0 0 1-.35.35Zm0-5.74a.35.35 0 0 1-.35-.35V62a.35.35 0 1 1 .7 0v2.87a.35.35 0 0 1-.35.39Zm0-5.73a.35.35 0 0 1-.35-.36V56.3a.35.35 0 1 1 .7 0v2.87a.35.35 0 0 1-.35.36Zm0-5.74a.35.35 0 0 1-.35-.35v-2.92a.35.35 0 1 1 .7 0v2.87a.35.35 0 0 1-.35.35Zm0-5.79a.34.34 0 0 1-.35-.35v-1.42a.35.35 0 1 1 .7 0v1.42a.34.34 0 0 1-.35.35" style="fill:#455a64"/></g><path d="m100 147.07 3.79-2.19a4.78 4.78 0 0 0 2.17-3.75V118c0-1.38-1-1.94-2.16-1.25l-3.8 2.18a4.78 4.78 0 0 0-2.17 3.75v23.14c-.01 1.38.96 1.94 2.17 1.25m18.13-10.45 3.8-2.19a4.8 4.8 0 0 0 2.16-3.75V119c0-1.39-1-1.94-2.17-1.25l-3.79 2.25a4.8 4.8 0 0 0-2.16 3.75v11.65c.03 1.35.97 1.91 2.16 1.22m18.15-25.2 3.79-2.19a4.78 4.78 0 0 0 2.17-3.75V85.17c0-1.38-1-1.94-2.17-1.25l-3.79 2.19a4.78 4.78 0 0 0-2.17 3.75v20.31c0 1.38.97 1.94 2.17 1.25m18.14-5.02 3.8-2.19a4.8 4.8 0 0 0 2.16-3.75V75c0-1.39-1-1.95-2.16-1.25l-3.8 2.18a4.8 4.8 0 0 0-2.16 3.75v25.48c0 1.37.97 1.93 2.16 1.24m18.15-11.24 3.79-2.16a4.78 4.78 0 0 0 2.17-3.75v-17.5c0-1.38-1-1.94-2.17-1.25l-3.79 2.19a4.78 4.78 0 0 0-2.17 3.75v17.47c0 1.38.97 1.94 2.17 1.25m18.14-.16 3.8-2.19a4.8 4.8 0 0 0 2.16-3.81V66.84c0-1.38-1-1.94-2.16-1.25l-3.79 2.19a4.78 4.78 0 0 0-2.17 3.75v22.2c0 1.38.97 1.94 2.16 1.27m18.15-25.8 3.79-2.2a4.78 4.78 0 0 0 2.17-3.75V48.63c0-1.38-1-1.94-2.17-1.24l-3.79 2.18a4.77 4.77 0 0 0-2.16 3.75V68c0 1.33.96 1.89 2.16 1.2" style="fill:#10b981"/></svg>