<svg xmlns="http://www.w3.org/2000/svg" viewBox="0 0 500 500"><ellipse cx="249.48" cy="360.4" rx="242.95" ry="135.07" style="fill:#f5f5f5"/><path d="m461.83 233.47-2.13 1.26-72.24-41.71 2.12-1.26z" style="fill:#fafafa"/><path d="m389.58 191.76 70.12 40.48V70.69l-70.12-40.46z" style="fill:#fff"/><path d="m383.45 195.34 80.26 46.33V68.38L383.45 22Zm4-166.36 72.25 41.71v164L387.46 193Z" style="fill:#f0f0f0"/><path d="m387.46 193.02 2.12-1.26V30.23l-2.12-1.25z" style="fill:#e0e0e0"/><path d="M459.7 176.03v2.49l-72.24-41.71 2.12-1.26zm0-56.23v2.49l-72.24-41.71 2.12-1.27zm-76.25-97.76 2.16-1.23 80.26 46.33-2.16 1.24z" style="fill:#fafafa"/><path d="m465.87 67.14-2.16 1.24v173.3l2.16-1.24zM428.8 52.85l-2.15-1.24v164.05l2.15-1.24z" style="fill:#e0e0e0"/><path d="m422.64 49.3 4.01 2.31v164.05l-4.01-2.33z" style="fill:#f0f0f0"/><path d="M383.45 78.27v4.62l80.26 46.34v-4.63zm0 56.22v4.62l80.26 46.34v-4.62z" style="fill:#f0f0f0"/><path d="m426.65 103.2 2.15-1.24 30.9 17.84v2.49zm0 56.21 2.15-1.24 30.9 17.84v2.49zM102.23 93.74l1.81 1.08 37.03-21.38-1.8-1.08z" style="fill:#fafafa"/><path d="m139.27 72.36-35.23 20.33V54.97l35.23-20.32z" style="fill:#fff"/><path d="M144.48 27.69 100.63 53v47.71l43.85-25.31Zm-3.41 45.75L104 94.82V55l37-21.38Z" style="fill:#f0f0f0"/><path d="m141.07 73.44-1.8-1.08V34.65l1.8-1.06z" style="fill:#e0e0e0"/><path d="m144.48 27.7-1.84-1.05L98.8 51.96l1.83 1.05z" style="fill:#fafafa"/><path d="m98.8 51.96 1.83 1.05v47.71l-1.83-1.05z" style="fill:#e0e0e0"/><path d="m137.89 71.26-32.48 18.75v-6.82l8.12-18.75 5.06 4.69-1.82 7.86 11.22-23.98 9.9 11.43zm-19.6-17.79a5.32 5.32 0 0 0-2.41 4.17c0 1.53 1.08 2.15 2.41 1.38a5.32 5.32 0 0 0 2.4-4.16c0-1.53-1.08-2.15-2.4-1.39" style="fill:#f0f0f0"/><path d="m41.85 128.6 1.81 1.08 37.03-21.38-1.8-1.08z" style="fill:#fafafa"/><path d="m78.89 107.22-35.23 20.33V89.83l35.23-20.32z" style="fill:#fff"/><path d="M84.1 62.55 40.25 87.87v47.7l43.85-25.31Zm-3.41 45.74-37 21.39V89.83l37-21.38Z" style="fill:#f0f0f0"/><path d="m80.69 108.3-1.8-1.08V69.51l1.8-1.06z" style="fill:#e0e0e0"/><path d="m84.09 62.55-1.83-1.05-43.84 25.32 1.83 1.04z" style="fill:#fafafa"/><path d="m38.42 86.82 1.83 1.04v47.71l-1.83-1.05z" style="fill:#e0e0e0"/><path d="m77.51 106.12-32.48 18.75v-6.82l8.12-18.75 5.06 4.69-1.82 7.86 11.22-23.99 9.9 11.44zM57.9 88.33a5.33 5.33 0 0 0-2.4 4.16c0 1.53 1.08 2.16 2.4 1.39a5.32 5.32 0 0 0 2.41-4.16c0-1.53-1.08-2.15-2.41-1.39" style="fill:#f0f0f0"/><path d="M209.09 477.56a24 24 0 0 1-11.86-3l-148.87-86c-5.09-2.94-8.13-7.87-8.13-13.19s3-10.26 8.13-13.2l232.23-134.03a25 25 0 0 1 23.72 0l148.87 86c5.1 2.94 8.14 7.87 8.14 13.19s-3 10.26-8.14 13.2L221 474.57a24 24 0 0 1-11.91 2.99M36.74 414.45c-11.57 6.68-11.57 17.52 0 24.2s30.34 6.68 41.92 0 11.57-17.51 0-24.2-30.34-6.68-41.92 0" style="fill:#e0e0e0"/><path d="m430.53 307.91-7.24-4.18s-4.31-17.9-2.59-34c2.41-22.65 17.32-31.17 23-29.21s7.31 8.54-2.06 22c-5.56 7.98-12.35 24.55-11.11 45.39" style="fill:#10b981"/><g style="opacity:.65"><path d="m430.53 307.91-7.24-4.18s-4.31-17.9-2.59-34c2.41-22.65 17.32-31.17 23-29.21s7.31 8.54-2.06 22c-5.56 7.98-12.35 24.55-11.11 45.39" style="fill:#fff"/></g><path d="M427.53 299.12h.07a.51.51 0 0 0 .4-.59c-4-20.88 3.33-44.35 12.36-54.11a.49.49 0 0 0 0-.71.5.5 0 0 0-.71 0c-9.2 9.95-16.63 33.8-12.61 55a.51.51 0 0 0 .49.41" style="fill:#fff"/><path d="M448.74 318.43c1.08.55 4-1.91 4.76-2.51a10.1 10.1 0 0 0 3.14-4 9.4 9.4 0 0 0 .55-5.69 22 22 0 0 0-.86-3l-1-2.87a7.4 7.4 0 0 1-.57-2.92c.15-2 1.85-3.49 3.4-4.77 1.71-1.42 3.47-3.27 3.34-5.67a8.48 8.48 0 0 0-2.37-4.92c-1.22-1.39-2.64-2.61-3.76-4.09a5.85 5.85 0 0 1-1.39-3.66 6 6 0 0 1 .69-2.37 32 32 0 0 0 2.31-4.8c.5-1.71.32-3.79-1.05-4.92a5.47 5.47 0 0 0-4.18-.82A9.4 9.4 0 0 0 448 263c-3.7 2.31-5.65 6.93-9.61 8.76a40 40 0 0 1-4.83 1.44 6.06 6.06 0 0 0-3.89 3c-1.34 3 1.6 6.55.72 9.75-.79 2.83-3.44 4-4.83 6.61a5.9 5.9 0 0 0-.52 3.68 17.4 17.4 0 0 0 1.84 6.08 56 56 0 0 0 3.66 5.62Z" style="fill:#10b981"/><g style="opacity:.30000000000000004"><path d="M448.74 318.43c1.08.55 4-1.91 4.76-2.51a10.1 10.1 0 0 0 3.14-4 9.4 9.4 0 0 0 .55-5.69 22 22 0 0 0-.86-3l-1-2.87a7.4 7.4 0 0 1-.57-2.92c.15-2 1.85-3.49 3.4-4.77 1.71-1.42 3.47-3.27 3.34-5.67a8.48 8.48 0 0 0-2.37-4.92c-1.22-1.39-2.64-2.61-3.76-4.09a5.85 5.85 0 0 1-1.39-3.66 6 6 0 0 1 .69-2.37 32 32 0 0 0 2.31-4.8c.5-1.71.32-3.79-1.05-4.92a5.47 5.47 0 0 0-4.18-.82A9.4 9.4 0 0 0 448 263c-3.7 2.31-5.65 6.93-9.61 8.76a40 40 0 0 1-4.83 1.44 6.06 6.06 0 0 0-3.89 3c-1.34 3 1.6 6.55.72 9.75-.79 2.83-3.44 4-4.83 6.61a5.9 5.9 0 0 0-.52 3.68 17.4 17.4 0 0 0 1.84 6.08 56 56 0 0 0 3.66 5.62Z" style="fill:#fff"/></g><path d="M438.27 313a.49.49 0 0 0 .44-.52c-1.74-18.79 6.08-40 12.23-46.38a.47.47 0 0 0 0-.67.48.48 0 0 0-.67 0c-6.27 6.49-14.26 28.08-12.5 47.13a.48.48 0 0 0 .5.44" style="fill:#fff"/><path d="M440.13 289.81h.14a63 63 0 0 1 13.55-2.89.49.49 0 0 0 .43-.52.46.46 0 0 0-.52-.43 65 65 0 0 0-13.73 2.92.47.47 0 0 0-.29.6.49.49 0 0 0 .42.32" style="fill:#fff"/><path d="M47.5 368.78c0 3.8 2.85 8.53 6.36 10.56l148.87 86a14 14 0 0 0 12.72 0l232.24-134.12c3.51-2 6.36-6.76 6.36-10.56s-2.85-8.54-6.36-10.56l-148.88-86a14 14 0 0 0-12.72 0L53.86 358.22c-3.52 2.03-6.36 6.78-6.36 10.56" style="fill:#37474f"/><path d="m53.86 365.56 148.87 86a14 14 0 0 0 12.72 0l232.24-134.12c3.51-2 3.51-5.32 0-7.34l-148.88-86a14 14 0 0 0-12.72 0L53.86 358.22c-3.52 2.03-3.52 5.31 0 7.34" style="fill:#455a64"/><path d="M209.1 453.05v13.77a12.87 12.87 0 0 1-6.36-1.52l-148.89-86c-3.51-2-6.35-6.76-6.35-10.56 0-3.57 2.51-7.95 5.71-10.15-2.85 2-2.63 5 .64 6.93l148.89 86a13 13 0 0 0 6.36 1.53M73.5 359.3l213.41-123.21a6.61 6.61 0 0 1 6 0l7.77 4.36c1.66 1 1.66 2.5 0 3.46L87.24 367.1a6.61 6.61 0 0 1-6 0l-7.74-4.34c-1.66-.96-1.66-2.51 0-3.46m20.96 12.36 213.41-123.21a6.11 6.11 0 0 1 5.48-.3l55.55 32.07c1.37.79 1.14 2.21-.52 3.16L155.22 406.43a6.16 6.16 0 0 1-5.49.31L94 374.81c-1.43-.81-1.2-2.19.46-3.15" style="fill:#263238"/><path d="m279.38 300.2 6.68-3.86c.29-.16.31-.42.06-.56l-6.39-3.69a1.07 1.07 0 0 0-1 0l-6.65 3.91c-.29.16-.31.41-.06.56l6.39 3.69a1.07 1.07 0 0 0 .97-.05m-9.75-13.35-6.69 3.86c-.28.16-.31.41-.05.56l6.39 3.69a1.11 1.11 0 0 0 1 0l6.68-3.86c.29-.17.31-.42.06-.56l-6.39-3.69a1.07 1.07 0 0 0-1 0M248 299.31l-11.31 6.53c-.28.16-.31.42-.06.56l6.4 3.69a1.07 1.07 0 0 0 1 0l11.3-6.53c.29-.16.31-.41.06-.56l-6.39-3.72a1.07 1.07 0 0 0-1 .03m11.82-6.82-6.68 3.86c-.29.16-.31.41-.06.56l6.39 3.69a1.07 1.07 0 0 0 1 0l6.69-3.85c.28-.17.31-.42.05-.56l-6.39-3.7a1.08 1.08 0 0 0-.96 0Zm-26.21 15.13-6.61 3.86c-.28.16-.31.41-.05.56l6.39 3.69a1.07 1.07 0 0 0 1 0l6.68-3.86c.29-.16.31-.41.06-.56l-6.39-3.69a1.07 1.07 0 0 0-1.04 0Zm-9.77 5.64-6.68 3.86c-.29.16-.31.41-.06.56l6.39 3.69a1.1 1.1 0 0 0 1 0l6.69-3.86c.28-.17.31-.42.05-.56l-6.39-3.69a1.07 1.07 0 0 0-.96 0Zm25.06 15.06 6.68-3.86c.28-.16.31-.41.06-.56l-6.4-3.69a1.11 1.11 0 0 0-1 0l-6.68 3.86c-.28.17-.31.42-.06.56l6.4 3.69a1.07 1.07 0 0 0 1.04 0Zm-9.73 5.68 6.68-3.86c.29-.16.31-.41.06-.56l-6.39-3.69a1.07 1.07 0 0 0-1 0l-6.69 3.86c-.28.16-.3.42-.05.56l6.42 3.69a1.07 1.07 0 0 0 .97 0m-9.77 5.64 6.69-3.86c.28-.16.31-.42 0-.56l-6.39-3.69a1.07 1.07 0 0 0-1 0l-6.68 3.86c-.29.16-.31.41-.06.56l6.39 3.69a1.07 1.07 0 0 0 1.05-.04Zm-9.76 5.63 6.68-3.85c.28-.17.31-.42.06-.56l-6.38-3.73a1.09 1.09 0 0 0-1 0l-6.67 3.87c-.28.16-.31.41-.05.56l6.39 3.69a1.08 1.08 0 0 0 .97-.02Zm50-39.39 6.66-3.88c.28-.17.31-.42.06-.56l-6.4-3.69a1.07 1.07 0 0 0-1 0l-6.68 3.86c-.28.16-.31.41-.06.56l6.4 3.69a1.11 1.11 0 0 0 1-.02Zm-10.94 16.8 14.91-8.6c.28-.17.31-.42.06-.56l-15.53-9a1.08 1.08 0 0 0-1 0l-7.68 4.48c-.28.16-.31.41-.06.56l8.22 4.74c.25.15.23.4-.06.56l-6.16 3.56c-.29.17-.31.42-.06.56l6.39 3.69a1 1 0 0 0 .97.01m-44.59-3.78-6.68 3.86c-.28.16-.31.41-.05.56l6.39 3.69a1.08 1.08 0 0 0 1 0l6.68-3.85c.28-.17.31-.42.06-.56l-6.4-3.69a1 1 0 0 0-1-.01m-9.76 5.64-6.68 3.85c-.29.17-.31.42-.06.57l6.39 3.69a1.08 1.08 0 0 0 1 0l6.68-3.85c.29-.17.31-.42.06-.57l-6.39-3.69a1.08 1.08 0 0 0-1 0m-54 60.2a1.08 1.08 0 0 0 1 0l6.68-3.85c.28-.17.31-.42.06-.56l-6.4-3.7a1.08 1.08 0 0 0-1 0l-6.69 3.86c-.28.16-.31.41-.06.56Zm-24.09-15.1-6.68 3.86c-.29.17-.31.42-.06.56l6.39 3.69a1.07 1.07 0 0 0 1 0l6.69-3.86c.28-.16.31-.41.05-.56l-6.39-3.69a1.11 1.11 0 0 0-1.04 0ZM138.6 381a1.1 1.1 0 0 0 1 0l6.69-3.86c.28-.17.31-.42.05-.56l-6.39-3.69a1.07 1.07 0 0 0-1 0l-6.68 3.86c-.29.16-.31.41-.06.56Zm27 6.06 6.68-3.86c.29-.16.31-.41.06-.56l-6.39-3.69a1.09 1.09 0 0 0-1 0l-6.68 3.86c-.28.16-.31.42-.05.56l6.39 3.69a1.07 1.07 0 0 0 .94-.06Zm-10.74 5.67a1.07 1.07 0 0 0 1 0l6.69-3.86c.28-.16.3-.42.05-.56l-6.39-3.69a1.07 1.07 0 0 0-1 0l-6.68 3.86c-.29.16-.31.41-.06.56ZM136 364l-6.69 3.85c-.28.17-.3.42-.05.56l6.39 3.69a1 1 0 0 0 1 0l6.68-3.86c.29-.16.31-.41.06-.56L137 364a1.07 1.07 0 0 0-1 0m48.83-28.2-6.69 3.86c-.28.17-.31.42 0 .56l6.39 3.69a1.07 1.07 0 0 0 1 0l6.68-3.86c.29-.16.31-.41.06-.56l-6.39-3.69a1.07 1.07 0 0 0-1.06.01Zm-39.07 22.56-6.68 3.86c-.28.16-.31.41-.06.56l6.4 3.69a1.08 1.08 0 0 0 1 0l6.68-3.85c.28-.17.31-.42.06-.57l-6.4-3.69a1.08 1.08 0 0 0-1.01.01Zm48.83-28.19L187.9 334c-.28.17-.31.42-.06.56l6.4 3.69a1 1 0 0 0 1 0l6.68-3.86c.28-.16.31-.41.06-.56l-6.4-3.69a1.08 1.08 0 0 0-1 .04Zm-19.53 11.27-6.68 3.86c-.29.16-.31.41-.06.56l6.39 3.69a1.07 1.07 0 0 0 1 0l6.69-3.86c.28-.16.31-.41 0-.56l-6.4-3.71a1.07 1.07 0 0 0-.95.03Zm-9.77 5.64L158.6 351c-.28.16-.31.41 0 .56l6.39 3.69a1.07 1.07 0 0 0 1 0l6.68-3.86c.28-.17.31-.42.06-.56l-6.39-3.69a1.09 1.09 0 0 0-1.06-.05Zm-9.76 5.64-6.68 3.86c-.29.16-.31.41-.06.56l6.39 3.69a1.08 1.08 0 0 0 1 0l6.68-3.85c.29-.17.31-.42.06-.56l-6.39-3.69a1.07 1.07 0 0 0-1.01 0Zm44.59 3.78 6.68-3.86c.28-.16.31-.41.06-.56l-6.4-3.69a1.08 1.08 0 0 0-1 0l-6.68 3.85c-.28.17-.31.42-.06.56l6.4 3.7a1.08 1.08 0 0 0 .99.01Zm91.1-82.12-6.68 3.85c-.28.17-.31.42-.06.56l6.4 3.69a1.07 1.07 0 0 0 1 0l6.68-3.86c.28-.16.31-.41.06-.56l-6.4-3.69a1.08 1.08 0 0 0-1.01.02Zm-11.82 6.82-6.68 3.86c-.28.16-.31.41-.06.56l6.39 3.69a1.09 1.09 0 0 0 1 0l6.68-3.86c.28-.17.31-.42.06-.56l-6.4-3.69a1.07 1.07 0 0 0-1 .01Zm21.6-12.45-6.68 3.85c-.29.17-.31.42-.06.57l6.39 3.69a1.07 1.07 0 0 0 1 0l6.69-3.85c.28-.17.31-.42 0-.57l-6.34-3.73a1.08 1.08 0 0 0-1 .04m-54 50.14 6.68-3.85c.29-.17.31-.42.06-.57l-6.39-3.69a1.07 1.07 0 0 0-1 0l-6.69 3.86c-.28.16-.3.41-.05.56l6.39 3.69a1.08 1.08 0 0 0 1 0m64.72-55.81a1 1 0 0 0-1 0l-6.66 3.92c-.28.16-.31.41-.05.56l6.39 3.69a1.08 1.08 0 0 0 1 0l6.68-3.85c.29-.17.31-.42.06-.56Zm-101.85 87.79 6.68-3.85c.29-.17.31-.42.06-.56l-6.39-3.7a1.08 1.08 0 0 0-1 0l-6.68 3.86c-.29.16-.31.41-.06.56l6.39 3.69a1.08 1.08 0 0 0 1 0m119.76-69.14 6.69-3.86c.28-.16.31-.41.05-.56l-6.37-3.69a1.07 1.07 0 0 0-1 0l-6.68 3.86c-.29.16-.31.42-.06.56l6.39 3.69a1.07 1.07 0 0 0 .98 0m-18.89.37 6.68-3.86c.28-.17.31-.42.06-.56l-6.4-3.69a1.07 1.07 0 0 0-1 0l-6.68 3.86c-.28.16-.31.41-.06.56l6.4 3.69a1.11 1.11 0 0 0 1 0m10.11-13.75a1.07 1.07 0 0 0-1 0l-6.68 3.86c-.29.16-.31.41-.06.56l6.39 3.69a1.07 1.07 0 0 0 1 0l6.68-3.86c.29-.17.31-.42.06-.56Zm2-1.19 15.53 9a1.07 1.07 0 0 0 1 0l6.68-3.86c.29-.16.31-.41.06-.56l-15.53-9a1.07 1.07 0 0 0-1 0L323 266.6c-.32.16-.35.4-.1.56Zm-22.55 12.5-6.69 3.86c-.28.16-.31.41-.05.56l6.39 3.69a1.08 1.08 0 0 0 1 0l6.68-3.85c.29-.17.31-.42.06-.56l-6.39-3.7a1.07 1.07 0 0 0-.95 0Zm-73.51 42.43-6.63 3.91c-.28.17-.31.42 0 .56l6.39 3.69a1.07 1.07 0 0 0 1 0l6.68-3.86c.28-.16.31-.41.06-.56l-6.39-3.69a1.09 1.09 0 0 0-1.06-.05Zm92.11-34.69a1.07 1.07 0 0 0 1 0l6.68-3.86c.28-.16.31-.41.06-.56l-6.4-3.69a1.07 1.07 0 0 0-1 0l-6.68 3.86c-.28.16-.31.41-.06.56Zm-82.29 29.06-6.68 3.85c-.29.17-.31.42-.06.56l6.39 3.69a1 1 0 0 0 1 0l6.69-3.86c.28-.16.31-.41.05-.56l-6.39-3.69a1.08 1.08 0 0 0-1 .01m-76.54 62.64a1.11 1.11 0 0 0 1 0l6.69-3.86c.28-.17.3-.42.05-.56l-6.42-3.68a1.07 1.07 0 0 0-1 0l-6.68 3.86c-.29.16-.31.41-.06.56Zm-11.35-11.9-6.72 3.86c-.28.16-.3.41-.05.56l6.39 3.69a1.07 1.07 0 0 0 1 0l6.68-3.86c.29-.17.31-.42.06-.56l-6.39-3.69a1.07 1.07 0 0 0-.97 0m22.09 6.23 6.68-3.86c.28-.16.31-.42.06-.56l-6.39-3.69a1.09 1.09 0 0 0-1 0l-6.68 3.86c-.28.16-.31.41-.05.56l6.39 3.69a1.07 1.07 0 0 0 .99 0m9.76-5.64 6.69-3.86c.28-.16.31-.41.05-.56l-6.39-3.69a1.07 1.07 0 0 0-1 0l-6.68 3.86c-.28.16-.31.42-.06.56l6.39 3.69a1.07 1.07 0 0 0 1 0m9.77-5.64 6.68-3.86c.29-.16.31-.41.06-.56l-6.39-3.73a1.11 1.11 0 0 0-1 0l-6.69 3.93c-.28.17-.3.42-.05.56l6.39 3.69a1.07 1.07 0 0 0 1-.03m-31.86-.59-6.68 3.86c-.28.16-.31.42-.06.56l6.4 3.69a1.07 1.07 0 0 0 1 0l6.68-3.86c.28-.16.31-.41.06-.56l-6.4-3.69a1.07 1.07 0 0 0-1 0m9.77-5.64-6.68 3.86c-.29.17-.31.42-.06.56l6.39 3.66a1.07 1.07 0 0 0 1 0l6.68-3.86c.29-.16.31-.41.06-.56l-6.39-3.69a1.11 1.11 0 0 0-1 .03m39.06-22.55-6.68 3.86c-.28.16-.31.41-.06.56l6.4 3.69a1.07 1.07 0 0 0 1 0l6.68-3.86c.28-.16.31-.42.06-.56l-6.4-3.69a1.07 1.07 0 0 0-1 0m-9.76 5.63-6.69 3.86c-.28.16-.31.41-.05.56l6.39 3.69a1.08 1.08 0 0 0 1 0l6.68-3.85c.29-.17.31-.42.06-.56l-6.42-3.7a1.07 1.07 0 0 0-.97 0m19.53-11.28-6.68 3.86c-.29.16-.31.41-.06.56l6.39 3.69a1.07 1.07 0 0 0 1 0l6.68-3.86c.29-.16.31-.41.06-.56l-6.39-3.69a1.07 1.07 0 0 0-1 .01ZM178 350.29l-6.69 3.85c-.28.17-.31.42-.05.56l6.39 3.69a1 1 0 0 0 1 0l6.68-3.86c.28-.16.31-.41.06-.56l-6.39-3.72a1.07 1.07 0 0 0-1 .04m9.76-5.64-6.68 3.86c-.29.16-.31.41-.06.56l6.39 3.69a1.07 1.07 0 0 0 1 0l6.69-3.85c.28-.17.31-.42 0-.56l-6.39-3.7a1.08 1.08 0 0 0-.93 0Zm-12.46 36.72 6.68-3.86c.28-.16.31-.41.05-.56l-6.39-3.69a1.11 1.11 0 0 0-1 0l-6.64 3.89c-.28.17-.31.42-.06.56l6.39 3.69a1.09 1.09 0 0 0 .99-.03Zm-51.5-2.43-6.39-3.69a1.09 1.09 0 0 0-1 0l-6.68 3.86c-.28.16-.31.41 0 .56l6.39 3.69a1.07 1.07 0 0 0 1 0l6.68-3.86c.2-.16.27-.41.02-.56Zm12.73 3.2-6.4-3.7a1.08 1.08 0 0 0-1 0l-10.28 5.93c-.28.17-.3.42-.05.56l6.39 3.69a1 1 0 0 0 1 0l10.28-5.93c.3-.16.33-.41.08-.55Zm-22.27-10.49-6.4-3.69a1.07 1.07 0 0 0-1 0l-8.22 4.75c-.28.16-.31.42-.06.56L105 377a1.07 1.07 0 0 0 1 0l8.23-4.75c.27-.2.3-.45.05-.6Zm6.3-3.64a1.07 1.07 0 0 0 1 0l6.68-3.86c.29-.16.31-.42.06-.56l-6.39-3.69a1.07 1.07 0 0 0-1 0l-6.68 3.86c-.29.16-.31.41-.06.56Zm27.67 17.91-6.39-3.69a1.08 1.08 0 0 0-1 0L128 389.69c-.29.16-.31.41-.06.56l6.39 3.69a1.08 1.08 0 0 0 1 0l12.85-7.42c.3-.2.32-.45.07-.6Zm4.51 7.95-6.4-3.69a1.07 1.07 0 0 0-1 0l-8.17 4.82c-.28.16-.31.41-.06.56l6.39 3.69a1.13 1.13 0 0 0 1 0l8.22-4.75c.28-.24.28-.5.04-.63Zm40.43-67.78a1.11 1.11 0 0 0 1 0l6.68-3.86c.29-.17.31-.42.06-.56l-6.4-3.67a1.07 1.07 0 0 0-1 0l-6.68 3.86c-.29.16-.31.41-.06.56Zm-19.53 11.28a1.08 1.08 0 0 0 1 0l6.68-3.86c.29-.16.31-.41.06-.56l-6.38-3.73a1.08 1.08 0 0 0-1 0l-6.69 3.85c-.28.17-.3.42 0 .56Zm-43.31 25a1.07 1.07 0 0 0 1 0l6.68-3.86c.28-.16.31-.41.06-.56l-6.4-3.69a1.07 1.07 0 0 0-1 0l-6.67 3.86c-.28.16-.31.42-.06.56Zm53.08-30.64a1.08 1.08 0 0 0 1 0l6.68-3.85c.28-.17.31-.42.06-.56l-6.4-3.7a1.08 1.08 0 0 0-1 0l-6.68 3.86c-.28.16-.31.41-.06.56ZM163.89 343a1.07 1.07 0 0 0 1 0l6.69-3.86c.28-.16.31-.41 0-.56l-6.39-3.69a1.11 1.11 0 0 0-1 0l-6.68 3.86c-.29.17-.31.42-.06.56Zm-6.34 51.26a1.08 1.08 0 0 0-1 0l-10.28 5.93c-.28.16-.31.42-.06.56l6.4 3.69a1.07 1.07 0 0 0 1 0l10.28-5.94c.28-.16.31-.41.05-.56Zm-7.67-43.16a1.08 1.08 0 0 0 1 0l6.68-3.86c.29-.16.31-.41.06-.56L151.2 343a1.07 1.07 0 0 0-1 0l-6.69 3.85c-.28.17-.31.42 0 .56Zm-9.77 5.63a1.07 1.07 0 0 0 1 0l6.69-3.86c.28-.16.31-.41 0-.56l-6.39-3.69a1.11 1.11 0 0 0-1 0l-6.68 3.86c-.29.17-.31.42-.06.56Zm198.37-66.93a1.08 1.08 0 0 0-1 0l-16.45 9.49c-.28.17-.31.42-.06.56l6.4 3.69a1 1 0 0 0 1 0l16.44-9.5c.29-.16.31-.41.06-.56Zm-21.59 12.47a1.07 1.07 0 0 0-1 0l-6.68 3.86c-.29.16-.31.41-.06.56l6.39 3.69a1.09 1.09 0 0 0 1 0l6.68-3.86c.28-.16.31-.42 0-.56Zm-131.81 73.46 6.68-3.86c.29-.16.31-.41.06-.56l-6.39-3.69a1.08 1.08 0 0 0-1 0l-6.68 3.85c-.29.17-.31.42-.06.56l6.39 3.7a1.08 1.08 0 0 0 1 0m112.28-62.19a1.08 1.08 0 0 0-1 0l-6.68 3.85c-.29.17-.31.42-.06.57l6.39 3.69a1.08 1.08 0 0 0 1 0l6.68-3.85c.29-.17.31-.42.06-.56Zm50.89-29.37a1.06 1.06 0 0 0-1 0l-6.68 3.86c-.28.16-.31.41 0 .56l6.39 3.69a1.08 1.08 0 0 0 1 0l6.68-3.85c.28-.17.31-.42.06-.56Zm16.15-1.95-15.52-9a1.08 1.08 0 0 0-1 0l-6.68 3.86c-.29.16-.31.41-.06.56l15.52 9a1.07 1.07 0 0 0 1 0l6.69-3.86c.28-.17.31-.42.05-.56m-103.53 52.39a1.07 1.07 0 0 0-1 0l-8.23 4.75c-.28.16-.31.41-.06.56l6.4 3.69a1.08 1.08 0 0 0 1 0l8.22-4.74c.28-.17.31-.42.06-.57Zm24.67-14.24a1.07 1.07 0 0 0-1 0l-10.28 5.94c-.29.16-.31.41-.06.56l6.39 3.69a1.11 1.11 0 0 0 1 0l10.28-5.94c.29-.16.31-.41.06-.56Zm-47.29 27.3a1.11 1.11 0 0 0-1 0l-55 31.76c-.28.16-.31.41-.06.56l6.4 3.69a1.11 1.11 0 0 0 1 0l55-31.76c.28-.16.31-.41 0-.56Zm-58.08 33.53a1.08 1.08 0 0 0-1 0L171 386c-.28.16-.31.41-.05.56l6.39 3.69a1.08 1.08 0 0 0 1 0l8.22-4.74c.29-.17.31-.42.06-.56Zm69.39-40.06a1.08 1.08 0 0 0-1 0l-8.23 4.74c-.28.17-.31.42-.05.56l6.39 3.69a1 1 0 0 0 1 0l8.22-4.75c.29-.16.31-.41.06-.56Zm-80.7 46.59a1.08 1.08 0 0 0-1 0l-8.22 4.74c-.29.17-.31.42-.06.56l6.39 3.7a1.08 1.08 0 0 0 1 0l8.23-4.73c.28-.16.31-.41.05-.56Zm103.31-59.64a1 1 0 0 0-1 0l-8.17 4.78c-.28.16-.31.41-.06.56l6.39 3.69a1.07 1.07 0 0 0 1 0l8.23-4.74c.28-.17.31-.42.06-.56Zm35-20.18a1.09 1.09 0 0 0-1 0l-6.68 3.86c-.28.16-.31.41-.05.56l6.39 3.69a1.08 1.08 0 0 0 1 0l6.68-3.85c.28-.17.31-.42.06-.56ZM329 292.64l6.68-3.86c.29-.16.31-.41.06-.56l-6.39-3.69a1.11 1.11 0 0 0-1 0l-6.69 3.86c-.28.17-.31.42-.05.56l6.39 3.69a1.07 1.07 0 0 0 1 0m-39.85 1.92 6.68-3.86c.28-.16.31-.41.06-.56l-6.4-3.69a1.07 1.07 0 0 0-1 0l-6.68 3.86c-.28.17-.31.42-.06.56l6.4 3.69a1.07 1.07 0 0 0 1 0m-25.94 36.07 19.53-11.28c.28-.17.31-.42.06-.56l-6.39-3.69a1.09 1.09 0 0 0-1 0l-19.51 11.31c-.28.16-.31.41-.05.56l6.39 3.69a1.11 1.11 0 0 0 .97-.03m55.05-32.32a1.07 1.07 0 0 0 1 0l6.69-3.86c.28-.16.31-.41.05-.56l-6.39-3.69a1.07 1.07 0 0 0-1 0l-6.68 3.86c-.29.16-.31.42-.06.56ZM310.1 293l6.68-3.86c.29-.17.31-.42.06-.56l-6.39-3.69a1.07 1.07 0 0 0-1 0l-6.68 3.86c-.29.16-.31.41-.06.56l6.39 3.69a1.07 1.07 0 0 0 1 0m-56.66 43.25 6.68-3.85c.29-.17.31-.42.06-.56l-6.39-3.7a1.08 1.08 0 0 0-1 0l-6.68 3.86c-.29.16-.31.41-.06.56l6.39 3.69a1.08 1.08 0 0 0 1 .01Zm43.24-25.48a1.08 1.08 0 0 0 1 0l6.68-3.86c.28-.16.31-.41.06-.56l-6.4-3.69a1.08 1.08 0 0 0-1 0l-6.68 3.85c-.28.17-.31.42-.06.56Zm-92.07 53.68 6.69-3.86c.28-.17.3-.42 0-.56l-6.3-3.68a1.07 1.07 0 0 0-1 0l-6.68 3.86c-.29.16-.31.41-.06.56l6.39 3.69a1.11 1.11 0 0 0 .96 0Zm9.77-5.64 6.68-3.86c.28-.16.31-.42.06-.56l-6.39-3.69a1.07 1.07 0 0 0-1 0l-6.69 3.86c-.28.16-.31.41 0 .56l6.39 3.69a1.07 1.07 0 0 0 .95.01Zm-19.53 11.27 6.68-3.85c.28-.17.31-.42.06-.56l-6.4-3.7a1.08 1.08 0 0 0-1 0l-6.68 3.86c-.28.16-.31.41-.06.56l6.4 3.69a1.08 1.08 0 0 0 1 .01Zm39.06-22.55 6.68-3.86c.29-.16.31-.41.06-.56l-6.39-3.69a1.11 1.11 0 0 0-1 0l-6.69 3.86c-.28.17-.3.42 0 .56l6.39 3.69a1.07 1.07 0 0 0 .95.01Zm-9.77 5.64 6.69-3.86c.28-.16.31-.41 0-.56l-6.39-3.69a1.07 1.07 0 0 0-1 0l-6.6 3.94c-.28.16-.31.42-.06.56l6.39 3.69a1.07 1.07 0 0 0 .97-.07Zm19.54-11.28 6.68-3.86c.28-.16.31-.41.06-.56l-6.4-3.69a1.08 1.08 0 0 0-1 0l-6.68 3.85c-.28.17-.31.42-.06.56l6.4 3.7a1.08 1.08 0 0 0 1 .01ZM297 263.46a1.07 1.07 0 0 0 1 0l6.68-3.86c.29-.16.31-.41.06-.56l-1.7-1a1.07 1.07 0 0 0-1 0l-6.68 3.86c-.29.17-.31.42-.06.56Zm-48.57 30.74a1.08 1.08 0 0 0 1 0l6.68-3.85c.29-.17.31-.42.06-.56l-6.39-3.69a1 1 0 0 0-1 0l-6.69 3.9c-.28.16-.31.41-.05.56ZM268 282.92a1.07 1.07 0 0 0 1 0l6.68-3.86c.29-.16.31-.42.06-.56l-6.39-3.69a1.07 1.07 0 0 0-1 0l-6.68 3.86c-.29.16-.31.41-.06.56Zm-31.5 18.16a1.09 1.09 0 0 0 1 0l6.68-3.86c.28-.16.31-.41.05-.56l-6.39-3.69a1.07 1.07 0 0 0-1 0l-6.68 3.86c-.28.16-.31.42-.06.56Zm21.7-12.52a1.11 1.11 0 0 0 1 0l6.68-3.86c.28-.17.31-.42.06-.56l-6.4-3.69a1.07 1.07 0 0 0-1 0l-6.68 3.86c-.28.16-.31.41-.06.56Zm-41.2 23.8a1.1 1.1 0 0 0 1 0l6.69-3.86c.28-.17.3-.42.05-.56l-6.39-3.69a1.07 1.07 0 0 0-1 0l-6.68 3.86c-.29.16-.31.41-.06.56Zm9.77-5.64a1.07 1.07 0 0 0 1 0l6.68-3.86c.29-.16.31-.42.06-.56l-6.39-3.69a1.07 1.07 0 0 0-1 0l-6.69 3.86c-.28.16-.31.41-.05.56Zm50.7-32a1.07 1.07 0 0 0 1 0l6.68-3.86c.28-.16.31-.41.06-.56l-1.7-1a1.07 1.07 0 0 0-1 0l-6.69 3.86c-.28.16-.31.41-.05.56Zm29.3-16.91a1.08 1.08 0 0 0 1 0l6.68-3.85c.28-.17.31-.42.06-.57l-1.71-1a1.08 1.08 0 0 0-1 0l-6.68 3.85c-.28.17-.31.42-.06.56Zm13.42 7.75a1.13 1.13 0 0 0 1 0l6.68-3.86c.28-.17.31-.42.06-.56l-6.4-3.69a1.07 1.07 0 0 0-1 0l-6.68 3.86c-.28.16-.31.41-.06.56ZM338.77 287l6.68-3.86c.28-.16.31-.41.06-.56l-6.4-3.69a1.08 1.08 0 0 0-1 0l-6.68 3.85c-.28.17-.31.42-.06.56l6.4 3.7a1.08 1.08 0 0 0 1 0m-51.57-17.9a1.07 1.07 0 0 0 1 0l6.69-3.86c.28-.16.31-.41.05-.56l-1.7-1a1.07 1.07 0 0 0-1 0l-6.68 3.86c-.28.16-.31.41-.06.56Zm-80 48.9a1.08 1.08 0 0 0 1 0l6.68-3.85c.28-.17.31-.42.06-.56l-6.4-3.7a1.08 1.08 0 0 0-1 0l-6.68 3.86c-.28.16-.31.41-.06.56Z" style="fill:#455a64"/><path d="m238.25 375.34 1.45.84 38.59 22.28 68.63-39.63 1.43-.81-40.05-23.12z" style="fill:#263238"/><path d="m346.04 359.34-37.74-21.77-67.72 39.12 37.71 21.77zm-304.51-.89c-3.29-1.91-3.11-5.12-3.11-9.17V167.4a14.05 14.05 0 0 1 6.36-11L277 22.31c3.51-2 8.62-2 11.6.32s3.84 4.56 3.84 8.62v181.87a14.07 14.07 0 0 1-6.36 11L53.86 358.22c-3.52 2.03-9.03 2.13-12.33.23" style="fill:#37474f"/><path d="M292.45 31.24c0-4-2.85-5.69-6.36-3.67L53.85 161.66a13 13 0 0 0-4.49 4.75l-9.08-5.28a13.1 13.1 0 0 1 4.51-4.75L277 22.3c3.52-2 8.64-2.06 11.6.33 3.13 2.52 3.85 4.57 3.85 8.61" style="fill:#455a64"/><path d="M53.11 358.6c-3.51 1.65-8.51 1.62-11.58-.16-3.29-1.89-3.11-5.11-3.11-9.16V167.4a12.8 12.8 0 0 1 1.86-6.26l9.08 5.25a13 13 0 0 0-1.86 6.26v181.9c0 3.76 2.5 5.45 5.61 4.05" style="fill:#263238"/><path d="M57.28 169 280.77 40c2.1-1.22 3.81-.23 3.81 2.2v169.14a8.46 8.46 0 0 1-3.81 6.61l-223.49 129c-2.11 1.22-3.82.23-3.82-2.2V175.6a8.44 8.44 0 0 1 3.82-6.6"/><path d="M57.28 169a8.44 8.44 0 0 0-3.82 6.61v166.18L274.4 214.27a8.43 8.43 0 0 0 3.81-6.61V41.47Z" style="fill:#263238"/><path d="M76.86 366.13a4.06 4.06 0 0 1-1.83.56 4.7 4.7 0 0 1-2.69-.47 5 5 0 0 1-2.18-4V206.49l4.39 2.53v155.76c0 1.06.53 1.67 1.3 1.67a2.2 2.2 0 0 0 1.01-.32" style="fill:#e6e6e6"/><path d="M303.32 232.73a5.13 5.13 0 0 1-2.33 4L76.86 366.13c-1.28.74-2.33.14-2.33-1.35v-170.9L303.32 61.82z" style="fill:#fafafa"/><path d="M302.22 63.73v169a4.07 4.07 0 0 1-1.78 3.09L76.31 365.18a1.06 1.06 0 0 1-.49.17c-.19 0-.19-.56-.19-.57V194.51zm1.1-1.91L74.53 193.88v170.9c0 1.06.53 1.67 1.29 1.67a2 2 0 0 0 1-.32L301 236.77a5.13 5.13 0 0 0 2.33-4V61.82Z" style="fill:#ebebeb"/><path d="M72.34 201.06a5 5 0 0 1-2.19-4v-18.18a5.14 5.14 0 0 1 2.33-4l224.13-129.4a5 5 0 0 1 4.53-.09 5 5 0 0 1 2.18 4v18.19a5.13 5.13 0 0 1-2.33 4L76.86 201a5 5 0 0 1-4.52.06" style="fill:#10b981"/><path d="M303.3 49c-.16-1.2-1.14-1.65-2.31-1L76.86 177.36a5.1 5.1 0 0 0-1.65 1.75l-4.37-2.53a4.84 4.84 0 0 1 1.64-1.74L296.62 45.48A4.35 4.35 0 0 1 303.3 49" style="fill:#fff;opacity:.30000000000000004"/><path d="M75.21 179.11a4.74 4.74 0 0 0-.68 2.3v27.65l-4.39-2.53v-27.65a3 3 0 0 1 0-.28 5 5 0 0 1 .09-.58 5.3 5.3 0 0 1 .59-1.44Z" style="opacity:.2"/><path d="M303.32 49.35v12.47L145.46 153c-1.28.74-2.33.14-2.33-1.35v-4.72c0-1.49-1-2.09-2.34-1.35l-55.16 31.78a5.16 5.16 0 0 0-2.34 4v4.72a5.17 5.17 0 0 1-2.33 4l-6.43 3.71v-12.38a5.2 5.2 0 0 1 2.33-4L301 48c1.28-.74 2.32-.14 2.32 1.35" style="fill:#10b981"/><path d="M296.64 56c1-.57 1.79-.11 1.79 1a4 4 0 0 1-1.79 3.1c-1 .58-1.8.11-1.8-1a4 4 0 0 1 1.8-3.1m-6.45 3.76c1-.57 1.79-.11 1.79 1a4 4 0 0 1-1.79 3.1c-1 .57-1.79.11-1.79-1a4 4 0 0 1 1.79-3.1m-6.45 3.71c1-.57 1.79-.11 1.79 1a4 4 0 0 1-1.79 3.1c-1 .57-1.79.11-1.79-1a4 4 0 0 1 1.79-3.1" style="fill:#fff"/><path d="M303.32 61.82V77L74.53 209.06v-15.18l4.8-2.78c1.28-.74 1.72-1.87 2.33-4l1.63-5.65c.51-2 1-3.3 2.34-4l54.22-31.22c1.29-.75 2.3-.83 3.28.8l2 3.62c.73 1.27 1.1 2 2.38 1.27ZM74.53 193.88v15.18l-4.39-2.53v-15.17z" style="fill:#e0e0e0"/><path d="M74.53 193.88v15.18l-4.39-2.53v-15.17z" style="opacity:.15"/><path d="m85.24 195-3.66 2.12L83 194.4a.64.64 0 0 0 0-.65c-.11-.13-.29 0-.42.19l-2 3.83a1 1 0 0 0 0 .14v.05a1.4 1.4 0 0 0 0 .2 1 1 0 0 0 0 .17.2.2 0 0 0 0 .08l2 1.53a.18.18 0 0 0 .2 0 .65.65 0 0 0 .22-.28c.11-.25.1-.53 0-.63L81.58 198l3.66-2.12a.77.77 0 0 0 .29-.62c0-.26-.13-.38-.29-.26m3.06-1.79 3.7-2.12-1.43-1.09c-.13-.1-.14-.38 0-.63s.29-.37.42-.28l2 1.53a.16.16 0 0 1 0 .08 1 1 0 0 1 0 .17 1.4 1.4 0 0 1 0 .2 1 1 0 0 1 0 .14l-2 3.83a.6.6 0 0 1-.2.22.16.16 0 0 1-.22 0 .64.64 0 0 1 0-.65L92 192l-3.66 2.11c-.16.1-.29 0-.29-.28a.77.77 0 0 1 .25-.62m12.02-10.55c0-.23-.21-.2-.31 0l-.5 1.23c-.86-.09-1.9.74-2.6 2.22-.9 1.93-.9 4.2 0 5.07a1.3 1.3 0 0 0 1.65.1 4.5 4.5 0 0 0 1.64-2 .6.6 0 0 0 0-.64c-.11-.11-.3 0-.41.24-.68 1.43-1.78 2.07-2.46 1.42s-.68-2.35 0-3.78c.48-1 1.18-1.63 1.78-1.67l-.38.93c-.1.24 0 .46.15.36l1.49-1a.46.46 0 0 0 .17-.41Zm37.92-29.59 1.34-2.83a.9.9 0 0 0 0-.88c-.16-.15-.42 0-.58.33l-1.33 2.83-1.34-1.29c-.15-.15-.41 0-.57.33a.85.85 0 0 0 0 .88l1.34 1.29-1.34 2.82a.85.85 0 0 0 0 .88.22.22 0 0 0 .29 0 .8.8 0 0 0 .28-.35l1.34-2.82 1.33 1.28a.23.23 0 0 0 .29 0 .8.8 0 0 0 .29-.35.9.9 0 0 0 0-.88Z" style="fill:#455a64;opacity:.5"/><path d="M105.18 186.13v-4.72a5.15 5.15 0 0 1 2.34-4l180.33-104c1.29-.74 2.34-.14 2.34 1.35v4.72a5.18 5.18 0 0 1-2.34 4l-180.33 104c-1.29.74-2.34.14-2.34-1.35" style="fill:#fafafa"/><path d="M284.68 83.82a.7.7 0 0 1-.21 0 .64.64 0 0 1-.35-.71l.23-1.92-.9-.64a.65.65 0 0 1-.25-.52 1.06 1.06 0 0 1 .39-.82l1.41-1.1a.3.3 0 0 0 0-.11l.61-2a.86.86 0 0 1 .69-.65.56.56 0 0 1 .54.33l.51 1.09 1.16-.44a.53.53 0 0 1 .62.14.84.84 0 0 1 0 .94l-1 1.86a.25.25 0 0 0 0 .12l.23 1.68a1 1 0 0 1-.29.84.64.64 0 0 1-.55.21l-1.09-.12-1.21 1.55a.69.69 0 0 1-.54.27m-.66-3.9.9.65a.68.68 0 0 1 .24.64l-.16 1.28.81-1a.68.68 0 0 1 .62-.29l1.12.14a.4.4 0 0 0 0-.13l-.24-1.68a1 1 0 0 1 .13-.61l.86-1.63-.89.35a.55.55 0 0 1-.71-.29l-.4-.86-.55 1.79a1 1 0 0 1-.34.51l-1.37 1.06a.3.3 0 0 0-.04.07Zm3.14-3.08" style="fill:#e0e0e0"/><g style="opacity:.5"><path d="M292.94 72.77a.81.81 0 0 1-.4-1.51l6.56-3.8a.81.81 0 0 1 1.11.3.8.8 0 0 1-.3 1.1l-6.57 3.8a.8.8 0 0 1-.4.11m0 3.79a.8.8 0 0 1-.7-.4.81.81 0 0 1 .3-1.11l6.56-3.79a.81.81 0 1 1 .81 1.4l-6.57 3.79a.7.7 0 0 1-.4.11m0 3.79a.8.8 0 0 1-.4-1.5l6.56-3.8a.81.81 0 0 1 1.11.3.81.81 0 0 1-.3 1.1l-6.57 3.8a.8.8 0 0 1-.4.1" style="fill:#455a64"/></g><path d="M318.64 81.27c-3.35-1.92-7.71-1.73-12.49 1C295.58 88.4 287 104.78 287 118.88c0 7.73 2.58 13.16 6.64 15.49l4.1 2.37c3.36 1.92 7.72 1.74 12.5-1 10.58-6.1 19.15-22.49 19.15-36.59 0-7.71-2.56-13.13-6.61-15.47Z" style="fill:#ebebeb"/><ellipse cx="310.24" cy="110.19" rx="29.4" ry="16.63" style="fill:#e0e0e0" transform="rotate(-66.95 310.23 110.192)"/><ellipse cx="310.24" cy="110.19" rx="23.06" ry="13.05" style="fill:#fafafa" transform="rotate(-66.95 310.23 110.192)"/><path d="M315.26 97.2a.36.36 0 0 1 .41 0 .52.52 0 0 1 .17.45v3.06a1.65 1.65 0 0 1-.15.66c-.1.23-.19.43-.28.6l-2.62 5a3.23 3.23 0 0 1 2.75.36c.71.5 1.06 1.51 1.06 3a10.55 10.55 0 0 1-1.69 5.87 13.36 13.36 0 0 1-4.71 4.37 8.4 8.4 0 0 1-2.76 1.1 3.6 3.6 0 0 1-2-.13 2.53 2.53 0 0 1-1.27-1.1 3.64 3.64 0 0 1-.46-1.82 1.1 1.1 0 0 1 .14-.53.84.84 0 0 1 .33-.38l2.73-1.57c.3-.18.53-.22.69-.13l.53.29a1.66 1.66 0 0 0 .76.15 3 3 0 0 0 1.33-.49 6.1 6.1 0 0 0 1.72-1.46 3 3 0 0 0 .68-1.86c0-.68-.23-1-.68-1.08a3 3 0 0 0-1.72.53l-1.8 1a.34.34 0 0 1-.41 0 .49.49 0 0 1-.17-.44v-2.48a1.7 1.7 0 0 1 .15-.67c.1-.23.2-.44.3-.64l2.3-4.41-5.65 3.26a.33.33 0 0 1-.41 0 .53.53 0 0 1-.18-.45v-3.06a1.3 1.3 0 0 1 .18-.64 1.07 1.07 0 0 1 .41-.47Z" style="fill:#455a64"/><path d="M291.09 121.24a31 31 0 0 0 .15 3.12l-53.65 31v-6.4l53.66-31c-.11 1.1-.16 2.19-.16 3.28" style="fill:#e6e6e6"/><path d="m291.24 117.96-53.65 30.97-4.09-2.36 53.65-30.98z" style="fill:#f0f0f0"/><path d="M231 131.88c-3.35-1.91-7.72-1.73-12.49 1-10.57 6.11-19.15 22.49-19.15 36.59 0 7.72 2.58 13.16 6.64 15.49l4.1 2.37c3.35 1.92 7.72 1.74 12.5-1 10.58-6.11 19.15-22.49 19.15-36.59 0-7.71-2.57-13.13-6.62-15.48Z" style="fill:#10b981"/><path d="M231 131.88c-3.35-1.91-7.72-1.73-12.49 1-10.57 6.11-19.15 22.49-19.15 36.59 0 7.72 2.58 13.16 6.64 15.49l4.1 2.37c3.35 1.92 7.72 1.74 12.5-1 10.58-6.11 19.15-22.49 19.15-36.59 0-7.71-2.57-13.13-6.62-15.48Z" style="fill:#fff;opacity:.30000000000000004"/><ellipse cx="222.57" cy="160.81" rx="29.4" ry="16.63" style="fill:#10b981" transform="rotate(-66.95 222.566 160.802)"/><ellipse cx="222.57" cy="160.81" rx="23.06" ry="13.05" style="fill:#fafafa" transform="rotate(-66.95 222.566 160.802)"/><path d="M228.48 153.79a12 12 0 0 1-.13 1.69 10.5 10.5 0 0 1-.45 1.77 16 16 0 0 1-.82 1.94c-.34.67-.75 1.39-1.24 2.16l-3 4.8 5.43-3.13a.35.35 0 0 1 .41 0 .55.55 0 0 1 .17.45v3.06a1.4 1.4 0 0 1-.17.64 1.14 1.14 0 0 1-.41.47l-11.42 6.6a.36.36 0 0 1-.42 0 .52.52 0 0 1-.17-.44v-2.5a4.2 4.2 0 0 1 .14-1 3.7 3.7 0 0 1 .49-1.06l6.47-9.91a7.6 7.6 0 0 0 .95-1.92 5 5 0 0 0 .19-1.31 3 3 0 0 0-.05-.53 1.23 1.23 0 0 0-.25-.57.82.82 0 0 0-.55-.31 1.67 1.67 0 0 0-1 .3 3.2 3.2 0 0 0-1 .84 4.5 4.5 0 0 0-.58 1 5 5 0 0 0-.31.88c-.06.28-.11.48-.14.62a1.6 1.6 0 0 1-.33.72 2 2 0 0 1-.53.44l-2.64 1.51a.29.29 0 0 1-.34 0 .43.43 0 0 1-.14-.36A12 12 0 0 1 217 158a13.3 13.3 0 0 1 1.12-2.82 12.8 12.8 0 0 1 1.86-2.66 10.5 10.5 0 0 1 2.62-2.12 6.1 6.1 0 0 1 2.53-.9 2.83 2.83 0 0 1 1.82.45 3.2 3.2 0 0 1 1.12 1.52 6.7 6.7 0 0 1 .41 2.32" style="fill:#455a64"/><path d="M203.42 171.86a31 31 0 0 0 .15 3.12l-53.65 31v-6.4l53.66-31c-.11 1.1-.16 2.19-.16 3.28" style="fill:#10b981"/><path d="M203.42 171.86a31 31 0 0 0 .15 3.12l-53.65 31v-6.4l53.66-31c-.11 1.1-.16 2.19-.16 3.28" style="fill:#fff;opacity:.30000000000000004"/><path d="m203.57 168.58-53.65 30.97-4.09-2.36 53.65-30.98z" style="fill:#10b981"/><path d="m203.57 168.58-53.65 30.97-4.09-2.36 53.65-30.98z" style="fill:#fff;opacity:.6000000000000001"/><path d="M143.3 182.5c-3.35-1.92-7.72-1.73-12.49 1-10.58 6.1-19.15 22.48-19.15 36.59 0 7.72 2.58 13.15 6.64 15.49.68.38 3.4 2 4.1 2.37 3.35 1.92 7.72 1.73 12.5-1 10.57-6.11 19.15-22.49 19.15-36.59 0-7.71-2.57-13.14-6.62-15.48Z" style="fill:#10b981"/><path d="M143.3 182.5c-3.35-1.92-7.72-1.73-12.49 1-10.58 6.1-19.15 22.48-19.15 36.59 0 7.72 2.58 13.15 6.64 15.49.68.38 3.4 2 4.1 2.37 3.35 1.92 7.72 1.73 12.5-1 10.57-6.11 19.15-22.49 19.15-36.59 0-7.71-2.57-13.14-6.62-15.48Z" style="fill:#fff;opacity:.30000000000000004"/><ellipse cx="134.9" cy="211.42" rx="29.4" ry="16.63" style="fill:#10b981" transform="rotate(-66.95 134.898 211.42)"/><ellipse cx="134.9" cy="211.42" rx="23.06" ry="13.05" style="fill:#fafafa" transform="rotate(-66.95 134.898 211.42)"/><path d="M128.53 211.5a.65.65 0 0 1-.1-.52 1.6 1.6 0 0 1 .23-.65l4.66-7.45c.11-.18.25-.39.42-.64a1.7 1.7 0 0 1 .57-.57l2.64-1.52a.36.36 0 0 1 .41 0 .52.52 0 0 1 .17.45v18.64a1.3 1.3 0 0 1-.17.64 1.07 1.07 0 0 1-.41.47l-2.83 1.65a.34.34 0 0 1-.41 0 .49.49 0 0 1-.18-.44v-12.63L131 213a1 1 0 0 1-.43.41.3.3 0 0 1-.39-.08Z" style="fill:#455a64"/><g style="opacity:.9"><path d="M83 342.14a5.41 5.41 0 0 0 2.44 4.24l.86.5a5.5 5.5 0 0 0 4.48.2c-1.15.44-2-.22-2-1.62v-66.79a5 5 0 0 1 .72-2.42l-5.76-3.32a5 5 0 0 0-.71 2.41Z" style="fill:#263238"/></g><path d="M184.06 221.15a2.2 2.2 0 0 0-1.1.33l-91.75 52.94a4.83 4.83 0 0 0-1.72 1.83 4.93 4.93 0 0 0-.72 2.41v66.8c0 1.12.54 1.76 1.35 1.76a1.9 1.9 0 0 0 .59-.11h.08a3.4 3.4 0 0 0 .43-.21l92-53.11c2.21-1.25 2.22-2.51 2.22-4.08v-66.8a3.4 3.4 0 0 0-.08-.69 1.27 1.27 0 0 0-1.26-1Z" style="fill:#37474f;opacity:.85"/><path d="M184.06 222.15c.08 0 .2 0 .28.28a2.6 2.6 0 0 1 0 .46v66.8c0 1.49 0 2.24-1.71 3.21L90.7 346a2 2 0 0 1-.24.12h-.07a1 1 0 0 1-.27 0c-.31 0-.35-.52-.35-.75v-66.8a4 4 0 0 1 .6-1.92 3.86 3.86 0 0 1 1.34-1.45l91.75-52.94a1.3 1.3 0 0 1 .6-.2m0-1a2.2 2.2 0 0 0-1.1.33l-91.75 53.03a4.83 4.83 0 0 0-1.72 1.83 4.93 4.93 0 0 0-.72 2.41v66.8c0 1.12.54 1.76 1.35 1.76a1.9 1.9 0 0 0 .59-.11h.08a3.4 3.4 0 0 0 .43-.21l92-53.11c2.21-1.25 2.22-2.51 2.22-4.08v-66.8a3.4 3.4 0 0 0-.08-.69 1.27 1.27 0 0 0-1.26-1Z" style="fill:#455a64"/><g style="opacity:.5"><path d="M185.32 222.2c-.28-1-1.23-1.38-2.36-.72l-91.75 52.94a4.83 4.83 0 0 0-1.72 1.83l-5.76-3.33a4.9 4.9 0 0 1 1.73-1.82l91.73-53a5.49 5.49 0 0 1 4.9 0l.87.5a5.43 5.43 0 0 1 2.36 3.6" style="fill:#37474f"/></g><path d="m95.74 292.26 81.89-47.28v4.73l-81.89 47.28zm.02 18.91 81.89-47.28v4.73L95.76 315.9zm0 9.46 81.89-47.27v4.72l-81.89 47.28zm43.59-43.99-43.61 25.17v4.73l43.61-25.18zm2.67-1.55v4.73l35.61-20.56v-4.73zm-45.35 11.82a.62.62 0 0 1-.59-.18.7.7 0 0 1-.12-.4 3.3 3.3 0 0 1 .13-.82c.09-.31.18-.49.29-.55a.3.3 0 0 1 .21 0l.22.06a.83.83 0 0 0 .59-.08 1.4 1.4 0 0 0 .47-.47 1.43 1.43 0 0 0 .19-.78 1.2 1.2 0 0 0-.1-.55.57.57 0 0 0-.25-.26 2.4 2.4 0 0 0-.44-.15 1.6 1.6 0 0 1-.94-.65 3.07 3.07 0 0 1-.29-1.54 4.7 4.7 0 0 1 .49-2.14 3.44 3.44 0 0 1 1.31-1.4 1.7 1.7 0 0 1 .62-.21.8.8 0 0 1 .5 0 .4.4 0 0 1 .16.37 4 4 0 0 1-.1.78c-.07.3-.15.47-.25.53a.6.6 0 0 1-.25 0 1 1 0 0 0-.55.12 1 1 0 0 0-.47.5 1.4 1.4 0 0 0-.13.58c0 .33 0 .55.17.65a1.2 1.2 0 0 0 .52.26l.2.06a1.42 1.42 0 0 1 .85.64 2.9 2.9 0 0 1 .26 1.44 6 6 0 0 1-.2 1.49 4.9 4.9 0 0 1-.63 1.37 3.2 3.2 0 0 1-1 1 2.2 2.2 0 0 1-.87.33m4.08-2.67v-7.11l-1 .55c-.08.05-.15 0-.19-.05a1.2 1.2 0 0 1-.06-.46v-.41a2 2 0 0 1 .06-.54.45.45 0 0 1 .19-.26l3.26-1.88c.09-.06.15 0 .19 0a1.2 1.2 0 0 1 .06.47v.45a2 2 0 0 1-.06.53.43.43 0 0 1-.19.27l-1 .56v7.1a.82.82 0 0 1-.5.71l-.35.21c-.24.19-.41.14-.41-.14m3.19-1.57a.54.54 0 0 1-.08-.35v-8.18a1.2 1.2 0 0 1 .08-.45.55.55 0 0 1 .24-.26l2.53-1.46a.11.11 0 0 1 .18 0 1.2 1.2 0 0 1 .06.47v.41a2 2 0 0 1-.06.53.46.46 0 0 1-.18.27l-1.51.87v1.91l1.33-.77c.09 0 .15 0 .19.05a1.2 1.2 0 0 1 .06.46v.41a2 2 0 0 1-.06.54.43.43 0 0 1-.19.27l-1.33.77v2.13l1.51-.87c.09-.05.15 0 .19 0a1.6 1.6 0 0 1 0 .47v.41a2.4 2.4 0 0 1 0 .53.43.43 0 0 1-.19.27l-2.53 1.46c-.11.16-.18.17-.24.11m3.82-2.47v-8.31a1.2 1.2 0 0 1 .08-.45.63.63 0 0 1 .26-.28l1.48-.85a1.15 1.15 0 0 1 1.2-.09c.34.2.51.86.51 2a6 6 0 0 1-.29 2 4.4 4.4 0 0 1-.67 1.25 3.2 3.2 0 0 1-.66.61l-.59.34v3.06a.82.82 0 0 1-.52.71l-.29.17q-.51.26-.51-.16m1.76-5.78a.9.9 0 0 0 .34-.46 2.7 2.7 0 0 0 .15-1 1.44 1.44 0 0 0-.15-.82.24.24 0 0 0-.34-.06l-.45.26v2.35Zm3.39 3.04a1.2 1.2 0 0 1-.06-.46v-.23a1.8 1.8 0 0 1 .06-.53.5.5 0 0 1 .19-.28l.92-.52v-5.93l-.93.74c-.09.05-.16 0-.21-.25a4 4 0 0 1-.06-.7.63.63 0 0 1 .22-.5l1.9-1.63a.27.27 0 0 1 .23 0 .14.14 0 0 1 .12.15v7.42l.72-.41c.09-.06.15 0 .19 0a1.2 1.2 0 0 1 .06.47v.2a2 2 0 0 1-.06.54.43.43 0 0 1-.19.27l-2.91 1.68c-.1.07-.1.05-.19-.03m63.64 5.98-22.4 12.92a2.4 2.4 0 0 0-1.09 1.89v6.93c0 .7.49 1 1.09.63l22.4-12.91a2.4 2.4 0 0 0 1.1-1.89v-6.94c0-.69-.49-.97-1.1-.63m-13.87 15.37a.51.51 0 0 1-.31.44l-.1.06a.35.35 0 0 1-.18.05s-.08 0-.11-.12l-1-2.19q0-.1-.15-.45a5 5 0 0 1 0 .54v2.69a.51.51 0 0 1-.31.44l-.13.07c-.2.12-.3.09-.3-.08v-5.24a.52.52 0 0 1 .3-.44l.14-.08a.26.26 0 0 1 .17-.05s.08 0 .11.12l1 2.12.18.53V294a.52.52 0 0 1 .31-.44l.13-.08c.21-.11.31-.09.31.09Zm2.63-6.34a1 1 0 0 1 0 .33.3.3 0 0 1-.11.17l-.94.54v1.18l.83-.48a.08.08 0 0 1 .12 0 1 1 0 0 1 0 .29v.26a1.4 1.4 0 0 1 0 .33.37.37 0 0 1-.12.17l-.83.47v1.33l.94-.54a.08.08 0 0 1 .12 0 1 1 0 0 1 0 .29v.25a1.4 1.4 0 0 1 0 .33.32.32 0 0 1-.12.17l-1.57.91h-.15a.4.4 0 0 1-.05-.23v-5.07a.7.7 0 0 1 .05-.28.33.33 0 0 1 .15-.16l1.57-.91h.11a.7.7 0 0 1 0 .29ZM168 296l-.23.13c-.17.11-.27.11-.29 0l-.43-1.84-.48 2.36a.4.4 0 0 1-.09.19 2 2 0 0 1-.2.14l-.24.14c-.21.12-.32.13-.32 0a2 2 0 0 1 .05-.23l.77-3.08-.67-2a.4.4 0 0 1-.05-.17.3.3 0 0 1 .08-.17 2 2 0 0 1 .24-.17l.25-.15a1 1 0 0 1 .19-.08.08.08 0 0 1 .09.07l.38 1.72.4-2.16a.4.4 0 0 1 .09-.18 1 1 0 0 1 .21-.15l.25-.15c.21-.12.31-.13.31 0a1 1 0 0 1 0 .23l-.72 2.83.72 2.2v.09a.4.4 0 0 1 0 .1c-.02.11-.13.22-.31.33m2.88-6.74a1 1 0 0 1 0 .33.25.25 0 0 1-.12.17l-.59.34v4.42a.53.53 0 0 1-.31.44l-.22.12c-.21.12-.31.09-.31-.08v-4.4l-.59.34a.08.08 0 0 1-.12 0 1 1 0 0 1 0-.29v-.26a1.4 1.4 0 0 1 0-.33.32.32 0 0 1 .12-.17l2-1.16h.12a.7.7 0 0 1 0 .29Zm-69.95 44.86a4.2 4.2 0 0 1-.33-2 6.7 6.7 0 0 1 .35-2.4 2.53 2.53 0 0 1 1.09-1.35 1.3 1.3 0 0 1 .47-.18c.1 0 .16.07.16.26a2.3 2.3 0 0 1-.07.59c0 .2-.11.29-.18.3a.9.9 0 0 0-.34.11 1.2 1.2 0 0 0-.48.73 5.6 5.6 0 0 0-.15 1.45 3.8 3.8 0 0 0 .15 1.28.32.32 0 0 0 .51.17l.17-.12.18-.17a.07.07 0 0 1 .05 0c.07 0 .12 0 .16.11a2.2 2.2 0 0 1 0 .51 1 1 0 0 1 0 .23.6.6 0 0 1-.13.21 3 3 0 0 1-.24.22 2 2 0 0 1-.3.21c-.48.21-.84.18-1.07-.16m1.92-.63a1 1 0 0 1 0-.15l.81-5.68a.61.61 0 0 1 .33-.42l.34-.2c.2-.11.31-.1.33 0l.82 4.73a1 1 0 0 1 0 .14.38.38 0 0 1-.22.32l-.29.16c-.17.1-.26.09-.28 0l-.14-.92-.8.47-.15 1.08a.45.45 0 0 1-.25.32l-.27.15c-.15.13-.23.12-.23 0m1.64-2.93-.24-1.6c0-.18 0-.38-.06-.59 0 .23 0 .45-.06.66l-.23 1.87Zm1.31 1.15v-5.24a.5.5 0 0 1 .31-.44l.14-.08a.26.26 0 0 1 .17-.05s.08 0 .1.12l1 2.11a6 6 0 0 1 .18.54 6 6 0 0 1 0-.62v-2.61a.5.5 0 0 1 .3-.44l.13-.08c.2-.12.31-.09.31.09v5.24a.53.53 0 0 1-.31.44h-.1a.3.3 0 0 1-.18.06s-.08 0-.11-.12l-1-2.2a3 3 0 0 1-.14-.44 5 5 0 0 1 0 .53v2.7a.53.53 0 0 1-.31.44l-.13.07c-.26.18-.36.15-.36-.02m3.4-2.36a4.06 4.06 0 0 1-.34-2 6.9 6.9 0 0 1 .35-2.4 2.53 2.53 0 0 1 1.09-1.35 1.3 1.3 0 0 1 .47-.18c.11 0 .16.07.16.26a2.3 2.3 0 0 1-.07.59c0 .2-.11.29-.18.3a.9.9 0 0 0-.34.11 1.16 1.16 0 0 0-.47.73 5.1 5.1 0 0 0-.16 1.45 3.5 3.5 0 0 0 .16 1.28.31.31 0 0 0 .5.17l.17-.12.18-.17c.07 0 .12 0 .16.11a2.2 2.2 0 0 1 0 .51 1 1 0 0 1 0 .23.4.4 0 0 1-.13.2l-.23.23a3 3 0 0 1-.31.21c-.43.21-.79.18-1.01-.16m2.25-.74a.35.35 0 0 1 0-.22v-5.07a.7.7 0 0 1 0-.28.35.35 0 0 1 .15-.17l1.57-.9a.08.08 0 0 1 .12 0 1 1 0 0 1 0 .29v.25a1.5 1.5 0 0 1 0 .34.3.3 0 0 1-.12.16l-.94.54v1.19l.83-.48h.12a.9.9 0 0 1 0 .29v.25a1.4 1.4 0 0 1 0 .34.23.23 0 0 1-.12.16l-.83.48v1.33l.94-.55h.12a1 1 0 0 1 0 .3v.25a1.4 1.4 0 0 1 0 .33.27.27 0 0 1-.12.17l-1.57.9c-.07.13-.12.14-.15.1m2.43-1.4a.35.35 0 0 1 0-.22v-5.16a.53.53 0 0 1 .31-.44l.22-.12c.2-.12.3-.09.3.08v4.41l.8-.45a.07.07 0 0 1 .12 0 1 1 0 0 1 0 .29v.26a1.4 1.4 0 0 1 0 .33.32.32 0 0 1-.12.17l-1.43.82c-.08.06-.17.06-.2.03" style="fill:#37474f"/><path d="M96.36 339.3a.74.74 0 0 1-.41-.11 1 1 0 0 1-.44-.92v-6.94a2.66 2.66 0 0 1 1.21-2.11l22.4-12.91a1 1 0 0 1 1-.08 1 1 0 0 1 .44.93v6.94a2.64 2.64 0 0 1-1.21 2.1L97 339.12a1.3 1.3 0 0 1-.64.18m23.38-22.67a.7.7 0 0 0-.36.12L97 329.66a2.16 2.16 0 0 0-1 1.67v6.94a.55.55 0 0 0 .19.49.55.55 0 0 0 .52-.08l22.4-12.91a2.17 2.17 0 0 0 1-1.67v-6.94a.55.55 0 0 0-.19-.49.4.4 0 0 0-.18-.04" style="fill:#37474f"/><g style="opacity:.9"><path d="M265.2 237a5.42 5.42 0 0 0 2.45 4.25l.86.49a5.46 5.46 0 0 0 4.48.21c-1.15.44-2-.22-2-1.62v-66.8a4.9 4.9 0 0 1 .72-2.41l-5.76-3.33a5 5 0 0 0-.72 2.42Z" style="fill:#263238"/></g><path d="M366.24 116a2.26 2.26 0 0 0-1.09.33l-91.76 52.94a5 5 0 0 0-1.72 1.83 5.1 5.1 0 0 0-.72 2.42v66.8c0 1.11.55 1.75 1.35 1.75a1.8 1.8 0 0 0 .59-.1.3.3 0 0 0 .09 0 2.4 2.4 0 0 0 .43-.21l92-53.1c2.2-1.25 2.22-2.51 2.22-4.08v-66.8a2.8 2.8 0 0 0-.09-.69 1.27 1.27 0 0 0-1.26-1.06Z" style="fill:#37474f;opacity:.85"/><path d="M366.24 117c.09 0 .21 0 .28.28a1.8 1.8 0 0 1 .06.46v66.8c0 1.49 0 2.23-1.72 3.2l-92 53.12-.24.12h-.08a.7.7 0 0 1-.27.05c-.31 0-.34-.52-.34-.74v-66.8a4 4 0 0 1 .59-1.93 3.9 3.9 0 0 1 1.35-1.44l91.75-52.94a1.16 1.16 0 0 1 .59-.2m0-1a2.26 2.26 0 0 0-1.09.33l-91.76 52.94a5 5 0 0 0-1.72 1.83 5.1 5.1 0 0 0-.72 2.42v66.8c0 1.11.55 1.75 1.35 1.75a1.8 1.8 0 0 0 .59-.1.3.3 0 0 0 .09 0 2.4 2.4 0 0 0 .43-.21l92-53.1c2.2-1.25 2.22-2.51 2.22-4.08v-66.8a2.8 2.8 0 0 0-.09-.69 1.27 1.27 0 0 0-1.26-1.06Z" style="fill:#455a64"/><g style="opacity:.5"><path d="M367.51 117c-.29-1-1.23-1.37-2.37-.72l-91.74 52.96a4.93 4.93 0 0 0-1.73 1.83l-5.75-3.32a4.9 4.9 0 0 1 1.72-1.83L359.38 113a5.42 5.42 0 0 1 4.9 0l.86.5a5.4 5.4 0 0 1 2.37 3.5" style="fill:#37474f"/></g><path d="m277.93 187.08 81.88-47.27v4.72l-81.88 47.28zm.01 18.92 81.89-47.28v4.73l-81.89 47.27zm0 9.46 81.89-47.28v4.73l-81.89 47.28zm43.59-44-43.6 25.18v4.73l43.6-25.18zm2.68-1.54v4.73l35.6-20.56v-4.73zm-45.35 11.81a.67.67 0 0 1-.6-.17.77.77 0 0 1-.11-.4 3 3 0 0 1 .13-.83.93.93 0 0 1 .28-.54.27.27 0 0 1 .22 0l.22.06a.8.8 0 0 0 .59-.08 1.27 1.27 0 0 0 .46-.46 1.47 1.47 0 0 0 .2-.79 1.3 1.3 0 0 0-.1-.54.62.62 0 0 0-.26-.27 4 4 0 0 0-.43-.14 1.6 1.6 0 0 1-.94-.66 3 3 0 0 1-.29-1.53 4.6 4.6 0 0 1 .49-2.15 3.35 3.35 0 0 1 1.31-1.42 1.7 1.7 0 0 1 .61-.22.9.9 0 0 1 .51 0c.1.06.15.18.15.38a3.3 3.3 0 0 1-.1.78c-.06.29-.14.47-.24.52a.5.5 0 0 1-.25 0 1.06 1.06 0 0 0-1 .62 1.6 1.6 0 0 0-.13.59.94.94 0 0 0 .17.65 1.14 1.14 0 0 0 .53.25l.2.06a1.5 1.5 0 0 1 .85.64 3.1 3.1 0 0 1 .26 1.45 5.4 5.4 0 0 1-.21 1.48 4.5 4.5 0 0 1-.62 1.37 3 3 0 0 1-1 1 2.2 2.2 0 0 1-.9.35m4.08-2.66V172l-.95.55c-.09.05-.15 0-.19 0a1.2 1.2 0 0 1-.06-.47v-.41a2 2 0 0 1 .06-.53.43.43 0 0 1 .19-.27l3.25-1.88c.09-.05.16 0 .2 0a1.2 1.2 0 0 1 .06.46v.41a2 2 0 0 1-.06.54.44.44 0 0 1-.2.27l-1 .55v7.11a.82.82 0 0 1-.49.71l-.36.2c-.29.15-.45.11-.45-.17m3.18-1.57a.6.6 0 0 1-.07-.36V169a1.1 1.1 0 0 1 .07-.44.6.6 0 0 1 .24-.27l2.53-1.45c.09-.05.15 0 .19 0a1.2 1.2 0 0 1 .06.46v.41a2 2 0 0 1-.06.54.44.44 0 0 1-.19.26l-1.51.87v1.92l1.34-.77h.19a1.3 1.3 0 0 1 .06.47v.41a2 2 0 0 1-.06.54.48.48 0 0 1-.19.26l-1.34.77v2.14l1.52-.88q.12-.07.18.06a1.2 1.2 0 0 1 .06.46v.41a2 2 0 0 1-.06.54.47.47 0 0 1-.18.26l-2.54 1.47c-.11.11-.19.11-.24.06m3.82-2.5v-8.31a1.1 1.1 0 0 1 .08-.44.66.66 0 0 1 .27-.28l1.48-.86A1.15 1.15 0 0 1 293 165c.35.21.52.87.52 2a5.8 5.8 0 0 1-.3 2 4.3 4.3 0 0 1-.67 1.25 2.5 2.5 0 0 1-.66.6l-.59.34v3.06a.85.85 0 0 1-.51.72l-.29.17c-.38.21-.56.16-.56-.14m1.77-5.78a.92.92 0 0 0 .34-.46 2.6 2.6 0 0 0 .15-1 1.4 1.4 0 0 0-.15-.82.23.23 0 0 0-.34-.06l-.46.26v2.35Zm4.17 2.78a1.2 1.2 0 0 1-.69.05c-.19 0-.29-.2-.29-.45a2.5 2.5 0 0 1 .07-.42c0-.19.1-.36.16-.53a.6.6 0 0 1 .19-.29s.09 0 .19 0a1.1 1.1 0 0 0 .39.07.93.93 0 0 0 .44-.14 1.5 1.5 0 0 0 .58-.67 2.55 2.55 0 0 0 .21-1.07 1.23 1.23 0 0 0-.22-.88c-.15-.13-.39-.11-.72.08l-.3.17c-.09.06-.16 0-.2 0a1.2 1.2 0 0 1-.06-.47v-.23a2 2 0 0 1 .06-.54.44.44 0 0 1 .2-.27l.22-.13a1.5 1.5 0 0 0 .6-.64 2 2 0 0 0 .22-.93 1.1 1.1 0 0 0-.16-.69c-.11-.13-.27-.13-.47 0a1.2 1.2 0 0 0-.37.3 3 3 0 0 0-.26.35c-.08.13-.13.2-.16.21s-.18 0-.28-.2a1.14 1.14 0 0 1-.15-.55 1.5 1.5 0 0 1 .45-1 4 4 0 0 1 1.08-.87c.49-.29.88-.3 1.17-.06a1.85 1.85 0 0 1 .44 1.43 3.9 3.9 0 0 1-.22 1.31 3.3 3.3 0 0 1-.58 1.08v.05a.81.81 0 0 1 .75.48 3 3 0 0 1 .24 1.31 5.4 5.4 0 0 1-.49 2.33 3.07 3.07 0 0 1-2 1.81Zm62.86 6.27-22.4 12.91a2.43 2.43 0 0 0-1.09 1.89V200c0 .69.49 1 1.09.63l22.4-12.92a2.4 2.4 0 0 0 1.09-1.89v-6.92c0-.7-.49-.98-1.09-.63m-16.17 11.9a1.4 1.4 0 0 1 0 .33.34.34 0 0 1-.12.16l-.82.47v1.19l.77-.45h.12a.9.9 0 0 1 0 .29v.25a1.3 1.3 0 0 1 0 .33.28.28 0 0 1-.12.17l-.77.44v2.13a.51.51 0 0 1-.31.44l-.21.12c-.2.12-.3.09-.3-.08v-5.12a.7.7 0 0 1 0-.27.35.35 0 0 1 .15-.17l1.45-.83a.08.08 0 0 1 .12 0 .9.9 0 0 1 0 .28Zm1.37 4a.51.51 0 0 1-.3.44l-.22.13c-.21.12-.31.09-.31-.09v-5.2a.49.49 0 0 1 .31-.44l.22-.13c.2-.12.3-.08.3.09Zm3.25-1.88a.52.52 0 0 1-.31.44l-.1.06a.26.26 0 0 1-.17.05c-.05 0-.09 0-.11-.11l-1-2.18a3 3 0 0 1-.14-.44 4 4 0 0 1 0 .53v2.67a.5.5 0 0 1-.3.43l-.13.08c-.2.11-.31.09-.31-.09v-5.19a.52.52 0 0 1 .31-.44l.14-.08a.25.25 0 0 1 .17-.05s.07.05.1.12l1 2.1a4 4 0 0 1 .18.53 6 6 0 0 1 0-.62v-2.59a.5.5 0 0 1 .31-.43l.12-.08c.2-.11.31-.08.31.09Zm1.51-.87a.51.51 0 0 1-.31.44l-.22.13q-.3.18-.3-.09v-5.2a.52.52 0 0 1 .3-.44l.22-.13c.2-.11.31-.08.31.1Zm2.52-2a3 3 0 0 1-.39.84 1.9 1.9 0 0 1-.64.61 1.14 1.14 0 0 1-.51.17.4.4 0 0 1-.37-.1.5.5 0 0 1-.07-.25 2 2 0 0 1 .08-.51.55.55 0 0 1 .18-.33s.07 0 .13 0h.13a.52.52 0 0 0 .37 0 .8.8 0 0 0 .28-.29.9.9 0 0 0 .12-.48.8.8 0 0 0-.06-.34.34.34 0 0 0-.15-.16l-.27-.09a1 1 0 0 1-.58-.4 1.87 1.87 0 0 1-.18-.95 2.9 2.9 0 0 1 .3-1.32 2.1 2.1 0 0 1 .81-.87 1 1 0 0 1 .38-.14.5.5 0 0 1 .31 0c.06 0 .09.11.09.23a2.2 2.2 0 0 1-.06.48c0 .18-.09.29-.15.32a.3.3 0 0 1-.15 0 .6.6 0 0 0-.34.07.62.62 0 0 0-.29.31.8.8 0 0 0-.08.36.57.57 0 0 0 .1.4.74.74 0 0 0 .32.16h.13a.9.9 0 0 1 .52.4 1.8 1.8 0 0 1 .16.89 3.6 3.6 0 0 1-.12.98Zm3.18-1.29a.51.51 0 0 1-.31.44l-.21.12c-.21.12-.31.09-.31-.08v-2.12l-.9.52v2.12a.5.5 0 0 1-.3.43l-.22.13c-.21.12-.31.09-.31-.08v-5.2a.51.51 0 0 1 .31-.44l.22-.12c.2-.12.3-.09.3.08v2l.9-.52v-2a.49.49 0 0 1 .31-.43l.21-.13c.21-.12.31-.09.31.08Zm-71.28 40.81a4.2 4.2 0 0 1-.34-2 6.7 6.7 0 0 1 .36-2.4 2.56 2.56 0 0 1 1.09-1.35 1.4 1.4 0 0 1 .46-.17c.11 0 .17.07.17.25a2.4 2.4 0 0 1-.08.6c0 .19-.1.29-.17.29a.73.73 0 0 0-.34.12 1.1 1.1 0 0 0-.48.72 5.6 5.6 0 0 0-.16 1.46 3.7 3.7 0 0 0 .16 1.28.3.3 0 0 0 .5.16.8.8 0 0 0 .17-.12 1.3 1.3 0 0 0 .18-.17h.05c.07 0 .13 0 .16.12a1.7 1.7 0 0 1 0 .51.8.8 0 0 1 0 .22.6.6 0 0 1-.12.21 2 2 0 0 1-.24.22 1.6 1.6 0 0 1-.31.22c-.47.2-.83.18-1.06-.17m1.88-.62a1 1 0 0 1 0-.16l.82-5.68a.59.59 0 0 1 .33-.41l.34-.2c.2-.12.31-.1.33 0l.82 4.73a1 1 0 0 1 0 .14c0 .12-.08.22-.23.31l-.28.17c-.17.09-.26.09-.28 0l-.14-.92-.81.46-.14 1.08a.45.45 0 0 1-.25.32l-.28.16c-.11.13-.23.12-.23 0m1.64-2.94-.24-1.6c0-.18-.05-.37-.06-.58l-.06.66-.24 1.87Zm1.36 1.15v-5.24a.51.51 0 0 1 .31-.44l.13-.08a.4.4 0 0 1 .17-.05s.08.05.11.12l1 2.12a4 4 0 0 1 .18.53 6 6 0 0 1 0-.62v-2.61a.51.51 0 0 1 .31-.44l.12-.07c.21-.12.31-.09.31.08V225a.51.51 0 0 1-.31.44l-.1.06a.26.26 0 0 1-.17.05c-.05 0-.09 0-.12-.11l-1-2.2a3 3 0 0 1-.14-.44 4 4 0 0 1 0 .53v2.69a.5.5 0 0 1-.31.44l-.12.08c-.28.19-.37.17-.37-.01m3.38-2.36a4.2 4.2 0 0 1-.34-2 6.7 6.7 0 0 1 .36-2.4 2.56 2.56 0 0 1 1.09-1.35 1.5 1.5 0 0 1 .46-.17c.11 0 .17.07.17.25a3 3 0 0 1-.07.6c-.05.19-.11.29-.18.29a.73.73 0 0 0-.34.12 1.14 1.14 0 0 0-.48.72 5.7 5.7 0 0 0-.15 1.46 3.8 3.8 0 0 0 .15 1.28c.11.24.27.3.5.16l.17-.11.18-.18h.05c.07 0 .13 0 .16.12a1.6 1.6 0 0 1 .06.51.5.5 0 0 1 0 .22.6.6 0 0 1-.12.21 2 2 0 0 1-.24.22 1.6 1.6 0 0 1-.31.22q-.77.36-1.12-.17m2.26-.73a.4.4 0 0 1-.05-.23v-5.07a.7.7 0 0 1 .05-.28.33.33 0 0 1 .15-.16l1.57-.91h.11a.7.7 0 0 1 0 .29v.26a1 1 0 0 1 0 .33.27.27 0 0 1-.11.17l-.94.54v1.18l.83-.48a.08.08 0 0 1 .12 0 1 1 0 0 1 0 .29v.26a1.4 1.4 0 0 1 0 .33.32.32 0 0 1-.12.17l-.83.48V222l.94-.54h.12a1 1 0 0 1 0 .29v.25a1.5 1.5 0 0 1 0 .34.26.26 0 0 1-.12.16l-1.57.91c-.07.06-.12.06-.15.03m2.43-1.44a.33.33 0 0 1-.05-.22v-5.15a.5.5 0 0 1 .31-.44l.21-.13c.21-.12.31-.09.31.09v4.41l.79-.46h.12a.7.7 0 0 1 0 .29v.25a1 1 0 0 1 0 .33.23.23 0 0 1-.12.17l-1.42.83q-.11.12-.15.03" style="fill:#37474f"/><path d="M278.55 234.13a.8.8 0 0 1-.41-.11 1 1 0 0 1-.45-.93v-6.93a2.66 2.66 0 0 1 1.22-2.11l22.4-12.91a1 1 0 0 1 1-.08 1 1 0 0 1 .44.92v6.94a2.65 2.65 0 0 1-1.22 2.11l-22.4 12.91a1.3 1.3 0 0 1-.58.19m23-22.56-22.4 12.92a2.16 2.16 0 0 0-1 1.67v6.93a.55.55 0 0 0 .19.49.54.54 0 0 0 .52-.07l22.4-12.92a2.18 2.18 0 0 0 1-1.67V212a.52.52 0 0 0-.2-.48.54.54 0 0 0-.52.07Z" style="fill:#37474f"/><path d="M167 361.17a5.42 5.42 0 0 0 2.45 4.24l.86.5a5.5 5.5 0 0 0 4.48.2c-1.15.44-2-.22-2-1.62V246.61a4.93 4.93 0 0 1 .72-2.41l-5.76-3.32a4.9 4.9 0 0 0-.72 2.41Z" style="fill:#10b981"/><path d="M167 361.17a5.42 5.42 0 0 0 2.45 4.24l.86.5a5.5 5.5 0 0 0 4.48.2c-1.15.44-2-.22-2-1.62V246.61a4.93 4.93 0 0 1 .72-2.41l-5.76-3.32a4.9 4.9 0 0 0-.72 2.41Z" style="fill:#fff;opacity:.30000000000000004"/><path d="M174.82 365.43a2.3 2.3 0 0 1-.32.15h-.09a1.3 1.3 0 0 1-.37.06c-.57 0-.66-.66-.66-1.06V246.74a4.3 4.3 0 0 1 .63-2.07 4.25 4.25 0 0 1 1.47-1.58l120.35-69.43a1.5 1.5 0 0 1 .75-.24c.12 0 .45 0 .59.54a2.2 2.2 0 0 1 .06.51v117.88c0 1.51 0 2.42-1.87 3.47Z" style="fill:#fafafa"/><path d="M296.52 174a2 2 0 0 1 0 .35v117.88c0 1.42 0 2-1.53 2.87l-120.54 69.62-.19.09h-.07a1.4 1.4 0 0 1 0-.36V246.61a3.7 3.7 0 0 1 .55-1.74 3.4 3.4 0 0 1 1.2-1.3l120.34-69.43a1 1 0 0 1 .33-.14m.08-1.4a2.3 2.3 0 0 0-1.1.33l-120.44 69.44a4.9 4.9 0 0 0-1.72 1.83 5 5 0 0 0-.72 2.41v117.88c0 1.11.55 1.75 1.35 1.75a1.8 1.8 0 0 0 .59-.1h.09a2 2 0 0 0 .43-.21l120.55-69.6c2.21-1.24 2.22-2.51 2.22-4.07V174.35a3 3 0 0 0-.08-.7 1.27 1.27 0 0 0-1.26-1.05Z" style="fill:#10b981"/><path d="M297.87 173.65c-.29-1-1.24-1.37-2.37-.72l-120.34 69.44a4.86 4.86 0 0 0-1.73 1.83l-5.75-3.33a4.9 4.9 0 0 1 1.72-1.82l120.33-69.44a5.44 5.44 0 0 1 4.91 0l.86.5a5.4 5.4 0 0 1 2.37 3.54" style="fill:#10b981"/><path d="M297.87 173.65c-.29-1-1.24-1.37-2.37-.72l-120.34 69.44a4.86 4.86 0 0 0-1.73 1.83l-5.75-3.33a4.9 4.9 0 0 1 1.72-1.82l120.33-69.44a5.44 5.44 0 0 1 4.91 0l.86.5a5.4 5.4 0 0 1 2.37 3.54" style="fill:#fff;opacity:.6000000000000001"/><path d="M181.63 257.88a.65.65 0 0 1-.6-.18.7.7 0 0 1-.11-.39 3 3 0 0 1 .13-.83 1 1 0 0 1 .28-.54.27.27 0 0 1 .22 0l.22.06a.8.8 0 0 0 .59-.08 1.27 1.27 0 0 0 .46-.46 1.4 1.4 0 0 0 .2-.79 1.2 1.2 0 0 0-.1-.55.65.65 0 0 0-.26-.26 1.8 1.8 0 0 0-.43-.14 1.6 1.6 0 0 1-.94-.66 3.06 3.06 0 0 1-.29-1.53 4.6 4.6 0 0 1 .49-2.15 3.3 3.3 0 0 1 1.31-1.38 1.55 1.55 0 0 1 .61-.22.9.9 0 0 1 .51 0c.1.06.15.18.15.38a4 4 0 0 1-.09.78c-.07.29-.15.47-.25.52a.5.5 0 0 1-.25 0 1.15 1.15 0 0 0-.55.12 1 1 0 0 0-.47.5 1.4 1.4 0 0 0-.13.59.9.9 0 0 0 .16.64 1.14 1.14 0 0 0 .53.26l.2.06a1.42 1.42 0 0 1 .85.64 3.1 3.1 0 0 1 .26 1.45 5.5 5.5 0 0 1-.21 1.48 4.5 4.5 0 0 1-.62 1.37 3.1 3.1 0 0 1-1 1 2.1 2.1 0 0 1-.87.31m4.08-2.66v-7.11l-1 .55c-.09.05-.15 0-.19 0a1.3 1.3 0 0 1-.06-.47v-.41a1.8 1.8 0 0 1 .06-.53.43.43 0 0 1 .19-.27l3.25-1.88c.1-.05.16 0 .2 0a1.3 1.3 0 0 1 .06.47v.43a2 2 0 0 1-.06.54.46.46 0 0 1-.2.27l-1 .55v7.11a.82.82 0 0 1-.49.71l-.35.2c-.24.16-.41.12-.41-.16m3.19-1.57a.53.53 0 0 1-.08-.36v-8.18a.94.94 0 0 1 .08-.44.57.57 0 0 1 .24-.27l2.52-1.46c.09-.05.15 0 .19.05a1.3 1.3 0 0 1 .06.47v.41a1.8 1.8 0 0 1-.06.53.43.43 0 0 1-.19.27l-1.51.87v1.91l1.34-.77c.09-.05.15 0 .19 0a1.2 1.2 0 0 1 .06.47v.41a1.8 1.8 0 0 1-.06.53.43.43 0 0 1-.19.27l-1.34.77v2.14l1.52-.88c.09-.05.15 0 .18.05a1.3 1.3 0 0 1 .06.47v.41a2 2 0 0 1-.06.54.4.4 0 0 1-.18.26l-2.53 1.46c-.14.12-.14.12-.24.07m3.81-2.48v-8.31a1 1 0 0 1 .09-.45.6.6 0 0 1 .26-.27l1.48-.86a1.13 1.13 0 0 1 1.19-.09c.35.2.52.87.52 2a5.7 5.7 0 0 1-.3 2 4 4 0 0 1-.67 1.25 2.5 2.5 0 0 1-.66.61l-.59.34v3.06a.85.85 0 0 1-.51.72l-.29.17c-.34.15-.52.11-.52-.17m1.77-5.78a.92.92 0 0 0 .34-.46 2.7 2.7 0 0 0 .15-1 1.44 1.44 0 0 0-.15-.82.25.25 0 0 0-.34-.06l-.45.27v2.34Zm3.27 2.85a3.5 3.5 0 0 1-.08-.7.6.6 0 0 1 0-.21l1.87-5.26a7 7 0 0 0 .25-.87 2.5 2.5 0 0 0 .08-.64c0-.31-.06-.5-.18-.59a.47.47 0 0 0-.5.06 1.4 1.4 0 0 0-.39.34 6 6 0 0 0-.38.51.9.9 0 0 1-.22.29c-.12.07-.24 0-.34-.12a1 1 0 0 1-.15-.51 2 2 0 0 1 .53-1.19 4.1 4.1 0 0 1 1.15-1c.57-.33 1-.36 1.31-.09a1.94 1.94 0 0 1 .46 1.48 6.6 6.6 0 0 1-.46 2.28l-1.48 4.22 1.72-1c.09-.06.16 0 .2 0a1.2 1.2 0 0 1 .06.47v.29a2 2 0 0 1-.06.54.44.44 0 0 1-.2.27l-3.06 1.76s-.08-.08-.13-.33" style="fill:#37474f"/><path d="m287.21 276.13-29.16 16.81a3.11 3.11 0 0 0-1.42 2.46v9c0 .9.63 1.27 1.42.82l29.16-16.81a3.17 3.17 0 0 0 1.42-2.46v-9c0-.95-.63-1.28-1.42-.82m-18.06 20a.67.67 0 0 1-.41.57l-.13.08a.5.5 0 0 1-.23.07c-.06 0-.1-.06-.14-.16l-1.32-2.86a3.5 3.5 0 0 1-.19-.57v.05c0 .31.05.54.05.69v3.51a.65.65 0 0 1-.4.57l-.17.1c-.26.15-.4.12-.4-.11v-6.82a.67.67 0 0 1 .4-.57l.18-.11a.5.5 0 0 1 .23-.07c.05 0 .1.06.13.16l1.25 2.76c.06.15.14.38.23.69a7 7 0 0 1-.05-.81v-3.4a.68.68 0 0 1 .4-.58l.16-.09c.27-.16.41-.12.41.11Zm3.42-8.26a1.7 1.7 0 0 1-.05.44.34.34 0 0 1-.15.21l-1.22.71v1.54l1.08-.62h.15a.8.8 0 0 1 .05.37v.33a1.3 1.3 0 0 1-.05.44.34.34 0 0 1-.15.21l-1.08.63v1.72l1.23-.7h.15a1 1 0 0 1 0 .37v.34a1.7 1.7 0 0 1 0 .43.34.34 0 0 1-.15.21l-2.05 1.18c-.09.05-.15.06-.19 0s-.07-.14-.07-.28v-6.61a.74.74 0 0 1 .07-.36.5.5 0 0 1 .19-.22l2-1.17h.15a1 1 0 0 1 .05.37Zm3.47 4.62-.3.17c-.23.13-.35.14-.38 0l-.57-2.39-.62 3.06a.45.45 0 0 1-.11.25l-.27.19-.31.18c-.27.15-.41.17-.41 0a3 3 0 0 1 .05-.3l1-4-.87-2.62a.6.6 0 0 1-.07-.23.36.36 0 0 1 .11-.21 1.4 1.4 0 0 1 .31-.23l.32-.19a.9.9 0 0 1 .26-.1c.07 0 .1 0 .12.09l.48 2.23.53-2.8a.46.46 0 0 1 .12-.24 1 1 0 0 1 .27-.2l.3-.15c.27-.16.41-.17.41 0a1.5 1.5 0 0 1-.06.3l-.94 3.68.95 2.88v.11a.6.6 0 0 1 0 .12c.09.09-.05.24-.36.4Zm3.74-8.78a1.3 1.3 0 0 1 0 .43.36.36 0 0 1-.15.22l-.78.45v5.74a.68.68 0 0 1-.4.58l-.28.16c-.27.15-.41.12-.41-.11v-5.74l-.76.44a.1.1 0 0 1-.16 0 1 1 0 0 1-.05-.38v-.33a1.6 1.6 0 0 1 .05-.43.42.42 0 0 1 .16-.22l2.63-1.51c.07-.05.12 0 .15 0a.85.85 0 0 1 0 .38Z" style="fill:#10b981"/><path d="M182.81 348.84a1 1 0 0 1-.53-.14 1.28 1.28 0 0 1-.58-1.2v-9a3.43 3.43 0 0 1 1.58-2.74l29.17-16.82a1.19 1.19 0 0 1 1.91 1.11v9a3.45 3.45 0 0 1-1.59 2.74l-29.16 16.81a1.63 1.63 0 0 1-.8.24m30-29.36-29.16 16.81a2.84 2.84 0 0 0-1.26 2.18v9a.73.73 0 0 0 .25.64.74.74 0 0 0 .68-.1l29.16-16.82a2.8 2.8 0 0 0 1.26-2.17v-9a.73.73 0 0 0-.25-.64.74.74 0 0 0-.68.1" style="fill:#37474f"/><path d="M191.41 341.33a.44.44 0 0 1-.07-.29v-6.63a.9.9 0 0 1 .07-.35.43.43 0 0 1 .19-.21l1.24-.72c1-.56 1.46-.24 1.46 1a3.7 3.7 0 0 1-.63 2.13.53.53 0 0 1 .55.3 2 2 0 0 1 .21 1 4 4 0 0 1-.4 1.76 3 3 0 0 1-1.18 1.25l-1.26.73c-.08.07-.14.07-.18.03m1.44-5.16a.76.76 0 0 0 .33-.41 2.2 2.2 0 0 0 .1-.75 1.3 1.3 0 0 0-.09-.6c-.07-.09-.18-.1-.33 0l-.49.28v1.77Zm.05 3.11a.9.9 0 0 0 .37-.44 2 2 0 0 0 .13-.81 1.06 1.06 0 0 0-.12-.63c-.08-.09-.21-.09-.38 0l-.53.31v1.86Zm1.97-.06a2 2 0 0 1 0-.21l1.07-7.4a.77.77 0 0 1 .42-.55l.45-.26c.26-.14.4-.12.43.06l1.07 6.17v.18c0 .03-.1.29-.3.41l-.37.21c-.22.13-.34.12-.37 0l-.18-1.2-1 .61-.19 1.41a.57.57 0 0 1-.33.41l-.35.21c-.22.12-.35.1-.35-.05m2.14-3.83-.31-2.09c0-.23-.06-.49-.08-.76 0 .3-.05.59-.08.86l-.3 2.44Zm2.22.69a5.5 5.5 0 0 1-.44-2.67 8.8 8.8 0 0 1 .46-3.12 3.32 3.32 0 0 1 1.42-1.77 2 2 0 0 1 .61-.23c.14 0 .21.1.21.34a3.3 3.3 0 0 1-.09.78c-.06.25-.14.37-.23.38a1 1 0 0 0-.45.15 1.5 1.5 0 0 0-.62.94 7.4 7.4 0 0 0-.2 1.9 4.9 4.9 0 0 0 .2 1.67.41.41 0 0 0 .66.22l.22-.16.23-.23h.07c.09-.06.16 0 .21.14a2.8 2.8 0 0 1 .07.67 1 1 0 0 1-.05.29.6.6 0 0 1-.16.27 2.2 2.2 0 0 1-.31.29 4 4 0 0 1-.4.29c-.64.33-1.12.29-1.41-.15m6.28-2.93c0 .11-.12.23-.36.37l-.46.26a.6.6 0 0 1-.25.1.12.12 0 0 1-.13-.08l-.94-2.81v3.2a.68.68 0 0 1-.41.58l-.28.16c-.26.16-.4.12-.4-.11V328a.68.68 0 0 1 .4-.57l.28-.16c.27-.16.41-.12.41.1v3.18l.93-3.87a.7.7 0 0 1 .12-.23 1.3 1.3 0 0 1 .24-.18l.38-.22c.25-.15.38-.16.38-.06a1 1 0 0 1 0 .25l-1.08 3.92 1.16 2.78a.7.7 0 0 1 .01.21" style="fill:#37474f"/><path d="M183.32 276a.45.45 0 0 1-.25-.07.48.48 0 0 1-.25-.43V266a.5.5 0 0 1 .25-.44l104.38-60.26a.5.5 0 0 1 .75.44v9.45a.5.5 0 0 1-.25.44l-104.38 60.26a.45.45 0 0 1-.25.11m.5-9.67v8.29L287.2 214.9v-8.29Zm-.5 23.81a.54.54 0 0 1-.25-.06.5.5 0 0 1-.25-.44v-9.46a.48.48 0 0 1 .25-.43l50.23-29a.52.52 0 0 1 .51 0 .52.52 0 0 1 .25.44v9.45a.52.52 0 0 1-.25.44l-50.24 29a.54.54 0 0 1-.25.06m.5-9.67v8.3l49.23-28.43v-8.29Zm54.98-22.36a.6.6 0 0 1-.26-.06.52.52 0 0 1-.25-.44v-9.46a.5.5 0 0 1 .25-.43l48.91-28.24a.5.5 0 0 1 .75.44v9.45a.5.5 0 0 1-.25.44l-48.9 28.24a.6.6 0 0 1-.25.06m.5-9.67v8.3l47.9-27.66v-8.29Zm-55.98 60.61a.54.54 0 0 1-.25-.06.5.5 0 0 1-.25-.44v-9.46a.48.48 0 0 1 .25-.43l104.38-60.27a.5.5 0 0 1 .75.44v9.46a.48.48 0 0 1-.25.43L183.57 309a.54.54 0 0 1-.25.05m.5-9.66v8.29L287.2 248v-8.3Zm54.98-8.18a.5.5 0 0 1-.26-.07.5.5 0 0 1-.25-.43v-9.46a.52.52 0 0 1 .25-.44l48.91-28.23a.5.5 0 0 1 .75.44v9.45a.5.5 0 0 1-.25.44l-48.9 28.23a.47.47 0 0 1-.25.07m.5-9.67v8.29l47.9-27.65v-8.29Zm-55.98 41.7a.45.45 0 0 1-.25-.07.48.48 0 0 1-.25-.43v-9.46a.5.5 0 0 1 .25-.44l50.23-29a.52.52 0 0 1 .51 0 .52.52 0 0 1 .25.44v9.45a.52.52 0 0 1-.25.44l-50.24 29a.45.45 0 0 1-.25.07m.5-9.67v8.29l49.23-28.42v-8.29Z" style="fill:#e0e0e0"/><path d="M40.34 428.2c-9.29-9.58-14.75-32.73-5.69-40.33h46.1c9 7.6 3.6 30.73-5.68 40.32l-.25.27-.32.31c-.26.26-.54.51-.84.76l-.22.17c-.23.18-.46.37-.7.54-.4.28-.8.55-1.21.78-7.64 4.46-20 4.46-27.66 0a12 12 0 0 1-1.2-.79c-.24-.16-.44-.33-.66-.49l-.27-.22c-.29-.24-.56-.48-.81-.73l-.37-.37a2 2 0 0 1-.22-.22" style="fill:#37474f"/><path d="M76.74 384.8c10.52 6.15 10.52 16.1 0 22.24s-27.57 6.14-38.08 0-10.52-16.09 0-22.24 27.57-6.14 38.08 0" style="fill:#455a64"/><path d="M71.69 387.76c7.72 4.51 7.72 11.82 0 16.33s-20.25 4.51-28 0-7.72-11.82 0-16.33 20.31-4.51 28 0" style="fill:#263238"/><path d="M43.71 395.51c7.73-4.51 20.25-4.51 28 0a12.8 12.8 0 0 1 4.62 4.29 12.9 12.9 0 0 1-4.62 4.29c-7.73 4.51-20.25 4.51-28 0a12.9 12.9 0 0 1-4.62-4.29 12.8 12.8 0 0 1 4.62-4.29" style="fill:#f0f0f0"/><path d="m39 334.64 15.35 10.73-14.84-6a32.2 32.2 0 0 0 2.58 12.4A93 93 0 0 1 53.67 359l-11.38-4s-.78 6.62 2.34 16.71c.82 2.64 4.19 7.68 6.31 11.45a42 42 0 0 0 3.31 5l.22.3c2.61-1.31 5.31-2.59 8.12-3.82 1.82-3.39 4.21-11.77 5.07-18.63 3.27-26.27-19.24-41.32-37.35-46.37 0 .03 6.22 6.91 8.69 15" style="fill:#10b981"/><path d="m39 334.64 15.35 10.73-14.84-6a32.2 32.2 0 0 0 2.58 12.4A93 93 0 0 1 53.67 359l-11.38-4s-.78 6.62 2.34 16.71c.82 2.64 4.19 7.68 6.31 11.45a42 42 0 0 0 3.31 5l.22.3c2.61-1.31 5.31-2.59 8.12-3.82 1.82-3.39 4.21-11.77 5.07-18.63 3.27-26.27-19.24-41.32-37.35-46.37 0 .03 6.22 6.91 8.69 15" style="fill:#fff;opacity:.2"/><path d="M51.86 335.74c3.14 2.78 5 6.44 6.38 10.09A47.8 47.8 0 0 1 61 357.2a43.8 43.8 0 0 1-3.29 22.8.37.37 0 0 0 .25.5.45.45 0 0 0 .55-.22 44.37 44.37 0 0 0 2.87-23.13 48.3 48.3 0 0 0-3-11.38c-1.38-3.65-3.33-7.3-6.52-10.03" style="fill:#fafafa"/><path d="M105.46 348.42a208 208 0 0 0-16 19.88l-15.57 2.21 11.48 1.77-6.16 8.61-15.33 2.8 12 1.72S72.47 395.72 63.9 400c-4.73 2.37-7 2.73-8.46 1.54-1-.83-1.22-5.77-2-10.18s-.89-11.58 3.82-20.23a27.4 27.4 0 0 1 4.91-6.36c11.28-11.12 32.7-16.49 43.29-16.35" style="fill:#10b981"/><path d="M105.46 348.42a208 208 0 0 0-16 19.88l-15.57 2.21 11.48 1.77-6.16 8.61-15.33 2.8 12 1.72S72.47 395.72 63.9 400c-4.73 2.37-7 2.73-8.46 1.54-1-.83-1.22-5.77-2-10.18s-.89-11.58 3.82-20.23a27.4 27.4 0 0 1 4.91-6.36c11.28-11.12 32.7-16.49 43.29-16.35" style="fill:#fff;opacity:.5"/><path d="M89.17 352.91c-8 3.11-15.67 7.39-21.66 13.19a37.9 37.9 0 0 0-7.42 9.72 32.4 32.4 0 0 0-3.38 11.28A42.3 42.3 0 0 1 68 366.51c5.79-5.81 13.25-10.22 21.19-13.53v-.05z" style="fill:#fafafa"/><path d="M12.69 354.09a37 37 0 0 1 3.92.15 70.3 70.3 0 0 1 15 3.22c1.79.59 3.59 1.26 5.36 2 .88.37 1.75.76 2.62 1.18a43.1 43.1 0 0 1 11.48 7.65 24.6 24.6 0 0 1 4 4.9c.14.23.29.46.42.69.33.61.63 1.2.91 1.79a29.7 29.7 0 0 1 3.39 16.26c-.17 3.94-1.69 8.45-2.56 9.19a2 2 0 0 1-.38.25c-1.28.72-3.3.3-7.09-1.57-7.59-3.74-10.57-13.22-10.57-13.22l-3-4-5.5-7.56 10.13-1.63L27 371.56a182 182 0 0 0-14.29-17.46Z" style="fill:#10b981"/><path d="M12.69 354.09a37 37 0 0 1 3.92.15 70.3 70.3 0 0 1 15 3.22c1.79.59 3.59 1.26 5.36 2 .88.37 1.75.76 2.62 1.18a43.1 43.1 0 0 1 11.48 7.65 24.6 24.6 0 0 1 4 4.9c.14.23.29.46.42.69.33.61.63 1.2.91 1.79a29.7 29.7 0 0 1 3.39 16.26c-.17 3.94-1.69 8.45-2.56 9.19a2 2 0 0 1-.38.25c-1.28.72-3.3.3-7.09-1.57-7.59-3.74-10.57-13.22-10.57-13.22l-3-4-5.5-7.56 10.13-1.63L27 371.56a182 182 0 0 0-14.29-17.46Z" style="fill:#fff;opacity:.5"/><path d="M16.61 354.24a70.3 70.3 0 0 1 15 3.22c1.79.59 3.59 1.26 5.36 2 .88.37 1.75.76 2.62 1.18a43.1 43.1 0 0 1 11.48 7.65 24.6 24.6 0 0 1 4 4.9c.14.23.29.46.42.69.33.61.63 1.2.91 1.79a29.7 29.7 0 0 1 3.39 16.26c-.17 3.94-1.69 8.45-2.56 9.19a2 2 0 0 1-.38.25 2.8 2.8 0 0 1-.84.28c.94-6.12-2.47-21.61-7.63-28C43 367 30.21 357.42 12.71 354.1a39 39 0 0 1 3.9.14" style="fill:#10b981;opacity:.4"/><path d="M56 401.65a46.3 46.3 0 0 0-1-13.52 40.7 40.7 0 0 0-5.08-12.81 40.4 40.4 0 0 0-10.29-10.14 60 60 0 0 0-13.2-7 .06.06 0 0 0-.06 0 76.6 76.6 0 0 1 12.69 7.5 54 54 0 0 1 5.58 4.58 30.5 30.5 0 0 1 4.66 5.27 40.2 40.2 0 0 1 5.26 12.59 46.4 46.4 0 0 1 1.33 13.43s.11.12.11.1" style="fill:#fafafa"/><path d="m350.78 375.27 6.57-15.73 18.65 7.37c-8.53 9.79-17.63 21.6-19.55 25.74 0 0-9.85-1.42-11.74-6.24s3.59-9.31 6.07-11.14" style="fill:#ffa8a7"/><path d="M340.32 382a7.8 7.8 0 0 0-2 2.5c-.56 1 0 5.44-.47 7.57s-.86 2.71-1.66 5.4c-.89 3-2.73 5.76.12 13s6.81 10.53 10.06 12.12a8.2 8.2 0 0 0 3.82.63s4-1.85 3.16-4.21S340.32 382 340.32 382" style="fill:#263238"/><path d="M358.83 388.86a8.9 8.9 0 0 1-1.43 2.68c-1.31 2.22-1.77 5.11-2.09 7.63-1.54 11.94 3.58 17.57-2.42 22.45-1.75 1.29-5.58 1.26-11.91-5.73-3.23-3.56-5.49-11.23-4.6-14.84s2.29-6 2.83-8.79-.22-7.79 1.11-10.23a10.94 10.94 0 0 1 3.44-3.43c1.07-.77 3.46-1.85 4.55-2.58s1.68-1.53 2.47-.75l-1.2 1.73c-1.85 3-1.24 3.39-1.08 4.9a23.3 23.3 0 0 1-.41 4.9c1.33-2 1.81-3.62 3.44-3.46s1.81.08 4.26 2.06 3.09 2.77 3.04 3.46" style="fill:#10b981"/><path d="M358.83 388.86a8.9 8.9 0 0 1-1.43 2.68c-1.31 2.22-1.77 5.11-2.09 7.63-1.54 11.94 3.58 17.57-2.42 22.45-1.75 1.29-5.58 1.26-11.91-5.73-3.23-3.56-5.49-11.23-4.6-14.84s2.29-6 2.83-8.79-.22-7.79 1.11-10.23a10.94 10.94 0 0 1 3.44-3.43c1.07-.77 3.46-1.85 4.55-2.58s1.68-1.53 2.47-.75l-1.2 1.73c-1.85 3-1.24 3.39-1.08 4.9a23.3 23.3 0 0 1-.41 4.9c1.33-2 1.81-3.62 3.44-3.46s1.81.08 4.26 2.06 3.09 2.77 3.04 3.46" style="opacity:.4"/><path d="M341 415.89c-3.23-3.56-5.49-11.23-4.6-14.84a33 33 0 0 1 1.1-3.51c0 .24-.09.49-.1.69 0 .46-.07.93-.08 1.39a10.56 10.56 0 0 0 1 5.29c.78 1.42 2.59 5 4.57 4.92 1.13 0 2-1.21 2.33-2.49.14-.54.34-2 .34-2a17.4 17.4 0 0 1 5.3 1.72c3 1.68 2.93 2.11 2.93 2.11a7.5 7.5 0 0 0 .1 2.53 6.2 6.2 0 0 0 1.25 2.43 3.8 3.8 0 0 0 .78.53 7.68 7.68 0 0 1-3 6.95c-1.78 1.3-5.61 1.27-11.92-5.72" style="opacity:.30000000000000004"/><path d="M355.31 399.17a40 40 0 0 0 0 9.46c-.86 3.09-1.81 3.07-2 1.52s1.35-8.18 2.5-13.65c-.26.91-.39 1.81-.5 2.67m-8.56-18.33a6.64 6.64 0 0 1 .83-4.39c.28-.15.53-.3.73-.43 1.19-.8 1.68-1.53 2.47-.75l-1.2 1.73c-1.85 3-1.24 3.39-1.08 4.9a23.3 23.3 0 0 1-.41 4.9c-.82 5.2-1.78 7-2 11.85s1 8 .34 8.36-2.08-.12-2.62-4 .69-10.47 1.66-13.64 1.68-6.48 1.28-8.53" style="fill:#37474f"/><path d="M345.2 405.71a.6.6 0 0 0 .26.12 11.55 11.55 0 0 1 8 3.94.48.48 0 1 0 .69-.68 12.47 12.47 0 0 0-8.61-4.22.48.48 0 0 0-.54.42.47.47 0 0 0 .2.42m.31-4.07a.6.6 0 0 0 .25.12 13 13 0 0 1 8.49 4.33.48.48 0 0 0 .7 0 .5.5 0 0 0 0-.7 13.9 13.9 0 0 0-9-4.61.49.49 0 0 0-.4.86Zm-.41-4.42a.6.6 0 0 0 .27.13 14.75 14.75 0 0 1 9.49 4.86.55.55 0 1 0 .78-.77 15.8 15.8 0 0 0-10.1-5.17.55.55 0 0 0-.44 1Zm.36-3.83a.5.5 0 0 0 .27.12 14.38 14.38 0 0 1 9.28 4.76.53.53 0 0 0 .75 0 .53.53 0 0 0 0-.76 15.37 15.37 0 0 0-9.88-5.05.53.53 0 0 0-.61.44.55.55 0 0 0 .19.49m1.11-3.79a.66.66 0 0 0 .28.13 14.3 14.3 0 0 1 9.27 4.75.55.55 0 0 0 .76 0 .54.54 0 0 0 0-.76 15.37 15.37 0 0 0-9.87-5.05.53.53 0 0 0-.61.44.55.55 0 0 0 .17.49" style="fill:#ebebeb"/><path d="M328.31 324s41.14-7.25 56.79-7.15c16 .1 17.46 12.09 13.46 19.44-7.65 14.06-32.37 42.8-32.37 42.8s-9.95-3-12.69-10.74l5.18-13.91-31 4.26-5.63-4Z" style="fill:#10b981"/><path d="M328.31 324s41.14-7.25 56.79-7.15c16 .1 17.46 12.09 13.46 19.44-7.65 14.06-32.37 42.8-32.37 42.8s-9.95-3-12.69-10.74l5.18-13.91-31 4.26-5.63-4Z" style="fill:#fff;opacity:.5"/><path d="M369.34 365.27c-3.44-4.38-5.72-5.4-11.9-7.54l-3.94 10.57c2.74 7.7 12.68 10.7 12.68 10.7s2.86-3.31 6.92-8.24a60 60 0 0 0-3.76-5.49m-8.51-24.03c-2 3-3.75 5.66-5.23 8.22s-6.09 3.81-10.76 2.85c-5.81-1.19-12.4-4.09-16.24-5.74 4.25-8.1 2.3-13.74 2.3-13.74.3 5.34-3.18 9.94-5.06 12.54l-2.07 2.45 1.17 8.11 2.23 2.72 26.64-3.65 4.33-.59c5.5-13.11 7.61-18.87 14.4-21.56 0-.02-5.79-.45-11.71 8.39" style="fill:#10b981;opacity:.30000000000000004"/><path d="M378.53 424.41c.05-2.14 2.6-5.37 7.57-6.15s5.26.1 7.88 1.71c1.77 1.1-1.33 11.84-1.33 11.84s-5.74-4.29-8.24-4.25-5.41-.39-5.88-3.15" style="fill:#37474f"/><path d="M371.43 392.86a3.46 3.46 0 0 0-2.73 1.55 1.12 1.12 0 0 0-.12 1.11l18.6 32.59a1.1 1.1 0 0 0 1 .46 3.46 3.46 0 0 0 2.73-1.55 1.12 1.12 0 0 0 .12-1.11l-18.6-32.59a1.1 1.1 0 0 0-1-.46" style="fill:#e0e0e0"/><path d="M371.43 392.86a3.46 3.46 0 0 0-2.73 1.55 1.12 1.12 0 0 0-.12 1.11l18.6 32.59a1.1 1.1 0 0 0 1 .46 3.46 3.46 0 0 0 2.73-1.55 1.12 1.12 0 0 0 .12-1.11l-18.6-32.59a1.1 1.1 0 0 0-1-.46" style="opacity:.1"/><path d="M381.71 418.53c.84 1.21 4.52-1 3.77-2.35.81-.1 1.4-.21 2.39 1.68s6 2.47 7.12 4-1.07 6-4.47 8.2-8.19-1.12-8.93-2.61c-1.37-2.78 1.48-4.19.44-6-.53-.94-1.11-2.15-.32-2.92" style="fill:#263238"/><path d="M368.7 394.42a1 1 0 0 0 .9 1.57 3.46 3.46 0 0 0 2.73-1.56 1.11 1.11 0 0 0 .11-1.11 1.1 1.1 0 0 0-1-.46 3.45 3.45 0 0 0-2.74 1.56" style="fill:#455a64"/><path d="M372.66 392a6.76 6.76 0 0 0-5.3 3 2.17 2.17 0 0 0-.23 2.16l1.11 1.94a2.15 2.15 0 0 0 2 .9 6.75 6.75 0 0 0 5.31-3 2.17 2.17 0 0 0 .23-2.16l-1.11-1.95a2.15 2.15 0 0 0-2.01-.89" style="fill:#e0e0e0"/><path d="M367.36 395.06a1.86 1.86 0 0 0 1.75 3.06 6.73 6.73 0 0 0 5.3-3 1.86 1.86 0 0 0-1.75-3.06 6.76 6.76 0 0 0-5.3 3" style="fill:#ebebeb"/><path d="M365.62 381.29a5 5 0 0 0-3.93 2.24 1.59 1.59 0 0 0-.17 1.6l6.54 11.46a1.6 1.6 0 0 0 1.47.68 5 5 0 0 0 3.93-2.25 1.59 1.59 0 0 0 .17-1.6L367.09 382a1.6 1.6 0 0 0-1.47-.71" style="fill:#455a64"/><path d="M361.69 383.53a1.38 1.38 0 0 0 1.31 2.27 5 5 0 0 0 3.94-2.24 1.38 1.38 0 0 0-1.3-2.27 5 5 0 0 0-3.95 2.24" style="fill:#455a64"/><path d="M372.87 380.14c-2.12-4.25-3-6.24-5.28-10-3.48-5.87-4.83-6.57-10.17-8.66-7.18-2.81-12.51-4.49-12.51-4.49s-6.8 4.69-9 10.2a15.8 15.8 0 0 0-1 4.81 39.8 39.8 0 0 0 1.27 12s12.88 2.35 14.82 4a17 17 0 0 1 3.43 3.55c.7 1 2.44 1.65 4.51 1.66a17 17 0 0 0 13.36-7.62c1.24-2.14 1.37-4.06.57-5.45" style="fill:#f28f8f"/><path d="M334.81 373.4v.63c6 .12 16 2.27 20 7.89 2.73 3.85 5.48 8.25 7.11 10.91l.64-.17c-1.62-2.65-4.45-7.17-7.24-11.11-4.14-5.81-14.32-8.03-20.51-8.15" style="fill:#b16668"/><path d="M341.23 377a1 1 0 0 1-.63 1.21 1 1 0 0 1-1.21-.62 1 1 0 0 1 .62-1.22 1 1 0 0 1 1.22.63m6.87 1.39a1 1 0 0 1-1.84.6 1 1 0 1 1 1.84-.6m5.67 4.38a1 1 0 0 1-.62 1.22 1 1 0 1 1-.6-1.84 1 1 0 0 1 1.22.62m4.59 6.05a1 1 0 0 1-.62 1.22 1 1 0 0 1-.6-1.84 1 1 0 0 1 1.22.62" style="fill:#b16668"/><path d="M382.8 434.83a8.1 8.1 0 0 0 1.82 2.61c.77.82 5.2 1.62 7.1 2.66a56 56 0 0 1 4.68 3.16c2.59 1.71 4.72 4.29 12.5 3.68s12.06-3.45 14.52-6.09a8.3 8.3 0 0 0 1.72-3.48s-.61-4.33-3.11-4.25-39.23 1.71-39.23 1.71" style="fill:#263238"/><path d="M395.94 419.08c.73.28 1.64 1.59 2.16 2.15a15.7 15.7 0 0 0 5.47 4.25c11 4.95 17.85 1.7 20.77 8.86.72 2.05-.42 5.7-8.95 9.72-4.36 2.06-12.34 2-15.54.08s-5.09-3.95-7.58-5.27-7.52-2.07-9.47-4a11 11 0 0 1-2.28-4.29c-.42-1.25-1.59-5.54-1.59-5.54 2.34 2.65 4.64 1.68 6.14 2a24 24 0 0 1 4.56 1.82c-1.48-1.84-2.93-2.79-2.3-4.29s.59-1.71 3.21-3.48 4.76-2.26 5.4-2.01" style="fill:#10b981"/><path d="M395.94 419.08c.73.28 1.64 1.59 2.16 2.15a15.7 15.7 0 0 0 5.47 4.25c11 4.95 17.85 1.7 20.77 8.86.72 2.05-.42 5.7-8.95 9.72-4.36 2.06-12.34 2-15.54.08s-5.09-3.95-7.58-5.27-7.52-2.07-9.47-4a11 11 0 0 1-2.28-4.29c-.42-1.25-1.59-5.54-1.59-5.54 2.34 2.65 4.64 1.68 6.14 2a24 24 0 0 1 4.56 1.82c-1.48-1.84-2.93-2.79-2.3-4.29s.59-1.71 3.21-3.48 4.76-2.26 5.4-2.01" style="opacity:.4"/><path d="M415.39 444.06c-4.36 2.06-12.34 2-15.54.08a32 32 0 0 1-3-2.08c.22.1.44.23.64.3.43.17.86.33 1.3.48a10.63 10.63 0 0 0 5.35.6c1.58-.33 5.52-1 6-2.94.29-1.08-.57-2.25-1.7-2.95-.48-.29-1.81-.9-1.81-.9a17.4 17.4 0 0 1 3.19-4.57c2.49-2.39 2.88-2.19 2.88-2.19a7.5 7.5 0 0 0 2.44.64 6.1 6.1 0 0 0 2.69-.49 4 4 0 0 0 .74-.58 7.68 7.68 0 0 1 5.78 4.88c.71 2.05-.43 5.66-8.96 9.72" style="opacity:.30000000000000004"/><path d="M403.69 425.42a39.6 39.6 0 0 0 8.91 2.85c2.71 1.72 2.41 2.63.86 2.41s-9.41-4.51-11.49-6c.82.39.93.38 1.72.74m-20.15 2.91c-1.47-.16-2.62-.09-3.87-.82a3.82 3.82 0 0 1-1-3.93 2.42 2.42 0 0 0 1.14 2.25c1.34.91 3.77.85 5.27 1.13a24 24 0 0 1 4.56 1.82c4.73 2.3 6.16 3.75 10.75 5.36s8 1.39 8.1 2.11-.72 2-4.56 1.35-9.81-3.71-12.56-5.57-5.76-3.49-7.83-3.7" style="fill:#37474f"/><path d="M406.88 437.06a.46.46 0 0 0 .18-.21 11.58 11.58 0 0 1 6.12-6.55.48.48 0 1 0-.45-.85 12.5 12.5 0 0 0-6.55 7 .49.49 0 0 0 .24.64.5.5 0 0 0 .46-.03m-3.8-1.48a.53.53 0 0 0 .18-.21 13 13 0 0 1 6.62-6.86.48.48 0 0 0 .2-.67.49.49 0 0 0-.67-.2 13.92 13.92 0 0 0-7 7.3.49.49 0 0 0 .23.66.51.51 0 0 0 .44-.02m-4.35-.9a.57.57 0 0 0 .2-.23 14.7 14.7 0 0 1 7.42-7.65.55.55 0 0 0 .23-.74.55.55 0 0 0-.74-.23A15.8 15.8 0 0 0 398 434a.54.54 0 0 0 .25.73.55.55 0 0 0 .48-.05m-3.56-1.46a.5.5 0 0 0 .19-.22 14.36 14.36 0 0 1 7.26-7.49.55.55 0 0 0 .22-.73.54.54 0 0 0-.73-.22 15.4 15.4 0 0 0-7.71 8 .54.54 0 0 0 .25.72.56.56 0 0 0 .52-.06m-3.3-2.17a.6.6 0 0 0 .2-.22 14.3 14.3 0 0 1 7.25-7.49.55.55 0 0 0 .22-.73.53.53 0 0 0-.72-.22 15.44 15.44 0 0 0-7.72 8 .55.55 0 0 0 .25.72.56.56 0 0 0 .52-.06" style="fill:#ebebeb"/><path d="M384 402.37c-3.36 8.68-15.92 10.07-15.92 10.07s-3.49-4.65-6.3-8.1c-6.84-8.39-8.93-10.43-12.1-16.52-11.57-2.31-41.23-7-56.65-15.14-14.12-7.48-20.54-16.68-19.26-35.68s56.43-13.24 56.43-13.24l-1.89 5.42c.29 5.91.32 14.48-4.54 18.63 0 0 14 5.35 24.91 9.6 3.84 1.5 7.28 2.86 9.56 3.8 4 1.66 6.2 2.36 10.24 9.42A266 266 0 0 1 384 402.37" style="fill:#10b981"/><path d="M384 402.37c-3.36 8.68-15.92 10.07-15.92 10.07s-3.49-4.65-6.3-8.1c-6.84-8.39-8.93-10.43-12.1-16.52-11.57-2.31-41.23-7-56.65-15.14-14.12-7.48-20.54-16.68-19.26-35.68s56.43-13.24 56.43-13.24l-1.89 5.42c.29 5.91.32 14.48-4.54 18.63 0 0 14 5.35 24.91 9.6 3.84 1.5 7.28 2.86 9.56 3.8 4 1.66 6.2 2.36 10.24 9.42A266 266 0 0 1 384 402.37" style="fill:#fff;opacity:.6000000000000001"/><path d="M373.74 411.05c-5-7.15-12-16.86-15.19-21.2-1.36-1.84-2.43-3.48-3.37-4.93-2.21-3.41-3.67-5.66-6.33-6.31-.58-.14-2-.42-4-.85-10.58-2.16-38.68-7.92-48.44-13.2-.29-.16-.56-.33-.84-.5 3.34-3.31 3-9.65.42-13.55-2.74-4.17-4.83-12.47-3.31-16.51l-.83-.31c-1.77 4.71.83 13.4 3.39 17.31 2.4 3.66 2.66 9.71-.47 12.59-9.35-5.85-14.06-16.07-13.64-29.71h-.88c-.46 14.78 5 25.67 15.74 31.49 9.87 5.34 38.07 11.12 48.69 13.29 2 .41 3.43.71 4 .84 2.31.57 3.7 2.7 5.8 5.93.94 1.46 2 3.11 3.4 5 3.38 4.57 9.66 13.65 14.82 21Z" style="fill:#10b981;opacity:.30000000000000004"/><path d="M312.85 261.61c7.56-.09 11.78 4.17 14.28 12.85s6.6 26.47 6.6 26.47c5.24 3.83 9.52 7 9.52 7l-8.1 11.23-17-9.32-3.55-25.66Z" style="fill:#ffa8a7"/><path d="M273.15 300.24c1.27-18.45 3.69-27.4 5.52-33.44a79.5 79.5 0 0 1 11.23-2.65 152 152 0 0 1 15.34-2.1c5.43-.44 7.61-.44 7.61-.44 4 3.8 14.73 12.29 18.1 20a15.79 15.79 0 0 1-4.59 18.17c.08 5.48 0 13 0 13s1 6.37 4.08 10.92c-.88 9.08-10 15.75-26.2 20.13a43.27 43.27 0 0 1-30.88-3.18s-1.46-22.13-.21-40.41" style="fill:#f5f5f5"/><path d="M313.71 301.85s-4.37 5.88-13.57 5.23c-9.49-.66-11.66-8.41-11.66-8.41s0 10.27 11.37 11.07a13.64 13.64 0 0 0 13.86-7.89" style="fill:#e0e0e0"/><path d="M322.25 238.55c-9.32 14-28.24 5.81-28.24 5.81l.28 16.6a27.4 27.4 0 0 1-12.84-3.43c-5-24.35-2.51-30.57 2.57-33 .32-13 19.79-16.78 31.33-10.54 6.82 3.73 13.47 12.2 6.9 24.56" style="fill:#263238"/><path d="M318.18 224.77c2.77 1.7 5.06 9.34 3.64 20.22-1.07 8.26-3.63 11.56-7.05 13.32-1.64.85-4.38 1.3-8.06.87l-.65 5.5s14.85 11.7 4.79 13.23C299 279.73 288.8 264.5 288.8 264.5l2-17.55c-.68 1.09-4.49 2.63-7.05-.71-3-3.91-2.28-8.55.45-10.23s6 0 7.22 3.15c2.9 1.24 7.87-1.28 7.79-12.57 5.81-3.16 7.8 1.61 12.23 1.12 3.36-.37 3.32-4.81 6.74-2.94" style="fill:#ffa8a7"/><path d="M285.42 244.78a1.52 1.52 0 0 0 1.29 1.74 1.53 1.53 0 1 0-1.29-1.74" style="fill:#10b981"/><path d="M306.71 259.18c-9-2-14-5.75-14.93-9.41 0 0 .53 4.78 3 6.91 3.53 3 11.6 4.91 11.6 4.91Z" style="fill:#f28f8f"/><path d="M307 239a1.6 1.6 0 0 1-1.6 1.59 1.62 1.62 0 0 1-1.53-1.68 1.57 1.57 0 1 1 3.13.09m-2-5.8-3.26 2a2 2 0 0 1 .65-2.71 1.88 1.88 0 0 1 2.61.71" style="fill:#263238"/><path d="m306.51 247.89 4.34 2.1a2.53 2.53 0 0 1-3.31 1.14 2.35 2.35 0 0 1-1.03-3.24" style="fill:#b16668"/><path d="m319.94 235.32-3.22-2.12a1.85 1.85 0 0 1 2.62-.6 2 2 0 0 1 .6 2.72m-.67 3.76a1.57 1.57 0 1 1-1.38-1.8 1.6 1.6 0 0 1 1.38 1.8" style="fill:#263238"/><path d="m317 244.82-5.47 2.36-1.56-10.71c2.03-.7 4.55 4.24 7.03 8.35m-8.23 6.53a3.19 3.19 0 0 0-2.52-2.62 2.33 2.33 0 0 0 1.29 2.4 2.4 2.4 0 0 0 1.23.22" style="fill:#f28f8f"/><path d="M388.18 336.59v.71a2.94 2.94 0 0 1-1.38 2.58l-50.16 31.19a2.9 2.9 0 0 1-1.44.44 3.1 3.1 0 0 1-1.49-.34L305.35 356a2.9 2.9 0 0 1-1.54-2.48v-1a.36.36 0 0 0 .2.32l31.18 16.67Z" style="fill:#37474f"/><path d="m335.16 369.56.06 1.95a2.9 2.9 0 0 0 1.45-.44l50.16-31.19a3 3 0 0 0 1.38-2.59v-.71Z" style="fill:#263238"/><path d="m388.19 336.58-30.89-16.5a1.74 1.74 0 0 0-1.75.05L304 352.23a.39.39 0 0 0 0 .67l31.18 16.67Z" style="fill:#455a64"/><path d="m334.8 367-16.67-8.89 46.91-29.18 16.75 8.84z" style="fill:#37474f"/><path d="m381.79 337.77-.62.38-16.11-8.5-46.29 28.8-.63-.34 46.9-29.18zm-55.89 3.26.3.16 8.17 4.37 13.98-8.7.29-.18-8.47-4.53z" style="fill:#263238"/><path d="m326.2 341.19 8.17 4.37 13.98-8.7-8.17-4.36z" style="fill:#37474f"/><path d="M375.6 329.72c-1.7-2.36-3.79-4.44-5.32-6.91a42.5 42.5 0 0 0-4.95-4.33C360.27 314.9 359 315 352.6 313a27.5 27.5 0 0 1-9.35-5l-8.1 11.23c.94.52 1.85 1.05 2.72 1.59 1.44.87 3.3 4 6.55 5.26 4.3 1.61 9.34.47 9.82 1.71a9 9 0 0 0 .34 2.33 8 8 0 0 0-2.52-.64c-.79 0-1.91.93-1.68 1.48s.73.75 1.3 1.2c.39.31 1.73 1.39 1.91 1.51a7.7 7.7 0 0 0 4 .61 1.76 1.76 0 0 0 1.31-1.15 8 8 0 0 0 .92.32 2.46 2.46 0 0 0 1.75-.12 1.48 1.48 0 0 0 .56-.83 7.2 7.2 0 0 0 2.11-.44c.94-.53.95-1.71 1.12-2.65a11.7 11.7 0 0 0 .11-3.55c2.88 1.74 5.12 5 8.6 5.59 1.29.14 2.93-.34 1.53-1.73M261.83 316.8c.81-13.67 3.58-26.78 5.48-36.79 1.59-8.33 4.39-11.84 11.36-13.21 7.82 4.34 7.58 19.71 7 23.6l-5.47 25.53s7.84 4.44 15 8.53c6 3.45 10 6.29 16.7 6.32s9.31-.5 12.92.6c1.92.59 6.29 2 7.8 2.51s4.35 2.84 6.9 4.31-.23 2.81-2 2.5a22.4 22.4 0 0 1-5.47-1.92 30 30 0 0 0-4.63-1.19 27 27 0 0 1 1.53 5.08c.12.94.46 2.07-.29 2.85a7.1 7.1 0 0 1-1.89 1.05 1.43 1.43 0 0 1-.28 1 2.42 2.42 0 0 1-1.64.62 6.6 6.6 0 0 1-1 0 1.79 1.79 0 0 1-.92 1.49 7.7 7.7 0 0 1-4 .6c-.2-.06-1.8-.7-2.27-.88a4.1 4.1 0 0 1-1.59-.76c-.38-.46.41-1.7 1.17-1.91a8.1 8.1 0 0 1 2.59-.13 9 9 0 0 1-1-2.13c-.83-1-5.75.68-10.33.42-3.45-.2-6.27-3.14-7.87-3.66-10.27-3.27-18.07-5.5-28.6-10.31-9.64-4.47-9.61-7.03-9.2-14.12" style="fill:#ffa8a7"/><path d="M328.31 337.8c-.67-1.22-1.64-2.66-2.66-2.9a11.5 11.5 0 0 1 1.75 2.69Zm-1.56 8.77a10.5 10.5 0 0 0-.23-2.8 25 25 0 0 0-.68-2.73 11.8 11.8 0 0 0-1.06-2.62 5.15 5.15 0 0 0-1.93-2.05 4.1 4.1 0 0 1 .89 1.05 8 8 0 0 1 .67 1.19 18.5 18.5 0 0 1 .92 2.59c.28.88.53 1.77.79 2.66a22 22 0 0 1 .63 2.71m-2.89 1.55a13.3 13.3 0 0 0-.32-2.74 22 22 0 0 0-.72-2.67 19 19 0 0 0-1.05-2.56 5.4 5.4 0 0 0-1.67-2.15 3.6 3.6 0 0 1 .75 1.12c.2.41.38.82.54 1.24.33.85.64 1.7.92 2.56.57 1.69 1.12 3.41 1.55 5.2m-7.63-1.46a5 5 0 0 1 1.15 0c.38 0 .66.2 1.13.29l-.22-.27a1.07 1.07 0 0 0 .14.53 1.4 1.4 0 0 0 .31.4 1.56 1.56 0 0 0 .82.41 4.4 4.4 0 0 1-.54-.65 1.5 1.5 0 0 1-.15-.35 1 1 0 0 1-.06-.31v-.21l-.23-.06a3.2 3.2 0 0 0-1.09-.11 2.3 2.3 0 0 0-1.26.33" style="fill:#f28f8f"/><path d="M336 370a3.46 3.46 0 0 0 3-.33l49.94-31.06a3.47 3.47 0 0 0 1.61-2.48l4.45-33.44a3.6 3.6 0 0 0 0-.57 3.46 3.46 0 0 0-1.11-2.43L342 332a2.58 2.58 0 0 0-1.19 1.83Z" style="fill:#263238"/><path d="m335.16 369.57.35.18a3 3 0 0 0 .49.22l4.84-36.17A2.58 2.58 0 0 1 342 332l51.89-32.28a3.1 3.1 0 0 0-.72-.51l-52 32.34a2.54 2.54 0 0 0-1.19 1.83Z" style="fill:#455a64"/><path d="m341.3 332.68-.84-.45a2.6 2.6 0 0 0-.45 1.12l-4.85 36.22.35.18a3 3 0 0 0 .49.22l4.84-36.17a2.5 2.5 0 0 1 .46-1.12" style="fill:#37474f"/><path d="M363.66 338.35c.3-2.24 2.5-5.27 4.91-6.77s4.13-.91 3.83 1.33-2.5 5.27-4.91 6.77-4.13.91-3.83-1.33m7.64-33.86-3.44-6.49 2.77-8v-4.89l-8.47 4.89v4.89l3.64 6.31a.48.48 0 0 0 .25.22Z" style="fill:#10b981"/><path d="m371.3 304.49-3.44-6.49 2.77-8v-4.89l-8.47 4.89v4.89l3.64 6.31a.48.48 0 0 0 .25.22Z" style="opacity:.30000000000000004"/><path d="M386.51 249.2a5.62 5.62 0 0 0-2.54-4.4l-2.07-1.19a5.61 5.61 0 0 0-5.08 0l-25.77 14.85a5.62 5.62 0 0 0-2.54 4.4v34.89a5.62 5.62 0 0 0 2.54 4.4l2.07 1.2a5.61 5.61 0 0 0 5.08 0l9.28-5.35 3.63 6.3a.55.55 0 0 0 1-.09l3.84-11.09 8-4.62a5.62 5.62 0 0 0 2.54-4.4Z" style="fill:#10b981"/><path d="M348.51 297.75a5.62 5.62 0 0 0 2.54 4.4l2.07 1.2a5.7 5.7 0 0 0 4.65.2c-1.2.45-2.11-.22-2.11-1.67V267a5.2 5.2 0 0 1 .74-2.5l-7.14-4.13a5.2 5.2 0 0 0-.75 2.51Z" style="opacity:.30000000000000004"/><path d="M386.42 248.48c-.29-1.08-1.28-1.42-2.45-.74l-25.77 14.85a5 5 0 0 0-1.79 1.89l-7.15-4.12a5.2 5.2 0 0 1 1.79-1.9l25.76-14.85a5.7 5.7 0 0 1 5.09 0l2.07 1.2a5.57 5.57 0 0 1 2.45 3.67" style="fill:#fff;opacity:.30000000000000004"/><path d="M369.29 288a2.42 2.42 0 0 1-1.56-.57l-6.82-5.83a2.4 2.4 0 1 1 3.12-3.65l4.35 3.71 9.56-22.07a2.4 2.4 0 1 1 4.41 1.91l-10.86 25a2.4 2.4 0 0 1-1.66 1.39 2.5 2.5 0 0 1-.54.11" style="fill:#fafafa"/></svg>