<svg xmlns="http://www.w3.org/2000/svg" viewBox="0 0 500 500"><ellipse cx="257.17" cy="352" rx="223.22" ry="119.25" style="fill:#f5f5f5"/><ellipse cx="161.05" cy="396.2" rx="46.64" ry="26.93" style="fill:#e0e0e0"/><ellipse cx="257.42" cy="345" rx="46.64" ry="26.93" style="fill:#e0e0e0"/><path d="m333.29 277.53-6.73-3.85s-3.23-17.81-.82-33.11c3.4-21.52 18.05-28.94 23.37-26.8s6.58 8.51-3 20.94c-5.7 7.34-13 22.85-12.82 42.82" style="fill:#10b981"/><path d="m333.29 277.53-6.73-3.85s-3.23-17.81-.82-33.11c3.4-21.52 18.05-28.94 23.37-26.8s6.58 8.51-3 20.94c-5.7 7.34-13 22.85-12.82 42.82" style="opacity:.1"/><path d="M330.85 269h.07a.48.48 0 0 0 .41-.54c-2.78-20.15 5.32-42.22 14.42-51.12a.48.48 0 1 0-.67-.68c-9.27 9.05-17.53 31.49-14.7 51.93a.47.47 0 0 0 .47.41" style="fill:#fff"/><path d="M352 288.33c1.07.61 3.26-.73 4.1-1.29a10.13 10.13 0 0 0 3.38-3.88 9.55 9.55 0 0 0 .85-5.72 23 23 0 0 0-.73-3l-.84-2.95a7.6 7.6 0 0 1-.44-3c.26-2 2.05-3.43 3.68-4.65 1.8-1.35 3.68-3.13 3.67-5.55a8.56 8.56 0 0 0-2.14-5.09c-1.16-1.47-2.54-2.77-3.59-4.33a5.94 5.94 0 0 1-1.23-3.77 6.3 6.3 0 0 1 .83-2.36 34 34 0 0 0 2.56-4.74c.59-1.7.51-3.81-.82-5a5.55 5.55 0 0 0-4.18-1 9.5 9.5 0 0 0-3.89 1.37c-3.86 2.14-6.06 6.71-10.15 8.36a39 39 0 0 1-5 1.21 6.14 6.14 0 0 0-4.08 2.8c-1.5 3 1.28 6.7.23 9.89-.94 2.81-3.68 3.89-5.21 6.43a6 6 0 0 0-.72 3.69 17.6 17.6 0 0 0 1.55 6.24 45 45 0 0 0 3.42 5.62c.11-.02 18.57 10.62 18.75 10.72" style="fill:#10b981"/><path d="M341.05 282.5a.49.49 0 0 0 .47-.5c-.79-19.07 8.19-40.12 14.72-46.24a.48.48 0 0 0 0-.68.49.49 0 0 0-.68 0c-6.67 6.24-15.83 27.64-15 47a.48.48 0 0 0 .49.42" style="fill:#fff"/><path d="M343.91 260a.4.4 0 0 0 .14 0 64.5 64.5 0 0 1 13.84-2.23.49.49 0 0 0 .46-.5.46.46 0 0 0-.5-.46 65.3 65.3 0 0 0-14.08 2.19.48.48 0 0 0-.32.6.47.47 0 0 0 .46.4" style="fill:#fff"/><path d="M370.17 185.38h51.34v4.2h-51.34z" style="fill:#263238" transform="rotate(-63.09 395.823 187.478)"/><path d="M369.91 157.85h4.2v43.06h-4.2z" style="fill:#263238" transform="rotate(-31.8 369.797 177.716)"/><path d="M387.73 155.62v146.22a1.75 1.75 0 0 1-1 1.44 5.51 5.51 0 0 1-5 0 1.76 1.76 0 0 1-1-1.44V155.62Z" style="fill:#263238"/><circle cx="419.9" cy="121.28" r="51.24" style="fill:#10b981" transform="rotate(-28.15 419.972 121.277)"/><circle cx="419.9" cy="121.28" r="51.24" style="opacity:.5" transform="rotate(-28.15 419.972 121.277)"/><path d="M436 108.18c6.61-20.81 13.65-28.95 9.18-31.49a51.24 51.24 0 1 0 14.29 77.2c-15.22 4.43-32.08-18.73-23.47-45.71" style="opacity:.30000000000000004"/><circle cx="339.18" cy="135.78" r="36.01" style="fill:#10b981" transform="rotate(-61.85 339.15 135.787)"/><circle cx="339.18" cy="135.78" r="36.01" style="opacity:.5" transform="rotate(-61.85 339.15 135.787)"/><path d="M339.18 99.77a35.84 35.84 0 0 0-21 6.8c-1 22 17.7 43.45 12.48 50.66s-18.08 2.78-22.56-3.34a36 36 0 1 0 31.12-54.12Z" style="opacity:.30000000000000004"/><circle cx="384.22" cy="96.95" r="66.06" style="fill:#10b981" transform="rotate(-76.72 384.205 96.962)"/><circle cx="384.22" cy="96.95" r="66.06" style="opacity:.5" transform="rotate(-76.72 384.205 96.962)"/><path d="M448.52 112.05a66.06 66.06 0 1 1-96.8-72.61 66.6 66.6 0 0 0-15.48 12.12 66 66 0 0 0 112.28 60.49" style="opacity:.30000000000000004"/><path d="m131.33 64.05-9.74 5.62c0-.43.08-.86.08-1.29v-2.82c0-5-3.53-7.06-7.88-4.55a15.2 15.2 0 0 0-4.69 4.52c-.71-6.32-5.67-8.67-11.68-5.19-6.51 3.75-11.79 12.89-11.79 20.4V85a11 11 0 0 0 1 4.89l-8.09 4.67a9.68 9.68 0 0 0-4.37 7.57c0 2.78 2 3.91 4.37 2.52l52.79-30.47a9.67 9.67 0 0 0 4.36-7.57c0-2.82-1.95-3.95-4.36-2.56M183 90.72l-7.14 4.13c0-.32.06-.64.06-.95v-2.07c0-3.68-2.59-5.17-5.78-3.33a11.2 11.2 0 0 0-3.44 3.31c-.52-4.63-4.15-6.35-8.56-3.81-4.77 2.76-8.64 9.45-8.64 15v3.1a8.1 8.1 0 0 0 .73 3.58l-5.93 3.43a7.06 7.06 0 0 0-3.2 5.54c0 2 1.43 2.87 3.2 1.85L183 98.12a7.09 7.09 0 0 0 3.2-5.55c.03-2.04-1.41-2.87-3.2-1.85" style="fill:#ebebeb"/><path d="M300.23 184.94a21.2 21.2 0 0 1-3.36 4.85 10.4 10.4 0 0 0 .26-2.93 2.06 2.06 0 0 0-1.91-2.05c-.45 0-.32 1.13-1 2.8-.9 2.14-2.05 3.07-2.42 5.55a3.83 3.83 0 0 1-1.31 2.38c-3.88 3.23-11.39 6.42-16.93 8.28 0 0-6.71-8.23-9.65-12-3.26-4.23-9.61-13.25-16.84-11.88 0 0-2.37 5.42-1.46 9.61.59 2.72 5.2 7.86 9.38 12 3.64 3.63 13.19 13.75 17.26 14.81 1.67.44 4.7-1.1 11-5.21 3.11-2 6.55-4.26 10.26-6.71a68 68 0 0 0 7.51-6.15c6.49-5.92 7.43-9.61 5.89-13.06-2.51-5.5-4.51-4.49-6.68-.29" style="fill:#b16668"/><path d="M184.86 271.77a5.12 5.12 0 0 0-2.56-2c-1.09-.35-4.65-.18-6.21 2.3s-1.52 5.48-2.48 7.34a20 20 0 0 1-4.21 5 10.63 10.63 0 0 0-2.34 9.25 5.12 5.12 0 0 0 3.75 3.74Z" style="fill:#f0f0f0"/><path d="M183.92 271.17a6.65 6.65 0 0 0-6.48 1.89c-1.45 1.77-1.41 4.38-2.21 6.45a10.7 10.7 0 0 1-1.94 2.82c-.85 1.08-1.88 2-2.64 3.18a11.1 11.1 0 0 0-1.32 3 10.4 10.4 0 0 0-.48 3.59 6.47 6.47 0 0 0 2.72 4.81c1.62 1.1 3.84 1.29 5.06-.47a11.4 11.4 0 0 0 1-2.1 11.7 11.7 0 0 1 2.28-3.83c1-.88 1.78-2 2.82-2.81.17-.13.33-.27.5-.38 1.87-1.23 3.79-2.31 4-3.07s.32-9.34.32-9.34c-1.01-.25-2.03-3.23-3.63-3.74" style="fill:#263238"/><path d="M169.92 286.88a8.4 8.4 0 0 1 4.54 1.32c2.41 1.48 3.55 3.3 3.74 5 0 0-.34 2.63-1.24 3.65s-2.71 2.17-6.15.54c0-.01-4.65-4.06-.89-10.51" style="fill:#fafafa"/><path d="m190.71 274.62-5 .25a5 5 0 0 0-2.15.45c-1.4.54-3.21 4.59-1.69 5.67a1.48 1.48 0 0 1 .77 1.31c.92-.54 2.52.16 3.45.81a1.85 1.85 0 0 1 .77 1l1.54-.2a11 11 0 0 1 3.3.2Z" style="fill:#b16668"/><path d="M267.93 341.57c-.51.12-.55 2.09-.35 2.65a6.4 6.4 0 0 0 2.13 2.56 10.5 10.5 0 0 1 3.08 3.7 18.1 18.1 0 0 0 5.18 5.68 11.75 11.75 0 0 0 9.46 1.21c3.37-.92 3.76-1.79 3.79-3.06Z" style="fill:#f0f0f0"/><path d="M278.43 334.67c.55 1.35 2.31 7.11 5.75 9.91 2.74 2.23 6.45 4.77 7.5 7.37s-4.74 4-7.19 3.66c-2.86-.34-6.6-1.74-8.73-4.07-1.5-1.64-2.5-3.63-3.58-4.92s-3.46-2.68-4.09-4.21c-.34-.84-.1-2.75.23-4.36s.63-3.11 1.13-3l.05.9c.64.63 8.93-1.28 8.93-1.28" style="fill:#263238"/><path d="M279.45 337.34c-.44-1.31-.9-2.64-1.08-3.51a44 44 0 0 1-.82-4.72l-.88-8.37-8.74 3.05c.25 1.93.65 3.53 1.05 5.88a22.6 22.6 0 0 1 .47 4v2.17c0 .36.25.51.49.74a3.9 3.9 0 0 1 .8 1.37 1.26 1.26 0 0 0 .52.69 1.3 1.3 0 0 0 .65 0c.66 0 1.67-.16 2 .57a2.48 2.48 0 0 1 1-1.71c1-.75 3.74-2.07 4.54-.16" style="fill:#b16668"/><path d="M278.27 353.52a9.44 9.44 0 0 1 5.46-6.11c4.33-1.6 5.71.32 6.32.84s3.55 3.29 1.17 6.06a11 11 0 0 1-12.95-.79" style="fill:#fafafa"/><path d="M259 229.48c4.07 10.92 13 36.39 14.29 45.16s4 51.71 4 51.71c-.81 2-6.23 2.73-8.88 1.1 0 0-7-20.2-8.28-26.77a35 35 0 0 1 .17-14.22s-14.13-26.07-19.71-36.3c0 0-5.67 29.3-8.19 33.87-2 3.67-3.16 6-11.58 5.22S189.84 284 189.84 284c-1.1-1-2.15-7.25-.07-9.44a163 163 0 0 1 20.83-1.32 15.75 15.75 0 0 1 8.43 3.09s-3.73-22.82-4-30.54a40.3 40.3 0 0 1 3.25-17.72Z" style="fill:#37474f"/><path d="M240.56 250.16s6-1.28 9.63-5a18.3 18.3 0 0 1-5.6 6.48l13.84 31.21Zm-9.73-107.75a9.9 9.9 0 0 0-9.18-3.87c-7.15.78-9.3 5.07-15.75 2.78-5.15-1.84-6.05-7.41-4.21-11.63a7.55 7.55 0 0 0-5.68 5 15 15 0 0 0 1.46 14.11c3 4.37 10.28 6.81 14.8 6.13 9.12-1.36 12.5-9.18 16.18-7.7Z" style="fill:#263238"/><path d="M238.54 139.79h3a16.88 16.88 0 0 1 16.88 16.88 16.79 16.79 0 0 1-16.79 16.79h-3.19a16.79 16.79 0 0 1-16.79-16.79 16.88 16.88 0 0 1 16.88-16.88Z" style="fill:#263238"/><path d="M233.74 180.27c-8.22.57-8.8 4.53-10.85 8.87-1.57 3.31.1 5.23.44 10.42s3.89 16.87 3.89 16.87-5.82 5.55-8.93 11.68c14.35 9.35 34.75 7 40.7 1.37a113 113 0 0 0-3.71-12.26s1.19-6.6 1.78-9.84c3.86-4.91 3.58-8.19 2.52-12.38-2-7.79-9.68-15.38-13.08-15.1Z" style="fill:#10b981"/><path d="m232 137.85-1.15 4.56a2.28 2.28 0 0 1-1.77-2.79 2.48 2.48 0 0 1 2.92-1.77" style="fill:#263238"/><path d="M252.39 147.22c1.94 1.15 4.34 6 4.1 16.28-.2 8.67-3 10.82-4.43 11.44s-4.13.24-6.78-.2v5.2s3.66 4.26 3.43 6.64-5.29 3-8.71.62-5.62-6.95-5.62-6.95V169s-1.79 2.12-4.71.18-3-6.75-1.34-8.48 5.37-1.18 6 1.21c0 0 4.22.15 9.85-2.94a15.83 15.83 0 0 0 8.21-11.75" style="fill:#b16668"/><path d="M245.83 161.32a1.09 1.09 0 1 1-2.18.1 1.1 1.1 0 0 1 1-1.18 1.12 1.12 0 0 1 1.18 1.08" style="fill:#263238"/><path d="m247.09 168.67 2.54.81a1.31 1.31 0 0 1-1.65.91 1.39 1.39 0 0 1-.89-1.72" style="fill:#9a4a4d"/><path d="m254.78 158-2.21-1.53a1.29 1.29 0 0 1 1.83-.37 1.41 1.41 0 0 1 .38 1.9m-.51 2.53a1.09 1.09 0 1 1-2.18.1 1.1 1.1 0 0 1 1-1.18 1.12 1.12 0 0 1 1.18 1.08" style="fill:#263238"/><path d="m248.94 159.9.17 6.57 3.46-1.07zm-3.66 14.84c-2.79-.37-8.53-2-9.43-4.29a5.9 5.9 0 0 0 2 2.9c1.71 1.47 7.41 3.12 7.41 3.12Z" style="fill:#9a4a4d"/><path d="M241.75 233.75a21 21 0 0 1-5.54-2 10.4 10.4 0 0 0 2.89-.49 2.07 2.07 0 0 0 1.51-2.37c-.13-.43-1.17 0-3-.29-2.3-.33-3.49-1.21-6-.94A3.9 3.9 0 0 1 229 227c-4.1-2.94-9.08-9.41-12.27-14.29l8.56-12.25a9.34 9.34 0 0 0 6.56-5.42c1.22-2.93 2.78-9.5-1.46-14.23a11.06 11.06 0 0 0-6.88 1.25c-2.48 1.25-6.3 7-9.27 12.11-2.59 4.44-10 16.22-10 20.43 0 1.73 2.25 4.27 7.8 9.31 2.68 2.52 5.78 5.26 9.09 8.24a68 68 0 0 0 7.84 5.71c7.37 4.8 11.17 4.77 14.12 2.42 4.75-3.81 3.26-5.5-1.34-6.53" style="fill:#b16668"/><path d="M161.23 256.43a75 75 0 0 0 10.69-1.85c9.58-2.17 12.52-5.24 12.93-9.44.65-6.7-1.86-6.82-6.27-3.94a23.5 23.5 0 0 1-6 2.87 11.5 11.5 0 0 0 1.87-2.7 2.32 2.32 0 0 0-.73-3.06c-.45-.23-.93.92-2.54 2.16-2.06 1.58-3.7 1.86-5.43 4.06a6.72 6.72 0 0 1-5.32 3.18m-38.6 23.18c-2.55 8.26-3.92 22.17-4.34 33.31-.32 8.63-.25 15.15-.25 15.15s-2.46-3-8.45-3.8c-5.48-.74-23.05 1-23.05 1s-8.59 4.34-3.38 10.32c4.92 1.06 15.91 4.11 21.94 6 4.85 1.5 15.24 4.49 18.39 4.45 4.61 0 9.07-1.34 12.52-7.56s8.91-31.26 8.91-31.26 14.87 25.95 16.6 28.88a39 39 0 0 1 .41 8.57 42.6 42.6 0 0 0 1.83 16c1.72 5.18 3.79 13.29 5.13 19.24 1.09 4.82 1.84 7.27 1.95 9.94s6.26-3.11 10.23-7.09c0 0-.46-40.91-1.16-48.17s-1.38-14.91-6.57-25.79-8.84-23.36-10.71-28.57-40-.62-40-.62" style="fill:#ffa8a7"/><path d="M121.83 270.89a74.3 74.3 0 0 0-4.37 19c-.91 10.32-1 25.06-1 25.06s1.41 6.57 11.63 7.84 11.43-3.23 11.43-3.23l4.9-19.56 12.66 22.82s11.6 1.57 20.52-11.66c-.38-5.28-15.16-36.35-15.73-40.26Z" style="fill:#10b981"/><path d="M144.42 300a25.93 25.93 0 0 0 10.41-8s-1.1 6.67-4.31 9.77l6.56 21Z" style="opacity:.1"/><path d="M150.92 216.36c4.43-.73 9.1 0 10.57 4.59 1.71 5.37-2.83 16.75-2.83 16.75Z" style="fill:#ffa8a7"/><path d="M127.57 217.46c-2.5 1.11-8.63 5.09-7.15 14.38 1.58 9.87 3.47 26.58 3.47 26.58.19 3.07-1.55 6.65-2.44 12.51 5.7 6.2 34.45 13.27 40.8.54 0 0 .42-26.45-1.69-40.43-1.29-8.5-3.3-14.66-11.52-14.85l-13.94-.81a48 48 0 0 0-7.53 2.08" style="fill:#10b981"/><path d="M127.57 217.46c-2.5 1.11-8.63 5.09-7.15 14.38 1.58 9.87 3.47 26.58 3.47 26.58.19 3.07-1.55 6.65-2.44 12.51 5.7 6.2 34.45 13.27 40.8.54 0 0 .42-26.45-1.69-40.43-1.29-8.5-3.3-14.66-11.52-14.85l-13.94-.81a48 48 0 0 0-7.53 2.08" style="opacity:.5"/><circle cx="148.28" cy="193.01" r="11.54" style="fill:#263238"/><path d="M129.4 199.9s1.77 8.32 2.48 9.68a3.77 3.77 0 0 0 2.18 1.76l-.12-5.85Z" style="fill:#263238"/><path d="M131.63 188a4.14 4.14 0 0 0-3.4 1.19c-1.45 1.49-.64 6.16 1.17 10.72l3.34.38Z" style="fill:#263238"/><path d="M133.74 200.29c-.67.4-1.62-.89-2.45-1.75s-3.51-2-4.86.79 1.19 6.69 3.31 7.35c3.65 1.15 4.2-1.19 4.2-1.19l.27 13.17c3.15 3.51 13.91 2.67 11.88-.35v-4a23 23 0 0 0 4.92.25c2.69-.41 4.38-2.53 5.19-5.44 1.31-4.66 1.81-8.43.7-17.61-1.22-10.07-12.92-10.17-19.24-6.19s-3.92 14.97-3.92 14.97" style="fill:#ffa8a7"/><path d="M133.74 201.41c-.34 0-1.62-2.11-2.45-2.87-1.15-1 .34-10.55.34-10.55a4.49 4.49 0 0 1 1.11-4.8c1.58-1.74 4.22-1.93 8.72-2.64 2.37-.37 5.95-1 8.31-1.47 2.82-.53 5.15-1.08 7.15.65a5 5 0 0 1 1.38 5.6 4.8 4.8 0 0 1-.8 1.19 4.6 4.6 0 0 1-2 1.4s-1.23 1.09-5.51 1.61a64 64 0 0 1-11.85-.22c-1.24-.17-1.5 1-2.17 4.31-.62 2.89-1.1 7.77-2.23 7.79" style="fill:#263238"/><path d="M146.08 214.3s-6-1.21-8.09-2.32a6.9 6.9 0 0 1-2.89-2.87 9.4 9.4 0 0 0 1.64 3.38c1.53 2 9.34 2.89 9.34 2.89Z" style="fill:#f28f8f"/><path d="M144.64 198.79a1.21 1.21 0 0 1-1.2 1.24 1.25 1.25 0 1 1 1.2-1.24m-1.93-4.97-2.57 1.41a1.53 1.53 0 0 1 .6-2 1.43 1.43 0 0 1 1.97.59" style="fill:#263238"/><path d="m145.54 207.09 2.74 1a1.43 1.43 0 0 1-1.86.91 1.52 1.52 0 0 1-.88-1.91" style="fill:#f28f8f"/><path d="m155.66 194.87-2.34-1.8a1.41 1.41 0 0 1 2-.31 1.54 1.54 0 0 1 .34 2.11m-1.03 3.58a1.2 1.2 0 1 1-1.2-1.25 1.22 1.22 0 0 1 1.2 1.25" style="fill:#263238"/><path d="m148.69 197.48.14 7.29 4.31-.95z" style="fill:#f28f8f"/><path d="M76.53 313.35a5.8 5.8 0 0 0-2.86-2.27c-1.21-.39-5.18-.19-6.92 2.57s-1.7 6.1-2.76 8.18a21.9 21.9 0 0 1-4.7 5.58c-1.74 1.63-3.63 6.15-2.6 10.31a5.64 5.64 0 0 0 4.18 4.16Z" style="fill:#f0f0f0"/><path d="M75.48 312.68a7.44 7.44 0 0 0-7.22 2.1c-1.62 2-1.57 4.89-2.46 7.19a12.2 12.2 0 0 1-2.17 3.14c-.94 1.21-2.09 2.26-2.94 3.55a13 13 0 0 0-1.48 3.34 11.9 11.9 0 0 0-.53 4 7.19 7.19 0 0 0 3 5.36c1.8 1.23 4.27 1.44 5.64-.52a13 13 0 0 0 1.14-2.34 13.1 13.1 0 0 1 2.55-4.27c1.07-1 2-2.25 3.14-3.14.18-.14.36-.3.55-.42 2.08-1.37 4.23-2.58 4.43-3.41s.37-10.42.37-10.42c-1.1-.27-2.24-3.6-4.02-4.16" style="fill:#263238"/><path d="M59.88 330.18a9.4 9.4 0 0 1 5.05 1.48c2.69 1.65 4 3.67 4.17 5.56 0 0-.38 2.93-1.38 4.07s-3 2.42-6.85.59c0 0-5.18-4.51-.99-11.7" style="fill:#fafafa"/><path d="m90.15 316.14-12.71.67a5.46 5.46 0 0 0-2.39.49c-1.57.61-3.58 5.12-1.9 6.32a1.66 1.66 0 0 1 .87 1.46c1-.6 2.8.18 3.84.9a2 2 0 0 1 .86 1.16 17 17 0 0 1 1.77-.15 43 43 0 0 1 5.42.7Z" style="fill:#ffa8a7"/><path d="M168.33 392.54c-.61.15-.66 2.51-.42 3.19a7.86 7.86 0 0 0 2.56 3.09 12.6 12.6 0 0 1 3.72 4.44 21.4 21.4 0 0 0 6.23 6.84 14.18 14.18 0 0 0 11.4 1.47c4.06-1.11 4.53-2.16 4.56-3.69Z" style="fill:#f0f0f0"/><path d="M181 384.22c.65 1.64 2.77 8.57 6.92 11.95 3.3 2.68 7.76 5.74 9 8.87s-5.71 4.76-8.66 4.41c-3.44-.41-7.95-2.09-10.51-4.9-1.81-2-3-4.37-4.31-5.93s-4.17-3.22-4.93-5.07c-.42-1-.12-3.31.27-5.25.37-1.78.76-3.75 1.37-3.61 0 .21.06 1.08.06 1.08.79.76 10.79-1.55 10.79-1.55" style="fill:#263238"/><path d="M182.21 387.45c-.53-1.58-1.08-3.18-1.3-4.24a36 36 0 0 1-.55-5.89c-.15-3.76-.18-12.39-.18-12.39l-11.85 6.2c.3 2.32.86 4.17 1.35 7a28 28 0 0 1 .48 4.85v2.6c0 .44.31.62.59.9a4.8 4.8 0 0 1 1 1.65 1.5 1.5 0 0 0 .62.83 1.6 1.6 0 0 0 .79.06c.79 0 2-.19 2.4.69a3 3 0 0 1 1.18-2.06c1.2-.92 4.51-2.5 5.47-.2" style="fill:#ffa8a7"/><path d="M180.78 406.93s1.37-5.43 6.58-7.36 6.88.39 7.61 1 4.28 4 1.41 7.3c0 .01-7.84 5.4-15.6-.94" style="fill:#fafafa"/><path d="M140.5 277.13a23.5 23.5 0 0 1-6.2-2.26 11.6 11.6 0 0 0 3.24-.55 2.29 2.29 0 0 0 1.68-2.65c-.14-.48-1.3 0-3.31-.32-2.57-.37-3.91-1.35-6.7-1.06a4.3 4.3 0 0 1-2.94-.74c-4.59-3.29-10.15-10.52-13.72-16l9.57-13.69a10.45 10.45 0 0 0 7.33-6.06c1.37-3.28 2.85-11.07-1.88-16.36a14.65 14.65 0 0 0-7.44 1.84c-2.78 1.41-7 7.84-10.37 13.54-2.89 5-11.15 18.14-11.15 22.84 0 1.93 2.52 4.78 8.72 10.41 3 2.81 6.46 5.89 10.16 9.21a75 75 0 0 0 8.77 6.39c8.23 5.36 12.49 5.33 15.79 2.7 5.26-4.19 3.6-6.08-1.55-7.24" style="fill:#ffa8a7"/></svg>