<svg xmlns="http://www.w3.org/2000/svg" viewBox="0 0 500 500"><path d="M86.28 447.6c-90.41-52.2-90.41-136.84 0-189s237-52.2 327.44 0 90.41 136.84 0 189-237.02 52.21-327.44 0" style="fill:#fafafa"/><path d="M234.25 427.5c-27.62-15.95-27.62-41.8 0-57.75s72.39-15.94 100 0 27.62 41.8 0 57.75-72.38 15.94-100 0" style="fill:#ebebeb"/><path d="M160.05 454.55c-23.1-13.33-23.1-34.95 0-48.28s60.53-13.33 83.62 0 23.09 35 0 48.28-60.53 13.33-83.62 0" style="fill:#ebebeb"/><path d="M146.22 354.88c5.56-3.49 2.28-8.59-1.44-12-3.54-3.26-7.05-4.33-11.48-6-3-1.11-4.82-3.64-7.07-5.71s-5.4-2.86-8.36-3.88c-3.51-1.22-2.2-2.71.78-3.62C124 322 129.87 323 135 321c3.73-1.42 6.12-2.59 10.23-1.9 4.37.74 7.82 3.27 11.94 4.47 2.84.82 6.59 1.57 9.32.09 2.31-1.25 1.88-3.54 1.33-5.79-.8-3.26-2.22-6.21-2.92-9.5a7.2 7.2 0 0 0-1.6-3.37 18.6 18.6 0 0 0-3.24-2.39c-1.43-.85-5.43-.52-6.14-2.17-1-2.36 3.82-3.12 5.18-3.2 1.2-.07 4.57.28 5.48 1.41.74.92.08 1.79.17 2.82.28 3.14 4.15 3.38 6.69 3.69 2.83.34 5.35.62 7.72 2.36s3.94 4.51 5.93 6.67a43.2 43.2 0 0 1 5.32 7.44c2.77 4.67 5 9.63 7.63 14.37 2.08 3.77 4 9.49 9.12 8.57 3.49-.62 3.92-3.53 6.18-5.73 5.57-5.47 9.86-3.45 10 3.79.18 7.74-2.37 16.07 1.7 23.45 2.44 4.42 7.95 6.34 12.42 8 17.28 6.41 35.05 1.23 49.9-8.56A137.6 137.6 0 0 0 308 348.39c4.34-4.27 9.58-7.35 14.05-11.45 2.58-2.37 5.15-4.75 7.83-7 1.34-1.12 2.71-2.22 4.12-3.26 1.06-.78 2.25-1.17 3.32-1.91 5.08-3.48 10.64-4.8 16.58-6.15a91 91 0 0 1 10.1-1.77c3.08-.35 6.23-.1 9.32-.22a24.6 24.6 0 0 0 6.29-1.25 3.4 3.4 0 0 1 3.5.43c1.66 1.57-.85 3.29-2 4.2-2.79 2.14-6.35 3.17-8.69 5.94-.84 1-1.24 2.28-2 3.31a12.2 12.2 0 0 1-2.64 2.33 15.3 15.3 0 0 0-4 3.94c-.92 1.41-1.08 3-1.52 4.57-1.43 5 2.29 8.34 7.1 8.32 2.26 0 4.59-.36 6.82.16 3.11.73 5.69 3 8.73 4 1.15.38 5.8 1.16 4.8 3.33-.7 1.49-4.53 2-5.92 2.31-2.11.44-4.39.68-6.3 1.7-2.1 1.12-4.12 2.39-6.22 3.51s-4 2.15-5.48 4.06c-1.31 1.74-2.95 4.38-1.71 6.48s4.2 3.39 6.36 4.48c3.9 2 8.34 2.06 12.17 4.1 2.84 1.51 3.52 3.74 5.26 6.21 2.23 3.18 5.41 4.62 8.44 6.8 1.48 1.06 3.8 3 3.19 5.18s-3.53 3.57-5.44 3.78c-3.77.41-7.52-.29-11.21-1a110 110 0 0 0-11.93-1.36c-7.15-.64-13.44-1.1-20 2.62-6.92 3.91-13.13 9.25-20 13.35a54 54 0 0 1-5 2.66c-18.45 8.59-40.27 8.72-59.9 3.55a144.6 144.6 0 0 1-22.79-7.92c-6.35-2.86-12.31-6.82-19.38-7.68-3.93-.47-10.54-.46-21.39 1.85a46 46 0 0 1-9.33 1.17c-6.34.08-13-1.58-16.34-7.31-2.16-3.74-.53-5.91-4.88-7.6s-8.49-1-11.74-4.77c-2.5-2.87-1.49-7.86-4.9-9.79-2.28-1.28-6.6-1-7.75-3.78-.68-1.68.79-2.44-.66-4-1.23-1.31-4.22-2.44-5.86-3.07-5.21-2-11.63-.39-16.63-2.85-6-2.94.93-6.52 4.07-8 5.64-2.54 12.47-2.38 17.78-5.71" style="fill:#10b981"/><path d="M146.22 354.88c5.56-3.49 2.28-8.59-1.44-12-3.54-3.26-7.05-4.33-11.48-6-3-1.11-4.82-3.64-7.07-5.71s-5.4-2.86-8.36-3.88c-3.51-1.22-2.2-2.71.78-3.62C124 322 129.87 323 135 321c3.73-1.42 6.12-2.59 10.23-1.9 4.37.74 7.82 3.27 11.94 4.47 2.84.82 6.59 1.57 9.32.09 2.31-1.25 1.88-3.54 1.33-5.79-.8-3.26-2.22-6.21-2.92-9.5a7.2 7.2 0 0 0-1.6-3.37 18.6 18.6 0 0 0-3.24-2.39c-1.43-.85-5.43-.52-6.14-2.17-1-2.36 3.82-3.12 5.18-3.2 1.2-.07 4.57.28 5.48 1.41.74.92.08 1.79.17 2.82.28 3.14 4.15 3.38 6.69 3.69 2.83.34 5.35.62 7.72 2.36s3.94 4.51 5.93 6.67a43.2 43.2 0 0 1 5.32 7.44c2.77 4.67 5 9.63 7.63 14.37 2.08 3.77 4 9.49 9.12 8.57 3.49-.62 3.92-3.53 6.18-5.73 5.57-5.47 9.86-3.45 10 3.79.18 7.74-2.37 16.07 1.7 23.45 2.44 4.42 7.95 6.34 12.42 8 17.28 6.41 35.05 1.23 49.9-8.56A137.6 137.6 0 0 0 308 348.39c4.34-4.27 9.58-7.35 14.05-11.45 2.58-2.37 5.15-4.75 7.83-7 1.34-1.12 2.71-2.22 4.12-3.26 1.06-.78 2.25-1.17 3.32-1.91 5.08-3.48 10.64-4.8 16.58-6.15a91 91 0 0 1 10.1-1.77c3.08-.35 6.23-.1 9.32-.22a24.6 24.6 0 0 0 6.29-1.25 3.4 3.4 0 0 1 3.5.43c1.66 1.57-.85 3.29-2 4.2-2.79 2.14-6.35 3.17-8.69 5.94-.84 1-1.24 2.28-2 3.31a12.2 12.2 0 0 1-2.64 2.33 15.3 15.3 0 0 0-4 3.94c-.92 1.41-1.08 3-1.52 4.57-1.43 5 2.29 8.34 7.1 8.32 2.26 0 4.59-.36 6.82.16 3.11.73 5.69 3 8.73 4 1.15.38 5.8 1.16 4.8 3.33-.7 1.49-4.53 2-5.92 2.31-2.11.44-4.39.68-6.3 1.7-2.1 1.12-4.12 2.39-6.22 3.51s-4 2.15-5.48 4.06c-1.31 1.74-2.95 4.38-1.71 6.48s4.2 3.39 6.36 4.48c3.9 2 8.34 2.06 12.17 4.1 2.84 1.51 3.52 3.74 5.26 6.21 2.23 3.18 5.41 4.62 8.44 6.8 1.48 1.06 3.8 3 3.19 5.18s-3.53 3.57-5.44 3.78c-3.77.41-7.52-.29-11.21-1a110 110 0 0 0-11.93-1.36c-7.15-.64-13.44-1.1-20 2.62-6.92 3.91-13.13 9.25-20 13.35a54 54 0 0 1-5 2.66c-18.45 8.59-40.27 8.72-59.9 3.55a144.6 144.6 0 0 1-22.79-7.92c-6.35-2.86-12.31-6.82-19.38-7.68-3.93-.47-10.54-.46-21.39 1.85a46 46 0 0 1-9.33 1.17c-6.34.08-13-1.58-16.34-7.31-2.16-3.74-.53-5.91-4.88-7.6s-8.49-1-11.74-4.77c-2.5-2.87-1.49-7.86-4.9-9.79-2.28-1.28-6.6-1-7.75-3.78-.68-1.68.79-2.44-.66-4-1.23-1.31-4.22-2.44-5.86-3.07-5.21-2-11.63-.39-16.63-2.85-6-2.94.93-6.52 4.07-8 5.64-2.54 12.47-2.38 17.78-5.71" style="fill:#fff;opacity:.7000000000000001"/><path d="M388.24 313.42c-.49 4.85 10 1.89 6.73-2.1-1.48-1.84-6.49-.32-6.73 2.1" style="fill:#10b981"/><path d="M388.24 313.42c-.49 4.85 10 1.89 6.73-2.1-1.48-1.84-6.49-.32-6.73 2.1" style="fill:#fff;opacity:.7000000000000001"/><path d="M395.21 358.48c1.69.87 8 2.72 9 .2 1.14-2.87-3-3.82-5-4.07a9.1 9.1 0 0 0-3.74 0c-2.16.73-2.18 2.87-.26 3.87" style="fill:#10b981"/><path d="M395.21 358.48c1.69.87 8 2.72 9 .2 1.14-2.87-3-3.82-5-4.07a9.1 9.1 0 0 0-3.74 0c-2.16.73-2.18 2.87-.26 3.87" style="fill:#fff;opacity:.7000000000000001"/><path d="M225.74 326.8c-2.07.56-4.22 2.88-3.73 5 .17.74 2.86 5.37 3.76 5.57 2.82.64 3.65-6.54 3.38-8.12-.38-2.31-1.88-2.86-3.41-2.45" style="fill:#10b981"/><path d="M225.74 326.8c-2.07.56-4.22 2.88-3.73 5 .17.74 2.86 5.37 3.76 5.57 2.82.64 3.65-6.54 3.38-8.12-.38-2.31-1.88-2.86-3.41-2.45" style="fill:#fff;opacity:.7000000000000001"/><path d="M110.47 325.11c-1.65-.19-3.94.56-4.55 1.62-1 1.73.61 2.2 2.21 2.19s3.69-.19 4.05-1.9c.26-1.22-.57-1.79-1.71-1.91" style="fill:#10b981"/><path d="M110.47 325.11c-1.65-.19-3.94.56-4.55 1.62-1 1.73.61 2.2 2.21 2.19s3.69-.19 4.05-1.9c.26-1.22-.57-1.79-1.71-1.91" style="fill:#fff;opacity:.7000000000000001"/><path d="M292.63 374.38c-18.18 10.9-44.26 12.5-64.21 6a34.9 34.9 0 0 1-10.25-5.2c-2.83-2.11-6.63-4.82-8-8.07-1.73-4.22-1.42-9.38-3-13.76-1-2.72-2.06-5.51-4.23-7.39s-5.46-2.55-7.88-4.25c-6.43-4.51-8.3-12.51-11.57-19.27-2.35-4.85-8.4-14-14.72-13.54-.66 2.8 5.18 7.45 5.79 10.93 1.2 6.88-.08 14.3-8.13 15.07-7.7.74-15.33-2-22.77-3.25-1.81-.31-11.58-2.63-8.35 1.87 1.42 2 8.45 3.52 10.57 4.68 3 1.66 6.26 3.32 8.53 6.06 5.13 6.21 2.38 11.15-4.87 12.88-2.75.65-14.88 3.61-6.61 6.59 4.78 1.73 9.9.17 14.36 3.36 3 2.14 2 2.46 2.61 5.26 1.82 8.88 10.09 6.92 15.83 12.05 2.28 2 1.65 3.7 2.09 6.22a12.94 12.94 0 0 0 5.43 8.5c9.69 7 23 1.77 33.58.82a35.07 35.07 0 0 1 23.24 5.58c7.25 4.9 14.51 9.93 22.55 13.45 9.73 4.26 20.46 6.79 31.11 5.79 4.47-.43 8.67-.36 13.09-1.49 6.62-1.69 14.46-4.14 19.95-8.38 4.67-3.6 8.55-8 13.36-11.44a64.5 64.5 0 0 1 10.53-6.35c6-2.7 12.87-2 19-.36 4.58 1.21 9 2.81 13.72 3.15 2 .14 4.69.79 6.62.07 2.09-.79.7-2-.65-2.42-2.29-.77-4.47-1.32-6.43-2.83-2.11-1.63-3.87-3.66-6-5.24a21.3 21.3 0 0 0-8.21-3.32c-1.85-.42-3.65-.91-5.47-1.43a8.34 8.34 0 0 1-3.65-1.62c-1-.86-2.1-1.59-3-2.54a7.33 7.33 0 0 1-2.1-6.88c.64-2.77 3.17-4.59 5.15-6.55 2.16-2.16 6-3.88 7.74-6.08 2.86-3.54-4.83-5.85-7.15-6.53-4.73-1.39-6.52-6.29-6.13-11 .24-3 1.75-4.72 3.3-7.16s4.26-3 6-5c1.22-1.38 1.48-3.42 2.56-4.93.54-.77 2.31-2.17 2.18-3.16-.19-1.43-8.66 1.67-9.35 2-4.06 1.92-7.73 5.05-11.18 7.87-3.75 3.06-7.71 5.91-11.49 9s-7.19 6.07-10.76 9.13c-1.45 1.24-2.69 2.85-4.27 3.91-1.91 1.29-3.58 2.9-5.48 4.21-1.62 1.1-3.37 2-5 3.1-5.9 4.06-11.8 8.19-17.98 11.89" style="fill:#10b981;opacity:.2"/><path d="M230 384.76c-8-2.52-16.32-5.52-20.8-13a54 54 0 0 1-4.84-9.47c-1-2.74-1.48-5.7-2.57-8.39-1.62-4-3.47-6.73-7.53-8.15-3.3-1.16-8.73-1.71-10.78-4.87-1.6-2.47-2-4.06-5.49-3.9-2.9.14-3.22 1.32-4.13 3.77-1.19 3.17-1.66 3.83-5.6 3.69-4.53-.16-12.17-2.37-6.32 4.31 1.64 1.87 4.64 4.41 3.19 7.37-1.2 2.47-8.64 2.41-6.21 6.49.67 1.12 3.5 1.73 4.58 2.79a13.7 13.7 0 0 1 3 5c1.85 4.51 6.16 5.15 10.14 7.23 5.33 2.79 5.45 6.65 8.25 11.43 4.24 7.25 12.48 7.42 20 6.65 9-.91 18.89-2.07 27.7.6 11.41 3.47 21.29 10.88 32.3 15.45 11.59 4.82 23.9 7 36 3.44 5.19-1.55 9.72-4.5 14.06-7.66a115 115 0 0 1 12.77-8 56.5 56.5 0 0 1 32.35-6.66c2.78.27 6.27 1.68 9 1.07 4.45-1-3.24-3.76-4.37-4.55-1.42-1-2.49-2.49-3.9-3.5a19.3 19.3 0 0 0-5.37-2.32c-2.64-.83-5.52-1.51-7.61-3.48-1.38-1.29-.91-2.78-.66-4.5.78-5.45 5.67-7.46 9.42-10.75 4.8-4.21 2.07-7.57-2.7-10.22-1.64-.91-3.88-2.62-4.22-4.59-.39-2.25.64-5 1.25-7.1.32-1.12 1.33-3.55.58-4.68-1.31-2-3.49.09-4.59.93a239 239 0 0 0-20.53 18c-2.07 2-4 4.41-6.21 6.19-1.65 1.29-3.4 2.49-5.06 3.74-2.45 1.83-4.78 3.81-7.24 5.63-2.71 2-5.85 3.51-8.59 5.44-3.24 2.28-7.63 3.71-11.28 5.2-7.75 3.15-16.33 5.93-24.72 6.49a84 84 0 0 1-11.53.17 48.4 48.4 0 0 1-11.15-2.44c-3.47-1.08-7.08-1.74-10.59-2.85" style="fill:#10b981;opacity:.2"/><path d="M170.49 318.33c.4 3.78-.07 7.4-4.09 9.07-5 2.06-10.43-1.13-14.81-3s-8.71-3.48-13.36-1.91c-3.65 1.23-6.92 2.54-10.91 1.93 4 1.65 7.85.85 12 .45 4.55-.43 8.51 1 12.47 3.07 7.11 3.71 18.14 4.54 19.17-5.22a13.1 13.1 0 0 0-.47-4.39m183.68 3.28c-.92.36-1.84.74-2.74 1.13a47 47 0 0 0-5.3 2.82 31.8 31.8 0 0 0-5.93 5.12c-4 4-8.09 7.75-12.22 11.54-3.35 3.08-7.77 7.25-12.58 7.49 1.9.36 5.09-.31 6.92-.72 4-.89 7.5-4 10.55-6.6 5.35-4.57 10.25-10.05 16-14 3.26-2.25 6.38-4.35 10.2-5.59 2.45-.79 4.9-1.48 7.37-2.21a41 41 0 0 0 4.93-1.29c-3.81.73-7.64-.1-11.42.62a34.6 34.6 0 0 0-5.78 1.69m4.69 17.82c-.23 2.08-.79 3.7.15 5.71a10.86 10.86 0 0 0 6.71 5.21c4 1 8.66.41 11.8 3.47a37 37 0 0 0-6.17-1.59c-2.82-.37-5.82 0-8.58-.78-2.11-.59-4.26-2-5-4.1-.77-2.35.08-4.35 1.09-7.92m2.72 32.78c.59 1.5.58 3.29 1.51 4.8 3.5 5.76 10.88 4.25 16.29 6.73 2.89 1.32 4.34 3.74 6.11 6.23a15.3 15.3 0 0 0 3.18 3.57 19.3 19.3 0 0 0 3.2 1.4 6.1 6.1 0 0 1-2.87-.13 10 10 0 0 1-5.26-3c-1.35-1.35-2.18-3-3.67-4.23a14.8 14.8 0 0 0-4-2.43c-3.84-1.49-8.41-2.08-11.78-4.62a7.43 7.43 0 0 1-2.82-4.37c-.17-1.16.53-2.89.11-3.95m10.34 27.47c-13.84-2.58-22.58 1.69-33.3 9.09 0 0 6.37-7.48 15.12-10.17s18.18 1.08 18.18 1.08m-124.85 16.44c-8.09-3.45-14.29-8.67-21.85-10s-19.35 1.94-22.09 2.22c0 0 5.11-1.68 9.79-3.45s11.93-3.14 18.44.54 10.64 8.12 15.71 10.69m-11.81-39.81a26 26 0 0 1-3.1-1.2 20.7 20.7 0 0 1-8.42-7 19.7 19.7 0 0 1-3-9.93c-.17-4.4 1-8.69 1.28-13.05a21.6 21.6 0 0 0 .1-3.41 9 9 0 0 0-.27-1.52 5.5 5.5 0 0 0-.92-1.78 3.1 3.1 0 0 0-.79-.66c-.25-.14-.63-.14-.85-.28a4 4 0 0 1 1.45 3.54 24 24 0 0 1-.33 2.64c-.42 2-.9 4-1.22 6-.53 3.24-1.37 6.39-1.79 9.67-.5 4 .05 7.4 2.55 10.68a16.26 16.26 0 0 0 6.3 4.56c2.69 1.19 6.16 2.19 9.01 1.74m-103.36-8.23h.1c4.34.31 9.23-.22 13.28 1.67 1.53.72 3.29 1.43 4.11 3 .65 1.28-.22 2.76.65 4 1.45 2 4.92 1.59 7 2.57a11.46 11.46 0 0 1 4.09 3c.8 1.05.84 2.29 1.17 3.41 1.28-2.73-1.94-5.46-3.85-6.83-2.22-1.59-6-2.09-6.51-5.06a11.7 11.7 0 0 0-1.85-4.76c-1-1.36-2.95-1.84-4.53-2.19a29.8 29.8 0 0 0-11.18-.38c-2.5.37-5.25 1-7.67-.08 1.29 1.17 3.4 1.51 5.19 1.65" style="fill:#fafafa"/><path d="M248.13 413.53c-21.95-12.51-21.95-32.79 0-45.3s57.54-12.5 79.48 0 21.95 32.79 0 45.3-57.53 12.47-79.48 0" style="opacity:.1"/><path d="M342.32 130.67c0-20.5-18.81-40-27-47.76-4.36-4.1-7-6.11-8.26-8.66-1.06-2.25-.91-3.5-.91-7.84h-36.54c0 4.34.15 5.59-.92 7.84-1.21 2.55-3.89 4.56-8.25 8.66-8.2 7.72-27 27.26-27 47.76a18.9 18.9 0 0 0 .85 5.54 18.7 18.7 0 0 0-.85 5.56v8.84a18.6 18.6 0 0 0 .75 5.2 18.6 18.6 0 0 0-.72 5.9v11a18.15 18.15 0 0 0 3.14 10.29l2.37 3.46a18.24 18.24 0 0 1 1.12 18.71l-4.61 8.83a18.2 18.2 0 0 0-2.07 8.42v166.47c0 8 5.32 16.09 16 22.23 21.27 12.27 55.74 12.27 77 0 10.64-6.14 15.95-14.19 15.95-22.23V222.45a18.3 18.3 0 0 0-2.06-8.42l-4.61-8.83a18.18 18.18 0 0 1 1.12-18.71l2.37-3.46a18.2 18.2 0 0 0 3.18-10.28v-11a18.5 18.5 0 0 0-.71-5.9 19 19 0 0 0 .74-5.2v-8.84a18.7 18.7 0 0 0-.85-5.56 18.5 18.5 0 0 0 .85-5.54Z" style="fill:#10b981"/><path d="M342.32 130.67c0-20.5-18.81-40-27-47.76-4.36-4.1-7-6.11-8.26-8.66-1.06-2.25-.91-3.5-.91-7.84h-36.54c0 4.34.15 5.59-.92 7.84-1.21 2.55-3.89 4.56-8.25 8.66-8.2 7.72-27 27.26-27 47.76a18.9 18.9 0 0 0 .85 5.54 18.7 18.7 0 0 0-.85 5.56v8.84a18.6 18.6 0 0 0 .75 5.2 18.6 18.6 0 0 0-.72 5.9v11a18.15 18.15 0 0 0 3.14 10.29l2.37 3.46a18.24 18.24 0 0 1 1.12 18.71l-4.61 8.83a18.2 18.2 0 0 0-2.07 8.42v166.47c0 8 5.32 16.09 16 22.23 21.27 12.27 55.74 12.27 77 0 10.64-6.14 15.95-14.19 15.95-22.23V222.45a18.3 18.3 0 0 0-2.06-8.42l-4.61-8.83a18.18 18.18 0 0 1 1.12-18.71l2.37-3.46a18.2 18.2 0 0 0 3.18-10.28v-11a18.5 18.5 0 0 0-.71-5.9 19 19 0 0 0 .74-5.2v-8.84a18.7 18.7 0 0 0-.85-5.56 18.5 18.5 0 0 0 .85-5.54Z" style="fill:#fff;opacity:.5"/><path d="M233.42 150.61c0 8 5.32 16.09 16 22.23 21.27 12.28 55.74 12.28 77 0 10.63-6.14 15.94-14.18 15.94-22.23v-8.85c0 8-5.31 16.09-15.94 22.23-21.27 12.27-55.74 12.27-77 0-10.63-6.13-16-14.18-16-22.22Z" style="fill:#10b981"/><path d="M233.42 173c0 8 5.32 16.09 16 22.23 21.27 12.28 55.74 12.28 77 0 10.58-6.18 15.9-14.23 15.9-22.23v-12c0 8.05-5.31 16.09-15.94 22.23-21.27 12.28-55.74 12.28-77 0-10.63-6.14-16-14.18-16-22.23Z" style="fill:#10b981"/><path d="M342.32 130.66a19 19 0 0 1-.21 2.81c0 .21-.07.42-.12.64a18 18 0 0 1-.51 2.1c-1.88 6.13-6.92 12-15.11 16.69-21.26 12.28-55.73 12.27-77 0-8.18-4.73-13.21-10.57-15.1-16.69 0-.09-.05-.19-.08-.28q-.12-.37-.21-.75a19.3 19.3 0 0 1-.55-4.51c0-20.51 18.81-40 27-47.76 4.36-4.1 7-6.1 8.26-8.66 1.06-2.25.91-3.5.91-7.84h36.53c0 4.34-.16 5.59.91 7.84 1.22 2.56 3.9 4.56 8.26 8.66 8.21 7.73 27.01 27.25 27.02 47.75M323 233.38c-19.4 11.2-50.86 11.2-70.26 0-13.25-7.66-17.45-18.56-12.6-28.27a.4.4 0 0 0 0 .09l-4.65 8.8a18.2 18.2 0 0 0-2.07 8.42v166.47c0 8 5.32 16.09 16 22.23 21.27 12.27 55.74 12.27 77 0 10.64-6.14 15.95-14.19 15.95-22.23V222.45a18.3 18.3 0 0 0-2.06-8.42l-4.61-8.83a.4.4 0 0 1 0-.09c4.76 9.71.56 20.61-12.7 28.27" style="fill:#10b981"/><g style="opacity:.7000000000000001"><path d="M233.42 150.61c0 8 5.32 16.09 16 22.23 21.27 12.28 55.74 12.28 77 0 10.63-6.14 15.94-14.18 15.94-22.23v-8.85c0 8-5.31 16.09-15.94 22.23-21.27 12.27-55.74 12.27-77 0-10.63-6.13-16-14.18-16-22.22Z" style="fill:#fff"/><path d="M233.42 173c0 8 5.32 16.09 16 22.23 21.27 12.28 55.74 12.28 77 0 10.58-6.18 15.9-14.23 15.9-22.23v-12c0 8.05-5.31 16.09-15.94 22.23-21.27 12.28-55.74 12.28-77 0-10.63-6.14-16-14.18-16-22.23Z" style="fill:#fff"/><path d="M342.32 130.66a19 19 0 0 1-.21 2.81c0 .21-.07.42-.12.64a18 18 0 0 1-.51 2.1c-1.88 6.13-6.92 12-15.11 16.69-21.26 12.28-55.73 12.27-77 0-8.18-4.73-13.21-10.57-15.1-16.69 0-.09-.05-.19-.08-.28q-.12-.37-.21-.75a19.3 19.3 0 0 1-.55-4.51c0-20.51 18.81-40 27-47.76 4.36-4.1 7-6.1 8.26-8.66 1.06-2.25.91-3.5.91-7.84h36.53c0 4.34-.16 5.59.91 7.84 1.22 2.56 3.9 4.56 8.26 8.66 8.21 7.73 27.01 27.25 27.02 47.75M323 233.38c-19.4 11.2-50.86 11.2-70.26 0-13.25-7.66-17.45-18.56-12.6-28.27a.4.4 0 0 0 0 .09l-4.65 8.8a18.2 18.2 0 0 0-2.07 8.42v166.47c0 8 5.32 16.09 16 22.23 21.27 12.27 55.74 12.27 77 0 10.64-6.14 15.95-14.19 15.95-22.23V222.45a18.3 18.3 0 0 0-2.06-8.42l-4.61-8.83a.4.4 0 0 1 0-.09c4.76 9.71.56 20.61-12.7 28.27" style="fill:#fff"/></g><path d="M335.82 138a12.9 12.9 0 0 1 .58 3.8v8.85a12.8 12.8 0 0 1-.51 3.55l-.48 1.65.48 1.64a12.4 12.4 0 0 1 .48 4l-.23 6.14h.26v5.11a12.27 12.27 0 0 1-2.15 6.94l-2.37 3.46a24.07 24.07 0 0 0-1.48 24.8l4.61 8.83a12.45 12.45 0 0 1 1.39 5.68v166.44c0 6.19-4.61 12.27-13 17.1-9.39 5.43-22 8.41-35.54 8.41s-26.14-3-35.53-8.41c-8.38-4.83-13-10.91-13-17.1V222.45a12.2 12.2 0 0 1 1.39-5.68l4.61-8.83a24.16 24.16 0 0 0-1.49-24.8l-2.36-3.46a12.2 12.2 0 0 1-2.15-6.94v-5.11h.23l-.21-6.16a12.7 12.7 0 0 1 .49-4l.47-1.64-.47-1.65a12.8 12.8 0 0 1-.51-3.55v-8.84a12.8 12.8 0 0 1 .58-3.81l.55-1.75-.55-1.74a12.9 12.9 0 0 1-.58-3.8c0-7.19 2.75-14.42 6.65-21a.3.3 0 0 1 .06-.11l.42-.71a4 4 0 0 1 .22-.34 29.25 29.25 0 0 1 10.06-9c17.19-9.93 45-9.93 62.23 0a29.34 29.34 0 0 1 10.06 9l.21.34.43.71a.6.6 0 0 1 .06.11c3.89 6.61 6.65 13.84 6.65 21a13 13 0 0 1-.58 3.8l-.55 1.74Z" style="fill:#10b981"/><path d="M335.82 138a12.9 12.9 0 0 1 .58 3.8v8.85a12.8 12.8 0 0 1-.51 3.55l-.48 1.65.48 1.64a12.4 12.4 0 0 1 .48 4l-.23 6.14h.26v5.11a12.27 12.27 0 0 1-2.15 6.94l-2.37 3.46a24.07 24.07 0 0 0-1.48 24.8l4.61 8.83a12.45 12.45 0 0 1 1.39 5.68v166.44c0 6.19-4.61 12.27-13 17.1-9.39 5.43-22 8.41-35.54 8.41s-26.14-3-35.53-8.41c-8.38-4.83-13-10.91-13-17.1V222.45a12.2 12.2 0 0 1 1.39-5.68l4.61-8.83a24.16 24.16 0 0 0-1.49-24.8l-2.36-3.46a12.2 12.2 0 0 1-2.15-6.94v-5.11h.23l-.21-6.16a12.7 12.7 0 0 1 .49-4l.47-1.64-.47-1.65a12.8 12.8 0 0 1-.51-3.55v-8.84a12.8 12.8 0 0 1 .58-3.81l.55-1.75-.55-1.74a12.9 12.9 0 0 1-.58-3.8c0-7.19 2.75-14.42 6.65-21a.3.3 0 0 1 .06-.11l.42-.71a4 4 0 0 1 .22-.34 29.25 29.25 0 0 1 10.06-9c17.19-9.93 45-9.93 62.23 0a29.34 29.34 0 0 1 10.06 9l.21.34.43.71a.6.6 0 0 1 .06.11c3.89 6.61 6.65 13.84 6.65 21a13 13 0 0 1-.58 3.8l-.55 1.74Z" style="fill:#fff;opacity:.85"/><path d="M319 135.43c-17.19 9.92-45 9.92-62.23 0-12.09-7-15.68-17-10.76-25.79a.3.3 0 0 1 .06-.11l.42-.71a4 4 0 0 1 .22-.34 29.25 29.25 0 0 1 10.06-9c17.19-9.93 45-9.93 62.23 0a29.34 29.34 0 0 1 10.06 9l.21.34.43.71a.6.6 0 0 1 .06.11c4.9 8.78 1.32 18.81-10.76 25.79" style="fill:#fff;opacity:.7000000000000001"/><path d="M336.24 165.06a40.2 40.2 0 0 1-9.87 7.78c-21.26 12.28-55.73 12.28-77 0a40.3 40.3 0 0 1-9.88-7.8l.09 2.59h-.23v5.11a12.4 12.4 0 0 0 .35 2.93 40.7 40.7 0 0 0 9.67 7.56c21.27 12.28 55.74 12.28 77 0a40.3 40.3 0 0 0 9.67-7.57 12.4 12.4 0 0 0 .36-2.92v-5.11h-.26Zm-5.84 42.88a24.1 24.1 0 0 1-2.75-11.16c0-.82.06-1.63.14-2.44-.46.29-.93.57-1.42.85-21.26 12.28-55.73 12.28-77 0-.48-.28-1-.56-1.42-.85.08.81.13 1.62.13 2.44a24.1 24.1 0 0 1-2.73 11.16l-4.61 8.83a12 12 0 0 0-1.12 3.18c2.09 4.92 6.46 9.59 13.12 13.43 19.41 11.19 50.86 11.19 70.27 0 6.65-3.84 11-8.5 13.11-13.42a12.3 12.3 0 0 0-1.11-3.19Zm-4-55c-21.26 12.28-55.73 12.27-77 0a39.8 39.8 0 0 1-10-8v5.67a12.8 12.8 0 0 0 .51 3.55l.47 1.65-.28 1a41 41 0 0 0 9.32 7.2c21.27 12.27 55.74 12.27 77 0a40.7 40.7 0 0 0 9.33-7.21l-.29-1 .48-1.65a12.8 12.8 0 0 0 .51-3.55V145a39.9 39.9 0 0 1-10.08 7.9Z" style="fill:#10b981"/><path d="M336.24 165.06a40.2 40.2 0 0 1-9.87 7.78c-21.26 12.28-55.73 12.28-77 0a40.3 40.3 0 0 1-9.88-7.8l.09 2.59h-.23v5.11a12.4 12.4 0 0 0 .35 2.93 40.7 40.7 0 0 0 9.67 7.56c21.27 12.28 55.74 12.28 77 0a40.3 40.3 0 0 0 9.67-7.57 12.4 12.4 0 0 0 .36-2.92v-5.11h-.26Zm-5.84 42.88a24.1 24.1 0 0 1-2.75-11.16c0-.82.06-1.63.14-2.44-.46.29-.93.57-1.42.85-21.26 12.28-55.73 12.28-77 0-.48-.28-1-.56-1.42-.85.08.81.13 1.62.13 2.44a24.1 24.1 0 0 1-2.73 11.16l-4.61 8.83a12 12 0 0 0-1.12 3.18c2.09 4.92 6.46 9.59 13.12 13.43 19.41 11.19 50.86 11.19 70.27 0 6.65-3.84 11-8.5 13.11-13.42a12.3 12.3 0 0 0-1.11-3.19Zm-4-55c-21.26 12.28-55.73 12.27-77 0a39.8 39.8 0 0 1-10-8v5.67a12.8 12.8 0 0 0 .51 3.55l.47 1.65-.28 1a41 41 0 0 0 9.32 7.2c21.27 12.27 55.74 12.27 77 0a40.7 40.7 0 0 0 9.33-7.21l-.29-1 .48-1.65a12.8 12.8 0 0 0 .51-3.55V145a39.9 39.9 0 0 1-10.08 7.9Z" style="fill:#fff;opacity:.7000000000000001"/><path d="M319.49 367.81c-17.46-9.66-45.77-9.66-63.24 0-8.72 4.82-13.08 11.14-13.1 17.46v2.24c0 5.46 4.25 10.83 12 15.09 8.66 4.79 20.29 7.43 32.75 7.43s24.1-2.64 32.76-7.43c7.71-4.26 12-9.63 12-15.09v-2.21c-.07-6.3-4.43-12.66-13.17-17.49" style="fill:#10b981"/><path d="M319.49 367.81c-17.46-9.66-45.77-9.66-63.24 0-8.72 4.82-13.08 11.14-13.1 17.46v2.24c0 5.46 4.25 10.83 12 15.09 8.66 4.79 20.29 7.43 32.75 7.43s24.1-2.64 32.76-7.43c7.71-4.26 12-9.63 12-15.09v-2.21c-.07-6.3-4.43-12.66-13.17-17.49" style="fill:#fff;opacity:.75"/><g style="opacity:.1"><path d="M260.36 388.47V222a18.3 18.3 0 0 1 2.06-8.42l4.61-8.83a18.18 18.18 0 0 0-1.12-18.71l-2.37-3.46a18.2 18.2 0 0 1-3.18-10.28v-11a18.6 18.6 0 0 1 .71-5.91 18.8 18.8 0 0 1-.74-5.19v-8.84a18.7 18.7 0 0 1 .85-5.56 18.5 18.5 0 0 1-.85-5.54c0-20.5 14-40 22.2-47.75 4.36-4.1 7-6.11 8.25-8.66 1-2.18.93-3.42.92-7.42h-22.09c0 4.34.15 5.59-.92 7.84-1.21 2.55-3.89 4.56-8.25 8.66-8.2 7.72-27 27.26-27 47.76a18.9 18.9 0 0 0 .85 5.54 18.7 18.7 0 0 0-.85 5.56v8.84a18.6 18.6 0 0 0 .75 5.2 18.6 18.6 0 0 0-.72 5.9v11a18.15 18.15 0 0 0 3.14 10.27l2.37 3.46a18.24 18.24 0 0 1 1.12 18.71l-4.61 8.83a18.2 18.2 0 0 0-2.07 8.42v166.47c0 8 5.32 16.09 16 22.23 14.47 8.35 35 11 53.41 8-9.7-1.26-18.92-4.06-26.47-8.43-10.69-6.13-16-14.18-16-22.22"/><path d="M326.37 257.11c-21.26 12.28-55.73 12.28-77 0-10.63-6.14-16-14.18-16-22.23v97.25c0 8.05 5.32 16.09 16 22.23 21.27 12.28 55.74 12.28 77 0 10.64-6.14 15.95-14.18 15.95-22.23v-97.25c0 8.05-5.32 16.12-15.95 22.23"/></g><path d="M305.25 52.44c-9.6-5.53-25.15-5.53-34.75 0-4.78 2.76-7.16 6.38-7.17 10v4c0 3.63 2.37 7.26 7.17 10 9.6 5.54 25.15 5.54 34.75 0 4.79-2.77 7.17-6.4 7.16-10v-3.96c.01-3.64-2.41-7.27-7.16-10.04" style="fill:#10b981"/><path d="M305.25 52.44c-9.6-5.53-25.15-5.53-34.75 0-4.78 2.76-7.16 6.38-7.17 10v4c0 3.63 2.37 7.26 7.17 10 9.6 5.54 25.15 5.54 34.75 0 4.79-2.77 7.17-6.4 7.16-10v-3.96c.01-3.64-2.41-7.27-7.16-10.04" style="fill:#fff;opacity:.5"/><path d="M270.5 72.5c-9.59-5.54-9.59-14.52 0-20.06s25.15-5.53 34.75 0 9.59 14.52 0 20.06-25.15 5.5-34.75 0" style="fill:#10b981"/><path d="M270.5 72.5c-9.59-5.54-9.59-14.52 0-20.06s25.15-5.53 34.75 0 9.59 14.52 0 20.06-25.15 5.5-34.75 0" style="fill:#fff;opacity:.5"/><path d="M270.5 72.5c-9.59-5.54-9.59-14.52 0-20.06s25.15-5.53 34.75 0 9.59 14.52 0 20.06-25.15 5.5-34.75 0" style="opacity:.1"/><path d="M304.76 47.31c-9.33-5.39-24.45-5.39-33.77 0-4.65 2.68-7 6.19-7 9.71v3.86c0 3.53 2.3 7.06 7 9.75 9.32 5.38 24.44 5.38 33.77 0 4.66-2.69 7-6.22 7-9.75v-3.82c-.03-3.53-2.34-7.06-7-9.75" style="fill:#10b981"/><path d="M304.76 47.31c-9.33-5.39-24.45-5.39-33.77 0-4.65 2.68-7 6.19-7 9.71v3.86c0 3.53 2.3 7.06 7 9.75 9.32 5.38 24.44 5.38 33.77 0 4.66-2.69 7-6.22 7-9.75v-3.82c-.03-3.53-2.34-7.06-7-9.75" style="opacity:.30000000000000004"/><path d="M271 66.81c-9.33-5.39-9.33-14.12 0-19.5s24.44-5.39 33.77 0 9.32 14.11 0 19.5-24.46 5.38-33.77 0" style="fill:#10b981"/><path d="M271 66.81c-9.33-5.39-9.33-14.12 0-19.5s24.44-5.39 33.77 0 9.32 14.11 0 19.5-24.46 5.38-33.77 0" style="opacity:.5"/><path d="M305.25 27c-9.6-5.54-25.15-5.54-34.75 0-4.78 2.76-7.16 6.38-7.17 10v18.88c0 3.63 2.37 7.26 7.17 10 9.6 5.54 25.15 5.54 34.75 0 4.79-2.77 7.17-6.4 7.16-10V37c.01-3.6-2.41-7.23-7.16-10" style="fill:#10b981"/><path d="M305.25 27c-9.6-5.54-25.15-5.54-34.75 0-4.78 2.76-7.16 6.38-7.17 10v18.88c0 3.63 2.37 7.26 7.17 10 9.6 5.54 25.15 5.54 34.75 0 4.79-2.77 7.17-6.4 7.16-10V37c.01-3.6-2.41-7.23-7.16-10" style="opacity:.2"/><path d="M272.33 46c-8.59-5-8.59-13 0-17.95s22.5-5 31.09 0 8.59 13 0 18S280.91 51 272.33 46" style="fill:#10b981;opacity:.5"/><path d="M288.66 54.65V66.6a.6.6 0 0 1-.59.6h-.37a.6.6 0 0 1-.59-.6V54.65a.59.59 0 0 1 .59-.58h.37a.58.58 0 0 1 .59.58m-4.03-.1v11.94a.53.53 0 0 1-.63.51h-.3a.68.68 0 0 1-.59-.65V54.4a.53.53 0 0 1 .59-.53h.3a.66.66 0 0 1 .63.68m-4.06-.55v12a.46.46 0 0 1-.58.48h-.25a.76.76 0 0 1-.58-.72V53.74a.45.45 0 0 1 .58-.46h.25a.74.74 0 0 1 .58.72m-4-.92V65a.41.41 0 0 1-.57.42l-.21-.07a.89.89 0 0 1-.56-.79V52.64a.4.4 0 0 1 .56-.4l.21.07a.86.86 0 0 1 .57.77m-3.86-1.44v12a.35.35 0 0 1-.53.34l-.21-.1a1 1 0 0 1-.52-.86V51a.33.33 0 0 1 .52-.33l.21.1a1 1 0 0 1 .53.87m-3.59-2v11.94c0 .33-.22.45-.48.26l-.24-.18a1.36 1.36 0 0 1-.47-.95v-12c0-.32.2-.42.46-.22l.25.18a1.29 1.29 0 0 1 .48.97m-3.23-2.83v11.94c0 .33-.18.4-.38.14s-.29-.38-.42-.57a2.17 2.17 0 0 1-.33-1.08v-12c0-.32.14-.36.33-.09s.27.38.42.56a2 2 0 0 1 .38 1.1m25.25 7.74v11.94a.53.53 0 0 0 .59.54h.3a.68.68 0 0 0 .59-.65V54.4a.53.53 0 0 0-.59-.53h-.3a.66.66 0 0 0-.59.68m4.06-.55v12a.46.46 0 0 0 .58.48h.25a.76.76 0 0 0 .58-.72V53.74a.45.45 0 0 0-.58-.46h-.25a.74.74 0 0 0-.58.72m4.01-.92V65a.41.41 0 0 0 .56.42l.22-.07a.89.89 0 0 0 .56-.79V52.64a.4.4 0 0 0-.57-.4l-.21.07a.86.86 0 0 0-.56.77m3.85-1.44v12a.35.35 0 0 0 .54.34l.2-.1a1 1 0 0 0 .52-.86V51a.33.33 0 0 0-.52-.33l-.21.1a1 1 0 0 0-.53.87m3.59-2v11.94c0 .33.22.45.48.26l.24-.18a1.32 1.32 0 0 0 .47-.95v-12c0-.32-.2-.42-.46-.22l-.25.18a1.29 1.29 0 0 0-.48.97m3.23-2.83v11.94c0 .33.18.4.38.14s.29-.38.42-.57a2.17 2.17 0 0 0 .33-1.08v-12c0-.32-.14-.36-.33-.09s-.27.38-.42.56a2 2 0 0 0-.38 1.1" style="opacity:.15"/><path d="M263.33 37.18v18.7a8.6 8.6 0 0 0 .68 3.28 8.7 8.7 0 0 0-.68 3.62v3.63c0 3.63 2.37 7.26 7.17 10A32.9 32.9 0 0 0 283 80.3v-3.92l2.9-1.76V70.8l1-.74h-1V51.15a34.4 34.4 0 0 1-15.34-4.09c-4.78-2.74-7.17-6.3-7.23-9.88" style="opacity:.15"/><path d="M326.37 261.06c-21.26 12.28-55.73 12.28-77 0-10.63-6.13-16-14.18-16-22.23v97.26c0 8 5.32 16.09 16 22.22 21.27 12.28 55.74 12.28 77 0 10.64-6.13 15.95-14.18 15.95-22.22v-97.26c0 8.05-5.32 16.1-15.95 22.23" style="fill:#10b981"/><path d="M342.32 305.69v-3.3c-2.4 2.28-4.67 4.72-6.91 7.13a127 127 0 0 1-8.94 9c-12.11 10.7-25.67 14.18-41.47 10.63-11.41-2.56-21.54-12.38-29.94-21.65-1.76-1.94-3.47-3.94-5.12-5.87-5.18-6.07-10.12-11.8-16.52-15.78v2.79c5.52 3.76 10 9 14.72 14.53 1.66 1.94 3.38 3.95 5.17 5.92 8.65 9.55 19.12 19.66 31.17 22.37a55 55 0 0 0 12.09 1.41c11.57 0 21.95-4.16 31.47-12.57 3.24-2.86 6.22-6.07 9.1-9.17 1.73-1.86 3.44-3.69 5.18-5.44" style="fill:#fafafa"/><path d="M327.26 328.36c-13.79 11.45-28.51 12.38-42.05 9.35-12-2.7-23-11.61-31-20.47-7-7.73-12.78-15.89-20.77-21.07v36c0 8.05 5.32 16.09 16 22.23 21.27 12.28 55.74 12.28 77 0 10.64-6.14 15.95-14.18 15.95-22.23V313c-5.12 4.9-9.59 10.75-15.13 15.36" style="fill:#fafafa"/><path d="M290.44 282.15a4 4 0 0 1 2.8.84 3.43 3.43 0 0 1 1.05 2.71 4.18 4.18 0 0 1-1 2.92 3.73 3.73 0 0 1-2.79 1.09h-2.41v4a.5.5 0 0 1-.12.34.34.34 0 0 1-.28.14h-1.23a.38.38 0 0 1-.29-.15.53.53 0 0 1-.12-.35c-.05-4.63-.08-6.94-.13-11.08a.4.4 0 0 1 .12-.3.42.42 0 0 1 .3-.12c1.66-.02 2.48-.01 4.1-.04m-2.41 5.4h2.35a2.18 2.18 0 0 0 1.36-.42 1.62 1.62 0 0 0 .5-1.34 1.43 1.43 0 0 0-.51-1.28 2.3 2.3 0 0 0-1.36-.33H288v3.37Zm16.44-6.74a.32.32 0 0 1 .28.08.35.35 0 0 1 .12.28c0 2.64 0 4-.05 6.9a7.3 7.3 0 0 1-.28 2 5.4 5.4 0 0 1-.84 1.67 4.5 4.5 0 0 1-1.39 1.21 5.2 5.2 0 0 1-1.93.63 4.7 4.7 0 0 1-1.95-.12 3.2 3.2 0 0 1-1.39-.85 3.6 3.6 0 0 1-.84-1.45 6.5 6.5 0 0 1-.27-1.94v-6.9a.48.48 0 0 1 .43-.47l1.29-.12a.42.42 0 0 1 .3.1.4.4 0 0 1 .12.3v6.81a3.6 3.6 0 0 0 .16 1.21 1.85 1.85 0 0 0 .48.78 1.6 1.6 0 0 0 .75.39 2.5 2.5 0 0 0 .95 0 3.1 3.1 0 0 0 1-.28 2.3 2.3 0 0 0 .75-.59 2.7 2.7 0 0 0 .49-.91 3.9 3.9 0 0 0 .18-1.25c0-2.82 0-4.2.05-6.81a.53.53 0 0 1 .13-.33.48.48 0 0 1 .29-.18Zm6.88-1.58a3.17 3.17 0 0 1 2.71.11 2.63 2.63 0 0 1 .91 2.35 5.6 5.6 0 0 1-.47 2.28 4.74 4.74 0 0 1-1.41 1.77c.79 1.47 1.18 2.22 2 3.72a.4.4 0 0 1 0 .18.6.6 0 0 1-.09.31.44.44 0 0 1-.22.19l-1.21.39a.42.42 0 0 1-.43 0 .8.8 0 0 1-.19-.25c-.75-1.43-1.13-2.15-1.88-3.56-.78.21-1.17.32-2 .51v4.11a.6.6 0 0 1-.12.37.43.43 0 0 1-.28.21l-1.21.29a.31.31 0 0 1-.28-.08.44.44 0 0 1-.12-.32c0-4.61 0-6.9.07-11.06a.56.56 0 0 1 .12-.34.52.52 0 0 1 .28-.19c1.56-.38 2.32-.57 3.82-.99m-2.22 5.8c.85-.21 1.28-.32 2.12-.56a3 3 0 0 0 1.32-.72 2 2 0 0 0 .49-1.44c0-.62-.16-1-.48-1.1a2.27 2.27 0 0 0-1.32.07l-2.12.56c0 1.25-.01 1.89-.01 3.16Zm13.87-.52a.19.19 0 0 1 .24 0 .34.34 0 0 1 .1.28v1.27a.8.8 0 0 1-.1.39.48.48 0 0 1-.24.26 51 51 0 0 1-5.84 2.56.25.25 0 0 1-.26 0 .4.4 0 0 1-.11-.3v-11.09a.6.6 0 0 1 .11-.34.56.56 0 0 1 .26-.23 50 50 0 0 0 5.71-2.51.19.19 0 0 1 .24 0 .28.28 0 0 1 .1.25v1.15a.74.74 0 0 1-.1.37.6.6 0 0 1-.24.25c-1.65.83-2.49 1.22-4.24 1.93v2.67c1.62-.67 2.42-1 4-1.79a.21.21 0 0 1 .24 0 .34.34 0 0 1 .1.28v1.22a.9.9 0 0 1-.1.38.57.57 0 0 1-.25.26c-1.54.76-2.33 1.12-4 1.79v2.91c1.81-.71 2.68-1.11 4.38-1.96" style="fill:#455a64"/><path d="M287.32 308.87c.4-2.61.61-4 1-6.67a.72.72 0 0 1 .19-.43.6.6 0 0 1 .31-.13c.87 0 1.3 0 2.15-.07a.27.27 0 0 1 .25.12.4.4 0 0 1 .11.3 1 1 0 0 1 0 .16c-.83 5.09-1.25 7.63-2.07 12.22a.82.82 0 0 1-.26.48.83.83 0 0 1-.55.23h-1.35a.7.7 0 0 1-.52-.21 1.1 1.1 0 0 1-.29-.46c-.5-1.63-.75-2.47-1.26-4.18-.48 1.72-.71 2.56-1.18 4.19a1.4 1.4 0 0 1-.28.47.7.7 0 0 1-.53.21h-1.35a.8.8 0 0 1-.56-.23.74.74 0 0 1-.27-.47c-.93-4.57-1.4-7.12-2.38-12.27a1 1 0 0 1 0-.16.47.47 0 0 1 .11-.31.32.32 0 0 1 .26-.12c.88 0 1.32.06 2.2.08a.6.6 0 0 1 .32.13.7.7 0 0 1 .2.43c.47 2.74.71 4.09 1.16 6.7l.94-3.53a1.7 1.7 0 0 1 .14-.35.43.43 0 0 1 .41-.22h1.56a.44.44 0 0 1 .42.21 4 4 0 0 1 .15.36c.38 1.43.57 2.14.97 3.52m11.59-7.93a.57.57 0 0 1 .53.15 1.2 1.2 0 0 1 .25.41c1.48 4.84 2.21 7.23 3.67 11.53a.6.6 0 0 1 .06.26.48.48 0 0 1-.37.46c-.87.15-1.3.21-2.17.34a.6.6 0 0 1-.49-.08.53.53 0 0 1-.18-.27l-.47-1.45c-1.83.24-2.75.34-4.58.49-.2.63-.29.94-.49 1.55a.63.63 0 0 1-.18.31.67.67 0 0 1-.49.19l-2.14.13a.32.32 0 0 1-.25-.11.4.4 0 0 1-.1-.27 1 1 0 0 1 .06-.27c1.41-4.63 2.22-7.18 3.75-12.34a1.4 1.4 0 0 1 .25-.46.71.71 0 0 1 .53-.27c1.13-.1 1.69-.16 2.81-.3m-2.84 8.86c1.12-.1 1.68-.16 2.79-.3-.54-1.76-.82-2.66-1.37-4.49-.57 1.99-.85 2.91-1.42 4.79m16.27-11.54a.31.31 0 0 1 .31.07.46.46 0 0 1 .13.35v2.11a.72.72 0 0 1-.14.41.57.57 0 0 1-.31.25c-1.16.32-1.74.47-2.92.76 0 4.06 0 6.05-.05 9.76a.6.6 0 0 1-.14.37.57.57 0 0 1-.32.22c-.88.21-1.33.31-2.22.5a.34.34 0 0 1-.32-.08.37.37 0 0 1-.13-.31c0-3.71 0-5.7.06-9.76-1.19.25-1.79.36-3 .57a.35.35 0 0 1-.32-.1.5.5 0 0 1-.14-.36v-2.11a.6.6 0 0 1 .14-.4.5.5 0 0 1 .32-.21 74 74 0 0 0 9.05-2.04m9.75 7.05a.24.24 0 0 1 .28 0 .34.34 0 0 1 .12.29v1.94a.77.77 0 0 1-.12.4.67.67 0 0 1-.29.27 63 63 0 0 1-7.44 2.75.31.31 0 0 1-.31-.05.38.38 0 0 1-.13-.3v-12.4a.72.72 0 0 1 .13-.42.6.6 0 0 1 .31-.26 60 60 0 0 0 7.26-2.7.23.23 0 0 1 .28 0 .41.41 0 0 1 .12.32v2.11a.84.84 0 0 1-.11.43.67.67 0 0 1-.29.29c-1.85.8-2.8 1.17-4.75 1.86V302c1.81-.64 2.7-1 4.43-1.72a.24.24 0 0 1 .28 0 .41.41 0 0 1 .12.32v2a.8.8 0 0 1-.12.42.65.65 0 0 1-.29.28 62 62 0 0 1-4.43 1.71v2.11c2.06-.6 3.05-.98 4.95-1.81m6.47-13.79a5.7 5.7 0 0 1 1.57-.67 1.43 1.43 0 0 1 1.86 1 5.8 5.8 0 0 1 .24 1.83 8.9 8.9 0 0 1-.39 2.7 7.1 7.1 0 0 1-1.11 2.19c.64 1.4.95 2.08 1.56 3.37a.33.33 0 0 1 0 .17.9.9 0 0 1-.08.34.7.7 0 0 1-.19.25c-.67.47-1 .7-1.72 1.15-.17.11-.29.13-.37.07a.8.8 0 0 1-.18-.22c-.58-1.18-.88-1.8-1.49-3.07l-1.26.7v4a.9.9 0 0 1-.11.41.6.6 0 0 1-.27.28c-.73.39-1.1.58-1.86 1a.26.26 0 0 1-.28 0 .33.33 0 0 1-.12-.29v-12.4a.9.9 0 0 1 .12-.44.6.6 0 0 1 .27-.29c1.58-.82 2.35-1.23 3.81-2.08m-1.56 6.86c.63-.34.94-.52 1.55-.87a2.8 2.8 0 0 0 .93-.87 2.36 2.36 0 0 0 .36-1.35c0-.55-.12-.86-.37-.92a1.25 1.25 0 0 0-.93.23c-.61.36-.92.53-1.55.87.01 1.18.01 1.76.01 2.91" style="fill:#fafafa"/><path d="M256.32 264.45a59 59 0 0 1-6.95-3.39c-10.63-6.13-16-14.18-16-22.23v97.26c0 8 5.32 16.09 16 22.22a57 57 0 0 0 6.95 3.39Z" style="opacity:.1"/><path d="m177.62 340 11 37.92a51.6 51.6 0 0 1 1.15 18.94s7.58 1.74 12.61-.8c4.25-2.16 5.69-4.3 5.69-4.3l-1.28-9.91-5-43.35Z" style="fill:#ffa8a7"/><path d="m208.05 391.72-1.28-9.91-5-43.35-9 .67c.87 12.4 4.68 44 5.7 52.4 0 0 .28 2.22.62 5.55a12 12 0 0 0 3.3-1.06c4.22-2.16 5.66-4.3 5.66-4.3" style="fill:#f28f8f"/><path d="M188.78 235.82c-7.67 26.72-18.14 79.5-14.47 93.63 2.74 10.59 9.11 32.4 9.11 32.4 4.62.66 18.18 1.49 21.86-6.62.94-13.14 46.3-120.91 46.3-120.91Z" style="fill:#37474f"/><path d="M195 361.78c-1.24-11.22-2.38-22.55-2.41-26.3-.08-9 14.54-65.32 14.54-65.32-8.73-8.73-9.71-15.06-9.71-15.06a140 140 0 0 0 13.54 14.81l-7 87.46c-2.23 3.27-6.38 4.19-8.96 4.41" style="opacity:.25"/><path d="M211.41 396.13a8.9 8.9 0 0 1 0 3.44c-.17 1.19-3.59 4.65-4.62 6.75s-1.07 2.88-2.17 5.69c-1.22 3.12-1.51 6.72-8.76 11s-12.72 4.07-16.59 3.62-5.36-2.06-5.36-2.06-2.15-4.2.11-5.68 37.39-22.76 37.39-22.76" style="fill:#263238"/><path d="M189.44 389.59c-.46.7-.46 2.42-.56 3.23-.36 2.75-1.89 5.52-3.29 7.88-6.62 11.17-14.71 12.56-12.84 20.7.63 2.26 5.59 4.83 15.61 3.09 5.12-.89 12.13-5.9 13.77-9.56s2.05-6.65 3.42-9.36 5.36-6.48 5.86-9.44a11.84 11.84 0 0 0-.65-5.2c-.4-1.36-1.72-3.86-2.16-5.22s-.41-2.4-1.61-2.27l-.12 2.27c-.43 3.78-1.19 3.7-2.34 4.88a26 26 0 0 0-2.9 4.44c.17-2.55.86-4.28-.63-5.22s-3.27-1.2-6.68-1.14-4.46.33-4.88.92" style="fill:#10b981"/><path d="M189.44 389.59c-.46.7-.46 2.42-.56 3.23-.36 2.75-1.89 5.52-3.29 7.88-6.62 11.17-14.71 12.56-12.84 20.7.63 2.26 5.59 4.83 15.61 3.09 5.12-.89 12.13-5.9 13.77-9.56s2.05-6.65 3.42-9.36 5.36-6.48 5.86-9.44a11.84 11.84 0 0 0-.65-5.2c-.4-1.36-1.72-3.86-2.16-5.22s-.41-2.4-1.61-2.27l-.12 2.27c-.43 3.78-1.19 3.7-2.34 4.88a26 26 0 0 0-2.9 4.44c.17-2.55.86-4.28-.63-5.22s-3.27-1.2-6.68-1.14-4.46.33-4.88.92" style="opacity:.4"/><path d="M188.36 424.49c5.12-.89 12.13-5.9 13.77-9.56a38 38 0 0 0 1.4-3.72c-.14.22-.26.47-.38.66-.27.41-.56.82-.86 1.22a11.4 11.4 0 0 1-4.35 3.86c-1.59.69-5.5 2.52-7.14 1.14-.93-.78-.89-2.34-.33-3.66.24-.56 1-1.92 1-1.92a18.87 18.87 0 0 0-11.24-2.27 8 8 0 0 1-1.76 2.09 6.75 6.75 0 0 1-2.68 1.23 3.7 3.7 0 0 1-1-.06c-1.88 2.26-2.86 4.49-2.07 7.9.66 2.26 5.62 4.83 15.64 3.09" style="opacity:.30000000000000004"/><path d="M185.59 400.7a42.6 42.6 0 0 1-6.24 8.06c-1.33 3.2-.5 3.82.74 2.66s4.28-7.85 6.93-13.26c-.46.84-.95 1.73-1.43 2.54m21.13-9.85a7 7 0 0 0 2.21-4.28c-.13-.31-.25-.61-.33-.86-.48-1.46-.41-2.4-1.61-2.27l-.12 2.27c-.43 3.78-1.19 3.7-2.34 4.88a26 26 0 0 0-2.9 4.44c-2.75 5-3.12 7.13-6.17 11.4s-6.19 6.17-5.84 6.88 1.85 1.28 4.86-1.64 6.37-9.36 7.64-12.7 2.88-6.64 4.6-8.12" style="fill:#37474f"/><path d="M191.51 413a.5.5 0 0 1-.27-.07 17.1 17.1 0 0 0-11.15-2 .52.52 0 1 1-.13-1 18.13 18.13 0 0 1 11.81 2.18.52.52 0 0 1 .18.72.51.51 0 0 1-.44.17m2.43-3.63a.6.6 0 0 1-.26-.07 18.87 18.87 0 0 0-11.78-2 .52.52 0 0 1-.59-.46.54.54 0 0 1 .46-.6 19.84 19.84 0 0 1 12.43 2.15.53.53 0 0 1 .21.72.53.53 0 0 1-.47.26m3.29-3.49a.5.5 0 0 1-.29-.08 20.82 20.82 0 0 0-13-2.22.59.59 0 0 1-.66-.51.58.58 0 0 1 .51-.65 21.87 21.87 0 0 1 13.71 2.36.58.58 0 0 1 .23.8.6.6 0 0 1-.5.3m2.23-3.5a.6.6 0 0 1-.28-.07 20.3 20.3 0 0 0-12.73-2.18.58.58 0 0 1-.65-.5.58.58 0 0 1 .5-.65 21.53 21.53 0 0 1 13.44 2.32.58.58 0 0 1 .23.78.58.58 0 0 1-.51.3m1.54-3.96a.55.55 0 0 1-.28-.07 20.34 20.34 0 0 0-12.72-2.18.58.58 0 0 1-.14-1.15 21.53 21.53 0 0 1 13.44 2.32.58.58 0 0 1-.28 1.08Z" style="fill:#ebebeb"/><path d="M198.2 356.54c.06 3.31 3.46 53.47 3.47 55a42 42 0 0 1-.62 7.77 17 17 0 0 1-.94 3.23c-.43 1.2-1.3 2.85-.67 3.95a4.6 4.6 0 0 0 1.2 1.32 10.5 10.5 0 0 0 7.5 2.06 8 8 0 0 0 3.93-1.37c2.27-1.69 3-4.57 4.16-7 1.23-2.66.35-4 .41-6.8.06-3.16 7.46-51.93 8-55.06-5.45-5.57-20.14-5.09-26.44-3.1" style="fill:#ffa8a7"/><path d="M191.29 243.19c6.25 13 8.71 18.15 19.63 26.72 0 0-13.73 55.5-13.95 66.29-.29 14.74 1.77 32 2.59 44.13 2.07 2.71 16.55 4.66 21.8.67 1.87-8.24 4-18.4 4.88-25.22 1.73-14.17-.63-16.8-.91-20.25 9.36-18.31 20.77-40.27 28.6-58.4 2-4.71 2.68-12 3-14.94 1.28-12-2.47-21.48-5.35-27.87z" style="fill:#37474f"/><path d="M220.39 426.56a8.8 8.8 0 0 1-.19 3.43c-.24 1.18-3.85 4.43-5 6.47s-1.2 2.81-2.5 5.54c-1.4 3.05-1.9 6.62-9.38 10.47s-12.94 3.32-16.78 2.66-5.23-2.37-5.23-2.37-1.9-4.32.44-5.67 38.64-20.53 38.64-20.53" style="fill:#263238"/><path d="M198.84 418.75c-.5.67-.6 2.38-.75 3.19-.52 2.73-2.2 5.4-3.74 7.67-7.26 10.77-15.41 11.69-14 19.92.5 2.29 5.31 5.15 15.41 4 5.16-.59 12.45-5.19 14.31-8.75s2.42-6.51 4-9.14 5.72-6.16 6.39-9.08a11.9 11.9 0 0 0-.34-5.23c-.33-1.39-1.49-4-1.86-5.34s-.27-2.42-1.47-2.36l-.26 2.25c-.64 3.76-1.4 3.63-2.61 4.75a25.3 25.3 0 0 0-3.16 4.26c.32-2.54 1.11-4.23-.32-5.25s-3.2-1.39-6.6-1.53-4.55.05-5 .64" style="fill:#10b981"/><path d="M198.84 418.75c-.5.67-.6 2.38-.75 3.19-.52 2.73-2.2 5.4-3.74 7.67-7.26 10.77-15.41 11.69-14 19.92.5 2.29 5.31 5.15 15.41 4 5.16-.59 12.45-5.19 14.31-8.75s2.42-6.51 4-9.14 5.72-6.16 6.39-9.08a11.9 11.9 0 0 0-.34-5.23c-.33-1.39-1.49-4-1.86-5.34s-.27-2.42-1.47-2.36l-.26 2.25c-.64 3.76-1.4 3.63-2.61 4.75a25.3 25.3 0 0 0-3.16 4.26c.32-2.54 1.11-4.23-.32-5.25s-3.2-1.39-6.6-1.53-4.55.05-5 .64" style="opacity:.4"/><path d="M195.73 453.53c5.16-.59 12.45-5.19 14.31-8.75a39 39 0 0 0 1.61-3.63c-.15.22-.28.46-.42.63-.3.41-.6.8-.92 1.18a11.45 11.45 0 0 1-4.57 3.59c-1.64.6-5.64 2.2-7.2.73-.89-.83-.76-2.39-.12-3.67.27-.55 1.15-1.86 1.15-1.86a18.77 18.77 0 0 0-11.09-2.92 8.1 8.1 0 0 1-1.87 2 6.75 6.75 0 0 1-2.75 1.08 4.5 4.5 0 0 1-1-.12c-2 2.14-3.12 4.31-2.54 7.76.5 2.27 5.31 5.13 15.41 3.98" style="opacity:.30000000000000004"/><path d="M194.35 429.61a42.4 42.4 0 0 1-6.7 7.69c-1.51 3.12-.72 3.78.58 2.7s4.73-7.59 7.69-12.84c-.51.84-1.04 1.68-1.57 2.45M216 421a7.14 7.14 0 0 0 2.45-4.15c-.11-.32-.21-.63-.28-.88-.39-1.49-.27-2.42-1.47-2.36l-.26 2.25c-.64 3.76-1.4 3.63-2.61 4.75a25.3 25.3 0 0 0-3.16 4.26c-3 4.79-3.52 6.93-6.82 11s-6.53 5.8-6.23 6.53 1.77 1.38 5-1.35 6.9-9 8.36-12.24 3.26-6.42 5.02-7.81" style="fill:#37474f"/><path d="M199.57 442.27a.5.5 0 0 1-.29-.09 17.1 17.1 0 0 0-11-2.69.52.52 0 0 1-.08-1 18.14 18.14 0 0 1 11.67 2.87.52.52 0 0 1 .14.72.51.51 0 0 1-.44.19m2.64-3.52a.46.46 0 0 1-.28-.08 18.84 18.84 0 0 0-11.64-2.7.51.51 0 0 1-.57-.49.53.53 0 0 1 .49-.57 19.82 19.82 0 0 1 12.29 2.86.53.53 0 0 1 .16.74.52.52 0 0 1-.45.24m3.49-3.29a.6.6 0 0 1-.32-.09 20.73 20.73 0 0 0-12.83-3 .59.59 0 0 1-.63-.55.6.6 0 0 1 .55-.63 22 22 0 0 1 13.53 3.19.59.59 0 0 1-.32 1.08Zm2.43-3.36a.6.6 0 0 1-.31-.09 20.35 20.35 0 0 0-12.58-2.92.58.58 0 0 1-.08-1.15 21.5 21.5 0 0 1 13.29 3.1.58.58 0 0 1 .17.79.57.57 0 0 1-.49.27m1.8-3.86a.56.56 0 0 1-.31-.09 20.38 20.38 0 0 0-12.62-2.92.58.58 0 1 1-.07-1.15 21.53 21.53 0 0 1 13.28 3.09.58.58 0 0 1 .18.8.59.59 0 0 1-.46.27" style="fill:#ebebeb"/><path d="M183.32 204.71a21 21 0 0 1-8.71.1c-4.24-1-6.78-4.45-9.28-7.69-2.19-2.85-2.55-7.65-1.91-11.06.76-4 5.53-6.23 6.1-10.32.54-3.8-.51-7.66 1-11.34 1.75-4.23 5.53-6.37 9.84-7.2 2.39-.46 5 0 7.27-.93 3-1.15 2.93-3.88 2.94-6.65 0-6.75 6.52-8.7 12-10.07 3.19-.79 6.07-1.78 7.64-4.91 1.41-2.79.66-6.16 1.4-9.12 1.39-5.51 5.45-9.21 10.42-11.79 4.45-2.3 4.54-6.17 9.54-5.8 3.74-2.76 11.59-1.57 17.13 3.94 3.78 3.76 3.94 10.5 3.76 14.95A21.15 21.15 0 0 1 238 146a19.35 19.35 0 0 0-7.3 3.77 13.3 13.3 0 0 0-3.95 5.28c-1.39 3.87-.94 8.36-.7 12.37.5 8.29-.38 17.14-8.81 21.16-4.05 1.93-8.6 1.7-12.86 2.9-3.57 1-7.51 1.83-9.58 5.18-2.44 4-5.15 6.5-9.79 7.68-.53.13-1.11.26-1.69.37" style="fill:#37474f"/><path d="M231 107.71a7.14 7.14 0 0 1 5.9.81 5.12 5.12 0 0 1 2.63 4.94s-4.1-4.37-8.53-5.75" style="fill:#10b981"/><path d="M208.7 162c-14-.29-18.85 3.49-27.35 7.4-3.53 1.63-10.73 5.73-17.93 10 1.22-9.92 3.25-18.17 4.74-21.32l1.08-11.54a2.31 2.31 0 0 1-.75-1.85c.1-1 0-2.09.06-3.14a68 68 0 0 1 .41-7 41 41 0 0 1 1.36-6.21c.49-1.75.6-4.36-1.89-4.29a8.6 8.6 0 0 0-1.78.51c-1.17.28-2.23-.43-3.33-.58s-2.07.89-2.95 1.47a11.3 11.3 0 0 1-2.69.81 8.1 8.1 0 0 0-2.26 1.74 10.3 10.3 0 0 0-2.75 3.88 20 20 0 0 0-1 2.92 31.4 31.4 0 0 0-1.1 5.85 59 59 0 0 0-.24 8.94c.1 2 .57 4 .57 6s-.22 3.35-1.44 6.81c-.91 2.59-3.42 10.08-6.4 18.31-2 5.53-6.63 17.74-3.46 24.38s10.67 4.88 19.63 1c12.7-5 43.49-18.93 43.49-18.93Z" style="fill:#ffa8a7"/><path d="M163.42 179.33c-.77 5.83-.87 12-4.06 17.64 0 0 6.76-6 8.48-20.22Z" style="fill:#f28f8f"/><path d="m228.43 161.73 12.31 1.16c6.23 1.53 8.65 4.57 9.29 10.1.3 2.57.2 17.77-1.9 26.37-2.17 8.94-3.35 16.4-3.35 16.4a90 90 0 0 1 6.8 18.56c-22.16 14.45-53.61 10.25-62.8 1.5 2.18-8 3.67-11.26 5.53-16.9 0 0-2.85-9-2.49-15.09-8.45-8.53-6.68-17.17-2.9-22.9 6.8-10.3 16.94-19 19.78-19Z" style="fill:#ffa8a7"/><path d="m240.74 162.89-12.31-1.16-19.73.27c-2.84 0-13 8.65-19.78 19-3.78 5.73-5.55 14.37 2.9 22.9a32 32 0 0 0 .53 6.86s22.14 12.52 53.48-.76a242 242 0 0 1 2.3-10.57c2.1-8.6 2.2-23.8 1.9-26.37-.64-5.6-3.03-8.64-9.29-10.17m-9.74-9.32c-.14-1.35 3.88-4.2 5.76-5.88 4.24-3.79 7-6.5 8.08-14.19 1.26-8.92-.2-18-10.63-24.23-8.83-5.29-27.79-6.56-33.26 6.76Z" style="fill:#455a64"/><path d="M208 110c-5.15 1.85-9.69 6.46-11.75 22.5-1.74 13.59 2.14 17.61 4.2 18.91s6.29 2.09 10.53 2l1.07 9.85s-7.53 7.67-5.68 14.65C225.05 175.43 232 164.2 232 164.2l-2-19.84a4.69 4.69 0 0 0 5.48.85c5.08-2.21 5.9-8.3 3.65-11.4a5 5 0 0 0-8.39.12s3.58-12.72-3-19c-7.74-7.32-13.68-7.14-19.74-4.93" style="fill:#ffa8a7"/><path d="m209.78 124.35-2.84 13.02-6.48-2.94zm1.22 29.04c3.85-.18 11.76-1.17 16.15-7.21a13.75 13.75 0 0 1-3.86 6.15c-4.1 3.34-11.9 4.7-11.9 4.7Z" style="fill:#f28f8f"/><path d="m216.7 123 3.59 3.59a2.67 2.67 0 0 0 0-3.69 2.47 2.47 0 0 0-3.59.1m-16.53-.81 5-1.31a2.46 2.46 0 0 0-3-1.87 2.69 2.69 0 0 0-2 3.18m17.51 8.67s.13-1.46-2.09-2.34c-1.35-.54-2.53-.37-3.18.52a12.4 12.4 0 0 1 5.27 1.82M199.35 127s.44-1.4 2.82-1.37c1.45 0 2.48.63 2.73 1.7a12.2 12.2 0 0 0-5.55-.33" style="fill:#263238"/><path d="M211.94 115.63c2.08.64 5-2.58 9.09-.55 4.37 2.19 2.29 7.14 5.21 10.37 2.22 2.45-1 8 1.54 9.58 1.13.67 3-1.1 3-1.1s2.72-3.16 3.15-11.13-9.43-14.54-17-15.8a14.86 14.86 0 0 0-16 9s2.95-3.53 6.6-3.64 2.53 2.71 4.41 3.27" style="fill:#455a64"/><path d="M236.74 256.5a6.86 6.86 0 0 1-3.86-1.09c-.83-.66-1.88-1.58-1.5-2.78.15-.48.61-.55 1.06-.6.95-.12 1.88-.22 2.82-.37a33 33 0 0 0 4.34-1.23 48 48 0 0 1 6-1.18 23 23 0 0 0 2.81-.81 8.6 8.6 0 0 0 3.89-2.38 21.5 21.5 0 0 0 2.62-3.4 80.4 80.4 0 0 0 5.89-11.73c1.74-4 3.35-8.11 5.16-12.1-4.92-6.46-20.86-28.41-20.86-28.41-7.72-9.75-8.37-20.22-5.7-27.66 10.65-.37 14.44-.29 21.9 9.52 7 9.15 14.57 22.16 22 35.21 4.08 7.21 6.36 9.76 2.13 17.07-4.6 8-15 22.51-19.57 28.43-4.67 6.09-7.36 11.23-13.92 15.92a17.5 17.5 0 0 1-8.46-7.17 17 17 0 0 1-1.49-3.16c-.12-.35-.26-.68-.4-1s0-.65-.27-.82-1-.11-1.37-.11c-1.12-.02-2.17-.05-3.22-.15" style="fill:#ffa8a7"/><path d="M197.75 144.9a6.78 6.78 0 0 1 1.19-6 2.12 2.12 0 0 1 2-.89l.68.13a2.13 2.13 0 0 1 1.49 1.58 6.77 6.77 0 0 1-1.18 6 2.17 2.17 0 0 1-2 .9l-.68-.14a2.13 2.13 0 0 1-1.5-1.58" style="fill:#10b981"/><path d="M197.75 144.9a6.78 6.78 0 0 1 1.19-6 2.12 2.12 0 0 1 2-.89l.68.13a2.13 2.13 0 0 1 1.49 1.58 6.77 6.77 0 0 1-1.18 6 2.17 2.17 0 0 1-2 .9l-.68-.14a2.13 2.13 0 0 1-1.5-1.58" style="fill:#fff;opacity:.5"/><path d="M202.4 139.59c-.63-1.85-2.18-2.15-3.46-.69a6.78 6.78 0 0 0-1.19 6c.63 1.85 2.18 2.15 3.47.69a6.77 6.77 0 0 0 1.18-6" style="fill:#10b981"/><path d="M202.4 139.59c-.63-1.85-2.18-2.15-3.46-.69a6.78 6.78 0 0 0-1.19 6c.63 1.85 2.18 2.15 3.47.69a6.77 6.77 0 0 0 1.18-6" style="fill:#fff;opacity:.5"/><path d="M202.4 139.59c-.63-1.85-2.18-2.15-3.46-.69a6.78 6.78 0 0 0-1.19 6c.63 1.85 2.18 2.15 3.47.69a6.77 6.77 0 0 0 1.18-6" style="opacity:.1"/><path d="M196.84 144.72a6.75 6.75 0 0 1 1.19-6 2.12 2.12 0 0 1 2-.89l.68.13a2.15 2.15 0 0 1 1.49 1.58 6.74 6.74 0 0 1-1.19 6 2.16 2.16 0 0 1-2 .9l-.68-.14a2.13 2.13 0 0 1-1.49-1.58" style="fill:#10b981"/><path d="M196.84 144.72a6.75 6.75 0 0 1 1.19-6 2.12 2.12 0 0 1 2-.89l.68.13a2.15 2.15 0 0 1 1.49 1.58 6.74 6.74 0 0 1-1.19 6 2.16 2.16 0 0 1-2 .9l-.68-.14a2.13 2.13 0 0 1-1.49-1.58" style="fill:#fff;opacity:.5"/><path d="M201.49 139.41c-.63-1.85-2.18-2.16-3.46-.69a6.75 6.75 0 0 0-1.19 6c.63 1.85 2.18 2.15 3.46.69a6.75 6.75 0 0 0 1.19-6" style="fill:#10b981"/><path d="M201.49 139.41c-.63-1.85-2.18-2.16-3.46-.69a6.75 6.75 0 0 0-1.19 6c.63 1.85 2.18 2.15 3.46.69a6.75 6.75 0 0 0 1.19-6" style="fill:#fff;opacity:.5"/><path d="M201.49 139.41c-.63-1.85-2.18-2.16-3.46-.69a6.75 6.75 0 0 0-1.19 6c.63 1.85 2.18 2.15 3.46.69a6.75 6.75 0 0 0 1.19-6" style="opacity:.1"/><path d="M195.93 144.54a6.77 6.77 0 0 1 1.18-6 2.16 2.16 0 0 1 2-.9l.69.14a2.15 2.15 0 0 1 1.49 1.58 6.77 6.77 0 0 1-1.19 6 2.17 2.17 0 0 1-2 .9l-.67-.14a2.13 2.13 0 0 1-1.5-1.58" style="fill:#10b981"/><path d="M195.93 144.54a6.77 6.77 0 0 1 1.18-6 2.16 2.16 0 0 1 2-.9l.69.14a2.15 2.15 0 0 1 1.49 1.58 6.77 6.77 0 0 1-1.19 6 2.17 2.17 0 0 1-2 .9l-.67-.14a2.13 2.13 0 0 1-1.5-1.58" style="fill:#fff;opacity:.5"/><path d="M200.58 139.23c-.63-1.85-2.18-2.16-3.47-.69a6.77 6.77 0 0 0-1.18 6c.63 1.85 2.18 2.15 3.46.69a6.75 6.75 0 0 0 1.19-6" style="fill:#10b981"/><path d="M200.58 139.23c-.63-1.85-2.18-2.16-3.47-.69a6.77 6.77 0 0 0-1.18 6c.63 1.85 2.18 2.15 3.46.69a6.75 6.75 0 0 0 1.19-6" style="opacity:.1"/><path d="M200.17 139.7c-.52-1.52-1.8-1.77-2.86-.57a5.58 5.58 0 0 0-1 4.94c.52 1.52 1.79 1.77 2.85.56a5.56 5.56 0 0 0 1.01-4.93" style="fill:#10b981;opacity:.7000000000000001"/><path d="M200.17 139.7c-.52-1.52-1.8-1.77-2.86-.57a5.58 5.58 0 0 0-1 4.94c.52 1.52 1.79 1.77 2.85.56a5.56 5.56 0 0 0 1.01-4.93" style="fill:#fff;opacity:.30000000000000004"/><path d="M199.48 139.56a2.8 2.8 0 0 1 .44-.41 3 3 0 0 1 .25.55 5.56 5.56 0 0 1-1 4.93 2.4 2.4 0 0 1-.44.41 3.4 3.4 0 0 1-.25-.54 5.58 5.58 0 0 1 1-4.94" style="opacity:.1"/><path d="M195 144.35a6.75 6.75 0 0 1 1.19-6 2.15 2.15 0 0 1 2-.9l.69.14a2.15 2.15 0 0 1 1.49 1.58 6.77 6.77 0 0 1-1.19 6 2.12 2.12 0 0 1-2 .9l-.68-.13a2.16 2.16 0 0 1-1.5-1.59" style="fill:#10b981"/><path d="M195 144.35a6.75 6.75 0 0 1 1.19-6 2.15 2.15 0 0 1 2-.9l.69.14a2.15 2.15 0 0 1 1.49 1.58 6.77 6.77 0 0 1-1.19 6 2.12 2.12 0 0 1-2 .9l-.68-.13a2.16 2.16 0 0 1-1.5-1.59" style="opacity:.30000000000000004"/><path d="M199.62 139c-.63-1.84-2.19-2.15-3.47-.68a6.75 6.75 0 0 0-1.19 6c.63 1.85 2.18 2.16 3.47.69a6.79 6.79 0 0 0 1.19-6.01" style="fill:#10b981"/><path d="M199.62 139c-.63-1.84-2.19-2.15-3.47-.68a6.75 6.75 0 0 0-1.19 6c.63 1.85 2.18 2.16 3.47.69a6.79 6.79 0 0 0 1.19-6.01" style="opacity:.5"/><path d="M193.89 144.23a7 7 0 0 1 1.22-6.18 2.2 2.2 0 0 1 2-.92l.7.14a2.23 2.23 0 0 1 1.54 1.63 7 7 0 0 1-1.22 6.18 2.22 2.22 0 0 1-2 .92l-.7-.14a2.22 2.22 0 0 1-1.54-1.63" style="fill:#10b981"/><path d="M193.89 144.23a7 7 0 0 1 1.22-6.18 2.2 2.2 0 0 1 2-.92l.7.14a2.23 2.23 0 0 1 1.54 1.63 7 7 0 0 1-1.22 6.18 2.22 2.22 0 0 1-2 .92l-.7-.14a2.22 2.22 0 0 1-1.54-1.63" style="fill:#fff;opacity:.5"/><path d="M198.68 138.76c-.65-1.9-2.25-2.22-3.57-.71a7 7 0 0 0-1.22 6.18c.65 1.9 2.24 2.22 3.57.71a7 7 0 0 0 1.22-6.18" style="fill:#10b981"/><path d="M198.68 138.76c-.65-1.9-2.25-2.22-3.57-.71a7 7 0 0 0-1.22 6.18c.65 1.9 2.24 2.22 3.57.71a7 7 0 0 0 1.22-6.18" style="fill:#fff;opacity:.5"/><path d="M198.68 138.76c-.65-1.9-2.25-2.22-3.57-.71a7 7 0 0 0-1.22 6.18c.65 1.9 2.24 2.22 3.57.71a7 7 0 0 0 1.22-6.18" style="opacity:.1"/><path d="M197.9 139.11a1.86 1.86 0 0 0-1.35-1.38 4.6 4.6 0 0 1-1.85-.56 7.8 7.8 0 0 1-1.41-2c-1.23-2-4.42-6.53-8.54-7.34a3.7 3.7 0 0 0-1.15 0 3.7 3.7 0 0 0-1.09-.39l-1.78-.36a4.3 4.3 0 0 0-1.07 0 3.8 3.8 0 0 0-1.16-.38l-2.22-.44a3.77 3.77 0 0 0-2.2.24l-.79.34a3.74 3.74 0 0 1-3.81-.52l-1.6-1.28a3.6 3.6 0 0 0-1.61-.75l-28.45-5.62c-1.62-.32-3.45.43-5.11 2.32-3.31 3.8-4.69 10.74-3.06 15.5.81 2.39 2.22 3.78 3.84 4.1l28.45 5.62a3.7 3.7 0 0 0 1.78-.08l2-.58a3.7 3.7 0 0 1 1.78-.08 3.74 3.74 0 0 1 1.94 1l.6.62a3.85 3.85 0 0 0 1.95 1.05l2.22.43a3.8 3.8 0 0 0 1.22.09 3.7 3.7 0 0 0 1 .36l1.78.35a4 4 0 0 0 1.15.05 4 4 0 0 0 1.09.39c4.12.81 8.8-2.2 10.68-3.54a8 8 0 0 1 2.08-1.32 4.9 4.9 0 0 1 1.92.19 1.84 1.84 0 0 0 1.77-.77 5.88 5.88 0 0 0 1-5.26" style="fill:#10b981"/><path d="M196.87 144.31a1.84 1.84 0 0 1-1.77.77 4.9 4.9 0 0 0-1.92-.19 7.5 7.5 0 0 0-2.08 1.32 24.7 24.7 0 0 1-4.5 2.58 10.77 10.77 0 0 1-6.18 1 4 4 0 0 1-1.09-.39 4 4 0 0 1-1.15-.05l-1.78-.35a3.4 3.4 0 0 1-1-.35 3.8 3.8 0 0 1-1.22-.09l-2.22-.44a3.76 3.76 0 0 1-1.95-1l-.6-.62a3.73 3.73 0 0 0-3.72-1l-2 .58a3.8 3.8 0 0 1-1.78.08l-28.45-5.62c-1.62-.32-3-1.71-3.84-4.09a17.51 17.51 0 0 1 3.06-15.51c1.66-1.89 3.49-2.64 5.11-2.32l28.45 5.62a3.8 3.8 0 0 1 1.62.75l1.59 1.28a3.7 3.7 0 0 0 1.61.75 3.77 3.77 0 0 0 2.2-.23l.79-.34a3.7 3.7 0 0 1 2.2-.23l2.22.43a3.8 3.8 0 0 1 1.16.38 3.8 3.8 0 0 1 1.07.06l1.78.35a3.7 3.7 0 0 1 1.09.39 4 4 0 0 1 1.15 0c4.12.81 7.31 5.38 8.54 7.33a7.4 7.4 0 0 0 1.41 2 4.8 4.8 0 0 0 1.86.56 1.86 1.86 0 0 1 1.35 1.38 5.88 5.88 0 0 1-1.01 5.21" style="fill:#fff;opacity:.5"/><path d="M165.68 145.44a6.26 6.26 0 0 0 3-2.05 15.91 15.91 0 0 0 2.79-14.15 6.25 6.25 0 0 0-1.94-3l-1.59-1.28a3.8 3.8 0 0 0-1.62-.75l-28.45-5.62h-.06c1.59.34 3 1.73 3.77 4.08a17.5 17.5 0 0 1-3.06 15.5c-1.58 1.81-3.33 2.57-4.89 2.36h-.09l28.45 5.62a3.8 3.8 0 0 0 1.78-.08Zm22.91-13.52a17.5 17.5 0 0 1-3.06 15.5c-1.56 1.79-3.28 2.55-4.82 2.37a9.4 9.4 0 0 0 3.46-.19l.38-.1c.37-.1.75-.22 1.12-.35l.33-.15.7-.28.34-.16.68-.32.32-.17.31-.17a25 25 0 0 0 2.71-1.7 7.5 7.5 0 0 1 2.08-1.32 4.9 4.9 0 0 1 1.92.19 1.84 1.84 0 0 0 1.77-.77 5.88 5.88 0 0 0 1-5.2 1.86 1.86 0 0 0-1.35-1.38 4.8 4.8 0 0 1-1.86-.56 7.4 7.4 0 0 1-1.41-2 .8.8 0 0 1-.12-.19l-.28-.42-.16-.23c-.1-.16-.22-.32-.34-.49l-.18-.26-.4-.54c-.12-.15-.24-.31-.37-.46L191 132l-.24-.27c-.08-.09-.17-.18-.25-.28l-.26-.27-.26-.27c-.28-.27-.56-.53-.85-.78l-.3-.25-.31-.24a9.4 9.4 0 0 0-3.41-1.74c1.45.46 2.71 1.81 3.47 4.02m-5.3 15.08a17.47 17.47 0 0 0 3.07-15.5c-.81-2.36-2.2-3.75-3.8-4.08l-1.82-.36c1.62.32 3 1.71 3.83 4.09a17.44 17.44 0 0 1-3.06 15.5c-1.66 1.9-3.49 2.65-5.11 2.33l1.78.35c1.62.3 3.46-.45 5.11-2.33m-3.87-.76c3.32-3.8 4.69-10.74 3.06-15.5-.81-2.39-2.22-3.78-3.84-4.1l-2.45-.48c1.64.3 3.06 1.69 3.88 4.1a17.44 17.44 0 0 1-3.06 15.5c-1.66 1.9-3.49 2.65-5.11 2.33l2.41.47c1.62.3 3.45-.45 5.11-2.34Z" style="fill:#10b981"/><path d="M165.68 145.44a6.26 6.26 0 0 0 3-2.05 15.91 15.91 0 0 0 2.79-14.15 6.25 6.25 0 0 0-1.94-3l-1.59-1.28a3.8 3.8 0 0 0-1.62-.75l-28.45-5.62h-.06c1.59.34 3 1.73 3.77 4.08a17.5 17.5 0 0 1-3.06 15.5c-1.58 1.81-3.33 2.57-4.89 2.36h-.09l28.45 5.62a3.8 3.8 0 0 0 1.78-.08Zm22.91-13.52a17.5 17.5 0 0 1-3.06 15.5c-1.56 1.79-3.28 2.55-4.82 2.37a9.4 9.4 0 0 0 3.46-.19l.38-.1c.37-.1.75-.22 1.12-.35l.33-.15.7-.28.34-.16.68-.32.32-.17.31-.17a25 25 0 0 0 2.71-1.7 7.5 7.5 0 0 1 2.08-1.32 4.9 4.9 0 0 1 1.92.19 1.84 1.84 0 0 0 1.77-.77 5.88 5.88 0 0 0 1-5.2 1.86 1.86 0 0 0-1.35-1.38 4.8 4.8 0 0 1-1.86-.56 7.4 7.4 0 0 1-1.41-2 .8.8 0 0 1-.12-.19l-.28-.42-.16-.23c-.1-.16-.22-.32-.34-.49l-.18-.26-.4-.54c-.12-.15-.24-.31-.37-.46L191 132l-.24-.27c-.08-.09-.17-.18-.25-.28l-.26-.27-.26-.27c-.28-.27-.56-.53-.85-.78l-.3-.25-.31-.24a9.4 9.4 0 0 0-3.41-1.74c1.45.46 2.71 1.81 3.47 4.02m-5.3 15.08a17.47 17.47 0 0 0 3.07-15.5c-.81-2.36-2.2-3.75-3.8-4.08l-1.82-.36c1.62.32 3 1.71 3.83 4.09a17.44 17.44 0 0 1-3.06 15.5c-1.66 1.9-3.49 2.65-5.11 2.33l1.78.35c1.62.3 3.46-.45 5.11-2.33m-3.87-.76c3.32-3.8 4.69-10.74 3.06-15.5-.81-2.39-2.22-3.78-3.84-4.1l-2.45-.48c1.64.3 3.06 1.69 3.88 4.1a17.44 17.44 0 0 1-3.06 15.5c-1.66 1.9-3.49 2.65-5.11 2.33l2.41.47c1.62.3 3.45-.45 5.11-2.34Z" style="fill:#fff;opacity:.7000000000000001"/><path d="M180.65 148.57a2.6 2.6 0 0 1-.75-.27l-.33-.18h-.36a2.6 2.6 0 0 1-.79 0l-1.79-.35a2.8 2.8 0 0 1-.7-.25l-.3-.16h-.35a3 3 0 0 1-.72 0h-.11l-1.22-.29-1-.2a2.54 2.54 0 0 1-1.32-.72l-.6-.61a4.92 4.92 0 0 0-4.92-1.28l-2 .58a2.6 2.6 0 0 1-1.21 0l-28.45-5.62c-1.25-.25-2.29-1.42-2.93-3.3a3.26 3.26 0 0 1 1-4c1.42-1.18 3.37-.9 5.07-.68a4.47 4.47 0 0 0 3.93-1.61 7.57 7.57 0 0 1 5.85-2.52c2.16.13 4.11 1 6.16 1.62a6.44 6.44 0 0 0 3.13.32 9.2 9.2 0 0 0 3-1.63 9.78 9.78 0 0 1 7-1.61 5.4 5.4 0 0 1 2.78 1.23 4.92 4.92 0 0 0 5 .68l.79-.34a2.6 2.6 0 0 1 1.49-.16l1.05.21 1.24.2h.11a2.2 2.2 0 0 1 .68.24l.3.15h.34a2.3 2.3 0 0 1 .75 0l1.78.35a3 3 0 0 1 .75.26l.32.18h.37a2.6 2.6 0 0 1 .79 0c3.47.68 6.35 4.55 7.76 6.79l.38.63a5.6 5.6 0 0 0 1.33 1.71 3.4 3.4 0 0 0 1.17.52l1.22.26c.08 0 .25.19.39.58a4.67 4.67 0 0 1-.8 4c-.27.31-.5.41-.58.39l-1.22-.23a3.5 3.5 0 0 0-1.28 0 5.4 5.4 0 0 0-1.85 1.34l-.6.43a22.5 22.5 0 0 1-4.27 2.45 9.6 9.6 0 0 1-5.48.89" style="fill:#10b981"/><path d="M180.65 148.57a2.6 2.6 0 0 1-.75-.27l-.33-.18h-.36a2.6 2.6 0 0 1-.79 0l-1.79-.35a2.8 2.8 0 0 1-.7-.25l-.3-.16h-.35a3 3 0 0 1-.72 0h-.11l-1.22-.29-1-.2a2.54 2.54 0 0 1-1.32-.72l-.6-.61a4.92 4.92 0 0 0-4.92-1.28l-2 .58a2.6 2.6 0 0 1-1.21 0l-28.45-5.62c-1.25-.25-2.29-1.42-2.93-3.3a3.26 3.26 0 0 1 1-4c1.42-1.18 3.37-.9 5.07-.68a4.47 4.47 0 0 0 3.93-1.61 7.57 7.57 0 0 1 5.85-2.52c2.16.13 4.11 1 6.16 1.62a6.44 6.44 0 0 0 3.13.32 9.2 9.2 0 0 0 3-1.63 9.78 9.78 0 0 1 7-1.61 5.4 5.4 0 0 1 2.78 1.23 4.92 4.92 0 0 0 5 .68l.79-.34a2.6 2.6 0 0 1 1.49-.16l1.05.21 1.24.2h.11a2.2 2.2 0 0 1 .68.24l.3.15h.34a2.3 2.3 0 0 1 .75 0l1.78.35a3 3 0 0 1 .75.26l.32.18h.37a2.6 2.6 0 0 1 .79 0c3.47.68 6.35 4.55 7.76 6.79l.38.63a5.6 5.6 0 0 0 1.33 1.71 3.4 3.4 0 0 0 1.17.52l1.22.26c.08 0 .25.19.39.58a4.67 4.67 0 0 1-.8 4c-.27.31-.5.41-.58.39l-1.22-.23a3.5 3.5 0 0 0-1.28 0 5.4 5.4 0 0 0-1.85 1.34l-.6.43a22.5 22.5 0 0 1-4.27 2.45 9.6 9.6 0 0 1-5.48.89" style="fill:#fff;opacity:.85"/><path d="M188.59 131.92a10 10 0 0 0-.4-1 9.3 9.3 0 0 0-3-1.75 8.3 8.3 0 0 1 1.17 2.28 17.47 17.47 0 0 1-3.07 15.5 8.2 8.2 0 0 1-1.94 1.67 8.9 8.9 0 0 0 3.44-.48c.25-.23.49-.47.74-.75a17.5 17.5 0 0 0 3.06-15.47m-8.52-1.68a8.2 8.2 0 0 0-1.14-2.25 2.2 2.2 0 0 0-.62-.19l-1.25-.2-1-.2a2.5 2.5 0 0 0-1.48.15l-.79.34a4.9 4.9 0 0 1-2.76.34 9 9 0 0 1 .44 1.06 15.91 15.91 0 0 1-2.79 14.15 11 11 0 0 1-.82.82 4.9 4.9 0 0 1 2.43 1.35l.6.62a2.55 2.55 0 0 0 1.31.7l1 .21V147l1.23.29a2.8 2.8 0 0 0 .65.06 8.1 8.1 0 0 0 1.91-1.65 17.44 17.44 0 0 0 3.08-15.46m4.5.89a8.2 8.2 0 0 0-1-2.12h-.17l-.33-.18a2.7 2.7 0 0 0-.74-.27l-1-.2a8.4 8.4 0 0 1 1.2 2.34 17.44 17.44 0 0 1-3.06 15.5 8.3 8.3 0 0 1-2 1.7l1 .19a2.3 2.3 0 0 0 .79 0h.37l.15.08a8.1 8.1 0 0 0 1.78-1.56 17.44 17.44 0 0 0 3.01-15.48" style="fill:#10b981"/><path d="M188.59 131.92a10 10 0 0 0-.4-1 9.3 9.3 0 0 0-3-1.75 8.3 8.3 0 0 1 1.17 2.28 17.47 17.47 0 0 1-3.07 15.5 8.2 8.2 0 0 1-1.94 1.67 8.9 8.9 0 0 0 3.44-.48c.25-.23.49-.47.74-.75a17.5 17.5 0 0 0 3.06-15.47m-8.52-1.68a8.2 8.2 0 0 0-1.14-2.25 2.2 2.2 0 0 0-.62-.19l-1.25-.2-1-.2a2.5 2.5 0 0 0-1.48.15l-.79.34a4.9 4.9 0 0 1-2.76.34 9 9 0 0 1 .44 1.06 15.91 15.91 0 0 1-2.79 14.15 11 11 0 0 1-.82.82 4.9 4.9 0 0 1 2.43 1.35l.6.62a2.55 2.55 0 0 0 1.31.7l1 .21V147l1.23.29a2.8 2.8 0 0 0 .65.06 8.1 8.1 0 0 0 1.91-1.65 17.44 17.44 0 0 0 3.08-15.46m4.5.89a8.2 8.2 0 0 0-1-2.12h-.17l-.33-.18a2.7 2.7 0 0 0-.74-.27l-1-.2a8.4 8.4 0 0 1 1.2 2.34 17.44 17.44 0 0 1-3.06 15.5 8.3 8.3 0 0 1-2 1.7l1 .19a2.3 2.3 0 0 0 .79 0h.37l.15.08a8.1 8.1 0 0 0 1.78-1.56 17.44 17.44 0 0 0 3.01-15.48" style="fill:#fff;opacity:.7000000000000001"/><g style="opacity:.05"><path d="M196.87 144.31a1.84 1.84 0 0 1-1.77.77 4.9 4.9 0 0 0-1.92-.19 7.5 7.5 0 0 0-2.08 1.32 24.7 24.7 0 0 1-4.5 2.58 10.77 10.77 0 0 1-6.18 1 4 4 0 0 1-.58-.17 5 5 0 0 1-.51-.22 6 6 0 0 1-.58 0 6 6 0 0 1-.57-.07l-1.78-.33a4 4 0 0 1-.74-.23c-.09 0-.18-.07-.27-.12a3.8 3.8 0 0 1-1.22-.09l-2.22-.44a3.7 3.7 0 0 1-1.52-.67 5 5 0 0 1-.43-.45l-.6-.62a4 4 0 0 0-.91-.68 3.72 3.72 0 0 0-2.81-.29l-2 .58-.42.09h-1.31l-28.45-5.62h-.06a1.7 1.7 0 0 1-.3-.08 4 4 0 0 1-1.49-.85.1.1 0 0 1-.05 0 5 5 0 0 1-.4-.4l-.07-.07a6 6 0 0 1-.36-.47.6.6 0 0 1-.07-.1 4 4 0 0 1-.33-.53l-.06-.11c-.11-.19-.2-.39-.3-.59 0 0 0-.09-.05-.12-.09-.21-.17-.42-.24-.64v-.06c-.09-.28-.18-.57-.25-.86v-.14a15 15 0 0 1-.32-1.82 1 1 0 0 0 0-.15c0-.3 0-.6-.06-.92v-1.16c0-.29 0-.58.05-.88v-.11c0-.32.06-.64.1-1v-.18c0-.28.09-.55.14-.82v-.18q.09-.47.21-.93a1.3 1.3 0 0 0 0-.19c.07-.25.14-.51.22-.75a1.4 1.4 0 0 1 .07-.22c.09-.28.18-.56.28-.83l.12-.3.24-.56.12-.28c.12-.26.24-.51.37-.75a2 2 0 0 1 .11-.21c.13-.23.26-.46.39-.67l.06-.1c.16-.25.32-.49.49-.73l.09-.12c.18-.24.36-.47.55-.69 1.64-1.87 3.45-2.62 5-2.33s3 1.72 3.77 4.08a17.6 17.6 0 0 1-.91 12.06l-.27.55c-.06.14-.13.27-.2.41l-.27.49 23.22 4.55a3.7 3.7 0 0 0 1.78-.08l2-.57a3.75 3.75 0 0 1 3.51.77l.21.19.6.62a3.64 3.64 0 0 0 1.94 1l2.22.44a3.5 3.5 0 0 0 1.21.09 4 4 0 0 0 1 .36l1.78.35a3.7 3.7 0 0 0 1.15 0 3.7 3.7 0 0 0 1.08.39c4.13.81 8.62-1.23 10.5-2.57a7.7 7.7 0 0 1 2.07-1.32 29 29 0 0 1 4 .6 5.74 5.74 0 0 1-1.22 3.34"/><path d="M146.76 123.66a17.5 17.5 0 0 1-3.06 15.5c-1.66 1.9-1.81 3-3.43 2.66l14.53 2.87c1.61.32 3.45-.43 5.1-2.33a17.47 17.47 0 0 0 3.07-15.5c-.82-2.38-2.22-3.77-3.84-4.09l-16.21-3.21c1.62.32 3.08 1.71 3.84 4.1"/></g><path d="M148.16 123.94c1.63 4.76.25 11.7-3.06 15.5-1.66 1.89-3.49 2.64-5.11 2.32L156.2 145c1.62.32 3.45-.43 5.11-2.32a17.5 17.5 0 0 0 3.06-15.5c-.82-2.39-2.22-3.78-3.84-4.1l-16.21-3.2c1.62.28 3.03 1.67 3.84 4.06" style="fill:#10b981"/><path d="M151.23 144a7.5 7.5 0 0 1 1.67-2.82c.69-.75 1.48-1.5 2.31-2.28a29 29 0 0 0 4-4.27 10.8 10.8 0 0 0 1.85-7.24 8.83 8.83 0 0 0-1.55-4.53l-.59-.12a8.55 8.55 0 0 1 1.71 4.67 10.37 10.37 0 0 1-1.77 7 28.5 28.5 0 0 1-3.92 4.2c-.84.8-1.64 1.55-2.34 2.31a8.1 8.1 0 0 0-1.77 3Z" style="fill:#fafafa"/><path d="M149 124.09a17.44 17.44 0 0 1-3.06 15.5c-1.66 1.9-3.49 2.65-5.11 2.33l7.65 1.51a7.6 7.6 0 0 1 1.72-2.93c1.9-2.06 4.64-4.16 6.28-6.52a10.68 10.68 0 0 0 1.81-7.11 8.7 8.7 0 0 0-1.63-4.6L145.12 120c1.62.32 3.03 1.71 3.88 4.09" style="fill:#fafafa"/><path d="M146.06 138.17a12 12 0 0 1-1 1.27c-1.66 1.89-3.49 2.64-5.11 2.32L156.2 145c1.62.32 3.45-.43 5.11-2.32a11 11 0 0 0 .95-1.27Z" style="opacity:.1"/><path d="M179.09 144.59a9 9 0 0 0-5 1.38 5.4 5.4 0 0 1-3.45 1.2 2.6 2.6 0 0 1-1.42-.7L168.16 158c1.76-2.29 5.27-3.55 6.87-5.72s5.32-4.86 5.91-5.55c1.3-1.49-.81-2.12-1.85-2.14" style="fill:#ffa8a7"/><path d="M412.39 143.52s3.41 4.76 11.43 6.22c6.43 1.17 9.82-.58 9.82-1.27s-2.43-2.22-9.58-3.62c-2.98-.58-11.67-1.33-11.67-1.33m-11.57-5.89a42.9 42.9 0 0 0 13.66 3c3.7.2 5.64-.79 5.36-1.57-.17-.45-2.61-1.94-8.23-2.23s-11.35.43-10.79.8m6.32 3.69c.64.28 2.2 2 4.25 5.35 1.39 2.24 3.19 4.75 2.57 5.36s-3.57-1-5.19-3.62-2.27-7.41-1.63-7.09M396.43 135c.68.4 2.87 4.47 3.87 6.35s1.76 4.24 1.16 5.17-2.92-.83-4.34-4.13-1.38-7.78-.69-7.39m-4.22-3.7c.3.56 4.1 1.56 7.79 2.18s8.22.46 7.81-.84-2.93-2.27-6.87-2.53c-4.37-.29-9.03.63-8.73 1.19m-4.14-3.5c.39.11 1.15 3.35 2.19 6.62s1.46 4.62.63 5.22-2.85-.57-3.64-4.28.42-7.67.82-7.56" style="fill:#10b981"/><path d="M429.62 148.35a70.5 70.5 0 0 1-14.62-3.49 84 84 0 0 1-13.74-6.23 52.1 52.1 0 0 1-12.09-9.11 28.7 28.7 0 0 1-7.44-13.06.08.08 0 0 1 .05-.07s.05 0 .06 0a33.3 33.3 0 0 0 8.12 12.33 62 62 0 0 0 11.74 9.11 83 83 0 0 0 13.49 6.47 70.3 70.3 0 0 0 14.47 3.9s.05 0 0 .06a.06.06 0 0 1-.04.09" style="fill:#e0e0e0"/><path d="M422 240.73s6.86-4.08 9.77-14.8c2.34-8.61.34-13.4-.6-13.49s-3.29 3-6 12.6C424 229 422 240.73 422 240.73m-9.31 15.03c.58-.71 4.3-8.83 5.6-18.21.69-5-.43-7.75-1.52-7.45-.63.17-2.94 3.32-4 10.91s-.65 15.46-.08 14.75m5.74-8.15c.45-.84 3-2.75 7.75-5.16 3.2-1.63 6.82-3.78 7.58-2.87s-1.81 4.73-5.52 6.63-10.24 2.23-9.81 1.4m-9.81 13.82c.63-.89 6.4-3.4 9.07-4.53s6-1.9 7.16-1-1.46 3.87-6.1 5.42-10.75.99-10.13.11m-5.52 5.29c.8-.34 2.58-5.39 3.86-10.32s1.57-11.11-.23-10.71-3.43 3.72-4.24 9c-.89 5.94-.19 12.38.61 12.03m-5.23 5.22c.2-.52 4.68-1.18 9.24-2.21s6.45-1.45 7.17-.25-1.1 3.8-6.24 4.45-10.36-1.46-10.17-1.99" style="fill:#10b981"/><path d="M430.57 217.88a96.5 96.5 0 0 1-6.43 19.48 114 114 0 0 1-10.05 17.94 70.6 70.6 0 0 1-13.76 15.37c-5.4 4.27-11.75 7.68-18.6 8.59a.06.06 0 0 1-.08-.06.06.06 0 0 1 .05-.08 45.4 45.4 0 0 0 17.69-9.6 85 85 0 0 0 13.73-14.9 113.7 113.7 0 0 0 10.34-17.57 96.3 96.3 0 0 0 7-19.2.07.07 0 0 1 .09 0 .1.1 0 0 1 .02.03" style="fill:#e0e0e0"/><path d="M90.42 175.39s-2.57 5.26 0 13c2 6.22 5.18 8.36 5.79 8s.79-3.19-1.38-10.15c-.94-2.84-4.41-10.85-4.41-10.85m-.33-12.97A43.2 43.2 0 0 0 94 175.85c1.59 3.34 3.39 4.58 3.93 4 .32-.36.47-3.22-2-8.3s-5.77-9.8-5.84-9.13m-.23 7.31c0 .7-.75 2.9-2.69 6.29-1.31 2.28-2.66 5-3.49 4.81s-.8-3.64.71-6.29 5.41-5.54 5.47-4.81m.45-12.42c0 .79-2.56 4.65-3.74 6.42s-2.9 3.57-4 3.49-.66-3 1.57-5.79 6.2-4.92 6.17-4.12m1.26-5.47c-.35.53.58 4.34 1.79 7.88s3.5 7.45 4.45 6.48.6-3.66-1-7.25c-1.87-3.95-4.89-7.65-5.24-7.11m1.11-5.31c.09.4-2.4 2.61-4.78 5.07s-3.37 3.49-4.3 3-.85-2.78 2-5.24 6.99-3.23 7.08-2.83" style="fill:#10b981"/><path d="M94.36 192.85a70.6 70.6 0 0 1-3.89-14.54 83 83 0 0 1-1-15.05 51.8 51.8 0 0 1 2.26-15c1.6-4.79 4.12-9.44 8-12.76a.05.05 0 0 1 .08 0 .1.1 0 0 1 0 .07 33.2 33.2 0 0 0-7 13 62.4 62.4 0 0 0-2.43 14.66 84 84 0 0 0 .62 15 70 70 0 0 0 3.45 14.58.07.07 0 0 1 0 .08.06.06 0 0 1-.09-.04m295.73 22.37c-.78-11.12-4.78-13.58-7.4-17.62-3.31-5.11-3.26-8.88-3.26-8.88-1.21 3.15-2 12 2.28 17.1 3.58 4.25 6.92 5.07 8.38 9.4m6.79-15.13c6.73-1.75 11.63-6.22 13.18-12.78a22.4 22.4 0 0 1 4.89-10c-14.31 5.33-17.95 17.81-18.07 22.78M125.43 74.6c3.79-10.49 1.13-14.35.37-19.11-1-6 .61-9.44.61-9.44-2.38 2.39-6.68 10.21-4.83 16.56 1.54 5.33 4.27 7.39 3.85 11.99m12.34-11.1c6.86 1.13 13.15-1 17.22-6.34a22.4 22.4 0 0 1 8.5-7.13c-15.22-.95-23.61 8.97-25.72 13.47m273.97 40.62c-1.35-4.34-3.85-8.07-6.59-11.65-3.59-4.7-7.3-9.34-11.24-13.77-.38-.43-.78-.85-1.17-1.28a15.7 15.7 0 0 0 .52-4.06 9.2 9.2 0 0 0-.6-2.94c-1.17-3-5-5.49-5.08-8.77 0-.21-.32-.49-.41-.18a16.94 16.94 0 0 0 .76 10.9c-2-2-4.05-3.87-6.21-5.66-1.19-1-2.39-2-3.61-3-.22-2.78.35-5.55-.55-8.29-.7-2.16-2.42-3.71-4.13-5.08a.2.2 0 0 0-.33.18 21.5 21.5 0 0 1 .49 5.24 12.5 12.5 0 0 0 .13 3.17 7.4 7.4 0 0 0 .72 1.92c-.84-.6-1.69-1.16-2.58-1.7-1.49-1.57-2.3-3.33-4-4.8-.49-.43-1-.84-1.52-1.22s-1-.62-1.56-.93a18.7 18.7 0 0 0-4.07-1.57 27 27 0 0 0-7.23-1.23c-.4 0-.15.52.07.6l.62.26a16.2 16.2 0 0 1 4.1 2.64 8.6 8.6 0 0 1 1.45 1.38 3 3 0 0 0 .47.62c.25.22.52.43.75.67a6 6 0 0 0 .88.77l.72.57c.09.08.31.2.36.32a2.3 2.3 0 0 1-.64.08h-.8c-.9 0-1.77.16-2.67.17s-2 0-3.05.07c-.38 0-1.06.26-.51.65a9 9 0 0 0 1.66.8l1.06.46c.55.23 1.09.5 1.64.73a19.7 19.7 0 0 0 5.22 1.4 19 19 0 0 0 2.5.2c1.92 0 3.85-.14 5.77 0a16 16 0 0 1 1.83.28l2.92 2.36a1 1 0 0 1 .06.14.17.17 0 0 0 .22.08c1 .82 2 1.65 3 2.51a116.5 116.5 0 0 1 10.61 10.7c-.46-.16-.93-.3-1.36-.47a17.8 17.8 0 0 1-3.73-1.93c-4.73-5.28-10.79-7.43-17.87-7.37-.32 0-.22.44 0 .57 3.24 2.2 6.36 4.66 9.88 6.41-2.49-.56-5-1-7.5-1.42a23 23 0 0 0-3.49-.48 2.5 2.5 0 0 0-.65-.25l-.65-.31c-.93-.48-1.86-1-2.78-1.51-.57-.3-1.13-.6-1.71-.89-.42-.21-.83-.39-1.26-.56a8.6 8.6 0 0 0-2.44-.61c-.93-.08-1.88-.08-2.82-.08-1.42 0-2.82.15-4.23.25a14 14 0 0 0-2.31.21c-.36.09-.73.1-1.09.16a6 6 0 0 0-.94.31c-.16 0-.16.19-.11.33 0 .35.47.39.74.49a7 7 0 0 1 1.3.72c.46.27.89.56 1.35.84a17.6 17.6 0 0 0 3.7 1.73 17.4 17.4 0 0 0 3.64.71 19 19 0 0 0 4 0 29.5 29.5 0 0 0 3.86-.73c5.24-.73 10.41 1.7 15.63 2.11 2 .8 4.36 1.31 6.12.11a12.2 12.2 0 0 0 2.73 1.51 23 23 0 0 0 3 1.16c3.42 3.86 6.68 7.85 9.84 11.92 1 1.31 2 2.62 3 4-1-.48-2-.91-3-1.31a12.54 12.54 0 0 0-5.09-5.19 29 29 0 0 0-3.27-1.39c-1.86-.68-4.14-.78-5.86-1.75-.33-.19-.43.23-.27.45 4.43 5.9 11.83 6.91 18.05 10a31.3 31.3 0 0 1 4.48 8.65c.14.61 1.39.53 1.13-.13m-53.39-52a14.8 14.8 0 0 0-3.09-2 34 34 0 0 1 3.86.72 37 37 0 0 1 4 1.09 10 10 0 0 1 1.5.63l1 .52a8 8 0 0 1 1.14.78 12 12 0 0 1 1.12 1.1 15 15 0 0 1 1.12 1.28 29 29 0 0 0 2.15 2.58 2.9 2.9 0 0 0-1-.5 8 8 0 0 0-1.09-.26c-.34-.08-.67-.16-1-.26s-.61-.08-.9-.13a17 17 0 0 1-1.73-.33 9.5 9.5 0 0 1-2.14-.75 11.3 11.3 0 0 1-2.73-2.32 23 23 0 0 0-2.21-2.15m5.3 8.48-.31-.05a10 10 0 0 1-1.06-.21c-.7-.19-1.41-.33-2.08-.58-.31-.12-.61-.26-.92-.39-.76-.32-1.58-.54-2.33-.91-.12-.06-.67-.27-.5-.43s.69-.06.84-.06c1.1 0 2.2-.06 3.31-.06h1.76a43 43 0 0 1 4.8.31 12 12 0 0 1 1.68.38c.3.1.6.21.89.33a18.3 18.3 0 0 1 4.34 2.55 3.3 3.3 0 0 0-1.25-.26c-.45-.06-.89-.1-1.34-.12h-2.43a39 39 0 0 1-5-.42Zm11.7.87c-1.22-1.69-1.31-3.87-1.23-5.95a17 17 0 0 0 0-2.49c-.11-1.06-1-2 .37-1.18 2.44 1.43 2.91 5.3 2.94 7.8a27 27 0 0 0 0 3.48c-.67-.56-1.37-1.13-2.08-1.66m-10.09 12.07-1.24.27a18.3 18.3 0 0 1-4.07.43 15.7 15.7 0 0 1-4.08-.48 22.6 22.6 0 0 1-5.16-2c-.24-.14-2.36-1.13-2.06-1.49s1.13-.3 1.41-.33c3.41-.37 7-.8 10.33.43a19.4 19.4 0 0 1 2.76 1.21c.52.3 1 .61 1.56.9.26.15.52.29.79.42l.4.2c.08 0 .29.18.37.17a5 5 0 0 0-1.01.27m16.33 2.33-.64-.17c-4-1.36-8-4.67-11.07-6.89a25.1 25.1 0 0 1 8.91 1.58C382 71.62 384 73.8 386.48 76a8.85 8.85 0 0 1-4.89-.13m10.57.92c-.9-1-1.83-2-2.76-2.92a15 15 0 0 1-2.16-7.22c0-.5.19-3.18.05-4.09.21.55.63 1.71.63 1.73.73 1.28 1.79 2.34 2.61 3.55a10.1 10.1 0 0 1 2 5.68 30 30 0 0 1-.37 3.27m-3 9.34c.79.26 1.62.39 2.42.59a30 30 0 0 1 5 1.77 13.9 13.9 0 0 1 5.34 4.73c-4.66-1.79-9.44-3.31-12.77-7.09ZM135 289.19a31.5 31.5 0 0 1-8.72-4.36c-3.17-6.17-4.29-13.56-10.25-17.9-.22-.16-.64-.05-.45.27 1 1.71 1.13 4 1.83 5.84a32 32 0 0 0 1.44 3.25 12.6 12.6 0 0 0 5.26 5c.42 1 .86 2 1.36 3-1.37-.95-2.69-1.94-4-2.93-4.11-3.1-8.15-6.3-12.06-9.67a21 21 0 0 0-1.2-2.94 12 12 0 0 0-1.55-2.71c1.18-1.78.63-4.1-.19-6.12-.49-5.21-3-10.35-2.34-15.6a29 29 0 0 0 .68-3.87 19 19 0 0 0-.06-4 15.8 15.8 0 0 0-2.57-7.33c-.28-.46-.58-.88-.85-1.34a6.3 6.3 0 0 1-.74-1.29c-.11-.27-.15-.76-.5-.73-.14-.05-.29-.05-.33.11a6.4 6.4 0 0 0-.29.94c-.06.37-.07.74-.15 1.1a14 14 0 0 0-.18 2.31c-.08 1.42-.21 2.81-.19 4.24 0 .94 0 1.88.12 2.82a9 9 0 0 0 .65 2.42c.18.44.36.84.58 1.26.29.57.6 1.13.91 1.69.52.92 1 1.84 1.54 2.76.12.22.23.43.33.65a2.7 2.7 0 0 0 .26.65 22 22 0 0 0 .53 3.48c.47 2.45.93 5 1.52 7.48-1.8-3.5-4.3-6.58-6.55-9.79-.13-.18-.57-.27-.57 0 0 7.08 2.28 13.11 7.63 17.76a17.8 17.8 0 0 1 2 3.7c.18.43.32.9.49 1.36a116.5 116.5 0 0 1-10.85-10.46q-1.305-1.5-2.55-3a.16.16 0 0 0-.09-.22l-.14-.06-2.4-2.89a15 15 0 0 1-.3-1.82c-.2-1.92-.11-3.85-.12-5.77a19 19 0 0 0-.23-2.5 19.6 19.6 0 0 0-1.48-5.2c-.23-.54-.51-1.08-.75-1.63-.16-.34-.31-.7-.48-1.05a8.5 8.5 0 0 0-.82-1.65c-.4-.54-.61.14-.64.52-.08 1 0 2 0 3.05s-.15 1.77-.13 2.68v.79a2 2 0 0 1-.07.64c-.12 0-.24-.26-.32-.36s-.4-.46-.58-.7a6.5 6.5 0 0 0-.78-.88c-.25-.22-.46-.49-.69-.73a2.6 2.6 0 0 0-.63-.46 9.4 9.4 0 0 1-1.39-1.43 16.2 16.2 0 0 1-2.7-4.06c-.1-.2-.19-.41-.27-.62s-.62-.46-.6-.06a26.8 26.8 0 0 0 1.33 7.21 19 19 0 0 0 1.63 4.05c.32.52.59 1.05 1 1.54a18 18 0 0 0 1.23 1.51c1.5 1.64 3.27 2.43 4.86 3.9.55.88 1.12 1.72 1.74 2.55a7.5 7.5 0 0 0-1.93-.69 12.5 12.5 0 0 0-3.18-.09 21.4 21.4 0 0 1-5.24-.41.2.2 0 0 0-.18.33c1.4 1.69 3 3.39 5.14 4.06 2.75.86 5.51.25 8.3.43 1 1.21 2.09 2.39 3.09 3.57 1.82 2.13 3.75 4.16 5.75 6.13a16.92 16.92 0 0 0-10.91-.61c-.31.1 0 .4.18.41 3.28 0 5.82 3.83 8.85 4.95a9.2 9.2 0 0 0 2.94.56 16 16 0 0 0 4.06-.58c.43.39.86.78 1.29 1.15 4.49 3.88 9.18 7.52 13.93 11.05 3.62 2.68 7.39 5.13 11.74 6.42.59.3.65-.9 0-1.08m-50.65-49.35a10.9 10.9 0 0 1 2.35 2.7 9.3 9.3 0 0 1 .79 2.12 16 16 0 0 1 .35 1.72 7 7 0 0 0 .15.9c.1.33.19.66.27 1a8 8 0 0 0 .27 1.09 2.9 2.9 0 0 0 .52 1 30 30 0 0 0-2.61-2.12 12.5 12.5 0 0 1-1.29-1.1 10.5 10.5 0 0 1-1.11-1.1 8 8 0 0 1-.8-1.13c-.17-.32-.36-.63-.54-.95a11 11 0 0 1-.65-1.49c-.48-1.31-.8-2.64-1.15-4a36 36 0 0 1-.77-3.85 14.8 14.8 0 0 0 2 3.06 23 23 0 0 0 2.22 2.15m6.44 3.5a39 39 0 0 1 .5 5c0 .8 0 1.62.08 2.43 0 .45.08.89.14 1.34a3.4 3.4 0 0 0 .28 1.24 18 18 0 0 1-2.61-4.3c-.13-.29-.24-.59-.34-.89a12 12 0 0 1-.41-1.67 41 41 0 0 1-.37-4.79c0-.59-.06-1.18-.07-1.77v-3.31c0-.15-.07-.7 0-.83s.38.37.44.49c.38.74.61 1.55.94 2.31.13.31.28.6.4.91.26.68.42 1.38.62 2.08.1.35.15.71.22 1.06v.3c0 .1.16.26.18.4m2.66 13.33a25.5 25.5 0 0 0-3.48 0c-2.5 0-6.38-.41-7.84-2.83-.83-1.38.11-.48 1.17-.39a17 17 0 0 0 2.49 0c2.08-.11 4.26 0 6 1.14.52.7 1.09 1.41 1.66 2.08m10-11.33c0-.08-.14-.29-.18-.37l-.2-.4c-.14-.26-.28-.52-.43-.78-.3-.52-.62-1-.92-1.54a18 18 0 0 1-1.25-2.75c-1.28-3.27-.9-6.9-.58-10.32 0-.28.05-1.2.31-1.42s1.37 1.81 1.51 2.05a22.4 22.4 0 0 1 2.07 5.13 15.6 15.6 0 0 1 .54 4.07 18 18 0 0 1-.38 4.08l-.25 1.24a5 5 0 0 0-.25 1.01Zm3 20.17c-2.22-2.45-4.43-4.41-5.73-7.64A25 25 0 0 1 99 249c2.26 3.06 5.63 7 7.05 11 .06.21.11.43.18.64a8.9 8.9 0 0 1 .2 4.87Zm-2.38 6.11a10.1 10.1 0 0 1-5.71-1.94c-1.22-.8-2.29-1.85-3.58-2.56 0 0-1.19-.4-1.74-.6.91.12 3.59-.14 4.09-.11a15.1 15.1 0 0 1 7.25 2c1 .92 2 1.84 3 2.72a30 30 0 0 1-3.33.49Zm19.83 9a13.9 13.9 0 0 1-4.8-5.28 30 30 0 0 1-1.84-4.93c-.21-.8-.36-1.63-.63-2.41 3.81 3.31 5.37 8.07 7.25 12.66Z" style="fill:#e0e0e0"/></svg>